<svg width="1008" height="513" viewBox="0 0 1008 513" fill="none" xmlns="http://www.w3.org/2000/svg">
<g clip-path="url(#clip0_76_131)">
<path fill-rule="evenodd" clip-rule="evenodd" d="M2.09815e-06 513L0 38L731.444 37.9991L756.426 0H1008V475.001L275.598 475L250.582 513H2.09815e-06Z" fill="#FFF4F0"/>
<mask id="path-2-inside-1_76_131" fill="white">
<path fill-rule="evenodd" clip-rule="evenodd" d="M2.09815e-06 513L0 38L731.444 37.9991L756.426 0H1008V475.001L275.598 475L250.582 513H2.09815e-06Z"/>
</mask>
<path d="M0 38L-6.07582e-06 33L-5 33L-5 38L0 38ZM2.09815e-06 513L-5 513L-5 518H2.09815e-06V513ZM731.444 37.9991L731.444 42.9991L734.14 42.9991L735.622 40.7458L731.444 37.9991ZM756.426 0V-5H753.729L752.248 -2.74675L756.426 0ZM1008 0H1013V-5H1008V0ZM1008 475.001L1008 480.001L1013 480.001V475.001H1008ZM275.598 475L275.598 470L272.903 470L271.421 472.251L275.598 475ZM250.582 513V518H253.277L254.759 515.749L250.582 513ZM-5 38L-5 513L5 513L5 38L-5 38ZM731.444 32.9991L-6.07582e-06 33L6.07582e-06 43L731.444 42.9991L731.444 32.9991ZM752.248 -2.74675L727.266 35.2523L735.622 40.7458L760.604 2.74675L752.248 -2.74675ZM1008 -5H756.426V5H1008V-5ZM1013 475.001V0H1003V475.001H1013ZM1008 470.001L275.598 470L275.598 480L1008 480.001L1008 470.001ZM271.421 472.251L246.406 510.251L254.759 515.749L279.774 477.749L271.421 472.251ZM2.09815e-06 518H250.582V508H2.09815e-06V518Z" fill="#F14600" fill-opacity="0.05" mask="url(#path-2-inside-1_76_131)"/>
<path d="M-3.5 511H249.5L274.5 473H1006V-0.5" stroke="#FDCCBA" stroke-width="5"/>
<g clip-path="url(#clip1_76_131)">
<path d="M282.383 505.716V508.999H279.127V505.716H282.383ZM266.09 508.999H269.345V505.716H266.09V508.999ZM266.09 495.854H269.345V492.572H266.09V495.854ZM253.052 508.999H256.308V505.716H253.052V508.999ZM253.052 495.854H256.308V492.572H253.052V495.854ZM240.015 508.999H243.271V505.716H240.015V508.999ZM240.015 495.854H243.271V492.572H240.015V495.854ZM226.977 508.999H230.233V505.716H226.977V508.999ZM226.977 495.854H230.233V492.572H226.977V495.854ZM220.459 502.427H223.714V499.144H220.459V502.427ZM213.94 508.999H217.196V505.716H213.94V508.999ZM213.94 495.854H217.196V492.572H213.94V495.854ZM207.421 502.427H210.677V499.144H207.421V502.427ZM207.421 489.282H210.677V485.999H207.421V489.282ZM200.902 508.999H204.158V505.716H200.902V508.999ZM200.902 495.854H204.158V492.572H200.902V495.854ZM194.384 502.427H197.64V499.144H194.384V502.427ZM194.384 489.282H197.64V485.999H194.384V489.282ZM187.865 508.999H191.121V505.716H187.865V508.999ZM187.865 495.854H191.121V492.572H187.865V495.854ZM181.346 502.427H184.602V499.144H181.346V502.427ZM181.346 489.282L184.602 489.282V485.999H181.346V489.282ZM174.828 508.999H178.084V505.716H174.828V508.999ZM174.828 495.854H178.084V492.572H174.828V495.854ZM168.309 508.999H171.565V505.716H168.309V508.999ZM168.309 502.427H171.565V499.144H168.309V502.427ZM168.309 489.282H171.565V485.999H168.309V489.282ZM161.79 508.999H165.046V505.716H161.79V508.999ZM161.79 495.854H165.046V492.572H161.79V495.854ZM155.271 508.999H158.527V505.716H155.271V508.999ZM155.271 502.427H158.527V499.144H155.271V502.427ZM155.271 495.854H158.527V492.572H155.271V495.854ZM155.271 489.282H158.527V485.999H155.271V489.282ZM148.753 508.999H152.009V505.716H148.753V508.999ZM148.753 495.854H152.009V492.572H148.753V495.854ZM142.234 508.999H145.49V505.716H142.234V508.999ZM142.234 502.427H145.49V499.144H142.234V502.427ZM142.234 495.854H145.49V492.572H142.234V495.854ZM142.234 489.282H145.49V485.999H142.234V489.282ZM135.715 508.999H138.971V505.716H135.715V508.999ZM135.715 495.854H138.971V492.572H135.715V495.854ZM129.197 508.999H132.453V505.716H129.197V508.999ZM129.197 502.427H132.453V499.144H129.197V502.427ZM129.197 495.854H132.453V492.572H129.197V495.854ZM129.197 489.282H132.453V485.999H129.197V489.282ZM122.678 508.999H125.934V505.716H122.678V508.999ZM122.678 495.854H125.934V492.572H122.678V495.854ZM116.159 508.999H119.415V505.716H116.159V508.999ZM116.159 502.427H119.415V499.144H116.159V502.427ZM116.159 495.854H119.415V492.572H116.159V495.854ZM116.159 489.282H119.415V485.999H116.159V489.282ZM109.641 508.999H112.896V505.716H109.641V508.999ZM109.641 502.427H112.896V499.144H109.641V502.427ZM109.641 495.854H112.896V492.572H109.641V495.854ZM103.122 508.999H106.378V505.716H103.122V508.999ZM103.122 502.427H106.378V499.144H103.122V502.427ZM103.122 495.854H106.378V492.572H103.122V495.854ZM103.122 489.282H106.378V485.999H103.122V489.282ZM96.6031 508.999H99.859V505.716H96.6031V508.999ZM96.6031 502.427H99.859V499.144H96.6031V502.427ZM96.6031 495.854H99.859V492.572H96.6031V495.854ZM96.6031 489.282H99.859V485.999L96.6031 485.999V489.282ZM90.0844 508.999H93.3403V505.716H90.0844V508.999ZM90.0844 502.427H93.3403V499.144H90.0844V502.427ZM90.0844 495.854H93.3403V492.572H90.0844V495.854ZM90.0844 489.282H93.3403V485.999H90.0844V489.282ZM83.5657 508.999H86.8216V505.716H83.5657V508.999ZM83.5657 502.427H86.8216V499.144H83.5657V502.427ZM83.5657 495.854H86.8216V492.572H83.5657V495.854ZM83.5657 489.282H86.8216V485.999H83.5657V489.282ZM77.047 508.999H80.3029V505.716H77.047V508.999ZM77.047 502.427H80.3029V499.144H77.047V502.427ZM77.047 495.854H80.3029V492.572H77.047V495.854ZM77.047 489.282H80.3029V485.999H77.047V489.282ZM70.5283 508.999H73.7842V505.716H70.5283V508.999ZM70.5283 502.427H73.7842V499.144H70.5283V502.427ZM70.5283 495.854H73.7842V492.572H70.5283V495.854ZM70.5283 489.282H73.7842V485.999H70.5283V489.282ZM64.0096 508.999H67.2655V505.716H64.0096V508.999ZM64.0096 502.427H67.2655V499.144H64.0096V502.427ZM64.0096 495.854H67.2655V492.572H64.0096V495.854ZM64.0096 489.282H67.2655V485.999H64.0096V489.282ZM57.4909 508.999H60.7468L60.7468 505.716H57.4909L57.4909 508.999ZM57.4909 502.427H60.7468V499.144H57.4909V502.427ZM57.4909 495.854H60.7468V492.572H57.4909V495.854ZM57.4909 489.282H60.7468V485.999H57.4909V489.282ZM54.235 508.999L54.235 505.716H50.9791L50.9791 508.999H54.235ZM50.9791 502.427H54.235V499.144H50.9791V502.427ZM50.9791 495.854H54.235V492.572H50.9791V495.854ZM50.9791 489.282H54.235V485.999H50.9791V489.282ZM47.7232 505.709H50.9791V502.427H47.7232V505.709ZM44.4673 508.992H47.7232L47.7232 505.709H44.4673L44.4673 508.992ZM44.4673 499.137V502.42H47.7232V499.137H44.4673ZM47.7232 492.565H44.4673V495.847H47.7232V492.565ZM47.7232 485.992H44.4673V489.275H47.7232V485.999V485.992ZM41.2045 508.992L41.2045 505.709H37.9486L37.9486 508.992H41.2045ZM37.9486 502.42H41.2045V499.137H37.9486V502.42ZM41.2045 495.847V492.565H37.9486V495.847H41.2045ZM37.9486 489.275H41.2045V485.999H37.9486V489.282V489.275ZM34.6927 505.702H37.9486V502.42H34.6927V505.702ZM34.6927 492.558H37.9486V489.275H34.6927V492.558ZM31.4369 508.985H34.6927V505.702H31.4369V508.985ZM31.4369 499.13V502.413H34.6927V499.13H31.4369ZM31.4369 495.847H34.6927V492.565H31.4369V495.847ZM31.4369 485.992V489.275H34.6927V485.999H31.4369V485.992ZM28.181 508.992V505.709H24.9251V508.992H28.181ZM24.9251 502.42H28.181V499.137H24.9251V502.42ZM28.181 495.847V492.565H24.9251V495.847H28.181ZM24.9251 489.275H28.181V485.999H24.9251V489.282V489.275ZM21.6692 505.702H24.9251V502.42H21.6692V505.702ZM21.6692 492.558H24.9251V489.275H21.6692V492.558ZM18.4133 508.985H21.6692V505.702H18.4133V508.985ZM18.4133 499.13V502.413H21.6692V499.13H18.4133ZM18.4133 495.847H21.6692V492.565H18.4133V495.847ZM18.4133 485.992V489.275H21.6692V485.999H18.4133V485.992ZM15.1574 508.992V505.709H11.9015V508.992H15.1574ZM11.9015 502.42H15.1574V499.137H11.9015L11.9015 502.42ZM15.1574 495.847V492.565H11.9015L11.9015 495.847H15.1574ZM11.9015 489.275H15.1574V485.999H11.9015V489.282V489.275ZM8.64563 505.702H11.9015V502.42H8.64563V505.702ZM8.64563 492.558H11.9015V489.275H8.64563V492.558ZM5.38281 508.999H8.6387V505.716H5.38281V508.999ZM5.38281 499.144L5.38281 502.427H8.6387L8.6387 499.144H5.38281ZM5.38281 495.861H8.6387L8.6387 492.579H5.38281L5.38281 495.861ZM5.38281 485.999L5.38281 489.282H8.6387V485.999H5.38281Z" fill="#FDCCBA"/>
<path d="M15.1574 505.702V508.985H11.9015V505.702L15.1574 505.702Z" fill="#FDCCBA"/>
<path d="M15.1574 502.413H11.9015V505.695H8.64563V502.413H11.9015L11.9015 499.13H15.1574V502.413Z" fill="#FDCCBA"/>
<path d="M15.1574 492.558V495.84H11.9015L11.9015 492.558L15.1574 492.558Z" fill="#FDCCBA"/>
<path d="M15.1574 489.268H11.9015V489.275V492.551H8.64563V489.268H11.9015V485.992H15.1574V489.268Z" fill="#FDCCBA"/>
<path d="M8.6387 508.992H5.38281V505.709H8.6387V508.992Z" fill="#FDCCBA"/>
<path d="M5.38281 502.42L5.38281 499.137H8.6387L8.6387 502.42H5.38281Z" fill="#FDCCBA"/>
<path d="M8.6387 495.854H5.38281L5.38281 492.572H8.6387L8.6387 495.854Z" fill="#FDCCBA"/>
<path d="M5.38281 489.275L5.38281 485.992H8.6387V489.275H5.38281Z" fill="#FDCCBA"/>
</g>
<g clip-path="url(#clip2_76_131)">
<path d="M998.992 13.1522L998.992 10L995.834 10L995.834 13.1522L998.992 13.1522Z" fill="#FDCCBA"/>
<path d="M998.992 25.7694L998.992 22.6172L995.834 22.6172L995.834 25.7694L998.992 25.7694Z" fill="#FDCCBA"/>
<path d="M998.992 38.3866L998.992 35.2344L995.834 35.2344L995.834 38.3866L998.992 38.3866Z" fill="#FDCCBA"/>
<path d="M998.992 50.996L998.992 47.8438L995.834 47.8437L995.834 50.996L998.992 50.996Z" fill="#FDCCBA"/>
<path d="M986.355 13.1522L986.355 10L983.197 10L983.197 13.1522L986.355 13.1522Z" fill="#FDCCBA"/>
<path d="M986.355 25.7694L986.355 22.6172L983.197 22.6172L983.197 25.7694L986.355 25.7694Z" fill="#FDCCBA"/>
<path d="M986.355 38.3866L986.355 35.2344L983.197 35.2344L983.197 38.3866L986.355 38.3866Z" fill="#FDCCBA"/>
<path d="M986.355 50.996L986.355 47.8438L983.197 47.8437L983.197 50.996L986.355 50.996Z" fill="#FDCCBA"/>
<path d="M973.711 13.1522L973.711 10L970.553 10L970.553 13.1522L973.711 13.1522Z" fill="#FDCCBA"/>
<path d="M973.711 25.7694L973.711 22.6172L970.553 22.6172L970.553 25.7694L973.711 25.7694Z" fill="#FDCCBA"/>
<path d="M973.711 38.3866L973.711 35.2344L970.553 35.2344L970.553 38.3866L973.711 38.3866Z" fill="#FDCCBA"/>
<path d="M973.711 50.996L973.711 47.8438L970.553 47.8437L970.553 50.996L973.711 50.996Z" fill="#FDCCBA"/>
<path d="M961.074 13.1522L961.074 10L957.916 10L957.916 13.1522L961.074 13.1522Z" fill="#FDCCBA"/>
<path d="M961.074 25.7694L961.074 22.6172L957.916 22.6172L957.916 25.7694L961.074 25.7694Z" fill="#FDCCBA"/>
<path d="M961.074 38.3866L961.074 35.2344L957.916 35.2344L957.916 38.3866L961.074 38.3866Z" fill="#FDCCBA"/>
<path d="M961.074 50.996L961.074 47.8438L957.916 47.8437L957.916 50.996L961.074 50.996Z" fill="#FDCCBA"/>
<path d="M948.431 13.1522L948.431 10L945.273 10L945.273 13.1522L948.431 13.1522Z" fill="#FDCCBA"/>
<path d="M948.432 25.7694L948.432 22.6172L945.274 22.6172L945.274 25.7694L948.432 25.7694Z" fill="#FDCCBA"/>
<path d="M948.432 38.3866L948.432 35.2344L945.274 35.2344L945.274 38.3866L948.432 38.3866Z" fill="#FDCCBA"/>
<path d="M948.432 50.996L948.432 47.8438L945.274 47.8437L945.274 50.996L948.432 50.996Z" fill="#FDCCBA"/>
<path d="M935.794 13.1522L935.794 10L932.636 10L932.636 13.1522L935.794 13.1522Z" fill="#FDCCBA"/>
<path d="M935.795 25.7694L935.795 22.6172L932.637 22.6172L932.637 25.7694L935.795 25.7694Z" fill="#FDCCBA"/>
<path d="M935.795 38.3866L935.795 35.2344L932.637 35.2344L932.637 38.3866L935.795 38.3866Z" fill="#FDCCBA"/>
<path d="M935.795 50.996L935.795 47.8438L932.637 47.8437L932.637 50.996L935.795 50.996Z" fill="#FDCCBA"/>
<path d="M923.15 13.1522L923.15 10L919.992 10L919.992 13.1522L923.15 13.1522Z" fill="#FDCCBA"/>
<path d="M923.15 25.7694L923.15 22.6172L919.992 22.6172L919.992 25.7694L923.15 25.7694Z" fill="#FDCCBA"/>
<path d="M923.15 38.3866L923.15 35.2344L919.992 35.2344L919.992 38.3866L923.15 38.3866Z" fill="#FDCCBA"/>
<path d="M923.15 50.996L923.15 47.8438L919.992 47.8437L919.992 50.996L923.15 50.996Z" fill="#FDCCBA"/>
</g>
</g>
<defs>
<clipPath id="clip0_76_131">
<rect width="1008" height="513" fill="white"/>
</clipPath>
<clipPath id="clip1_76_131">
<rect width="277" height="23" fill="white" transform="translate(-31 486)"/>
</clipPath>
<clipPath id="clip2_76_131">
<rect width="41" height="79" fill="white" transform="translate(999 10) rotate(90)"/>
</clipPath>
</defs>
</svg>
