<svg xmlns="http://www.w3.org/2000/svg" width="16" height="25" viewBox="0 0 16 25" fill="none">
  <path fill-rule="evenodd" clip-rule="evenodd" d="M9.43182 5.3732C8.42052 4.8756 7.23554 4.8756 6.22424 5.3732L2.88254 7.01744C1.89498 7.50335 1.18098 8.41079 0.941022 9.48494L0.271046 12.4841H3.61114L3.95648 10.9381C4.07646 10.401 4.43345 9.94732 4.92722 9.70436L7.02448 8.67241C7.53014 8.4236 8.12264 8.42359 8.6283 8.67241L10.7256 9.70436C11.2193 9.94732 11.5763 10.401 11.6963 10.9381L12.0416 12.4841H15.385L14.715 9.48494C14.4751 8.41079 13.7611 7.50335 12.7735 7.01744L9.43182 5.3732ZM0.769053 16.3332C0.195183 15.598 -0.0703183 14.6754 0.0159475 13.7581H3.38112C3.39005 14.1448 3.52244 14.5228 3.76515 14.8338L5.23866 16.7217C5.58286 17.1627 6.11108 17.4205 6.67051 17.4205H8.98228C9.54171 17.4205 10.0699 17.1627 10.4141 16.7217L11.8876 14.8338C12.1303 14.5228 12.2627 14.1448 12.2717 13.7581H15.6401C15.7264 14.6754 15.4609 15.598 14.887 16.3332L12.5302 19.3527C11.8418 20.2347 10.7854 20.7503 9.66655 20.7503H5.98951C4.87067 20.7503 3.81425 20.2347 3.12584 19.3527L0.769053 16.3332ZM7.0232 10.21C7.52886 9.96119 8.12137 9.96119 8.62703 10.21L9.55443 10.6663C10.0482 10.9093 10.4052 11.363 10.5252 11.9001L10.7684 12.9888C10.8868 13.5189 10.7618 14.0742 10.4276 14.5024L9.76363 15.353C9.41943 15.794 8.89121 16.0518 8.33178 16.0518H7.31845C6.75902 16.0518 6.2308 15.794 5.8866 15.353L5.22266 14.5024C4.88847 14.0742 4.76344 13.5189 4.88185 12.9888L5.12506 11.9001C5.24503 11.363 5.60203 10.9093 6.0958 10.6663L7.0232 10.21ZM8.34151 11.7372H7.46842V12.6309H6.59698V13.5224H7.46842V14.4127H8.34151V13.5224H9.21549V12.6309H8.34151V11.7372Z" fill="#F14600"/>
</svg>
