<svg xmlns="http://www.w3.org/2000/svg" width="240" height="46" fill="none" viewBox="0 0 240 46"><path fill="black" d="M59.26 20.013c.9 0 1.738-.18 2.577-.539.779-.36 1.498-.959 2.037-1.678l2.457 2.517c-1.918 2.157-4.135 3.236-6.771 3.236a7.754 7.754 0 0 1-3.476-.6c-1.078-.42-2.097-1.078-2.995-1.857-.84-.78-1.498-1.798-1.918-2.816-.42-1.079-.66-2.218-.6-3.356-.06-1.139.18-2.337.6-3.415.42-1.079 1.079-2.038 1.918-2.877a9.331 9.331 0 0 1 3.115-1.917 9.345 9.345 0 0 1 3.655-.54c1.259.06 2.457.36 3.596.9 1.138.539 2.097 1.318 2.936 2.276l-2.337 2.697a5.14 5.14 0 0 0-1.977-1.618c-.78-.36-1.618-.6-2.517-.6a5.55 5.55 0 0 0-3.655 1.379c-.54.48-.899 1.079-1.199 1.738-.24.659-.36 1.378-.36 2.037-.06.719.06 1.378.3 2.037.24.66.6 1.259 1.139 1.738.959.779 2.217 1.258 3.475 1.258Zm9.947 3.296V6.41h3.775v13.542h7.25v3.356H69.207Zm27.564-2.337c-1.738 1.618-3.955 2.517-6.352 2.517-2.397 0-4.614-.9-6.352-2.517a7.606 7.606 0 0 1-1.917-2.816c-.42-1.079-.66-2.217-.66-3.356-.06-1.138.18-2.337.6-3.355a7.605 7.605 0 0 1 1.917-2.817c1.738-1.617 3.955-2.516 6.352-2.516 2.397 0 4.614.899 6.352 2.516a7.605 7.605 0 0 1 1.917 2.817c.42 1.078.66 2.217.6 3.355.06 1.139-.18 2.337-.6 3.356-.36 1.078-1.019 2.037-1.858 2.816ZM95.451 14.8c0-1.438-.539-2.816-1.498-3.895-.48-.479-1.018-.898-1.618-1.198-.599-.3-1.318-.42-1.977-.42a4.7 4.7 0 0 0-1.977.42c-.6.3-1.199.659-1.618 1.198a5.861 5.861 0 0 0-1.498 3.895c0 1.438.54 2.816 1.498 3.895.48.48 1.019.899 1.618 1.198.599.3 1.318.42 1.977.42a4.7 4.7 0 0 0 1.977-.42c.6-.3 1.199-.659 1.618-1.198.48-.54.9-1.139 1.139-1.798.3-.719.42-1.378.36-2.097Zm11.565 4.195c.3.419.719.719 1.138.898.42.18.959.3 1.438.3.48 0 .959-.06 1.379-.3a2.64 2.64 0 0 0 1.078-.898 5.04 5.04 0 0 0 .899-3.176V6.47h3.775v9.468c0 2.456-.659 4.314-2.037 5.632-.719.66-1.498 1.199-2.397 1.498-.899.36-1.858.48-2.816.48-.959 0-1.918-.12-2.817-.48-.898-.36-1.737-.839-2.396-1.498-1.379-1.318-2.038-3.176-2.038-5.632V6.47h3.775v9.348c0 1.138.36 2.277 1.019 3.176Zm26.665-10.367c1.617 1.498 2.456 3.536 2.456 6.172 0 2.637-.779 4.734-2.337 6.292-1.558 1.558-4.014 2.277-7.19 2.277h-5.872V6.41h5.992c2.996 0 5.333.72 6.951 2.217Zm-2.757 10.067c.899-.839 1.378-2.157 1.378-3.835s-.479-2.936-1.378-3.835c-.899-.899-2.337-1.378-4.254-1.378h-2.097v10.306h2.396c1.439.12 2.877-.3 3.955-1.258ZM157.65 6.411h3.775V23.37h-3.775l-8.09-10.606v10.606h-3.775V6.41h3.536l8.329 10.906V6.41Zm20.013 16.898-1.618-3.655h-7.13l-1.618 3.655h-4.075l7.311-16.958h3.655l7.37 16.958h-3.895Zm-5.093-11.864-2.097 4.913h4.194l-2.097-4.913Zm17.077-1.738v13.662h-3.775V9.707h-4.793V6.47h13.422v3.236h-4.854Zm7.49-3.296h3.775V23.37h-3.775V6.41Zm14.261 10.786 4.315-10.786h4.134l-6.771 16.958H209.9L203.129 6.41h4.135l4.134 10.786Zm22.59-10.786v3.356h-8.448v3.475h7.609v3.236h-7.609v3.535h8.748v3.356h-12.464V6.47l12.164-.06ZM54.886 37.75c.48 0 .959-.12 1.438-.3.42-.24.84-.54 1.139-.959l1.378 1.438c-.48.54-1.019 1.02-1.738 1.319-.659.3-1.378.48-2.097.48-.66 0-1.318-.06-1.917-.3-.6-.24-1.199-.6-1.678-1.08a4.055 4.055 0 0 1-1.079-1.557 5.19 5.19 0 0 1-.36-1.917c0-.66.12-1.319.36-1.918.24-.6.6-1.138 1.079-1.618a4.789 4.789 0 0 1 1.618-1.078c.599-.24 1.258-.36 1.917-.36.72 0 1.498.12 2.157.42.66.3 1.258.779 1.798 1.318l-1.318 1.498c-.3-.42-.66-.72-1.079-.959-.42-.24-.899-.3-1.438-.3-.78 0-1.498.3-2.037.78-.3.24-.54.599-.66.958-.12.36-.24.78-.18 1.139 0 .36.06.779.18 1.138.12.36.36.72.6.959.24.24.539.48.898.6.36.119.66.299 1.02.299Zm13.362.539c-.958.899-2.217 1.438-3.535 1.438a5.19 5.19 0 0 1-1.917-.36c-.6-.24-1.139-.599-1.618-1.078a4.944 4.944 0 0 1-1.438-3.475c0-1.319.539-2.577 1.438-3.476.959-.899 2.217-1.438 3.535-1.438.66 0 1.318.12 1.918.36.599.24 1.138.599 1.617 1.078a4.944 4.944 0 0 1 1.438 3.476c0 1.318-.539 2.576-1.438 3.475Zm-.659-3.475c0-.78-.24-1.558-.779-2.157-.24-.3-.539-.48-.898-.66-.36-.18-.72-.24-1.08-.24-.359 0-.778.06-1.078.24-.36.18-.659.42-.898.72-.3.299-.48.599-.6 1.018-.12.36-.18.779-.18 1.139 0 .779.3 1.557.78 2.157.24.3.539.479.898.659.36.18.72.24 1.079.24.36 0 .779-.06 1.079-.24.359-.18.659-.42.898-.72.48-.539.78-1.317.78-2.156Zm12.404-1.199-2.577 5.213h-1.258l-2.577-5.213v5.992h-2.097V30.14h2.876l2.457 5.213 2.457-5.213h2.876v9.527h-2.097l-.06-6.052Zm11.025-2.576c.36.3.66.719.839 1.198.18.48.24.959.18 1.438 0 1.199-.36 2.037-1.019 2.577-.659.599-1.737.779-3.116.779h-1.258v2.636h-2.157V30.14h3.355c1.439 0 2.457.3 3.176.899Zm-1.558 3.715c.3-.36.42-.78.42-1.259 0-.24 0-.42-.12-.659-.12-.18-.24-.36-.42-.48a3.497 3.497 0 0 0-1.558-.359h-1.198v3.176h1.438c.24 0 .54 0 .78-.06.239-.12.478-.24.658-.36Zm6.771 2.397c.18.24.36.359.66.479.239.12.539.18.778.18.3 0 .54-.06.78-.18.239-.12.479-.3.658-.48.36-.539.54-1.198.54-1.797V30.08h2.097v5.273c.06.6-.06 1.138-.24 1.738-.18.539-.479 1.078-.899 1.498-.779.719-1.857 1.078-2.936 1.078a4.242 4.242 0 0 1-2.876-1.138c-.42-.42-.719-.96-.899-1.498-.18-.54-.3-1.139-.24-1.738V30.02h2.098v5.273c-.12.66.06 1.318.48 1.858Zm11.685-5.154v7.61h-2.097v-7.61h-2.697V30.2h7.55v1.797h-2.756Zm4.254-1.857h2.097v9.527h-2.097V30.14Zm11.085 0h2.098v9.527h-2.098l-4.494-5.932v5.932h-2.097V30.14h1.977l4.674 6.112-.06-6.112Zm10.666 4.674h2.097v3.355a4.519 4.519 0 0 1-1.797 1.199c-.659.3-1.438.419-2.157.36a5.14 5.14 0 0 1-3.536-1.38 4.05 4.05 0 0 1-1.078-1.557c-.24-.6-.36-1.258-.36-1.917 0-.66.12-1.319.36-1.918.239-.6.599-1.138 1.078-1.618a4.797 4.797 0 0 1 1.618-1.078 5.194 5.194 0 0 1 1.918-.36 5.14 5.14 0 0 1 3.535 1.378l-1.079 1.618c-.299-.36-.719-.6-1.198-.719-.36-.12-.779-.24-1.138-.24-.779 0-1.499.3-2.038.78-.299.299-.539.599-.659 1.018-.12.42-.24.779-.18 1.198 0 .78.24 1.558.779 2.158.24.24.54.479.839.599.3.12.659.18 1.019.18.659.06 1.258-.12 1.797-.42v-2.696h.18v.06Zm14.082-4.674v1.857h-4.375v2.038h4.135v1.917h-4.135v3.715h-2.097V30.14h6.472Zm9.826 8.149c-.958.899-2.217 1.438-3.535 1.438-.659 0-1.318-.12-1.917-.36-.6-.24-1.139-.599-1.618-1.078a4.943 4.943 0 0 1-1.438-3.475c0-1.319.539-2.577 1.438-3.476.959-.899 2.217-1.438 3.535-1.438.659 0 1.318.12 1.918.36.599.24 1.138.599 1.617 1.078a4.944 4.944 0 0 1 1.439 3.476c0 1.318-.54 2.576-1.439 3.475Zm-.779-3.475c0-.78-.239-1.558-.778-2.157-.24-.3-.54-.48-.899-.66-.36-.18-.719-.24-1.079-.24-.359 0-.779.06-1.078.24-.36.18-.66.42-.899.72-.3.299-.48.599-.599 1.018-.12.42-.18.779-.18 1.139 0 .779.299 1.557.779 2.157.239.3.539.479.899.659.359.18.719.24 1.078.24.36 0 .779-.06 1.079-.24.359-.18.659-.42.899-.72.299-.299.479-.599.599-1.018.12-.42.239-.719.179-1.138Zm6.532 2.337c.18.24.359.359.659.479.24.12.539.18.779.18s.539-.06.779-.18.479-.3.659-.48a3.31 3.31 0 0 0 .539-1.797V30.08h2.098v5.273c.059.6-.06 1.138-.24 1.738-.18.539-.48 1.078-.899 1.498-.779.719-1.858 1.078-2.936 1.078a4.24 4.24 0 0 1-2.876-1.138c-.42-.42-.719-.96-.899-1.498-.18-.54-.3-1.139-.24-1.738V30.02h2.097v5.273c-.119.66.06 1.378.48 1.858Zm14.321-7.011H180v9.527h-2.097l-4.494-5.932v5.932h-2.097V30.14h1.977l4.674 6.112-.06-6.112Zm11.684 1.258c.48.42.839 1.019 1.079 1.618.24.6.359 1.258.299 1.858.06.659-.059 1.258-.299 1.857-.24.6-.599 1.139-1.019 1.618-.839.839-2.217 1.318-4.074 1.318h-3.236V30.14h3.355c1.738 0 3.056.42 3.895 1.258Zm-1.558 5.693c.24-.3.48-.6.6-.96.119-.359.179-.778.179-1.138 0-.42-.06-.779-.179-1.138-.12-.36-.36-.72-.6-1.019-.359-.3-.719-.48-1.138-.599-.42-.12-.839-.18-1.258-.12h-1.199v5.753h1.378c.779-.06 1.618-.3 2.217-.78Zm11.265 2.516-.838-2.037h-4.015l-.839 2.037h-2.277l4.135-9.527h2.037l4.134 9.527h-2.337Zm-2.876-6.65-1.198 2.755h2.397l-1.199-2.756Zm9.587-.96v7.61h-2.097v-7.61h-2.756V30.2h7.55v1.797h-2.697Zm4.195-1.857h2.097v9.527H210.2V30.14Zm12.463 8.149c-.958.899-2.217 1.438-3.535 1.438-.659 0-1.318-.12-1.917-.36-.6-.24-1.139-.599-1.618-1.078a4.943 4.943 0 0 1-1.438-3.475c0-1.319.539-2.577 1.438-3.476.958-.899 2.217-1.438 3.535-1.438.659 0 1.318.12 1.918.36.599.24 1.138.599 1.617 1.078a4.943 4.943 0 0 1 1.438 3.476 4.943 4.943 0 0 1-1.438 3.475Zm-.659-3.475c0-.78-.299-1.558-.779-2.157-.239-.3-.539-.48-.899-.66a2.349 2.349 0 0 0-1.078-.24c-.36 0-.779.06-1.079.24a2.65 2.65 0 0 0-.898.72c-.3.299-.48.599-.6 1.018-.12.42-.179.779-.179 1.139 0 .779.299 1.557.779 2.157.239.3.539.479.898.659.36.18.719.24 1.079.24.359 0 .779-.06 1.078-.24.36-.18.66-.42.899-.72.48-.539.779-1.317.779-2.156Zm10.546-4.674h2.097v9.527h-2.097l-4.494-5.932v5.932h-2.157V30.14h1.977l4.674 6.112c.06 0 0-6.112 0-6.112Z"/><path fill="#0086FF" d="M9.703 28.343H4.49v12.164h12.164v-5.214h-6.95v-6.95ZM35.826 28.403v6.89h-6.951v5.214h12.164V28.343l-5.213.06ZM4.49 16.238h5.273l-.06-.06v-6.89h6.951V4.075H4.49v12.163ZM28.875 4.075v5.213h6.95v6.95h5.214V4.075H28.875Z"/><path fill="#93EAFF" d="m28.161 16.238-6.95-6.95h7.61V4.075H16.655v5.213l6.951 6.95h4.554ZM21.93 28.343h-4.555l5.753 5.752 1.138 1.198h-7.61v5.214H28.88v-5.273l-3.475-3.416-3.476-3.475ZM35.826 16.238v7.55l-1.199-1.198-5.752-5.753v4.614l3.416 3.416 3.475 3.475h5.273V16.238h-5.213ZM16.654 23.129l-6.89-6.891H4.49v12.104h5.213v-7.55l6.951 6.95V23.13Z"/></svg>