<svg xmlns="http://www.w3.org/2000/svg" width="112" height="74" fill="none" viewBox="0 0 112 74"><g clip-path="url(#a)"><path fill="#0A1432" d="M0 18.062h16.6c7.144 0 11.323 4.618 11.323 10.716 0 5.386-3.133 9.456-8.574 10.498L29.811 60.92h-3.9L15.721 39.495H3.572v10.724H0V18.062Zm16.49 18.025c5.112 0 7.861-2.914 7.861-7.309 0-4.394-2.75-7.309-7.86-7.309H3.571v14.622H16.49v-.004ZM62.305 59.604c0 7.857-5.44 13.904-13.411 13.904-7.97 0-13.521-6.043-13.521-13.904V21.218c0-7.802 5.495-13.96 13.521-13.96s13.411 6.158 13.411 13.96v38.386Zm-23.36 0c0 6.043 4.12 10.497 9.949 10.497 5.828 0 9.84-4.399 9.84-10.497V21.218c0-6.043-4.121-10.552-9.84-10.552-5.719 0-9.949 4.509-9.949 10.552v38.386ZM100.312 73.446v-51.96h-7.14v-3.42h17.853v3.42h-7.144v51.96h-3.569ZM69.453.157h3.572v39.337l11.868-11.52h4.673L78.74 38.563l17.273 22.35h-4.379l-15.42-19.874-3.189 3.078v9.71h-3.572V.157Z"/></g><defs><clipPath id="a"><path fill="white" d="M0 .142h111.027v73.367H0z"/></clipPath></defs></svg>