<svg xmlns="http://www.w3.org/2000/svg" id="Ebene_1" data-name="Ebene 1" viewBox="0 0 405.82 263.37"><defs><style>.cls-1{fill:#003441}.cls-2{fill:#00677f}</style></defs><path d="M120.75 181.53c0 .75-.51 1.37-1.52 1.85a5.93 5.93 0 0 1-2.48.57 5.55 5.55 0 0 1-2.48-.62c-1-.49-1.52-1.11-1.52-1.86v-26.72a2.82 2.82 0 0 0-1.38-2.25 4.53 4.53 0 0 0-2.67-1 4.77 4.77 0 0 0-2.65 1 2.84 2.84 0 0 0-1.46 2.17v26.85c0 .75-.51 1.37-1.52 1.86a5.85 5.85 0 0 1-2.47.57 5.66 5.66 0 0 1-2.54-.62 2.18 2.18 0 0 1-1.46-2v-50c0-.62.51-1.22 1.53-1.71a5.59 5.59 0 0 1 2.49-.62 5.94 5.94 0 0 1 2.33.57c1.09.48 1.64 1.08 1.64 1.8v12.86a10.72 10.72 0 0 1 4.15-.84 13.81 13.81 0 0 1 2.64.28 11.78 11.78 0 0 1 6.31 3.94c2 2.22 3.06 4.41 3.06 6.59Zm-27.64-8.37a9.5 9.5 0 0 1-1.85 5.35 12.67 12.67 0 0 1-4.26 3.77 13 13 0 0 1-6 1.69 12.45 12.45 0 0 1-8-3.16 12.21 12.21 0 0 1-8 3.16 11.62 11.62 0 0 1-9.06-4.34c-2-2.29-3-4.46-3-6.53V146c0-.71.51-1.31 1.52-1.8a5.35 5.35 0 0 1 2.48-.67 5.8 5.8 0 0 1 2.31.61c1.12.53 1.68 1.13 1.68 1.81v26.85a2.83 2.83 0 0 0 1.47 2.31 4.57 4.57 0 0 0 2.64.9 4.49 4.49 0 0 0 2.62-1.07 2.88 2.88 0 0 0 1.34-2.23V146c0-.75.5-1.37 1.52-1.86a5.49 5.49 0 0 1 2.47-.61 5.76 5.76 0 0 1 2.31.61c1.13.53 1.69 1.13 1.69 1.81v26.85a2.84 2.84 0 0 0 1.46 2.31 4.62 4.62 0 0 0 2.65.9 4.56 4.56 0 0 0 2.62-1 2.85 2.85 0 0 0 1.43-2.22V146c0-.75.51-1.37 1.52-1.86a5.53 5.53 0 0 1 2.48-.61 5.93 5.93 0 0 1 2.56.7c.95.47 1.43.92 1.43 1.59Zm39.11 8.37c0 .75-.5 1.37-1.51 1.85a5.93 5.93 0 0 1-2.48.57 5.59 5.59 0 0 1-2.53-.62q-1.47-.74-1.47-1.86V146c0-.71.51-1.31 1.52-1.8a5.4 5.4 0 0 1 2.48-.68 5.79 5.79 0 0 1 2.31.62q1.68.79 1.68 1.8Zm22.4-1.59c0 1.85-.54 3-1.63 3.57a9.53 9.53 0 0 1-3.66.46 22.38 22.38 0 0 1-4.22-.29 12.13 12.13 0 0 1-6.36-4c-2-2.2-3-4.4-3-6.62V146c0-.71.52-1.31 1.55-1.8a5.78 5.78 0 0 1 2.53-.62c2.23 0 3.53.82 3.91 2.44v5.28a10.72 10.72 0 0 0 2.39.22h1.39a5.35 5.35 0 0 1 3.3.81c.68.54 1 1.57 1 3.1 0 2.24-.82 3.5-2.46 3.8-1.83 0-3.65.09-5.48.17l-.17 13a4.94 4.94 0 0 0 1.66 2.9 6 6 0 0 0 3.41.76h1.46a5.35 5.35 0 0 1 3.32.85 3.79 3.79 0 0 1 1.06 3.03Z" class="cls-1"/><path d="M328.7 179.94c0 1.85-.54 3-1.63 3.57a9.53 9.53 0 0 1-3.66.46 22.38 22.38 0 0 1-4.22-.29 12.13 12.13 0 0 1-6.36-4c-2-2.2-3-4.4-3-6.62V146c0-.71.52-1.31 1.55-1.8a5.78 5.78 0 0 1 2.53-.62c2.23 0 3.53.82 3.91 2.44v5.28a10.78 10.78 0 0 0 2.39.22h1.39a5.33 5.33 0 0 1 3.3.81c.69.54 1 1.57 1 3.1 0 2.24-.82 3.5-2.46 3.8-1.83 0-3.65.09-5.48.17l-.17 13a4.9 4.9 0 0 0 1.67 2.9 6 6 0 0 0 3.4.76h1.46a5.35 5.35 0 0 1 3.32.85 3.79 3.79 0 0 1 1.06 3.03Z" class="cls-2"/><path d="M178.69 172.23a11 11 0 0 1-3.63 8.24 11.82 11.82 0 0 1-8.42 3.46 11.6 11.6 0 0 1-9.06-4.33q-3-3.43-3-6.53v-18.73a9.44 9.44 0 0 1 1.82-5.34 11.7 11.7 0 0 1 4.22-3.82 13 13 0 0 1 6-1.69 11.55 11.55 0 0 1 8.5 3.57 11.69 11.69 0 0 1 3.55 8.53 11.15 11.15 0 0 1-4.14 9.12 14.86 14.86 0 0 1-9.72 3.15h-2.11a18.47 18.47 0 0 0-.17 2.37c0 3.82 1.4 5.72 4.2 5.72a3.74 3.74 0 0 0 2.51-1 4.27 4.27 0 0 0 1.45-2.3 16.63 16.63 0 0 1 .34-2q.78-1.8 3.69-1.8c2.64.06 3.97 1.15 3.97 3.38Zm-8-16.65a4 4 0 0 0-1.21-2.87 3.85 3.85 0 0 0-2.85-1.24 4.69 4.69 0 0 0-2.67 1 2.87 2.87 0 0 0-1.44 2.23v4.89h5a2.87 2.87 0 0 0 2.14-1.46 4.64 4.64 0 0 0 1.04-2.55Z" class="cls-1"/><path d="M214.64 147.5a4.24 4.24 0 0 1-.9 3.06 4.06 4.06 0 0 1-3 .91h-2a6.84 6.84 0 0 0-3.21.79 2.84 2.84 0 0 0-1.86 2.52v26.69c0 .75-.5 1.37-1.51 1.85a5.93 5.93 0 0 1-2.48.57 5.62 5.62 0 0 1-2.53-.62q-1.47-.74-1.47-1.86v-27.07a8.8 8.8 0 0 1 1.24-4.16q3.66-6.7 12.38-6.7a8.67 8.67 0 0 1 4 .62c.91.53 1.34 1.66 1.34 3.4ZM239 173.05a9.4 9.4 0 0 1-1.86 5.35 12.53 12.53 0 0 1-4.22 3.77 12.89 12.89 0 0 1-6 1.69 12.12 12.12 0 0 1-12.1-12.1 11.29 11.29 0 0 1 4-9.12 14.58 14.58 0 0 1 9.62-3.15 16.25 16.25 0 0 1 2.35.17 16.31 16.31 0 0 0 .16-2.25c0-3.94-1.37-5.91-4.13-5.91a4.07 4.07 0 0 0-2.6.95 3.69 3.69 0 0 0-1.43 2.31 14 14 0 0 1-.33 2q-.9 1.8-3.69 1.8-4 0-4-3.32a11 11 0 0 1 3.63-8.25 11.91 11.91 0 0 1 8.47-3.46 14.86 14.86 0 0 1 2.65.28 11.92 11.92 0 0 1 6.33 3.94c2 2.22 3.07 4.41 3.07 6.59Zm-8-.39v-4.95h-5a2.82 2.82 0 0 0-2.17 1.43 4.63 4.63 0 0 0-1 2.62 4.13 4.13 0 0 0 4.11 4.11 4.63 4.63 0 0 0 2.62-1 2.82 2.82 0 0 0 1.44-2.21Zm35.61.39a9.4 9.4 0 0 1-1.86 5.35 12.44 12.44 0 0 1-4.22 3.77 12.88 12.88 0 0 1-6 1.69 11.63 11.63 0 0 1-9.07-4.33c-2-2.29-3-4.47-3-6.53v-41.33c0-.71.51-1.32 1.53-1.8a5.53 5.53 0 0 1 2.5-.62 6 6 0 0 1 2.32.56q1.65.74 1.65 1.8v12.74a10.52 10.52 0 0 1 4.15-.85 14.66 14.66 0 0 1 2.63.28 11.81 11.81 0 0 1 6.31 3.94c2 2.22 3.06 4.41 3.06 6.59Zm-8-.39v-18a2.9 2.9 0 0 0-1.46-2.14 3.83 3.83 0 0 0-5.27 0 2.85 2.85 0 0 0-1.43 2.22v17.86a2.88 2.88 0 0 0 1.46 2.2 4.69 4.69 0 0 0 2.65 1.07 4.61 4.61 0 0 0 2.61-1 2.84 2.84 0 0 0 1.45-2.21Zm35.64.39a9.45 9.45 0 0 1-1.85 5.35 12.56 12.56 0 0 1-4.23 3.77 12.85 12.85 0 0 1-6 1.69 11.63 11.63 0 0 1-9.07-4.33c-2-2.29-3-4.47-3-6.53v-41.33c0-.71.52-1.32 1.54-1.8a5.46 5.46 0 0 1 2.49-.62 6 6 0 0 1 2.32.56q1.65.74 1.65 1.8v12.74a10.52 10.52 0 0 1 4.15-.85 14.85 14.85 0 0 1 2.64.28 11.82 11.82 0 0 1 6.3 3.94c2 2.22 3.06 4.41 3.06 6.59Zm-8-.39v-18a2.9 2.9 0 0 0-1.46-2.14 3.83 3.83 0 0 0-5.27 0 2.85 2.85 0 0 0-1.43 2.22v17.86a2.9 2.9 0 0 0 1.46 2.2 4.69 4.69 0 0 0 2.65 1.07 4.61 4.61 0 0 0 2.61-1 2.84 2.84 0 0 0 1.45-2.21Zm19.67 8.78c0 .75-.5 1.37-1.52 1.86a6 6 0 0 1-2.47.56 5.66 5.66 0 0 1-2.54-.62c-1-.49-1.46-1.11-1.46-1.86V146c0-.71.51-1.31 1.52-1.8a5.35 5.35 0 0 1 2.48-.67 5.67 5.67 0 0 1 2.31.62q1.68.78 1.68 1.8ZM64.6 215.7a11.62 11.62 0 0 1-8.43-3.53 11.71 11.71 0 0 1-2.45-3.87 13 13 0 0 1-.88-4.77v-.06a12.65 12.65 0 0 1 3.37-8.64 11.48 11.48 0 0 1 8.46-3.6 13.93 13.93 0 0 1 2.87.27 11 11 0 0 1 2.39.78 12.74 12.74 0 0 1 2.06 1.2 17.75 17.75 0 0 1 1.87 1.52l-1.25 1.28a17.63 17.63 0 0 0-1.61-1.36 9.5 9.5 0 0 0-1.81-1.1 10.3 10.3 0 0 0-2.09-.73 10.57 10.57 0 0 0-2.45-.27 9.67 9.67 0 0 0-4 .81 9.46 9.46 0 0 0-3.15 2.25 10.55 10.55 0 0 0-2.1 3.36 11.18 11.18 0 0 0-.76 4.16v.07a11.12 11.12 0 0 0 .78 4.17 10.63 10.63 0 0 0 2.14 3.36 9.67 9.67 0 0 0 3.16 2.26 9.29 9.29 0 0 0 4 .83 9.87 9.87 0 0 0 4.46-.94 14.57 14.57 0 0 0 3.69-2.74l1.13 1.17a22.92 22.92 0 0 1-1.94 1.67 12.26 12.26 0 0 1-2.13 1.3 12.41 12.41 0 0 1-2.45.85 13 13 0 0 1-2.88.3Zm21.5 0a8.35 8.35 0 0 1-3.53-.73 9 9 0 0 1-2.79-1.97 8.59 8.59 0 0 1-1.84-2.84 9.06 9.06 0 0 1-.66-3.45v-.06a9.06 9.06 0 0 1 .66-3.45 8.82 8.82 0 0 1 1.86-2.87 8.7 8.7 0 0 1 6.37-2.71 8.54 8.54 0 0 1 3.53.73 9.19 9.19 0 0 1 2.79 1.94 8.91 8.91 0 0 1 1.84 2.84 9.06 9.06 0 0 1 .66 3.45v.07a9.08 9.08 0 0 1-2.52 6.35 8.9 8.9 0 0 1-2.82 2 8.54 8.54 0 0 1-3.55.7Zm.07-1.59a6.86 6.86 0 0 0 2.83-.59 6.93 6.93 0 0 0 2.24-1.58 7.19 7.19 0 0 0 1.46-2.34 7.77 7.77 0 0 0 .53-2.86v-.06a7.58 7.58 0 0 0-.55-2.91 7.12 7.12 0 0 0-1.51-2.37 6.91 6.91 0 0 0-5.07-2.16 6.94 6.94 0 0 0-5.1 2.17 7.19 7.19 0 0 0-1.46 2.34 7.81 7.81 0 0 0-.53 2.86v.07a7.84 7.84 0 0 0 .55 2.91 7.12 7.12 0 0 0 1.53 2.41 7 7 0 0 0 5.08 2.15Zm13.92-16.05h1.65v3.07a10.33 10.33 0 0 1 .93-1.3 7.06 7.06 0 0 1 1.2-1.11 5.42 5.42 0 0 1 1.58-.78 7.09 7.09 0 0 1 4.08 0 5.89 5.89 0 0 1 2.88 2 8.85 8.85 0 0 1 .89 1.42 9.44 9.44 0 0 1 1-1.38 6.43 6.43 0 0 1 1.34-1.2 6.24 6.24 0 0 1 1.72-.83 7.31 7.31 0 0 1 2.18-.31 7 7 0 0 1 2.76.53 6.08 6.08 0 0 1 2.09 1.45 6.21 6.21 0 0 1 1.32 2.27 9.13 9.13 0 0 1 .45 2.95v10.44h-1.65v-10.22a6.38 6.38 0 0 0-1.35-4.35 4.76 4.76 0 0 0-3.75-1.54 5.43 5.43 0 0 0-2.08.41 5 5 0 0 0-1.74 1.18 5.84 5.84 0 0 0-1.19 1.91 7.21 7.21 0 0 0-.44 2.59v10h-1.65V205a6.22 6.22 0 0 0-1.35-4.24 4.69 4.69 0 0 0-3.69-1.54 5 5 0 0 0-2.16.48 5.27 5.27 0 0 0-1.76 1.31 6.52 6.52 0 0 0-1.16 2 6.69 6.69 0 0 0-.43 2.44v9.93h-1.65Zm32.14 0h1.65v3.07a10.33 10.33 0 0 1 .93-1.3 7.06 7.06 0 0 1 1.2-1.11 5.49 5.49 0 0 1 1.57-.78 6.76 6.76 0 0 1 2-.29 6.61 6.61 0 0 1 2 .31 5.84 5.84 0 0 1 1.64.81 6 6 0 0 1 1.24 1.18 9.62 9.62 0 0 1 .89 1.42 9.44 9.44 0 0 1 1-1.38 6.63 6.63 0 0 1 1.33-1.2 6.44 6.44 0 0 1 1.73-.83 7.31 7.31 0 0 1 2.18-.31 7 7 0 0 1 2.75.53 6 6 0 0 1 2.1 1.45 6.35 6.35 0 0 1 1.32 2.27 9.13 9.13 0 0 1 .45 2.95v10.44h-1.65v-10.23a6.34 6.34 0 0 0-1.36-4.35 4.75 4.75 0 0 0-3.75-1.54 5.51 5.51 0 0 0-2.08.41 5.16 5.16 0 0 0-1.74 1.18 5.82 5.82 0 0 0-1.18 1.91 7.21 7.21 0 0 0-.44 2.59v10h-1.65V205a6.22 6.22 0 0 0-1.35-4.24 4.7 4.7 0 0 0-3.69-1.54 5 5 0 0 0-2.16.48 5.27 5.27 0 0 0-1.76 1.31 6.54 6.54 0 0 0-1.17 2 6.91 6.91 0 0 0-.42 2.44v9.93h-1.65Zm38.69 17.64a7.66 7.66 0 0 1-2.91-.52 6.13 6.13 0 0 1-2.17-1.47 6.34 6.34 0 0 1-1.36-2.25 8.71 8.71 0 0 1-.45-2.86v-10.54h1.65v10.24a6.24 6.24 0 0 0 1.42 4.27 5.14 5.14 0 0 0 4.06 1.61 6 6 0 0 0 2.35-.46 5.61 5.61 0 0 0 3.17-3.21 6.44 6.44 0 0 0 .46-2.48v-10h1.66v17.23h-1.66v-3.21a8.07 8.07 0 0 1-2.37 2.57 6.52 6.52 0 0 1-3.85 1.08Zm14.16-17.64h1.66v3.21a7.92 7.92 0 0 1 2.36-2.57 6.54 6.54 0 0 1 3.85-1 7.59 7.59 0 0 1 2.91.53 6.17 6.17 0 0 1 2.18 1.47 6.1 6.1 0 0 1 1.35 2.25 8.35 8.35 0 0 1 .46 2.85v10.54h-1.66v-10.28a6.2 6.2 0 0 0-1.42-4.28 5.11 5.11 0 0 0-4.05-1.61 6.11 6.11 0 0 0-2.37.46 5.82 5.82 0 0 0-1.89 1.27 5.89 5.89 0 0 0-1.27 1.94 6.67 6.67 0 0 0-.45 2.48v10h-1.66Zm20.75-6.76h2.06v2.26h-2.06Zm.2 6.76h1.66v17.23H206Zm15.75 17.64a8.2 8.2 0 0 1-3.46-.73 9 9 0 0 1-2.79-1.94 8.91 8.91 0 0 1-1.84-2.84 9.06 9.06 0 0 1-.66-3.45v-.06a9.06 9.06 0 0 1 .66-3.45 9.28 9.28 0 0 1 1.84-2.87 8.8 8.8 0 0 1 2.79-2 8.35 8.35 0 0 1 3.46-.73 8.46 8.46 0 0 1 4.06 1 8.71 8.71 0 0 1 1.53 1 15 15 0 0 1 1.3 1.21l-1.18 1.22a12.46 12.46 0 0 0-2.47-2 6 6 0 0 0-3.27-.85 6.68 6.68 0 0 0-2.76.57 7 7 0 0 0-2.19 1.57 7.59 7.59 0 0 0-1.48 2.34 7.85 7.85 0 0 0-.53 2.89v.07a7.65 7.65 0 0 0 .55 2.91 7.47 7.47 0 0 0 1.52 2.37 7 7 0 0 0 2.25 1.58 6.77 6.77 0 0 0 2.77.57 6.33 6.33 0 0 0 3.26-.83 10 10 0 0 0 2.52-2l1.15 1a12.35 12.35 0 0 1-3 2.47 7.9 7.9 0 0 1-4.03.98Zm16.97 0a8.49 8.49 0 0 1-2.4-.34 6.75 6.75 0 0 1-2.13-1 5.41 5.41 0 0 1-1.54-1.69 4.68 4.68 0 0 1-.59-2.37v-.06a5 5 0 0 1 .55-2.4 5.21 5.21 0 0 1 1.54-1.76 7.09 7.09 0 0 1 2.37-1.08 11.73 11.73 0 0 1 3.07-.38 20.37 20.37 0 0 1 3.15.21 21.69 21.69 0 0 1 2.57.54v-.74a4.94 4.94 0 0 0-1.51-3.93 6.1 6.1 0 0 0-4.17-1.31 10.62 10.62 0 0 0-2.91.38 15.71 15.71 0 0 0-2.5 1l-.61-1.45a18.43 18.43 0 0 1 2.87-1.11 12.14 12.14 0 0 1 3.25-.41 7.37 7.37 0 0 1 5.44 1.89 6.58 6.58 0 0 1 1.76 4.87v10.74h-1.62v-2.87a8.39 8.39 0 0 1-1.07 1.2 6.75 6.75 0 0 1-1.44 1 8.39 8.39 0 0 1-4.08 1Zm.1-1.59a8.22 8.22 0 0 0 2.5-.38 7 7 0 0 0 2.08-1.08 5.29 5.29 0 0 0 1.42-1.67 4.58 4.58 0 0 0 .52-2.15v-2c-.72-.18-1.57-.36-2.54-.53a20.29 20.29 0 0 0-3.31-.25 7 7 0 0 0-4.21 1.1 3.44 3.44 0 0 0-1.47 2.91v.06a3.36 3.36 0 0 0 .41 1.67 3.91 3.91 0 0 0 1.1 1.23 5.4 5.4 0 0 0 1.6.77 6.66 6.66 0 0 0 1.9.32Zm19.8 1.49a6.35 6.35 0 0 1-1.89-.27 3.95 3.95 0 0 1-2.57-2.35 5.45 5.45 0 0 1-.37-2.11v-11.29h-2.5v-1.52h2.5v-5.51h1.65v5.51h6v1.52h-6v11.09a3.08 3.08 0 0 0 1 2.6 4 4 0 0 0 2.48.74 5.37 5.37 0 0 0 1.22-.13 7.19 7.19 0 0 0 1.31-.44V215a7.25 7.25 0 0 1-1.33.46 6.65 6.65 0 0 1-1.5.14Zm7.81-24.3h2.06v2.26h-2.06Zm.2 6.76h1.66v17.23h-1.66Zm15.81 17.64a8.39 8.39 0 0 1-3.53-.73 9 9 0 0 1-2.79-1.94 8.91 8.91 0 0 1-1.84-2.84 9.06 9.06 0 0 1-.66-3.45v-.06a9 9 0 0 1 2.52-6.32 8.93 8.93 0 0 1 2.82-2 8.67 8.67 0 0 1 3.55-.73 8.51 8.51 0 0 1 3.53.73 9.19 9.19 0 0 1 2.79 1.94 8.75 8.75 0 0 1 1.84 2.84 9.06 9.06 0 0 1 .66 3.45v.07a9 9 0 0 1-.66 3.44 9.17 9.17 0 0 1-1.85 2.88 9.06 9.06 0 0 1-2.83 2 8.48 8.48 0 0 1-3.55.72Zm.07-1.59a6.94 6.94 0 0 0 5.08-2.17 7.19 7.19 0 0 0 1.46-2.34 7.77 7.77 0 0 0 .52-2.86v-.06a7.76 7.76 0 0 0-.54-2.91 7.16 7.16 0 0 0-3.78-4 7 7 0 0 0-2.81-.57 6.86 6.86 0 0 0-2.83.59 6.93 6.93 0 0 0-2.24 1.58 7 7 0 0 0-1.46 2.34 7.81 7.81 0 0 0-.53 2.86v.07a7.84 7.84 0 0 0 .54 2.91 7.3 7.3 0 0 0 1.52 2.37 7 7 0 0 0 5.07 2.15Zm13.93-16.05h1.65v3.21a8.07 8.07 0 0 1 2.37-2.57 6.52 6.52 0 0 1 3.85-1 7.66 7.66 0 0 1 2.91.53 6.26 6.26 0 0 1 2.18 1.47 6.38 6.38 0 0 1 1.35 2.25 8.61 8.61 0 0 1 .45 2.85v10.54h-1.65v-10.28a6.24 6.24 0 0 0-1.42-4.28 5.14 5.14 0 0 0-4.06-1.61 6.09 6.09 0 0 0-2.36.46 5.72 5.72 0 0 0-1.89 1.27 5.59 5.59 0 0 0-1.27 1.94 6.48 6.48 0 0 0-.46 2.48v10h-1.65Zm26.29 17.57a10.55 10.55 0 0 1-3.79-.71 11.9 11.9 0 0 1-3.28-1.82l1-1.32a11.78 11.78 0 0 0 3 1.67 8.78 8.78 0 0 0 3.21.59 4.94 4.94 0 0 0 3-.87 2.82 2.82 0 0 0 1.19-2.4v-.06a2.2 2.2 0 0 0-.37-1.29 3.28 3.28 0 0 0-1-.94 6.69 6.69 0 0 0-1.45-.68l-1.73-.54c-.7-.2-1.4-.41-2.11-.64a8.15 8.15 0 0 1-1.91-.86 4.46 4.46 0 0 1-1.37-1.29 3.37 3.37 0 0 1-.52-1.93v-.06a4.28 4.28 0 0 1 .42-1.91 4.7 4.7 0 0 1 1.17-1.5 5.09 5.09 0 0 1 1.79-1 7 7 0 0 1 2.3-.36 10.43 10.43 0 0 1 3.19.52 10.69 10.69 0 0 1 2.92 1.41l-.87 1.38a12.15 12.15 0 0 0-2.56-1.25 8.5 8.5 0 0 0-2.75-.47 4.43 4.43 0 0 0-2.86.86 2.64 2.64 0 0 0-1.06 2.14v.07a2 2 0 0 0 .4 1.23 3.37 3.37 0 0 0 1.07.89 8.19 8.19 0 0 0 1.54.66c.58.19 1.18.38 1.79.56s1.38.42 2.06.66a7 7 0 0 1 1.82.91 4.33 4.33 0 0 1 1.3 1.33 3.47 3.47 0 0 1 .49 1.92v.07a4.56 4.56 0 0 1-1.72 3.66 5.91 5.91 0 0 1-1.89 1 7.63 7.63 0 0 1-2.42.37Z" class="cls-2"/><path d="M133.09 132.7c0 2.79-3 5.45-4.86 5.45s-4.86-2.66-4.86-5.45 1.62-3.53 4.86-3.53 4.86.83 4.86 3.53Z" class="cls-1"/><path d="M306.76 132.7c0 2.79-3 5.45-4.86 5.45s-4.9-2.66-4.9-5.45 1.62-3.53 4.86-3.53 4.9.83 4.9 3.53Zm20.58 15.09a2.66 2.66 0 0 1-1.09-.22 2.71 2.71 0 0 1-.89-.59 2.93 2.93 0 0 1-.58-.88 2.64 2.64 0 0 1-.22-1.08 2.64 2.64 0 0 1 .22-1.08 2.84 2.84 0 0 1 1.48-1.49 2.7 2.7 0 0 1 1.1-.22 2.79 2.79 0 0 1 2 .81 2.82 2.82 0 0 1 .59.89 2.73 2.73 0 0 1 .22 1.07 2.77 2.77 0 0 1-.22 1.07 2.82 2.82 0 0 1-.59.89 2.91 2.91 0 0 1-.89.6 2.7 2.7 0 0 1-1.13.23Zm0-.21a2.58 2.58 0 0 0 1.83-.76 2.62 2.62 0 0 0 .74-1.81 2.59 2.59 0 0 0-.2-1 2.47 2.47 0 0 0-.53-.81 2.7 2.7 0 0 0-.81-.55 2.6 2.6 0 0 0-1-.2 2.45 2.45 0 0 0-1 .21 2.42 2.42 0 0 0-.81.55 2.66 2.66 0 0 0-.54.82 2.55 2.55 0 0 0-.2 1 2.74 2.74 0 0 0 .19 1 2.5 2.5 0 0 0 .54.81 2.53 2.53 0 0 0 .81.55 2.6 2.6 0 0 0 .98.19Zm0-1.16a1.3 1.3 0 0 1-.56-.11 1.52 1.52 0 0 1-.44-.31 1.83 1.83 0 0 1-.3-.46 1.5 1.5 0 0 1-.1-.56 1.36 1.36 0 0 1 .41-1 1.28 1.28 0 0 1 .44-.32 1.31 1.31 0 0 1 .56-.12 1.26 1.26 0 0 1 .62.14 2.43 2.43 0 0 1 .46.33l-.23.24a2.2 2.2 0 0 0-.38-.28 1 1 0 0 0-.48-.12.93.93 0 0 0-.42.09 1 1 0 0 0-.34.25 1.2 1.2 0 0 0-.22.36 1.11 1.11 0 0 0-.08.44 1.11 1.11 0 0 0 .08.44 1.28 1.28 0 0 0 .23.37 1 1 0 0 0 .34.24 1 1 0 0 0 .9 0 1.55 1.55 0 0 0 .4-.3l.22.22a2 2 0 0 1-.48.36 1.34 1.34 0 0 1-.59.1Z" class="cls-2"/><path d="M324.81 103.64a1.26 1.26 0 0 0-1.49-.9c-3.75.79-13.86 1-13.86 17.46 0 1.21.16 2 1.44 1.81 2.57-.36 5.27-.51 7.66-1.41 6.12-2.32 8.01-10.24 6.25-16.96ZM285.1 120.6c2.4.9 5.09 1.05 7.67 1.41 1.28.19 1.43-.6 1.43-1.81 0-16.42-10.11-16.67-13.86-17.46a1.26 1.26 0 0 0-1.49.9c-1.76 6.72.15 14.64 6.25 16.96Zm1.21-41.1a5.17 5.17 0 0 0 0-.54 6 6 0 0 0-.67-2.29c-.17-.29-.33-.58-.5-.85l-19.4-32.9a14.12 14.12 0 0 0-1.36-2.14c-.83-1-2 .66-2 2.84a32.2 32.2 0 0 0 1.81 9.72h.65c-.32-1.86-.77-4.05-1-6.26s0-4.3 1.53-1.82c.93 1.54 12.59 21.2 18.15 30.35l.75 1.27c.18.28.34.56.51.86v.07a6.14 6.14 0 0 1 .61 2.16 4.52 4.52 0 0 1 0 .72v7.72a.4.4 0 0 0 .4.4.4.4 0 0 0 .4-.4v-9Zm66.12 7.14c-.24-1.85-5.29-16.13-6.28-19.68a6.71 6.71 0 0 0-3.25-4.35 12.48 12.48 0 0 0-1.46-.61 39.91 39.91 0 0 1-10.26-5.68 28.64 28.64 0 0 0-2.7-1.92 4 4 0 0 0-2.43-.65 3.9 3.9 0 0 0-3.46 2.25c-.64 1.33-14.2 29.95-14.3 30.21a.5.5 0 0 0 .9.42s9.66-14.63 11.44-17.52c1.68-2.68 3.35-5.36 5.08-8a2.66 2.66 0 0 1 4.07-.68c1.24.9 9.05 3.84 11.9 4.35a2.83 2.83 0 0 1 2.37 2c.13.41.24.82.36 1.24 1.08 3.78 2.1 7.58 3.25 11.33.6 2 1.45 3.86 2.16 5.79.51 1.39.51 3.12-2 2a19.27 19.27 0 0 1-2.82-1.66A60.44 60.44 0 0 1 329 67a9.66 9.66 0 0 0-1-1.43.59.59 0 0 0-.87-.15c-.43.39.12 1.43.51 2.29.81 1.77.82 1.87-.45 3.28-2.33 2.61-4.63 5.65-7 8.21a5.07 5.07 0 0 0-1.45 3.62v7a.41.41 0 0 0 .81 0v-7.11a3.47 3.47 0 0 1 1.33-2.3.1.1 0 0 1 0-.08l1.37-1.55c1.19-1.39 2.37-2.79 3.61-4.13l1.1-1.17a2.14 2.14 0 0 1 2.35-.19 5.51 5.51 0 0 1 2.2 1.32 5.88 5.88 0 0 1 1.25 2c.43 1.11.39 1.93-.11 2.43L327 84.69l-.5.64a2.33 2.33 0 0 0-.47 1.28c0 1.92.12 5.46.21 7.37A.84.84 0 0 0 328 94v-6.82a2.67 2.67 0 0 1 1.37-2.45c1.69-1.27 6.74-5.39 6.74-5.39.9.93 1.78 1.88 2.68 2.82a31.57 31.57 0 0 0 6.48 5.44 10.65 10.65 0 0 0 4.73 1.65c1.84.14 2.68-.76 2.43-2.61Z" class="cls-1"/><path d="M296.94 85.44a.92.92 0 0 0 .41-1.27L266.7 27.88c-1.5-2.53-1.13-2.95-3.25-5.07-2.34-2.34-9.56-.17-9.56 4.08A76.27 76.27 0 0 0 256.06 46c3.72 15.4 15.85 35.21 21.24 41.95a2.87 2.87 0 0 1 .72 2s0 0 0 .06v5.56a.4.4 0 0 0 .4.4.4.4 0 0 0 .4-.4V89.8c0-6.52-20.33-24.71-20.33-53.14 0-5 2.08-12.49 5.6-6.61 2.18 3.64 24.62 43.13 31.64 55a.93.93 0 0 0 1.2.36Z" class="cls-1"/><path d="M328.38 225.34H53.5a.67.67 0 0 1-.66-.66.66.66 0 0 1 .66-.65h274.88a.65.65 0 0 1 .65.65.66.66 0 0 1-.65.66Z" class="cls-2"/></svg>