<svg xmlns="http://www.w3.org/2000/svg" width="1232" height="440" fill="none" viewBox="0 0 1232 440"><path stroke="#0A1133" stroke-dasharray="6 8" d="M8 8.5h1207M8 187.5h1216M8 431.5h1216" opacity=".2"/><path stroke="#0A1133" stroke-dasharray="15 5" d="M8.5 17v156M824.5 17v156" opacity=".2"/><path stroke="#0A1133" stroke-dasharray="15 5" d="M1223.5 17v156M8.5 204v219" opacity=".25"/><path stroke="#0A1133" stroke-dasharray="15 5" d="M824.5 204v219" opacity=".2"/><path stroke="#0A1133" stroke-dasharray="15 5" d="M1223.5 204v219" opacity=".25"/><path stroke="#0A1133" d="M8.5 0v17M17 8.5H0M824.5 0v17M833 8.5h-17M1223.5 0v17M1232 8.5h-17M8.5 179v17M17 187.5H0M824.5 179v17M833 187.5h-17M1223.5 179v17M1232 187.5h-17M8.5 423v17M17 431.5H0"/><path stroke="#0A1133" stroke-dasharray="15 5" d="M408.5 17v156" opacity=".25"/><path stroke="#0A1133" stroke-dasharray="15 5" d="M408.5 204v219" opacity=".2"/><path stroke="#0A1133" d="M408.5 0v17M417 8.5h-17M408.5 179v17M417 187.5h-17M408.5 423v17M417 431.5h-17M824.5 423v17M833 431.5h-17M1223.5 423v17M1232 431.5h-17"/></svg>