<svg xmlns="http://www.w3.org/2000/svg" width="98" height="92" fill="none" viewBox="0 0 98 92"><path fill="#DFEFF2" d="M97.498 21.239v45.507h-3.23v6.05h-3.23v6.079h-3.24v3.02h-3.23v3.05h-3.23v3.02h-9.7v3.05H26.37v-3.05h-9.7v-3.02h-3.24v-3.05H10.2v-3.02H6.96v-6.08H3.73v-6.05H.5V24.269h3.23v-6.06h3.23V12.14h3.24V9.11h3.23V6.07H19.9V3.04h6.47V0h48.498v3.04h3.23v3.03H84.568v3.04h3.23v3.03h3.24v6.069h3.23v3.03h3.23Z"/><path fill="#0A1133" fill-rule="evenodd" d="M68.367 3h-38.8v3.04h-6.47v3.03h-6.459v3.03h6.46V9.07h6.47V6.04h38.799v3.03h6.47v3.03h6.47v3.04h3.23v6.069h3.23v6.06h3.24v36.397h3.23V27.268h-3.23v-6.06h-3.24V15.14h-3.23V12.1h-3.23V9.07h-6.47V6.04h-6.47V3Zm19.4 60.666h3.24v6.07h-3.24v-6.07Zm-3.23 12.14v-6.07h3.23v6.07h-3.23Zm-3.23 3.03v-3.03h3.23v3.03h-3.23Zm-6.47 3.039v-3.04H81.307v3.04H74.837Zm-6.47 3.03v-3.03h6.47v3.03h-6.47Zm-38.8 0h38.8v3.03h-38.8v-3.03Zm-6.47-3.03h6.47v3.03h-6.47v-3.03Zm0 0h-6.459v-3.04h6.46v3.04Zm54.97-51.567h3.24v30.328h-3.24V30.308Zm0 0h-3.23v-6.07h3.23v6.07Zm0 30.328v6.07h-3.23v-6.07h3.23Zm-6.46-39.427h3.23v3.03h-3.23v-3.03Zm-6.47-3.04h6.47v3.04h-6.47v-3.04Zm-32.33 0v-3.03h32.33v3.03h-32.33Zm-6.47 3.04v-3.04H32.808v3.04H26.338Zm-3.24 3.03v-3.03h3.24v3.03h-3.24Zm-3.23 6.07v-6.07h3.23v6.07h-3.23Zm0 30.327h-3.229V30.308h3.23v30.328Zm0 0h3.23v6.07h-3.23v-6.07Zm48.5-27.298h3.24v-9.1h-9.71v3.03h-6.46v3.04h-9.7v3.03h-6.47v3.03h-3.23v6.07h3.23v-3.03h3.24v3.03h3.23v6.07h6.47v3.029h3.23v3.03h-3.23v3.04h6.46v-3.04h3.24v-6.06h3.23v-9.1h3.23v-6.069Zm0 0v-3.03h-3.23v-3.04h-3.23v3.04h-3.24v3.03h-3.23v3.03h-3.23v-3.03h-3.24v3.03h-3.23v3.04h3.23v-3.04h3.23v3.04h-3.23v3.03h3.23v-3.03h3.23v3.03h-3.23v3.03h3.24v-3.03h3.24v3.03h3.22v-3.03h-3.23v-3.03h3.23v-3.04h-3.22v3.03h-3.24v-3.03h3.23v-3.03h3.23v-3.03h3.24v3.03h-3.23v3.03h3.23v-3.03h3.23Zm-9.7 12.14h-3.23v3.03h3.23v-3.03Zm12.94 21.228h3.24v3.03h-3.24v-3.03Zm-6.47 6.06v-3.03h6.47v3.03h-6.47Zm-32.33 0h32.33v3.04h-32.33v-3.04Zm-6.47-3.03H32.808v3.03H26.338v-3.03Zm0-3.03v3.03h-3.24v-3.03h3.24Zm3.23-9.1h-3.23v9.1h9.7v-3.04h6.47v-3.03h9.69v-3.03h-9.69v3.03h-6.47v3.03h-6.47v-6.06Zm3.24-6.07v6.07h-3.24v-6.07h3.24Zm0 0V42.438h3.23v9.1h-3.23Zm-19.41 24.27v-6.07h-3.229v-6.07h-3.24v6.07h3.24v6.07h3.23Zm0 0v3.03h3.241v-3.03h-3.24Zm0-60.667v6.07h-3.229v-6.07h3.23Zm0 0V12.1h3.241v3.04h-3.24Zm-6.47 12.13v-6.06h3.241v6.06h-3.24Zm0 0v36.397h-3.23V27.268h3.23Z" clip-rule="evenodd"/></svg>