<svg width="18" height="18" viewBox="0 0 18 18" fill="none" xmlns="http://www.w3.org/2000/svg">
<g clip-path="url(#clip0_1583_33044)">
<path d="M17.2125 0H0.7875C0.3375 0 0 0.3375 0 0.7875V17.325C0 17.6625 0.3375 18 0.7875 18H17.325C17.775 18 18.1125 17.6625 18.1125 17.2125V0.7875C18 0.3375 17.6625 0 17.2125 0ZM5.2875 15.3H2.7V6.75H5.4V15.3H5.2875ZM4.05 5.625C3.15 5.625 2.475 4.8375 2.475 4.05C2.475 3.15 3.15 2.475 4.05 2.475C4.95 2.475 5.625 3.15 5.625 4.05C5.5125 4.8375 4.8375 5.625 4.05 5.625ZM15.3 15.3H12.6V11.1375C12.6 10.125 12.6 8.8875 11.25 8.8875C9.9 8.8875 9.675 10.0125 9.675 11.1375V15.4125H6.975V6.75H9.5625V7.875C9.9 7.2 10.8 6.525 12.0375 6.525C14.7375 6.525 15.1875 8.325 15.1875 10.575V15.3H15.3Z" fill="currentColor"/>
</g>
<defs>
<clipPath id="clip0_1583_33044">
<rect width="18" height="18" fill="white"/>
</clipPath>
</defs>
</svg>
