<svg width="18" height="18" viewBox="0 0 18 18" fill="none" xmlns="http://www.w3.org/2000/svg">
<g clip-path="url(#clip0_1583_33050)">
<path d="M9 0C13.971 0 18 4.029 18 9V16.5C18 17.3228 17.3228 18 16.5 18H10.875L10.8742 17.8732C10.8375 15.7027 9.864 14.1968 8.0925 13.4032L18 9L17.76 8.91825C15.6165 8.169 13.8217 7.07175 12.375 5.625C10.929 4.179 9.831 2.3835 9.08175 0.23925L9 0L3 13.5C3 14.0002 3.12525 14.3752 3.375 14.625C3.6255 14.8755 4.0005 15 4.5 15L4.64025 15.0007C7.4685 15.0307 8.625 15.972 8.625 18H1.5C0.67725 18 0 17.3228 0 16.5V1.5C0 0.67725 0.67725 0 1.5 0H9ZM14.4053 3.59475C13.8195 3.009 13.1077 2.772 12.8145 3.0645C12.522 3.357 12.759 4.0695 13.3447 4.65525C13.9305 5.241 14.643 5.47875 14.9355 5.1855C15.2287 4.893 14.991 4.1805 14.4053 3.59475Z" fill="currentColor"/>
</g>
<defs>
<clipPath id="clip0_1583_33050">
<rect width="18" height="18" fill="white"/>
</clipPath>
</defs>
</svg>
