<svg xmlns="http://www.w3.org/2000/svg" width="1232" height="440" fill="none" viewBox="0 0 1232 440"><path stroke="#0A1133" stroke-dasharray="6 8" d="M9.5 8.5h396M410.5 8.5H822M8.5 10.5V185M408.5 10.5V185M824.5 10.5V185M1223.5 10.5V185M824.5 189.5V429M408.5 189.5V429M1223.5 190v239.5" opacity=".2"/><path stroke="#0A1133" d="M8.5 0v17M17 8.5H0M824.5 0v17M833 8.5h-17M1223.5 0v17M1232 8.5h-17M8.5 179v17M17 187.5H0M824.5 179v17M833 187.5h-17M1223.5 179v17M1232 187.5h-17M8.5 423v17M17 431.5H0M408.5 0v17M417 8.5h-17M408.5 179v17M417 187.5h-17M408.5 423v17M417 431.5h-17M824.5 423v17M833 431.5h-17M1223.5 423v17M1232 431.5h-17"/><path stroke="#0A1133" stroke-dasharray="6 8" d="M410.5 187.5H822M410.5 431.5H822M9.5 187.5h396M9.5 431.5h396M826 187.5h396M826 431.5h396M826 8.5h396M8.5 189.5V429" opacity=".2"/></svg>