<svg xmlns="http://www.w3.org/2000/svg" width="98" height="92" fill="none" viewBox="0 0 98 92"><path fill="#DFEFF2" d="M3.354 91.303v-2.84H.5V11.84h2.854V9H31.88v2.84h2.854v2.838h2.855v2.84h45.641v2.83h2.854v2.84h8.563v2.839H97.5v19.866h-2.854V60.08h-2.854v14.188h-2.855v14.196h-2.854v2.839H3.354Z"/><path fill="#0A1133" d="M91.712 28.924h2.849v14.152h-2.849V28.924Zm-2.849 28.304h2.85V43.076h-2.85v14.152ZM86.016 71.38h2.849V57.228h-2.85V71.38Zm-2.849 14.152h2.849V71.38h-2.849v14.152Zm-71.18 0V71.38h-2.85v14.152H6.289v2.832h76.878v-2.832h-71.18Zm8.545-59.44v2.832h71.181v-2.832h-8.546v-2.833h-2.848v2.832H20.53Zm59.795-2.833v-2.832h-45.56v2.832h45.56Zm-45.56-2.832v-2.832h-2.85v2.832h2.85Zm-2.85-2.832v-2.832h-2.848v2.832h2.849Zm-14.234 25.48h2.849V28.924h-2.849v14.153Zm-2.848 14.153h2.848V43.076h-2.848v14.152ZM11.985 71.38h2.849V57.228h-2.849V71.38Zm17.083-56.608V11.94H6.296v2.832h22.78-.008Zm-22.78 0H3.439V85.54h2.849V14.77Z"/></svg>