<svg xmlns="http://www.w3.org/2000/svg" width="98" height="91" fill="none" viewBox="0 0 98 91"><path fill="#DFEFF2" d="M97.5 82.47V91H.5v-8.53h2.941v-5.69h2.94V65.41h2.942v-2.85h2.93v-2.84h2.941v-2.84h2.941v-2.85h2.941v-2.84h2.941v-2.85h2.941V45.5h2.93V0h8.824v2.84h23.517v2.85h2.941v5.68h17.635v11.38h-2.94v2.84h-2.941v5.69h2.94v2.84h2.941V45.5h-32.34v-2.84h-2.93v-5.69h-8.823v11.37h5.882v2.85h2.94v2.84h2.931v2.85h2.941v2.84h2.941v-2.84h2.941v-2.85h8.823v2.85h2.93v2.84h2.942v2.84h2.94v2.85h2.942v2.84h2.94v2.85h2.941v2.84h2.942v2.84h2.94v2.85h2.931v2.84H97.5Z"/><path fill="#0A1133" fill-rule="evenodd" d="M79.865 14.22H62.23V8.53h-2.941V5.69H35.77V2.84h-2.94v45.5h-2.942v2.85h5.882v2.84h5.882v2.85h2.94v-2.85h-2.94v-2.84h-2.94v-2.85H35.77V34.12h14.695v5.69h2.94v2.85h26.459v-5.69h-2.941v2.84H56.348v-2.84h-2.941v-2.85h5.882v-2.84h2.94V17.06h14.695v2.84h2.94v-5.68ZM59.289 28.44h-2.941v2.84H35.77V8.53h20.577v2.84h2.94v17.07Zm14.694-8.54h2.94v2.85h-2.94V19.9Zm2.94 14.22h-2.94v2.85h2.94v-2.85ZM15.196 62.56h2.941v2.85h-2.94v-2.85Zm55.847 5.69h2.941v2.85h2.94v2.84h2.942V71.1h-2.941v-2.85h-2.941v-2.84h-2.94v-2.85h-2.931v-2.84H65.17v-2.84H62.23v2.84h2.94v2.84h2.941v2.85h2.931v2.84Zm14.705 11.38h2.94v2.84h-2.94v-2.84Zm0-2.85h-2.94v2.85h2.94v-2.85ZM15.195 65.41h-2.941v2.84h-2.93v11.38h2.93V68.25h2.941v-2.84Zm58.788-42.66h-2.941v11.37h2.94V22.75Zm20.576 65.41v-2.85h-2.93v-2.84h-2.941v2.84H73.983v-5.68h-2.94v5.68H9.322v-5.68h-2.94v5.68H3.44v2.85H94.56ZM71.043 76.78h-2.93v2.85h2.93v-2.85Zm8.823-2.84h2.941v2.84h-2.94v-2.84Zm-11.754 0h-2.94v2.84h2.94v-2.84ZM56.348 71.1h8.823v2.84h-8.823V71.1Zm0-5.69v5.69h-2.941v-2.85h-2.941v-2.84h5.881Zm2.94-5.69h2.942v2.84h-2.941v-2.84Zm0 2.84h-2.94v2.85h2.94v-2.85Zm-14.694 2.85h2.941v2.84h-2.94v-2.84Zm5.872-5.69h-2.93v5.69h2.93v-5.69Zm-5.872-2.84h2.941v2.84h-2.94v-2.84Zm0 11.37h-2.941v2.85h-2.94v-2.85H35.77v2.85h2.941v2.84h2.941V71.1h2.94v-2.85ZM32.83 65.41h2.941v2.84h-2.94v-2.84Zm-5.871-2.85h5.871v2.85H26.96v-2.85Zm2.94-11.37h-2.94v2.84h2.94v-2.84Zm-5.881 14.22h2.94v2.84h-2.94v-2.84Zm2.94-11.38h-2.94v2.85h2.94v-2.85Zm-5.881 8.53h2.94v2.85h-2.94v-2.85Zm2.94-5.68h-2.94v2.84h-2.94v2.84h2.94v-2.84h2.94v-2.84Z" clip-rule="evenodd"/></svg>