<svg xmlns="http://www.w3.org/2000/svg" width="53" height="53" fill="none" viewBox="0 0 53 53"><g clip-path="url(#a)"><g clip-path="url(#b)"><path fill="#DFEFF2" d="M4.078 52.96v-1.528h-1.53V33.094h1.53v-1.53H7.13V2.53H8.66V1h36.676v1.529h1.529v29.036h3.058v1.529h1.529v18.338h-1.53v1.529H4.079Z"/><path fill="#0A1133" d="M48.394 34.625h1.529v15.28h-1.529v-15.28ZM5.607 49.905v1.529h42.792v-1.529H5.607ZM39.23 39.207v1.53h4.586v-1.53H39.23Zm-7.64 0v4.587H8.66v-4.587h22.93Zm-1.53 1.53H10.19v1.528h19.866v-1.529h.005ZM13.253 30.037V7.113h27.506v22.925h-27.51.004ZM43.812 4.06V2.531H10.189v1.53h33.623Zm4.587 30.565v-1.529H45.34V4.06h-1.53v29.036H10.19V4.06H8.66v29.036H5.603v1.529h42.796Zm-42.792 0H4.078v15.28h1.529v-15.28Z"/></g></g><defs><clipPath id="a"><path fill="white" d="M0 0h53v53H0z"/></clipPath><clipPath id="b"><path fill="white" d="M-2 1h58v51.556H-2z"/></clipPath></defs></svg>