<svg xmlns="http://www.w3.org/2000/svg" width="53" height="53" fill="none" viewBox="0 0 53 53"><path fill="#DFEFF2" d="M48.799 52.375v-1.54h1.54V10.782H48.8v-1.54h-1.541V7.7h-1.541V6.16h-1.542V4.623H42.64v-1.54h-1.541V1.54h-1.541V0H3.703v1.541h-1.54v49.293h1.54v1.541H48.8Z"/><path fill="#0A1133" d="M34.643 2.164H11.908v16.24h22.735z"/><path fill="#DFEFF2" d="M31.395 5.414h-6.497v8.661h6.497z"/><path fill="#0A1133" d="M5.319 3.09H3.778V49.3h1.54V3.09Zm41.939 46.2v1.542l-41.944.009V49.3l41.944-.01ZM38.01 4.622H36.47v-1.54l-31.16.008V1.55l32.701-.01V3.08h1.541v1.541h-1.54Zm1.541.005h1.541v1.54h-1.54v-1.54Zm1.541 1.54h1.541v1.542h-1.54V6.167Zm1.541 1.542h1.541v1.541h-1.54V7.708Zm1.541 1.541h1.542v1.541h-1.541V9.25Zm3.083 4.623h-1.541v-3.081h1.54v1.54H48.8V49.3h-1.541V13.873Z"/><path fill="#0A1133" d="M37.897 29.148v-1.655h-24.01v1.655h24.01Zm1.655 21.195V29.148h-1.655v20.145h-24.01V29.148h-1.655v21.195h27.32Z"/></svg>