<svg width="1008" height="513" viewBox="0 0 1008 513" fill="none" xmlns="http://www.w3.org/2000/svg">
<g clip-path="url(#clip0_1601_3332)">
<path d="M1.90735e-06 513L0 38L731.444 37.9991L756.426 0H1008V475.001L275.598 475L250.582 513H1.90735e-06Z" fill="#FFF4F0"/>
<path d="M0 38L731.444 37.9991L756.426 0H1003V5H759.122L734.14 42.9991L5 43L5 508H0V38Z" fill="#FEEBE4"/>
<path d="M0.000547409 508L0.000493646 38L0 513H250.582L275.598 475L1008 475.001V0H1003L1003 470.001L272.903 470L247.888 508L0.000547409 508Z" fill="#FCC5B1"/>
<g clip-path="url(#clip1_1601_3332)">
<path d="M282.383 504.216V507.499H279.127V504.216H282.383ZM266.09 507.499H269.345V504.216H266.09V507.499ZM266.09 494.354H269.345V491.072H266.09V494.354ZM253.052 507.499H256.308V504.216H253.052V507.499ZM253.052 494.354H256.308V491.072H253.052V494.354ZM240.015 507.499H243.271V504.216H240.015V507.499ZM240.015 494.354H243.271V491.072H240.015V494.354ZM226.977 507.499H230.233V504.216H226.977V507.499ZM226.977 494.354H230.233V491.072H226.977V494.354ZM220.459 500.927H223.714V497.644H220.459V500.927ZM213.94 507.499H217.196V504.216H213.94V507.499ZM213.94 494.354H217.196V491.072H213.94V494.354ZM207.421 500.927H210.677V497.644H207.421V500.927ZM207.421 487.782H210.677V484.499H207.421V487.782ZM200.902 507.499H204.158V504.216H200.902V507.499ZM200.902 494.354H204.158V491.072H200.902V494.354ZM194.384 500.927H197.64V497.644H194.384V500.927ZM194.384 487.782H197.64V484.499H194.384V487.782ZM187.865 507.499H191.121V504.216H187.865V507.499ZM187.865 494.354H191.121V491.072H187.865V494.354ZM181.346 500.927H184.602V497.644H181.346V500.927ZM181.346 487.782L184.602 487.782V484.499L181.346 484.499V487.782ZM174.828 507.499H178.084V504.216H174.828V507.499ZM174.828 494.354H178.084V491.072H174.828V494.354ZM168.309 507.499H171.565V504.216H168.309V507.499ZM168.309 500.927H171.565V497.644H168.309V500.927ZM168.309 487.782H171.565V484.499H168.309V487.782ZM161.79 507.499H165.046V504.216H161.79V507.499ZM161.79 494.354H165.046V491.072H161.79V494.354ZM155.271 507.499H158.527V504.216H155.271V507.499ZM155.271 500.927H158.527V497.644H155.271V500.927ZM155.271 494.354H158.527V491.072H155.271V494.354ZM155.271 487.782H158.527V484.499H155.271V487.782ZM148.753 507.499H152.009V504.216H148.753V507.499ZM148.753 494.354H152.009V491.072H148.753V494.354ZM142.234 507.499H145.49V504.216H142.234V507.499ZM142.234 500.927H145.49V497.644H142.234V500.927ZM142.234 494.354H145.49V491.072H142.234V494.354ZM142.234 487.782H145.49V484.499H142.234V487.782ZM135.715 507.499H138.971V504.216H135.715V507.499ZM135.715 494.354H138.971V491.072H135.715V494.354ZM129.197 507.499H132.453V504.216H129.197V507.499ZM129.197 500.927H132.453V497.644H129.197V500.927ZM129.197 494.354H132.453V491.072H129.197V494.354ZM129.197 487.782H132.453V484.499H129.197V487.782ZM122.678 507.499H125.934V504.216H122.678V507.499ZM122.678 494.354H125.934V491.072H122.678V494.354ZM116.159 507.499H119.415V504.216H116.159V507.499ZM116.159 500.927H119.415V497.644H116.159V500.927ZM116.159 494.354H119.415V491.072H116.159V494.354ZM116.159 487.782H119.415V484.499H116.159V487.782ZM109.641 507.499H112.896V504.216H109.641V507.499ZM109.641 500.927H112.896V497.644H109.641V500.927ZM109.641 494.354H112.896V491.072H109.641V494.354ZM103.122 507.499H106.378V504.216H103.122V507.499ZM103.122 500.927H106.378V497.644H103.122V500.927ZM103.122 494.354H106.378V491.072H103.122V494.354ZM103.122 487.782H106.378V484.499H103.122V487.782ZM96.6031 507.499H99.859V504.216H96.6031V507.499ZM96.6031 500.927H99.859V497.644H96.6031V500.927ZM96.6031 494.354H99.859V491.072H96.6031V494.354ZM96.6031 487.782H99.859V484.499H96.6031V487.782ZM90.0844 507.499H93.3403V504.216H90.0844V507.499ZM90.0844 500.927H93.3403V497.644H90.0844V500.927ZM90.0844 494.354H93.3403V491.072H90.0844V494.354ZM90.0844 487.782H93.3403V484.499H90.0844V487.782ZM83.5657 507.499H86.8216V504.216H83.5657V507.499ZM83.5657 500.927H86.8216V497.644H83.5657V500.927ZM83.5657 494.354H86.8216V491.072H83.5657V494.354ZM83.5657 487.782H86.8216V484.499H83.5657V487.782ZM77.047 507.499H80.3029V504.216H77.047V507.499ZM77.047 500.927H80.3029V497.644H77.047V500.927ZM77.047 494.354H80.3029V491.072H77.047V494.354ZM77.047 487.782H80.3029V484.499H77.047V487.782ZM70.5283 507.499H73.7842V504.216H70.5283V507.499ZM70.5283 500.927H73.7842V497.644H70.5283V500.927ZM70.5283 494.354H73.7842V491.072H70.5283V494.354ZM70.5283 487.782H73.7842V484.499H70.5283V487.782ZM64.0096 507.499H67.2655V504.216H64.0096V507.499ZM64.0096 500.927H67.2655V497.644H64.0096V500.927ZM64.0096 494.354H67.2655V491.072H64.0096V494.354ZM64.0096 487.782H67.2655V484.499H64.0096V487.782ZM57.4909 507.499H60.7468L60.7468 504.216H57.4909L57.4909 507.499ZM57.4909 500.927H60.7468V497.644H57.4909V500.927ZM57.4909 494.354H60.7468V491.072H57.4909V494.354ZM57.4909 487.782H60.7468V484.499H57.4909V487.782ZM54.235 507.499L54.235 504.216H50.9791L50.9791 507.499H54.235ZM50.9791 500.927H54.235V497.644H50.9791V500.927ZM50.9791 494.354H54.235V491.072H50.9791V494.354ZM50.9791 487.782H54.235V484.499H50.9791V487.782ZM47.7232 504.209H50.9791V500.927H47.7232V504.209ZM44.4673 507.492H47.7232L47.7232 504.209H44.4673L44.4673 507.492ZM44.4673 497.637V500.92H47.7232V497.637H44.4673ZM47.7232 491.065H44.4673V494.347H47.7232V491.065ZM47.7232 484.492H44.4673V487.775H47.7232V484.499V484.492ZM41.2045 507.492L41.2045 504.209H37.9486L37.9486 507.492H41.2045ZM37.9486 500.92H41.2045V497.637H37.9486V500.92ZM41.2045 494.347V491.065H37.9486V494.347H41.2045ZM37.9486 487.775H41.2045V484.499H37.9486V487.782V487.775ZM34.6927 504.202H37.9486V500.92H34.6927V504.202ZM34.6927 491.058H37.9486V487.775H34.6927V491.058ZM31.4369 507.485H34.6927V504.202H31.4369V507.485ZM31.4369 497.63V500.913H34.6927V497.63H31.4369ZM31.4369 494.347H34.6927V491.065H31.4369V494.347ZM31.4369 484.492V487.775H34.6927V484.499H31.4369V484.492ZM28.181 507.492V504.209H24.9251V507.492H28.181ZM24.9251 500.92H28.181V497.637H24.9251V500.92ZM28.181 494.347V491.065H24.9251V494.347H28.181ZM24.9251 487.775H28.181V484.499H24.9251V487.782V487.775ZM21.6692 504.202H24.9251V500.92H21.6692V504.202ZM21.6692 491.058H24.9251V487.775H21.6692V491.058ZM18.4133 507.485H21.6692V504.202H18.4133V507.485ZM18.4133 497.63V500.913H21.6692V497.63H18.4133ZM18.4133 494.347H21.6692V491.065H18.4133V494.347ZM18.4133 484.492V487.775H21.6692V484.499H18.4133V484.492ZM15.1574 507.492V504.209H11.9015V507.492H15.1574ZM11.9015 500.92H15.1574V497.637H11.9015L11.9015 500.92ZM15.1574 494.347V491.065H11.9015L11.9015 494.347H15.1574ZM11.9015 487.775H15.1574V484.499H11.9015V487.782V487.775ZM8.64563 504.202H11.9015V500.92H8.64563V504.202ZM8.64563 491.058H11.9015V487.775H8.64563V491.058ZM5.38281 507.499H8.6387V504.216H5.38281V507.499ZM5.38281 497.644L5.38281 500.927H8.6387L8.6387 497.644H5.38281ZM5.38281 494.361H8.6387L8.6387 491.079H5.38281L5.38281 494.361ZM5.38281 484.499L5.38281 487.782H8.6387V484.499H5.38281Z" fill="#FDCCBA"/>
<path d="M15.1574 504.202V507.485H11.9015V504.202L15.1574 504.202Z" fill="#FDCCBA"/>
<path d="M15.1574 500.913H11.9015V504.195H8.64563V500.913H11.9015L11.9015 497.63H15.1574V500.913Z" fill="#FDCCBA"/>
<path d="M15.1574 491.058V494.34H11.9015L11.9015 491.058L15.1574 491.058Z" fill="#FDCCBA"/>
<path d="M15.1574 487.768H11.9015V487.775V491.051H8.64563V487.768H11.9015V484.492H15.1574V487.768Z" fill="#FDCCBA"/>
<path d="M8.6387 507.492H5.38281V504.209H8.6387V507.492Z" fill="#FDCCBA"/>
<path d="M5.38281 500.92L5.38281 497.637H8.6387L8.6387 500.92H5.38281Z" fill="#FDCCBA"/>
<path d="M8.6387 494.354H5.38281L5.38281 491.072H8.6387L8.6387 494.354Z" fill="#FDCCBA"/>
<path d="M5.38281 487.775L5.38281 484.492H8.6387V487.775H5.38281Z" fill="#FDCCBA"/>
</g>
<g clip-path="url(#clip2_1601_3332)">
<path d="M998.992 13.6522L998.992 10.5L995.834 10.5L995.834 13.6522L998.992 13.6522Z" fill="#FDCCBA"/>
<path d="M998.992 26.2694L998.992 23.1172L995.834 23.1172L995.834 26.2694L998.992 26.2694Z" fill="#FDCCBA"/>
<path d="M998.992 38.8866L998.992 35.7344L995.834 35.7344L995.834 38.8866L998.992 38.8866Z" fill="#FDCCBA"/>
<path d="M998.992 51.496L998.992 48.3438L995.834 48.3437L995.834 51.496L998.992 51.496Z" fill="#FDCCBA"/>
<path d="M986.355 13.6522L986.355 10.5L983.197 10.5L983.197 13.6522L986.355 13.6522Z" fill="#FDCCBA"/>
<path d="M986.355 26.2694L986.355 23.1172L983.197 23.1172L983.197 26.2694L986.355 26.2694Z" fill="#FDCCBA"/>
<path d="M986.355 38.8866L986.355 35.7344L983.197 35.7344L983.197 38.8866L986.355 38.8866Z" fill="#FDCCBA"/>
<path d="M986.355 51.496L986.355 48.3438L983.197 48.3437L983.197 51.496L986.355 51.496Z" fill="#FDCCBA"/>
<path d="M973.711 13.6522L973.711 10.5L970.553 10.5L970.553 13.6522L973.711 13.6522Z" fill="#FDCCBA"/>
<path d="M973.711 26.2694L973.711 23.1172L970.553 23.1172L970.553 26.2694L973.711 26.2694Z" fill="#FDCCBA"/>
<path d="M973.711 38.8866L973.711 35.7344L970.553 35.7344L970.553 38.8866L973.711 38.8866Z" fill="#FDCCBA"/>
<path d="M973.711 51.496L973.711 48.3438L970.553 48.3437L970.553 51.496L973.711 51.496Z" fill="#FDCCBA"/>
<path d="M961.074 13.6522L961.074 10.5L957.916 10.5L957.916 13.6522L961.074 13.6522Z" fill="#FDCCBA"/>
<path d="M961.074 26.2694L961.074 23.1172L957.916 23.1172L957.916 26.2694L961.074 26.2694Z" fill="#FDCCBA"/>
<path d="M961.074 38.8866L961.074 35.7344L957.916 35.7344L957.916 38.8866L961.074 38.8866Z" fill="#FDCCBA"/>
<path d="M961.074 51.496L961.074 48.3438L957.916 48.3437L957.916 51.496L961.074 51.496Z" fill="#FDCCBA"/>
<path d="M948.432 13.6522L948.432 10.5L945.274 10.5L945.274 13.6522L948.432 13.6522Z" fill="#FDCCBA"/>
<path d="M948.432 26.2694L948.432 23.1172L945.274 23.1172L945.274 26.2694L948.432 26.2694Z" fill="#FDCCBA"/>
<path d="M948.432 38.8866L948.432 35.7344L945.274 35.7344L945.274 38.8866L948.432 38.8866Z" fill="#FDCCBA"/>
<path d="M948.432 51.496L948.432 48.3438L945.274 48.3437L945.274 51.496L948.432 51.496Z" fill="#FDCCBA"/>
<path d="M935.795 13.6522L935.795 10.5L932.637 10.5L932.637 13.6522L935.795 13.6522Z" fill="#FDCCBA"/>
<path d="M935.795 26.2694L935.795 23.1172L932.637 23.1172L932.637 26.2694L935.795 26.2694Z" fill="#FDCCBA"/>
<path d="M935.795 38.8866L935.795 35.7344L932.637 35.7344L932.637 38.8866L935.795 38.8866Z" fill="#FDCCBA"/>
<path d="M935.795 51.496L935.795 48.3438L932.637 48.3437L932.637 51.496L935.795 51.496Z" fill="#FDCCBA"/>
<path d="M923.15 13.6522L923.15 10.5L919.992 10.5L919.992 13.6522L923.15 13.6522Z" fill="#FDCCBA"/>
<path d="M923.15 26.2694L923.15 23.1172L919.992 23.1172L919.992 26.2694L923.15 26.2694Z" fill="#FDCCBA"/>
<path d="M923.15 38.8866L923.15 35.7344L919.992 35.7344L919.992 38.8866L923.15 38.8866Z" fill="#FDCCBA"/>
<path d="M923.15 51.496L923.15 48.3438L919.992 48.3437L919.992 51.496L923.15 51.496Z" fill="#FDCCBA"/>
</g>
</g>
<defs>
<clipPath id="clip0_1601_3332">
<rect width="1008" height="513" fill="white" transform="translate(0 0.5)"/>
</clipPath>
<clipPath id="clip1_1601_3332">
<rect width="277" height="23" fill="white" transform="translate(-31 484.5)"/>
</clipPath>
<clipPath id="clip2_1601_3332">
<rect width="41" height="79" fill="white" transform="translate(999 10.5) rotate(90)"/>
</clipPath>
</defs>
</svg>
