<svg width="1008" height="513" viewBox="0 0 1008 513" fill="none" xmlns="http://www.w3.org/2000/svg">
<g clip-path="url(#clip0_1601_3332)">
<path d="M1.90735e-06 513L0 38L731.444 37.9991L756.426 0H1008V475.001L275.598 475L250.582 513H1.90735e-06Z" fill="#FFF4F0"/>
<path d="M0 38L731.444 37.9991L756.426 0H1003V5H759.122L734.14 42.9991L5 43L5 508H0V38Z" fill="#FEEBE4"/>
<path d="M0.000547409 508L0.000493646 38L0 513H250.582L275.598 475L1008 475.001V0H1003L1003 470.001L272.903 470L247.888 508L0.000547409 508Z" fill="#FCC5B1"/>
<g clip-path="url(#clip1_1601_3332)">
<path d="M282.383 506.216V509.499H279.127V506.216H282.383ZM266.09 509.499H269.345V506.216H266.09V509.499ZM266.09 496.354H269.345V493.072H266.09V496.354ZM253.052 509.499H256.308V506.216H253.052V509.499ZM253.052 496.354H256.308V493.072H253.052V496.354ZM240.015 509.499H243.271V506.216H240.015V509.499ZM240.015 496.354H243.271V493.072H240.015V496.354ZM226.977 509.499H230.233V506.216H226.977V509.499ZM226.977 496.354H230.233V493.072H226.977V496.354ZM220.459 502.927H223.714V499.644H220.459V502.927ZM213.94 509.499H217.196V506.216H213.94V509.499ZM213.94 496.354H217.196V493.072H213.94V496.354ZM207.421 502.927H210.677V499.644H207.421V502.927ZM207.421 489.782H210.677V486.499H207.421V489.782ZM200.902 509.499H204.158V506.216H200.902V509.499ZM200.902 496.354H204.158V493.072H200.902V496.354ZM194.384 502.927H197.64V499.644H194.384V502.927ZM194.384 489.782H197.64V486.499H194.384V489.782ZM187.865 509.499H191.121V506.216H187.865V509.499ZM187.865 496.354H191.121V493.072H187.865V496.354ZM181.346 502.927H184.602V499.644H181.346V502.927ZM181.346 489.782L184.602 489.782V486.499L181.346 486.499V489.782ZM174.828 509.499H178.084V506.216H174.828V509.499ZM174.828 496.354H178.084V493.072H174.828V496.354ZM168.309 509.499H171.565V506.216H168.309V509.499ZM168.309 502.927H171.565V499.644H168.309V502.927ZM168.309 489.782H171.565V486.499H168.309V489.782ZM161.79 509.499H165.046V506.216H161.79V509.499ZM161.79 496.354H165.046V493.072H161.79V496.354ZM155.271 509.499H158.527V506.216H155.271V509.499ZM155.271 502.927H158.527V499.644H155.271V502.927ZM155.271 496.354H158.527V493.072H155.271V496.354ZM155.271 489.782H158.527V486.499H155.271V489.782ZM148.753 509.499H152.009V506.216H148.753V509.499ZM148.753 496.354H152.009V493.072H148.753V496.354ZM142.234 509.499H145.49V506.216H142.234V509.499ZM142.234 502.927H145.49V499.644H142.234V502.927ZM142.234 496.354H145.49V493.072H142.234V496.354ZM142.234 489.782H145.49V486.499H142.234V489.782ZM135.715 509.499H138.971V506.216H135.715V509.499ZM135.715 496.354H138.971V493.072H135.715V496.354ZM129.197 509.499H132.453V506.216H129.197V509.499ZM129.197 502.927H132.453V499.644H129.197V502.927ZM129.197 496.354H132.453V493.072H129.197V496.354ZM129.197 489.782H132.453V486.499H129.197V489.782ZM122.678 509.499H125.934V506.216H122.678V509.499ZM122.678 496.354H125.934V493.072H122.678V496.354ZM116.159 509.499H119.415V506.216H116.159V509.499ZM116.159 502.927H119.415V499.644H116.159V502.927ZM116.159 496.354H119.415V493.072H116.159V496.354ZM116.159 489.782H119.415V486.499H116.159V489.782ZM109.641 509.499H112.896V506.216H109.641V509.499ZM109.641 502.927H112.896V499.644H109.641V502.927ZM109.641 496.354H112.896V493.072H109.641V496.354ZM103.122 509.499H106.378V506.216H103.122V509.499ZM103.122 502.927H106.378V499.644H103.122V502.927ZM103.122 496.354H106.378V493.072H103.122V496.354ZM103.122 489.782H106.378V486.499H103.122V489.782ZM96.6031 509.499H99.859V506.216H96.6031V509.499ZM96.6031 502.927H99.859V499.644H96.6031V502.927ZM96.6031 496.354H99.859V493.072H96.6031V496.354ZM96.6031 489.782H99.859V486.499H96.6031V489.782ZM90.0844 509.499H93.3403V506.216H90.0844V509.499ZM90.0844 502.927H93.3403V499.644H90.0844V502.927ZM90.0844 496.354H93.3403V493.072H90.0844V496.354ZM90.0844 489.782H93.3403V486.499H90.0844V489.782ZM83.5657 509.499H86.8216V506.216H83.5657V509.499ZM83.5657 502.927H86.8216V499.644H83.5657V502.927ZM83.5657 496.354H86.8216V493.072H83.5657V496.354ZM83.5657 489.782H86.8216V486.499H83.5657V489.782ZM77.047 509.499H80.3029V506.216H77.047V509.499ZM77.047 502.927H80.3029V499.644H77.047V502.927ZM77.047 496.354H80.3029V493.072H77.047V496.354ZM77.047 489.782H80.3029V486.499H77.047V489.782ZM70.5283 509.499H73.7842V506.216H70.5283V509.499ZM70.5283 502.927H73.7842V499.644H70.5283V502.927ZM70.5283 496.354H73.7842V493.072H70.5283V496.354ZM70.5283 489.782H73.7842V486.499H70.5283V489.782ZM64.0096 509.499H67.2655V506.216H64.0096V509.499ZM64.0096 502.927H67.2655V499.644H64.0096V502.927ZM64.0096 496.354H67.2655V493.072H64.0096V496.354ZM64.0096 489.782H67.2655V486.499H64.0096V489.782ZM57.4909 509.499H60.7468L60.7468 506.216H57.4909L57.4909 509.499ZM57.4909 502.927H60.7468V499.644H57.4909V502.927ZM57.4909 496.354H60.7468V493.072H57.4909V496.354ZM57.4909 489.782H60.7468V486.499H57.4909V489.782ZM54.235 509.499L54.235 506.216H50.9791L50.9791 509.499H54.235ZM50.9791 502.927H54.235V499.644H50.9791V502.927ZM50.9791 496.354H54.235V493.072H50.9791V496.354ZM50.9791 489.782H54.235V486.499H50.9791V489.782ZM47.7232 506.209H50.9791V502.927H47.7232V506.209ZM44.4673 509.492H47.7232L47.7232 506.209H44.4673L44.4673 509.492ZM44.4673 499.637V502.92H47.7232V499.637H44.4673ZM47.7232 493.065H44.4673V496.347H47.7232V493.065ZM47.7232 486.492H44.4673V489.775H47.7232V486.499V486.492ZM41.2045 509.492L41.2045 506.209H37.9486L37.9486 509.492H41.2045ZM37.9486 502.92H41.2045V499.637H37.9486V502.92ZM41.2045 496.347V493.065H37.9486V496.347H41.2045ZM37.9486 489.775H41.2045V486.499H37.9486V489.782V489.775ZM34.6927 506.202H37.9486V502.92H34.6927V506.202ZM34.6927 493.058H37.9486V489.775H34.6927V493.058ZM31.4369 509.485H34.6927V506.202H31.4369V509.485ZM31.4369 499.63V502.913H34.6927V499.63H31.4369ZM31.4369 496.347H34.6927V493.065H31.4369V496.347ZM31.4369 486.492V489.775H34.6927V486.499H31.4369V486.492ZM28.181 509.492V506.209H24.9251V509.492H28.181ZM24.9251 502.92H28.181V499.637H24.9251V502.92ZM28.181 496.347V493.065H24.9251V496.347H28.181ZM24.9251 489.775H28.181V486.499H24.9251V489.782V489.775ZM21.6692 506.202H24.9251V502.92H21.6692V506.202ZM21.6692 493.058H24.9251V489.775H21.6692V493.058ZM18.4133 509.485H21.6692V506.202H18.4133V509.485ZM18.4133 499.63V502.913H21.6692V499.63H18.4133ZM18.4133 496.347H21.6692V493.065H18.4133V496.347ZM18.4133 486.492V489.775H21.6692V486.499H18.4133V486.492ZM15.1574 509.492V506.209H11.9015V509.492H15.1574ZM11.9015 502.92H15.1574V499.637H11.9015L11.9015 502.92ZM15.1574 496.347V493.065H11.9015L11.9015 496.347H15.1574ZM11.9015 489.775H15.1574V486.499H11.9015V489.782V489.775ZM8.64563 506.202H11.9015V502.92H8.64563V506.202ZM8.64563 493.058H11.9015V489.775H8.64563V493.058ZM5.38281 509.499H8.6387V506.216H5.38281V509.499ZM5.38281 499.644L5.38281 502.927H8.6387L8.6387 499.644H5.38281ZM5.38281 496.361H8.6387L8.6387 493.079H5.38281L5.38281 496.361ZM5.38281 486.499L5.38281 489.782H8.6387V486.499H5.38281Z" fill="#FDCCBA"/>
<path d="M15.1574 506.202V509.485H11.9015V506.202L15.1574 506.202Z" fill="#FDCCBA"/>
<path d="M15.1574 502.913H11.9015V506.195H8.64563V502.913H11.9015L11.9015 499.63H15.1574V502.913Z" fill="#FDCCBA"/>
<path d="M15.1574 493.058V496.34H11.9015L11.9015 493.058L15.1574 493.058Z" fill="#FDCCBA"/>
<path d="M15.1574 489.768H11.9015V489.775V493.051H8.64563V489.768H11.9015V486.492H15.1574V489.768Z" fill="#FDCCBA"/>
<path d="M8.6387 509.492H5.38281V506.209H8.6387V509.492Z" fill="#FDCCBA"/>
<path d="M5.38281 502.92L5.38281 499.637H8.6387L8.6387 502.92H5.38281Z" fill="#FDCCBA"/>
<path d="M8.6387 496.354H5.38281L5.38281 493.072H8.6387L8.6387 496.354Z" fill="#FDCCBA"/>
<path d="M5.38281 489.775L5.38281 486.492H8.6387V489.775H5.38281Z" fill="#FDCCBA"/>
</g>
<g clip-path="url(#clip2_1601_3332)">
<path d="M998.992 13.6522L998.992 10.5L995.834 10.5L995.834 13.6522L998.992 13.6522Z" fill="#FDCCBA"/>
<path d="M998.992 26.2694L998.992 23.1172L995.834 23.1172L995.834 26.2694L998.992 26.2694Z" fill="#FDCCBA"/>
<path d="M998.992 38.8866L998.992 35.7344L995.834 35.7344L995.834 38.8866L998.992 38.8866Z" fill="#FDCCBA"/>
<path d="M998.992 51.496L998.992 48.3438L995.834 48.3437L995.834 51.496L998.992 51.496Z" fill="#FDCCBA"/>
<path d="M986.355 13.6522L986.355 10.5L983.197 10.5L983.197 13.6522L986.355 13.6522Z" fill="#FDCCBA"/>
<path d="M986.355 26.2694L986.355 23.1172L983.197 23.1172L983.197 26.2694L986.355 26.2694Z" fill="#FDCCBA"/>
<path d="M986.355 38.8866L986.355 35.7344L983.197 35.7344L983.197 38.8866L986.355 38.8866Z" fill="#FDCCBA"/>
<path d="M986.355 51.496L986.355 48.3438L983.197 48.3437L983.197 51.496L986.355 51.496Z" fill="#FDCCBA"/>
<path d="M973.711 13.6522L973.711 10.5L970.553 10.5L970.553 13.6522L973.711 13.6522Z" fill="#FDCCBA"/>
<path d="M973.711 26.2694L973.711 23.1172L970.553 23.1172L970.553 26.2694L973.711 26.2694Z" fill="#FDCCBA"/>
<path d="M973.711 38.8866L973.711 35.7344L970.553 35.7344L970.553 38.8866L973.711 38.8866Z" fill="#FDCCBA"/>
<path d="M973.711 51.496L973.711 48.3438L970.553 48.3437L970.553 51.496L973.711 51.496Z" fill="#FDCCBA"/>
<path d="M961.074 13.6522L961.074 10.5L957.916 10.5L957.916 13.6522L961.074 13.6522Z" fill="#FDCCBA"/>
<path d="M961.074 26.2694L961.074 23.1172L957.916 23.1172L957.916 26.2694L961.074 26.2694Z" fill="#FDCCBA"/>
<path d="M961.074 38.8866L961.074 35.7344L957.916 35.7344L957.916 38.8866L961.074 38.8866Z" fill="#FDCCBA"/>
<path d="M961.074 51.496L961.074 48.3438L957.916 48.3437L957.916 51.496L961.074 51.496Z" fill="#FDCCBA"/>
<path d="M948.432 13.6522L948.432 10.5L945.274 10.5L945.274 13.6522L948.432 13.6522Z" fill="#FDCCBA"/>
<path d="M948.432 26.2694L948.432 23.1172L945.274 23.1172L945.274 26.2694L948.432 26.2694Z" fill="#FDCCBA"/>
<path d="M948.432 38.8866L948.432 35.7344L945.274 35.7344L945.274 38.8866L948.432 38.8866Z" fill="#FDCCBA"/>
<path d="M948.432 51.496L948.432 48.3438L945.274 48.3437L945.274 51.496L948.432 51.496Z" fill="#FDCCBA"/>
<path d="M935.795 13.6522L935.795 10.5L932.637 10.5L932.637 13.6522L935.795 13.6522Z" fill="#FDCCBA"/>
<path d="M935.795 26.2694L935.795 23.1172L932.637 23.1172L932.637 26.2694L935.795 26.2694Z" fill="#FDCCBA"/>
<path d="M935.795 38.8866L935.795 35.7344L932.637 35.7344L932.637 38.8866L935.795 38.8866Z" fill="#FDCCBA"/>
<path d="M935.795 51.496L935.795 48.3438L932.637 48.3437L932.637 51.496L935.795 51.496Z" fill="#FDCCBA"/>
<path d="M923.15 13.6522L923.15 10.5L919.992 10.5L919.992 13.6522L923.15 13.6522Z" fill="#FDCCBA"/>
<path d="M923.15 26.2694L923.15 23.1172L919.992 23.1172L919.992 26.2694L923.15 26.2694Z" fill="#FDCCBA"/>
<path d="M923.15 38.8866L923.15 35.7344L919.992 35.7344L919.992 38.8866L923.15 38.8866Z" fill="#FDCCBA"/>
<path d="M923.15 51.496L923.15 48.3438L919.992 48.3437L919.992 51.496L923.15 51.496Z" fill="#FDCCBA"/>
</g>
</g>
<defs>
<clipPath id="clip0_1601_3332">
<rect width="1008" height="513" fill="white" transform="translate(0 0.5)"/>
</clipPath>
<clipPath id="clip1_1601_3332">
<rect width="277" height="23" fill="white" transform="translate(-31 486.5)"/>
</clipPath>
<clipPath id="clip2_1601_3332">
<rect width="41" height="79" fill="white" transform="translate(999 10.5) rotate(90)"/>
</clipPath>
</defs>
</svg>
