<svg xmlns="http://www.w3.org/2000/svg" width="100" height="70" fill="none" viewBox="0 0 100 70"><g clip-path="url(#a)"><path fill="#0A1432" d="M3.692 40.485h5.756v14.09l7.597-7.643h7.415l-9.301 9.392 9.806 12.985h-6.952l-6.816-8.978-1.749 1.795v7.183H3.692V40.485Zm32.968 5.753c6.952 0 11.65 5.248 11.65 11.926 0 6.679-4.698 11.832-11.65 11.832S24.965 64.84 24.965 58.165s4.743-11.927 11.695-11.927Zm0 18.237c3.408 0 5.893-2.671 5.893-6.307 0-3.636-2.485-6.402-5.893-6.402s-5.939 2.763-5.939 6.402c0 3.639 2.486 6.307 5.939 6.307Zm15.37-23.99h5.756v14.09l7.597-7.643h7.415l-9.301 9.392 9.805 12.985H66.35l-6.815-8.978-1.75 1.795v7.183H52.03V40.485Zm33.03 5.753c6.953 0 11.65 5.248 11.65 11.926 0 6.679-4.697 11.832-11.65 11.832-6.951 0-11.694-5.156-11.694-11.831s4.743-11.927 11.695-11.927Zm0 18.237c3.409 0 5.894-2.671 5.894-6.307 0-3.636-2.485-6.402-5.893-6.402s-5.939 2.763-5.939 6.402c0 3.639 2.486 6.307 5.939 6.307ZM0 10.36h3.685V3.912H9.44v6.448h9.578v4.974H9.44v9.67c0 2.117 1.2 3.221 3.085 3.221 1.98 0 3.222-1.518 2.994-4.33l5.48.554c.277 5.525-3.408 8.979-8.242 8.979-5.711 0-9.07-3.317-9.07-8.656v-9.438H0V10.36ZM27.706 0c1.981 0 3.59 1.658 3.59 3.59s-1.613 3.59-3.59 3.59c-1.977 0-3.544-1.613-3.544-3.59 0-1.977 1.609-3.59 3.544-3.59Zm-2.811 10.36h5.756v22.377h-5.756V10.36Zm10.787 0h5.525v2.394c1.196-1.935 3.04-3.13 5.434-3.13 2.948 0 5.02 1.29 5.984 3.82 1.2-2.348 3.268-3.82 6.125-3.82 4.235 0 6.63 2.53 6.63 7.642l.09 15.471H59.9V18.602c0-2.717-1.013-3.822-2.994-3.822-2.212 0-3.64 1.704-3.64 5.48l.092 12.477H47.97V18.602c0-2.717-1.06-3.822-3.085-3.822-2.21 0-3.685 1.704-3.685 5.389v12.568h-5.525V10.36h.007Zm43.745 4.02c-.68-1.307-1.041-2.615-1.041-4.168 0-3.884 2.843-6.622 6.689-6.622 3.646 0 6.37 2.738 6.37 6.622 0 2.861-1.802 5.192-4.687 6.539l5.206 6.622c.119-.571.2-1.143.2-1.798 0-1.227-.242-2.535-.761-3.923l4.606-1.266c.442 1.756.68 3.394.68 4.947 0 2.37-.518 4.456-1.44 6.212l4.126 5.273h-5.848L92.206 31.1c-2.002 1.51-4.568 2.331-7.53 2.331-7.09 0-11.458-4.007-11.458-10.465 0-4.087 2.283-6.99 6.21-8.582v-.003Zm5.248 14.266c1.802 0 3.366-.449 4.607-1.266l-7.25-9.238c-2.563.901-3.804 2.535-3.804 4.863 0 3.187 2.125 5.64 6.447 5.64Zm-.76-15.53c1.92-.656 3.204-1.635 3.204-2.984 0-1.473-.922-2.247-2.125-2.247-1.202 0-2.324.816-2.324 2.247 0 1.265.442 1.92 1.241 2.983h.004Z"/></g><defs><clipPath id="a"><path fill="white" d="M0 0h99.375v70H0z"/></clipPath></defs></svg>