<svg width="252" height="79" viewBox="0 0 252 79" fill="none" xmlns="http://www.w3.org/2000/svg">
<g clip-path="url(#clip0_1722_5213)">
<path d="M74.1996 75.3379C73.6237 75.3419 73.0533 75.2122 72.5237 74.9571C72.0142 74.7102 71.5498 74.3586 71.1543 73.9202C70.7624 73.4703 70.4523 72.9384 70.2413 72.3543C69.7998 71.1067 69.7998 69.7154 70.2413 68.4678C70.4508 67.8849 70.7612 67.355 71.1543 66.9089C71.5495 66.4682 72.0138 66.1142 72.5237 65.865C73.0533 65.6138 73.622 65.4844 74.1964 65.4844C74.7709 65.4844 75.3396 65.6138 75.8691 65.865C76.3807 66.1108 76.8456 66.4652 77.2386 66.9089C77.6317 67.355 77.942 67.8849 78.1515 68.4678C78.374 69.086 78.4866 69.7474 78.4829 70.4146V71.0635H71.642C71.6982 71.4349 71.8103 71.7928 71.9735 72.1215C72.1193 72.4235 72.3145 72.6915 72.5487 72.9115C72.7771 73.1264 73.0375 73.2936 73.3179 73.4053C73.6007 73.5197 73.8991 73.577 74.1996 73.5746C74.574 73.5853 74.9471 73.5184 75.3001 73.3771C75.5679 73.2722 75.8191 73.1198 76.0442 72.9256C76.2582 72.7446 76.4424 72.5226 76.5882 72.2696H78.4016C78.1979 72.8417 77.901 73.3656 77.5262 73.8144C77.3497 74.0139 77.1617 74.2001 76.9634 74.3716C76.7415 74.5708 76.4977 74.7367 76.2381 74.8654C75.9431 75.0162 75.6351 75.1321 75.3189 75.211C74.9509 75.2987 74.5756 75.3412 74.1996 75.3379ZM76.7008 69.4835C76.6543 69.1981 76.57 68.9223 76.4507 68.6653C76.3327 68.393 76.1642 68.1524 75.9567 67.9599C75.6045 67.6331 75.1851 67.4115 74.7371 67.3153C74.2891 67.2192 73.8269 67.2517 73.3929 67.4097C73.127 67.5079 72.8776 67.6558 72.655 67.8471C72.428 68.04 72.235 68.2793 72.086 68.5524C71.9279 68.8409 71.8157 69.1584 71.7546 69.4905L76.7008 69.4835Z" fill="#0A1133"/>
<path d="M81.8513 70.4197L79.35 65.6797H81.3323L83.2082 69.4886H83.6146L85.4906 65.6797H87.5416L85.0403 70.4197L87.5916 75.1597H85.6657L83.6584 71.245H83.252L81.2885 75.1597H79.3125L81.8513 70.4197Z" fill="#0A1133"/>
<path d="M89.1133 65.6739H90.8454V66.8801H90.9267C91.1253 66.6146 91.3521 66.3777 91.602 66.1747C91.8591 65.9823 92.1337 65.8215 92.4212 65.6951C92.7862 65.5377 93.1748 65.4611 93.5655 65.4694C94.1005 65.4643 94.6307 65.5843 95.1225 65.822C95.5933 66.0575 96.0183 66.3955 96.3731 66.8166C96.7413 67.267 97.028 67.7941 97.2173 68.3684C97.6258 69.681 97.6258 71.1115 97.2173 72.4242C97.0295 72.9992 96.7426 73.5266 96.3731 73.976C96.0149 74.4098 95.5799 74.754 95.0962 74.986C94.6125 75.2181 94.091 75.333 93.5655 75.3232C93.1758 75.3323 92.7879 75.2606 92.4212 75.1116C92.1329 74.9902 91.858 74.8316 91.602 74.639C91.3497 74.4393 91.1225 74.2021 90.9267 73.9336H90.8454V78.6736H89.1133V65.6739ZM93.2341 73.5739C93.5672 73.5913 93.8998 73.5279 94.2094 73.388C94.519 73.248 94.7984 73.0348 95.0287 72.7627C95.4713 72.08 95.7098 71.2562 95.7098 70.4104C95.7098 69.5646 95.4713 68.7407 95.0287 68.058C94.7971 67.7883 94.5173 67.5772 94.208 67.4385C93.8986 67.2999 93.5666 67.237 93.2341 67.2539C92.9132 67.2419 92.5937 67.3074 92.2971 67.4461C92.0005 67.5848 91.7337 67.7934 91.5145 68.058C91.0791 68.7441 90.8451 69.5667 90.8451 70.4104C90.8451 71.2541 91.0791 72.0767 91.5145 72.7627C91.7324 73.0297 91.9988 73.2405 92.2956 73.3805C92.5924 73.5205 92.9126 73.5865 93.2341 73.5739Z" fill="#0A1133"/>
<path d="M103.264 75.3379C102.688 75.3419 102.118 75.2122 101.588 74.9571C101.079 74.7102 100.614 74.3586 100.219 73.9202C99.8269 73.4703 99.5167 72.9384 99.3058 72.3543C98.8642 71.1067 98.8642 69.7154 99.3058 68.4678C99.5153 67.8849 99.8256 67.355 100.219 66.9089C100.614 66.4682 101.078 66.1142 101.588 65.865C102.118 65.6138 102.686 65.4844 103.261 65.4844C103.835 65.4844 104.404 65.6138 104.934 65.865C105.444 66.1126 105.909 66.4668 106.303 66.9089C106.696 67.355 107.007 67.8849 107.216 68.4678C107.438 69.086 107.551 69.7474 107.547 70.4146V71.0635H100.707C100.763 71.4349 100.875 71.7928 101.038 72.1215C101.184 72.4235 101.379 72.6915 101.613 72.9115C101.84 73.1256 102.098 73.2928 102.376 73.4053C102.661 73.5191 102.962 73.5764 103.264 73.5746C103.638 73.5853 104.012 73.5184 104.365 73.3771C104.632 73.2722 104.884 73.1198 105.109 72.9256C105.323 72.7446 105.507 72.5226 105.653 72.2696H107.466C107.262 72.8417 106.965 73.3656 106.591 73.8144C106.414 74.0139 106.226 74.2001 106.028 74.3716C105.806 74.5708 105.562 74.7367 105.303 74.8654C105.008 75.0162 104.7 75.1321 104.383 75.211C104.015 75.2987 103.64 75.3412 103.264 75.3379ZM105.765 69.4835C105.719 69.1981 105.634 68.9223 105.515 68.6653C105.397 68.393 105.229 68.1524 105.021 67.9599C104.669 67.6331 104.25 67.4115 103.802 67.3153C103.354 67.2192 102.891 67.2517 102.457 67.4097C102.191 67.5079 101.942 67.6558 101.72 67.8471C101.492 68.04 101.299 68.2793 101.15 68.5524C100.992 68.8409 100.88 69.1584 100.819 69.4905L105.765 69.4835Z" fill="#0A1133"/>
<path d="M109.479 65.6782H111.204V67.089H111.304C111.445 66.8112 111.624 66.5611 111.836 66.3483C112.055 66.1342 112.294 65.9474 112.549 65.7911C112.875 65.5933 113.242 65.496 113.612 65.509H114.606V67.3711H113.531C113.218 67.3682 112.908 67.4329 112.618 67.5615C112.344 67.6767 112.095 67.8545 111.886 68.0835C111.669 68.3152 111.502 68.5999 111.398 68.9158C111.28 69.2622 111.22 69.6308 111.223 70.0021V75.1794H109.497L109.479 65.6782Z" fill="#0A1133"/>
<path d="M117.053 64.2809C116.918 64.2834 116.785 64.2554 116.66 64.1984C116.536 64.1415 116.422 64.0568 116.327 63.9493C116.231 63.8419 116.155 63.7132 116.104 63.5712C116.054 63.4292 116.03 63.277 116.034 63.1241C116.031 62.9713 116.056 62.8196 116.106 62.6779C116.157 62.5361 116.232 62.4072 116.327 62.2988C116.421 62.1882 116.534 62.1004 116.658 62.041C116.783 61.9815 116.917 61.9516 117.053 61.9532C117.328 61.955 117.591 62.079 117.785 62.2982C117.979 62.5174 118.089 62.8141 118.091 63.1241C118.094 63.2782 118.068 63.4313 118.015 63.5734C117.963 63.7156 117.884 63.8437 117.784 63.9493C117.688 64.057 117.574 64.1417 117.448 64.1987C117.323 64.2556 117.188 64.2836 117.053 64.2809ZM116.196 65.6916H117.928V75.1716H116.196V65.6916Z" fill="#0A1133"/>
<path d="M124.106 75.3383C123.53 75.3422 122.96 75.2126 122.43 74.9574C121.92 74.7106 121.456 74.359 121.061 73.9206C120.669 73.4707 120.359 72.9388 120.148 72.3547C119.706 71.107 119.706 69.7158 120.148 68.4682C120.357 67.8853 120.667 67.3553 121.061 66.9093C121.456 66.4686 121.92 66.1146 122.43 65.8654C122.96 65.6102 123.53 65.4806 124.106 65.4845C124.68 65.4799 125.248 65.6096 125.775 65.8654C126.287 66.1112 126.752 66.4656 127.145 66.9093C127.538 67.3553 127.848 67.8853 128.058 68.4682C128.28 69.0863 128.393 69.7478 128.389 70.4149V71.0639H121.548C121.607 71.4345 121.719 71.7918 121.88 72.1219C122.026 72.4239 122.221 72.6919 122.455 72.9119C122.683 73.1267 122.944 73.294 123.224 73.4057C123.507 73.5188 123.805 73.5761 124.106 73.5749C124.48 73.5857 124.853 73.5188 125.206 73.3774C125.474 73.2726 125.725 73.1202 125.95 72.926C126.164 72.745 126.349 72.523 126.494 72.27H128.308C128.104 72.8421 127.807 73.366 127.432 73.8148C127.257 74.0126 127.071 74.1987 126.876 74.372C126.652 74.5681 126.409 74.7339 126.151 74.8657C125.853 75.0166 125.543 75.1324 125.225 75.2114C124.857 75.299 124.482 75.3416 124.106 75.3383ZM126.576 69.4839C126.529 69.1997 126.447 68.9243 126.332 68.6657C126.21 68.3961 126.042 68.1563 125.838 67.9603C125.615 67.7475 125.364 67.576 125.094 67.4524C124.778 67.3202 124.443 67.2556 124.106 67.262C123.823 67.2612 123.543 67.3112 123.274 67.4101C123.006 67.5087 122.755 67.6565 122.53 67.8474C122.303 68.0404 122.11 68.2797 121.961 68.5528C121.803 68.8413 121.691 69.1588 121.63 69.4909L126.576 69.4839Z" fill="#0A1133"/>
<path d="M130.321 65.6729H132.054V67.006H132.135C132.306 66.7323 132.518 66.4937 132.76 66.3007C133.013 66.0906 133.288 65.9176 133.579 65.7858C133.964 65.6192 134.374 65.5401 134.786 65.553C135.231 65.5238 135.676 65.599 136.094 65.7739C136.511 65.9487 136.892 66.2193 137.212 66.5687C137.842 67.3941 138.156 68.4665 138.088 69.5524V75.1952H136.318V69.7076C136.367 69.0453 136.191 68.3869 135.824 67.8666C135.624 67.6631 135.39 67.5076 135.135 67.4094C134.88 67.3112 134.611 67.2724 134.342 67.2952C134.026 67.2893 133.713 67.359 133.423 67.4998C133.149 67.632 132.9 67.8237 132.691 68.0641C132.479 68.3165 132.314 68.6138 132.204 68.9387C132.087 69.3051 132.03 69.6922 132.035 70.0814V75.1952H130.303L130.321 65.6729Z" fill="#0A1133"/>
<path d="M144.14 75.3385C143.568 75.3428 143.001 75.2206 142.471 74.9788C141.969 74.745 141.515 74.3968 141.139 73.956C140.757 73.5065 140.458 72.9769 140.257 72.3972C139.823 71.1211 139.823 69.7091 140.257 68.4331C140.458 67.8534 140.757 67.3237 141.139 66.8742C141.514 66.4312 141.968 66.0826 142.471 65.8514C142.999 65.6036 143.567 65.4788 144.14 65.4847C144.521 65.4801 144.902 65.5299 145.272 65.6328C145.591 65.7221 145.9 65.8548 146.191 66.0278C146.445 66.1779 146.681 66.3653 146.891 66.585C147.076 66.7834 147.252 66.993 147.417 67.2128C147.773 67.718 148.03 68.302 148.173 68.9268H146.366C146.276 68.6161 146.129 68.3302 145.935 68.0874C145.708 67.8085 145.43 67.5893 145.12 67.4454C144.81 67.3016 144.475 67.2366 144.14 67.2551C143.82 67.2515 143.503 67.3259 143.21 67.4732C142.918 67.6204 142.657 67.8372 142.445 68.1086C142.224 68.4088 142.054 68.7534 141.945 69.1243C141.813 69.5455 141.747 69.9895 141.751 70.4363C141.749 70.8829 141.814 71.3268 141.945 71.7482C142.058 72.1122 142.23 72.4495 142.452 72.7428C142.661 73.0017 142.914 73.2104 143.196 73.3564C143.488 73.5067 143.806 73.5837 144.128 73.5822C144.524 73.601 144.919 73.5114 145.278 73.3212C145.541 73.1751 145.78 72.9795 145.985 72.7428C146.186 72.5051 146.34 72.2212 146.435 71.9105H148.198C148.058 72.5407 147.8 73.1299 147.442 73.6386C147.28 73.8592 147.104 74.0667 146.916 74.2593C146.704 74.4745 146.469 74.6593 146.216 74.8095C145.925 74.9801 145.616 75.1104 145.297 75.1974C144.918 75.3003 144.529 75.3477 144.14 75.3385Z" fill="#0A1133"/>
<path d="M153.827 75.3379C153.251 75.3419 152.68 75.2122 152.151 74.9571C151.641 74.7102 151.177 74.3586 150.781 73.9202C150.389 73.4703 150.079 72.9384 149.868 72.3543C149.427 71.1067 149.427 69.7154 149.868 68.4678C150.078 67.8849 150.388 67.355 150.781 66.9089C151.176 66.4682 151.641 66.1142 152.151 65.865C152.68 65.6138 153.249 65.4844 153.823 65.4844C154.398 65.4844 154.967 65.6138 155.496 65.865C156.008 66.1108 156.473 66.4652 156.866 66.9089C157.259 67.355 157.569 67.8849 157.778 68.4678C158.001 69.086 158.114 69.7474 158.11 70.4146V71.0635H151.263C151.322 71.4341 151.434 71.7914 151.594 72.1215C151.74 72.4235 151.935 72.6915 152.169 72.9115C152.398 73.1264 152.658 73.2936 152.939 73.4053C153.221 73.5197 153.52 73.577 153.82 73.5746C154.195 73.5853 154.568 73.5184 154.921 73.3771C155.189 73.2722 155.44 73.1198 155.665 72.9256C155.879 72.7446 156.063 72.5226 156.209 72.2696H158.022C157.819 72.8417 157.522 73.3656 157.147 73.8144C156.97 74.0139 156.782 74.2001 156.584 74.3716C156.362 74.5708 156.118 74.7367 155.859 74.8654C155.564 75.0162 155.256 75.1321 154.94 75.211C154.574 75.2982 154.2 75.3407 153.827 75.3379ZM156.296 69.4835C156.25 69.1981 156.166 68.9223 156.046 68.6653C155.928 68.393 155.76 68.1524 155.552 67.9599C155.2 67.6331 154.781 67.4115 154.333 67.3153C153.885 67.2192 153.423 67.2517 152.989 67.4097C152.723 67.5079 152.473 67.6558 152.251 67.8471C152.024 68.04 151.831 68.2793 151.682 68.5524C151.524 68.8409 151.411 69.1584 151.35 69.4905L156.296 69.4835Z" fill="#0A1133"/>
<path d="M165.189 62.1406H166.922V69.3917H168.172L170.723 65.6745H172.706L169.654 70.0406L172.95 75.1545H170.811L168.253 71.1551H166.934V75.1545H165.202L165.189 62.1406Z" fill="#0A1133"/>
<path d="M174.393 65.6729H176.125V67.006H176.206C176.377 66.7323 176.589 66.4937 176.831 66.3007C177.084 66.0906 177.359 65.9176 177.65 65.7858C178.035 65.6192 178.445 65.5401 178.857 65.553C179.302 65.5238 179.747 65.599 180.165 65.7739C180.582 65.9487 180.963 66.2193 181.283 66.5687C181.913 67.3941 182.227 68.4665 182.159 69.5524V75.1952H180.427V69.7076C180.479 69.045 180.302 68.3855 179.933 67.8666C179.733 67.6631 179.499 67.5076 179.244 67.4094C178.989 67.3112 178.719 67.2724 178.451 67.2952C178.135 67.2893 177.822 67.359 177.532 67.4998C177.257 67.632 177.009 67.8237 176.8 68.0641C176.588 68.3165 176.422 68.6138 176.312 68.9387C176.196 69.3051 176.138 69.6922 176.143 70.0814V75.1952H174.411L174.393 65.6729Z" fill="#0A1133"/>
<path d="M188.345 75.3402C187.622 75.3401 186.91 75.1377 186.273 74.7513C185.636 74.3649 185.094 73.8065 184.695 73.1259C184.296 72.4454 184.053 71.6639 183.987 70.8515C183.921 70.039 184.035 69.2208 184.318 68.4701C184.532 67.8882 184.844 67.3587 185.237 66.9112C185.65 66.4549 186.139 66.0953 186.675 65.8531C187.212 65.611 187.786 65.4912 188.364 65.5005C188.956 65.4945 189.543 65.624 190.09 65.8814C191.133 66.3716 191.962 67.3071 192.397 68.4842C192.737 69.3945 192.831 70.3981 192.667 71.3685C192.502 72.3389 192.086 73.2325 191.472 73.9366C191.075 74.38 190.605 74.7321 190.09 74.9734C189.536 75.2288 188.943 75.3536 188.345 75.3402ZM188.345 73.5768C188.699 73.5804 189.05 73.5036 189.377 73.3511C189.682 73.2079 189.956 72.9941 190.183 72.7234C190.416 72.4348 190.594 72.0966 190.709 71.7288C190.843 71.3082 190.908 70.8638 190.903 70.4168C190.911 69.9778 190.85 69.5405 190.721 69.126C190.607 68.7582 190.428 68.42 190.196 68.1315C189.971 67.8564 189.696 67.6398 189.389 67.4967C188.726 67.2054 187.989 67.2054 187.326 67.4967C187.019 67.6398 186.744 67.8564 186.519 68.1315C186.287 68.42 186.108 68.7582 185.994 69.126C185.864 69.5477 185.8 69.9917 185.806 70.438C185.801 70.8842 185.865 71.3281 185.994 71.75C186.108 72.1178 186.287 72.456 186.519 72.7445C186.746 73.0152 187.021 73.2291 187.326 73.3723C187.65 73.515 187.997 73.5845 188.345 73.5768Z" fill="#0A1133"/>
<path d="M193.803 65.6766H195.616L197.017 73.358H197.267L198.668 65.6484H201.169L202.538 73.358H202.788L204.189 65.6484H206.003L204.189 75.1284H201.225L199.975 67.8774H199.806L198.555 75.1284H195.585L193.803 65.6766Z" fill="#0A1133"/>
<path d="M207.696 62.1406H209.429V73.3558H211.305V75.1262H207.678L207.696 62.1406Z" fill="#0A1133"/>
<path d="M216.557 75.3383C215.981 75.3422 215.41 75.2126 214.881 74.9574C214.373 74.712 213.91 74.3602 213.518 73.9206C213.122 73.473 212.809 72.9406 212.599 72.3547C212.165 71.1053 212.165 69.7175 212.599 68.4682C212.808 67.8835 213.121 67.3531 213.518 66.9093C213.909 66.4671 214.372 66.1129 214.881 65.8654C215.41 65.6102 215.981 65.4806 216.557 65.4845C217.131 65.4799 217.699 65.6096 218.226 65.8654C218.738 66.1112 219.203 66.4656 219.596 66.9093C219.991 67.3535 220.302 67.8839 220.509 68.4682C220.735 69.0851 220.847 69.7474 220.84 70.4149V71.0639H213.999C214.058 71.4345 214.17 71.7918 214.331 72.1219C214.478 72.4226 214.673 72.6903 214.906 72.9119C215.134 73.1267 215.395 73.294 215.675 73.4057C215.958 73.5188 216.256 73.5761 216.557 73.5749C216.931 73.5857 217.304 73.5188 217.657 73.3774C217.926 73.2742 218.177 73.1217 218.401 72.926C218.615 72.745 218.8 72.523 218.945 72.27H220.734C220.533 72.8438 220.236 73.3684 219.858 73.8148C219.683 74.0126 219.497 74.1987 219.302 74.372C219.079 74.5697 218.835 74.7355 218.576 74.8657C218.28 75.0177 217.97 75.1335 217.651 75.2114C217.291 75.2974 216.924 75.34 216.557 75.3383ZM219.027 69.4839C218.98 69.1997 218.897 68.9243 218.783 68.6657C218.661 68.3961 218.493 68.1563 218.289 67.9603C218.066 67.7475 217.815 67.576 217.545 67.4524C216.959 67.214 216.319 67.1991 215.725 67.4101C215.457 67.5087 215.206 67.6565 214.981 67.8474C214.754 68.0404 214.561 68.2797 214.412 68.5528C214.256 68.8428 214.144 69.1598 214.08 69.4909L219.027 69.4839Z" fill="#0A1133"/>
<path d="M226.282 75.3379C225.747 75.347 225.216 75.2267 224.725 74.9852C224.251 74.7564 223.825 74.4176 223.475 73.9906C223.103 73.5432 222.816 73.0152 222.631 72.4388C222.222 71.1262 222.222 69.6957 222.631 68.383C222.817 67.8075 223.105 67.2799 223.475 66.8312C223.833 66.3974 224.268 66.0532 224.752 65.8211C225.235 65.5891 225.757 65.4742 226.282 65.484C226.671 65.4775 227.057 65.5541 227.42 65.7097C227.709 65.8377 227.986 65.9984 228.246 66.1894C228.496 66.3923 228.723 66.6292 228.921 66.8947H229.003V62.1406H230.741V75.1545H229.009V73.9483H228.927C228.732 74.2167 228.504 74.454 228.252 74.6537C227.993 74.8448 227.716 75.0033 227.427 75.1262C227.06 75.2743 226.672 75.346 226.282 75.3379ZM226.614 73.5745C226.935 73.587 227.255 73.521 227.552 73.381C227.849 73.241 228.116 73.0303 228.333 72.7633C228.769 72.0772 229.003 71.2546 229.003 70.4109C229.003 69.5672 228.769 68.7447 228.333 68.0586C228.114 67.794 227.847 67.5853 227.551 67.4466C227.254 67.3079 226.935 67.2424 226.614 67.2545C226.28 67.2374 225.947 67.3003 225.637 67.4389C225.327 67.5775 225.046 67.7887 224.813 68.0586C224.374 68.743 224.138 69.5662 224.138 70.4109C224.138 71.2557 224.374 72.0789 224.813 72.7633C225.044 73.0356 225.325 73.2488 225.636 73.3887C225.946 73.5286 226.28 73.5919 226.614 73.5745Z" fill="#0A1133"/>
<path d="M233.921 76.9188H239.362V73.9492H239.28C239.084 74.2177 238.857 74.4549 238.605 74.6546C238.347 74.8486 238.07 75.0072 237.779 75.1272C237.415 75.2756 237.029 75.3473 236.641 75.3388C236.106 75.346 235.576 75.2258 235.084 74.9861C234.611 74.755 234.186 74.4165 233.834 73.9916C233.464 73.5437 233.179 73.0158 232.996 72.4398C232.587 71.1271 232.587 69.6966 232.996 68.384C233.181 67.8088 233.465 67.2812 233.834 66.8322C234.192 66.3983 234.627 66.0542 235.111 65.8221C235.594 65.59 236.116 65.4751 236.641 65.485C237.03 65.4772 237.416 65.5539 237.779 65.7107C238.069 65.8357 238.346 65.9965 238.605 66.1903C238.857 66.3902 239.084 66.6275 239.28 66.8957H239.362V65.6684H241.094V78.6822H233.921V76.9188ZM236.973 73.5754C237.294 73.5884 237.615 73.5227 237.912 73.3826C238.208 73.2426 238.475 73.0316 238.692 72.7642C239.128 72.0782 239.362 71.2556 239.362 70.4119C239.362 69.5682 239.128 68.7456 238.692 68.0595C238.474 67.7942 238.207 67.585 237.91 67.4463C237.614 67.3075 237.294 67.2424 236.973 67.2554C236.64 67.2389 236.308 67.3021 235.999 67.4407C235.69 67.5793 235.41 67.7902 235.178 68.0595C234.739 68.7439 234.503 69.5671 234.503 70.4119C234.503 71.2566 234.739 72.0798 235.178 72.7642C235.411 73.0387 235.693 73.2533 236.006 73.3933C236.319 73.5333 236.655 73.5954 236.992 73.5754H236.973Z" fill="#0A1133"/>
<path d="M247.311 75.3382C246.735 75.3421 246.164 75.2125 245.635 74.9573C245.126 74.712 244.664 74.3601 244.272 73.9205C243.878 73.471 243.566 72.9391 243.352 72.3546C242.919 71.1052 242.919 69.7174 243.352 68.4681C243.564 67.8848 243.877 67.3549 244.272 66.9092C244.663 66.467 245.126 66.1128 245.635 65.8653C246.165 65.6139 246.735 65.4844 247.311 65.4844C247.886 65.4844 248.456 65.6139 248.986 65.8653C249.495 66.1128 249.958 66.467 250.35 66.9092C250.745 67.3549 251.057 67.8848 251.269 68.4681C251.489 69.0867 251.6 69.7481 251.594 70.4148V71.0638H244.759C244.816 71.434 244.926 71.7913 245.085 72.1218C245.232 72.4225 245.427 72.6902 245.66 72.9118C245.888 73.1266 246.149 73.2939 246.429 73.4056C246.712 73.5187 247.01 73.576 247.311 73.5748C247.687 73.5857 248.062 73.5187 248.417 73.3773C248.683 73.2726 248.932 73.1201 249.155 72.9259C249.369 72.7449 249.553 72.5229 249.699 72.2699H251.513C251.312 72.8437 251.015 73.3683 250.637 73.8147C250.462 74.0125 250.276 74.1986 250.081 74.3719C249.858 74.5696 249.614 74.7354 249.355 74.8656C249.059 75.0176 248.748 75.1335 248.43 75.2113C248.062 75.2993 247.687 75.3419 247.311 75.3382ZM249.781 69.4838C249.733 69.1996 249.651 68.9242 249.537 68.6656C249.417 68.3945 249.249 68.1543 249.043 67.9602C248.82 67.7474 248.569 67.576 248.299 67.4523C247.713 67.2139 247.073 67.199 246.479 67.41C246.211 67.5086 245.96 67.6564 245.735 67.8473C245.508 68.0403 245.315 68.2796 245.166 68.5527C245.01 68.8415 244.9 69.1591 244.841 69.4908L249.781 69.4838Z" fill="#0A1133"/>
<path d="M130.435 16.9907C129.364 15.7038 128.041 14.7181 126.571 14.1129C124.968 13.4584 123.273 13.1335 121.568 13.1536C119.981 13.1051 118.4 13.3996 116.91 14.0212C115.795 14.5031 114.743 15.1532 113.783 15.9538C112.862 16.7953 112.057 17.7866 111.395 18.8952H111.27V13.8519H104.816V48.4144H111.251V30.0187C111.228 28.5559 111.439 27.1006 111.876 25.723C112.278 24.5067 112.893 23.3937 113.683 22.4502C114.458 21.5443 115.388 20.8245 116.416 20.3341C117.491 19.8263 118.646 19.5718 119.811 19.5864C120.811 19.5296 121.81 19.696 122.752 20.0761C123.694 20.4562 124.561 21.0425 125.302 21.8013C126.665 23.2778 127.348 25.5608 127.353 28.6503V48.4003H133.818V27.8532C133.852 25.7273 133.551 23.6114 132.93 21.6038C132.38 19.8921 131.529 18.3232 130.429 16.9907" fill="#0A1133"/>
<path d="M164.264 35.8604C163.806 37.1914 163.132 38.414 162.275 39.4647C161.444 40.4744 160.428 41.2686 159.299 41.7924C158.109 42.3459 156.833 42.6218 155.547 42.6036C154.293 42.6175 153.05 42.3414 151.895 41.7924C150.779 41.2623 149.777 40.4686 148.956 39.4647C148.098 38.4199 147.431 37.1953 146.992 35.8604C146.059 32.7954 146.059 29.4665 146.992 26.4015C147.433 25.0653 148.1 23.8386 148.956 22.7901C149.795 21.766 150.815 20.9518 151.95 20.4002C153.085 19.8486 154.311 19.5718 155.547 19.5878C156.835 19.5719 158.113 19.8577 159.299 20.4271C160.418 20.9714 161.43 21.7628 162.275 22.7548C163.14 23.8038 163.815 25.0329 164.264 26.3733C164.769 27.8925 165.019 29.5048 165.001 31.1274C165.022 32.7434 164.771 34.3492 164.264 35.8604ZM177.745 7.20875V0H165.001V19.1011H164.82C164.16 17.9584 163.341 16.9437 162.394 16.0963C161.38 15.28 160.279 14.6116 159.117 14.1071C157.592 13.4449 155.967 13.1262 154.334 13.169C152.398 13.1545 150.481 13.5966 148.706 14.4669C146.951 15.3279 145.366 16.5775 144.047 18.1418C142.669 19.7802 141.595 21.7132 140.889 23.827C140.118 26.1298 139.732 28.5741 139.751 31.0357C139.724 33.5457 140.108 36.0397 140.883 38.3926C141.584 40.4964 142.659 42.4165 144.041 44.0354C145.37 45.5885 146.952 46.8386 148.7 47.7174C150.471 48.6034 152.389 49.0554 154.327 49.0435C157.214 49.1139 160.043 48.1237 162.388 46.2221C163.335 45.3746 164.154 44.3599 164.814 43.2172H164.995V48.3311H177.739V41.1364H171.373V7.20875H177.745Z" fill="#0A1133"/>
<path d="M44.8825 22.7912C45.7313 21.8029 46.7422 21.0099 47.859 20.4565C49.1115 19.8754 50.4562 19.59 51.8102 19.6179C53.1643 19.6458 54.4989 19.9864 55.7317 20.6187C56.7099 21.1796 57.6011 21.9157 58.3705 22.7983C58.8518 23.4041 59.2713 24.0689 59.6211 24.7803L64.0733 19.7511C64.0295 19.6806 63.992 19.603 63.942 19.5325C63.3334 18.7021 62.6686 17.9262 61.9535 17.2119C61.1423 16.4128 60.2477 15.7283 59.2897 15.1734C58.195 14.5619 57.0436 14.0888 55.8567 13.7627C54.4247 13.3672 52.9537 13.1799 51.4796 13.2054C49.3364 13.194 47.212 13.6565 45.2265 14.5668C43.3247 15.4306 41.596 16.7162 40.1427 18.3475C38.6945 19.9837 37.5488 21.9282 36.7723 24.0679C35.1384 28.6312 35.1384 33.7317 36.7723 38.295C37.5505 40.4338 38.6959 42.3779 40.1427 44.0154C41.596 45.6467 43.3247 46.9323 45.2265 47.7961C47.212 48.7064 49.3364 49.1689 51.4796 49.1575C52.9659 49.1778 54.4487 48.9906 55.8943 48.6002C57.1167 48.2696 58.2989 47.7722 59.4148 47.119C60.3899 46.5434 61.2974 45.8326 62.1161 45.0029C62.8198 44.2731 63.449 43.4569 63.992 42.5694L59.6149 37.6319C59.3053 38.2466 58.943 38.8254 58.5331 39.3601C57.7383 40.2793 56.8178 41.0485 55.8067 41.6384C54.4665 42.3879 52.9805 42.7445 51.4858 42.6752C50.2521 42.6861 49.0306 42.3999 47.9028 41.8359C46.7891 41.2792 45.7791 40.4893 44.9263 39.5082C44.0462 38.4723 43.35 37.2561 42.8753 35.925C42.3441 34.4226 42.0827 32.8163 42.1062 31.1991C42.0913 29.5974 42.3415 28.0066 42.844 26.5085C43.3018 25.1569 43.9877 23.9185 44.8638 22.8618" fill="#0A1133"/>
<path d="M74.8886 27.736C75.8266 23.0736 79.0782 19.5891 83.4929 19.5891C87.9075 19.5891 90.7214 23.0736 91.6594 27.736H74.8886ZM83.6429 13.1562C74.4571 13.1562 67.9727 21.021 67.9727 30.7902C67.9727 30.9101 67.9727 31.0229 67.9727 31.1358C67.9727 31.7071 67.9727 32.2644 68.0352 32.8216C68.0352 32.878 68.0352 32.9415 68.0352 33.005C68.0665 33.4141 68.1165 33.8232 68.1728 34.2253C68.1728 34.324 68.204 34.4228 68.2165 34.5145C68.3424 35.3067 68.5136 36.089 68.7293 36.8563C68.7606 36.9479 68.7856 37.0396 68.8106 37.1384C68.9294 37.5122 69.0482 37.8861 69.1858 38.2529C69.9576 40.3955 71.1039 42.3409 72.5563 43.9732C74.0088 45.6055 75.7377 46.8913 77.64 47.754C79.6255 48.6643 81.7499 49.1268 83.8931 49.1154C85.3794 49.1357 86.8622 48.9485 88.3077 48.5581C89.5302 48.2275 90.7124 47.7301 91.8282 47.0769C92.8047 46.5038 93.7124 45.7927 94.5296 44.9608C95.2314 44.2289 95.8604 43.4129 96.4055 42.5273L92.0283 37.5898C91.7195 38.2027 91.3571 38.7793 90.9466 39.3109C90.1502 40.2281 89.23 40.9971 88.2202 41.5892C86.8789 42.3353 85.3937 42.6917 83.8993 42.6261C82.6656 42.6369 81.4441 42.3508 80.3163 41.7867C79.2026 41.23 78.1926 40.4402 77.3398 39.459C76.4611 38.4246 75.765 37.211 75.2888 35.8829C75.1825 35.5937 75.0949 35.2974 75.0137 34.9941C74.9761 34.8601 74.9386 34.719 74.9073 34.5779L74.8323 34.2323C74.7573 33.8373 74.6885 33.4353 74.6385 33.0191H98.5878V30.9736C98.5878 20.3156 92.3347 13.1774 83.6429 13.1774" fill="#0A1133"/>
<path d="M21.5981 31.4621C21.5981 38.4098 16.8582 42.5855 12.5248 42.5855C9.67965 42.5855 7.43478 40.8292 7.43478 37.648C7.43478 33.1479 13.5878 30.4675 21.5981 30.4675V31.4621ZM28.0325 41.2242V13.8281H2.53235V21.0228H21.5981V24.6906C6.59061 24.6906 0.731458 29.5646 0.500093 37.8596C0.299994 44.8427 5.17116 49.1101 11.1304 49.1101C14.9698 49.1101 19.1281 47.4031 21.4292 43.3121H21.6293V48.4329H32.8099V41.2383L28.0325 41.2242Z" fill="#0A1133"/>
</g>
<defs>
<clipPath id="clip0_1722_5213">
<rect width="252" height="79" fill="white"/>
</clipPath>
</defs>
</svg>
