<svg width="119" height="104" viewBox="0 0 119 104" fill="none" xmlns="http://www.w3.org/2000/svg">
<path d="M2.125 0H0V2.13333H2.125V0Z" fill="#0A1133"/>
<path d="M9.91699 0H7.79199V2.13333H9.91699V0Z" fill="#0A1133"/>
<path d="M17.708 0H15.583V2.13333H17.708V0Z" fill="#0A1133"/>
<path d="M25.5 0H23.375V2.13333H25.5V0Z" fill="#0A1133"/>
<path d="M2.125 7.82031H0V9.95365H2.125V7.82031Z" fill="#0A1133"/>
<path d="M9.91699 7.82031H7.79199V9.95365H9.91699V7.82031Z" fill="#0A1133"/>
<path d="M17.708 7.82031H15.583V9.95365H17.708V7.82031Z" fill="#0A1133"/>
<path d="M25.5 7.82031H23.375V9.95365H25.5V7.82031Z" fill="#0A1133"/>
<path d="M2.125 15.6406H0V17.774H2.125V15.6406Z" fill="#0A1133"/>
<path d="M9.91699 15.6406H7.79199V17.774H9.91699V15.6406Z" fill="#0A1133"/>
<path d="M17.708 15.6406H15.583V17.774H17.708V15.6406Z" fill="#0A1133"/>
<path d="M25.5 15.6406H23.375V17.774H25.5V15.6406Z" fill="#0A1133"/>
<path d="M2.125 23.4688H0V25.6021H2.125V23.4688Z" fill="#0A1133"/>
<path d="M9.91699 23.4688H7.79199V25.6021H9.91699V23.4688Z" fill="#0A1133"/>
<path d="M17.708 23.4688H15.583V25.6021H17.708V23.4688Z" fill="#0A1133"/>
<path d="M25.5 23.4688H23.375V25.6021H25.5V23.4688Z" fill="#0A1133"/>
<path d="M2.125 31.2889H0V33.4222H2.125V31.2889Z" fill="#0A1133"/>
<path d="M9.91699 31.2891H7.79199V33.4224H9.91699V31.2891Z" fill="#0A1133"/>
<path d="M17.708 31.2891H15.583V33.4224H17.708V31.2891Z" fill="#0A1133"/>
<path d="M25.5 31.2889H23.375V33.4222H25.5V31.2889Z" fill="#0A1133"/>
<path d="M2.125 39.1094H0V41.2427H2.125V39.1094Z" fill="#0A1133"/>
<path d="M9.91699 39.1094H7.79199V41.2427H9.91699V39.1094Z" fill="#0A1133"/>
<path d="M17.708 39.1094H15.583V41.2427H17.708V39.1094Z" fill="#0A1133"/>
<path d="M25.5 39.1094H23.375V41.2427H25.5V39.1094Z" fill="#0A1133"/>
<path d="M2.125 46.9297H0V49.063H2.125V46.9297Z" fill="#0A1133"/>
<path d="M9.91699 46.9297H7.79199V49.063H9.91699V46.9297Z" fill="#0A1133"/>
<path d="M17.708 46.9297H15.583V49.063H17.708V46.9297Z" fill="#0A1133"/>
<path d="M25.5 46.9297H23.375V49.063H25.5V46.9297Z" fill="#0A1133"/>
<path d="M33.2917 0H31.1667V2.13333H33.2917V0Z" fill="#0A1133"/>
<path d="M41.0829 0H38.9579V2.13333H41.0829V0Z" fill="#0A1133"/>
<path d="M48.875 0H46.75V2.13333H48.875V0Z" fill="#0A1133"/>
<path d="M56.6667 0H54.5417V2.13333H56.6667V0Z" fill="#0A1133"/>
<path d="M33.2918 7.82031H31.1668V9.95365H33.2918V7.82031Z" fill="#0A1133"/>
<path d="M41.0829 7.82031H38.9579V9.95365H41.0829V7.82031Z" fill="#0A1133"/>
<path d="M48.8748 7.82031H46.7498V9.95365H48.8748V7.82031Z" fill="#0A1133"/>
<path d="M56.6668 7.82031H54.5418V9.95365H56.6668V7.82031Z" fill="#0A1133"/>
<path d="M33.2918 15.6406H31.1668V17.774H33.2918V15.6406Z" fill="#0A1133"/>
<path d="M41.0829 15.6406H38.9579V17.774H41.0829V15.6406Z" fill="#0A1133"/>
<path d="M48.8748 15.6406H46.7498V17.774H48.8748V15.6406Z" fill="#0A1133"/>
<path d="M56.6668 15.6406H54.5418V17.774H56.6668V15.6406Z" fill="#0A1133"/>
<path d="M33.2918 23.4688H31.1668V25.6021H33.2918V23.4688Z" fill="#0A1133"/>
<path d="M41.0829 23.4688H38.9579V25.6021H41.0829V23.4688Z" fill="#0A1133"/>
<path d="M48.8748 23.4688H46.7498V25.6021H48.8748V23.4688Z" fill="#0A1133"/>
<path d="M56.6668 23.4688H54.5418V25.6021H56.6668V23.4688Z" fill="#0A1133"/>
<path d="M33.2917 31.2889H31.1667V33.4222H33.2917V31.2889Z" fill="#0A1133"/>
<path d="M41.0829 31.2891H38.9579V33.4224H41.0829V31.2891Z" fill="#0A1133"/>
<path d="M48.875 31.2889H46.75V33.4222H48.875V31.2889Z" fill="#0A1133"/>
<path d="M56.6667 31.2889H54.5417V33.4222H56.6667V31.2889Z" fill="#0A1133"/>
<path d="M33.2918 39.1094H31.1668V41.2427H33.2918V39.1094Z" fill="#0A1133"/>
<path d="M41.0829 39.1094H38.9579V41.2427H41.0829V39.1094Z" fill="#0A1133"/>
<path d="M48.8748 39.1094H46.7498V41.2427H48.8748V39.1094Z" fill="#0A1133"/>
<path d="M56.6668 39.1094H54.5418V41.2427H56.6668V39.1094Z" fill="#0A1133"/>
<path d="M33.2918 46.9297H31.1668V49.063H33.2918V46.9297Z" fill="#0A1133"/>
<path d="M41.0829 46.9297H38.9579V49.063H41.0829V46.9297Z" fill="#0A1133"/>
<path d="M48.8748 46.9297H46.7498V49.063H48.8748V46.9297Z" fill="#0A1133"/>
<path d="M56.6668 46.9297H54.5418V49.063H56.6668V46.9297Z" fill="#0A1133"/>
<path d="M2.125 54.7578H0V56.8911H2.125V54.7578Z" fill="#0A1133"/>
<path d="M9.91699 54.7578H7.79199V56.8911H9.91699V54.7578Z" fill="#0A1133"/>
<path d="M17.708 54.7578H15.583V56.8911H17.708V54.7578Z" fill="#0A1133"/>
<path d="M25.5 54.7578H23.375V56.8911H25.5V54.7578Z" fill="#0A1133"/>
<path d="M2.125 62.5781H0V64.7115H2.125V62.5781Z" fill="#0A1133"/>
<path d="M9.91699 62.5781H7.79199V64.7115H9.91699V62.5781Z" fill="#0A1133"/>
<path d="M17.708 62.5781H15.583V64.7115H17.708V62.5781Z" fill="#0A1133"/>
<path d="M25.5 62.5781H23.375V64.7115H25.5V62.5781Z" fill="#0A1133"/>
<path d="M2.125 70.3984H0V72.5318H2.125V70.3984Z" fill="#0A1133"/>
<path d="M9.91699 70.3984H7.79199V72.5318H9.91699V70.3984Z" fill="#0A1133"/>
<path d="M17.708 70.3984H15.583V72.5318H17.708V70.3984Z" fill="#0A1133"/>
<path d="M25.5 70.3984H23.375V72.5318H25.5V70.3984Z" fill="#0A1133"/>
<path d="M2.125 78.2188H0V80.3521H2.125V78.2188Z" fill="#0A1133"/>
<path d="M9.91699 78.2188H7.79199V80.3521H9.91699V78.2188Z" fill="#0A1133"/>
<path d="M17.708 78.2188H15.583V80.3521H17.708V78.2188Z" fill="#0A1133"/>
<path d="M25.5 78.2188H23.375V80.3521H25.5V78.2188Z" fill="#0A1133"/>
<path d="M2.125 86.0469H0V88.1802H2.125V86.0469Z" fill="#0A1133"/>
<path d="M9.91699 86.0469H7.79199V88.1802H9.91699V86.0469Z" fill="#0A1133"/>
<path d="M17.708 86.0469H15.583V88.1802H17.708V86.0469Z" fill="#0A1133"/>
<path d="M25.5 86.0469H23.375V88.1802H25.5V86.0469Z" fill="#0A1133"/>
<path d="M2.125 93.8672H0V96.0005H2.125V93.8672Z" fill="#0A1133"/>
<path d="M9.91699 93.8672H7.79199V96.0005H9.91699V93.8672Z" fill="#0A1133"/>
<path d="M17.708 93.8672H15.583V96.0005H17.708V93.8672Z" fill="#0A1133"/>
<path d="M25.5 93.8672H23.375V96.0005H25.5V93.8672Z" fill="#0A1133"/>
<path d="M2.125 101.688H0V103.821H2.125V101.688Z" fill="#0A1133"/>
<path d="M9.91699 101.688H7.79199V103.821H9.91699V101.688Z" fill="#0A1133"/>
<path d="M17.708 101.688H15.583V103.821H17.708V101.688Z" fill="#0A1133"/>
<path d="M25.5 101.688H23.375V103.821H25.5V101.688Z" fill="#0A1133"/>
<path d="M33.2918 54.7578H31.1668V56.8911H33.2918V54.7578Z" fill="#0A1133"/>
<path d="M41.0829 54.7578H38.9579V56.8911H41.0829V54.7578Z" fill="#0A1133"/>
<path d="M48.8748 54.7578H46.7498V56.8911H48.8748V54.7578Z" fill="#0A1133"/>
<path d="M56.6668 54.7578H54.5418V56.8911H56.6668V54.7578Z" fill="#0A1133"/>
<path d="M33.2918 62.5781H31.1668V64.7115H33.2918V62.5781Z" fill="#0A1133"/>
<path d="M41.0829 62.5781H38.9579V64.7115H41.0829V62.5781Z" fill="#0A1133"/>
<path d="M48.8748 62.5781H46.7498V64.7115H48.8748V62.5781Z" fill="#0A1133"/>
<path d="M56.6668 62.5781H54.5418V64.7115H56.6668V62.5781Z" fill="#0A1133"/>
<path d="M33.2918 70.3984H31.1668V72.5318H33.2918V70.3984Z" fill="#0A1133"/>
<path d="M41.0829 70.3984H38.9579V72.5318H41.0829V70.3984Z" fill="#0A1133"/>
<path d="M48.8748 70.3984H46.7498V72.5318H48.8748V70.3984Z" fill="#0A1133"/>
<path d="M56.6668 70.3984H54.5418V72.5318H56.6668V70.3984Z" fill="#0A1133"/>
<path d="M33.2918 78.2188H31.1668V80.3521H33.2918V78.2188Z" fill="#0A1133"/>
<path d="M41.0829 78.2188H38.9579V80.3521H41.0829V78.2188Z" fill="#0A1133"/>
<path d="M48.8748 78.2188H46.7498V80.3521H48.8748V78.2188Z" fill="#0A1133"/>
<path d="M56.6668 78.2188H54.5418V80.3521H56.6668V78.2188Z" fill="#0A1133"/>
<path d="M33.2918 86.0469H31.1668V88.1802H33.2918V86.0469Z" fill="#0A1133"/>
<path d="M41.0829 86.0469H38.9579V88.1802H41.0829V86.0469Z" fill="#0A1133"/>
<path d="M48.8748 86.0469H46.7498V88.1802H48.8748V86.0469Z" fill="#0A1133"/>
<path d="M56.6668 86.0469H54.5418V88.1802H56.6668V86.0469Z" fill="#0A1133"/>
<path d="M33.2918 93.8672H31.1668V96.0005H33.2918V93.8672Z" fill="#0A1133"/>
<path d="M41.0829 93.8672H38.9579V96.0005H41.0829V93.8672Z" fill="#0A1133"/>
<path d="M48.8748 93.8672H46.7498V96.0005H48.8748V93.8672Z" fill="#0A1133"/>
<path d="M56.6668 93.8672H54.5418V96.0005H56.6668V93.8672Z" fill="#0A1133"/>
<path d="M33.2918 101.688H31.1668V103.821H33.2918V101.688Z" fill="#0A1133"/>
<path d="M41.0829 101.688H38.9579V103.821H41.0829V101.688Z" fill="#0A1133"/>
<path d="M48.8748 101.688H46.7498V103.821H48.8748V101.688Z" fill="#0A1133"/>
<path d="M56.6668 101.688H54.5418V103.821H56.6668V101.688Z" fill="#0A1133"/>
<path d="M64.459 0H62.334V2.13333H64.459V0Z" fill="#0A1133"/>
<path d="M72.25 0H70.125V2.13333H72.25V0Z" fill="#0A1133"/>
<path d="M80.042 0H77.917V2.13333H80.042V0Z" fill="#0A1133"/>
<path d="M87.834 0H85.709V2.13333H87.834V0Z" fill="#0A1133"/>
<path d="M64.459 7.82031H62.334V9.95365H64.459V7.82031Z" fill="#0A1133"/>
<path d="M72.25 7.82031H70.125V9.95365H72.25V7.82031Z" fill="#0A1133"/>
<path d="M80.042 7.82031H77.917V9.95365H80.042V7.82031Z" fill="#0A1133"/>
<path d="M87.834 7.82031H85.709V9.95365H87.834V7.82031Z" fill="#0A1133"/>
<path d="M64.459 15.6406H62.334V17.774H64.459V15.6406Z" fill="#0A1133"/>
<path d="M72.25 15.6406H70.125V17.774H72.25V15.6406Z" fill="#0A1133"/>
<path d="M80.042 15.6406H77.917V17.774H80.042V15.6406Z" fill="#0A1133"/>
<path d="M87.834 15.6406H85.709V17.774H87.834V15.6406Z" fill="#0A1133"/>
<path d="M64.459 23.4688H62.334V25.6021H64.459V23.4688Z" fill="#0A1133"/>
<path d="M72.25 23.4688H70.125V25.6021H72.25V23.4688Z" fill="#0A1133"/>
<path d="M80.042 23.4688H77.917V25.6021H80.042V23.4688Z" fill="#0A1133"/>
<path d="M87.834 23.4688H85.709V25.6021H87.834V23.4688Z" fill="#0A1133"/>
<path d="M64.459 31.2891H62.334V33.4224H64.459V31.2891Z" fill="#0A1133"/>
<path d="M72.25 31.2891H70.125V33.4224H72.25V31.2891Z" fill="#0A1133"/>
<path d="M80.042 31.2889H77.917V33.4222H80.042V31.2889Z" fill="#0A1133"/>
<path d="M87.834 31.2891H85.709V33.4224H87.834V31.2891Z" fill="#0A1133"/>
<path d="M64.459 39.1094H62.334V41.2427H64.459V39.1094Z" fill="#0A1133"/>
<path d="M72.25 39.1094H70.125V41.2427H72.25V39.1094Z" fill="#0A1133"/>
<path d="M80.042 39.1094H77.917V41.2427H80.042V39.1094Z" fill="#0A1133"/>
<path d="M87.834 39.1094H85.709V41.2427H87.834V39.1094Z" fill="#0A1133"/>
<path d="M64.459 46.9297H62.334V49.063H64.459V46.9297Z" fill="#0A1133"/>
<path d="M72.25 46.9297H70.125V49.063H72.25V46.9297Z" fill="#0A1133"/>
<path d="M80.042 46.9297H77.917V49.063H80.042V46.9297Z" fill="#0A1133"/>
<path d="M87.834 46.9297H85.709V49.063H87.834V46.9297Z" fill="#0A1133"/>
<path d="M64.459 54.7578H62.334V56.8911H64.459V54.7578Z" fill="#0A1133"/>
<path d="M72.25 54.7578H70.125V56.8911H72.25V54.7578Z" fill="#0A1133"/>
<path d="M80.042 54.7578H77.917V56.8911H80.042V54.7578Z" fill="#0A1133"/>
<path d="M87.834 54.7578H85.709V56.8911H87.834V54.7578Z" fill="#0A1133"/>
<path d="M64.459 62.5781H62.334V64.7115H64.459V62.5781Z" fill="#0A1133"/>
<path d="M72.25 62.5781H70.125V64.7115H72.25V62.5781Z" fill="#0A1133"/>
<path d="M80.042 62.5781H77.917V64.7115H80.042V62.5781Z" fill="#0A1133"/>
<path d="M87.834 62.5781H85.709V64.7115H87.834V62.5781Z" fill="#0A1133"/>
<path d="M64.459 70.3984H62.334V72.5318H64.459V70.3984Z" fill="#0A1133"/>
<path d="M72.25 70.3984H70.125V72.5318H72.25V70.3984Z" fill="#0A1133"/>
<path d="M80.042 70.3984H77.917V72.5318H80.042V70.3984Z" fill="#0A1133"/>
<path d="M87.834 70.3984H85.709V72.5318H87.834V70.3984Z" fill="#0A1133"/>
<path d="M64.459 78.2188H62.334V80.3521H64.459V78.2188Z" fill="#0A1133"/>
<path d="M72.25 78.2188H70.125V80.3521H72.25V78.2188Z" fill="#0A1133"/>
<path d="M80.042 78.2188H77.917V80.3521H80.042V78.2188Z" fill="#0A1133"/>
<path d="M87.834 78.2188H85.709V80.3521H87.834V78.2188Z" fill="#0A1133"/>
<path d="M64.459 86.0469H62.334V88.1802H64.459V86.0469Z" fill="#0A1133"/>
<path d="M72.25 86.0469H70.125V88.1802H72.25V86.0469Z" fill="#0A1133"/>
<path d="M80.042 86.0469H77.917V88.1802H80.042V86.0469Z" fill="#0A1133"/>
<path d="M87.834 86.0469H85.709V88.1802H87.834V86.0469Z" fill="#0A1133"/>
<path d="M64.459 93.8672H62.334V96.0005H64.459V93.8672Z" fill="#0A1133"/>
<path d="M72.25 93.8672H70.125V96.0005H72.25V93.8672Z" fill="#0A1133"/>
<path d="M80.042 93.8672H77.917V96.0005H80.042V93.8672Z" fill="#0A1133"/>
<path d="M87.834 93.8672H85.709V96.0005H87.834V93.8672Z" fill="#0A1133"/>
<path d="M64.459 101.688H62.334V103.821H64.459V101.688Z" fill="#0A1133"/>
<path d="M72.25 101.688H70.125V103.821H72.25V101.688Z" fill="#0A1133"/>
<path d="M80.042 101.688H77.917V103.821H80.042V101.688Z" fill="#0A1133"/>
<path d="M87.834 101.688H85.709V103.821H87.834V101.688Z" fill="#0A1133"/>
<path d="M95.625 0H93.5V2.13333H95.625V0Z" fill="#0A1133"/>
<path d="M103.417 0H101.292V2.13333H103.417V0Z" fill="#0A1133"/>
<path d="M111.209 0H109.084V2.13333H111.209V0Z" fill="#0A1133"/>
<path d="M119 0H116.875V2.13333H119V0Z" fill="#0A1133"/>
<path d="M95.625 7.82031H93.5V9.95365H95.625V7.82031Z" fill="#0A1133"/>
<path d="M103.417 7.82031H101.292V9.95365H103.417V7.82031Z" fill="#0A1133"/>
<path d="M111.209 7.82031H109.084V9.95365H111.209V7.82031Z" fill="#0A1133"/>
<path d="M119 7.82031H116.875V9.95365H119V7.82031Z" fill="#0A1133"/>
<path d="M95.625 15.6406H93.5V17.774H95.625V15.6406Z" fill="#0A1133"/>
<path d="M103.417 15.6406H101.292V17.774H103.417V15.6406Z" fill="#0A1133"/>
<path d="M111.209 15.6406H109.084V17.774H111.209V15.6406Z" fill="#0A1133"/>
<path d="M119 15.6406H116.875V17.774H119V15.6406Z" fill="#0A1133"/>
<path d="M95.625 23.4688H93.5V25.6021H95.625V23.4688Z" fill="#0A1133"/>
<path d="M103.417 23.4688H101.292V25.6021H103.417V23.4688Z" fill="#0A1133"/>
<path d="M111.209 23.4688H109.084V25.6021H111.209V23.4688Z" fill="#0A1133"/>
<path d="M119 23.4688H116.875V25.6021H119V23.4688Z" fill="#0A1133"/>
<path d="M95.625 31.2891H93.5V33.4224H95.625V31.2891Z" fill="#0A1133"/>
<path d="M103.417 31.2889H101.292V33.4222H103.417V31.2889Z" fill="#0A1133"/>
<path d="M111.209 31.2889H109.084V33.4222H111.209V31.2889Z" fill="#0A1133"/>
<path d="M119 31.2891H116.875V33.4224H119V31.2891Z" fill="#0A1133"/>
<path d="M95.625 39.1094H93.5V41.2427H95.625V39.1094Z" fill="#0A1133"/>
<path d="M103.417 39.1094H101.292V41.2427H103.417V39.1094Z" fill="#0A1133"/>
<path d="M111.209 39.1094H109.084V41.2427H111.209V39.1094Z" fill="#0A1133"/>
<path d="M119 39.1094H116.875V41.2427H119V39.1094Z" fill="#0A1133"/>
<path d="M95.625 46.9297H93.5V49.063H95.625V46.9297Z" fill="#0A1133"/>
<path d="M103.417 46.9297H101.292V49.063H103.417V46.9297Z" fill="#0A1133"/>
<path d="M111.209 46.9297H109.084V49.063H111.209V46.9297Z" fill="#0A1133"/>
<path d="M119 46.9297H116.875V49.063H119V46.9297Z" fill="#0A1133"/>
<path d="M95.625 54.7578H93.5V56.8911H95.625V54.7578Z" fill="#0A1133"/>
<path d="M103.417 54.7578H101.292V56.8911H103.417V54.7578Z" fill="#0A1133"/>
<path d="M111.209 54.7578H109.084V56.8911H111.209V54.7578Z" fill="#0A1133"/>
<path d="M119 54.7578H116.875V56.8911H119V54.7578Z" fill="#0A1133"/>
<path d="M95.625 62.5781H93.5V64.7115H95.625V62.5781Z" fill="#0A1133"/>
<path d="M103.417 62.5781H101.292V64.7115H103.417V62.5781Z" fill="#0A1133"/>
<path d="M111.209 62.5781H109.084V64.7115H111.209V62.5781Z" fill="#0A1133"/>
<path d="M119 62.5781H116.875V64.7115H119V62.5781Z" fill="#0A1133"/>
<path d="M95.625 70.3984H93.5V72.5318H95.625V70.3984Z" fill="#0A1133"/>
<path d="M103.417 70.3984H101.292V72.5318H103.417V70.3984Z" fill="#0A1133"/>
<path d="M111.209 70.3984H109.084V72.5318H111.209V70.3984Z" fill="#0A1133"/>
<path d="M119 70.3984H116.875V72.5318H119V70.3984Z" fill="#0A1133"/>
<path d="M95.625 78.2188H93.5V80.3521H95.625V78.2188Z" fill="#0A1133"/>
<path d="M103.417 78.2188H101.292V80.3521H103.417V78.2188Z" fill="#0A1133"/>
<path d="M111.209 78.2188H109.084V80.3521H111.209V78.2188Z" fill="#0A1133"/>
<path d="M119 78.2188H116.875V80.3521H119V78.2188Z" fill="#0A1133"/>
<path d="M95.625 86.0469H93.5V88.1802H95.625V86.0469Z" fill="#0A1133"/>
<path d="M103.417 86.0469H101.292V88.1802H103.417V86.0469Z" fill="#0A1133"/>
<path d="M111.209 86.0469H109.084V88.1802H111.209V86.0469Z" fill="#0A1133"/>
<path d="M119 86.0469H116.875V88.1802H119V86.0469Z" fill="#0A1133"/>
<path d="M95.625 93.8672H93.5V96.0005H95.625V93.8672Z" fill="#0A1133"/>
<path d="M103.417 93.8672H101.292V96.0005H103.417V93.8672Z" fill="#0A1133"/>
<path d="M111.209 93.8672H109.084V96.0005H111.209V93.8672Z" fill="#0A1133"/>
<path d="M119 93.8672H116.875V96.0005H119V93.8672Z" fill="#0A1133"/>
<path d="M95.625 101.688H93.5V103.821H95.625V101.688Z" fill="#0A1133"/>
<path d="M103.417 101.688H101.292V103.821H103.417V101.688Z" fill="#0A1133"/>
<path d="M111.209 101.688H109.084V103.821H111.209V101.688Z" fill="#0A1133"/>
<path d="M119 101.688H116.875V103.821H119V101.688Z" fill="#0A1133"/>
</svg>
