<svg width="30" height="30" viewBox="0 0 30 30" fill="none" xmlns="http://www.w3.org/2000/svg">
<g clip-path="url(#clip0_547_27171)">
<path fill-rule="evenodd" clip-rule="evenodd" d="M5.625 0H3.75V1.875H1.875V3.75H0V5.625V7.5V9.375V11.25V13.125V15V16.875V18.75V20.625V22.5V24.375V26.25H1.875V24.375V22.5V20.625V18.75V16.875V15V13.125V11.25V9.375V7.5V5.625V3.75H3.75V1.875H5.625H7.5H9.375H11.25H13.125H15H16.875H18.75H20.625H22.5H24.375H26.25V0H24.375H22.5H20.625H18.75H16.875H15H13.125H11.25H9.375H7.5H5.625Z" fill="#2B3255"/>
<path fill-rule="evenodd" clip-rule="evenodd" d="M18.75 7.5H20.625H22.5H24.375H26.25V9.375V11.25H24.375H22.5H20.625V13.125V15H22.5H24.375H26.25V16.875H24.375V18.75H22.5H20.625V20.625V22.5V24.375V26.25V28.125H18.75H16.875V26.25V24.375V22.5V20.625V18.75H15H13.125V16.875V15H15H16.875V13.125V11.25V9.375H18.75V7.5Z" fill="white"/>
<path fill-rule="evenodd" clip-rule="evenodd" d="M5.625 1.875H3.75V3.75H1.875V5.625V7.5V9.375V11.25V13.125V15V16.875V18.75V20.625V22.5V24.375V26.25H3.75V28.125H5.625H7.5H9.375H11.25H13.125H15H16.875V26.25V24.375V22.5V20.625V18.75H15H13.125V16.875V15H15H16.875V13.125V11.25V9.375H18.75V7.5H20.625H22.5H24.375H26.25V9.375V11.25H24.375H22.5H20.625V13.125V15H22.5H24.375H26.25V16.875H24.375V18.75H22.5H20.625V20.625V22.5V24.375V26.25V28.125H22.5H24.375H26.25V26.25H28.125V24.375V22.5V20.625V18.75V16.875V15V13.125V11.25V9.375V7.5V5.625V3.75V1.875H26.25H24.375H22.5H20.625H18.75H16.875H15H13.125H11.25H9.375H7.5H5.625Z" fill="currentColor"/>
<path fill-rule="evenodd" clip-rule="evenodd" d="M16.875 28.125H18.75H20.625V30H18.75H16.875V28.125Z" fill="#D1D1D1"/>
<path fill-rule="evenodd" clip-rule="evenodd" d="M28.125 3.75H30V5.625V7.5V9.375V11.25V13.125V15V16.875V18.75V20.625V22.5V24.375V26.25H28.125V24.375V22.5V20.625V18.75V16.875V15V13.125V11.25V9.375V7.5V5.625V3.75ZM26.25 28.125H28.125V26.25H26.25V28.125ZM24.375 30H26.25V28.125H24.375H22.5H20.625V30H22.5H24.375ZM3.75 26.25H1.875V28.125H3.75V30H5.625H7.5H9.375H11.25H13.125H15H16.875V28.125H15H13.125H11.25H9.375H7.5H5.625H3.75V26.25Z" fill="currentColor"/>
</g>
<defs>
<clipPath id="clip0_547_27171">
<rect width="30" height="30" fill="white"/>
</clipPath>
</defs>
</svg>
