<svg width="30" height="30" viewBox="0 0 30 30" fill="none" xmlns="http://www.w3.org/2000/svg">
<g clip-path="url(#clip0_547_26926)">
<path d="M28.125 1.875H26.25V3.75H28.125V1.875Z" fill="currentColor"/>
<path fill-rule="evenodd" clip-rule="evenodd" d="M5.625 5.625H7.5H9.375V7.5V9.375H7.5H5.625V7.5V5.625ZM7.5 11.25H5.625V13.125V15V16.875V18.75V20.625V22.5V24.375H7.5H9.375V22.5V20.625V18.75V16.875V15V13.125V11.25H7.5ZM15 11.25H13.125V13.125V15V16.875V18.75V20.625V22.5V24.375H15H16.875V22.5V20.625V18.75V16.875V15H18.75H20.625V16.875V18.75V20.625V22.5V24.375H22.5H24.375V22.5V20.625V18.75V16.875V15V13.125H22.5V11.25H20.625H18.75V13.125H16.875V11.25H15Z" fill="white"/>
<path fill-rule="evenodd" clip-rule="evenodd" d="M5.625 0H3.75V1.875H1.875V3.75H0V5.625V7.5V9.375V11.25V13.125V15V16.875V18.75V20.625V22.5V24.375V26.25H1.875V24.375V22.5V20.625V18.75V16.875V15V13.125V11.25V9.375V7.5V5.625V3.75H3.75V1.875H5.625H7.5H9.375H11.25H13.125H15H16.875H18.75H20.625H22.5H24.375H26.25V0H24.375H22.5H20.625H18.75H16.875H15H13.125H11.25H9.375H7.5H5.625Z" fill="#2B3255"/>
<path fill-rule="evenodd" clip-rule="evenodd" d="M5.625 1.875H3.75V3.75H1.875V5.625V7.5V9.375V11.25V13.125V15V16.875V18.75V20.625V22.5V24.375V26.25V28.125H3.75H5.625H7.5H9.375H11.25H13.125H15H16.875H18.75H20.625H22.5H24.375H26.25V26.25H28.125V24.375V22.5V20.625V18.75V16.875V15V13.125V11.25V9.375V7.5V5.625V3.75H26.25V1.875H24.375H22.5H20.625H18.75H16.875H15H13.125H11.25H9.375H7.5H5.625ZM24.375 22.5V24.375H22.5H20.625V22.5V20.625V18.75V16.875V15H18.75H16.875V16.875V18.75V20.625V22.5V24.375H15H13.125V22.5V20.625V18.75V16.875V15V13.125V11.25H15H16.875V13.125H18.75V11.25H20.625H22.5V13.125H24.375V15V16.875V18.75V20.625V22.5ZM9.375 22.5V24.375H7.5H5.625V22.5V20.625V18.75V16.875V15V13.125V11.25H7.5H9.375V13.125V15V16.875V18.75V20.625V22.5ZM9.375 7.5V9.375H7.5H5.625V7.5V5.625H7.5H9.375V7.5Z" fill="currentColor"/>
<path fill-rule="evenodd" clip-rule="evenodd" d="M30 3.75H28.125V5.625V7.5V9.375V11.25V13.125V15V16.875V18.75V20.625V22.5V24.375V26.25H26.25V28.125H24.375H22.5H20.625H18.75H16.875H15H13.125H11.25H9.375H7.5H5.625H3.75V30H5.625H7.5H9.375H11.25H13.125H15H16.875H18.75H20.625H22.5H24.375H26.25V28.125H28.125V26.25H30V24.375V22.5V20.625V18.75V16.875V15V13.125V11.25V9.375V7.5V5.625V3.75Z" fill="currentColor"/>
</g>
<defs>
<clipPath id="clip0_547_26926">
<rect width="30" height="30" fill="white"/>
</clipPath>
</defs>
</svg>
