<svg xmlns="http://www.w3.org/2000/svg" width="149" height="40" fill="none" viewBox="0 0 149 40"><path fill="#262F59" fill-rule="evenodd" d="M22.013.36a3.633 3.633 0 0 0-3.15 0L5.385 6.845A3.633 3.633 0 0 0 3.42 9.31L1.127 19.344h8.536l1.172-5.13c.123-.538.485-.992.983-1.232l7.828-3.766a1.816 1.816 0 0 1 1.575 0l7.829 3.767c.498.24.86.693.983 1.232l1.172 5.13h8.544L37.456 9.31a3.633 3.633 0 0 0-1.966-2.465L22.013.36ZM.09 23.877.4 22.528h8.537l-.034.149c-.123.539.006 1.105.35 1.537l5.417 6.787c.345.432.868.683 1.42.683h8.69c.552 0 1.075-.251 1.42-.683l5.416-6.787c.345-.432.474-.998.35-1.537l-.033-.149h8.544l.308 1.349a3.633 3.633 0 0 1-.702 3.075l-9.325 11.683a3.633 3.633 0 0 1-2.84 1.367h-14.96a3.633 3.633 0 0 1-2.839-1.367L.793 26.952a3.633 3.633 0 0 1-.702-3.075Zm19.552-10.818a1.817 1.817 0 0 1 1.575 0l4.839 2.329c.498.24.86.693.983 1.232l1.194 5.23a1.816 1.816 0 0 1-.35 1.537l-3.349 4.195a1.816 1.816 0 0 1-1.42.683h-5.37a1.817 1.817 0 0 1-1.42-.683l-3.348-4.195a1.817 1.817 0 0 1-.351-1.537l1.195-5.23c.123-.539.485-.993.983-1.232l4.839-2.329Zm2.107 4.418h-2.23v2.235H17.29v2.228h2.229v2.223h2.23V21.94h2.233v-2.228H21.75v-2.235Z" clip-rule="evenodd"/><path fill="#262F59" d="M53.868 18.927c-.748 0-1.44-.136-2.077-.407a5.179 5.179 0 0 1-1.655-1.137 5.259 5.259 0 0 1-1.095-1.711 5.728 5.728 0 0 1-.393-2.147c0-.777.127-1.492.38-2.147a4.957 4.957 0 0 1 2.764-2.834 5.238 5.238 0 0 1 2.076-.407c.748 0 1.417.126 2.006.379.599.252 1.104.59 1.515 1.01.412.412.707.865.884 1.361l-1.711.8a2.755 2.755 0 0 0-.996-1.291c-.468-.346-1.034-.52-1.698-.52-.655 0-1.235.155-1.74.464a3.204 3.204 0 0 0-1.165 1.277c-.27.542-.407 1.178-.407 1.908s.136 1.37.407 1.922c.281.543.67.968 1.165 1.277.505.309 1.085.463 1.74.463.664 0 1.23-.168 1.697-.505.468-.346.8-.781.997-1.305l1.712.8a3.798 3.798 0 0 1-.885 1.375 4.694 4.694 0 0 1-1.515.996c-.59.253-1.258.379-2.006.379Zm5.955-.169V8.305h1.908v8.77h4.476v1.683h-6.384Zm12.493.169a5.622 5.622 0 0 1-2.147-.407 5.293 5.293 0 0 1-2.904-2.848 5.621 5.621 0 0 1-.407-2.147c0-.777.136-1.492.407-2.147a5.11 5.11 0 0 1 2.89-2.834 5.66 5.66 0 0 1 2.161-.407 5.66 5.66 0 0 1 2.161.407c.664.271 1.244.65 1.74 1.136.496.478.88 1.043 1.15 1.698.281.655.421 1.37.421 2.147 0 .767-.14 1.482-.42 2.147a5.295 5.295 0 0 1-2.905 2.848 5.554 5.554 0 0 1-2.147.407Zm0-1.74c.515 0 .987-.089 1.417-.267.43-.187.805-.444 1.123-.771.327-.328.575-.716.744-1.165a3.93 3.93 0 0 0 .266-1.46c0-.523-.089-1.005-.266-1.444a3.229 3.229 0 0 0-.744-1.165 3.213 3.213 0 0 0-1.123-.771 3.677 3.677 0 0 0-1.417-.267c-.505 0-.973.089-1.403.266-.43.178-.809.435-1.136.772a3.5 3.5 0 0 0-.744 1.165c-.178.44-.267.921-.267 1.445s.09 1.01.267 1.46c.178.448.426.836.744 1.164a3.65 3.65 0 0 0 1.136.771c.43.178.898.267 1.403.267Zm11.196 1.74c-.805 0-1.52-.169-2.147-.505a3.791 3.791 0 0 1-1.46-1.39c-.355-.589-.532-1.258-.532-2.006v-6.72h1.908v6.622c0 .43.093.818.28 1.165.197.346.464.617.8.813.337.187.72.281 1.15.281.44 0 .824-.094 1.151-.28.337-.197.599-.468.786-.814.197-.347.295-.735.295-1.165V8.305h1.908v6.721c0 .748-.178 1.417-.533 2.007a3.765 3.765 0 0 1-1.473 1.389c-.618.336-1.329.505-2.133.505Zm6.044-.169V8.305h3.41c1.103 0 2.062.225 2.876.674a4.694 4.694 0 0 1 1.908 1.838c.449.776.674 1.679.674 2.708 0 1.02-.225 1.927-.674 2.722a4.788 4.788 0 0 1-1.908 1.852c-.814.44-1.773.66-2.876.66h-3.41Zm1.908-1.683h1.544c.71 0 1.323-.145 1.838-.435.523-.3.93-.711 1.22-1.235.29-.533.435-1.16.435-1.88 0-.73-.145-1.356-.435-1.88a3.066 3.066 0 0 0-1.22-1.22c-.515-.29-1.127-.436-1.838-.436h-1.544v7.086Zm8.478 1.683V8.305h1.487l5.753 7.745-.772.155v-7.9h1.908v10.453h-1.501l-5.668-7.8.701-.155v7.955h-1.908Zm9.544 0 3.606-10.453h2.469l3.606 10.453h-2.076l-.744-2.244h-4.041l-.757 2.244h-2.063Zm3.367-3.928h2.947l-1.74-5.206h.533l-1.74 5.206Zm8.631 3.928V9.99h-2.708V8.305h7.296V9.99h-2.666v8.77h-1.922Zm5.752 0V8.305h1.909v10.453h-1.909Zm6.711 0-3.648-10.453h2.077l2.862 8.657h-.407l2.863-8.657h2.076l-3.634 10.453h-2.189Zm6.991 0V8.305h6.946V9.99h-5.037v2.68h4.756v1.684h-4.756v2.722h5.037v1.683h-6.946ZM48.3 32.704v-.53l5.592-8.098h-5.265v-.756h6.348v.529l-5.58 8.099h5.706v.756H48.3Zm11.521.15c-.646 0-1.213-.138-1.7-.415a3.006 3.006 0 0 1-1.146-1.146c-.27-.495-.404-1.062-.404-1.7V23.32h.82v6.298c0 .487.1.92.302 1.297.21.37.495.66.856.87.37.21.794.314 1.272.314.479 0 .899-.105 1.26-.315.37-.21.655-.5.856-.869.202-.378.303-.81.303-1.297V23.32h.818v6.273c0 .638-.134 1.205-.403 1.7-.268.487-.646.87-1.133 1.146-.487.277-1.054.416-1.7.416Zm-1.574-10.907v-1.109h1.07v1.109h-1.07Zm2.078 0v-1.109h1.07v1.109h-1.07Zm5.055 10.757V23.32h3.149c.596 0 1.121.117 1.574.352.454.236.807.567 1.059.996.26.428.39.923.39 1.486 0 .672-.185 1.247-.554 1.726-.361.47-.848.793-1.461.97l2.216 3.854h-.97l-2.33-4.107.68.39H66.2v3.717h-.819Zm.819-4.472h2.355c.428 0 .806-.084 1.134-.252a1.95 1.95 0 0 0 .768-.73c.185-.32.277-.689.277-1.109 0-.42-.092-.78-.277-1.083-.185-.31-.44-.55-.768-.718a2.354 2.354 0 0 0-1.134-.264H66.2v4.156Zm7.213 4.472V23.32h.82v9.384h-.82Zm7.393.15a4.473 4.473 0 0 1-1.788-.352 4.439 4.439 0 0 1-1.436-1.02 4.769 4.769 0 0 1-.945-1.537 5.532 5.532 0 0 1-.327-1.94c0-.697.109-1.339.327-1.927a4.596 4.596 0 0 1 .945-1.536 4.28 4.28 0 0 1 1.436-1.008 4.34 4.34 0 0 1 1.788-.365c.63 0 1.197.113 1.701.34.504.226.928.516 1.272.869.344.352.592.718.743 1.096l-.768.34a3.169 3.169 0 0 0-1.146-1.36c-.504-.345-1.105-.517-1.802-.517-.713 0-1.351.172-1.914.516a3.526 3.526 0 0 0-1.297 1.436c-.311.605-.466 1.31-.466 2.117 0 .806.155 1.515.466 2.128.31.613.743 1.092 1.297 1.436.563.336 1.2.504 1.914.504.697 0 1.298-.168 1.802-.504a3.168 3.168 0 0 0 1.146-1.36l.768.34c-.15.37-.399.73-.743 1.083a4.29 4.29 0 0 1-1.272.882c-.504.227-1.07.34-1.7.34Zm5.67-.15V23.32h.82v4.27h5.29v-4.27h.818v9.384h-.818v-4.358h-5.29v4.358h-.82Z"/></svg>