<svg xmlns="http://www.w3.org/2000/svg" width="149" height="40" fill="none" viewBox="0 0 149 40"><path fill="#262F59" fill-rule="evenodd" d="M22.036.359a3.633 3.633 0 0 0-3.148 0L5.392 6.846A3.633 3.633 0 0 0 3.424 9.31L1.13 19.344h8.546l1.173-5.13c.123-.538.485-.992.983-1.231l7.84-3.768a1.817 1.817 0 0 1 1.573 0l7.84 3.768c.498.24.86.693.983 1.232l1.173 5.13h8.554L37.5 9.31a3.633 3.633 0 0 0-1.968-2.464L22.036.359ZM.093 23.875l.308-1.347h8.547l-.034.148c-.124.54.006 1.106.351 1.539l5.423 6.787c.345.431.867.682 1.42.682h8.701c.553 0 1.075-.25 1.42-.682l5.422-6.787c.346-.433.476-1 .352-1.54l-.034-.147h8.554l.308 1.347a3.633 3.633 0 0 1-.703 3.078l-9.336 11.684a3.633 3.633 0 0 1-2.838 1.365H12.97a3.633 3.633 0 0 1-2.838-1.365L.797 26.953a3.633 3.633 0 0 1-.704-3.078Zm19.575-10.816a1.817 1.817 0 0 1 1.573 0l4.847 2.329c.498.24.86.693.983 1.232l1.196 5.229a1.816 1.816 0 0 1-.351 1.538l-3.352 4.196a1.816 1.816 0 0 1-1.42.682h-5.38a1.816 1.816 0 0 1-1.419-.682l-3.352-4.195a1.816 1.816 0 0 1-.351-1.54l1.195-5.228c.124-.539.486-.993.984-1.232l4.847-2.33Zm2.108 4.418h-2.233v2.235h-2.23v2.228h2.23v2.223h2.233V21.94h2.235v-2.229h-2.235v-2.234Z" clip-rule="evenodd"/><path fill="#262F59" d="M53.755 18.926c-.748 0-1.44-.135-2.077-.407a5.179 5.179 0 0 1-1.655-1.136 5.259 5.259 0 0 1-1.095-1.712 5.728 5.728 0 0 1-.392-2.147c0-.776.126-1.492.378-2.146a4.957 4.957 0 0 1 2.764-2.834 5.238 5.238 0 0 1 2.077-.408c.748 0 1.417.127 2.006.38.6.252 1.104.589 1.516 1.01.411.411.706.865.884 1.36l-1.712.8a2.755 2.755 0 0 0-.996-1.29c-.468-.347-1.034-.52-1.698-.52-.655 0-1.235.155-1.74.463a3.204 3.204 0 0 0-1.164 1.277c-.272.543-.407 1.179-.407 1.908 0 .73.135 1.37.407 1.923.28.542.668.968 1.164 1.276.505.309 1.085.463 1.74.463.664 0 1.23-.168 1.698-.505.467-.346.8-.78.996-1.305l1.712.8a3.797 3.797 0 0 1-.884 1.375 4.693 4.693 0 0 1-1.516.996c-.589.253-1.258.38-2.006.38Zm5.955-.168V8.305h1.908v8.77h4.476v1.683H59.71Zm12.494.168a5.622 5.622 0 0 1-2.147-.407 5.293 5.293 0 0 1-2.904-2.848 5.621 5.621 0 0 1-.407-2.147c0-.776.135-1.492.406-2.146a5.11 5.11 0 0 1 2.89-2.835 5.66 5.66 0 0 1 2.162-.407 5.66 5.66 0 0 1 2.16.407c.664.272 1.244.65 1.74 1.137.496.477.88 1.043 1.15 1.698.281.654.421 1.37.421 2.146 0 .767-.14 1.483-.42 2.147a5.293 5.293 0 0 1-2.905 2.848 5.554 5.554 0 0 1-2.146.407Zm0-1.74c.514 0 .986-.088 1.417-.266.43-.187.804-.445 1.122-.772.327-.327.575-.716.744-1.165a3.93 3.93 0 0 0 .266-1.459c0-.523-.089-1.005-.266-1.445a3.228 3.228 0 0 0-.744-1.164 3.212 3.212 0 0 0-1.122-.772 3.677 3.677 0 0 0-1.417-.267c-.506 0-.973.09-1.404.267-.43.178-.809.435-1.136.772a3.498 3.498 0 0 0-.744 1.164c-.177.44-.266.921-.266 1.445s.089 1.01.266 1.46c.178.448.426.837.744 1.164a3.65 3.65 0 0 0 1.136.772c.43.177.898.266 1.404.266Zm11.195 1.74c-.804 0-1.52-.168-2.147-.505a3.79 3.79 0 0 1-1.459-1.389c-.355-.59-.533-1.258-.533-2.006V8.305h1.908v6.622c0 .43.094.819.28 1.165.197.346.464.617.8.814.337.187.72.28 1.151.28.44 0 .823-.093 1.15-.28.337-.197.6-.468.786-.814.197-.346.295-.734.295-1.165V8.305h1.908v6.72c0 .749-.178 1.418-.533 2.007a3.764 3.764 0 0 1-1.473 1.39c-.618.336-1.328.504-2.133.504Zm6.044-.168V8.305h3.41c1.103 0 2.062.224 2.876.673a4.694 4.694 0 0 1 1.908 1.838c.45.777.674 1.68.674 2.708 0 1.02-.225 1.927-.674 2.722a4.788 4.788 0 0 1-1.908 1.852c-.814.44-1.773.66-2.876.66h-3.41Zm1.908-1.684h1.544c.71 0 1.323-.145 1.838-.435.524-.3.93-.71 1.22-1.235.29-.533.435-1.16.435-1.88 0-.73-.145-1.356-.434-1.88a3.066 3.066 0 0 0-1.221-1.22c-.515-.29-1.127-.435-1.838-.435H91.35v7.085Zm8.478 1.684V8.305h1.488l5.752 7.745-.771.154v-7.9h1.908v10.454h-1.502l-5.668-7.801.701-.155v7.956h-1.908Zm9.544 0 3.606-10.453h2.47l3.605 10.453h-2.076l-.744-2.245h-4.041l-.757 2.245h-2.063Zm3.368-3.929h2.946l-1.74-5.205h.533l-1.739 5.205Zm8.63 3.929v-8.77h-2.708V8.306h7.296v1.684h-2.666v8.769h-1.922Zm5.753 0V8.305h1.908v10.453h-1.908Zm6.711 0-3.648-10.453h2.076l2.862 8.657h-.407l2.863-8.657h2.076l-3.634 10.453h-2.188Zm6.991 0V8.305h6.945v1.684h-5.037v2.68h4.756v1.683h-4.756v2.722h5.037v1.684h-6.945ZM49.131 32.703v-1.26h.857v1.26h-.857Zm2.512 0v-.529l5.593-8.1H51.97v-.755h6.348v.53l-5.58 8.098h5.706v.756h-6.802Zm11.522.151c-.647 0-1.213-.138-1.7-.415a3.006 3.006 0 0 1-1.147-1.147c-.268-.495-.403-1.062-.403-1.7v-6.273h.819v6.298c0 .487.1.92.302 1.297.21.37.496.66.857.87.37.21.793.315 1.272.315s.899-.105 1.26-.315c.369-.21.654-.5.856-.87.202-.377.302-.81.302-1.297V23.32h.82v6.273c0 .638-.135 1.205-.404 1.7-.269.487-.647.87-1.134 1.147-.487.277-1.053.415-1.7.415ZM61.59 21.946v-1.108h1.071v1.108h-1.07Zm2.079 0v-1.108h1.07v1.108h-1.07Zm5.055 10.757V23.32h3.149c.596 0 1.12.118 1.574.353.454.235.806.567 1.058.995.26.428.39.924.39 1.486 0 .672-.184 1.247-.553 1.726-.362.47-.849.793-1.462.97l2.217 3.854h-.97l-2.33-4.106.68.39h-2.935v3.716h-.818Zm.818-4.471h2.356c.428 0 .806-.084 1.133-.252a1.95 1.95 0 0 0 .769-.73c.185-.32.277-.69.277-1.11 0-.42-.092-.78-.277-1.083-.185-.31-.441-.55-.769-.717a2.354 2.354 0 0 0-1.133-.265h-2.356v4.157Zm7.214 4.471V23.32h.819v9.384h-.819Zm7.393.151a4.473 4.473 0 0 1-1.788-.352 4.439 4.439 0 0 1-1.436-1.02 4.769 4.769 0 0 1-.945-1.537 5.532 5.532 0 0 1-.328-1.94c0-.697.11-1.34.328-1.927a4.595 4.595 0 0 1 .945-1.537 4.28 4.28 0 0 1 1.436-1.008 4.34 4.34 0 0 1 1.788-.365c.63 0 1.197.113 1.7.34.504.227.929.517 1.273.87.344.352.592.717.743 1.095l-.768.34a3.169 3.169 0 0 0-1.147-1.36c-.503-.345-1.104-.517-1.8-.517-.715 0-1.353.172-1.915.517a3.527 3.527 0 0 0-1.298 1.436c-.31.604-.466 1.31-.466 2.116s.156 1.516.466 2.129c.311.613.743 1.091 1.298 1.436.562.335 1.2.503 1.914.503.697 0 1.298-.168 1.801-.503a3.168 3.168 0 0 0 1.147-1.36l.768.34c-.151.369-.399.73-.743 1.082a4.29 4.29 0 0 1-1.272.882c-.504.227-1.071.34-1.7.34Zm5.67-.15v-9.385h.82v4.27h5.29v-4.27h.818v9.384h-.819v-4.358h-5.29v4.358h-.819Z"/></svg>