<svg xmlns="http://www.w3.org/2000/svg" width="172" height="48" fill="none" viewBox="0 0 172 48"><path fill="#0A1133" fill-rule="evenodd" d="M22.839.378a3.803 3.803 0 0 1 3.304 0l16.585 7.998a3.803 3.803 0 0 1 2.057 2.58l2.8 12.283H37.366l-1.43-6.276a1.902 1.902 0 0 0-1.029-1.29l-9.596-4.628a1.902 1.902 0 0 0-1.652 0l-9.595 4.627c-.521.252-.9.727-1.028 1.29l-1.431 6.277H1.398l2.8-12.283a3.803 3.803 0 0 1 2.055-2.58L22.84.378ZM.528 27.055l-.429 1.881a3.803 3.803 0 0 0 .733 3.215l11.48 14.415A3.803 3.803 0 0 0 15.289 48h18.406a3.803 3.803 0 0 0 2.975-1.434l11.48-14.415c.721-.905.99-2.088.734-3.215l-.429-1.88H38.237l.07.31a1.901 1.901 0 0 1-.366 1.606l-6.642 8.34c-.361.454-.909.718-1.488.718h-10.65c-.579 0-1.126-.264-1.487-.717l-6.642-8.34a1.901 1.901 0 0 1-.366-1.608l.07-.31H.528Z" clip-rule="evenodd"/><path fill="#0A1133" fill-rule="evenodd" d="M25.31 15.662a1.902 1.902 0 0 0-1.652 0l-6.02 2.903c-.522.252-.9.727-1.029 1.29l-1.488 6.53a1.902 1.902 0 0 0 .367 1.606l4.168 5.234c.36.453.908.717 1.488.717h6.68c.58 0 1.128-.264 1.488-.717l4.169-5.234c.36-.452.495-1.043.366-1.607l-1.488-6.528a1.902 1.902 0 0 0-1.028-1.29l-6.02-2.904Zm-1.951 5.325h2.667v2.671h2.669v2.671h-2.669v2.672H23.36v-2.672h-2.667v-2.67h2.667v-2.672Z" clip-rule="evenodd"/><path fill="#0A1133" d="M58.506 26.494V13.318h2.406v6.862l-.655-.23 5.607-6.632h3.024l-5.253 6.225.142-1.698 5.27 8.649h-2.83l-3.537-5.801-1.768 2.104v3.697h-2.406Zm17.08.212c-1.014 0-1.916-.212-2.706-.637a4.777 4.777 0 0 1-1.84-1.75c-.448-.743-.672-1.586-.672-2.53v-8.471h2.406v8.348c0 .542.117 1.031.353 1.467.248.437.584.779 1.008 1.026.425.236.908.354 1.45.354.555 0 1.038-.118 1.45-.354a2.59 2.59 0 0 0 .991-1.026c.248-.436.372-.925.372-1.467v-8.348h2.405v8.471c0 .944-.224 1.787-.672 2.53a4.745 4.745 0 0 1-1.857 1.75c-.778.425-1.674.637-2.688.637Zm7.618-.212V13.318h5.553c.873 0 1.616.153 2.229.46.625.294 1.102.719 1.432 1.273.342.542.513 1.203.513 1.98a3.16 3.16 0 0 1-.495 1.699c-.318.518-.831.949-1.539 1.29v-1.113c.649.247 1.162.554 1.539.92.377.365.642.771.796 1.22.153.447.23.92.23 1.414 0 1.262-.419 2.252-1.256 2.972-.825.707-1.975 1.06-3.449 1.06h-5.553Zm2.405-2.123h3.396c.625 0 1.12-.17 1.486-.512.377-.354.566-.82.566-1.398 0-.577-.19-1.043-.567-1.397-.365-.354-.86-.53-1.485-.53h-3.396v3.837Zm0-5.942h3.272c.495 0 .89-.141 1.185-.424.295-.295.442-.672.442-1.132 0-.46-.147-.826-.442-1.097-.295-.271-.69-.407-1.185-.407H85.61v3.06Zm9.823 8.065V13.318h8.754v2.122h-6.349v3.378h5.996v2.122h-5.996v3.431h6.349v2.123h-8.754Zm10.518 0V13.318h4.899c.896 0 1.686.165 2.37.495.696.318 1.238.79 1.627 1.415.389.613.584 1.362.584 2.246 0 .908-.219 1.68-.655 2.317a3.793 3.793 0 0 1-1.733 1.415l3.024 5.288h-2.723l-3.237-5.784 1.557.92h-3.308v4.864h-2.405Zm2.405-6.986h2.529c.437 0 .814-.083 1.132-.248.319-.177.566-.418.743-.725.177-.306.265-.66.265-1.061 0-.413-.088-.766-.265-1.061a1.788 1.788 0 0 0-.743-.708c-.318-.176-.695-.265-1.132-.265h-2.529v4.068Zm9.288 6.986V13.318h1.874l7.251 9.762-.972.195v-9.957h2.405v13.176h-1.892l-7.145-9.834.884-.194v10.028h-2.405Zm13.108 0V13.318h8.755v2.122h-6.349v3.378h5.995v2.122h-5.995v3.431h6.349v2.123h-8.755Zm12.853 0V15.44h-3.413v-2.122h9.196v2.122h-3.36v11.054h-2.423Zm7.251 0V13.318h8.754v2.122h-6.349v3.378h5.996v2.122h-5.996v3.431h6.349v2.123h-8.754Zm15.222.212a5.89 5.89 0 0 1-2.334-.46 5.59 5.59 0 0 1-1.839-1.273 5.177 5.177 0 0 1-1.115-1.928l1.999-.867c.318.755.778 1.35 1.379 1.787.602.424 1.28.636 2.034.636.425 0 .79-.065 1.097-.194.318-.142.56-.33.725-.566.177-.236.265-.519.265-.85 0-.388-.118-.706-.354-.954-.224-.26-.566-.46-1.025-.601l-2.529-.814c-1.026-.318-1.798-.796-2.317-1.433-.519-.636-.778-1.385-.778-2.246 0-.754.182-1.42.548-1.998a3.767 3.767 0 0 1 1.556-1.344c.672-.33 1.439-.495 2.299-.495.79 0 1.515.141 2.176.424.66.271 1.226.655 1.698 1.15a4.556 4.556 0 0 1 1.078 1.715l-1.98.884c-.26-.66-.649-1.167-1.168-1.52-.518-.366-1.12-.549-1.804-.549-.401 0-.754.071-1.061.212-.306.13-.548.319-.725.566a1.443 1.443 0 0 0-.247.85c0 .365.117.689.353.972.236.271.596.483 1.079.637l2.423.76c1.049.342 1.833.814 2.352 1.415.531.601.796 1.344.796 2.228 0 .755-.195 1.421-.584 1.999-.389.578-.925 1.032-1.609 1.362-.684.33-1.48.495-2.388.495ZM59.616 36.232c-.385 0-.742-.07-1.07-.21a2.67 2.67 0 0 1-.852-.585 2.71 2.71 0 0 1-.564-.881 2.95 2.95 0 0 1-.202-1.106c0-.4.065-.768.195-1.106a2.554 2.554 0 0 1 1.424-1.46c.327-.139.684-.209 1.07-.209a2.6 2.6 0 0 1 1.033.195c.308.13.568.304.78.52.212.212.364.446.455.702l-.881.411a1.418 1.418 0 0 0-.513-.664 1.429 1.429 0 0 0-.875-.268c-.337 0-.636.08-.896.239a1.65 1.65 0 0 0-.6.657c-.14.28-.21.607-.21.983s.07.706.21.99c.145.28.345.499.6.658.26.159.559.238.896.238.342 0 .634-.087.875-.26.24-.178.412-.402.513-.672l.881.412a1.955 1.955 0 0 1-.455.708 2.417 2.417 0 0 1-.78.513 2.6 2.6 0 0 1-1.034.195Zm5.72 0c-.396 0-.764-.07-1.106-.21a2.726 2.726 0 0 1-1.496-1.467c-.14-.341-.21-.71-.21-1.105 0-.4.07-.768.21-1.106a2.633 2.633 0 0 1 1.488-1.46c.343-.139.714-.209 1.113-.209.4 0 .771.07 1.113.21.342.14.64.334.896.585.256.246.453.537.593.874.144.338.217.706.217 1.106a2.724 2.724 0 0 1-1.713 2.573c-.337.14-.706.21-1.106.21Zm0-.896c.264 0 .508-.046.73-.137.22-.096.413-.229.577-.398.169-.168.297-.368.383-.6.092-.23.138-.481.138-.75 0-.27-.046-.519-.138-.745a1.662 1.662 0 0 0-.383-.6 1.654 1.654 0 0 0-.578-.398 1.894 1.894 0 0 0-.73-.137c-.26 0-.5.046-.722.137a1.73 1.73 0 0 0-.586.398 1.802 1.802 0 0 0-.383.6 1.968 1.968 0 0 0-.137.744c0 .27.046.52.137.752.092.23.22.43.383.6.169.168.364.3.586.397.221.091.462.137.722.137Zm3.692.81v-5.384h.939l2.016 2.739h-.448l1.973-2.74h.94v5.384h-.99v-4.263l.382.094-2.045 2.724h-.115l-1.995-2.724.325-.094v4.263h-.983Zm6.45 0v-5.384h.939l2.016 2.739h-.448l1.973-2.74h.94v5.384h-.99v-4.263l.382.094-2.045 2.724h-.115l-1.995-2.724.325-.094v4.263h-.982Zm8.524.086a2.3 2.3 0 0 1-1.106-.26 1.953 1.953 0 0 1-.752-.715 1.961 1.961 0 0 1-.274-1.034v-3.461h.983v3.41c0 .222.048.422.144.6.101.179.239.319.412.42.173.096.371.144.593.144.226 0 .424-.048.592-.144.174-.102.309-.241.405-.42.101-.178.152-.378.152-.6v-3.41h.982v3.461c0 .386-.091.73-.274 1.034a1.938 1.938 0 0 1-.759.715c-.318.173-.684.26-1.098.26Zm3.113-.087v-5.383h.766l2.962 3.989-.397.08v-4.07h.983v5.384h-.773l-2.92-4.017.361-.08v4.097h-.982Zm5.356 0v-5.383h.983v5.383h-.983Zm2.972 0V31.63h-1.395v-.867h3.758v.867h-1.373v4.516h-.99Zm4.336 0v-2.384l-1.814-3h1.12l1.388 2.342h-.398l1.38-2.341h1.12l-1.806 2.992v2.392h-.99Zm4.682 0v-5.383h1.756c.568 0 1.062.116 1.481.347.424.226.752.542.983.946.231.4.347.865.347 1.395 0 .525-.116.992-.347 1.402a2.464 2.464 0 0 1-.983.954c-.419.226-.913.34-1.481.34h-1.756Zm.983-.867h.794c.367 0 .682-.074.947-.224.27-.154.479-.366.629-.636a2 2 0 0 0 .224-.968c0-.376-.075-.699-.224-.968-.15-.27-.359-.48-.629-.629-.265-.15-.58-.224-.947-.224h-.794v3.65Zm3.706.867 1.858-5.383h1.271l1.858 5.383h-1.07l-.383-1.156h-2.081l-.39 1.157h-1.063Zm1.735-2.023h1.517l-.896-2.68h.275l-.896 2.68Zm4.716 2.023v-2.384l-1.814-3h1.12l1.387 2.342h-.397l1.38-2.341h1.12l-1.806 2.992v2.392h-.99Zm5.101.087c-.342 0-.66-.062-.954-.188a2.288 2.288 0 0 1-.752-.52 2.11 2.11 0 0 1-.455-.788l.817-.354c.13.309.317.552.563.73.246.174.523.26.831.26.174 0 .323-.026.448-.08a.7.7 0 0 0 .297-.23.563.563 0 0 0 .108-.347.54.54 0 0 0-.145-.39c-.091-.107-.231-.188-.419-.246l-1.033-.333c-.419-.13-.735-.325-.947-.585a1.408 1.408 0 0 1-.318-.918c0-.308.075-.58.224-.816.154-.236.366-.42.636-.55.275-.134.588-.202.94-.202.322 0 .619.058.888.174.27.11.502.267.694.47.198.197.345.43.441.7l-.809.362a1.304 1.304 0 0 0-.477-.622 1.248 1.248 0 0 0-.737-.224c-.164 0-.309.029-.434.087a.68.68 0 0 0-.296.231.586.586 0 0 0-.101.347c0 .15.048.282.144.397.096.111.243.198.441.26l.99.311c.429.14.749.333.961.578.217.246.325.55.325.91 0 .31-.079.581-.238.818a1.622 1.622 0 0 1-.658.556 2.216 2.216 0 0 1-.975.202Zm3.623-.087v-.39l3.078-4.451h-2.898v-.542h3.657v.39l-3.071 4.451h3.136v.542h-3.902Zm6.59.087c-.38 0-.715-.08-1.004-.238a1.713 1.713 0 0 1-.672-.65 1.895 1.895 0 0 1-.239-.955v-3.627h.578v3.627c0 .26.056.49.166.687.116.193.273.344.47.455.203.106.436.16.701.16.265 0 .496-.054.694-.16.202-.11.359-.262.47-.455a1.34 1.34 0 0 0 .173-.687v-3.627h.578v3.627c0 .357-.079.675-.238.954a1.713 1.713 0 0 1-.672.65 2.028 2.028 0 0 1-1.005.24Zm-1.012-6.222v-.722h.723v.722h-.723Zm1.301 0v-.722h.723v.722h-.723Zm2.878 6.135v-5.383h1.85c.351 0 .66.07.925.21.265.134.469.327.614.577.149.246.224.533.224.86 0 .381-.101.706-.304.976a1.57 1.57 0 0 1-.809.57l1.257 2.19h-.679l-1.315-2.32.39.225h-1.575v2.096h-.578Zm.578-2.637h1.301c.231 0 .433-.044.607-.13a1 1 0 0 0 .404-.383c.097-.169.145-.366.145-.593 0-.226-.048-.421-.145-.585a.953.953 0 0 0-.404-.376 1.285 1.285 0 0 0-.607-.137h-1.301v2.204Zm4.051 2.637v-5.383h.578v5.383h-.578Zm4.306.087c-.381 0-.73-.067-1.048-.202a2.577 2.577 0 0 1-.831-.578 2.74 2.74 0 0 1-.542-.882 3.07 3.07 0 0 1-.195-1.113c0-.404.065-.775.195-1.113a2.74 2.74 0 0 1 .542-.881c.236-.25.513-.443.831-.578.318-.14.667-.21 1.048-.21.366 0 .694.065.983.195.294.13.539.299.737.506.202.202.347.417.433.643l-.542.239a1.69 1.69 0 0 0-.621-.752c-.275-.192-.605-.289-.99-.289-.395 0-.747.094-1.055.282-.308.188-.549.45-.723.788-.173.332-.26.722-.26 1.17 0 .444.087.834.26 1.171.174.337.415.6.723.788.308.183.66.274 1.055.274.385 0 .715-.094.99-.282a1.69 1.69 0 0 0 .621-.751l.542.238a1.936 1.936 0 0 1-.433.643 2.342 2.342 0 0 1-.737.5c-.289.13-.617.194-.983.194Zm3.189-.087v-5.383h.578v2.42h2.89v-2.42h.578v5.383h-.578v-2.42h-2.89v2.42h-.578Zm6.332 0v-.36l1.503-1.656c.294-.322.532-.59.715-.802.188-.212.328-.404.419-.578.092-.173.138-.361.138-.564 0-.322-.094-.57-.282-.744-.188-.173-.439-.26-.752-.26-.322 0-.595.091-.816.275-.217.183-.364.438-.441.766l-.528-.116c.063-.294.176-.547.34-.759.164-.212.369-.376.614-.491.246-.12.521-.18.824-.18.323 0 .605.064.846.194.24.13.428.309.563.535.14.226.21.487.21.78 0 .203-.044.398-.13.586-.082.188-.207.39-.376.607-.169.217-.385.47-.65.759l-1.366 1.503h2.666v.505h-3.497Zm6.566.087c-.424 0-.798-.115-1.12-.347a2.336 2.336 0 0 1-.745-.975c-.178-.42-.267-.906-.267-1.46 0-.554.089-1.038.267-1.452.179-.42.427-.745.745-.976a1.842 1.842 0 0 1 1.112-.347c.424 0 .795.116 1.113.347.318.231.566.556.745.976.178.414.267.898.267 1.452 0 .554-.089 1.04-.267 1.46-.174.419-.419.744-.737.975a1.842 1.842 0 0 1-1.113.347Zm0-.542c.308 0 .578-.094.809-.282.231-.188.412-.448.542-.78.13-.337.195-.73.195-1.178 0-.448-.065-.838-.195-1.17-.13-.338-.311-.598-.542-.781a1.255 1.255 0 0 0-.817-.282c-.308 0-.578.094-.809.282-.231.183-.412.443-.542.78-.13.333-.195.723-.195 1.171 0 .443.065.833.195 1.17.13.338.311.6.542.788.236.188.508.282.817.282Zm3.059.456v-.362l1.504-1.655c.293-.322.532-.59.715-.802.188-.212.328-.404.419-.578.092-.173.137-.361.137-.564 0-.322-.094-.57-.281-.744-.188-.173-.439-.26-.752-.26-.323 0-.595.091-.817.275-.216.183-.363.438-.44.766l-.528-.116c.063-.294.176-.547.34-.759.164-.212.368-.376.614-.491.246-.12.52-.18.824-.18.323 0 .604.064.845.194s.429.309.564.535c.14.226.21.487.21.78 0 .203-.044.398-.131.586a2.88 2.88 0 0 1-.375.607c-.169.217-.386.47-.651.759l-1.365 1.503h2.666v.505h-3.498Zm6.915 0v-1.272h-2.739v-.47l2.739-3.642h.506v3.642h.657v.47h-.657v1.271h-.506Zm-2.298-1.532-.065-.21h2.363V31.26l.181.051-2.479 3.303Z"/></svg>