<svg width="30" height="30" viewBox="0 0 30 30" fill="none" xmlns="http://www.w3.org/2000/svg">
<g clip-path="url(#clip0_547_26711)">
<path fill-rule="evenodd" clip-rule="evenodd" d="M5.625 0H3.75V1.875H1.875V3.75H0V5.625V7.5V9.375V11.25V13.125V15V16.875V18.75V20.625V22.5V24.375V26.25H1.875V24.375V22.5V20.625V18.75V16.875V15V13.125V11.25V9.375V7.5V5.625V3.75H3.75V1.875H5.625H7.5H9.375H11.25H13.125H15H16.875H18.75H20.625H22.5H24.375H26.25V0H24.375H22.5H20.625H18.75H16.875H15H13.125H11.25H9.375H7.5H5.625Z" fill="#2B3255"/>
<path fill-rule="evenodd" clip-rule="evenodd" d="M3.75 1.875H5.625H7.5H9.375H11.25H13.125H15H16.875H18.75H20.625H22.5H24.375H26.25H28.125V3.75V5.625V7.5V9.375V11.25V13.125V15V16.875V18.75V20.625V22.5V24.375V26.25H26.8961V28.1278H11.3789V28.125H11.25H9.375H7.5H5.625H3.75H1.875V26.25V24.375V22.5V20.625V18.75V16.875V15V13.125V11.25V9.375V7.5V5.625V3.75H3.75V1.875Z" fill="currentColor"/>
<path fill-rule="evenodd" clip-rule="evenodd" d="M28.125 3.75H30V5.625V7.5V9.375V11.25V13.125V15V16.875V18.75V20.625V22.5V24.375V26.25H28.125V24.375V22.5V20.625V18.75V16.875V15V13.125V11.25V9.375V7.5V5.625V3.75ZM26.25 28.125H28.125V26.25H26.25V28.125ZM24.375 30H26.25V28.125H24.375H22.5H20.625V28.1274H16.875V28.125H15H13.125H11.25H9.375H7.5H5.625H3.75V30H5.625H7.5H9.375H11.25H13.125H15H16.875V29.9999H20.625V30H22.5H24.375Z" fill="currentColor"/>
<g clip-path="url(#clip1_547_26711)">
<path d="M17.474 13.8543V12.9689H18.3594V12.0834H19.2448V11.198H20.1302V10.3126H21.0156V9.42719H21.901V8.54177H22.7865V7.65635H23.6719V6.77094H21.0156V7.65635H20.1302V8.54177H19.2448V9.42719H18.3594V10.3126H17.474V11.198H16.5885V12.0834H14.8177V11.198H13.9323V10.3126H13.0469V8.54177H12.1615V7.65635H11.276V6.77094H5.07812V7.65635H5.96354V8.54177H6.84896V9.42719H7.73438V11.198H8.61979V12.0834H9.50521V13.8543H10.3906V14.7397H11.276V16.5105H12.1615V17.3959H11.276V18.2814H10.3906V19.1668H9.50521V20.0522H8.61979V20.9376H7.73438V21.823H6.84896V22.7084H5.96354V23.5939H5.07812V24.4793H7.73438V23.5939H8.61979V22.7084H9.50521V21.823H10.3906V20.9376H11.276V20.0522H12.1615V19.1668H13.9323V20.0522H14.8177V20.9376H15.7031V22.7084H16.5885V23.5939H17.474V24.4793H23.6719V23.5939H22.7865V22.7084H21.901V21.823H21.0156V20.0522H20.1302V19.1668H19.2448V17.3959H18.3594V16.5105H17.474V14.7397H16.5885V13.8543H17.474ZM17.474 17.3959V18.2814H18.3594V20.0522H19.2448V20.9376H20.1302V22.7084H17.474V20.9376H16.5885V20.0522H15.7031V19.1668H14.8177V17.3959H13.9323V16.5105H13.0469V15.6251H12.1615V13.8543H11.276V12.9689H10.3906V11.198H9.50521V10.3126H8.61979V8.54177H11.276V9.42719H12.1615V11.198H13.0469V12.0834H13.9323V13.8543H14.8177V14.7397H15.7031V15.6251H16.5885V17.3959H17.474Z" fill="white"/>
</g>
</g>
<defs>
<clipPath id="clip0_547_26711">
<rect width="30" height="30" fill="white"/>
</clipPath>
<clipPath id="clip1_547_26711">
<rect width="18.75" height="18.75" fill="white" transform="translate(5 6.25)"/>
</clipPath>
</defs>
</svg>
