<svg xmlns="http://www.w3.org/2000/svg" width="26" height="26" fill="none" viewBox="0 0 26 26"><path fill="#0A1133" d="M12 0h2v8h-2zM16 8h2v2h-2zM18 6h2v2h-2zM20 4h2v2h-2zM18 16v2h-2v-2zM20 18v2h-2v-2zM22 20v2h-2v-2z"/><g opacity=".6"><path fill="#0A1133" d="M4 20h2v2H4zM6 18h2v2H6zM8 16h2v2H8z"/></g><g opacity=".2"><path fill="#0A1133" d="M6 4v2H4V4zM8 6v2H6V6zM10 8v2H8V8z"/></g><path fill="#0A1133" d="M26 12v2h-8v-2z"/><path fill="#0A1133" d="M12 18h2v8h-2z" opacity=".8"/><path fill="#0A1133" d="M8 12v2H0v-2z" opacity=".4"/></svg>