<svg xmlns="http://www.w3.org/2000/svg" width="26" height="26" fill="none" viewBox="0 0 26 26"><path fill="currentColor" d="M12 3v2h-2V3zM14 3v2h-2V3zM12 15v2h-2v-2zM14 15v2h-2v-2zM12 5v2h-2V5zM14 5v2h-2V5zM12 7v2h-2V7zM14 7v2h-2V7zM12 9v2h-2V9zM14 9v2h-2V9zM12 11v2h-2v-2zM14 11v2h-2v-2zM12 13v2h-2v-2zM14 13v2h-2v-2zM10 5v2H8V5zM10 7v2H8V7zM10 9v2H8V9zM10 11v2H8v-2zM10 13v2H8v-2zM6 13v2H4v-2zM22 13v2h-2v-2zM6 15v2H4v-2zM22 15v2h-2v-2zM20 17v2h-2v-2zM18 19v2h-2v-2zM8 17v2H6v-2zM10 19v2H8v-2zM12 19v2h-2v-2zM14 19v2h-2v-2zM14 21v2h-2v-2zM14 23v2h-2v-2zM16 19v2h-2v-2zM16 3v2h-2V3zM16 15v2h-2v-2zM16 5v2h-2V5zM16 7v2h-2V7zM16 9v2h-2V9zM16 11v2h-2v-2zM16 13v2h-2v-2zM18 5v2h-2V5zM18 7v2h-2V7zM18 9v2h-2V9zM18 11v2h-2v-2zM18 13v2h-2v-2z"/></svg>
