<svg width="245" height="80" viewBox="0 0 245 80" fill="none" xmlns="http://www.w3.org/2000/svg">
<g clip-path="url(#clip0_428_2745)">
<path d="M30.174 0.00683594H32.3527C39.9165 0.171331 47.3569 3.21449 52.7009 8.60172C50.7277 10.6168 48.7134 12.5496 46.7814 14.5647C43.7806 11.8505 40.1631 9.75318 36.2168 9.01295C30.3796 7.77924 24.0901 8.88958 19.1983 12.2206C13.8544 15.7161 10.2369 21.638 9.45589 27.971C8.59264 34.2219 10.3603 40.8017 14.4299 45.6543C18.3351 50.3835 24.2957 53.3444 30.4618 53.5501C36.2168 53.8791 42.2185 52.1107 46.4114 48.0806C49.7 45.243 51.221 40.925 51.7143 36.7304C44.8905 36.7304 38.0666 36.7715 31.2428 36.7304V28.2589H59.9769C61.4567 37.3473 59.3191 47.5871 52.4131 54.0847C47.8091 58.6905 41.4374 61.4047 34.9425 61.9393C28.653 62.5562 22.1581 61.3636 16.5675 58.3204C9.86697 54.7427 4.52301 48.6975 1.89214 41.583C-0.574307 35.0443 -0.615414 27.6421 1.6866 21.0622C3.78308 15.0582 7.8116 9.75318 12.9911 6.05204C17.9651 2.39202 24.0079 0.37695 30.174 0.00683594Z" fill="#3780FF"/>
<path d="M195.012 2.14551H203.809V60.8703C200.89 60.8703 197.93 60.9115 195.012 60.8292C195.053 41.2954 195.012 21.7205 195.012 2.14551Z" fill="#38B137"/>
<path d="M79.5428 22.5015C84.969 21.4734 90.8473 22.6249 95.328 25.8737C99.3977 28.7523 102.234 33.276 103.097 38.2108C104.207 43.927 102.81 50.1779 99.1099 54.7015C95.1225 59.7597 88.5864 62.4739 82.2148 62.0626C76.3775 61.7337 70.7047 58.8139 67.2517 54.0435C63.3465 48.7796 62.401 41.5419 64.5386 35.3733C66.6762 28.7523 72.719 23.6941 79.5428 22.5015ZM80.776 30.315C78.5562 30.8908 76.5009 32.1656 75.021 33.9751C71.0336 38.7454 71.2802 46.5178 75.6787 50.9592C78.1863 53.5089 81.9681 54.7015 85.4623 54.0024C88.7097 53.4266 91.5462 51.2471 93.1082 48.3684C95.8213 43.4747 95.0403 36.7304 90.8884 32.9058C88.2165 30.4384 84.3113 29.4103 80.776 30.315Z" fill="#FA3913"/>
<path d="M123.116 22.5016C129.323 21.309 136.106 23.0362 140.751 27.3954C148.315 34.1808 149.137 46.8881 142.683 54.7016C138.778 59.6364 132.447 62.3506 126.199 62.0627C120.238 61.8982 114.36 58.9373 110.825 54.0436C106.837 48.6564 105.974 41.2541 108.235 34.9621C110.496 28.5468 116.415 23.6531 123.116 22.5016ZM124.349 30.3151C122.129 30.8909 120.074 32.1657 118.594 33.934C114.648 38.6222 114.812 46.2712 119.046 50.7537C121.554 53.4267 125.459 54.7427 129.076 54.0025C132.283 53.3856 135.16 51.2472 136.722 48.3685C139.394 43.4336 138.613 36.6893 134.42 32.8648C131.748 30.3974 127.843 29.4104 124.349 30.3151Z" fill="#FCBD06"/>
<path d="M160.073 24.8871C164.8 21.9262 171.089 21.1037 176.187 23.6534C177.79 24.3525 179.105 25.5451 180.38 26.7377C180.421 25.6273 180.38 24.4759 180.421 23.3244C183.175 23.3655 185.929 23.3244 188.724 23.3655V59.6367C188.683 65.1062 187.286 70.9047 183.339 74.8937C179.023 79.2939 172.405 80.651 166.444 79.7463C160.073 78.8004 154.523 74.1535 152.057 68.2727C154.523 67.0802 157.113 66.1343 159.661 65.024C161.1 68.3961 164.019 71.2748 167.677 71.9328C171.336 72.5907 175.57 71.686 177.954 68.6429C180.503 65.5174 180.503 61.2406 180.38 57.4161C178.489 59.2666 176.31 60.9116 173.679 61.5284C167.965 63.1323 161.676 61.1583 157.277 57.2927C152.838 53.427 150.207 47.4641 150.453 41.5423C150.577 34.8391 154.359 28.3826 160.073 24.8871ZM168.582 30.151C166.074 30.5622 163.731 31.9604 162.128 33.8932C158.264 38.4991 158.264 45.8603 162.169 50.3839C164.389 53.0569 167.965 54.5374 171.418 54.1673C174.666 53.8383 177.667 51.7821 179.27 48.9445C181.983 44.1331 181.531 37.5944 177.872 33.3997C175.611 30.8089 171.994 29.5341 168.582 30.151Z" fill="#3780FF"/>
<path d="M214.373 26.9847C219.306 22.3788 226.911 20.8161 233.242 23.2424C239.243 25.5042 243.066 31.2204 244.998 37.1012C236.078 40.8023 227.199 44.4623 218.279 48.1635C219.512 50.5075 221.403 52.646 223.951 53.5096C227.528 54.7844 231.803 54.332 234.804 51.9469C235.996 51.0421 236.941 49.8495 237.846 48.6981C240.107 50.2197 242.367 51.7001 244.628 53.2217C241.422 58.0332 236.037 61.4053 230.241 61.94C223.828 62.7213 217.004 60.2539 212.852 55.2368C206.029 47.341 206.686 34.0991 214.373 26.9847ZM218.772 34.5926C217.374 36.6077 216.799 39.0751 216.84 41.5014C222.8 39.034 228.761 36.5665 234.722 34.058C233.735 31.7551 231.351 30.3568 228.925 29.9867C225.02 29.2876 220.951 31.3849 218.772 34.5926Z" fill="#FA3913"/>
</g>
<defs>
<clipPath id="clip0_428_2745">
<rect width="245" height="80" fill="white"/>
</clipPath>
</defs>
</svg>
