<svg xmlns="http://www.w3.org/2000/svg" width="90" height="90" fill="none" viewBox="0 0 90 90"><g clip-path="url(#a)"><path fill="#0A1133" fill-rule="evenodd" d="M1 1h2.214V0H0v3.214h1V1Zm10.786 0h6.428V0h-6.428v1Zm15 0h6.428V0h-6.428v1Zm15 0h6.428V0h-6.428v1Zm15 0h6.428V0h-6.428v1Zm15 0h6.428V0h-6.428v1Zm15 0H89v2.214h1V0h-3.214v1ZM1 90h2.214v-1H1v-2.214H0V90h1Zm10.786 0h6.428v-1h-6.428v1Zm15 0h6.428v-1h-6.428v1Zm15 0h6.428v-1h-6.428v1Zm15 0h6.428v-1h-6.428v1Zm15 0h6.428v-1h-6.428v1Zm15 0H90v-3.214h-1V89h-2.214v1ZM0 18.214v-6.428h1v6.428H0Zm0 15v-6.428h1v6.428H0Zm0 15v-6.428h1v6.428H0Zm0 15v-6.428h1v6.428H0Zm0 15v-6.428h1v6.428H0Zm89-66.428v6.428h1v-6.428h-1Zm0 15v6.428h1v-6.428h-1Zm0 15v6.428h1v-6.428h-1Zm0 15v6.428h1v-6.428h-1Zm0 15v6.428h1v-6.428h-1Z" clip-rule="evenodd" opacity=".2"/></g><defs><clipPath id="a"><path fill="white" d="M0 0h90v90H0z"/></clipPath></defs></svg>