<svg width="18" height="18" viewBox="0 0 18 18" fill="none" xmlns="http://www.w3.org/2000/svg">
<g clip-path="url(#clip0_1583_33042)">
<path d="M9 0C4.0297 0 0 4.0297 0 9C0 13.4914 3.29073 17.2142 7.59406 17.892V11.6022H5.30783V9H7.59406V7.0171C7.59406 4.75968 8.93789 3.51485 10.9928 3.51485C11.9775 3.51485 13.009 3.69037 13.009 3.69037V5.90369H11.8713C10.7552 5.90369 10.4059 6.59856 10.4059 7.31053V8.9982H12.9001L12.5014 11.6004H10.4059V17.8902C14.7093 17.216 18 13.4923 18 9C18 4.0297 13.9703 0 9 0Z" fill="currentColor"/>
</g>
<defs>
<clipPath id="clip0_1583_33042">
<rect width="18" height="18" fill="white"/>
</clipPath>
</defs>
</svg>
