<svg width="22" height="22" viewBox="0 0 22 22" fill="none" xmlns="http://www.w3.org/2000/svg">
<path fill-rule="evenodd" clip-rule="evenodd" d="M11.0921 2C6.09146 2 2 6.14856 2 11.219C2 15.2524 4.61399 18.7095 8.25083 19.9771C8.70544 20.0923 8.81909 19.7466 8.81909 19.5162C8.81909 19.2857 8.81909 18.7095 8.81909 17.9028C6.31876 18.479 5.7505 16.7504 5.7505 16.7504C5.29589 15.7133 4.72764 15.3676 4.72764 15.3676C3.93208 14.7914 4.84129 14.7914 4.84129 14.7914C5.7505 14.9066 6.20511 15.7133 6.20511 15.7133C7.00067 17.2114 8.36449 16.7504 8.81909 16.52C8.93274 15.9438 9.16005 15.4828 9.38735 15.2524C7.34162 15.0219 5.29589 14.2152 5.29589 10.6428C5.29589 9.6057 5.63685 8.79904 6.20511 8.22285C6.09146 7.99237 5.7505 7.07047 6.31876 5.80285C6.31876 5.80285 7.11432 5.57237 8.81909 6.72475C9.501 6.49428 10.2966 6.37904 11.0921 6.37904C11.8877 6.37904 12.6832 6.49428 13.3652 6.72475C15.0699 5.57237 15.8655 5.80285 15.8655 5.80285C16.3201 7.07047 16.0928 7.99237 15.9791 8.22285C16.5474 8.91427 16.8884 9.72094 16.8884 10.6428C16.8884 14.2152 14.729 14.9066 12.6832 15.1371C13.0242 15.5981 13.3652 16.1743 13.3652 16.9809C13.3652 18.2485 13.3652 19.1704 13.3652 19.5162C13.3652 19.7466 13.4788 20.0923 14.0471 19.9771C17.6839 18.7095 20.2979 15.2524 20.2979 11.219C20.1842 6.14856 16.0928 2 11.0921 2Z" fill="currentColor"/>
</svg>
