<svg width="18" height="18" viewBox="0 0 18 18" fill="none" xmlns="http://www.w3.org/2000/svg">
<g clip-path="url(#clip0_1583_33047)">
<path fill-rule="evenodd" clip-rule="evenodd" d="M9 0.226562C4.05 0.226562 0 4.27656 0 9.22656C0 13.1641 2.5875 16.5391 6.1875 17.7766C6.6375 17.8891 6.75 17.5516 6.75 17.3266C6.75 17.1016 6.75 16.5391 6.75 15.7516C4.275 16.3141 3.7125 14.6266 3.7125 14.6266C3.2625 13.6141 2.7 13.2766 2.7 13.2766C1.9125 12.7141 2.8125 12.7141 2.8125 12.7141C3.7125 12.8266 4.1625 13.6141 4.1625 13.6141C4.95 15.0766 6.3 14.6266 6.75 14.4016C6.8625 13.8391 7.0875 13.3891 7.3125 13.1641C5.2875 12.9391 3.2625 12.1516 3.2625 8.66406C3.2625 7.65156 3.6 6.86406 4.1625 6.30156C4.05 6.07656 3.7125 5.17656 4.275 3.93906C4.275 3.93906 5.0625 3.71406 6.75 4.83906C7.425 4.61406 8.2125 4.50156 9 4.50156C9.7875 4.50156 10.575 4.61406 11.25 4.83906C12.9375 3.71406 13.725 3.93906 13.725 3.93906C14.175 5.17656 13.95 6.07656 13.8375 6.30156C14.4 6.97656 14.7375 7.76406 14.7375 8.66406C14.7375 12.1516 12.6 12.8266 10.575 13.0516C10.9125 13.5016 11.25 14.0641 11.25 14.8516C11.25 16.0891 11.25 16.9891 11.25 17.3266C11.25 17.5516 11.3625 17.8891 11.925 17.7766C15.525 16.5391 18.1125 13.1641 18.1125 9.22656C18 4.27656 13.95 0.226562 9 0.226562Z" fill="currentColor"/>
</g>
<defs>
<clipPath id="clip0_1583_33047">
<rect width="18" height="18" fill="white"/>
</clipPath>
</defs>
</svg>
