<svg width="18" height="18" viewBox="0 0 18 18" fill="none" xmlns="http://www.w3.org/2000/svg">
<path d="M11.1843 0.299094C10.5861 0.108761 9.93354 0 9.26738 0C7.35046 0 5.62387 0.870091 4.46828 2.2432L7.43203 4.73112L11.1843 0.299094Z" fill="currentColor"/>
<path d="M4.46828 2.2432C3.5574 3.33082 3 4.74472 3 6.26738C3 7.45016 3.23112 8.40182 3.62538 9.25832L7.43203 4.73112L4.46828 2.2432Z" fill="currentColor"/>
<path d="M9.28097 3.87465C10.6133 3.87465 11.6873 4.94867 11.6873 6.281C11.6873 6.86559 11.4698 7.4094 11.1163 7.83085C11.1163 7.83085 13.0061 5.57405 14.855 3.38523C14.0937 1.91695 12.7749 0.802116 11.1843 0.299094L7.43203 4.73112C7.88067 4.2145 8.53324 3.87465 9.28097 3.87465Z" fill="currentColor"/>
<path d="M9.28097 8.6737C7.94865 8.6737 6.87463 7.59968 6.87463 6.26735C6.87463 5.68276 7.07855 5.13898 7.43203 4.73112L3.62538 9.25832C4.27795 10.6994 5.36556 11.8686 6.48037 13.3232L11.1163 7.8172C10.6677 8.34741 10.0151 8.6737 9.28097 8.6737Z" fill="currentColor"/>
<path d="M11.0348 14.8459C13.1284 11.5695 15.5619 10.0876 15.5619 6.28096C15.5619 5.23413 15.3036 4.25532 14.855 3.38523L6.48037 13.3232C6.83384 13.7855 7.20091 14.3157 7.55439 14.8595C8.83233 16.8308 8.47886 18 9.29457 18C10.1103 18 9.7568 16.8172 11.0348 14.8459Z" fill="currentColor"/>
</svg>
