<svg width="22" height="22" viewBox="0 0 22 22" fill="none" xmlns="http://www.w3.org/2000/svg">
<path d="M13.2752 2.30242C12.6704 2.10997 12.0106 2 11.337 2C9.3988 2 7.65302 2.87976 6.48459 4.26813L9.48127 6.78369L13.2752 2.30242Z" fill="#0A1133"/>
<path d="M6.48459 4.26813C5.5636 5.36783 5 6.79744 5 8.33701C5 9.53294 5.23369 10.4952 5.63233 11.3612L9.48127 6.78369L6.48459 4.26813Z" fill="#0A1133"/>
<path d="M11.3508 5.9177C12.6979 5.9177 13.7838 7.00366 13.7838 8.35079C13.7838 8.94188 13.5639 9.49172 13.2065 9.91786C13.2065 9.91786 15.1172 7.63598 16.9867 5.42284C16.2169 3.93825 14.8835 2.81103 13.2752 2.30242L9.48127 6.78369C9.9349 6.26133 10.5947 5.9177 11.3508 5.9177Z" fill="currentColor"/>
<path d="M11.3508 10.7701C10.0036 10.7701 8.91768 9.68412 8.91768 8.33699C8.91768 7.7459 9.12387 7.19608 9.48127 6.78369L5.63233 11.3612C6.29215 12.8183 7.39185 14.0004 8.51904 15.4713L13.2065 9.90406C12.7529 10.4402 12.0931 10.7701 11.3508 10.7701Z" fill="currentColor"/>
<path d="M13.124 17.0109C15.2409 13.698 17.7015 12.1997 17.7015 8.35075C17.7015 7.29229 17.4403 6.3026 16.9867 5.42284L8.51904 15.4713C8.87644 15.9387 9.24759 16.4748 9.60499 17.0246C10.8971 19.0178 10.5397 20.2 11.3645 20.2C12.1893 20.2 11.8319 19.0041 13.124 17.0109Z" fill="currentColor"/>
</svg>
