<svg width="22" height="22" viewBox="0 0 22 22" fill="none" xmlns="http://www.w3.org/2000/svg">
<path d="M15.0325 2H6.96721C4.22829 2 2 4.2284 2 6.96732V15.0326C2 17.7716 4.22829 19.9999 6.96721 19.9999H15.0325C17.7716 19.9999 19.9999 17.7715 19.9999 15.0326V6.96732C20 4.2284 17.7716 2 15.0325 2ZM18.403 15.0326C18.403 16.891 16.891 18.4029 15.0326 18.4029H6.96721C5.1089 18.403 3.59704 16.891 3.59704 15.0326V6.96732C3.59704 5.10901 5.1089 3.59704 6.96721 3.59704H15.0325C16.8909 3.59704 18.4029 5.10901 18.4029 6.96732V15.0326H18.403Z" fill="currentColor"/>
<path d="M11.0004 6.35938C8.44293 6.35938 6.3623 8.44 6.3623 10.9975C6.3623 13.5549 8.44293 15.6354 11.0004 15.6354C13.5579 15.6354 15.6385 13.5549 15.6385 10.9975C15.6385 8.44 13.5579 6.35938 11.0004 6.35938ZM11.0004 14.0383C9.32364 14.0383 7.95934 12.6742 7.95934 10.9974C7.95934 9.3205 9.32353 7.95631 11.0004 7.95631C12.6773 7.95631 14.0415 9.3205 14.0415 10.9974C14.0415 12.6742 12.6772 14.0383 11.0004 14.0383Z" fill="currentColor"/>
<path d="M15.8323 5.00781C15.5246 5.00781 15.2223 5.13238 15.005 5.35064C14.7867 5.56784 14.6611 5.87021 14.6611 6.17897C14.6611 6.48678 14.7868 6.78904 15.005 7.0073C15.2222 7.2245 15.5246 7.35013 15.8323 7.35013C16.1411 7.35013 16.4424 7.2245 16.6606 7.0073C16.8789 6.78904 17.0035 6.48667 17.0035 6.17897C17.0035 5.87021 16.8789 5.56784 16.6606 5.35064C16.4434 5.13238 16.1411 5.00781 15.8323 5.00781Z" fill="currentColor"/>
</svg>
