<svg width="18" height="18" viewBox="0 0 18 18" fill="none" xmlns="http://www.w3.org/2000/svg">
<g clip-path="url(#clip0_1583_33052)">
<path d="M13.0325 0H4.96721C2.22829 0 0 2.2284 0 4.96732V13.0326C0 15.7716 2.22829 17.9999 4.96721 17.9999H13.0325C15.7716 17.9999 17.9999 15.7715 17.9999 13.0326V4.96732C18 2.2284 15.7716 0 13.0325 0ZM16.403 13.0326C16.403 14.891 14.891 16.4029 13.0326 16.4029H4.96721C3.1089 16.403 1.59704 14.891 1.59704 13.0326V4.96732C1.59704 3.10901 3.1089 1.59704 4.96721 1.59704H13.0325C14.8909 1.59704 16.4029 3.10901 16.4029 4.96732V13.0326H16.403Z" fill="currentColor"/>
<path d="M9.00042 4.35938C6.44293 4.35938 4.3623 6.44 4.3623 8.99749C4.3623 11.5549 6.44293 13.6354 9.00042 13.6354C11.5579 13.6354 13.6385 11.5549 13.6385 8.99749C13.6385 6.44 11.5579 4.35938 9.00042 4.35938ZM9.00042 12.0383C7.32364 12.0383 5.95934 10.6742 5.95934 8.99739C5.95934 7.3205 7.32353 5.95631 9.00042 5.95631C10.6773 5.95631 12.0415 7.3205 12.0415 8.99739C12.0415 10.6742 10.6772 12.0383 9.00042 12.0383Z" fill="currentColor"/>
<path d="M13.8323 3.00781C13.5246 3.00781 13.2223 3.13238 13.005 3.35064C12.7867 3.56784 12.6611 3.87021 12.6611 4.17897C12.6611 4.48678 12.7868 4.78904 13.005 5.0073C13.2222 5.2245 13.5246 5.35013 13.8323 5.35013C14.1411 5.35013 14.4424 5.2245 14.6606 5.0073C14.8789 4.78904 15.0035 4.48667 15.0035 4.17897C15.0035 3.87021 14.8789 3.56784 14.6606 3.35064C14.4434 3.13238 14.1411 3.00781 13.8323 3.00781Z" fill="currentColor"/>
</g>
<defs>
<clipPath id="clip0_1583_33052">
<rect width="18" height="18" fill="white"/>
</clipPath>
</defs>
</svg>
