<svg width="22" height="22" viewBox="0 0 22 22" fill="none" xmlns="http://www.w3.org/2000/svg">
<path d="M19.1056 2H2.78261C2.3354 2 2 2.3375 2 2.7875V19.325C2 19.6625 2.3354 20 2.78261 20H19.2174C19.6646 20 20 19.6625 20 19.2125V2.7875C19.8882 2.3375 19.5528 2 19.1056 2ZM7.25466 17.3H4.68323V8.75H7.36646V17.3H7.25466ZM6.02484 7.625C5.13043 7.625 4.45963 6.8375 4.45963 6.05C4.45963 5.15 5.13043 4.475 6.02484 4.475C6.91925 4.475 7.59006 5.15 7.59006 6.05C7.47826 6.8375 6.80745 7.625 6.02484 7.625ZM17.205 17.3H14.5217V13.1375C14.5217 12.125 14.5217 10.8875 13.1801 10.8875C11.8385 10.8875 11.6149 12.0125 11.6149 13.1375V17.4125H8.93168V8.75H11.5031V9.875C11.8385 9.2 12.7329 8.525 13.9627 8.525C16.646 8.525 17.0932 10.325 17.0932 12.575V17.3H17.205Z" fill="currentColor"/>
</svg>
