<svg width="22" height="22" viewBox="0 0 22 22" fill="none" xmlns="http://www.w3.org/2000/svg">
<path d="M12.8372 9.15983C12.4361 8.75881 11.9762 8.44128 11.4794 8.20312C11.1725 8.51166 11.0023 8.92249 11.0023 9.35788C11.0023 9.53219 11.0351 9.69751 11.0858 9.85546C11.2978 9.98722 11.4991 10.1362 11.6799 10.317C12.2978 10.9357 12.6391 11.7574 12.6391 12.6314C12.6391 13.5055 12.2987 14.328 11.6808 14.9467L9.22559 17.401C7.98818 18.6384 5.83253 18.6384 4.59594 17.401C3.97724 16.7823 3.63679 15.9607 3.63679 15.0866C3.63679 14.2126 3.97724 13.3909 4.59512 12.7722L6.31702 11.0503C6.17217 10.5044 6.09196 9.93812 6.09196 9.35788C6.09196 9.2253 6.1026 9.09354 6.11079 8.96259C6.03795 9.02725 5.96348 9.09026 5.89309 9.15983L3.43792 11.615C2.51068 12.5422 2 13.7747 2 15.0866C2 16.3985 2.51068 17.631 3.43792 18.5582C4.36597 19.4863 5.59847 19.997 6.91036 19.997C8.22224 19.997 9.45474 19.4863 10.3828 18.5582L12.838 16.1039C13.7644 15.1758 14.2759 13.9433 14.2759 12.6314C14.2759 11.3196 13.7644 10.0871 12.8372 9.15983Z" fill="currentColor"/>
<path d="M18.5665 3.43873C17.6384 2.51068 16.4059 2 15.094 2C13.7822 2 12.5497 2.51068 11.6216 3.43873L9.16643 5.89309C8.24001 6.82115 7.72852 8.05365 7.72852 9.36553C7.72852 10.6774 8.23919 11.9099 9.16643 12.8372C9.56744 13.2382 10.0274 13.5557 10.5241 13.7939C10.8319 13.4853 11.0021 13.0745 11.0021 12.6391C11.0021 12.4607 10.9685 12.2913 10.9153 12.1301C10.7042 12.0032 10.5037 11.8584 10.3253 11.6799C9.70657 11.0612 9.3653 10.2396 9.3653 9.36553C9.3653 8.49149 9.70575 7.66901 10.3236 7.0503L12.7788 4.59594C13.3975 3.97724 14.22 3.63679 15.094 3.63679C15.9681 3.63679 16.7906 3.97724 17.4093 4.59594C18.0272 5.21465 18.3676 6.03631 18.3676 6.91036C18.3676 7.7844 18.0272 8.60607 17.4093 9.22477L15.6849 10.9491C15.8306 11.4942 15.9124 12.0597 15.9124 12.6391C15.9124 12.7717 15.9026 12.9026 15.8953 13.0336C15.9681 12.9689 16.0426 12.9067 16.1121 12.8372L18.5673 10.382C19.4937 9.45474 20.0044 8.22224 20.0044 6.91036C20.0044 5.59847 19.4937 4.36597 18.5665 3.43873Z" fill="currentColor"/>
</svg>
