<svg width="18" height="18" viewBox="0 0 18 18" fill="none" xmlns="http://www.w3.org/2000/svg">
<g clip-path="url(#clip0_1583_33057)">
<path d="M10.8372 7.15983C10.4361 6.75881 9.97621 6.44128 9.47944 6.20312C9.17254 6.51166 9.00232 6.92249 9.00232 7.35788C9.00232 7.53219 9.03506 7.69751 9.0858 7.85546C9.29776 7.98722 9.49908 8.13617 9.67995 8.31703C10.2978 8.93574 10.6391 9.7574 10.6391 10.6314C10.6391 11.5055 10.2987 12.328 9.68077 12.9467L7.22559 15.401C5.98818 16.6384 3.83253 16.6384 2.59594 15.401C1.97724 14.7823 1.63679 13.9607 1.63679 13.0866C1.63679 12.2126 1.97724 11.3909 2.59512 10.7722L4.31702 9.05031C4.17217 8.50445 4.09196 7.93812 4.09196 7.35788C4.09196 7.2253 4.1026 7.09354 4.11079 6.96259C4.03795 7.02725 3.96348 7.09026 3.89309 7.15983L1.43792 9.615C0.510677 10.5422 0 11.7747 0 13.0866C0 14.3985 0.510677 15.631 1.43792 16.5582C2.36597 17.4863 3.59847 17.997 4.91036 17.997C6.22224 17.997 7.45474 17.4863 8.3828 16.5582L10.838 14.1039C11.7644 13.1758 12.2759 11.9433 12.2759 10.6314C12.2759 9.31956 11.7644 8.08707 10.8372 7.15983Z" fill="currentColor"/>
<path d="M16.5665 1.43873C15.6384 0.510677 14.4059 0 13.094 0C11.7822 0 10.5497 0.510677 9.62161 1.43873L7.16643 3.89309C6.24001 4.82115 5.72852 6.05365 5.72852 7.36553C5.72852 8.67742 6.23919 9.90992 7.16643 10.8372C7.56744 11.2382 8.02738 11.5557 8.52415 11.7939C8.83186 11.4853 9.00209 11.0745 9.00209 10.6391C9.00209 10.4607 8.96853 10.2913 8.91534 10.1301C8.70419 10.0032 8.50369 9.85836 8.32528 9.67995C7.70657 9.06124 7.3653 8.23958 7.3653 7.36553C7.3653 6.49149 7.70575 5.66901 8.32364 5.0503L10.7788 2.59594C11.3975 1.97724 12.22 1.63679 13.094 1.63679C13.9681 1.63679 14.7906 1.97724 15.4093 2.59594C16.0272 3.21465 16.3676 4.03631 16.3676 4.91036C16.3676 5.7844 16.0272 6.60607 15.4093 7.22477L13.6849 8.94912C13.8306 9.49417 13.9124 10.0597 13.9124 10.6391C13.9124 10.7717 13.9026 10.9026 13.8953 11.0336C13.9681 10.9689 14.0426 10.9067 14.1121 10.8372L16.5673 8.38198C17.4937 7.45474 18.0044 6.22224 18.0044 4.91036C18.0044 3.59847 17.4937 2.36597 16.5665 1.43873Z" fill="currentColor"/>
</g>
<defs>
<clipPath id="clip0_1583_33057">
<rect width="18" height="18" fill="white"/>
</clipPath>
</defs>
</svg>
