<svg width="22" height="22" viewBox="0 0 22 22" fill="none" xmlns="http://www.w3.org/2000/svg">
<path d="M11 2C15.971 2 20 6.029 20 11V18.5C20 19.3228 19.3228 20 18.5 20H12.875L12.8742 19.8732C12.8375 17.7027 11.864 16.1968 10.0925 15.4032L20 11L19.76 10.9183C17.6165 10.169 15.8217 9.07175 14.375 7.625C12.929 6.179 11.831 4.3835 11.0817 2.23925L11 2L5 15.5C5 16.0002 5.12525 16.3752 5.375 16.625C5.6255 16.8755 6.0005 17 6.5 17L6.64025 17.0007C9.4685 17.0307 10.625 17.972 10.625 20H3.5C2.67725 20 2 19.3228 2 18.5V3.5C2 2.67725 2.67725 2 3.5 2H11ZM16.4053 5.59475C15.8195 5.009 15.1077 4.772 14.8145 5.0645C14.522 5.357 14.759 6.0695 15.3447 6.65525C15.9305 7.241 16.643 7.47875 16.9355 7.1855C17.2287 6.893 16.991 6.1805 16.4053 5.59475Z" fill="currentColor"/>
</svg>
