<svg width="22" height="22" viewBox="0 0 22 22" fill="none" xmlns="http://www.w3.org/2000/svg">
<path d="M4.8125 9.1875H7.625V15.9375H4.8125V9.1875ZM9.3125 9.1875H17.1875V15.9375H9.3125V9.1875Z" fill="currentColor"/>
<path d="M17.75 3H4.25C3.65326 3 3.08097 3.23705 2.65901 3.65901C2.23705 4.08097 2 4.65326 2 5.25V16.5C2 17.0967 2.23705 17.669 2.65901 18.091C3.08097 18.5129 3.65326 18.75 4.25 18.75H17.75C18.3467 18.75 18.919 18.5129 19.341 18.091C19.7629 17.669 20 17.0967 20 16.5V5.25C20 4.65326 19.7629 4.08097 19.341 3.65901C18.919 3.23705 18.3467 3 17.75 3ZM6.92188 4.6875C7.10836 4.6875 7.2872 4.76158 7.41906 4.89344C7.55092 5.0253 7.625 5.20414 7.625 5.39062C7.625 5.57711 7.55092 5.75595 7.41906 5.88781C7.2872 6.01967 7.10836 6.09375 6.92188 6.09375C6.73539 6.09375 6.55655 6.01967 6.42469 5.88781C6.29283 5.75595 6.21875 5.57711 6.21875 5.39062C6.21875 5.20414 6.29283 5.0253 6.42469 4.89344C6.55655 4.76158 6.73539 4.6875 6.92188 4.6875ZM4.39062 4.6875C4.57711 4.6875 4.75595 4.76158 4.88781 4.89344C5.01967 5.0253 5.09375 5.20414 5.09375 5.39062C5.09375 5.57711 5.01967 5.75595 4.88781 5.88781C4.75595 6.01967 4.57711 6.09375 4.39062 6.09375C4.20414 6.09375 4.0253 6.01967 3.89344 5.88781C3.76158 5.75595 3.6875 5.57711 3.6875 5.39062C3.6875 5.20414 3.76158 5.0253 3.89344 4.89344C4.0253 4.76158 4.20414 4.6875 4.39062 4.6875ZM18.875 16.5C18.875 16.7984 18.7565 17.0845 18.5455 17.2955C18.3345 17.5065 18.0484 17.625 17.75 17.625H4.25C3.95163 17.625 3.66548 17.5065 3.4545 17.2955C3.24353 17.0845 3.125 16.7984 3.125 16.5V7.5H18.875V16.5Z" fill="currentColor"/>
</svg>
