<svg width="18" height="18" viewBox="0 0 18 18" fill="none" xmlns="http://www.w3.org/2000/svg">
<path d="M2.8125 7.1875H5.625V13.9375H2.8125V7.1875ZM7.3125 7.1875H15.1875V13.9375H7.3125V7.1875Z" fill="#0A1133"/>
<path d="M15.75 1H2.25C1.65326 1 1.08097 1.23705 0.65901 1.65901C0.237053 2.08097 0 2.65326 0 3.25V14.5C0 15.0967 0.237053 15.669 0.65901 16.091C1.08097 16.5129 1.65326 16.75 2.25 16.75H15.75C16.3467 16.75 16.919 16.5129 17.341 16.091C17.7629 15.669 18 15.0967 18 14.5V3.25C18 2.65326 17.7629 2.08097 17.341 1.65901C16.919 1.23705 16.3467 1 15.75 1ZM4.92188 2.6875C5.10836 2.6875 5.2872 2.76158 5.41906 2.89344C5.55092 3.0253 5.625 3.20414 5.625 3.39062C5.625 3.57711 5.55092 3.75595 5.41906 3.88781C5.2872 4.01967 5.10836 4.09375 4.92188 4.09375C4.73539 4.09375 4.55655 4.01967 4.42469 3.88781C4.29283 3.75595 4.21875 3.57711 4.21875 3.39062C4.21875 3.20414 4.29283 3.0253 4.42469 2.89344C4.55655 2.76158 4.73539 2.6875 4.92188 2.6875ZM2.39062 2.6875C2.57711 2.6875 2.75595 2.76158 2.88781 2.89344C3.01967 3.0253 3.09375 3.20414 3.09375 3.39062C3.09375 3.57711 3.01967 3.75595 2.88781 3.88781C2.75595 4.01967 2.57711 4.09375 2.39062 4.09375C2.20414 4.09375 2.0253 4.01967 1.89344 3.88781C1.76158 3.75595 1.6875 3.57711 1.6875 3.39062C1.6875 3.20414 1.76158 3.0253 1.89344 2.89344C2.0253 2.76158 2.20414 2.6875 2.39062 2.6875ZM16.875 14.5C16.875 14.7984 16.7565 15.0845 16.5455 15.2955C16.3345 15.5065 16.0484 15.625 15.75 15.625H2.25C1.95163 15.625 1.66548 15.5065 1.4545 15.2955C1.24353 15.0845 1.125 14.7984 1.125 14.5V5.5H16.875V14.5Z" fill="currentColor"/>
</svg>
