<svg width="18" height="18" viewBox="0 0 18 18" fill="none" xmlns="http://www.w3.org/2000/svg">
<path d="M17.8125 5.40156C17.8125 5.40156 17.625 4.16406 17.1 3.60156C16.425 2.88906 15.6375 2.88906 15.3 2.85156C12.7875 2.66406 9 2.66406 9 2.66406C9 2.66406 5.2125 2.66406 2.7 2.85156C2.3625 2.88906 1.575 2.88906 0.9 3.60156C0.375 4.16406 0.1875 5.40156 0.1875 5.40156C0.1875 5.40156 0 6.86406 0 8.32656V9.67656C0 11.1391 0.1875 12.6016 0.1875 12.6016C0.1875 12.6016 0.375 13.8391 0.9 14.4016C1.575 15.1141 2.475 15.1141 2.8875 15.1891C4.3125 15.3391 9 15.3766 9 15.3766C9 15.3766 12.7875 15.3766 15.3 15.1891C15.6375 15.1516 16.425 15.1516 17.1 14.4391C17.625 13.8766 17.8125 12.6391 17.8125 12.6391C17.8125 12.6391 18 11.1766 18 9.71406V8.36406C18 6.86406 17.8125 5.40156 17.8125 5.40156ZM7.125 11.3266V6.26406L12 8.81406L7.125 11.3266Z" fill="currentColor"/>
</svg>
