<svg width="22" height="22" viewBox="0 0 22 22" fill="none" xmlns="http://www.w3.org/2000/svg">
<path d="M11.4874 18.9803L6.97385 18.899C5.51246 18.8706 4.04744 18.9272 2.61471 18.6335C0.435191 18.1946 0.280786 16.0428 0.119218 14.2378C-0.103406 11.7002 -0.0172219 9.11653 0.402899 6.60012C0.640072 5.18814 1.57344 4.34561 3.01686 4.25393C7.88948 3.92119 12.7945 3.96062 17.6563 4.11586C18.1698 4.13009 18.6868 4.20787 19.1931 4.2964C21.6923 4.7282 21.7533 7.16673 21.9153 9.21951C22.0768 11.2935 22.0086 13.3781 21.6998 15.4379C21.4521 17.1434 20.978 18.5736 18.9776 18.7117C16.4712 18.8923 14.0223 19.0376 11.5089 18.9913C11.509 18.9803 11.4946 18.9803 11.4874 18.9803ZM8.83387 14.6625C10.7226 13.5936 12.5754 12.5425 14.4534 11.4808C12.5611 10.4118 10.7118 9.36073 8.83387 8.29898V14.6625Z" fill="currentColor"/>
</svg>
