<svg xmlns="http://www.w3.org/2000/svg" width="1696" height="172" fill="none" viewBox="0 0 1696 172"><g clip-path="url(#a)"><path fill="#DFEFF2" d="M288.173 96.437h-10.666v10.714h10.666v10.713h10.665v-10.713h-10.665V96.437h10.665V85.723h-10.665v10.714ZM53.538 75.01H42.872v10.713h10.666V75.01ZM10.666 118.335H0v10.714h10.666v-10.714ZM53.538 96.437H32.207v10.714h21.331V96.437ZM128.198 75.01h-10.666v10.713h10.666V75.01ZM149.519 161.21h-10.666v10.713h10.666V161.21ZM192.671 107.151h-10.666v10.713h10.666v-10.713ZM10.985-1.086H0v11.823h10.985V-1.086Z"/><path fill="#DFEFF2" d="M1696 21.541V-.996h-618.6v11.793l-10.66.02v10.694h-10.67V10.817l10.67-.02V-1.006L21.541-1.086v11.823H10.985v10.874H0v21.247h10.865v10.714h10.676v10.724H0v32.14h10.666V75.02h32.206V53.582h10.656V42.858h10.676v10.714H53.538v10.724h10.666v21.427H53.538v10.714h21.331V75.019h10.656v10.704h10.666v10.714h10.665V75.019h10.666V64.306H96.191V75.01H85.525V64.305h10.666V42.858h10.665v10.714h10.676v10.724h10.656V53.582h10.665v21.437h10.666v10.704h21.331V64.306h-10.665V75.01h-10.666V64.296h10.666V42.858h10.665v21.438h10.666v10.723h10.666v10.704h10.665V64.306h-10.665V53.582h-10.666V42.858h10.666V32.155h10.665v10.703h-10.665v10.714h10.665v10.724h21.332V53.582h10.665v10.714h-10.665v10.713h-10.666v10.714h10.666V75.02h21.331v10.704h10.666v10.714h10.665V75.019h10.666v10.704h10.666V64.306h-10.666V42.858h10.666v21.438h10.665v10.713h21.332v10.704h10.665V75H320.17V53.572h10.665V42.858h10.666v10.714h-10.666v10.714h10.666v21.427h-10.666v10.724h21.332V75.01h10.665v10.703h10.666v10.724h10.666V75.01h10.655v10.703h10.666V75h-10.656V64.296h-21.331v10.703h-10.666V64.296h10.666V42.858h10.666v10.714h10.655v10.714h10.666V53.572h10.676V75.01h10.655V64.285h10.666V42.858h-10.666V32.145h10.666v10.713h10.666v21.428h10.665V75.01h10.666v10.703h10.666V64.296h-10.666V53.572h-10.666V42.858h10.666V32.145h10.666v10.713h-10.666v10.714h10.666v10.714h21.331V53.572h10.666v10.714h-10.666v10.713H490.81v10.714h10.666V75.01h21.331v10.703h10.666v10.724h10.665V75.01h10.666v10.703h10.666V64.296h-10.666V42.858h10.666V32.145h10.665v10.713H565.47v21.428h10.665V75.09h21.332V53.662h10.665V42.938h10.666v10.714h-10.666v10.724h10.666v21.427h-10.666v10.714h21.332V75.09h10.665V64.376h10.666V42.938h10.666v10.714h10.665v10.724h10.666V53.662h10.666V75.09h10.665V64.376h10.666V42.938h10.666v21.438h10.655V75.09h10.666v10.713h10.676V64.376h-10.666V53.662H736.11V42.938h10.666V32.225h10.676v10.713h-10.666v10.714h10.666v10.724h21.321V53.662h10.666l.01-.01-.01 10.724h-10.666V75.09h21.341V53.662h10.656l.01-10.724h10.656v10.714H810.78v10.724h10.656V75.09h10.665v10.713h10.666V64.376h-10.666V42.938h10.666v21.438h10.666V75.09h21.331V53.662h10.666V42.938h10.665v10.714H885.43v10.724h10.665v21.427H885.43v10.714h21.331V75.09h10.666V64.376h10.665V42.938h10.666v10.714h10.666v10.724h10.665V53.662h10.656l.01-.01V75.09h10.666V64.376h10.665V42.938h-10.665V32.225h10.665v10.713h10.654v21.438h10.67V75.09h10.66v10.713h10.67V64.376h-10.66V53.662l-10.67-.01V42.938h10.66V32.225h10.67v10.713h-10.66v10.714h10.67v10.724h21.32V53.662h10.67v10.714h-10.67V75.09h21.33V53.662h10.67l.01-10.724h10.65v10.714h-10.65v10.724h10.65V75.09h10.67v10.713h10.66V64.376h-10.66V42.938h10.66v21.438h10.67V53.662h10.67v10.714h-10.67V75.09h21.33v-.07h21.33v10.703h10.67V75.01h-10.67V53.582h10.67V42.858h10.66v10.714h-10.66v10.724h10.66v21.427h-10.66v10.714h21.33V75.019h10.67v10.704h10.66v10.714h10.67V75.019h10.66v10.704h10.67V75.01h-10.67V64.305h-21.33V75.01h-10.66V64.305h10.66V42.858h10.67v10.714h10.66v10.724h10.67V53.582h10.66v21.437h10.67v10.704h21.33V64.306h-10.67V75.01h-10.66V64.305h10.66V42.858h10.67v21.438h10.67v10.723h10.66v10.704h10.67V64.306h-10.67V53.582h-10.66V42.858h10.66v10.714h10.67v10.724h21.33V53.582h10.66v10.714h-10.66v10.713h-10.67v10.714h10.67V75.02h21.33v10.704h10.66v10.714h10.66V75.01h-21.32V53.582h10.66l.01-10.724h10.65v10.714h-10.65v10.724h10.66v10.723h10.66v10.704h10.66V64.306h-10.66V42.858h10.66v21.438h10.67V75.1h21.33v10.703h10.67V75.09h-10.66V53.672h10.66V42.948h10.66v10.724h-10.66v10.714h10.66v21.417h.01-10.67v10.714h21.34V75.09h10.66v10.703h10.66v10.724h10.66V75.09h10.67v10.703h10.67V75.08h-10.67V64.376h-21.33v10.703h-10.66V64.376h10.66V42.938h10.66v10.714h10.67v10.724h10.67V53.662h10.66V75.09h10.67v10.703h21.33V64.376h-10.67v10.703h-10.66V64.376h10.66V42.938h10.67v21.438h10.66V75.09h10.67v10.703h10.66V64.376h-10.66V53.662h-10.67V42.938h10.67v10.714h10.66v10.724h21.34V53.662h10.66v10.714h-10.66v10.703h-10.67v10.714h10.67V75.09h21.33v10.703H1664v10.724h10.67V75.09h10.66v10.703H1696V64.376h-10.67V42.938H1696V32.225h-10.67V21.53H1696v.01ZM53.538 32.145H42.872V21.45h10.666v10.694Zm31.987 21.427H74.869V32.154h10.656v21.418Zm42.663-21.428h-10.656V21.452h10.656v10.694Zm106.656-10.713h-10.665V10.737h10.665v10.694Zm31.997 32.14h-10.665v10.725h10.665v10.713H245.51V53.583h10.666V42.858h10.665v10.714Zm95.991 0h-10.665V32.146h10.665v21.427Zm21.332-32.14h-10.666V10.727h10.666v10.704Zm117.312 0V10.727h10.666v10.704h-10.666Zm10.666 21.427V32.145h10.665v10.713h-10.665Zm31.996 10.714h-10.665v10.714h10.665v10.713h-21.331V53.572h10.666V42.858h10.665v10.714Zm95.991.08h-10.665V32.225h10.665v21.427Zm21.332-32.141h-10.666V10.817h10.666v10.694Zm127.978 0h-10.666V10.817l10.666-.02v10.714Zm10.665 21.427h-10.655V32.225h10.655v10.713Zm42.663-10.713h-10.666V21.53h10.666v10.694Zm74.66 21.427h-10.666V32.225h10.666v21.427Zm21.331-32.141h-10.666V10.817h10.666v10.694Zm202.642 0h-10.67V10.817h10.67v10.694Zm74.66 32.06h-10.67V32.156h10.67v21.417Zm21.33-32.14h-10.67V10.737h10.67v10.694Zm127.98 0h-10.66V10.737h10.66v10.694Zm53.32 10.713h-10.65V21.452h10.65v10.694Zm10.67 10.714h-10.66V32.155h10.66v10.703Zm64 10.804h-10.66V32.235h10.66v21.427Zm21.32-32.141h-10.66V10.827h10.66v10.694Zm127.99 0h-10.66V10.827h10.66v10.694Zm32 32.151H1664v10.714h10.67V75.09h-21.33V53.672H1664V42.948h10.67v10.724Z"/><path fill="#DFEFF2" d="M181.516 85.723H170.85v10.714h10.666V85.723ZM160.185 117.854v10.714h-10.666v-10.704h-21.331v-10.713h-9.697V96.437h9.697V85.723h21.331v32.131h10.666ZM83.108 107.151H72.443v10.713h10.665v-10.713ZM245.51 107.151h-10.666v10.713h10.666v-10.713ZM256.176 96.437H245.51v10.714h10.666V96.437ZM266.841 117.854h-10.665v10.714h10.665v-10.714ZM234.844 128.578h-10.665v10.714h10.665v-10.714ZM202.847 107.151h10.666V85.723h-10.666v21.428ZM105.408 128.578H94.743v10.714h10.665v-10.714ZM725.455 64.376v21.427h-21.332V75.09h10.666V64.376h10.666ZM704.123 161.29h-10.665v10.714h10.665V161.29ZM747.265 107.231H736.6v10.713h10.665v-10.713ZM736.12 85.803h-10.665v10.714h10.665V85.803ZM757.452 107.231h10.665V85.803h-10.665v21.428ZM789.439 128.658h-10.666v10.714h10.666v-10.714ZM778.773 75.09h-10.656v10.713h10.656V75.09ZM637.703 107.231h-10.666v10.713h10.666v-10.713ZM608.132 96.517h-21.331v10.714h21.331V96.517ZM821.436 75.09v21.427H810.77V85.803h-10.656V75.09h21.322ZM608.132 75.09h-10.665v10.713h10.665V75.09ZM672.126 64.376V75.09h-10.665v21.427h-10.666V85.803h-10.666V75.09h10.666V64.376h21.331ZM682.792 75.09h-10.666v10.713h10.666V75.09ZM704.123 117.934v-32.13h-21.331v10.713h-10.646v10.714h10.646v10.713h21.331v10.704h10.666v-10.714h-10.666Zm-10.665-10.703h-10.666V96.517h10.666v10.714ZM660.013 128.658h-10.666v10.714h10.666v-10.714ZM821.446 117.934H810.78v10.714h10.666v-10.714ZM810.77 96.517v10.714h-10.656v10.713h-10.665v-10.713h10.655V96.517h10.666ZM842.767 96.517h-10.666v10.714h10.666v10.713h10.666v-10.713h-10.666V96.517h10.666V85.803h-10.666v10.714ZM1696 96.527h-10.67v10.714H1696V96.527ZM1568.01 117.944v10.714h-10.66v-10.704h-21.33v-10.713h-9.7V96.527h9.7V85.813h21.33v32.131h10.66ZM1557.35 161.29h-10.67v10.714h10.67V161.29ZM1600.49 107.241h-10.67v10.713h10.67v-10.713ZM1610.67 107.241h10.67V85.813h-10.67v21.428ZM1589.34 85.813h-10.66v10.714h10.66V85.813ZM1674.67 117.944H1664v10.714h10.67v-10.714ZM1653.34 107.241h-10.67v10.713h10.67v-10.713ZM1664 96.527h-10.66v10.714H1664V96.527ZM1642.67 128.668h-10.66v10.714h10.66v-10.714ZM1513.24 128.668h-10.67v10.714h10.67v-10.714ZM1490.94 107.241h-10.67v10.713h10.67v-10.713ZM1461.36 96.527h-21.33v10.714h21.33V96.527ZM330.835 96.437h-21.331v10.714h21.331V96.437ZM360.406 107.141H349.74v10.713h10.666v-10.713ZM480.155 107.151h10.665V85.723h-10.665v21.428ZM512.142 128.568h-10.666v10.714h10.666v-10.714ZM469.968 107.141h-10.665v10.713h10.665v-10.713ZM565.47 96.437h-10.666v10.714h10.666v10.703h10.665v-10.713H565.47V96.437h10.665V85.723H565.47v10.714ZM458.813 85.723h-10.665v10.714h10.665V85.723ZM522.807 107.141h-10.665v10.713h10.665v-10.703h10.666V96.437h-10.666v10.704ZM544.138 117.844h-10.665v10.714h10.665v-10.714ZM405.485 85.723v10.714h-9.697v10.714h9.697v10.703h21.331v-32.13h-21.331Zm9.697 21.418h-9.697V96.437h9.697v10.704ZM426.826 161.2h-10.665v10.713h10.665V161.2ZM382.706 128.568H372.04v10.714h10.666v-10.714ZM448.158 64.296v21.417h-21.332V75h10.656l.01-10.703h10.666ZM437.492 117.844h-10.666v10.714h10.666v-10.714ZM1235.94 128.578h-10.67v10.714h10.67v-10.714ZM1213.63 107.151h-10.67v10.713h10.67v-10.713ZM1280.05 161.21h-10.67v10.713h10.67V161.21ZM1280.05 85.723h-21.33v10.714h-9.7v10.714h9.7v10.713h21.33v10.704h10.66v-10.714h-10.66v-32.13ZM1184.06 96.437h-21.33v10.714h21.33V96.437ZM1312.05 85.723h-10.67v10.714h10.67V85.723ZM1418.69 96.437h-10.65v10.714h10.65v10.713h10.67v-10.713h-10.66V96.437h10.66V85.723h-10.67v10.714ZM1333.38 107.151h10.66V85.723h-10.66v21.428ZM1323.19 107.151h-10.66v10.713h10.66v-10.713ZM1397.37 117.854h-10.66v10.714h10.66v-10.714ZM1365.37 128.578h-10.66v10.714h10.66v-10.714ZM1376.03 96.437h10.67v10.714h-10.66v10.713h-10.67v-10.713h10.66V96.437ZM949.424 64.376V75.09h-10.666v21.427h-10.666V85.803h-10.665V75.09h10.665V64.376h21.332ZM960.089 75.09h-10.665v10.713h10.665V75.09ZM937.3 128.658h-10.666v10.714H937.3v-10.714ZM915 107.231h-10.666v10.713H915v-10.713ZM885.43 96.517h-21.332v10.714h21.332V96.517ZM1056.07 75.09h-10.67v10.713h10.67V75.09ZM885.43 75.09h-10.666v10.713h10.666V75.09ZM1098.73 117.934h-10.65v10.714h10.65v-10.714ZM1066.74 128.658h-10.67v10.714h10.67v-10.714ZM1024.56 107.231h-10.66v10.713h10.66v-10.713ZM1098.73 75.09v21.427h-10.66V85.803h-10.66V75.09h21.32ZM1077.4 107.231h-10.66v10.713h10.66v-10.713ZM1088.07 96.517h-10.67v10.714h10.67V96.517ZM1152.06 107.231h-10.66v10.713h10.66v-10.713ZM1120.06 96.517h-10.66v10.714h10.66v10.713h10.67v-10.713h-10.67V96.517h10.67V85.803h-10.67v10.714ZM1034.75 107.231h10.66V85.803h-10.66v21.428ZM981.421 161.29h-10.666v10.714h10.666V161.29ZM1002.75 64.376v21.427h-21.329V75.09h10.665V64.376h10.664ZM981.421 117.934v-32.13h-21.332v10.713h-10.665v10.714h10.665v10.713h21.332v10.704h10.665v-10.714h-10.665Zm-10.676-10.703h-10.656V96.517h10.656M1013.41 85.803h-10.67v10.714h10.67V85.803ZM1200.55 64.296h-2.26v.01h2.26v-.01ZM1198.29 53.572H1196v.01h2.29v-.01Z"/><path fill="#DFEFF2" d="M1200.55 64.296H1196v.01h4.55v-.01ZM1256.73 64.296h-8.68v.01h8.68v-.01Z"/></g><defs><clipPath id="a"><path fill="white" d="M0 0h1696v172H0z"/></clipPath></defs></svg>