<svg xmlns="http://www.w3.org/2000/svg" width="1704" height="172" fill="none" viewBox="0 0 1704 172"><path fill="#DFEFF2" fill-rule="evenodd" d="M149.727 171.898h-10.68v-10.712h10.68v10.712Zm-44.176-32.626h-10.68v-10.713h10.68v10.713Zm129.615 0h-10.68v-10.713h10.68v10.713Zm-42.234-21.428h-10.68v-10.712h10.68v10.712Zm-11.166-21.412h-10.68V85.72h10.68v10.712ZM149.727 85.71h21.359V74.998h-21.359V85.71Zm21.359-21.42h10.68V53.579h-10.68v10.706h-10.68V53.578h-21.359V74.997h10.68V64.29h10.679v10.706h10.68V64.29Zm21.359 10.707h-10.677V53.578h10.679v10.706h10.678v10.713H192.445Zm32.041 0h21.36V53.578h-10.68v10.706h-10.679V53.578h-21.36v10.713h21.359v10.706Zm42.719-10.706h-10.68V53.578h21.36V74.997h-10.68V64.29Zm0 32.141V85.72h-10.68v10.706h-10.679v10.706h-10.68v10.712h10.68v-10.706h10.68V96.432h10.679Zm21.361-21.434V85.71h-10.679V74.998h10.679Zm-74.759-21.429h-10.68V32.151h32.039v10.706h10.68V32.15h42.719v10.712h-10.68V53.57h-10.68V42.863h-10.68l.001 10.706h-42.719ZM203.125 85.71h-10.68V74.998h10.68V85.71Zm.002 21.428h10.68V85.72h-10.68v21.418Zm-32.041-53.569h10.68V32.151h-21.36v10.706h-10.679V32.15h-32.039v21.418h42.718V42.863h10.68V53.57Zm128.16 10.722h-10.68v10.706h-10.679V64.284h10.679V53.578h10.68v10.713Zm-32.041 21.42V74.998h-21.36V85.71h21.36Zm21.361-32.142h10.68V42.857h-10.68v10.712Zm-96.121 0h10.68V42.857h-10.678V32.15h-10.679v10.712h10.677V53.57Zm21.362 32.141h10.68V74.998h-10.68V85.71Zm64.078 21.428h10.68V96.426h-10.68v10.712Zm21.361-10.706h-10.68V85.72h10.68v10.712Zm-10.68 21.412h10.68v-10.712h-10.68v10.712Zm-21.361 10.714h-10.68v-10.713h10.68v10.713Zm-117.478 0h10.679v-10.713h-10.679v10.713Zm0-10.714h-21.36v-10.706h-9.709V96.426h9.709V85.72h21.36V117.844Zm-20.389-10.712h9.709v-10.7h-9.709v10.7Zm-56.799 10.712h10.68v-10.712h-10.68v10.712Zm-61.86 11.184H0v-10.713h10.68v10.713Zm42.928-32.596h10.68V85.72h-10.68v10.712Zm10.68-32.141h-10.68V53.578h10.68v10.713Zm21.36 10.706H64.289V53.578H96.327v10.706h10.677v10.713h-10.68V64.29H85.647v10.706Zm-42.721 32.141h-10.68V96.426h21.36v10.712h-10.68Zm21.363-10.706h10.68V85.72h-10.68v10.712Zm0-42.863h10.68V32.151h-10.68v21.418Zm32.037 0h-10.68V32.151H107.005v10.712H96.326V53.57ZM0 42.863h10.879V53.57h10.68V32.151H12v-.002h9.559V10.731H11V.001H0v11.026h10.879v9.086H0v22.75Zm117.686-10.712v21.418h-10.68V32.151h10.68Zm.002 32.14h10.679V53.578h-10.679v10.713ZM42.926 85.71h10.68V74.998h-10.68V85.71Zm0-10.714H0V64.284H21.569V53.578h21.357V74.997Zm0-21.428H21.568V32.151H53.606v21.418h-10.68Zm0-21.42H21.568V10.731H53.606v10.713h-10.68v10.705Zm0-21.427H21.568V.009H53.606v10.713h-10.68Zm64.08 0h10.68V.009h-10.68v10.713Zm-42.719.009v21.418h-10.68V10.731h10.68Zm-10.68-.01h10.68V.01h-10.68v10.713Zm85.44 0h-21.359V.01h64.078v10.713h-42.719Zm-53.4 21.428H64.288V10.731H96.327v10.706h10.677v10.712H85.647Zm0-21.427H64.288V.009h42.715v10.713H85.647Zm21.359 10.715V10.731h10.68v21.418h-10.68V21.437Zm21.361 10.712h53.399V10.731h-64.078v10.713h10.679v10.705Zm74.76 0H277.885V21.443h10.68V10.732h-53.399v10.706h-10.679V10.731h-21.36v21.418Zm0-21.427H288.565V.009H203.127v10.713Zm-10.68 21.427h10.678V10.731h-21.357v21.418h10.679Zm0-21.427h10.678V.009h-21.357v10.713h10.679Zm96.119 10.715V10.731h10.68v21.418h-10.68V21.437Zm10.68-10.715h-10.68V.009h10.68v10.713ZM64.287 42.863h-10.68V32.151h10.68v10.712Zm.002 42.847h10.68V74.998h-10.68V85.71Zm64.078 0h-10.679V74.998h10.679V85.71Zm-21.361-10.713h10.68V64.284h-10.68v10.713ZM96.326 85.71h10.678V74.998H85.647V85.71h10.679Zm-85.646 0H0V74.998h10.68V85.71Zm85.644 10.722h10.68V85.72h-10.68v10.712Zm-85.644 0H0V85.72h10.68v10.712ZM705.086 171.992h-10.68V161.28h10.68v10.712Zm-44.176-32.627h-10.68v-10.712h10.68v10.712Zm129.614 0h-10.68v-10.712h10.68v10.712Zm-42.235-21.427h-10.68v-10.713h10.68v10.713Zm-11.166-21.412h-10.68V85.813h10.68v10.713Zm-32.037-10.722H726.444V75.092H705.086v10.712Zm21.357-32.132h21.36V75.09h-10.68V64.384h-10.679V75.09h-10.68V64.384h-10.678V75.09h-10.68V53.672h21.36v10.706h10.677V53.672Zm53.401 21.418h10.68V64.378h-10.68V53.672H758.486v10.713H779.844V75.09Zm42.718-10.706h-10.675V53.672H833.242v10.706h10.682V53.672h10.68v10.713h-10.68V75.09h-21.36V64.384h-.002Zm0 32.142V85.813h-10.679V96.52h-10.68v10.706h-10.678v10.713h10.68v-10.706h10.678V96.526h10.679Zm21.362-21.434v10.712h-10.68V75.092h10.68Zm-74.76-21.43h-10.678V32.245H790.524V53.663h-21.36Zm21.361 0H811.883V32.245h-10.68V42.95h-10.678v10.713Zm-32.04 32.142h-10.68V75.092h10.68v10.712Zm.001 21.428h10.68V85.813h-10.68V107.232Zm-32.043-53.57h10.68V42.958h10.68V32.245h-32.039V42.95h-10.678V32.244h-10.68V53.663h21.36V42.957h10.677v10.706Zm21.362 21.428h10.68V64.378h-10.68V75.09Zm53.4 0h-10.68V53.672h10.68V75.09Zm21.357 10.714V75.092h-21.355v10.712h21.355Zm10.68-32.141h-10.68V42.957h-10.675V32.245H833.242v21.418Zm10.682 0h10.68V42.95h-10.68V32.244h-10.68v10.713h10.68v10.706Zm-96.119 0h10.68V42.95h-10.68v10.713Zm21.359 32.141h10.68V75.092h-10.68v10.712Zm64.08 21.428h10.68v10.706h10.68v-10.713h-10.68v-10.7h10.68V85.814h-10.68V96.52h-10.68v10.713Zm-10.677 21.419h-10.68v-10.712h10.68v10.712Zm-117.481 0h10.68v-10.712h-10.68v10.712Zm0-10.713h-10.68V85.813h10.68v32.125Zm-20.39-21.412h9.709V85.813h-10.68V96.52h-9.709v10.713h9.709v10.706h10.68v-10.713h-9.709v-10.7Zm-56.798 21.412h10.68v-10.713h-10.68v10.713Zm-18.935-21.419h-21.358v10.713h21.36V96.526h10.678V85.813h-10.68V96.52Zm0-32.135h10.68V53.672h-10.68v10.713Zm32.043 10.706V64.384h10.68V75.09h21.357V64.384h10.68V53.672h-10.68v10.706h-21.357V53.672h-32.04V75.09h21.36Zm-10.68 21.436h-10.68V85.813h10.68v10.713Zm0-42.863h-10.68V32.244h10.68V53.663Zm10.68 0h10.68V42.957h10.677v10.706h21.36V32.244h-42.717V53.663Zm-42.721 32.141h10.68V75.092h-10.68v10.712Zm0-10.714h-21.359V53.672h21.359V75.09Zm0-21.427h-21.359V32.244H619.643v10.713h-10.678v10.706h-10.68Zm0-21.42h-21.359V10.825H619.643v21.418h-10.68V21.537h-10.678v10.706Zm0-21.427h-21.359V.103H619.643v10.713H598.285Zm64.08 0h21.358V.103h-64.077v10.713h42.719Zm32.04 0h-10.68V.103h10.68v10.713Zm-64.079.009h21.36V21.53h10.677V10.825h21.36v10.712h-10.68v10.706h-53.397V10.825h10.68Zm74.76-.01h42.717V.104H694.406v10.713h10.68Zm-10.681 21.428h-10.68V10.825h10.68v21.418Zm74.759 0h-10.678V10.825H779.844V21.53h10.68v10.712h-21.36Zm0-21.427h-10.678V.103H790.524v10.713h-21.36Zm-10.679 21.427h-10.68V10.825h10.68v21.418Zm0-21.427h-10.68V.103h10.68v10.713Zm-42.719 21.427h32.037V10.825H694.406v21.418h21.36Zm117.476 0H811.887V10.825H833.242v21.418Zm-32.037-21.427h10.678V.103H790.525v10.713H801.205Zm10.682 0H833.242V.103H811.887v10.713Zm32.037 10.721h-10.68V10.825h21.36v21.418h-10.68V21.537Zm0-10.721h-10.68V.103h21.36v10.713h-10.68Zm-32.041 21.427H790.525V10.825H811.883v21.418Zm-128.158.002v21.418h10.68V32.244h-10.68Zm-64.079 53.56h10.68V75.091h-10.68v10.712Zm64.077 0h-10.68V75.091h10.68v10.712Zm-32.037 0h10.679V75.091h-21.359v10.712h10.68Zm10.679 10.72h-10.679V85.814h10.679v10.713ZM1559.48 172h-10.68v-10.712h10.68V172Zm-54.85-32.627h10.68v-10.712h-10.68v10.712Zm129.61 0h10.68v-10.712h-10.68v10.712Zm-42.23-21.427h10.68v-10.713h-10.68v10.713Zm-11.17-21.412h10.68V85.82h-10.68v10.713Zm-10.68-10.722h-10.68V75.1h21.36v10.712h-10.68Zm21.36-32.132h-10.68v10.706h-10.68V53.68h-21.36v21.418h10.68V64.392h10.68v10.706h10.68V64.392h10.68v10.706h10.68V53.68h-10.68Zm53.4 21.418h-10.68V64.392h-21.36V53.68h21.36v10.706h10.68v10.712Zm21.36-10.706h10.68v10.706h21.36V65.16h5.68V42.103h-5.68v-9.022h5.68V0h-6v.111h-10.36v10.712H1698v.01h-10.36v10.712H1698V32.252h-10.36v10.713H1698v21.421h-10.36V53.68h-21.36v10.712Zm10.68 21.43v10.712h-10.68v10.706h-10.68v10.706h-10.68v-10.713h10.68V96.527h10.68V85.821h10.68Zm21.36-10.722v10.109h5.68v12.03h-5.68v10.001h-10.68V96.527H1698V85.812h-10.36V75.1h10.68Zm-85.44-21.43h32.04V32.253h-32.04V53.671Zm42.72 0h-10.68V42.959h10.68V32.252h10.68V53.671h-10.68Zm-53.4 32.142h10.68V75.1h-10.68v10.712Zm21.36 21.428h-10.68V85.821h10.68V107.24Zm-32.04-53.57h-10.68V42.966h-10.68V53.67h-21.36V32.252h10.68v10.706h10.68V32.252h32.04v10.713h-10.68V53.67Zm21.36 21.428h-10.68V64.386h10.68v10.712Zm32.04 0h10.68V53.68h-10.68v21.418Zm32.04.002v10.712h-21.36V75.1h21.36Zm0-21.43h10.68V32.253h-21.36v10.713h10.68V53.67Zm-64.08 0h-10.68V42.959h10.68v10.713Zm21.36 32.142h-10.68V75.1h10.68v10.712ZM1704 118.29h-6v-11.027h6v11.027Zm-37.72 10.369h10.68v-10.712h-10.68v10.712Zm-96.12 0h-10.68v-10.712h10.68v10.712Zm-21.36-10.713h10.68V85.821h-10.68v32.125Zm0-21.412h-9.71v10.699h9.71v10.713h-10.68V107.24h-9.71V96.527h9.71V85.821h10.68v10.713Zm-55.83 21.412h-10.68v-10.713h10.68v10.713Zm-40.29-21.419h10.68V85.821h10.68v10.713h-10.68v10.706H1442V96.527h10.68Zm21.36-32.135h-10.68V53.68h10.68v10.712Zm32.04 0h-10.68v10.706h-21.36V53.68h32.04v10.706h21.36V53.68h10.68v10.712h-10.68v10.706h-21.36V64.392Zm-32.04 32.142h10.68V85.82h-10.68v10.713Zm0-42.863h10.68V32.252h-10.68V53.671Zm32.04 0h-10.68V32.252h42.72V53.671h-21.36V42.965h-10.68V53.67Zm-42.72 32.141h-10.68V75.1h10.68v10.712ZM1442 75.098h10.68V53.68h-21.36v21.418H1442Zm0-21.427h21.36V42.965h10.68V32.252h-42.72V53.671H1442Zm0-21.42h10.68V21.545h10.68v10.706h10.68V10.833h-42.72V32.25H1442Zm0-21.428h32.04V.111h-42.72v10.712H1442Zm85.44 0h-53.4V.111h64.08v10.712h-10.68Zm10.68 0h10.68V.111h-10.68v10.712Zm-64.08 10.722v10.706h53.4V21.545h10.68V10.833h-21.36v10.705h-10.68V10.833h-32.04v10.712Zm96.12-10.722h-21.36V.111h53.4v10.712h-32.04Zm-32.04 21.428h10.68V10.833h-10.68V32.25Zm74.76 0h32.04V21.539h-10.68V10.832h-21.36V32.25Zm0-21.428h32.04V.111h-32.04v10.712Zm-10.68 21.428h10.68V10.833h-10.68V32.25Zm0-21.428h10.68V.111h-10.68v10.712Zm-21.36 21.428h-32.04V10.833h53.4V32.25h-21.36Zm96.12 0h10.68V10.833h-21.36V32.25h10.68Zm-10.68-21.428h-21.36V.111h21.36v10.712Zm10.68 0h-10.68V.111h21.36v10.712h-10.68Zm-10.68 21.428h-21.36V10.833h21.36V32.25Zm-128.16.001V53.671h10.68V32.252h-10.68Zm-64.08 53.56h10.68V75.1h-10.68v10.712Zm64.08 0h-10.68V75.1h10.68v10.712Zm-32.04 0h10.68V75.1h-21.36v10.712h10.68Zm10.68 10.722h-10.68V85.82h10.68v10.713Z" clip-rule="evenodd"/><path fill="#DFEFF2" fill-rule="evenodd" d="M427.406 171.891h-10.679v-10.713h10.679v10.713Zm-44.175-32.627h-10.68v-10.713h10.68v10.713Zm129.613 0h-10.68v-10.713h10.68v10.713Zm-42.234-21.428h-10.68v-10.712h10.68v10.712Zm-11.166-21.412h-10.68V85.712h10.68v10.712Zm-32.038-10.721h21.36V74.99h-21.36v10.713Zm21.358-32.133h21.359V74.99h-10.68V64.283h-10.677v10.706h-10.68V64.283h-10.68v10.706h-10.679V53.57h21.359v10.705h10.678V53.571Zm53.4 21.419h10.68V64.276h-10.678V53.571h-21.359v10.712h21.357v10.706Zm32.043-10.706h10.678v10.706h21.359V64.283h10.68V53.57h-10.68v10.705h-10.679V53.571H534.207v10.712Zm10.678 32.141V85.712h-10.68v10.712h10.68Zm21.359-21.434v10.713h-10.68V74.99h10.68Zm-74.758-21.429h-10.679V32.143h32.037v21.418h-21.358Zm21.36 0h21.357V32.143h-10.68v10.706h-10.677V53.56Zm-32.041 32.142h-10.68V74.99h10.68v10.713Zm.002 21.427h10.68V85.712h-10.68v21.418Zm-32.043-53.569h10.68V42.855h10.679V32.143h-32.037v10.706h-10.68V32.143h-10.679v21.418h21.359V42.855h10.678v10.706Zm21.361 21.428h10.68V64.276h-10.68V74.99Zm53.401 0h-10.68V53.57h10.68v21.418Zm21.359 10.714V74.99H523.527v10.713H544.885Zm10.68-32.142h-10.68V42.855h-10.678V32.143h32.037v10.706h10.68V53.56h-10.68V42.855h-10.68l.001 10.706Zm-85.44 0h10.68V42.85h-10.68V53.56Zm21.361 32.142h10.68V74.99h-10.68v10.713Zm42.717 21.427h-10.677v10.706h-10.68v-10.712h10.677V96.418h10.68v10.712Zm21.361 0h10.68v10.706h10.68v-10.712h-10.68v-10.7h10.68V85.712h-10.68v10.706h-10.68v10.712Zm-10.677 21.42h-10.68v-10.712h10.68v10.712Zm-117.481 0h10.68v-10.712h-10.68v10.712Zm0-10.714h-10.679V85.712h10.679V117.836Zm-20.39-21.412h9.709V85.712h-10.68v10.706h-9.709v10.712h9.709v10.706h10.68v-10.712h-9.709v-10.7Zm-56.797 21.412h10.68v-10.712h-10.68v10.712Zm-18.934-21.418h-21.359v10.712h21.359V96.424h10.68V85.712h-10.68v10.706Zm0-32.135h10.68V53.57h-10.68v10.712Zm32.041 10.706V64.283h10.68v10.706h21.359V64.283h10.678V53.57h-10.68v10.705h-21.357V53.571h-32.039v21.418h21.359Zm-10.679 21.435h-10.68V85.712h10.68v10.712Zm0-42.863h-10.68V32.143h10.68v21.418Zm10.679 0h10.68V42.855h10.68v10.706h21.357V32.143h-42.717v21.418Zm-42.721 32.142h10.68V74.99h-10.68v10.713Zm.001-10.714h-21.36V53.57h21.36v21.418Zm-.001-21.428h-21.359V32.143h42.719v10.712h-10.68v10.706h-10.68Zm.001-21.42h-21.36V10.724h42.719V32.142h-10.68V21.436h-10.679v10.706Zm-.001-21.427h-21.359V.002h42.719v10.712H320.605Zm64.081 0h21.357V.002h-64.076v10.712h42.719Zm32.039 0h-10.68V.002h10.68v10.712Zm-64.078.01h21.359v10.705h10.68V10.723h21.357v10.713h-10.678v10.706h-53.398V10.723h10.68Zm74.759-.01h42.717V.002h-53.396v10.712h10.679Zm-10.681 21.428h-10.68V10.723h10.68V32.142Zm74.761 0h-10.679V10.723h21.359V21.43h10.678v10.713h-21.358Zm0-21.428h-10.679V.002h32.037v10.712h-21.358Zm-10.681 21.428h-10.68V10.723h10.68V32.142Zm0-21.428h-10.68V.002h10.68v10.712Zm-42.719 21.428h32.037V10.723h-53.396V32.142h21.359Zm117.479 0H534.207V10.723H576.924V32.142h-10.68V21.436h-10.679v10.706Zm-32.039-21.428h10.677V.002h-21.357v10.712h10.68Zm10.681 0H576.924V.002H534.207v10.712Zm-.004 21.428h-21.357V10.723h21.357V32.142Zm-128.158.001v21.418h10.68V32.143h-10.68Zm-64.078 53.56h10.68V74.99h-10.68v10.713Zm64.076 0h-10.68V74.99h10.68v10.713Zm-32.037 0h10.68V74.99h-21.36v10.713h10.68Zm10.68 10.721h-10.68V85.712h10.68v10.712ZM1281.8 171.898h-10.68v-10.712h10.68v10.712Zm-44.17-32.626h-10.68v-10.713h10.68v10.713Zm129.61 0h-10.68v-10.713h10.68v10.713ZM1325 117.844h-10.68v-10.712H1325v10.712Zm-11.16-21.412h-10.68V85.72h10.68v10.712ZM1281.8 85.71h10.68V74.998h-10.68V85.71Zm21.36 0h-10.68V74.998h10.68V85.71Zm0-32.132h21.36V74.997h-10.68V64.29h-10.68v10.706h-10.68V64.284h10.68V53.578Zm53.4 21.419h10.68V64.284h-10.68V53.578h-21.36v10.706h-10.68v10.713h10.68V64.29h21.36v10.706Zm42.72-10.706h-10.68V53.578h21.36v10.706h10.68V53.578h10.68v10.713h-10.68v10.706h-21.36V64.29Zm0 32.141V85.72h-10.68v10.706h-10.68v10.706h-10.68v10.712h10.68v-10.706h10.68V96.432h10.68Zm21.36-21.434V85.71h-10.68V74.998h10.68Zm-74.76-21.429h-21.36V42.857h10.68V32.15h32.04v21.418h-21.36Zm21.36 0h21.36V32.151h-10.68v10.706h-10.68v10.712ZM1335.2 85.71h-10.68V74.998h10.68V85.71Zm0 21.428h10.68V85.72h-10.68v21.418Zm-32.04-53.569h10.68V42.863h10.68V32.151h-32.04v10.712h10.68V53.57Zm74.76 21.428h-10.68V53.578h10.68V74.997Zm21.36 10.713V74.998h-21.36V85.71h21.36Zm10.68-32.14h-10.68V42.862h-10.68V32.151h21.36v21.418Zm10.68 0h10.68V42.856h-10.68V32.15h-10.68v10.712h10.68V53.57Zm-74.76 32.14h10.68V74.998h-10.68V85.71Zm64.08 21.428h10.68v10.706h10.68v-10.712h-10.68v-10.7h10.68V85.72h-10.68v10.706h-10.68v10.712Zm-10.68 21.42h-10.68v-10.713h10.68v10.713Zm-117.48 0h10.68v-10.713h-10.68v10.713Zm0-10.714h-10.68V85.72h10.68V117.844Zm-20.39-21.412h9.71V85.72h-10.68v10.706h-9.71v10.712h9.71v10.706h10.68v-10.712h-9.71v-10.7Zm-56.8 21.412h10.68v-10.712h-10.68v10.712Zm-8.25-21.412h-10.68V85.72h10.68v10.712Zm-10.68-32.141h10.68V53.578h-10.68v10.713Zm32.04 10.706V64.29h10.68v10.706h21.36V64.29h10.68V53.578h-10.68v10.706h-21.36V53.578h-32.04V74.997h21.36Zm-53.4 32.141h21.36V96.426h-21.36v10.712Zm42.72-10.706h-10.68V85.72h10.68v10.712Zm0-42.863h-10.68V32.151h10.68v21.418Zm10.68 0h10.68V42.863h10.68V53.57h21.36V32.151h-42.72v21.418ZM1175 85.71h10.68V74.998H1175V85.71Zm0-10.713h-21.36V53.578H1175V74.997Zm0-21.428h-21.36V32.151h32.04v21.418H1175Zm0-21.42h-21.36V10.731h32.04v10.713H1175v10.705Zm0-21.427h-21.36V.009h32.04v10.713H1175Zm64.08 0h21.36V.009h-64.08v10.713h42.72Zm-42.72.009v21.418h-10.68V10.731h10.68Zm-10.68-.01h10.68V.01h-10.68v10.713Zm85.44 0h-10.68V.01h10.68v10.713Zm-64.08.01h21.36v10.706h10.68V10.731h21.36v10.713h-10.68v10.705h-53.4V10.731h10.68Zm74.76-.01h10.68V.01h-21.36v10.713h10.68Zm21.36 0h-10.68V.01h32.04v10.713h-21.36Zm-32.04 21.428h-10.68V10.731h10.68v21.418Zm74.76 0h-21.36V10.731h32.04v10.706h10.68v10.712h-21.36Zm0-21.427h-21.36V.009h42.72v10.713h-21.36Zm-53.4 21.427h32.04V10.731h-32.04v21.418Zm-10.68 0h10.68V10.731h-21.36v21.418h10.68Zm-10.68.002v21.418h21.36V42.857h-10.68V32.15h-10.68Zm138.84-.002h-21.36V10.731h21.36v21.418Zm-32.04-21.427h10.68V.009h-21.36v10.713h10.68Zm10.68 0h21.36V.009h-21.36v10.713Zm32.04 10.722h-10.68V10.73h21.36v21.418h-10.68V21.443Zm0-10.722h-10.68V.009h21.36v10.713h-10.68Zm-32.04 21.427h-21.36V10.731h21.36v21.418Zm-117.48 21.43v21.418h10.68V64.29h10.68V53.578h-21.36Zm-10.68-21.428v21.418h10.68V32.151h-10.68Zm-74.76 10.712h10.68V32.151h-10.68v10.712Zm10.68 42.847h10.68V74.998h-10.68V85.71Zm64.08 0h-10.68V74.998h10.68V85.71Zm-32.04 0h10.68V74.998h-21.36V85.71h10.68Zm10.68 10.722h-10.68V85.72h10.68v10.712ZM982.762 171.992h-10.68V161.28h10.68v10.712Zm-54.856-32.627h10.68v-10.712h-10.68v10.712Zm129.614 0h10.68v-10.712h-10.68v10.712Zm-42.23-21.427h10.68v-10.713h-10.68v10.713Zm-11.17-21.412h10.68V85.813h-10.68v10.713Zm-10.679-10.722h-10.679V75.092h21.358v10.712h-10.679Zm32.039-10.714V53.672h-21.36v10.706h-10.678V53.672h-21.36V75.09h10.68V64.384h10.679V75.09h10.679V64.384h10.68V75.09h10.68Zm42.72 0h-10.68V64.384h-21.36V53.672h21.36v10.706h10.68V75.09Zm64.08 0h10.68V64.378h-10.68V53.672h-10.68v10.706h-10.68V53.672h-21.36v10.713h10.68V75.09h21.36V64.384h10.68V75.09Zm-32.04 21.436V85.813h-10.68V96.52h-10.68v10.706h-10.68v10.713h10.68v-10.706h10.68V96.526h10.68Zm21.36-21.434v10.712h-10.68V75.092h10.68Zm-74.76-21.43h-10.68V32.245h32.04V53.663h-21.36Zm85.44 0h10.68V32.245h-10.68V42.95h-10.68V32.244h-10.68v10.713h10.68v10.706h10.68Zm-53.4 0h-10.68V42.95h10.68V32.244h10.68V53.663h-10.68Zm64.08 0h10.68V42.95h-10.68v10.713Zm-106.8 32.142h-10.68V75.092h10.68v10.712Zm0 21.428h10.68V85.813h-10.68V107.232Zm-32.04-53.57h10.68V42.958h10.68V32.245h-32.039V42.95h-10.679V32.244h-10.68V53.663h21.36V42.957h10.678v10.706Zm21.36 21.428h10.68V64.378h-10.68V75.09Zm53.4 0h-10.68V53.672h10.68V75.09Zm64.08 0h10.68V53.672h-10.68V75.09Zm-42.72.002v10.712h-21.36V75.092h21.36Zm10.68-21.43h-10.68V42.958h-10.68V32.245h21.36v21.418Zm-85.44 0h10.68V42.95h-10.68v10.713Zm21.36 32.142h10.68V75.092h-10.68v10.712Zm106.8 32.134h-10.68v-10.713h10.68v10.713Zm-32.04-10.706h-10.68V96.519h10.68V85.813h10.68v10.713h-10.68v10.699h10.68v10.713h-10.68v-10.706Zm-32.04 21.419h10.68v-10.712h-10.68v10.712Zm-96.118 0h-10.68v-10.712h10.68v10.712Zm-21.36-10.713h10.68V85.813h-10.68v32.125Zm-.002-21.412h-9.709v10.699h9.709v10.713H961.4v-10.706h-9.709V96.519h9.709V85.813h10.68v10.713Zm-55.826 21.412h-10.68v-10.713h10.68v10.713Zm-29.613-32.125V96.52h-21.36v10.713h21.36V96.526h10.68V85.813h-10.68Zm10.68-21.428h-10.68V53.672h10.68v10.713Zm32.041-.007V53.672h-32.04V75.09h21.36V64.384h10.679V75.09H950.719V64.384h10.68V53.672h-10.68v10.706h-21.357Zm-32.04 32.148h10.68V85.813h-10.68v10.713Zm0-42.863h10.68V32.244h-10.68V53.663Zm32.04 0h-10.68V32.244h42.717V53.663h-21.36V42.957h-10.677v10.706Zm-42.721 32.141h-10.68V75.092h10.68v10.712Zm-21.36-10.714h10.68V53.672h-21.359V75.09h10.679Zm0-21.427h21.36V42.957h10.68V32.245h-42.719v21.418h10.679Zm0-21.42h10.68V21.537h10.68v10.706h10.68V10.825h-42.719v21.418h10.679Zm0-21.427h32.04V.103h-42.719v10.713h10.679Zm85.438 0h-53.397V.103h64.077v10.713h-10.68Zm10.681 0h10.68V.103H961.4v10.713Zm-64.078 10.721v10.706H950.719V21.537h10.68V10.825h-21.36V21.53h-10.677V10.825h-32.04v10.712Zm96.119-10.721h-21.359V.103h53.398v10.713H993.441ZM961.4 32.243h10.68V10.825H961.4v21.418Zm74.76 0h32.04V21.531h-10.68V10.825h-21.36v21.418Zm0-21.427h32.04V.103h-32.04v10.713Zm-10.68 21.427h10.68V10.825h-10.68v21.418Zm0-21.427h10.68V.103h-10.68v10.713Zm-21.36 21.427h-32.038V10.825h53.398v21.418h-21.36Zm128.16 0h10.68V21.531h-10.68V10.825h-21.36v10.712h10.68v10.706h10.68Zm-32.04 0h10.68V10.825h-21.36v21.418h10.68Zm-10.68-21.427h-10.68V.103h10.68v10.713Zm10.68 0h-10.68V.103h21.36v10.713h-10.68Zm10.68 0h32.04V.103h-32.04v10.713Zm-32.04 21.427h10.68V10.825h-21.36v21.418h10.68Zm64.08-21.427h10.68V.103h-10.68v10.713Zm0 21.427h10.68V10.825h-10.68v21.418Zm-181.56.002v21.418h10.68V32.244H961.4Zm-64.078 53.56h10.68V75.091h-10.68v10.712Zm64.077 0h-10.68V75.091h10.68v10.712Zm-32.037 0h10.679V75.091h-21.359v10.712h10.68Zm10.679 10.72h-10.68V85.814h10.68v10.713Z" clip-rule="evenodd"/></svg>