<svg xmlns="http://www.w3.org/2000/svg" width="1336" height="319" fill="none" viewBox="0 0 1336 319"><path fill="#0A1133" fill-rule="evenodd" d="M244.021 189h1.997v2h-1.997v-2Zm1.997 2h1.996v2h-1.996v-2Zm7.984 6h-1.996v-2h-1.996v2h1.996v2h1.996v-2Zm-7.984 0h-1.997v2h1.997v-2Zm0 0v-2h1.996v2h-1.996Zm3.992-6h1.996v2h-1.996v-2Zm1.996-2h1.996v2h-1.996v-2ZM197.109 281h1.996v2h-1.996v-2Zm1.996 2h1.997v2h-1.997v-2Zm7.985 6h-1.996v-2h-1.996v2h1.996v2h1.996v-2Zm-7.985 0h-1.996v2h1.996v-2Zm0 0v-2h1.997v2h-1.997Zm3.993-6h1.996v2h-1.996v-2Zm1.996-2h1.996v2h-1.996v-2Z" clip-rule="evenodd"/><mask id="a" fill="white"><path fill-rule="evenodd" d="M113.277 39h1.996v2h1.996v2h-1.996v-2h-1.996v-2Zm9.981 8h-1.996v-2h-1.996v2h1.996v2h1.996v-2Zm-7.985 0h-1.996v2h1.996v-2Zm0 0v-2h1.996v2h-1.996Zm3.993-6h1.996v2h-1.996v-2Zm1.996-2h1.996v2h-1.996v-2Z" clip-rule="evenodd"/></mask><path fill="#0A1133" fill-rule="evenodd" d="M113.277 39h1.996v2h1.996v2h-1.996v-2h-1.996v-2Zm9.981 8h-1.996v-2h-1.996v2h1.996v2h1.996v-2Zm-7.985 0h-1.996v2h1.996v-2Zm0 0v-2h1.996v2h-1.996Zm3.993-6h1.996v2h-1.996v-2Zm1.996-2h1.996v2h-1.996v-2Z" clip-rule="evenodd"/><path fill="black" d="M115.273 39h1v-1h-1v1Zm-1.996 0v-1h-1v1h1Zm1.996 2h-1v1h1v-1Zm1.996 0h1v-1h-1v1Zm0 2v1h1v-1h-1Zm-1.996 0h-1v1h1v-1Zm0-2h1v-1h-1v1Zm-1.996 0h-1v1h1v-1Zm9.981 6h1v-1h-1v1Zm-1.996-2h1v-1h-1v1Zm-1.996 0v-1h-1v1h1Zm0 2h-1v1h1v-1Zm1.996 2h-1v1h1v-1Zm1.996 0v1h1v-1h-1Zm-9.981-2v-1h-1v1h1Zm0 2h-1v1h1v-1Zm1.996 0v1h1v-1h-1Zm0-4v-1h-1v1h1Zm1.996 0h1v-1h-1v1Zm0 2v1h1v-1h-1Zm1.997-6v-1h-1v1h1Zm1.996 2v1h1v-1h-1Zm-1.996 0h-1v1h1v-1Zm3.992-4h1v-1h-1v1Zm-1.996 0v-1h-1v1h1Zm1.996 2v1h1v-1h-1Zm-7.985-3h-1.996v2h1.996v-2Zm1 3v-2h-2v2h2Zm.996-1h-1.996v2h1.996v-2Zm1 3v-2h-2v2h2Zm-2.996 1h1.996v-2h-1.996v2Zm-1-3v2h2v-2h-2Zm-.996 1h1.996v-2h-1.996v2Zm-1-3v2h2v-2h-2Zm8.985 9h1.996v-2h-1.996v2Zm-1-3v2h2v-2h-2Zm-.996 1h1.996v-2h-1.996v2Zm1 1v-2h-2v2h2Zm.996-1h-1.996v2h1.996v-2Zm1 3v-2h-2v2h2Zm.996-1h-1.996v2h1.996v-2Zm-1-1v2h2v-2h-2Zm-8.981 1h1.996v-2h-1.996v2Zm1 1v-2h-2v2h2Zm.996-1h-1.996v2h1.996v-2Zm-1-1v2h2v-2h-2Zm0-2v2h2v-2h-2Zm2.996-1h-1.996v2h1.996v-2Zm1 3v-2h-2v2h2Zm-2.996 1h1.996v-2h-1.996v2Zm5.989-8h-1.996v2h1.996v-2Zm1 3v-2h-2v2h2Zm-2.996 1h1.996v-2h-1.996v2Zm-1-3v2h2v-2h-2Zm4.992-3h-1.996v2h1.996v-2Zm1 3v-2h-2v2h2Zm-2.996 1h1.996v-2h-1.996v2Zm-1-3v2h2v-2h-2Z" mask="url(#a)"/><path fill="#0A1133" fill-rule="evenodd" d="M161.182 209h-1.997v4h-1.996v6h1.996v4h1.997v-4h1.996v-2h3.99v-2h-3.99v-2h-1.996v-4Zm-3.993 6h-1.996v2h1.996v-2Zm-1.996 0h-1.996v2h1.996v-2Zm3.993 0h1.996v2h-1.996v-2ZM198.107 0h-1.996v4h-1.996v6h1.996v4h1.996v-4h1.996V8h3.991V6h-3.991V4h-1.996V0Zm-3.992 6h-1.996v2h1.996V6Zm-1.996 0h-1.996v2h1.996V6Zm3.992 0h1.996v2h-1.996V6ZM13.307 199h-2.662v5.331h2.662V199Zm-2.66 5.336H7.983v2.667h5.324v-2.667h-2.662Zm5.322 2.672h-2.662v2.667h5.324v-2.667h-2.662Zm-2.66 7.984H10.643v-2.664H7.983v-2.648H5.32v5.315H7.984v2.664h2.66v2.665h2.663v-2.665h.001v-2.667Zm5.32-5.312h-2.66v2.648h-2.66v5.331h2.662v-2.664h2.66v-2.648h2.66v-2.667h-2.662Zm-13.309 0H0v2.667h5.32v-2.667Zm15.971 0h2.662v2.667h-2.662v-2.667Zm-15.97-2.672h2.661v2.667H5.32v-2.667Zm10.65-2.672h-2.662v2.667h2.662v-2.667Zm-5.326 15.992h2.662v2.667h-2.662v-2.667Zm-2.66-13.32h2.661v2.667H7.984v-2.667ZM219.066 74h-6.986v2h-1.996v7h1.996v2h6.986v-2h-6.986v-7h6.986v-2Zm1.998 9v-7h-1.996v7h1.996ZM104.07 116h-3.548v7.109h-3.549V130.22h3.548v-3.555h3.549V116Zm7.096 14.219V133.774h-3.549v-3.554h-3.547v-3.556h.001v-3.555h3.548v3.555h3.547v3.555Zm-7.096 7.117h-3.549v-3.555H93.424v3.556h3.549v3.554h3.549V148.001h3.548v-10.665Zm-10.646-3.562V126.664h3.549V133.774h-3.549Zm0-3.555h-3.549v3.555h3.549v-3.555Zm21.293 0h3.547v3.555h-7.096v-3.555h3.549Zm-24.842 0h-3.549v3.555h3.549v-3.555Zm17.744 3.562h3.547v3.556h-3.547v3.554h-3.548V133.781H107.619ZM1272 292h2v2h-2v-2Zm2 2h2v2h-2v-2Zm8 6h-2v-2h-2v2h2v2h2v-2Zm-8 0h-2v2h2v-2Zm0 0v-2h2v2h-2Zm4-6h2v2h-2v-2Zm2-2h2v2h-2v-2ZM1227 203h-2v4h-2v2h-4v2h4v2h2v4h2v-4h2v-2h4v-2h-4v-2h-2v-4Zm-2 6h2v2h-2v-2ZM1243.78 111h-3.56v7.109h-3.55V125.22h3.55v-3.555h3.56v3.555h3.55v-3.555 7.109h3.56V121.664h-3.56v-3.555h-3.55v3.555V111Zm0 21.336h-3.56v-3.555H1233.11v3.556h3.56v3.554h3.55V143.001h3.56v-10.665Zm-14.22-7.117h3.55v-3.555h3.56V128.774H1229.56v-3.555Zm24.89 0h3.55v3.555H1250.89v-3.555H1254.45Zm-24.9 0H1226v3.555h3.55v-3.555Zm17.78 3.562h3.56v3.556h-3.56v3.554h-3.55V128.781h3.55ZM1154 140h2v2h-2v-2Zm8 2h-6v6h-2v2h2v-2h6v2h2v-2h-2v-6Zm0 0v-2h2v2h-2Zm-4 2h2v2h-2v-2ZM1324 195h-2v2h2v2h2v6h-2v2h-2v2h2v-2h2v-2h6v2h2v2h2v-2h-2v-2h-2v-6h2v-2h2v-2h-2v2h-2v2h-6v-2h-2v-2Zm4 6h2v2h-2v-2ZM1306 55h-2v4h-2v2h-4v2h4v2h2v4h2v-4h2v-2h4v-2h-4v-2h-2v-4Zm-2 6h2v2h-2v-2ZM1132.78 39h-3.56v7.109h-3.55V53.22h3.55v-3.555h3.56v3.555h3.55v-3.555 7.109h3.56V49.664h-3.56V46.11h-3.55v3.555V39Zm0 21.336h-3.56V56.78H1122.11v3.556h3.56v3.554h3.55V71.001h3.56V60.336Zm-14.22-7.117h3.55v-3.555h3.56v7.11H1118.56V53.22Zm24.89 0h3.55v3.555H1139.89V53.22H1143.45Zm-24.9 0H1115v3.555h3.55V53.22Zm17.78 3.562h3.56v3.556h-3.56v3.554h-3.55V56.782h3.55ZM1160 289h-12v2h-2v12h2v2h12v-2h2v-12h-2v-2Zm0 2v12h-12v-12h12Z" clip-rule="evenodd"/><path fill="#A4DFE3" fill-rule="evenodd" d="M332 49.78V30h147.196v14h6.008V30h585.776v12.042H1083V306.96h-12.02V319H485.204v-9h-6.008v9H332v-19.78c5.327 0 9.651-4.167 9.651-9.3 0-5.133-4.324-9.3-9.651-9.3v-10.255c5.327 0 9.651-4.167 9.651-9.3 0-5.133-4.324-9.3-9.651-9.3V241.51c5.327 0 9.651-4.167 9.651-9.3 0-5.133-4.324-9.3-9.651-9.3v-10.255c5.327 0 9.651-4.167 9.651-9.3 0-5.133-4.324-9.3-9.651-9.3V183.8c5.327 0 9.651-4.167 9.651-9.3 0-5.133-4.324-9.3-9.651-9.3v-10.255c5.327 0 9.651-4.167 9.651-9.3 0-5.133-4.324-9.3-9.651-9.3V126.09c5.327 0 9.651-4.167 9.651-9.3 0-5.133-4.324-9.3-9.651-9.3V97.235c5.327 0 9.651-4.167 9.651-9.3 0-5.133-4.324-9.3-9.651-9.3V68.38c5.327 0 9.651-4.167 9.651-9.3 0-5.133-4.324-9.3-9.651-9.3ZM479.196 296h6.008v-14h-6.008v14Zm6.008-42v14h-6.008v-14h6.008Zm-6.008-14h6.008v-14h-6.008v14Zm6.008-42v14h-6.008v-14h6.008Zm-6.008-14h6.008v-14h-6.008v14Zm6.008-42v14h-6.008v-14h6.008Zm-6.008-14h6.008v-14h-6.008v14Zm6.008-42v14h-6.008V86h6.008Zm-6.008-14h6.008V58h-6.008v14Z" clip-rule="evenodd"/><path fill="white" fill-rule="evenodd" d="M307.5 21.49V1.509h147v14.144h6V1.508h585v12.165h12v267.641h-12v12.163h-585v-9.093h-6v9.093h-147v-19.983c5.319 0 9.638-4.21 9.638-9.396 0-5.185-4.319-9.395-9.638-9.395v-10.36c5.319 0 9.638-4.21 9.638-9.396 0-5.186-4.319-9.396-9.638-9.396v-10.36c5.319 0 9.638-4.21 9.638-9.396 0-5.185-4.319-9.395-9.638-9.395v-10.36c5.319 0 9.638-4.21 9.638-9.396 0-5.186-4.319-9.396-9.638-9.396v-10.36c5.319 0 9.638-4.21 9.638-9.396 0-5.185-4.319-9.395-9.638-9.395v-10.36c5.319 0 9.638-4.21 9.638-9.396 0-5.186-4.319-9.396-9.638-9.396v-10.36c5.319 0 9.638-4.21 9.638-9.396 0-5.185-4.319-9.395-9.638-9.395v-10.36c5.319 0 9.638-4.21 9.638-9.396 0-5.186-4.319-9.396-9.638-9.396v-10.36c5.319 0 9.638-4.21 9.638-9.396 0-5.185-4.319-9.395-9.638-9.395Zm147 248.751h6v-14.144h-6v14.144Zm6-42.432v14.144h-6v-14.144h6Zm-6-14.144h6v-14.144h-6v14.144Zm6-42.431v14.144h-6v-14.144h6Zm-6-14.144h6v-14.144h-6v14.144Zm6-42.432v14.144h-6v-14.144h6Zm-6-14.143h6V86.371h-6v14.144Zm6-42.432v14.144h-6V58.083h6Zm-6-14.144h6V29.796h-6v14.143Z" clip-rule="evenodd"/><path fill="white" fill-rule="evenodd" d="M306 0h150v14.144h3V0h588v12.165h12v270.672h-12V295H459v-9.092h-3V295H306v-23.014h1.5c4.542 0 8.138-3.582 8.138-7.88s-3.596-7.88-8.138-7.88H306v-13.391h1.5c4.542 0 8.138-3.582 8.138-7.88 0-4.299-3.596-7.881-8.138-7.881H306v-13.391h1.5c4.542 0 8.138-3.582 8.138-7.88s-3.596-7.88-8.138-7.88H306v-13.391h1.5c4.542 0 8.138-3.582 8.138-7.88 0-4.299-3.596-7.881-8.138-7.881H306V155.38h1.5c4.542 0 8.138-3.582 8.138-7.88s-3.596-7.88-8.138-7.88H306v-13.391h1.5c4.542 0 8.138-3.582 8.138-7.881 0-4.298-3.596-7.88-8.138-7.88H306v-13.39h1.5c4.542 0 8.138-3.583 8.138-7.881s-3.596-7.88-8.138-7.88H306V67.926h1.5c4.542 0 8.138-3.582 8.138-7.88 0-4.299-3.596-7.88-8.138-7.88H306V38.773h1.5c4.542 0 8.138-3.582 8.138-7.88s-3.596-7.88-8.138-7.88H306V0Zm148.5 284.392h6v9.093h585v-12.163h12V13.681h-12V1.515h-585V15.66h-6V1.515h-147v19.983c5.319 0 9.638 4.21 9.638 9.396 0 5.186-4.319 9.396-9.638 9.396v10.36c5.319 0 9.638 4.21 9.638 9.395 0 5.186-4.319 9.396-9.638 9.396v10.36c5.319 0 9.638 4.21 9.638 9.396 0 5.186-4.319 9.396-9.638 9.396v10.36c5.319 0 9.638 4.21 9.638 9.395 0 5.186-4.319 9.396-9.638 9.396v10.36c5.319 0 9.638 4.21 9.638 9.396 0 5.186-4.319 9.396-9.638 9.396v10.36c5.319 0 9.638 4.21 9.638 9.396 0 5.185-4.319 9.395-9.638 9.395v10.36c5.319 0 9.638 4.21 9.638 9.396 0 5.186-4.319 9.396-9.638 9.396v10.36c5.319 0 9.638 4.21 9.638 9.396 0 5.185-4.319 9.395-9.638 9.395v10.36c5.319 0 9.638 4.21 9.638 9.396 0 5.186-4.319 9.396-9.638 9.396v19.983h147v-9.093Zm6-14.144h-6v-14.144h6v14.144ZM459 257.62h-3v11.113h3V257.62Zm1.5-29.803v14.144h-6v-14.144h6Zm-4.5 1.515v11.113h3v-11.113h-3Zm0-17.174h3v-11.113h-3v11.113Zm4.5-40.917v14.144h-6v-14.144h6Zm-4.5 1.516h3v11.113h-3v-11.113Zm0-17.175h3v-11.113h-3v11.113Zm4.5-40.916v14.144h-6v-14.144h6Zm-4.5 1.516h3v11.113h-3v-11.113Zm0-17.175h3V87.894h-3v11.113Zm4.5-40.916v14.144h-6V58.09h6Zm-4.5 1.515h3V70.72h-3V59.606Zm0-17.175h3V31.32h-3v11.113Zm-1.5 171.242v-14.144h6v14.144h-6Zm0-56.575v-14.144h6v14.144h-6Zm0-56.576V86.378h6v14.144h-6Zm0-56.575V29.803h6v14.144h-6Z" clip-rule="evenodd"/><path fill="white" fill-rule="evenodd" d="M307 20.998V1.017h147v14.143h6V1.016h585V13.18h12v267.641h-12v12.163H460v-9.093h-6v9.093H307v-19.983c5.319 0 9.638-4.21 9.638-9.396 0-5.185-4.319-9.395-9.638-9.395V243.85c5.319 0 9.638-4.209 9.638-9.395s-4.319-9.396-9.638-9.396v-10.36c5.319 0 9.638-4.21 9.638-9.396 0-5.186-4.319-9.395-9.638-9.395v-10.361c5.319 0 9.638-4.209 9.638-9.395s-4.319-9.396-9.638-9.396v-10.36c5.319 0 9.638-4.21 9.638-9.396 0-5.186-4.319-9.395-9.638-9.395v-10.361c5.319 0 9.638-4.21 9.638-9.395 0-5.186-4.319-9.396-9.638-9.396v-10.36c5.319 0 9.638-4.21 9.638-9.396 0-5.186-4.319-9.395-9.638-9.395v-10.36c5.319 0 9.638-4.21 9.638-9.396 0-5.186-4.319-9.396-9.638-9.396V39.79c5.319 0 9.638-4.21 9.638-9.396 0-5.186-4.319-9.395-9.638-9.395Zm147 248.75h6v-14.143h-6v14.143Zm6-42.431v14.144h-6v-14.144h6Zm-6-14.144h6v-14.144h-6v14.144Zm6-42.431v14.143h-6v-14.143h6Zm-6-14.144h6v-14.144h-6v14.144Zm6-42.432v14.144h-6v-14.144h6Zm-6-14.144h6V85.879h-6v14.143Zm6-42.431v14.144h-6V57.59h6Zm-6-14.144h6V29.303h-6v14.144Z" clip-rule="evenodd"/><path fill="#0A1133" fill-rule="evenodd" d="M454.5 284.384h6v9.093h585v-12.163h12V13.674h-12V1.507h-585v14.144h-6V1.508h-147V21.49c5.319 0 9.638 4.21 9.638 9.395 0 5.186-4.319 9.396-9.638 9.396v10.36c5.319 0 9.638 4.21 9.638 9.396 0 5.186-4.319 9.395-9.638 9.395v10.36c5.319 0 9.638 4.21 9.638 9.396 0 5.186-4.319 9.396-9.638 9.396v10.36c5.319 0 9.638 4.21 9.638 9.396 0 5.186-4.319 9.396-9.638 9.396v10.36c5.319 0 9.638 4.21 9.638 9.395 0 5.186-4.319 9.396-9.638 9.396v10.36c5.319 0 9.638 4.21 9.638 9.396 0 5.186-4.319 9.396-9.638 9.396v10.36c5.319 0 9.638 4.21 9.638 9.395 0 5.186-4.319 9.396-9.638 9.396v10.36c5.319 0 9.638 4.21 9.638 9.396 0 5.186-4.319 9.396-9.638 9.396v10.36c5.319 0 9.638 4.21 9.638 9.395 0 5.186-4.319 9.396-9.638 9.396v19.983h147v-9.093Zm-1.5 7.578v-9.093h9v9.093h582v-12.163h12V15.189h-12V3.023H462v14.144h-9V3.023H309v17.05c5.402.717 9.638 5.246 9.638 10.813S314.402 40.982 309 41.7v7.526c5.402.717 9.638 5.246 9.638 10.813S314.402 70.134 309 70.85v7.527c5.402.716 9.638 5.245 9.638 10.812 0 5.567-4.236 10.097-9.638 10.813v7.527c5.402.716 9.638 5.245 9.638 10.812 0 5.567-4.236 10.096-9.638 10.812v7.527c5.402.716 9.638 5.245 9.638 10.812 0 5.567-4.236 10.097-9.638 10.813v7.527c5.402.716 9.638 5.245 9.638 10.812 0 5.567-4.236 10.096-9.638 10.812v7.527c5.402.716 9.638 5.245 9.638 10.812 0 5.567-4.236 10.097-9.638 10.813v7.527c5.402.716 9.638 5.245 9.638 10.812 0 5.567-4.236 10.096-9.638 10.812v7.527c5.402.716 9.638 5.245 9.638 10.812 0 5.568-4.236 10.097-9.638 10.813v17.051h144Zm0-20.206v-17.175h9v17.175h-9Zm9-28.288h-9v-17.174h9v17.174Zm0-28.287h-9v-17.175h9v17.175Zm0-28.288h-9v-17.175h9v17.175Zm0-28.288h-9v-17.174h9v17.174Zm0-28.287h-9v-17.175h9v17.175Zm0-28.288h-9V84.855h9v17.175Zm0-28.288h-9V56.568h9v17.174Zm0-28.287h-9V28.28h9v17.175Zm-1.5 224.786h-6v-14.144h6v14.144Zm0-42.432v14.144h-6v-14.144h6Zm0-56.575v14.144h-6v-14.144h6Zm0-56.576v14.144h-6v-14.144h6Zm0-56.575v14.144h-6V58.083h6Zm-6 155.582v-14.144h6v14.144h-6Zm0-56.575v-14.144h6v14.144h-6Zm0-56.575V86.371h6v14.144h-6Zm0-56.576V29.796h6v14.143h-6Z" clip-rule="evenodd"/><path fill="#0A1133" d="M502.75 74.25h3.5v5.25H508v-1.75h1.75v-3.5h3.5v3.5h-1.75v1.75h-1.75v1.75H508V83h1.75v1.75h1.75v1.75h1.75V90h-3.5v-3.5H508v-1.75h-1.75V90h-3.5V74.25Zm13.16 0h3.5v14h3.5v-14h3.5v14h-1.75V90h-7v-1.75h-1.75v-14Zm13.16 0h8.75V76h1.75v5.25h-1.75V83h1.75v5.25h-1.75V90h-8.75V74.25Zm7 1.75h-3.5v5.25h3.5V76Zm0 7h-3.5v5.25h3.5V83Zm6.16-8.75h10.5V76h-7v5.25h3.5V83h-3.5v5.25h7V90h-10.5V74.25ZM562.39 76h-3.5v5.25h3.5V76Zm-7-1.75h8.75V76h1.75v5.25h-1.75V83h-1.75v1.75h1.75v1.75h1.75V90h-3.5v-3.5h-1.75v-1.75h-1.75V90h-3.5V74.25Zm13.16 0h3.5v5.25h1.75v1.75h1.75v-7h3.5V90h-3.5v-5.25h-1.75V83h-1.75v7h-3.5V74.25Zm13.16 0h10.5V76h-7v5.25h3.5V83h-3.5v5.25h7V90h-10.5V74.25Zm13.16 0h10.5V76h-3.5v14h-3.5V76h-3.5v-1.75Zm13.16 0h10.5V76h-7v5.25h3.5V83h-3.5v5.25h7V90h-10.5V74.25Zm14.91 0h7V76h1.75v1.75h-3.5V76h-3.5v5.25h5.25V83h1.75v5.25h-1.75V90h-7v-1.75h-1.75V86.5h3.5v1.75h3.5V83h-5.25v-1.75h-1.75V76h1.75v-1.75Zm19.32 0h7V76h1.75v1.75h-3.5V76h-3.5v12.25h3.5V86.5h3.5v1.75h-1.75V90h-7v-1.75h-1.75V76h1.75v-1.75Zm13.16 0h7V76h1.75v12.25h-1.75V90h-7v-1.75h-1.75V76h1.75v-1.75Zm5.25 1.75h-3.5v12.25h3.5V76Zm6.16-1.75h3.5v3.5h1.75v1.75h1.75v-1.75h1.75v-3.5h3.5V90h-3.5v-8.75h-1.75V83h-1.75v-1.75h-1.75V90h-3.5V74.25Zm14.91 0h3.5v3.5h1.75v1.75h1.75v-1.75h1.75v-3.5h3.5V90h-3.5v-8.75h-1.75V83h-1.75v-1.75h-1.75V90h-3.5V74.25Zm14.91 0h3.5v14h3.5v-14h3.5v14h-1.75V90h-7v-1.75h-1.75v-14Zm13.16 0h3.5v5.25h1.75v1.75h1.75v-7h3.5V90h-3.5v-5.25h-1.75V83h-1.75v7h-3.5V74.25Zm14.91 0h3.5V90h-3.5V74.25Zm7.91 0h10.5V76h-3.5v14h-3.5V76h-3.5v-1.75Zm13.16 0h3.5v5.25h3.5v-5.25h3.5v5.25h-1.75v1.75h-1.75V90h-3.5v-8.75h-1.75V79.5h-1.75v-5.25Zm19.32 0h8.75V76h1.75v12.25h-1.75V90h-8.75V74.25Zm7 1.75h-3.5v12.25h3.5V76Zm7.91-1.75h7V76h1.75v14h-3.5v-5.25h-3.5V90h-3.5V76h1.75v-1.75Zm5.25 1.75h-3.5v7h3.5v-7Zm6.16-1.75h3.5v5.25h3.5v-5.25h3.5v5.25h-1.75v1.75h-1.75V90h-3.5v-8.75h-1.75V79.5h-1.75v-5.25Zm14.91 0h7V76h1.75v1.75h-3.5V76h-3.5v5.25h5.25V83h1.75v5.25h-1.75V90h-7v-1.75h-1.75V86.5h3.5v1.75h3.5V83h-5.25v-1.75h-1.75V76h1.75v-1.75Z"/><path fill="white" d="M501.811 24.001v31.976H1015V24H501.811Z"/><path fill="#0A1133" d="M501.811 24.023v1.529H1013.7V54.47H501.811V56H1015V24.023H501.811Z"/><mask id="b" width="470" height="32" x="501" y="24" maskUnits="userSpaceOnUse" style="mask-type:alpha"><path fill="#D9D9D9" d="M501 24.727h469.727v30.557H501z"/></mask><g mask="url(#b)"><path fill="#0A1133" d="M717.923 23.643h-1.515v-1.557h1.515v1.557Zm86.003 9.309h-1.515v1.557h1.515v-1.557Zm6.043 4.654v-1.558h-1.515v1.558h1.515Zm-1.515 3.097h1.515v-1.558h-1.515v1.558Zm21.122-9.309h-1.515v1.558h1.515v-1.558Zm1.515-1.557h-1.515v1.557h1.515v-1.557Zm-42.244 15.52h1.515V43.8h-1.515v1.557Zm-92.046-23.271h-1.515v1.557h1.515v-1.557Zm27.165 0h-1.515v1.557h1.515v-1.557Zm84.505 13.962v-1.557h-1.515v1.557h1.515Zm-93.56-13.962h-1.515v1.557h1.515v-1.557Zm111.67 7.75v1.558h1.515v-1.557h-1.515Zm-117.695-7.75h-1.515v1.557h1.515v-1.557Zm98.088 12.405v-1.557h-1.515v1.557h1.515Zm-86.003-12.405h-1.515v1.557h1.515v-1.557Zm116.197 13.962h-1.515v1.558h1.515v-1.558ZM702.879 22.086h-1.515v1.557h1.515v-1.557Zm19.625 32.58h1.515v-1.558h-1.515v1.558Zm-55.827-32.58h-1.515v1.557h1.515v-1.557Zm6.043 0h-1.515v1.557h1.515v-1.557ZM797.954 34.49v-1.557h-1.515v1.557h1.515Zm-57.341 20.175h1.515v-1.558h-1.515v1.558Zm-12.067 0h1.515v-1.558h-1.515v1.558Zm6.042 0h1.515v-1.558h-1.515v1.558Zm66.396-20.175v-1.557h-1.515v1.557h1.515Zm-6.042 0v-1.557h-1.515v1.557h1.515Zm7.54 1.557v-1.557h-1.515v1.557h1.515Zm-111.67-13.962h-1.515v1.557h1.515v-1.557Zm-6.043 0h-1.515v1.557h1.515v-1.557Zm102.615 24.81h1.515V45.34h-1.515v1.558Zm40.747-13.962h-1.515v1.557h1.515v-1.557Zm-43.759 12.405v1.558h1.515v-1.558h-1.515Zm48.286-9.309v1.558h1.515V36.03h-1.515ZM678.745 22.067h-1.515v1.558h1.515v-1.558ZM831.143 36.03h-1.515v1.558h1.515V36.03Zm0-1.557v-1.557h-1.515v1.557h1.515Zm-22.637-12.405h-1.515v1.557h1.515v-1.558Zm-16.594 12.405v-1.557h-1.515v1.557h1.515Zm12.067 3.097v-1.558h-1.515v1.558h1.515ZM778.33 22.05h-1.515v1.557h1.515v-1.558Zm-12.067 0h-1.515v1.557h1.515v-1.558Zm34.704 17.06h1.515v-1.558h-1.515v1.557Zm-28.662-17.06h-1.515v1.557h1.515v-1.558Zm-15.097 0h-1.515v1.557h1.515v-1.558Zm43.759 13.962h-1.515v1.558h1.515v-1.558ZM763.25 22.05h-1.515v1.558h1.515v-1.558Zm57.341 1.558v1.557h1.515v-1.557h-1.515Zm-60.353-1.558h-1.515v1.558h1.515v-1.558Zm42.244 0h-1.515v1.558h1.515v-1.558Zm12.067 0h-1.515v1.558h1.515v-1.558Zm-18.11 0h-1.515v1.558h1.515v-1.558Zm0 18.618h1.515v-1.558h-1.515v1.558Zm22.637-17.06h-1.515v1.557h1.515v-1.557Zm-34.704-1.558h-1.515v1.558h1.515v-1.558Zm6.042 0h-1.515v1.558h1.515v-1.558Zm4.528 20.175h1.515v-1.557h-1.515v1.557Zm3.012-4.654v1.557h1.515V37.57h-1.515Zm27.165-13.963h-1.515v1.557h1.515v-1.557ZM803.997 37.57v1.557h1.515V37.57h-1.515Zm-70.924-15.52h-1.515v1.557h1.515v-1.558Zm57.341 20.174v1.558h1.515v-1.558h-1.515ZM739.116 22.05h-1.515v1.558h1.515v-1.558Zm3.012 0h-1.515v1.558h1.515v-1.558Zm-6.042 0h-1.515v1.558h1.515v-1.558Zm70.923 13.963h-1.515v1.558h1.515v-1.558ZM730.061 22.05h-1.515v1.558h1.515v-1.558Zm95.058 7.752h-1.515v1.557h1.515V29.8Zm-3.013-3.097h-1.515v1.557h1.515v-1.557Zm-70.923-4.655h-1.515v1.558h1.515v-1.558Zm51.299 18.618h1.515v-1.558h-1.515v1.558Zm-3.013-1.558v1.558h1.515v-1.558h-1.515Zm6.043 0v1.558h1.515v-1.558h-1.515Zm-51.299-17.06h-1.515v1.558h1.515v-1.558Zm69.408 3.097h-1.515v1.558h1.515v-1.558Zm1.515 3.097v-1.557h-1.515v1.557h1.515Zm-76.948-6.212h-1.515v1.558h1.515V22.03Zm-3.012 0h-1.515v1.558h1.515V22.03Zm48.286 21.714h1.515v-1.557h-1.515v1.557Zm-66.396-21.714h-1.515v1.558h1.515V22.03Zm116.197 6.212v-1.557h-1.515v1.557h1.515Zm0 6.212v-1.558h-1.515v1.558h1.515Zm-3.012-7.751h-1.515v1.557h1.515v-1.557Zm-1.515 3.096v1.558h1.515V29.8h-1.515Zm4.527 0h-1.515v1.558h1.515V29.8Zm-1.515 1.558h-1.515v1.558h1.515v-1.558Zm-6.042-6.212h-1.515v1.558h1.515v-1.558Zm3.012-1.557v1.557h1.515V23.59h-1.515Zm-96.572 9.308V31.34h-1.515v1.557h1.515Zm-6.043 0v1.558h1.515v1.557h1.515v-1.557h1.515v-1.558h-1.515V31.34h-1.515v1.557h-1.515Zm107.143-9.308h-1.515v1.557h1.515V23.59Zm-1.515 1.557h-1.515v1.558h1.515v-1.558Zm-95.058 29.465h1.515v-1.557h-1.515v1.557Zm93.56-15.52h-1.515v1.557h1.515v-1.557Zm-89.032-9.309v-1.557h-1.515v1.557h1.515Zm81.475-6.211v1.557h1.515v-1.557h-1.515Zm4.527 0h-1.515v1.557h1.515v-1.557Zm6.043 17.06v-1.558h-1.515v1.557h1.515Zm3.012-13.963h-1.515v1.557h1.515v-1.558Zm-7.54 9.308v1.558h1.515v-1.558h-1.515Zm1.515-3.097h-1.515v1.558h1.515v-1.558Zm-90.53-1.557v-1.558h-1.515v1.558h1.515Zm93.56 4.654h-1.515v1.558h1.515v-1.558Zm-95.057-3.097v-1.557h-1.515v1.557h1.515Zm-6.043 0v1.558h1.515v1.557h1.515v-1.557h1.515v-1.558h-1.515v-1.557h-1.515v1.557h-1.515Zm122.222 9.309h-1.515v1.557h1.515v-1.557Zm0-3.097h-1.515v1.557h1.515v-1.557ZM724.054 32.88v1.558h1.515v1.557h1.515v-1.557h1.515v-1.558h-1.515v-1.557h-1.515v1.557h-1.515Zm134.289-9.308h-1.515v1.557h1.515v-1.557Zm6.042 21.714h-1.515v1.557h1.515v-1.557Zm0-12.406h-1.515v1.558h1.515v-1.558Zm0-6.211h-1.515v1.557h1.515v-1.558Zm0-3.097h-1.515v1.557h1.515v-1.557Zm0 12.405h-1.515v1.558h1.515v-1.558Zm0-6.212h-1.515v1.558h1.515v-1.558Zm-6.042-3.096h-1.515v1.557h1.515v-1.558Zm0 12.405h-1.515v1.557h1.515v-1.557Zm-6.042-15.52h-1.515v1.557h1.515v-1.558Zm0 6.211h-1.515v1.558h1.515v-1.558Zm0-3.096h-1.515v1.557h1.515v-1.558Zm0 6.211h-1.515v1.558h1.515v-1.558Zm-116.198 0v-1.557h-1.515v1.557h1.515Zm-6.042 0v1.558h1.515v1.557h1.515v-1.557h1.515v-1.558h-1.515v-1.557h-1.515v1.557h-1.515Zm0 0v-1.557h-1.515v1.557h1.515Zm128.264-3.097h-1.515v1.558h1.515v-1.558Zm0 3.097h-1.515v1.558h1.515v-1.558Zm-12.067-9.308h-1.515v1.557h1.515v-1.557Zm12.067 12.405h-1.515v1.558h1.515v-1.558Zm-16.594 1.558h-1.515v1.557h1.515v-1.557Zm-67.911-3.097v-1.558h-1.515v1.558h1.515Zm15.097 20.175h1.515v-1.558h-1.515v1.557Zm-3.012 0h1.515v-1.558h-1.515v1.557Zm-9.055-20.175v-1.558h-1.515v1.558h1.515Zm6.042 20.175h1.515v-1.558h-1.515v1.557Zm9.055 0h1.515v-1.558h-1.515v1.557ZM770.825 31.34v-1.558h-1.515v1.558h1.515Zm36.219 23.271h1.515v-1.557h-1.515v1.557ZM772.34 32.898V31.34h-1.515v1.557h1.515Zm28.662 21.715h1.515v-1.558h-1.515v1.557Zm-6.043 0h1.515v-1.558h-1.515v1.557Zm18.11 0h1.515v-1.558h-1.515v1.557Zm-48.286 0h1.515v-1.558h-1.515v1.557Zm-6.043 0h1.515v-1.558h-1.515v1.557Zm9.055-17.06v-1.558h-1.515v1.558h1.515Zm-15.097 17.06h1.515v-1.558h-1.515v1.557Zm36.219-20.175v-1.558h-1.515v1.558h1.515ZM773.82 54.612h1.515v-1.558h-1.515v1.557Zm3.012 0h1.515v-1.558h-1.515v1.557Zm3.013-20.175v-1.558h-1.515v1.558h1.515Zm-9.055 20.175h1.515v-1.558h-1.515v1.557Zm12.067-20.175v-1.558h-1.515v1.558h1.515Zm-3.012 20.175h1.515v-1.558h-1.515v1.557Zm54.328-21.715h-1.515v1.558h1.515v-1.558Zm-73.935-3.096v-1.558h-1.515v1.558h1.515Zm75.45 1.557h-1.515v1.558h1.515v-1.558Zm1.515 3.097v-1.558h-1.515v1.558h1.515Zm-10.569-10.866v1.557h1.515V23.59h-1.515ZM754.213 29.8v-1.558h-1.515v1.558h1.515Zm82.99 0h-1.515v1.557h1.515V29.8Zm0-1.558v-1.557h-1.515v1.557h1.515Zm-3.012-1.557h-1.515v1.557h1.515v-1.557Zm-3.012-3.097h-1.515v1.557h1.515V23.59Zm1.515 6.212v1.557h1.515V29.8h-1.515Zm-75.451 0v-1.558h-1.515v1.558h1.515Zm61.868 24.81h1.515v-1.557h-1.515v1.557ZM767.813 31.34v-1.558h-1.515v1.558h1.515Zm69.408 23.271h1.515v-1.557h-1.515v1.557Zm-12.067 0h1.515v-1.557h-1.515v1.557Zm-61.869-24.81v-1.558h-1.515v1.558h1.515Zm79.978 24.81h1.515v-1.557h-1.515v1.557Zm-12.067 0h1.515v-1.557h-1.515v1.557Zm-1.515-29.465h-1.515v1.558h1.515v-1.558Zm19.625 27.926v-1.557h-1.515v1.557h1.515Zm-18.11-24.81v-1.558h-1.515v1.557h1.515ZM764.8 31.357V29.8h-1.515v1.558h1.515Zm63.384-4.654h-1.515v1.557h1.515v-1.557Zm-42.244 7.75v-1.557h-1.515v1.558h1.515Zm-37.717 1.558v-1.557h-1.515v1.557h1.515Zm37.717 9.309h1.515v-1.557h-1.515v1.557Zm-21.122-7.751v1.557h1.515V37.57h-1.515Zm13.582 3.097h-1.515v1.557h1.515v-1.557Zm-28.662-6.212v1.557h1.515v-1.557h1.515v-1.558h-1.515V31.34h-1.515v1.557h-1.515v1.558h1.515Zm33.19 9.309v1.557h1.515v-1.557h-1.515Zm24.134-1.558h1.515v-1.558h-1.515v1.558Zm4.527-3.097v-1.557h-1.515v1.557h1.515Zm-10.57 6.212h1.515v-1.557h-1.515v1.557Zm-54.328-7.751v-1.558h-1.515v1.558h1.515Zm66.396 3.097v-1.558h-1.515v1.558h1.515Zm-22.637-6.212h-1.515v1.557h1.515v-1.557Zm-9.055 7.751v-1.558h-1.515v1.558h1.515Zm3.012-7.751h-1.515v1.557h1.515v-1.557Zm51.299 3.097h-1.515v1.557h1.515v-1.557Zm-48.286 6.212h1.515v-1.558h-1.515v1.557Zm9.054-9.31h-1.515v1.558h1.515v-1.557Zm1.516 3.098v-1.558h-1.516v1.558h1.516Zm-42.244-6.212v-1.558h-1.515v1.558h1.515Zm-3.013 0v-1.558h-1.515v1.558h1.515Zm36.219 10.866h1.515v-1.558h-1.515v1.558Zm-27.164-4.654v1.557h1.515v-1.557h-1.515Zm19.625 4.654v1.557h1.515v-1.557h-1.515Zm-4.528 0h-1.515v1.557h1.515v-1.557Zm0 1.557v1.558h1.515v-1.557h-1.515Zm-42.244-6.211v1.557h1.515v-1.557h-1.515Zm6.043 0v-1.558h-1.515v1.558h1.515Zm-4.528-1.558v-1.557h-1.515v1.557h1.515Zm6.043 0v-1.557h-1.515v1.557h1.515Zm51.298 10.866h1.515v-1.557h-1.515v1.557Zm-10.569-4.654h1.515v-1.558h-1.515v1.558Zm-46.772-4.654h1.515v-1.558h-1.515v1.558Zm6.043 0h1.515v-1.558h-1.515v1.558Zm48.286-6.212h-1.515v1.557h1.515V31.34Zm-6.042 0h-1.515v1.557h1.515V31.34Zm25.649 1.557h-1.515v1.558h1.515v-1.558ZM796.51 31.34h-1.515v1.557h1.515V31.34Zm-18.11 0h-1.515v1.557h1.515V31.34Zm0 10.866v1.557h1.515v-1.557H778.4Zm-37.716-4.654v1.557h1.515v-1.557h-1.515Zm72.42-1.558h-1.515v1.558h1.515v-1.558Zm-89.033-3.097V31.34h-1.515v1.557h1.515Zm55.827 10.867v1.557h1.515v-1.557h-1.515Zm21.121-1.558h1.515v-1.558h-1.515v1.558Zm-34.704-6.212v-1.557H764.8v1.557h1.515Zm19.625 7.751v-1.557h-1.515v1.557h1.515Zm-15.097-3.096v1.557h1.515v-1.558h-1.515Zm15.097-3.097v-1.558h-1.515v1.558h1.515Zm-10.57 1.557v-1.557h-1.515v1.557h1.515Zm13.582 1.558v-1.558h-1.515v1.558h1.515Zm-16.594-1.558v1.558h1.515v-1.558h-1.515Zm6.042-3.097v-1.557h-1.515v1.557h1.515Zm-3.012 0v-1.557h-1.515v1.557h1.515Zm10.57 4.655v-1.558h-1.515v1.558h1.515Zm-22.637-4.655v1.558h1.515v-1.558h-1.515Zm7.539 3.097h-1.515v1.558h1.515v-1.558Zm-15.097-4.654v1.557h1.515v-1.557h-1.515Zm13.582 3.097h-1.515v1.557h1.515v-1.557Zm12.068 1.557v-1.557h-1.515v1.557h1.515Zm9.054-1.557h-1.515v1.557h1.515v-1.557Zm-10.569 0v-1.558h-1.515v1.558h1.515Zm-24.135-4.655h-1.515v1.558h1.515v-1.558Zm27.165 3.097h-1.515v1.558h1.515v-1.558Zm-24.135-1.557v-1.558h-1.515v1.558h1.515Zm13.582 4.654v-1.557h-1.515v1.557h1.515Zm22.637-3.097h-1.515v1.558h1.515v-1.558Zm-4.527 4.654H792v-1.557h-1.515v1.557Zm3.012-1.557v-1.557h-1.515v1.557h1.515Zm-1.515-1.557v-1.558h-1.515v1.558h1.515Zm-25.649-4.655v-1.557h-1.515v1.557h1.515Zm3.012 0v-1.557h-1.515v1.557h1.515Zm-7.539 3.097h-1.515v1.558h1.515v-1.558Zm33.189 3.097h1.515v-1.557h-1.515v1.557Zm-33.189-7.751v-1.558h-1.515v1.558h1.515Zm1.515 1.557v-1.557h-1.515v1.557h1.515Zm30.176 7.751h1.515v-1.557h-1.515v1.557Zm-30.176-4.654V34.42h-1.515v1.557h1.515Zm9.054 0V34.42h-1.515v1.557h1.515Zm4.528 4.654v-1.557h-1.515v1.557h1.515Zm7.54-3.096h-1.515v1.557h1.515v-1.557Zm-36.22-1.558v1.558h1.515v-1.558h-1.515Zm39.232 3.097v-1.557h-1.515v1.557h1.515Zm-16.595-4.654V32.86h-1.515v1.558h1.515Zm18.11 1.557h-1.515v1.558h1.515v-1.558Zm-15.097 4.654v1.558h1.515V40.63h-1.515Zm-13.582-6.211h-1.515v1.557h1.515V34.42Zm-13.583 3.097v1.557h1.515v-1.557h-1.515Zm12.068-6.212v-1.558h-1.515v1.558h1.515Zm-6.043 6.212v1.557h1.515v-1.557h-1.515Zm15.097 6.211v1.558h1.515v-1.558h-1.515Zm-13.582-7.75v1.557h1.515v-1.558h-1.515Zm16.595 7.75v1.558h1.515v-1.558h-1.515Zm3.012-6.211v-1.558h-1.515v1.558h1.515Zm-4.527-1.558v-1.557h-1.515v1.557h1.515Zm-10.57 0h-1.515v1.558h1.515v-1.558Zm-4.527 0v-1.557h-1.515v1.557h1.515Zm16.594 1.558v-1.558h-1.515v1.558h1.515Zm4.528 6.211h-1.516v1.558h1.516v-1.558Zm-22.637-7.75h-1.515v1.557h1.515v-1.558Zm25.649-10.867h-1.515v1.558h1.515V25.11Zm-10.57 17.06h-1.515v1.557h1.515V42.17Zm22.637-17.06h-1.515v1.558h1.515V25.11Zm25.649 1.558h-1.515v1.557h1.515v-1.558ZM761.753 40.63v1.558h1.515V40.63h-1.515Zm22.637-15.52h-1.515v1.558h1.515V25.11Zm-7.54 12.406v-1.558h-1.515v1.558h1.515Zm-16.595 0h-1.515v1.557h1.515v-1.557Zm12.068-12.406h-1.515v1.558h1.515V25.11Zm-6.043 15.52h-1.515v1.558h1.515V40.63Zm-7.54 0v1.558h1.515V40.63h-1.515Zm82.991 3.097h-1.515v1.558h1.515v-1.558Zm1.515-1.557h-1.515v1.557h1.515V42.17Zm0 4.654v-1.557h-1.515v1.557h1.515Zm-3.013-1.557h-1.515v1.557h1.515v-1.557Zm-86.002-13.963h-1.515v1.557h1.515v-1.557Zm79.978 7.75h-1.515v1.558h1.515v-1.557Zm3.012 1.558v-1.557h-1.515v1.557h1.515Zm-55.826 4.655v1.557h1.515v-1.557h-1.515Zm58.856 4.654v-1.557h-1.515v1.557h1.515Zm-3.012-7.751h-1.515v1.557h1.515V42.17Zm1.515 0v1.557h1.515V42.17h-1.515Zm-63.384 3.097v1.557h1.515v-1.557h-1.515ZM764.8 34.4v-1.557h-1.515V34.4h1.515Zm-4.527-1.557v-1.557h-1.515v1.557h1.515Zm-3.012 0v-1.557h-1.515v1.557h1.515ZM767.83 34.4v-1.557h-1.515V34.4h1.515Zm45.274 17.06h1.515v-1.557h-1.515v1.557Zm25.65-3.096v-1.558h-1.515v1.558h1.515ZM778.4 45.267v1.557h1.515v-1.557H778.4Zm28.662 6.211h1.515v-1.557h-1.515v1.557Zm-6.043 0h1.515v-1.557h-1.515v1.557Zm21.123-12.405h-1.516v1.557h1.516v-1.557Zm-92.046-1.557h-1.515v1.557h1.515v-1.557Zm42.244 4.654v1.557h1.515V42.17h-1.515Zm12.067-13.963h-1.515v1.557h1.515v-1.557Zm-55.826 7.751h-1.515v1.558h1.515v-1.558Zm33.189-1.557v-1.558h-1.515V34.4h1.515Zm16.595-6.212h-1.515v1.557h1.515V28.19Zm-43.759 12.405v-1.557h-1.515v-1.558h-1.515v1.558h-1.515v1.557h1.515v1.558h1.515v-1.558h1.515Zm0 0v1.558h1.515v-1.558h-1.515Zm34.704 1.558v1.557h1.515v-1.557h-1.515Zm13.582-1.558v-1.557h-1.515v1.557h1.515Zm-13.582 0h-1.515v1.558h1.515v-1.558Zm37.717 4.654h1.515v-1.557h-1.515v1.557Zm15.097-1.557v-1.557h-1.515v1.557h1.515Zm-3.013-13.963h-1.515v1.558h1.515v-1.558Zm0 6.212h-1.515v1.557h1.515V35.94Zm1.515 6.212v-1.558h-1.515v1.558h1.515Zm-86.002-4.655V35.94h-1.515v1.557h1.515Zm-4.528-1.557v-1.558h-1.515v1.558h1.515Zm86.003-3.097h-1.515V34.4h1.515v-1.557Zm-3.012-3.097h-1.515v1.558h1.515v-1.558Zm-82.991 7.751h1.515V35.94h-1.515v1.557Zm60.354-9.308h-1.515v1.557h1.515V28.19Zm40.746 13.963h-1.515v1.557h1.515v-1.557Zm-78.463-1.558v1.558h1.515v-1.558h-1.515Zm78.463 6.212v-1.557h-1.515v1.557h1.515Zm-1.515-1.557V43.69h-1.515v1.557h1.515Zm-16.594 3.096h1.515v-1.557h-1.515v1.557Zm9.055-15.52h-1.516v1.557h1.516v-1.557Zm-63.384 7.751V39.02h-1.515V37.46h-1.515v1.558h-1.515v1.557h1.515v1.558h1.515v-1.558h1.515Zm-6.042 0V39.02h-1.515V37.46h-1.515v1.558h-1.515v1.557h1.515v1.558h1.515v-1.558h1.515Zm75.45-1.557h-1.515v1.557h1.515V39.02Zm-3.012-3.097h-1.515v1.557h1.515v-1.557Zm-78.463 4.654V39.02h-1.515V37.46h-1.515v1.558h-1.515v1.557h1.515v1.558h1.515v-1.558h1.515Zm31.692-1.557V37.46h-1.515v1.558h1.515Zm-10.57 0h-1.515v1.557h1.515V39.02Zm-27.165 1.557v1.558h1.515v-1.558h-1.515Zm66.396 7.751h1.515V46.77h-1.515v1.557Zm-66.396-7.75v-1.558h-1.515V37.46h-1.515v1.558h-1.515v1.557h1.515v1.558h1.515v-1.558h1.515Zm39.232 0v-1.558h-1.515v1.557h1.515Zm-19.625-1.558v1.557h1.515V39.02h-1.515Zm40.747 9.308h1.515V46.77h-1.515v1.557Zm-37.717-9.308v1.557h1.515V39.02h-1.515Zm-16.594 1.557v1.558h1.515v-1.558h-1.515Zm152.399 0h1.515V39.02h-1.515v1.557Zm-36.22 12.406h1.515v-1.558h-1.515v1.558Zm4.528 0v-1.558h-1.515v1.558h1.515Zm-7.54-27.926h1.515v-1.558h-1.515v1.558Zm4.527 26.368h1.515v-1.557h-1.515v1.557Zm-4.527-13.963h1.515v-1.557h-1.515v1.557Zm0-3.097h1.515v-1.557h-1.515v1.557Zm3.012 13.963v1.558h1.515v-1.558h-1.515Zm-3.012-20.174h1.515v-1.558h-1.515v1.558Zm0 3.096h1.515v-1.557h-1.515v1.557Zm6.042 3.097h1.515V32.79H865.9v1.557Zm0-3.097h1.515v-1.557H865.9v1.557Zm0-6.211h1.515V23.48H865.9v1.558Zm0 12.405h1.515v-1.557H865.9v1.557Zm0 12.406h1.515V48.29H865.9v1.558Zm0-21.715h1.515v-1.557H865.9v1.557Zm12.068 3.097h1.515v-1.557h-1.515v1.557ZM865.9 46.751h1.515v-1.557H865.9v1.558Zm0-3.096h1.515v-1.558H865.9v1.558Zm-6.042-3.097h1.515v-1.557h-1.515v1.557Zm-6.042-12.405h1.515v-1.558h-1.515v1.558Zm0 3.096h1.515v-1.557h-1.515v1.557Zm0 3.097h1.515V32.79h-1.515v1.557Zm1.515 6.212v-1.557h-1.515v1.557h1.515Zm6.042 12.406v-1.558h-1.515v1.558h1.515Zm-7.54-15.521h1.515v-1.557h-1.515v1.557Zm6.043 6.212h1.515v-1.558h-1.515v1.558ZM852.336 39h1.515v-1.558h-1.515v1.558Zm-1.515-3.097v1.557h1.515v-1.557h-1.515Zm0 4.654h1.515v-1.557h-1.515v1.557Zm7.54 4.654h1.515v-1.557h-1.515v1.557Zm3.012 1.558v-1.558h-1.515v1.558h1.515Zm-4.527 6.212h1.515v-1.558h-1.515v1.558Zm0-10.867v1.558h1.515v-1.558h-1.515Zm0 4.655h1.515v-1.558h-1.515v1.558Zm3.012 3.097h1.515v-1.558h-1.515v1.558Zm-1.515 1.557h1.515v-1.557h-1.515v1.557Zm-1.515-3.097v1.558h1.515v-1.558h-1.515Zm-3.012-23.271h1.515v-1.558h-1.515v1.558Zm21.122 12.405h1.515v-1.557h-1.515v1.557Zm0 6.212h1.515v-1.558h-1.515v1.558Zm0-12.406h1.515V29.71h-1.515v1.557Zm0 3.097h1.515v-1.557h-1.515v1.557Zm0 6.212h1.515V39.02h-1.515v1.557Zm0 12.406h1.515v-1.558h-1.515v1.558Zm-3.013-27.926h1.515v-1.558h-1.515v1.558Zm3.013 21.714h1.515v-1.558h-1.515v1.558Zm0 3.097h1.515v-1.558h-1.515v1.558Zm0-21.714h1.515v-1.558h-1.515v1.558Zm3.012 12.405h1.515v-1.557h-1.515v1.557Zm0-3.097h1.515v-1.557h-1.515v1.557Zm-9.055 15.52h1.515v-1.557h-1.515v1.558Zm9.055-9.308h1.515v-1.558h-1.515v1.558Zm0-9.309h1.515v-1.557h-1.515v1.557Zm0 18.618h1.515v-1.558h-1.515v1.558Zm0-3.097h1.515v-1.558h-1.515v1.558Zm0-3.097h1.515V45.23h-1.515v1.558Zm-6.042-18.617h1.515v-1.558h-1.515v1.558Zm-3.013 6.211h1.515v-1.557h-1.515v1.557Zm0 6.212h1.515v-1.557h-1.515v1.557Zm0-3.097h1.515V35.94h-1.515v1.557Zm0-6.211h1.515v-1.558h-1.515v1.558Zm0-3.097h1.515V26.63h-1.515v1.558Zm0 15.52h1.515v-1.557h-1.515v1.557Zm0 6.212h1.515v-1.557h-1.515v1.557Zm0-3.097h1.515v-1.557h-1.515v1.557Zm3.013-12.405h1.515V32.86h-1.515v1.558Zm0 9.308h1.515V42.17h-1.515v1.557Zm0-6.211h1.515v-1.558h-1.515v1.558Zm0 3.096h1.515v-1.557h-1.515v1.557Zm0-9.308h1.515v-1.558h-1.515v1.558Zm0 18.617h1.515v-1.557h-1.515v1.557Zm0 3.097h1.515V51.46h-1.515v1.558Zm0-6.212h1.515v-1.557h-1.515v1.557Zm-3.013-21.714h1.515v-1.558h-1.515v1.558Zm-3.012 15.52h1.515v-1.557h-1.515v1.557Zm-55.826 9.309v1.557h1.515v-1.557h-1.515Zm4.527 3.097h1.515V51.46h-1.515v1.558Zm-3.012-1.558v1.558h1.515V51.46h-1.515Zm-6.043 0v1.558h1.515V51.46h-1.515Zm3.013 1.558h1.515V51.46h-1.515v1.558Zm-10.57-3.097v1.557h1.515v-1.557h-1.515Zm1.515 1.557v1.558h1.515v-1.558h-1.515Zm3.012 1.558h1.515v-1.558h-1.515v1.558Zm-6.042 0h1.515v-1.558h-1.515v1.558Zm36.219 0h1.515v-1.558h-1.515v1.558Zm-6.042 0h1.515v-1.558h-1.515v1.558Zm-3.013-1.558v1.558h1.515v-1.558h-1.515Zm4.528-1.557v1.557h1.515v-1.557h-1.515Zm-12.068 0v1.557h1.515v-1.557h-1.515Zm13.583 1.557v1.558h1.515v-1.558h-1.515Zm-12.068 0v1.558h1.515v-1.558h-1.515Zm3.013 1.558h1.515v-1.558h-1.515v1.558Zm1.515-3.097v1.557h1.515V49.94h-1.515Zm-18.11 0v1.557h1.515V49.94h-1.515Zm-58.856 1.557V49.94h-1.515v1.557h-1.515v1.558h1.515v1.557h1.515v-1.557h1.515v-1.558h-1.515Zm18.11 0V49.94h-1.515v1.557h-1.515v1.558h1.515v1.557h1.515v-1.557h1.515v-1.558h-1.515Zm-12.067 0V49.94h-1.515v1.557h-1.515v1.558h1.515v1.557h1.515v-1.557h1.515v-1.558h-1.515Zm6.042 0V49.94h-1.515v1.557h-1.515v1.558h1.515v1.557h1.515v-1.557h1.515v-1.558h-1.515Zm-18.11 0V49.94h-1.515v1.557h-1.515v1.558h1.515v1.557h1.515v-1.557h1.515v-1.558h-1.515Zm-16.594 0v1.558h-1.515v1.557h-1.515v-1.557h-1.515v1.557h-1.515v-1.557h-1.515v1.557h-1.515v-1.557h-1.515v1.557h-1.515v-1.557h-1.515v1.557h-1.515v-1.557h-1.515v1.557h-1.515v-1.557h-1.515v1.557h-1.515v-1.557h-1.515v1.557h-1.515v-1.557h-1.515v1.557h-1.515v-1.557h-1.515v1.557h-1.515v-1.557h-1.515v1.557h-1.515v-1.557h-1.515v1.557h-1.515v-1.557h-1.515v1.557h-1.515v-1.557h-1.515v1.557h-1.515v-1.557h-1.515v1.557h-1.515v-1.557h-1.515v1.557h-1.515v-1.557h-1.515v1.557h-1.515v-1.557h-1.515v1.557h-1.515v-1.557h-1.515v1.557h-1.515v-1.557h-1.515v1.557h-1.515v-1.557h-1.515v1.557h-1.515v-1.557h-1.515v1.557h-1.515v-1.557h-1.515v1.557h-1.515v-1.557h-1.515v1.557h-1.515v-1.557h-1.515v1.557h-1.515v-1.557h-1.515v1.557h-1.515v-1.557h-1.515v1.557h-1.515v-1.557h-1.515v1.557h-4.528v-1.557h-1.515v1.557h-4.527v-1.557h-1.515v1.557h-4.528v-1.557h-1.515v1.557h-4.527v-1.557h-1.515v1.557h-4.527v-1.557h-1.515v1.557h-4.528v-1.557h-1.515v1.557h-4.527v-1.557h-1.515v1.557h-4.528v-1.557h-1.515v1.557H401.059V22.087h159.956v1.557h1.515v-1.557h4.527v1.557h1.515v-1.557h4.528v1.557h1.515v-1.557h4.527v1.557h1.515v-1.557h4.527v1.557h1.515v-1.557h4.528v1.557h1.515v-1.557h4.527v1.557h1.515v-1.557h4.528v1.557h1.515v-1.557h4.527v1.557h1.515v-1.557h1.515v1.557h1.515v-1.557h1.515v1.557h1.515v-1.557h1.515v1.557h1.515v-1.557h1.515v1.557h1.515v-1.557h1.515v1.557h1.515v-1.557h1.515v1.557h1.515v-1.557h1.515v1.557h1.515v-1.557h1.515v1.557h1.515v-1.557h4.527v1.557h1.515v-1.557h1.515v1.557h1.515v-1.557h1.515v1.557h1.515v-1.557h1.515v1.557h1.515v-1.557h1.515v1.557h1.515v-1.557h1.515v1.557h1.515v-1.557h1.515v1.557h1.515v-1.557h1.515v1.557h1.515v-1.557h1.515v1.557h1.515v1.558h-1.515v1.557h1.515v-1.557h1.515v1.557h1.515v-1.557h-1.515v-1.558h1.515v-1.557h1.515v1.557h1.515v1.558h-1.515v1.557h1.515v-1.557h1.515v1.557h1.515v-1.557h-1.515v-1.558h1.515v-1.557h1.515v1.557h1.515v1.558h-1.515v1.557h1.515v-1.557h1.515v1.557h1.515v-1.557h-1.515v-1.558h1.515v-1.557h1.515v1.557h1.516v1.558h-1.516v1.557h1.516v-1.557h1.514v1.557h1.516v-1.557h-1.516v-1.558h1.516v-1.557h1.514v1.557h1.516v1.558h-1.516v1.557h1.516v-1.557h1.515v1.557h1.514v-1.557h-1.514v-1.558h1.514v-1.557h1.516v1.557h1.515v1.558h-1.515v1.557h1.515v-1.557h1.515v1.557h1.515v1.558h-1.515v1.557h-1.515v-1.558h-1.515v1.558h1.515v1.557h-1.515v1.558h1.515V31.43h1.515v1.558h1.515V31.43h-1.515v-1.557h1.515v-1.558h1.515v1.558h1.515v1.557h-1.515v1.558h1.515V31.43h1.515v1.558h1.515v1.557h-1.515v1.558h-1.515v-1.558h-1.515v1.558h1.515v1.557h-1.515v1.558h1.515V37.66h1.515v1.558h1.515V37.66h-1.515v-1.557h1.515v-1.558h1.515v1.558h1.515v1.557h-1.515v1.558h1.515V37.66h1.515v1.558h1.515v1.557h-1.515v1.558h-1.515v-1.558h-1.515v1.558h1.515v1.557h-1.515v1.558h1.515V43.89h1.515v1.558h1.515V43.89h-1.515v-1.557h1.515v-1.558h1.515v1.558h1.515v1.557h-1.515v1.558h1.515V43.89h1.515v1.558h1.515v1.557h-1.515v1.558h-1.515v-1.558h-1.515v1.558h1.515v1.557h-1.515v1.558h1.515V50.12h1.515v1.558h1.515V50.12h-1.515v-1.557h1.515v-1.558h1.515v1.558h1.515v1.557h-1.515v1.558h1.515V50.12h1.515v1.558h1.515l-.423-.181ZM568.537 28.297h-1.515v1.558h1.515v-1.558Zm6.042 6.212h-1.515v1.558h1.515v-1.558Zm0-6.212h-1.515v1.558h1.515v-1.558Zm6.043 12.406h-1.515v1.557h1.515v-1.557Zm0-6.212h-1.515v1.557h1.515v-1.557Zm0-6.212h-1.515v1.558h1.515v-1.558Zm6.042 18.618h-1.515v1.557h1.515v-1.557Zm0-6.212h-1.515v1.557h1.515v-1.557Zm0-6.212h-1.515v1.557h1.515v-1.557Zm0-6.212h-1.515v1.558h1.515V28.26Zm6.043 18.617h-1.515v1.558h1.515v-1.558Zm0-6.211h-1.515v1.557h1.515v-1.557Zm0-6.212h-1.515v1.557h1.515v-1.557Zm0-6.212h-1.515v1.558h1.515v-1.558Zm3.012-3.097h-1.515v1.558h1.515v-1.558Zm3.012 21.714h-1.515v1.558h1.515V46.86Zm0-6.212h-1.515v1.558h1.515v-1.558Zm0-6.211h-1.515v1.557h1.515v-1.557Zm0-6.212h-1.515v1.557h1.515v-1.557Zm3.013 3.097h-1.515v1.557h1.515v-1.557Zm0-6.212h-1.515v1.558h1.515V25.11Zm3.012 21.714h-1.515v1.558h1.515v-1.558Zm0-6.212h-1.515v1.558h1.515v-1.558Zm0-6.212h-1.515v1.558h1.515v-1.557Zm0-6.211h-1.515v1.557h1.515V28.19Zm3.013 9.308h-1.516v1.558h1.516v-1.558Zm0-6.211h-1.516v1.557h1.516v-1.557Zm0-6.212h-1.516v1.557h1.516v-1.557Zm3.012 21.714h-1.515v1.557h1.515v-1.557Zm0-6.212h-1.515v1.558h1.515v-1.558Zm0-6.212h-1.515v1.558h1.515v-1.558Zm0-6.211h-1.515v1.557h1.515v-1.558Zm3.012 15.52h-1.515v1.557h1.515v-1.557Zm0-6.212h-1.515v1.558h1.515V37.46Zm0-6.212h-1.515v1.558h1.515v-1.558Zm0-6.211h-1.515v1.557h1.515v-1.557Zm3.013 21.714h-1.515v1.557h1.515v-1.557Zm0-6.212h-1.515v1.557h1.515V40.54Zm0-6.212h-1.515v1.557h1.515v-1.557Zm0-6.212h-1.515v1.558h1.515v-1.558Zm3.012 21.714h-1.515v1.558h1.515V49.83Zm0-6.211h-1.515v1.557h1.515V43.62Zm0-6.212h-1.515v1.557h1.515v-1.557Zm0-6.212h-1.515v1.557h1.515v-1.557Zm0-3.097h-1.515v1.558h1.515v-1.558Zm0-3.097h-1.515v1.558h1.515V25Zm3.012 21.714h-1.515v1.558h1.515v-1.558Zm0-6.211h-1.515v1.557h1.515v-1.557Zm0-6.212h-1.515v1.557h1.515v-1.557Zm0-6.212h-1.515v1.558h1.515V28.08Zm3.013 21.714h-1.515v1.558h1.515v-1.558Zm0-6.212h-1.515v1.558h1.515v-1.558Zm0-6.211h-1.515v1.557h1.515v-1.557Zm0-3.097h-1.515v1.557h1.515v-1.557Zm0-3.097h-1.515v1.557h1.515v-1.557Zm0-3.097h-1.515v1.558h1.515V28.08Zm0-3.097h-1.515v1.558h1.515v-1.558Zm3.012 21.714h-1.515v1.558h1.515v-1.558Zm0-6.212h-1.515v1.558h1.515v-1.557Zm0-6.211h-1.515v1.557h1.515v-1.557Zm0-6.212h-1.515v1.557h1.515v-1.557Zm3.013 21.714h-1.515v1.557h1.515v-1.557Zm0-6.212h-1.515v1.558h1.515v-1.558Zm0-3.097h-1.515v1.558h1.515v-1.558Zm0-3.096h-1.515v1.557h1.515v-1.557Zm0-3.097h-1.515v1.557h1.515v-1.557Zm0-3.097h-1.515v1.557h1.515v-1.557Zm0-3.097h-1.515v1.558h1.515V28.08Zm0-3.097h-1.515v1.558h1.515v-1.558Zm3.012 21.714h-1.515v1.558h1.515v-1.558Zm0-6.212h-1.515v1.558h1.515v-1.557Zm0-6.211h-1.515v1.557h1.515v-1.557Zm0-6.212h-1.515v1.557h1.515v-1.557Zm3.012 21.714h-1.515v1.557h1.515v-1.557Zm0-3.097h-1.515v1.558h1.515v-1.558Zm0-3.097h-1.515v1.558h1.515v-1.558Zm0-3.096h-1.515v1.557h1.515v-1.557Zm0-3.097h-1.515v1.557h1.515V37.39Zm0-3.097h-1.515v1.557h1.515v-1.557Zm0-3.097h-1.515v1.557h1.515v-1.557Zm0-3.097h-1.515v1.558h1.515v-1.558Zm0-3.097h-1.515v1.558h1.515V25Zm3.013 21.714h-1.515v1.558h1.515v-1.558Zm0-6.211h-1.515v1.557h1.515v-1.557Zm0-6.212h-1.515v1.557h1.515v-1.557Zm0-6.212h-1.515v1.558h1.515V28.08Zm3.012 21.714h-1.515v1.558h1.515v-1.558Zm0-3.097h-1.515v1.558h1.515v-1.558Zm0-3.097h-1.515v1.558h1.515V43.6Zm0-3.096h-1.515v1.557h1.515v-1.557Zm0-3.097h-1.515v1.557h1.515v-1.557Zm0-3.097h-1.515v1.557h1.515V34.31Zm0-3.097h-1.515v1.558h1.515v-1.558Zm0-3.097h-1.515v1.558h1.515v-1.558Zm0-3.097h-1.515v1.558h1.515v-1.558Zm3.013 21.715h-1.515v1.557h1.515v-1.557Zm0-6.212h-1.515v1.557h1.515v-1.557Zm0-6.212h-1.515v1.557h1.515V34.31Zm0-6.212h-1.515v1.558h1.515v-1.558Zm0-3.097h-1.515v1.558h1.515V25Zm3.012 24.83h-1.515v1.557h1.515V49.83Zm0-3.097h-1.515v1.557h1.515v-1.557Zm0-3.097h-1.515v1.557h1.515v-1.557Zm0-3.097h-1.515v1.557h1.515V40.54Zm0-3.097h-1.515v1.558h1.515v-1.558Zm0-3.097h-1.515v1.558h1.515v-1.558Zm0-3.097h-1.515v1.558h1.515v-1.558Zm0-3.096h-1.515v1.557h1.515v-1.558Zm0-3.097h-1.515v1.557h1.515v-1.557Zm3.012 21.714h-1.515v1.557h1.515V46.77Zm0-6.212h-1.515v1.557h1.515v-1.557Zm0-6.212h-1.515v1.558h1.515v-1.558Zm0-3.097h-1.515v1.558h1.515v-1.558Zm0-3.096h-1.515v1.557h1.515v-1.558Zm0-3.097h-1.515v1.557h1.515v-1.557Zm3.013 24.829h-1.515v1.557h1.515v-1.557Zm0-3.097h-1.515v1.557h1.515v-1.557Zm0-3.097h-1.515v1.557h1.515v-1.557Zm0-3.097h-1.515v1.558h1.515v-1.558Zm0-3.097h-1.515v1.558h1.515v-1.558Zm0-3.096h-1.515v1.557h1.515v-1.557Zm0-3.097h-1.515v1.557h1.515v-1.557Zm0-3.097h-1.515v1.557h1.515v-1.557Zm0-3.097h-1.515v1.558h1.515V25.11Zm3.012 21.714h-1.515v1.558h1.515v-1.558Zm0-6.212h-1.515v1.558h1.515v-1.558Zm0-3.096h-1.515v1.557h1.515v-1.557Zm0-3.097h-1.515v1.557h1.515V34.42Zm0-3.097h-1.515v1.557h1.515v-1.557Zm0-3.097h-1.515v1.557h1.515v-1.557Zm0-3.097h-1.515v1.558h1.515v-1.558Zm3.012 24.83h-1.514v1.557h1.514v-1.558Zm0-3.098h-1.514v1.558h1.514V46.86Zm0-3.096h-1.514v1.557h1.514v-1.557Zm0-3.097h-1.514v1.557h1.514v-1.557Zm0-3.097h-1.514v1.557h1.514V37.57Zm0-3.097h-1.514v1.557h1.514v-1.557Zm0-3.097h-1.514v1.558h1.514v-1.558Zm0-3.097h-1.514v1.558h1.514v-1.558Zm0-3.097h-1.514v1.558h1.514v-1.558Zm3.013 21.715h-1.515v1.557h1.515v-1.557Zm0-3.097h-1.515v1.557h1.515V43.8Zm0-3.097h-1.515v1.557h1.515v-1.557Zm0-3.097h-1.515v1.557h1.515v-1.557Zm0-3.097h-1.515v1.558h1.515v-1.558Zm0-3.097h-1.515v1.558h1.515v-1.558Zm0-3.096h-1.515v1.557h1.515v-1.558Zm3.012 21.714h-1.515v1.557h1.515V50.03Zm0-3.097h-1.515v1.557h1.515v-1.557Zm0-3.097h-1.515v1.557h1.515v-1.557Zm0-3.097h-1.515v1.558h1.515v-1.558Zm0-3.097h-1.515V39.2h1.515v-1.558Zm0-3.097h-1.515v1.558h1.515v-1.558Zm0-3.096h-1.515v1.557h1.515v-1.557Zm0-3.097h-1.515v1.557h1.515v-1.557Zm3.013 21.714h-1.515v1.557h1.515v-1.557Zm0-3.097h-1.515v1.557h1.515V46.97Zm0-3.097h-1.515v1.558h1.515v-1.558Zm0-3.097h-1.515v1.558h1.515v-1.558Zm0-3.096h-1.515v1.557h1.515v-1.557Zm0-3.097h-1.515v1.557h1.515v-1.557Zm3.012 15.52h-1.515v1.558h1.515v-1.558Zm0-3.097h-1.515v1.558h1.515v-1.558Zm0-3.097h-1.515v1.558h1.515v-1.558Zm0-3.096h-1.515v1.557h1.515v-1.557Zm0-3.097h-1.515v1.557h1.515v-1.557Zm0-3.097h-1.515v1.557h1.515v-1.557Zm0-6.212h-1.515v1.558h-1.515v-1.558h-1.515v1.558h1.515v1.557h-1.515v1.557h1.515v-1.557h1.515v1.557h1.515v-1.557h-1.515v-1.558h1.515v-1.557Zm3.012 21.714h-1.515v1.558h1.515V50.12Zm0-3.097h-1.515v1.558h1.515v-1.558Zm0-3.097h-1.515v1.558h1.515v-1.558Zm0-3.096h-1.515v1.557h1.515V40.83Zm3.013 9.308h-1.515v1.558h1.515v-1.558Zm0-3.097h-1.515V48.6h1.515V47.04Zm0-3.096h-1.515v1.557h1.515v-1.557Zm0-3.097h-1.515v1.557h1.515v-1.557Zm0-6.212h-1.515v1.557h-1.515v-1.557h-1.515v1.557h1.515v1.558h-1.515v1.557h1.515v-1.557h1.515v1.557h1.515v-1.557h-1.515v-1.558h1.515v-1.557Zm0-6.212h-1.515v1.558h-1.515v-1.558h-1.515v1.558h1.515v1.557h-1.515v1.558h1.515v-1.558h1.515v1.558h1.515v-1.558h-1.515v-1.557h1.515v-1.558Zm3.012 21.714h-1.515v1.558h1.515v-1.558Zm0-3.097h-1.515V48.6h1.515V47.04Zm3.013 3.097h-1.515v1.558h1.515v-1.558Zm0-3.097h-1.515V48.6h1.515V47.04Zm0-6.211h-1.515v1.557h-1.515V40.83h-1.515v1.557h1.515v1.558h-1.515v1.557h1.515v-1.557h1.515v1.557h1.515v-1.557h-1.515v-1.558h1.515V40.83Zm0-6.212h-1.515v1.557h-1.515v-1.557h-1.515v1.557h1.515v1.558h-1.515v1.557h1.515v-1.557h1.515v1.557h1.515v-1.557h-1.515v-1.558h1.515v-1.557Zm0-6.212h-1.515v1.558h-1.515v-1.558h-1.515v1.558h1.515v1.557h-1.515v1.557h1.515v-1.557h1.515v1.557h1.515v-1.557h-1.515v-1.558h1.515v-1.557Zm6.042 18.617h-1.515v1.558h-1.515v-1.558h-1.515v1.558h1.515v1.557h-1.515v1.558h1.515v-1.558h1.515v1.558h1.515v-1.558h-1.515v-1.557h1.515v-1.558Zm0-6.212h-1.515v1.558h-1.515v-1.557h-1.515v1.557h1.515v1.557h-1.515v1.558h1.515v-1.558h1.515v1.558h1.515v-1.558h-1.515V42.37h1.515v-1.557Zm0-6.211h-1.515v1.557h-1.515V34.6h-1.515v1.557h1.515v1.558h-1.515v1.557h1.515v-1.557h1.515v1.557h1.515v-1.557h-1.515v-1.558h1.515V34.6Zm0-6.212h-1.515v1.557h-1.515v-1.557h-1.515v1.557h1.515v1.558h-1.515v1.557h1.515v-1.557h1.515v1.557h1.515v-1.557h-1.515v-1.558h1.515v-1.557Zm6.042 18.617h-1.515v1.558h-1.515v-1.558h-1.515v1.558h1.515v1.557h-1.515v1.558h1.515V50.12h1.515v1.558h1.515V50.12h-1.515v-1.557h1.515v-1.558Zm0-6.212h-1.515v1.558h-1.515v-1.558h-1.515v1.558h1.515v1.557h-1.515v1.558h1.515v-1.558h1.515v1.558h1.515v-1.558h-1.515v-1.557h1.515v-1.558Zm0-6.211h-1.515v1.557h-1.515v-1.557h-1.515v1.557h1.515v1.558h-1.515v1.557h1.515v-1.557h1.515v1.557h1.515v-1.557h-1.515v-1.558h1.515v-1.557Zm6.043 12.405h-1.515v1.558h-1.515v-1.558h-1.515v1.558h1.515v1.557h-1.515v1.558h1.515v-1.558h1.515v1.558h1.515v-1.558h-1.515v-1.557h1.515v-1.558Zm0-6.212h-1.515v1.558h-1.515v-1.558h-1.515v1.558h1.515v1.557h-1.515v1.558h1.515V43.89h1.515v1.558h1.515V43.89h-1.515v-1.557h1.515v-1.558Zm6.042 6.212h-1.515v1.558h-1.515v-1.558h-1.515v1.558h1.515v1.557h-1.515v1.558h1.515v-1.558h1.515v1.558h1.515v-1.558h-1.515v-1.557h1.515v-1.558Zm16.595 4.654v-1.557h-1.515v1.557h-1.515V53.2h1.515v1.557h1.515V53.2h1.515V51.64h-1.515Zm126.749-7.75h1.515v-1.558h-1.515v1.557Zm-120.707 7.75v-1.557h-1.515v1.557h-1.515V53.2h1.515v1.557h1.515V53.2h1.515V51.64h-1.515Zm51.299 0V53.2h1.515V51.64h-1.515Zm-3.012 0V53.2h1.515V51.64h-1.515Zm6.042 0V53.2h1.515V51.64h-1.515Zm3.012 0V53.2h1.515V51.64h-1.515Zm-15.097 0V53.2h1.515V51.64h-1.515Zm-3.012 0V53.2h1.515V51.64h-1.515Zm6.042 0V53.2h1.515V51.64h-1.515Zm-9.055 0v-1.557h-1.515v1.557h-1.515V53.2h1.515v1.557h1.515V53.2h1.515V51.64h-1.515Zm24.135 0V53.2h1.515V51.64h-1.515Zm51.298-21.714v1.558h1.515v-1.558h-1.515Zm3.013-1.557h1.515v-1.558h-1.515v1.558Zm0 3.097h1.515v-1.558h-1.515v1.558Zm7.54 21.714v-1.558h-1.515v1.558h1.515Zm-7.54-27.926h1.515v-1.558h-1.515v1.558Zm0 12.405h1.515v-1.557h-1.515v1.557Zm1.515-3.096v-1.558h-1.515v1.557h1.515Zm-4.528 0h1.515v-1.558h-1.515v1.557Zm-10.569 15.52v1.557h1.515v-1.557h-1.515Zm16.594 3.097h1.515v-1.558h-1.515v1.558Zm1.515-7.751h1.515v-1.558h-1.515v1.558Zm3.013 1.557V45.43h-1.515v1.557h1.515Zm-4.528 0h1.515V45.43h-1.515v1.557Zm-6.042-10.866v1.557h1.515v-1.557h-1.515Zm6.042 6.212v1.557h1.515v-1.557h-1.515Zm3.013 7.75h1.515v-1.556h-1.515v1.557Zm-1.515 1.558h1.515v-1.557h-1.515v1.557Zm-1.515-3.096v1.557h1.515v-1.557h-1.515Zm-4.528-15.52h1.515v-1.558h-1.515v1.557Zm-4.527 18.616V53.2h1.515V51.64h-1.515Zm3.012 1.558h1.515V51.64h-1.515V53.2Zm-1.515-4.654h-1.515v1.557h1.515v-1.557Zm3.013 3.096h1.515v-1.557h-1.515v1.557Zm-10.57 0V53.2h1.515V51.64h-1.515Zm10.57-12.405h1.515v-1.557h-1.515v1.557Zm-6.043 10.866v1.558h1.515v-1.558h-1.515Zm-1.515 3.097h1.515V51.64h-1.515V53.2Zm6.043-4.654v1.557h1.515v-1.557h-1.515Zm3.012-4.655h1.515v-1.557h-1.515v1.557Zm1.515-3.097v-1.557h-1.515v1.557h1.515Zm-4.527 1.558v1.557h1.515v-1.557h-1.515Zm0-1.558h1.515v-1.557h-1.515v1.557Zm3.012 9.31h1.515v-1.558h-1.515v1.557Zm-1.515-4.655h1.515V43.89h-1.515v1.558Zm3.012 1.557v-1.557h-1.515v1.557h1.515Zm-4.527 0h1.515v-1.557h-1.515v1.557Zm87.518-9.308h1.515v-1.558h-1.515v1.558Zm-12.067 6.211h1.515v-1.557h-1.515v1.557Zm0-6.211h1.515v-1.558h-1.515v1.558Zm0-6.212h1.515v-1.558h-1.515v1.558Zm0 18.617h1.515v-1.557h-1.515v1.557Zm0 3.097h1.515V51.64h-1.515V53.2Zm-3.013-18.617h1.515v-1.558h-1.515v1.558Zm3.013-9.309h1.515v-1.558h-1.515v1.558Zm-3.013 15.52h1.515v-1.557h-1.515v1.557Zm0-12.405h1.515V26.83h-1.515v1.558Zm9.055 3.097h1.515v-1.558h-1.515v1.558Zm-3.012 21.714h1.515V51.64h-1.515V53.2Zm0-24.811h1.515V26.83h-1.515v1.558Zm3.012 15.52h1.515v-1.557h-1.515v1.557Zm0-6.211h1.515v-1.558h-1.515v1.558Zm0 12.405h1.515v-1.557h-1.515v1.557Zm-3.012-3.097h1.515v-1.557h-1.515v1.557Zm0-6.212h1.515v-1.557h-1.515v1.557Zm0-6.211h1.515v-1.558h-1.515v1.558Zm-6.043 12.405h1.515V45.43h-1.515v1.557Zm-6.042-12.405h1.515v-1.558h-1.515v1.558Zm0 12.405h1.515V45.43h-1.515v1.557Zm6.042 6.212h1.515V51.64h-1.515V53.2Zm-6.042-12.406h1.515v-1.557h-1.515v1.557Zm-3.013-15.52h1.515v-1.558h-1.515v1.558Zm0 15.52h1.515v-1.557h-1.515v1.557Zm0-3.096h1.515v-1.558h-1.515v1.558Zm0-6.212h1.515v-1.558h-1.515v1.558Zm3.013 21.714h1.515V51.64h-1.515V53.2Zm3.012-15.52h1.515V36.12h-1.515v1.557Zm-3.012-9.31h1.515v-1.557h-1.515v1.558Zm3.012-3.096h1.515v-1.558h-1.515v1.558Zm0 18.617h1.515v-1.557h-1.515v1.557Zm0-12.405h1.515v-1.558h-1.515v1.558Zm0 15.52h1.515v-1.557h-1.515v1.557Zm0 6.212h1.515V51.66h-1.515v1.557Zm0-3.097h1.515v-1.557h-1.515v1.557Zm21.122-21.714h1.515v-1.557h-1.515v1.557Zm12.067 6.212h1.515V33.06h-1.515v1.558Zm0-6.212h1.515v-1.557h-1.515v1.557Zm6.043 24.811h1.515V51.66h-1.515v1.557Zm-6.043-12.405h1.515v-1.558h-1.515v1.558Zm-6.042-12.406h1.515v-1.557h-1.515v1.557Zm12.067 18.617h1.515v-1.557h-1.515v1.557Zm-6.042 0h1.515v-1.557h-1.515v1.557Zm-3.013 3.097h1.515v-1.557h-1.515v1.557Zm3.013 3.097h1.515V51.66h-1.515v1.557Zm-18.11 0h1.515V51.66h-1.515v1.557Zm36.219 0h1.515V51.66h-1.515v1.557Zm0-6.212h1.515v-1.557h-1.515v1.557Zm6.043 4.654v1.558h1.515V51.66h-1.515Zm-18.11-10.866h1.515v-1.557h-1.515v1.557Zm6.043 0h1.515v-1.557h-1.515v1.557Zm-18.11-6.211h1.515v-1.558h-1.515v1.558Zm18.11 18.617h1.515V51.64h-1.515V53.2Zm0-6.212h1.515V45.43h-1.515v1.557Zm-6.043-12.405h1.515v-1.558h-1.515v1.558Zm-21.122 15.52h1.515v-1.557h-1.515v1.557Zm0-6.212h1.515v-1.557h-1.515v1.557Zm-3.012-15.52h1.515v-1.558h-1.515v1.558Zm-230.862-3.097v1.558h1.515v-1.558h1.515v-1.558h-1.515v-1.557h-1.515v1.557h-1.515v1.558h1.515Zm230.862 21.714h1.515V45.43h-1.515v1.557Zm6.042 6.212h1.515V51.64h-1.515V53.2Zm-6.042-18.617h1.515v-1.558h-1.515v1.558Zm0 6.211h1.515v-1.557h-1.515v1.557Zm-21.122 3.097h1.515v-1.557h-1.515v1.557Zm30.177 0h1.515v-1.557h-1.515v1.557Zm3.012 9.309h1.515V51.64h-1.515V53.2Zm0-6.212h1.515V45.43h-1.515v1.557Zm-3.012 3.097h1.515v-1.558h-1.515v1.558Zm-3.013-3.097h1.515V45.43h-1.515v1.557Zm6.043-6.212h1.515v-1.557h-1.515v1.557Zm-6.043 0h1.515v-1.557h-1.515v1.557Zm0-6.212h1.515v-1.557h-1.515v1.557ZM886.723 46.97h1.515v-1.558h-1.515v1.558Zm0-12.406h1.515v-1.557h-1.515v1.557Zm0 6.212h1.515v-1.557h-1.515v1.557Zm0-12.405h1.515v-1.558h-1.515v1.558Zm0 15.52h1.515v-1.557h-1.515v1.557Zm3.012 9.309h1.515V51.64h-1.515V53.2Zm-6.042-27.926h1.515v-1.558h-1.515v1.558Zm3.012 27.926h1.515V51.64h-1.515V53.2Zm0-3.097h1.515v-1.557h-1.515v1.557Zm-9.054-21.714h1.514V26.83h-1.514v1.558Zm12.067 9.309h1.515v-1.558h-1.515v1.558Zm0-3.097h1.515v-1.558h-1.515V34.6Zm0-3.097h1.515v-1.558h-1.515v1.558Zm0-3.097h1.515v-1.557h-1.515v1.557Zm-6.043 0h1.515v-1.557h-1.515v1.557Zm6.043 15.52h1.515V42.37h-1.515v1.557Zm0 3.097h1.515v-1.557h-1.515v1.557Zm0-6.212h1.515v-1.557h-1.515v1.558Zm0 9.31h1.515v-1.558h-1.515v1.557Zm-9.055-21.715h1.515v-1.557h-1.515v1.557Zm0 12.406h1.515v-1.558h-1.515v1.558Zm0 3.096h1.515v-1.557h-1.515v1.557Zm0-6.211h1.515v-1.558h-1.515v1.558Zm0 9.308h1.515v-1.557h-1.515v1.557Zm-3.012-21.714h1.514v-1.557h-1.514v1.557Zm3.012 9.309h1.515v-1.558h-1.515V34.6Zm0 18.617h1.515V51.66h-1.515v1.557Zm0-3.097h1.515v-1.557h-1.515v1.557Zm27.164-3.097h1.515v-1.557h-1.515v1.557Zm-24.134-15.52h1.515v-1.558h-1.515v1.558Zm0 6.212h1.515v-1.558h-1.515v1.558Zm0 3.096h1.515v-1.557h-1.515v1.558Zm0-6.211h1.515v-1.558h-1.515V34.6Zm0 9.308h1.515v-1.557h-1.515v1.557Zm0 9.309h1.515V51.66h-1.515v1.557Zm0-3.097h1.515v-1.557h-1.515v1.557Zm0-3.097h1.515v-1.557h-1.515v1.557Zm6.042-21.714h1.515v-1.557h-1.515v1.557Zm12.067 12.406h1.515v-1.558h-1.515v1.558Zm0 3.096h1.515v-1.557h-1.515v1.558Zm0 3.097h1.515v-1.557h-1.515v1.557Zm0-9.308h1.515v-1.558h-1.515V34.6Zm-3.012-6.212h1.515V26.83h-1.515v1.558Zm3.012 24.81h1.515v-1.557h-1.515V53.2Zm0-21.713h1.515v-1.558h-1.515v1.558Zm-3.012 3.097h1.515v-1.558h-1.515v1.558Zm3.012 12.405h1.515V45.43h-1.515v1.557Zm0 3.097h1.515v-1.558h-1.515v1.558Zm6.043 3.097h1.515v-1.558h-1.515v1.558Zm-3.013-24.811h1.515v-1.558h-1.515v1.558Zm-3.012-3.097h1.515v-1.558h-1.515v1.558Zm3.012 9.309h1.515v-1.558h-1.515v1.558Zm3.013 15.52h1.515v-1.557h-1.515v1.557Zm-3.013-9.309h1.515v-1.557h-1.515v1.557Zm0 12.406h1.515V51.64h-1.515V53.2Zm0-6.212h1.515V45.43h-1.515v1.557Zm-9.054-15.52h1.515v-1.558h-1.515v1.558Zm-3.013 3.096h1.515v-1.557h-1.515v1.557Zm0-6.211h1.515v-1.558h-1.515v1.558Zm3.013 24.81h1.515v-1.557h-1.515v1.558Zm0-6.211h1.515v-1.558h-1.515v1.558Zm0 3.097h1.515V48.49h-1.515v1.558Zm-3.013 0h1.515V48.49h-1.515v1.558Zm0-3.097h1.515v-1.558h-1.515v1.558Zm0-6.212h1.515v-1.557h-1.515v1.557Zm3.013-15.52h1.515V23.66h-1.515v1.558Zm0 3.096h1.515v-1.557h-1.515v1.558Zm3.012 18.618h1.515v-1.558h-1.515v1.558Zm0 6.212h1.515v-1.558h-1.515v1.558Zm-6.042 0h1.515v-1.558h-1.515v1.558Zm3.012-15.52h1.515v-1.558h-1.515v1.557Zm0 3.096h1.515v-1.557h-1.515v1.557Zm0-6.212h1.515v-1.557h-1.515v1.557Zm0 9.309h1.515V42.26h-1.515v1.558Zm-78.463 6.212h1.515v-1.558h-1.515v1.558Zm-70.923-3.097v-1.558h-1.515v-1.557h-1.515v1.557h-1.515v1.558h1.515v1.557h1.515v-1.557h1.515Zm-6.043 0v-1.558h-1.515v-1.557h-1.515v1.557h-1.515v1.558h1.515v1.557h1.515v-1.557h1.515Zm15.097-18.617v-1.558h-1.515v1.558h1.515Zm-15.097 18.617v1.557h1.515v-1.557h-1.515Zm-7.539-1.558v-1.557h-1.516v1.557h-1.515v1.558h1.515v1.557h1.516v-1.557h1.515v-1.558h-1.515Zm-15.098-7.75h1.515v-1.558h-1.515v-1.558h-1.515v1.558h-1.515v1.557h1.515v1.558h1.515v-1.558Zm-3.012-3.098h1.515V32.97h-1.515v-1.558h-1.515v1.558h-1.515v1.557h1.515v1.558h1.515v-1.558Zm9.055 9.309h1.515v-1.558h-1.515v-1.557h-1.515v1.557h-1.515v1.558h1.515v1.557h1.515v-1.557Zm-3.013-3.097h1.515v-1.557h-1.515v-1.558h-1.515v1.558h-1.515v1.557h1.515v1.558h1.515v-1.558Zm46.772 6.212v1.557h1.515v-1.557h-1.515Zm-3.013 0v-1.558h-1.515v-1.557h-1.515v1.557h-1.515v1.558h1.515v1.557h1.515v-1.557h1.515Zm0 0v1.557h1.515v-1.557h-1.515Zm-52.814-15.52h1.516v-1.558h-1.516v-1.558h-1.514v1.558h-1.516v1.557h1.516v1.558h1.514V31.43Zm34.705 15.52v1.557h1.515v-1.557h-1.515Zm12.067 0v1.557h1.515v-1.557h-1.515Zm-6.043 0v-1.558h-1.515v-1.557h-1.515v1.557h-1.515v1.558h1.515v1.557h1.515v-1.557h1.515Zm6.043 0v-1.558h-1.515v-1.557h-1.515v1.557h-1.515v1.558h1.515v1.557h1.515v-1.557h1.515Zm-6.043 0v1.557h1.515v-1.557h-1.515Zm-28.661-17.06v-1.557h-1.515v1.557h1.515Zm22.637 1.558V29.89h-1.515v1.558h1.515Zm-4.528-1.558v-1.557h-1.515v1.557h1.515Zm0 1.558h1.515V29.89h-1.515v1.558Zm-25.649 0v1.557h1.515v-1.557h1.515V29.89h-1.515v-1.557h-1.515v1.557h-1.515v1.558h1.515Zm31.692-1.558v-1.557h-1.515v1.557h1.515Zm4.527-1.557v-1.558h-1.515v1.558h1.515Zm-3.012 0v-1.558h-1.515v1.558h1.515Zm-13.583 3.096h1.515v-1.557h-1.515v1.557Zm4.528 0v-1.557h-1.515v1.557h1.515Zm-16.595 0h1.515v-1.557h-1.515v1.557Zm12.067-1.557v-1.558h-1.514v1.558h1.514Zm-7.539 1.557v-1.557h-1.515v1.557h1.515Zm-6.043 0v-1.557h-1.515v1.557h1.515Zm49.802 15.52h-1.515v1.558h1.515v-1.557Zm-42.244-17.059v-1.557h-1.515v1.557h1.515Zm82.99-1.557v-1.558h-1.515v1.558h1.515Zm-82.99 3.096h1.515v-1.557h-1.515v1.557Zm-3.013 13.963v-1.557h-1.515v1.557h-1.515v1.558h1.515v1.557h1.515v-1.557h1.515v-1.558h-1.515Zm98.088-3.096h-1.515v1.557h1.515v-1.557Zm1.515 4.654h1.515v-1.558h-1.515v1.558Zm-3.012-1.558v1.558h1.515v-1.558h-1.515Zm3.012-3.096v-1.558h-1.515v1.558h1.515Zm1.515 1.557v-1.557h-1.515v1.557h1.515Zm-6.042 0v1.557h1.515v-1.557h-1.515Zm-4.528 1.557v1.558h1.515v-1.558h-1.515Zm-3.012 1.558h1.515v-1.558h-1.515v1.558Zm6.042 0h1.515v-1.558h-1.515v1.558Zm-4.527-3.097v1.558h1.515v-1.558h-1.515Zm1.515-10.866v-1.557h-1.515v1.557h1.515Zm-1.515-1.557V29.89h-1.515v1.558h1.515Zm9.055 9.308V39.2h-1.515v1.557h1.515Zm-6.043-6.212v-1.557h-1.515v1.557h1.515Zm-4.527-4.654v-1.557h-1.515v1.557h1.515Zm9.055 9.309v-1.558h-1.515V39.2h1.515Zm-3.013-3.097v-1.558h-1.515v1.558h1.515Zm1.515 1.557v-1.557h-1.515v1.557h1.515Zm-31.692 10.867v1.557h1.515v-1.558h-1.515Zm-18.109 0v1.557h1.515v-1.558h-1.515Zm22.637 0h1.515v-1.558h-1.515v1.557Zm-10.57 0v1.557h1.515v-1.558h-1.515Zm9.055 1.557h1.515v-1.558h-1.515v1.558Zm-6.043-1.558v1.558h1.515v-1.558h-1.515Zm-12.067 0v1.558h1.515v-1.558h-1.515Zm3.013 0v1.558h1.515v-1.558h-1.515Zm3.012 0v1.558h1.515v-1.558h-1.515Zm28.662-4.654v1.558h1.515v-1.558h-1.515Zm-1.515 3.097h1.515v-1.558h-1.515v1.558Zm-3.013-1.558v1.558h1.515v-1.558h-1.515Zm-1.515-1.557v1.557h1.515v-1.557h-1.515Zm7.54 1.557v1.558h1.515v-1.558h-1.515Zm-12.067 0v1.558h1.515v-1.558h-1.515Zm-1.515-1.557v1.557h1.515v-1.557h-1.515Zm-1.515 3.097h1.515v-1.558h-1.515v1.558Zm6.042 0h1.515v-1.558h-1.515v1.558Zm-67.91-15.52v-1.558h-1.515v1.557h1.515Zm39.231 15.52v1.557h1.515v-1.557h-1.515Zm3.012 0v1.557h1.515v-1.557h-1.515Zm6.043 0v1.557h1.515v-1.557h-1.515Zm-3.013 0v1.557h1.515v-1.557h-1.515Zm-6.042-1.558h-1.515v1.558h1.515v-1.558Zm-9.055-3.096h-1.515v1.557h1.515v-1.557Zm1.515 1.557h-1.515v1.557h1.515v-1.557Zm-6.042-1.557v1.557h1.515v-1.557h-1.515Zm45.274 0v1.557h1.515v-1.557h-1.515Zm-36.219 3.096v1.558h1.515v-1.558h-1.515Zm27.164-3.096v1.557h1.515v-1.557h-1.515Zm-37.717-13.963v-1.558h-1.515v1.558h1.515Zm36.22 17.06h1.515v-1.558h-1.515v1.557Zm7.539-3.097v1.557h1.515v-1.557h-1.515Zm-13.582 6.211h1.515v-1.557h-1.515v1.557Zm3.013-4.654v1.557h1.515v-1.557h-1.515Zm-6.043 3.097v1.557h1.515v-1.557h-1.515Zm4.528 0h1.515v-1.558h-1.515v1.558Zm-24.135-1.558v1.558h1.515v-1.558h-1.515Zm-30.177-3.096v1.557h1.515v-1.557h-1.515Zm-1.514 0h-1.515v1.557h1.515v-1.557Zm6.042 1.557v1.557h1.515v-1.557h-1.515Zm0-1.557h-1.515v1.557h1.515v-1.557Zm-6.042 1.557v1.557h1.514v-1.557h-1.514Zm24.134 0v1.557h1.515v-1.557h-1.515Zm-28.662-1.557v-1.558h-1.515v1.558h-1.515v1.557h1.515v1.557h1.515v-1.557h1.515v-1.557h-1.515Zm-3.012-1.558h1.515v-1.557h-1.515v-1.558h-1.515v1.558h-1.515v1.557h1.515v1.558h1.515v-1.558Zm-3.013-3.097h1.515v-1.557h-1.515v-1.558h-1.515v1.558h-1.515v1.557h1.515V39.2h1.515v-1.558Zm28.662 6.212v1.557h1.515v-1.557h-1.515Zm-10.57-1.557v1.557h1.515v-1.557h-1.515Zm10.57 0h-1.515v1.557h1.515v-1.557Zm6.042 0h-1.515v1.557h1.515v-1.557Zm-4.527 0v1.557h1.515v-1.557h-1.515Zm-6.042 0v1.557h1.515v-1.557h-1.515Zm-1.515 0h-1.515v1.557h1.515v-1.557Zm0 1.557v1.557h1.515v-1.557h-1.515Zm52.813-1.557v1.557h1.515v-1.557h-1.515ZM785.605 31.43v-1.557h-1.515v1.557h1.515Zm-3.012-1.557h-1.515v1.557h1.515v-1.557Zm-1.515 3.097v-1.558h-1.515v1.558h1.515Zm6.042 0v-1.558h-1.515v1.558h1.515Zm1.515-3.097h-1.515v1.557h1.515v-1.557Zm-9.055 1.557v-1.557h-1.515v1.557h1.515Zm13.583 1.558V31.43h-1.515v1.558h1.515Zm1.515-3.097h-1.515v1.558h1.515V29.89Zm-3.013 1.558V29.89h-1.515v1.558h1.515Zm-16.594 1.557v-1.557h-1.515v1.557h1.515Zm1.515-3.097h-1.515v1.558h1.515v-1.558Zm-7.54 0v-1.557h-1.515v1.557h1.515Zm-4.528-1.557v-1.558h-1.514v1.558h1.514Zm-3.012 0v-1.558h-1.515v1.558h1.515Zm4.527 1.557v-1.557h-1.515v1.557h1.515Zm31.692 1.558v-1.558h-1.515v1.558h1.515Zm-25.649-1.558v-1.557h-1.515v1.557h1.515Zm1.515 1.558v-1.558h-1.515v1.558h1.515Zm33.189-1.558h-1.515v1.558h1.515v-1.558Zm7.54 12.406v1.557h1.515v-1.557h-1.515Zm3.012 1.557h1.515v-1.557h-1.515v1.557Zm1.515-3.097v-1.557h-1.515v1.557h1.515Zm-1.515-1.557V37.66h-1.515v1.558h1.515Zm-1.515 0h-1.515v1.557h1.515v-1.557Zm0-1.558v-1.557h-1.515v1.557h1.515Zm-4.527 6.212h1.515v-1.557h-1.515v1.557Zm1.515-3.097v1.558h1.515v-1.558h-1.515Zm-4.528 1.558v1.557h1.515v-1.557h-1.515Zm-3.012-9.309v-1.557h-1.515v1.557h1.515Zm-1.515-1.557v-1.558h-1.515v1.558h1.515Zm-3.012-1.558h-1.515v1.558h1.515v-1.558Zm-1.515 3.097v-1.557h-1.515v1.557h1.515Zm10.569-1.557V29.89h-1.515v1.558h1.515Zm3.013 3.096v-1.557h-1.515v1.557h1.515Zm-1.515-1.557V31.43h-1.515v1.558h1.515Zm3.012 3.097v-1.558h-1.515v1.558h1.515Zm-67.911 13.963v1.557h1.515v-1.557h-1.515Zm78.463-15.52V32.97h-1.515v1.557h1.515Zm-4.527-4.655v-1.558h-1.515v1.558h1.515Zm6.042 6.212v-1.558h-1.515v1.558h1.515Zm-4.527-4.655v-1.557h-1.515v1.557h1.515Zm1.515 1.558V31.43h-1.515v1.558h1.515Zm7.54 7.751v-1.557h-1.515v1.557h1.515Zm1.515 1.558v-1.558h-1.515v1.558h1.515Zm1.515 1.557v-1.557h-1.515v1.557h1.515Zm-6.043-6.212v-1.557h-1.515v1.557h1.515Zm1.515 1.558v-1.558h-1.515V39.2h1.515ZM811.29 26.794v-1.557h-1.515v1.557h1.515Zm-4.528-3.097h-1.515v1.558h1.515v-1.558Zm3.013 1.558v-1.558h-1.515v1.558h1.515Zm-4.528 1.557v-1.557h-1.515v1.557h1.515Zm12.068 0v-1.557H815.8v1.557h1.515Zm-4.528-3.097h-1.515v1.558h1.515v-1.558Zm-9.055 1.558v-1.558h-1.515v1.558h1.515Zm12.068 0v-1.558h-1.515v1.558h1.515Zm3.012 3.097v-1.558h-1.515v1.558h1.515Zm0 18.617v1.558h1.515v-1.558h-1.515Zm4.527 3.097h1.515v-1.558h-1.515v1.558Zm-102.615-15.52h1.515v-1.558h-1.515v-1.557h-1.515v1.557h-1.515v1.557h1.515v1.558h1.515v-1.558Zm99.585 13.962v1.558h1.515v-1.558h-1.515Zm-6.042 0v1.558h1.515v-1.558h-1.515Zm-3.012 0v1.558h1.515v-1.558h-1.515Zm-6.043 0v1.558h1.515v-1.558h-1.515Zm3.013 0v1.558h1.515v-1.558h-1.515Zm24.134 0v1.558h1.515v-1.558h-1.515Zm1.515-3.096h-1.515v1.557h1.515V45.43Zm1.515 4.654h1.515v-1.558h-1.515v1.558Zm0-4.654v-1.558h-1.515v1.558h1.515Zm1.515 1.557V45.43h-1.515v1.557h1.515Zm-7.54 3.097h1.515v-1.558h-1.515v1.558Zm-3.012-1.558v1.558h1.515v-1.558h-1.515Zm4.527-1.557v1.557h1.515V46.97h-1.515Zm-6.042 0v1.557h1.515V46.97h-1.515Zm-63.384-21.714v-1.558h-1.515v1.558h1.515Zm-18.109 0v-1.558h-1.515v1.558h1.515Zm6.042 0v-1.558h-1.515v1.558h1.515Zm-3.012 0v-1.558h-1.515v1.558h1.515Zm54.328-1.558h-1.515v1.558h1.515v-1.558Zm-45.274 1.558v-1.558h-1.515v1.558h1.515Zm3.013 0v-1.558h-1.515v1.558h1.515Zm6.042 0v-1.558h-1.515v1.558h1.515ZM802.2 48.526v1.558h1.515v-1.558H802.2Zm-64.881-23.271v-1.558h-1.515v1.558h1.515Zm15.097 0v-1.558h-1.515v1.558h1.515Zm-18.109 0v-1.558h-1.515v1.558h1.515Zm-12.068 0v-1.558h-1.515v1.558h1.515Zm-3.012 0v-1.558h-1.515v1.558h1.515Zm-9.055 0v1.557h1.515v-1.557h1.515v-1.558h-1.515V22.14h-1.515v1.557h-1.515v1.558h1.515Zm6.043 0v-1.558H714.7v1.558h1.515Zm9.054 0v-1.558h-1.515v1.558h1.515Zm6.043 0v-1.558h-1.515v1.558h1.515Zm-3.013 0v-1.558h-1.515v1.558h1.515Zm12.068 0v-1.558h-1.515v1.558h1.515Zm51.298 0v-1.558h-1.515v1.558h1.515Zm-6.042 0v-1.558h-1.515v1.558h1.515Zm1.515 1.557v-1.557h-1.515v1.557h1.515Zm6.042 0v-1.557h-1.515v1.557h1.515Zm16.595 0h-1.515v1.558h1.515v-1.558Zm-10.57 0v-1.557h-1.515v1.557h1.515Zm-4.527-3.097h-1.515v1.558h1.515v-1.558Zm3.012 1.558v-1.558h-1.515v1.558h1.515Zm-16.595 1.558v-1.558h-1.515v1.558h1.515Zm-7.539-1.558v-1.558h-1.515v1.558h1.515Zm9.054-1.558h-1.515v1.558h1.515v-1.558Zm-13.582 3.097v-1.557h-1.515v1.557h1.515Zm6.043 0v-1.557h-1.515v1.557h1.515Zm-4.528-3.097h-1.515v1.558h1.515v-1.558Zm-3.012 1.558v-1.558h-1.515v1.558h1.515Zm12.067 0v-1.558h-1.515v1.558h1.515Zm-3.012-1.558h-1.515v1.558h1.515v-1.558Zm12.067 0h-1.515v1.558h1.515v-1.558Zm-40.747 3.097v-1.557h-1.515v1.557h1.515Zm-6.042 0v1.558h1.515v1.557h1.515V28.37h1.515v-1.558h-1.515v-1.557h-1.515v1.557h-1.515Zm-6.043 0v1.558h1.515v1.557h1.516V28.37h1.515v-1.558h-1.515v-1.557h-1.516v1.557h-1.515Zm15.098 0v-1.557h-1.515v1.557h1.515Zm15.097 0v-1.557h-1.515v1.557h1.515Zm-6.043 0v-1.557h-1.515v1.557h1.515Zm-6.042 0v-1.557h-1.515v1.557h1.515Zm9.055 0v-1.557h-1.515v1.557h1.515Zm-6.043 0v-1.557h-1.515v1.557h1.515Zm-15.097 0v-1.557h-1.515v1.557h1.515Zm-24.134 0v-1.557h-1.515v1.557h1.515Zm0 0v1.558h1.515v1.557h1.515V28.37h1.515v-1.558h-1.515v-1.557h-1.515v1.557h-1.515Zm6.042 0v-1.557h-1.515v1.557h1.515Zm12.067 0v-1.557h-1.514v1.557h1.514Zm-22.636 1.558v1.557h1.515V28.37h1.515v-1.558H714.7v-1.557h-1.515v1.557h-1.516v1.558h1.516Zm16.594-1.558v1.558h1.515v1.557h1.515V28.37h1.515v-1.558h-1.515v-1.557h-1.515v1.557h-1.515Zm-6.042 0v1.558h1.515v1.557h1.515V28.37h1.515v-1.558h-1.515v-1.557h-1.515v1.557h-1.515Zm6.042 0v-1.557h-1.515v1.557h1.515Zm66.396 3.097v-1.557h-1.515v1.557h1.515Zm-1.515-1.557v-1.558h-1.515v1.558h1.515Zm6.042 0v-1.558h-1.515v1.558h1.515Zm1.515 1.557v-1.557h-1.515v1.557h1.515Zm-95.057-1.557v1.557h1.515v-1.557h1.515v-1.558h-1.515v-1.557h-1.515v1.557h-1.515v1.558h1.515Zm90.53-1.558h-1.515v1.558h1.515v-1.558Zm6.042 0h-1.515v1.558h1.515v-1.558Zm4.528 3.097v-1.557h-1.515v1.557h1.515Zm-1.515-1.557v-1.558h-1.515v1.558h1.515Zm-21.122 0v-1.558h-1.515v1.558h1.515Zm-9.055 0v-1.558h-1.515v1.558h1.515Zm-3.012 0v-1.558h-1.515v1.558h1.515Zm6.042 0v-1.558h-1.515v1.558h1.515Zm-9.055 0v-1.558h-1.515v1.558h1.515Zm18.11 0v-1.558h-1.515v1.558h1.515Zm3.012 0v-1.558h-1.515v1.558h1.515Zm-9.055 0v-1.558h-1.515v1.558h1.515Zm-15.097 0v-1.558h-1.515v1.558h1.515Zm-13.582 20.174v1.558h1.515v-1.558h-1.515Zm12.067 0v1.558h1.515v-1.558h-1.515Zm-1.515 1.558v1.557h1.515v-1.557h-1.515Zm6.043-1.558h-1.515v1.558h1.515v-1.558Zm3.012 1.558v1.557h1.515v-1.557h-1.515Zm-3.012 0v1.557h1.515v-1.557h-1.515Zm-6.043-1.558h-1.515v1.558h1.515v-1.558Zm-6.042 0h-1.515v1.558h1.515v-1.558Zm0 1.558v1.557h1.515v-1.557h-1.515Zm1.515-1.558v1.558h1.515v-1.558h-1.515Zm28.662 1.558v1.557h1.515v-1.557h-1.515Zm-86.003-21.714h1.515v-1.558h-1.515v-1.557H701.1v1.557h-1.515v1.558h1.515v1.557h1.515v-1.557Zm92.045 23.271h1.515v-1.557h-1.515v1.557Zm4.527-3.096v1.557h1.515v-1.558h-1.515Zm-3.012 0v1.557h1.515v-1.558h-1.515Zm-16.595 1.557v1.557h1.515v-1.557h-1.515Zm-3.012 0v1.557h1.515v-1.557h-1.515Zm6.042 0v1.557h1.515v-1.557h-1.515Zm3.013 0v1.557h1.515v-1.557h-1.515Zm6.042 0v1.557h1.515v-1.557h-1.515Zm-70.923-3.097h1.515V45.43h-1.515v-1.558h-1.515v1.558h-1.515v1.557h1.515v1.558h1.515v-1.558Zm31.692 3.097v1.557h1.515v-1.557h-1.515Zm-22.637-1.558V46.97h-1.515v1.557h-1.515v1.558h1.515v1.557h1.515v-1.557h1.515v-1.558h-1.515Zm-6.043 0V46.97h-1.515v1.557h-1.515v1.558h1.515v1.557h1.515v-1.557h1.515v-1.558h-1.515Zm-6.042-4.654h1.515v-1.557h-1.515v-1.558h-1.515v1.558h-1.515v1.557h1.515v1.558h1.515v-1.558Zm-6.043-6.212h1.516v-1.557h-1.516v-1.558h-1.514v1.558h-1.516v1.557h1.516v1.558h1.514V37.66Zm-6.042-6.211h1.515V29.89h-1.515v-1.557h-1.515v1.557h-1.515v1.558h1.515v1.557h1.515v-1.557Zm3.012 3.096h1.516v-1.557h-1.516V31.43h-1.514v1.558h-1.516v1.557h1.516v1.558h1.514v-1.558Zm6.043 6.212h1.515V39.2h-1.515v-1.558h-1.515V39.2h-1.515v1.557h1.515v1.558h1.515v-1.558Zm31.692 7.751h-1.515v1.558h1.515v-1.558Zm1.515 0v1.558h1.515v-1.558h-1.515ZM704.13 25.237v1.557h1.515v-1.557h1.515v-1.558h-1.515v-1.557h-1.515v1.557h-1.515v1.558h1.515Zm48.286 23.271h-1.515v1.558h1.515v-1.558Zm-12.067 1.558v1.557h1.515v-1.557h-1.515Zm1.515-1.558v1.558h1.515v-1.558h-1.515Zm-1.515 0h-1.515v1.558h1.515v-1.558Zm-4.528 0v-1.557h-1.514v1.557h-1.515v1.558h1.515v1.557h1.514v-1.557h1.515v-1.558h-1.515Z"/></g><path fill="#0A1133" d="M505.5 262.375h2.25V268h-4.5v-1.125h3.375V263.5H505.5v-1.125ZM502.125 259h1.125v7.875h-1.125V259Zm1.125-1.125h3.375V259h-3.375v-1.125Zm3.375 1.125h1.125v1.125h-1.125V259Zm7.875 2.25h1.125v5.625H514.5v-5.625Zm-3.375 5.625h3.375V268h-3.375v-1.125ZM510 261.25h1.125v5.625H510v-5.625Zm1.125-1.125h3.375v1.125h-3.375v-1.125Zm11.25 1.125h1.125v5.625h-1.125v-5.625ZM519 266.875h3.375V268H519v-1.125Zm-1.125-5.625H519v5.625h-1.125v-5.625Zm1.125-1.125h3.375v1.125H519v-1.125Zm6.75 7.875h1.125v1.125h-1.125V268Zm1.125 1.125h3.375v1.125h-3.375v-1.125Zm0-9h4.5v9h-1.125v-2.25h-3.375v-1.125h3.375v-4.5h-3.375v-1.125Zm-1.125 1.125h1.125v4.5h-1.125v-4.5Zm9-3.375h1.125v9h-1.125v-9Zm1.125 9H537V268h-1.125v-1.125Zm7.875-1.125h1.125v1.125h-1.125v-1.125Zm-3.375 1.125h3.375V268h-3.375v-1.125Zm-1.125-5.625h1.125v2.25h3.375v-2.25h1.125v3.375h-4.5v2.25h-1.125v-5.625Zm1.125-1.125h3.375v1.125h-3.375v-1.125Zm11.25-2.25h5.625V259h-4.5v3.375H555v1.125h-2.25v3.375h4.5V268h-5.625v-10.125Zm12.375 0h1.125v9H564v-9Zm-3.375 9H564V268h-3.375v-1.125Zm-1.125-9h1.125v9H559.5v-9Zm7.875 0h4.5V259H568.5v3.375h3.375v1.125h-1.125v1.125h-1.125V263.5H568.5v4.5h-1.125v-10.125Zm4.5 1.125H573v3.375h-1.125V259Zm-1.125 5.625h1.125v1.125h-1.125v-1.125Zm1.125 1.125H573V268h-1.125v-2.25Zm3.375-7.875h5.625V259h-4.5v3.375h2.25v1.125h-2.25v4.5h-1.125v-10.125Zm12.375 0h5.625V259h-4.5v3.375H591v1.125h-2.25v3.375h4.5V268h-5.625v-10.125Zm12.375 2.25h1.125v6.75H600v-6.75Zm-3.375 6.75H600V268h-3.375v-1.125Zm-1.125-6.75h1.125v6.75H595.5v-6.75Zm11.25 0H609v1.125h-2.25v-1.125Zm-1.125 1.125h1.125v1.125h-1.125v-1.125Zm-2.25-1.125h1.125v2.25h1.125v1.125H604.5v4.5h-1.125v-7.875Zm12.375 1.125h1.125v5.625h-1.125v-5.625Zm-3.375 5.625h3.375V268h-3.375v-1.125Zm-1.125-5.625h1.125v5.625h-1.125v-5.625Zm1.125-1.125h3.375v1.125h-3.375v-1.125Zm11.25 1.125h1.125v5.625h-1.125v-5.625Zm-4.5-1.125h4.5v1.125h-3.375v5.625h3.375V268h-3.375v2.25h-1.125v-10.125ZM627 261.25h1.125v1.125H627v-1.125Zm0 3.375h1.125v2.25H627v-2.25Zm4.5-3.375h1.125V268h-4.5v-1.125h3.375v-2.25h-3.375V263.5h3.375v-2.25Zm-3.375-1.125h3.375v1.125h-3.375v-1.125Zm6.75 1.125H636v1.125h-1.125v-1.125Zm0 3.375H636v2.25h-1.125v-2.25Zm4.5-3.375h1.125V268H636v-1.125h3.375v-2.25H636V263.5h3.375v-2.25ZM636 260.125h3.375v1.125H636v-1.125Zm7.875-2.25H645v9h-1.125v-9Zm1.125 9h1.125V268H645v-1.125Zm4.5-9h1.125v9H649.5v-9Zm1.125 9h1.125V268h-1.125v-1.125Zm7.875-1.125h1.125v1.125H658.5v-1.125Zm-3.375 1.125h3.375V268h-3.375v-1.125ZM654 261.25h1.125v2.25h3.375v-2.25h1.125v3.375h-4.5v2.25H654v-5.625Zm1.125-1.125h3.375v1.125h-3.375v-1.125Zm11.25 5.625h1.125v1.125h-1.125v-1.125ZM663 266.875h3.375V268H663v-1.125Zm-1.125-5.625H663v2.25h3.375v-2.25h1.125v3.375H663v2.25h-1.125v-5.625Zm1.125-1.125h3.375v1.125H663v-1.125Zm11.25 5.625h1.125v1.125h-1.125v-1.125Zm1.125 1.125h3.375V268h-3.375v-1.125Zm3.375-3.375h1.125v3.375h-1.125V263.5Zm-2.25-1.125h2.25v1.125h-2.25v-1.125Zm2.25-3.375h1.125v3.375h-1.125V259Zm-3.375-1.125h3.375V259h-3.375v-1.125ZM674.25 259h1.125v1.125h-1.125V259Zm12.375 4.5h1.125v3.375h-1.125V263.5Zm-3.375 3.375h3.375V268h-3.375v-1.125ZM682.125 259h1.125v3.375h3.375v1.125h-3.375v3.375h-1.125V259Zm1.125-1.125h3.375V259h-3.375v-1.125Zm3.375 1.125h1.125v1.125h-1.125V259ZM690 269.125h1.125v1.125H690v-1.125Zm1.125-2.25h1.125v2.25h-1.125v-2.25Zm9-7.875h1.125v3.375h-1.125V259Zm4.5 4.5h1.125v3.375h-1.125V263.5Zm-3.375 3.375h3.375V268h-3.375v-1.125Zm-1.125-3.375h1.125v3.375h-1.125V263.5Zm1.125-1.125h3.375v1.125h-3.375v-1.125Zm3.375-3.375h1.125v3.375h-1.125V259Zm-3.375-1.125h3.375V259h-3.375v-1.125Zm7.875 9h3.375V268h-3.375v-1.125ZM712.5 259h1.125v7.875H712.5v-4.5h-1.125v-1.125h1.125V259Zm-2.25 3.375h1.125v1.125h-1.125v-1.125ZM708 259h1.125v4.5h1.125v1.125h-1.125v2.25H708V259Zm1.125-1.125h3.375V259h-3.375v-1.125Zm7.875 9h3.375V268H717v-1.125Zm3.375-7.875h1.125v7.875h-1.125v-4.5h-1.125v-1.125h1.125V259Zm-2.25 3.375h1.125v1.125h-1.125v-1.125Zm-2.25-3.375H717v4.5h1.125v1.125H717v2.25h-1.125V259Zm1.125-1.125h3.375V259H717v-1.125Zm11.25 0h1.125V268h-1.125v-3.375h-4.5v-2.25h1.125v1.125h3.375v-3.375h-1.125V259h1.125v-1.125Zm-3.375 3.375H726v1.125h-1.125v-1.125Zm1.125-1.125h1.125v1.125H726v-1.125Zm10.125 4.5h1.125v2.25h4.5V268h-5.625v-3.375Zm1.125 0V263.5h1.125v1.125h-1.125Zm1.125-1.125v-1.125h1.125v1.125h-1.125Zm1.125-1.125v-1.125h1.125v1.125H739.5Zm-3.375-4.5h5.625v3.375h-1.125V259h-4.5v-1.125Zm9 0h1.125V259h-1.125v-1.125Zm2.25 0h1.125V259h-1.125v-1.125Zm1.125 2.25h1.125v6.75H748.5v-6.75Zm-3.375 6.75h3.375V268h-3.375v-1.125Zm-1.125-6.75h1.125v6.75H744v-6.75Zm11.25 0h2.25v1.125h-2.25v-1.125Zm-1.125 1.125h1.125v1.125h-1.125v-1.125Zm-2.25-1.125H753v2.25h1.125v1.125H753v4.5h-1.125v-7.875Zm9 0H762V268h-1.125v-7.875Zm0-2.25H762V259h-1.125v-1.125Zm9 7.875H771v1.125h-1.125v-1.125Zm-3.375 1.125h3.375V268H766.5v-1.125Zm-1.125-5.625h1.125v5.625h-1.125v-5.625Zm1.125-1.125h3.375v1.125H766.5v-1.125Zm3.375 1.125H771v1.125h-1.125v-1.125Zm7.875 0h1.125V268h-1.125v-6.75Zm-4.5-3.375h1.125v2.25h3.375v1.125h-3.375V268h-1.125v-10.125Z"/><path fill="#0A1133" fill-rule="evenodd" d="M505 145h275v2h2v60h-2v2H505v-2h-2v-60h2v-2Zm0 0h-2v2h-2v60h2v2h2v2h275v-2h2v-2h2v-60h-2v-2h-2v-2H505v2Z" clip-rule="evenodd"/><path fill="#0A1133" d="M506.586 127.766h1.117v1.117h-1.117v-1.117Zm-3.352 1.117h3.352V130h-3.352v-1.117Zm-1.117-7.821h1.117v7.821h-1.117v-7.821Zm1.117-1.117h3.352v1.117h-3.352v-1.117Zm3.352 1.117h1.117v1.118h-1.117v-1.118Zm7.82 2.235h1.117v5.586h-1.117v-5.586Zm-3.351 5.586h3.351V130h-3.351v-1.117Zm-1.117-5.586h1.117v5.586h-1.117v-5.586Zm1.117-1.117h3.351v1.117h-3.351v-1.117Zm11.172 1.117h1.117v5.586h-1.117v-5.586Zm-4.469-1.117h4.469v1.117h-3.352v5.586h3.352V130h-3.352v2.234h-1.117V122.18Zm7.82 7.82h1.117v1.117h-1.117V130Zm1.117 1.117h3.352v1.117h-3.352v-1.117Zm3.352-8.937h1.117v8.937h-1.117v-2.234h-3.352v-1.117h3.352v-5.586Zm-4.469 0h1.117v5.586h-1.117v-5.586Zm13.406-1.118h1.118v1.118h2.234v1.117h-2.234v5.586h-1.118v-5.586h-1.117v-1.117h1.117v-1.118Zm1.118 7.821h2.234V130h-2.234v-1.117Zm8.937-5.586h1.117V130h-1.117v-6.703Zm-4.469-3.352h1.118v2.235h3.351v1.117h-3.351V130h-1.118v-10.055Zm12.289 7.821h1.118v1.117h-1.118v-1.117Zm-3.351 1.117h3.351V130h-3.351v-1.117Zm-1.117-5.586h1.117v2.234h3.351v-2.234h1.118v3.351h-4.469v2.235h-1.117v-5.586Zm1.117-1.117h3.351v1.117h-3.351v-1.117Zm11.172 1.117h1.117v2.234h-1.117v-2.234Zm4.468 3.351h1.118v2.235h-1.118v-2.235Zm-3.351 2.235h3.351V130h-3.351v-1.117Zm-1.117-1.117h1.117v1.117h-1.117v-1.117Zm1.117-2.235h3.351v1.117h-3.351v-1.117Zm3.351-2.234h1.118v1.117h-1.118v-1.117Zm-3.351-1.117h3.351v1.117h-3.351v-1.117Zm11.172 5.586h1.117v1.117h-1.117v-1.117Zm-3.352 1.117h3.352V130h-3.352v-1.117Zm-1.117-5.586h1.117v2.234h3.352v-2.234h1.117v3.351h-4.469v2.235H572.5v-5.586Zm1.117-1.117h3.352v1.117h-3.352v-1.117Zm11.172 5.586h1.117v1.117h-1.117v-1.117Zm-3.351 1.117h3.351V130h-3.351v-1.117Zm-1.118-5.586h1.118v5.586h-1.118v-5.586Zm1.118-1.117h3.351v1.117h-3.351v-1.117Zm3.351 1.117h1.117v1.117h-1.117v-1.117Zm6.703-1.117h2.235v1.117h-2.235v-1.117Zm-1.117 1.117h1.117v1.117h-1.117v-1.117Zm-2.234-1.117h1.117v2.234h1.117v1.117h-1.117V130h-1.117v-7.82Zm12.289 5.586h1.117v1.117h-1.117v-1.117Zm-3.352 1.117h3.352V130h-3.352v-1.117Zm-1.117-5.586h1.117v2.234h3.352v-2.234h1.117v3.351h-4.469v2.235h-1.117v-5.586Zm1.117-1.117h3.352v1.117h-3.352v-1.117Zm7.82-1.118h1.118v1.118h2.234v1.117h-2.234v5.586h-1.118v-5.586h-1.117v-1.117h1.117v-1.118Zm1.118 7.821h2.234V130h-2.234v-1.117Zm13.406-1.117h1.117v1.117h-1.117v-1.117Zm-3.352 1.117h3.352V130h-3.352v-1.117Zm-1.117-5.586h1.117v5.586h-1.117v-5.586Zm1.117-1.117h3.352v1.117h-3.352v-1.117Zm3.352 1.117h1.117v1.117h-1.117v-1.117Zm7.82 0h1.117v5.586h-1.117v-5.586Zm-3.351 5.586h3.351V130h-3.351v-1.117Zm-1.118-5.586h1.118v5.586h-1.118v-5.586Zm1.118-1.117h3.351v1.117h-3.351v-1.117Zm6.703 1.117h1.117v5.586h-1.117v-5.586Zm4.468-3.352h1.118V130h-4.469v-1.117h3.351v-5.586h-3.351v-1.117h3.351v-2.235Zm7.821 7.821H644v1.117h-1.117v-1.117Zm-3.352 1.117h3.352V130h-3.352v-1.117Zm-1.117-5.586h1.117v2.234h3.352v-2.234H644v3.351h-4.469v2.235h-1.117v-5.586Zm1.117-1.117h3.352v1.117h-3.352v-1.117Zm7.821 6.703h1.117V130h-1.117v-1.117Zm0-6.703h1.117v1.117h-1.117v-1.117Z"/><path stroke="#0A1133" stroke-dasharray="6.7 8.94" d="M501 243h514" opacity=".2"/><path fill="#0A1133" d="M921.75 74.25h3.5v14h-1.75V90h-7v-1.75h-1.75V86.5h3.5v1.75h3.5v-14Zm6.16 0h3.5v14h3.5v-14h3.5v14h-1.75V90h-7v-1.75h-1.75v-14Zm13.16 0h3.5v5.25h1.75v1.75h1.75v-7h3.5V90h-3.5v-5.25h-1.75V83h-1.75v7h-3.5V74.25Zm13.16 0h10.5V76h-7v5.25h3.5V83h-3.5v5.25h7V90h-10.5V74.25Zm14.91 14h3.5v3.5h-1.75v1.75h-3.5v-1.75h1.75v-3.5Zm13.16-14h3.5V90h-3.5V79.5h-1.75v1.75h-1.75v-3.5h1.75V76h1.75v-1.75Zm9.66 0h7V76h1.75v5.25h-1.75V83h1.75v5.25h-1.75V90h-7v-1.75h-1.75V86.5h3.5v1.75h3.5V83h-3.5v-1.75h3.5V76h-3.5v1.75h-3.5V76h1.75v-1.75ZM914.117 148.945h5.586v1.117h-2.234V159h-1.117v-8.938h-2.235v-1.117Zm12.289 3.352h1.117V159h-1.117v-6.703Zm-4.468-3.352h1.117v2.235h3.351v1.117h-3.351V159h-1.117v-10.055Zm12.289 2.235h1.117v6.703h-1.117v-6.703Zm-3.352 6.703h3.352V159h-3.352v-1.117Zm-1.117-6.703h1.117v6.703h-1.117v-6.703Zm11.172 0h2.234v1.117h-2.234v-1.117Zm-1.118 1.117h1.118v1.117h-1.118v-1.117Zm-2.234-1.117h1.117v2.234h1.117v1.117h-1.117V159h-1.117v-7.82Zm7.82 1.117h1.118v2.234h-1.118v-2.234Zm4.469 3.351h1.117v2.235h-1.117v-2.235Zm-3.351 2.235h3.351V159h-3.351v-1.117Zm-1.118-1.117h1.118v1.117h-1.118v-1.117Zm1.118-2.235h3.351v1.117h-3.351v-1.117Zm3.351-2.234h1.117v1.117h-1.117v-1.117Zm-3.351-1.117h3.351v1.117h-3.351v-1.117Zm6.703 1.117h1.117v5.586h-1.117v-5.586Zm4.469-3.352h1.117V159h-4.469v-1.117h3.352v-5.586h-3.352v-1.117h3.352v-2.235Zm3.351 3.352h1.117v1.117h-1.117v-1.117Zm0 3.351h1.117v2.235h-1.117v-2.235Zm4.469-3.351h1.117V159h-4.469v-1.117h3.352v-2.235h-3.352v-1.117h3.352v-2.234Zm-3.352-1.117h3.352v1.117h-3.352v-1.117Zm6.703 7.82h1.118v1.117h-1.118V159Zm1.118 1.117h3.351v1.117h-3.351v-1.117Zm3.351-8.937h1.117v8.937h-1.117v-2.234h-3.351v-1.117h3.351v-5.586Zm-4.469 0h1.118v5.586h-1.118v-5.586Zm-53.625 21h1.118v1.117h-1.118v-1.117Zm2.235-2.235h1.117V180h-1.117v-7.82h-1.117v-1.118h1.117v-1.117Zm4.469 7.821h1.117v1.117h-1.117v-1.117Zm1.117 1.117h3.351V180h-3.351v-1.117Zm3.351-3.352h1.117v3.352h-1.117v-3.352Zm-2.234-1.117h2.234v1.117h-2.234v-1.117Zm2.234-3.352h1.117v3.352h-1.117v-3.352Zm-3.351-1.117h3.351v1.117h-3.351v-1.117Zm-1.117 1.117h1.117v1.118h-1.117v-1.118Zm16.757-1.117h1.117v8.938h-1.117v-8.938Zm-3.351 8.938h3.351V180h-3.351v-1.117Zm-1.117-1.117h1.117v1.117h-1.117v-1.117Zm12.289-5.586h1.117v6.703h-1.117v-6.703Zm-3.352 6.703h3.352V180h-3.352v-1.117Zm-1.117-6.703h1.117v6.703h-1.117v-6.703Zm12.289 1.117h1.117V180h-1.117v-6.703Zm-4.469-1.117h4.469v1.117h-3.352V180h-1.117v-7.82Zm12.289 5.586h1.117v1.117h-1.117v-1.117Zm-3.351 1.117h3.351V180h-3.351v-1.117Zm-1.117-5.586h1.117v2.234h3.351v-2.234h1.117v3.351h-4.468v2.235h-1.117v-5.586Zm1.117-1.117h3.351v1.117h-3.351v-1.117Zm11.172 4.468h1.117v2.235h4.468V180h-5.585v-3.352Zm1.117 0v-1.117h1.117v1.117h-1.117Zm1.117-2.234h1.117v1.117h-1.117v-1.117Zm1.117-1.117h1.117v1.117h-1.117v-1.117Zm1.117-2.235h1.117v2.235h-1.117v-2.235Zm-3.351-1.117h3.351v1.117h-3.351v-1.117Zm-1.117 1.117h1.117v1.118h-1.117v-1.118Zm8.937 7.821h3.352V180h-3.352v-1.117Zm3.352-7.821h1.117v7.821h-1.117v-4.469h-1.118v-1.117h1.118v-2.235Zm-2.235 3.352h1.117v1.117h-1.117v-1.117Zm-2.234-3.352h1.117v4.469h1.117v1.117h-1.117v2.235h-1.117v-7.821Zm1.117-1.117h3.352v1.117h-3.352v-1.117Zm6.703 6.703h1.117v2.235h4.469V180h-5.586v-3.352Zm1.117 0v-1.117h1.118v1.117h-1.118Zm1.118-2.234h1.117v1.117h-1.117v-1.117Zm1.117-1.117h1.117v1.117h-1.117v-1.117Zm1.117-2.235h1.117v2.235h-1.117v-2.235Zm-3.352-1.117h3.352v1.117h-3.352v-1.117Zm-1.117 1.117h1.117v1.118h-1.117v-1.118Zm12.289-1.117h1.117V180h-1.117v-3.352h-4.468v-2.234h1.117v1.117h3.351v-3.351h-1.117v-1.118h1.117v-1.117Zm-3.351 3.352h1.117v1.117h-1.117v-1.117Zm1.117-1.117h1.117v1.117h-1.117v-1.117Zm5.588 8.937h1.12v1.117h-1.12v-1.117Zm1.12-2.234h1.11v2.234h-1.11v-2.234Zm-88.263 13.179h1.117v3.352h-1.117v-3.352Zm1.117-1.117h3.352v1.117h-3.352v-1.117Zm3.352 1.117h1.117v7.821h-1.117v-3.352h-3.352v-1.117h3.352v-3.352Zm-3.352 7.821h3.352V201h-3.352v-1.117Zm-1.117-1.117h1.117v1.117h-1.117v-1.117Zm7.821-6.704h1.117v4.469h3.351v-4.469h1.117V201h-1.117v-3.352h-3.351V201h-1.117v-8.938Zm1.117-1.117h3.351v1.117h-3.351v-1.117Zm13.406 0h1.117V201h-1.117v-6.703h-1.117v-1.117h1.117v-2.235Zm-2.234 3.352h1.117v1.117h-1.117v-1.117Zm-1.118 1.117h1.118v1.117h-1.118v-1.117Zm-1.117-1.117h1.117v1.117h-1.117v-1.117Zm-2.234-3.352h1.117v2.235h1.117v1.117h-1.117V201h-1.117v-10.055Zm14.523 4.469h4.469v1.117h-4.469v-1.117Zm15.641 1.117h1.117v3.352h-1.117v-3.352Zm-3.352 3.352h3.352V201h-3.352v-1.117Zm-1.117-7.821h1.117v3.352h3.352v1.117h-3.352v3.352h-1.117v-7.821Zm1.117-1.117h3.352v1.117h-3.352v-1.117Zm3.352 1.117h1.117v1.118h-1.117v-1.118Zm7.82 0h1.117v3.352h-1.117v-3.352Zm-4.469-1.117h4.469v1.117h-3.351v3.352h3.351v1.117h-3.351V201h-1.118v-10.055Zm14.524 0h1.117V201h-1.117v-6.703h-1.117v-1.117h1.117v-2.235Zm-2.235 3.352h1.118v1.117h-1.118v-1.117Zm-1.117 1.117h1.117v1.117h-1.117v-1.117Zm-1.117-1.117h1.117v1.117h-1.117v-1.117Zm-2.234-3.352h1.117v2.235h1.117v1.117h-1.117V201h-1.117v-10.055Z"/><path fill="#0A1133" fill-rule="evenodd" d="M354 34h56v2h2v223h-2v2h-56v-2h-2V36h-2v223h2v2h2v2h56v-2h2v-2h2V36h-2v-2h-2v-2h-56v2Zm0 0h-2v2h2v-2Z" clip-rule="evenodd"/><g clip-path="url(#c)"><path fill="#0A1133" d="M405 46h-41v2h41v-2ZM405 50h-41v1h41v-1ZM404.874 55.016h-41.159v3.606h41.159v-3.606ZM404.878 60.43h-41.159v1.803h41.159V60.43ZM404.878 65.836h-41.159v1.803h41.159v-1.803ZM404.878 69.445h-41.159v1.804h41.159v-1.804ZM404.878 73.047h-41.159v1.803h41.159v-1.803ZM404.874 76.648h-41.159v1.804h41.159v-1.804ZM404.878 82.063h-41.159v1.803h41.159v-1.803ZM404.878 87.477h-41.159v1.803h41.159v-1.803ZM404.878 85.664h-41.159v1.803h41.159v-1.803ZM404.878 91.078h-41.159v3.606h41.159v-3.606ZM404.878 136.156h-41.159v1.803h41.159v-1.803ZM404.874 100.094h-41.159v1.803h41.159v-1.803ZM404.878 112.711h-41.159v3.606h41.159v-3.606ZM404.874 118.125h-41.159v1.803h41.159v-1.803ZM404.874 123.539h-41.159v1.803h41.159v-1.803ZM404.878 128.953h-41.159v3.606h41.159v-3.606ZM404.878 134.352h-41.159v1.803h41.159v-1.803ZM404.874 141.57h-41.159v1.803h41.159v-1.803ZM404.874 145.172h-41.159v1.803h41.159v-1.803ZM405 151h-41v1h41v-1ZM404.878 161.406h-41.159v1.803h41.159v-1.803Z"/><path fill="#0A1133" d="M404.874 163.203h-41.159v1.803h41.159v-1.803ZM404.874 166.812h-41.159v1.804h41.159v-1.804ZM404.878 175.828h-41.159v3.606h41.159v-3.606ZM404.878 192.062h-41.159v3.607h41.159v-3.607ZM404.878 197.469h-41.159v1.803h41.159v-1.803ZM404.874 208.281h-41.159v1.803h41.159v-1.803ZM404.878 215.5h-41.159v3.606h41.159V215.5ZM404.878 219.109h-41.159v1.804h41.159v-1.804ZM404.874 229.922h-41.159v1.803h41.159v-1.803ZM404.874 235.328h-41.159v1.803h41.159v-1.803ZM404.878 240.742h-41.159v1.803h41.159v-1.803ZM404.878 244.344h-41.159v3.606h41.159v-3.606Z"/></g><defs><clipPath id="c"><path fill="white" d="M364 46h36v203h-36z"/></clipPath></defs></svg>