<svg xmlns="http://www.w3.org/2000/svg" width="633" height="260" fill="none" viewBox="0 0 633 260"><path fill="#A4DFE3" fill-rule="evenodd" d="M21 41.084V25h119.952v11.384h4.896V25h477.36v9.792H633V250.21h-9.792V260h-477.36v-7.318h-4.896V260H21v-16.084c4.34 0 7.864-3.388 7.864-7.562s-3.523-7.562-7.864-7.562v-8.339c4.34 0 7.864-3.389 7.864-7.563 0-4.174-3.523-7.562-7.864-7.562v-8.339c4.34 0 7.864-3.388 7.864-7.562s-3.523-7.562-7.864-7.562v-8.339c4.34 0 7.864-3.389 7.864-7.563 0-4.173-3.523-7.562-7.864-7.562v-8.339c4.34 0 7.864-3.388 7.864-7.562s-3.523-7.562-7.864-7.562v-8.339c4.34 0 7.864-3.389 7.864-7.562 0-4.174-3.523-7.563-7.864-7.563v-8.339c4.34 0 7.864-3.388 7.864-7.562S25.341 88.011 21 88.011v-8.339c4.34 0 7.864-3.388 7.864-7.562S25.341 64.547 21 64.547V56.21c4.34 0 7.864-3.389 7.864-7.563 0-4.174-3.523-7.562-7.864-7.562Zm119.952 200.214h4.896v-11.385h-4.896v11.385Zm4.896-34.153v11.384h-4.896v-11.384h4.896Zm-4.896-11.384h4.896v-11.384h-4.896v11.384Zm4.896-34.152v11.384h-4.896v-11.384h4.896Zm-4.896-11.384h4.896v-11.384h-4.896v11.384Zm4.896-34.152v11.384h-4.896v-11.384h4.896Zm-4.896-11.384h4.896V93.305h-4.896v11.384Zm4.896-34.153V81.92h-4.896V70.536h4.896Zm-4.896-11.384h4.896V47.768h-4.896v11.384Z" clip-rule="evenodd"/><path fill="white" fill-rule="evenodd" d="M0 0h122.311v11.507h2.446V0h479.458v9.897H614v220.208h-9.785V240H124.757v-7.397h-2.446V240H0v-18.723h1.223c3.704 0 6.636-2.914 6.636-6.411 0-3.497-2.932-6.411-6.636-6.411H0v-10.894h1.223c3.704 0 6.636-2.915 6.636-6.412 0-3.496-2.932-6.411-6.636-6.411H0v-10.894h1.223c3.704 0 6.636-2.914 6.636-6.411 0-3.497-2.932-6.411-6.636-6.411H0v-10.894h1.223c3.704 0 6.636-2.915 6.636-6.411 0-3.497-2.932-6.412-6.636-6.412H0v-10.894h1.223c3.704 0 6.636-2.914 6.636-6.411 0-3.497-2.932-6.411-6.636-6.411H0v-10.894h1.223c3.704 0 6.636-2.914 6.636-6.411 0-3.497-2.932-6.412-6.636-6.412H0V78.978h1.223c3.704 0 6.636-2.914 6.636-6.411 0-3.497-2.932-6.411-6.636-6.411H0V55.262h1.223c3.704 0 6.636-2.915 6.636-6.412 0-3.496-2.932-6.41-6.636-6.41H0V31.545h1.223c3.704 0 6.636-2.914 6.636-6.411 0-3.497-2.932-6.411-6.636-6.411H0V0Zm121.088 231.37h4.892v7.397h477.012v-9.895h9.785V11.13h-9.785V1.233H125.98V12.74h-4.892V1.233H1.223V17.49c4.338 0 7.859 3.425 7.859 7.644s-3.521 7.644-7.859 7.644v8.429c4.338 0 7.859 3.425 7.859 7.643 0 4.22-3.521 7.645-7.859 7.645v8.428c4.338 0 7.859 3.425 7.859 7.644s-3.521 7.644-7.859 7.644v8.429c4.338 0 7.859 3.425 7.859 7.644 0 4.218-3.521 7.643-7.859 7.643v8.429c4.338 0 7.859 3.425 7.859 7.644s-3.521 7.644-7.859 7.644v8.429c4.338 0 7.859 3.425 7.859 7.644 0 4.218-3.521 7.643-7.859 7.643v8.429c4.338 0 7.859 3.425 7.859 7.644s-3.521 7.644-7.859 7.644v8.429c4.338 0 7.859 3.425 7.859 7.643 0 4.219-3.521 7.644-7.859 7.644v8.429c4.338 0 7.859 3.425 7.859 7.644s-3.521 7.644-7.859 7.644v16.257h119.865v-7.397Zm4.892-11.507h-4.892v-11.507h4.892v11.507Zm-1.223-10.274h-2.446v9.041h2.446v-9.041Zm1.223-24.247v11.507h-4.892v-11.507h4.892Zm-3.669 1.233v9.041h2.446v-9.041h-2.446Zm0-13.972h2.446v-9.041h-2.446v9.041Zm3.669-33.288v11.507h-4.892v-11.507h4.892Zm-3.669 1.233h2.446v9.041h-2.446v-9.041Zm0-13.973h2.446v-9.041h-2.446v9.041Zm3.669-33.287v11.507h-4.892V93.288h4.892Zm-3.669 1.233h2.446v9.041h-2.446v-9.041Zm0-13.973h2.446v-9.041h-2.446v9.041Zm3.669-33.288v11.507h-4.892V47.26h4.892Zm-3.669 1.233h2.446v9.041h-2.446v-9.04Zm0-13.973h2.446v-9.04h-2.446v9.04Zm-1.223 139.316v-11.507h4.892v11.507h-4.892Zm0-46.028v-11.507h4.892v11.507h-4.892Zm0-46.027V70.274h4.892v11.507h-4.892Zm0-46.028V24.247h4.892v11.506h-4.892Z" clip-rule="evenodd"/><path fill="white" fill-rule="evenodd" d="M.816 17.084V.827H120.68v11.507h4.893V.827h477.012v9.897h9.785v217.742h-9.785v9.895H125.573v-7.397h-4.893v7.397H.816v-16.257c4.337 0 7.859-3.425 7.859-7.644s-3.522-7.644-7.86-7.644v-8.429c4.338 0 7.86-3.425 7.86-7.644s-3.522-7.644-7.86-7.644v-8.428c4.338 0 7.86-3.425 7.86-7.644s-3.522-7.644-7.86-7.644v-8.429c4.338 0 7.86-3.425 7.86-7.644s-3.522-7.644-7.86-7.644v-8.428c4.338 0 7.86-3.425 7.86-7.644s-3.522-7.644-7.86-7.644v-8.429c4.338 0 7.86-3.425 7.86-7.644s-3.522-7.644-7.86-7.644v-8.428c4.338 0 7.86-3.425 7.86-7.644 0-4.22-3.522-7.644-7.86-7.644v-8.429c4.338 0 7.86-3.425 7.86-7.644S5.153 40.8.815 40.8v-8.428c4.338 0 7.86-3.425 7.86-7.644 0-4.22-3.522-7.644-7.86-7.644ZM120.68 219.457h4.893V207.95h-4.893v11.507Zm4.893-34.521v11.507h-4.893v-11.507h4.893Zm-4.893-11.507h4.893v-11.506h-4.893v11.506Zm4.893-34.52v11.507h-4.893v-11.507h4.893Zm-4.893-11.507h4.893v-11.507h-4.893v11.507Zm4.893-34.52v11.506h-4.893V92.881h4.893Zm-4.893-11.507h4.893V69.868h-4.893v11.507Zm4.893-34.52V58.36h-4.893V46.854h4.893Zm-4.893-11.508h4.893V23.84h-4.893v11.507Z" clip-rule="evenodd"/><path fill="#0A1133" fill-rule="evenodd" d="M121.088 231.364h4.892v7.397h477.012v-9.895h9.785V11.124h-9.785V1.227H125.98v11.506h-4.892V1.227H1.223v16.257c4.338 0 7.859 3.425 7.859 7.644s-3.521 7.644-7.859 7.644V41.2c4.338 0 7.859 3.425 7.859 7.644 0 4.22-3.521 7.644-7.859 7.644v8.429c4.338 0 7.859 3.425 7.859 7.644s-3.521 7.644-7.859 7.644v8.428c4.338 0 7.859 3.425 7.859 7.644s-3.521 7.644-7.859 7.644v8.429c4.338 0 7.859 3.425 7.859 7.644s-3.521 7.644-7.859 7.644v8.428c4.338 0 7.859 3.425 7.859 7.644s-3.521 7.644-7.859 7.644v8.429c4.338 0 7.859 3.425 7.859 7.644s-3.521 7.644-7.859 7.644v8.428c4.338 0 7.859 3.425 7.859 7.644s-3.521 7.644-7.859 7.644v8.429c4.338 0 7.859 3.425 7.859 7.644s-3.521 7.644-7.859 7.644v16.257h119.865v-7.397Zm-1.223 6.164v-7.397h7.338v7.397h474.566v-9.895h9.785V12.357h-9.785V2.459H127.203v11.507h-7.338V2.46H2.446v13.872c4.405.583 7.859 4.268 7.859 8.797 0 4.529-3.454 8.214-7.859 8.796v6.124c4.405.582 7.859 4.267 7.859 8.796 0 4.53-3.454 8.214-7.859 8.797v6.123c4.405.583 7.859 4.267 7.859 8.797 0 4.529-3.454 8.213-7.859 8.796v6.124c4.405.582 7.859 4.267 7.859 8.796 0 4.529-3.454 8.214-7.859 8.797v6.123c4.405.583 7.859 4.268 7.859 8.797 0 4.529-3.454 8.214-7.859 8.796v6.124c4.405.582 7.859 4.267 7.859 8.796 0 4.529-3.454 8.214-7.859 8.797v6.123c4.405.583 7.859 4.267 7.859 8.797 0 4.529-3.454 8.214-7.859 8.796v6.124c4.405.582 7.859 4.267 7.859 8.796 0 4.529-3.454 8.214-7.859 8.797v6.123c4.405.583 7.859 4.267 7.859 8.797 0 4.529-3.454 8.213-7.859 8.796v13.872h117.419Zm0-16.438v-13.973h7.338v13.973h-7.338Zm7.338-23.014h-7.338v-13.973h7.338v13.973Zm0-23.014h-7.338V161.09h7.338v13.972Zm0-23.014h-7.338v-13.972h7.338v13.972Zm0-23.013h-7.338v-13.973h7.338v13.973Zm0-23.014h-7.338V92.049h7.338v13.972Zm0-23.014h-7.338V69.035h7.338v13.972Zm0-23.013h-7.338V46.02h7.338v13.973Zm0-23.014h-7.338V23.007h7.338V36.98Zm-1.223 182.877h-4.892V208.35h4.892v11.507Zm0-34.521v11.507h-4.892v-11.507h4.892Zm0-46.027v11.507h-4.892v-11.507h4.892Zm0-46.028v11.507h-4.892V93.281h4.892Zm0-46.027v11.507h-4.892V47.254h4.892Zm-4.892 126.575v-11.507h4.892v11.507h-4.892Zm0-46.027v-11.507h4.892v11.507h-4.892Zm0-46.028V70.269h4.892v11.507h-4.892Zm0-46.027V24.24h4.892v11.507h-4.892Z" clip-rule="evenodd"/><path fill="#0A1133" d="M160.236 59.648h2.75v4.125h1.375v-1.375h1.375v-2.75h2.75v2.75h-1.375v1.375h-1.375v1.375h-1.375v1.375h1.375v1.375h1.375v1.375h1.375v2.75h-2.75v-2.75h-1.375v-1.375h-1.375v4.125h-2.75V59.648Zm10.34 0h2.75v11h2.75v-11h2.75v11h-1.375v1.375h-5.5v-1.375h-1.375v-11Zm10.34 0h6.875v1.375h1.375v4.125h-1.375v1.375h1.375v4.125h-1.375v1.375h-6.875V59.648Zm5.5 1.375h-2.75v4.125h2.75v-4.125Zm0 5.5h-2.75v4.125h2.75v-4.125Zm4.84-6.875h8.25v1.375h-5.5v4.125h2.75v1.375h-2.75v4.125h5.5v1.375h-8.25V59.648Zm15.84 1.375h-2.75v4.125h2.75v-4.125Zm-5.5-1.375h6.875v1.375h1.375v4.125h-1.375v1.375h-1.375v1.375h1.375v1.375h1.375v2.75h-2.75v-2.75h-1.375v-1.375h-1.375v4.125h-2.75V59.648Zm10.34 0h2.75v4.125h1.375v1.375h1.375v-5.5h2.75v12.375h-2.75v-4.125h-1.375v-1.375h-1.375v5.5h-2.75V59.648Zm10.34 0h8.25v1.375h-5.5v4.125h2.75v1.375h-2.75v4.125h5.5v1.375h-8.25V59.648Zm10.34 0h8.25v1.375h-2.75v11h-2.75v-11h-2.75v-1.375Zm10.34 0h8.25v1.375h-5.5v4.125h2.75v1.375h-2.75v4.125h5.5v1.375h-8.25V59.648Zm11.715 0h5.5v1.375h1.375v1.375h-2.75v-1.375h-2.75v4.125h4.125v1.375h1.375v4.125h-1.375v1.375h-5.5v-1.375h-1.375v-1.375h2.75v1.375h2.75v-4.125h-4.125v-1.375h-1.375v-4.125h1.375v-1.375Zm15.18 0h5.5v1.375h1.375v1.375h-2.75v-1.375h-2.75v9.625h2.75v-1.375h2.75v1.375h-1.375v1.375h-5.5v-1.375h-1.375v-9.625h1.375v-1.375Zm10.34 0h5.5v1.375h1.375v9.625h-1.375v1.375h-5.5v-1.375h-1.375v-9.625h1.375v-1.375Zm4.125 1.375h-2.75v9.625h2.75v-9.625Zm4.84-1.375h2.75v2.75h1.375v1.375h1.375v-1.375h1.375v-2.75h2.75v12.375h-2.75v-6.875h-1.375v1.375h-1.375v-1.375h-1.375v6.875h-2.75V59.648Zm11.715 0h2.75v2.75h1.375v1.375h1.375v-1.375h1.375v-2.75h2.75v12.375h-2.75v-6.875h-1.375v1.375h-1.375v-1.375h-1.375v6.875h-2.75V59.648Zm11.715 0h2.75v11h2.75v-11h2.75v11h-1.375v1.375h-5.5v-1.375h-1.375v-11Zm10.34 0h2.75v4.125h1.375v1.375h1.375v-5.5h2.75v12.375h-2.75v-4.125h-1.375v-1.375h-1.375v5.5h-2.75V59.648Zm11.715 0h2.75v12.375h-2.75V59.648Zm6.215 0h8.25v1.375h-2.75v11h-2.75v-11h-2.75v-1.375Zm10.34 0h2.75v4.125h2.75v-4.125h2.75v4.125h-1.375v1.375h-1.375v6.875h-2.75v-6.875h-1.375v-1.375h-1.375v-4.125Zm15.18 0h6.875v1.375h1.375v9.625h-1.375v1.375h-6.875V59.648Zm5.5 1.375h-2.75v9.625h2.75v-9.625Zm6.215-1.375h5.5v1.375h1.375v11h-2.75v-4.125h-2.75v4.125h-2.75v-11h1.375v-1.375Zm4.125 1.375h-2.75v5.5h2.75v-5.5Zm4.84-1.375h2.75v4.125h2.75v-4.125h2.75v4.125h-1.375v1.375h-1.375v6.875h-2.75v-6.875h-1.375v-1.375h-1.375v-4.125Zm11.715 0h5.5v1.375h1.375v1.375h-2.75v-1.375h-2.75v4.125h4.125v1.375h1.375v4.125h-1.375v1.375h-5.5v-1.375h-1.375v-1.375h2.75v1.375h2.75v-4.125h-4.125v-1.375h-1.375v-4.125h1.375v-1.375Z"/><path fill="white" d="M159.66 19.682v26.062h418.081V19.682H159.66Z"/><path fill="#0A1133" d="M159.66 19.7v1.247h417.021v23.57H159.66v1.245h418.081V19.701H159.66Z"/><mask id="a" width="383" height="26" x="159" y="20" maskUnits="userSpaceOnUse" style="mask-type:alpha"><path fill="#D9D9D9" d="M159 20.274h382.673v24.905H159z"/></mask><g mask="url(#a)"><path fill="#0A1133" d="M335.721 19.39h-1.234v-1.269h1.234v1.27Zm70.064 7.588h-1.234v1.269h1.234v-1.27Zm4.922 3.793v-1.27h-1.234v1.27h1.234Zm-1.234 2.524h1.234v-1.27h-1.234v1.27Zm17.208-7.587h-1.235v1.27h1.235v-1.27Zm1.234-1.27h-1.234v1.27h1.234v-1.27ZM393.5 37.089h1.234V35.82H393.5v1.27Zm-74.987-18.967h-1.234v1.27h1.234v-1.27Zm22.13 0h-1.234v1.27h1.234v-1.27Zm68.845 11.38v-1.269h-1.235v1.27h1.235Zm-76.221-11.38h-1.235v1.27h1.235v-1.27Zm90.974 6.318v1.27h1.234v-1.27h-1.234Zm-95.883-6.318h-1.234v1.27h1.234v-1.27Zm79.91 10.111v-1.27h-1.235v1.27h1.235Zm-70.064-10.11h-1.235v1.269h1.235v-1.27Zm94.662 11.38h-1.234v1.27h1.234v-1.27Zm-109.401-11.38h-1.235v1.269h1.235v-1.27Zm15.987 26.554h1.234v-1.27h-1.234v1.27Zm-45.48-26.555h-1.234v1.27h1.234v-1.27Zm4.923 0h-1.234v1.27h1.234v-1.27ZM400.92 28.232v-1.27h-1.234v1.27h1.234Zm-46.714 16.444h1.234v-1.27h-1.234v1.27Zm-9.831 0h1.234v-1.27h-1.234v1.27Zm4.922 0h1.235v-1.27h-1.235v1.27Zm54.091-16.444v-1.27h-1.234v1.27h1.234Zm-4.922 0v-1.27h-1.235v1.27h1.235Zm6.142 1.27v-1.27h-1.234v1.27h1.234Zm-90.974-11.38H312.4v1.269h1.234v-1.27Zm-4.923 0h-1.234v1.269h1.234v-1.27Zm83.598 20.221h1.234v-1.27h-1.234v1.27Zm33.195-11.38h-1.234v1.27h1.234v-1.27Zm-35.649 10.11v1.27h1.234v-1.27h-1.234Zm39.337-7.586v1.27h1.234v-1.27h-1.234Zm-125.389-11.38h-1.234v1.269h1.234v-1.27Zm124.155 11.38h-1.234v1.27h1.234v-1.27Zm0-1.27v-1.269h-1.234v1.27h1.234Zm-18.442-10.11h-1.234v1.269h1.234v-1.27Zm-13.519 10.11v-1.269h-1.234v1.27h1.234Zm9.831 2.525v-1.27h-1.234v1.27h1.234Zm-20.896-12.65h-1.234v1.27h1.234v-1.27Zm-9.831 0h-1.234v1.27h1.234v-1.27Zm28.273 13.904h1.234v-1.27h-1.234v1.27Zm-23.35-13.904h-1.234v1.27h1.234v-1.27Zm-12.299 0h-1.235v1.27h1.235v-1.27Zm35.649 11.38h-1.234v1.27h1.234v-1.27Zm-30.727-11.38h-1.234v1.27h1.234v-1.27Zm46.714 1.27v1.269h1.235v-1.27h-1.235Zm-49.168-1.27h-1.234v1.27h1.234v-1.27Zm34.415 0h-1.234v1.27h1.234v-1.27Zm9.831 0h-1.234v1.27h1.234v-1.27Zm-14.753 0h-1.235v1.27h1.235v-1.27Zm0 15.174h1.234v-1.27h-1.234v1.27Zm18.441-13.905h-1.234v1.27h1.234v-1.27Zm-28.272-1.27h-1.234v1.27h1.234v-1.27Zm4.922 0h-1.234v1.27h1.234v-1.27Zm3.689 16.444h1.234v-1.27h-1.234v1.27Zm2.454-3.793v1.269h1.234v-1.27h-1.234Zm22.13-11.38h-1.234v1.269h1.234v-1.27Zm-17.208 11.38v1.269h1.235v-1.27h-1.235Zm-57.779-12.65h-1.234v1.27h1.234v-1.27Zm46.714 16.443v1.27h1.235v-1.27h-1.235Zm-41.791-16.443h-1.235v1.27h1.235v-1.27Zm2.454 0h-1.234v1.27h1.234v-1.27Zm-4.923 0h-1.234v1.27h1.234v-1.27Zm57.779 11.38h-1.234v1.27h1.234v-1.27Zm-62.687-11.38h-1.234v1.27h1.234v-1.27Zm77.441 6.317h-1.234v1.27h1.234v-1.27Zm-2.454-2.524h-1.235v1.27h1.235v-1.27Zm-57.78-3.793h-1.234v1.27h1.234v-1.27Zm41.792 15.174h1.234v-1.27h-1.234v1.27Zm-2.454-1.27v1.27h1.234v-1.27h-1.234Zm4.923 0v1.27h1.234v-1.27h-1.234Zm-41.792-13.904h-1.234v1.27h1.234v-1.27Zm56.545 2.524h-1.234v1.27h1.234v-1.27Zm1.234 2.524v-1.27h-1.234v1.27h1.234Zm-62.687-5.063h-1.235v1.27h1.235v-1.27Zm-2.454 0h-1.235v1.27h1.235v-1.27Zm39.337 17.698h1.234v-1.27h-1.234v1.27Zm-54.091-17.698h-1.234v1.27h1.234v-1.27Zm94.663 5.063v-1.27h-1.234v1.27h1.234Zm0 5.063v-1.27h-1.234v1.27h1.234Zm-2.454-6.318h-1.235v1.27h1.235v-1.27Zm-1.235 2.524v1.27h1.235v-1.27h-1.235Zm3.689 0h-1.234v1.27h1.234v-1.27Zm-1.234 1.27h-1.235v1.27h1.235v-1.27Zm-4.923-5.063h-1.234v1.27h1.234v-1.27Zm2.454-1.27v1.27h1.234v-1.27h-1.234Zm-78.675 7.587v-1.27h-1.234v1.27h1.234Zm-4.922 0v1.27h1.234v1.27H353v-1.27h1.234v-1.27H353v-1.27h-1.234v1.27h-1.234Zm87.286-7.587h-1.235v1.27h1.235v-1.27Zm-1.235 1.27h-1.234v1.27h1.234v-1.27ZM359.142 44.63h1.235v-1.27h-1.235v1.27Zm76.221-12.65h-1.234v1.27h1.234v-1.27Zm-72.532-7.587v-1.269h-1.234v1.27h1.234Zm66.376-5.062V20.6h1.234v-1.27h-1.234Zm3.688 0h-1.234V20.6h1.234v-1.27Zm4.923 13.904v-1.27h-1.235v1.27h1.235Zm2.454-11.38h-1.235v1.27h1.235v-1.27Zm-6.143 7.587v1.269h1.234v-1.27h-1.234Zm1.234-2.524h-1.234v1.269h1.234v-1.27Zm-73.752-1.27v-1.27h-1.234v1.27h1.234Zm76.221 3.794h-1.234v1.269h1.234v-1.27Zm-77.441-2.524v-1.27h-1.234v1.27h1.234Zm-4.923 0v1.269h1.235v1.27h1.234v-1.27h1.234v-1.27h-1.234V25.65h-1.234v1.27h-1.235Zm99.571 7.586h-1.234v1.27h1.234v-1.27Zm0-2.524h-1.234v1.27h1.234v-1.27Zm-114.324-5.063v1.27h1.234v1.27h1.235v-1.27h1.234v-1.27h-1.234V25.65h-1.235v1.27h-1.234Zm109.402-7.586h-1.234V20.6h1.234v-1.27Zm4.922 17.698h-1.234v1.269h1.234v-1.27Zm0-10.111h-1.234v1.269h1.234v-1.27Zm0-5.063h-1.234v1.27h1.234v-1.27Zm0-2.524h-1.234V20.6h1.234v-1.27Zm0 10.11h-1.234v1.27h1.234v-1.27Zm0-5.062h-1.234v1.27h1.234v-1.27Zm-4.922-2.524h-1.234v1.27h1.234v-1.27Zm0 10.11h-1.234v1.27h1.234v-1.27Zm-4.923-12.65h-1.234v1.27h1.234v-1.27Zm0 5.064h-1.234v1.27h1.234v-1.27Zm0-2.524h-1.234v1.27h1.234v-1.27Zm0 5.063h-1.234v1.269h1.234v-1.27Zm-94.662 0v-1.27h-1.235v1.27h1.235Zm-4.923 0v1.269h1.234v1.27h1.234v-1.27h1.235v-1.27h-1.235V25.65h-1.234v1.27h-1.234Zm0 0v-1.27h-1.234v1.27h1.234Zm104.493-2.524h-1.234v1.269h1.234v-1.27Zm0 2.524h-1.234v1.269h1.234v-1.27Zm-9.83-7.587h-1.235V20.6h1.235v-1.27Zm9.83 10.11h-1.234v1.27h1.234v-1.27Zm-13.519 1.27h-1.234v1.27h1.234v-1.27Zm-55.325-2.524v-1.27h-1.234v1.27h1.234Zm12.299 16.443h1.235v-1.27h-1.235v1.27Zm-2.454 0h1.235v-1.27h-1.235v1.27Zm-7.376-16.443v-1.27h-1.235v1.27h1.235Zm4.922 16.443h1.234v-1.27h-1.234v1.27Zm7.377 0h1.234v-1.27h-1.234v1.27Zm-17.208-18.967v-1.27h-1.234v1.27h1.234Zm29.507 18.967h1.234v-1.27h-1.234v1.27Zm-28.272-17.698v-1.27h-1.235v1.27h1.235Zm23.35 17.698h1.234v-1.27h-1.234v1.27Zm-4.923 0h1.234v-1.27h-1.234v1.27Zm14.753 0h1.235v-1.27h-1.235v1.27Zm-39.337 0h1.234v-1.27h-1.234v1.27Zm-4.923 0h1.235v-1.27h-1.235v1.27Zm7.377-13.904v-1.27h-1.234v1.27h1.234ZM364.051 44.63h1.234v-1.27h-1.234v1.27Zm29.506-16.443v-1.27h-1.234v1.27h1.234Zm-12.299 16.443h1.234v-1.27h-1.234v1.27Zm2.454 0h1.235v-1.27h-1.235v1.27Zm2.454-16.443v-1.27h-1.234v1.27h1.234Zm-7.376 16.443h1.234v-1.27h-1.234v1.27Zm9.831-16.443v-1.27h-1.235v1.27h1.235Zm-2.455 16.443h1.235v-1.27h-1.235v1.27Zm44.26-17.698h-1.234v1.27h1.234v-1.27Zm-60.233-2.524v-1.27h-1.234v1.27h1.234Zm61.468 1.27h-1.235v1.27h1.235v-1.27Zm1.234 2.524v-1.27h-1.234v1.27h1.234Zm-8.611-8.857v1.27h1.234v-1.27h-1.234Zm-58.999 5.063v-1.27h-1.234v1.27h1.234Zm67.61 0h-1.234v1.27h1.234v-1.27Zm0-1.27V21.87h-1.234v1.27h1.234Zm-2.454-1.269h-1.234v1.27h1.234v-1.27Zm-2.454-2.524h-1.235v1.27h1.235v-1.27Zm1.234 5.063v1.27h1.234v-1.27h-1.234Zm-61.468 0v-1.27h-1.234v1.27h1.234Zm50.403 20.222h1.234v-1.27h-1.234v1.27Zm-41.792-18.967v-1.27h-1.234v1.27h1.234Zm56.545 18.967h1.234v-1.27h-1.234v1.27Zm-9.831 0h1.235v-1.27h-1.235v1.27ZM372.676 24.41v-1.27h-1.234v1.27h1.234Zm65.156 20.222h1.234v-1.27h-1.234v1.27Zm-9.831 0h1.234v-1.27h-1.234v1.27Zm-1.234-24.015h-1.234v1.27h1.234v-1.27Zm15.987 22.76v-1.269h-1.234v1.27h1.234Zm-14.753-20.221v-1.27h-1.234v1.27h1.234Zm-54.091 2.524v-1.27h-1.234v1.27h1.234Zm51.637-3.794h-1.234v1.27h1.234v-1.27Zm-34.415 6.318v-1.27h-1.234v1.27h1.234Zm-30.727 1.27v-1.27h-1.234v1.27h1.234Zm30.727 7.586h1.234v-1.27h-1.234v1.27Zm-17.207-6.317v1.269h1.234v-1.27h-1.234Zm11.065 2.524h-1.235v1.269h1.235v-1.27Zm-23.35-5.063v1.27h1.234v-1.27h1.234v-1.27h-1.234v-1.27h-1.234v1.27h-1.235v1.27h1.235Zm27.038 7.587v1.27h1.234v-1.27h-1.234Zm19.661-1.27h1.235v-1.27h-1.235v1.27Zm3.689-2.524v-1.27h-1.234v1.27h1.234Zm-8.611 5.063h1.234v-1.27h-1.234v1.27Zm-44.26-6.317v-1.27h-1.234v1.27h1.234Zm54.091 2.524v-1.27h-1.235v1.27h1.235Zm-18.442-5.063h-1.234v1.27h1.234v-1.27Zm-7.377 6.317v-1.27h-1.234v1.27h1.234Zm2.454-6.317h-1.234v1.27h1.234v-1.27Zm41.792 2.524h-1.234v1.27h1.234v-1.27Zm-39.337 5.063h1.234v-1.27h-1.234v1.27Zm7.376-7.587h-1.234v1.27h1.234v-1.27Zm1.234 2.524v-1.27h-1.234v1.27h1.234Zm-34.414-5.063v-1.27h-1.235v1.27h1.235Zm-2.455 0v-1.27h-1.234v1.27h1.234Zm29.507 8.856h1.234v-1.27h-1.234v1.27Zm-22.13-3.793v1.27h1.234v-1.27h-1.234Zm15.988 3.793v1.27h1.234v-1.27h-1.234Zm-3.689 0h-1.234v1.27h1.234v-1.27Zm0 1.27v1.27h1.235v-1.27h-1.235Zm-34.415-5.063v1.27h1.235v-1.27h-1.235Zm4.923 0v-1.27h-1.234v1.27h1.234Zm-3.688-1.27v-1.269h-1.235v1.27h1.235Zm4.922 0v-1.269h-1.234v1.27h1.234Zm41.792 8.857h1.234v-1.27h-1.234v1.27Zm-8.611-3.794h1.234v-1.27h-1.234v1.27Zm-38.103-3.793h1.234v-1.27h-1.234v1.27Zm4.922 0h1.234v-1.27h-1.234v1.27Zm39.338-5.063H393.6v1.27h1.235v-1.27Zm-4.923 0h-1.234v1.27h1.234v-1.27Zm20.896 1.27h-1.234v1.269h1.234v-1.27Zm-11.065-1.27h-1.234v1.27h1.234v-1.27Zm-14.753 0h-1.235v1.27h1.235v-1.27Zm0 8.856v1.27h1.234v-1.27h-1.234Zm-30.727-3.793v1.27h1.234v-1.27h-1.234Zm58.999-1.27h-1.234v1.27h1.234v-1.27Zm-72.533-2.524v-1.27h-1.234v1.27h1.234Zm45.48 8.857v1.27h1.235v-1.27h-1.235Zm17.208-1.27h1.234v-1.27h-1.234v1.27Zm-28.273-5.063v-1.269h-1.234v1.27h1.234Zm15.988 6.318v-1.27h-1.234v1.27h1.234Zm-12.299-2.524v1.27h1.234v-1.27h-1.234Zm12.299-2.524v-1.27h-1.234v1.27h1.234Zm-8.611 1.27v-1.27h-1.234v1.27h1.234Zm11.065 1.269v-1.27h-1.234v1.27h1.234Zm-13.519-1.27v1.27h1.234v-1.27h-1.234Zm4.923-2.524v-1.27h-1.235v1.27h1.235Zm-2.455 0v-1.27h-1.234v1.27h1.234Zm8.611 3.794v-1.27h-1.234v1.27h1.234Zm-18.441-3.794v1.27h1.234v-1.27h-1.234Zm6.142 2.524h-1.234v1.27h1.234v-1.27Zm-12.299-3.793v1.27h1.234v-1.27h-1.234Zm11.065 2.524h-1.234v1.27h1.234v-1.27Zm9.831 1.27v-1.27h-1.235v1.27h1.235Zm7.376-1.27h-1.234v1.27h1.234v-1.27Zm-8.611 0v-1.27h-1.234v1.27h1.234Zm-19.661-3.794h-1.234v1.27h1.234v-1.27Zm22.13 2.524h-1.234v1.27h1.234v-1.27Zm-19.662-1.269v-1.27h-1.234v1.27h1.234Zm11.065 3.794v-1.27h-1.234v1.27h1.234Zm18.442-2.525h-1.234v1.27h1.234v-1.27Zm-3.688 3.794h1.234v-1.27h-1.234v1.27Zm2.454-1.27v-1.269h-1.234v1.27h1.234Zm-1.234-1.269v-1.27h-1.235v1.27h1.235Zm-20.896-3.793v-1.27h-1.234v1.27h1.234Zm2.454 0v-1.27h-1.234v1.27h1.234Zm-6.143 2.524h-1.234v1.269h1.234v-1.27Zm27.039 2.524h1.234v-1.27h-1.234v1.27Zm-27.039-6.318v-1.27h-1.234v1.27h1.234Zm1.235 1.27v-1.27h-1.235v1.27h1.235Zm24.584 6.317h1.234v-1.27h-1.234v1.27Zm-24.584-3.793v-1.27h-1.235v1.27h1.235Zm7.376 0v-1.27h-1.234v1.27h1.234Zm3.689 3.793v-1.27h-1.235v1.27h1.235Zm6.142-2.524h-1.234v1.27h1.234v-1.27Zm-29.507-1.27v1.27h1.235v-1.27h-1.235Zm31.961 2.525v-1.27h-1.234v1.27h1.234Zm-13.519-3.794v-1.27h-1.234v1.27h1.234Zm14.753 1.27h-1.234v1.269h1.234v-1.27Zm-12.299 3.793v1.27h1.234v-1.27h-1.234Zm-11.065-5.063h-1.234v1.27h1.234v-1.27Zm-11.065 2.524v1.27h1.234v-1.27h-1.234Zm9.831-5.063v-1.27h-1.234v1.27h1.234Zm-4.923 5.063v1.27h1.235v-1.27h-1.235Zm12.3 5.063v1.27h1.234v-1.27h-1.234Zm-11.065-6.317v1.269h1.234v-1.27h-1.234Zm13.519 6.317v1.27h1.234v-1.27h-1.234Zm2.454-5.063v-1.27h-1.234v1.27h1.234Zm-3.688-1.27v-1.269h-1.235v1.27h1.235Zm-8.611 0h-1.235v1.27h1.235v-1.27Zm-3.689 0v-1.269h-1.234v1.27h1.234Zm13.519 1.27v-1.27h-1.234v1.27h1.234Zm3.689 5.063h-1.234v1.27h1.234v-1.27Zm-18.442-6.317h-1.234v1.269h1.234v-1.27Zm20.896-8.857h-1.234v1.27h1.234v-1.27Zm-8.611 13.905h-1.234v1.27h1.234v-1.27Zm18.442-13.905h-1.235v1.27h1.235v-1.27Zm20.895 1.27h-1.234v1.27h1.234v-1.27Zm-44.26 11.38v1.27h1.235v-1.27h-1.235Zm18.442-12.65h-1.234v1.27h1.234v-1.27Zm-6.142 10.111v-1.27h-1.235v1.27h1.235Zm-13.519 0h-1.235v1.27h1.235v-1.27Zm9.83-10.11h-1.234v1.269h1.234v-1.27Zm-4.922 12.65h-1.234v1.268h1.234v-1.269Zm-6.143 0v1.268h1.235v-1.269h-1.235Zm67.61 2.523h-1.234v1.27h1.234v-1.27Zm1.235-1.27h-1.235v1.27h1.235v-1.27Zm0 3.794v-1.27h-1.235v1.27h1.235Zm-2.455-1.27h-1.234v1.27h1.234v-1.27Zm-70.064-11.38h-1.234v1.27h1.234v-1.27Zm65.156 6.318h-1.234v1.27h1.234v-1.27Zm2.454 1.27v-1.27h-1.234v1.27h1.234Zm-45.48 3.793v1.27h1.235v-1.27h-1.235Zm47.949 3.793v-1.27h-1.235v1.27h1.235Zm-2.454-6.317h-1.235v1.27h1.235v-1.27Zm1.234 0v1.27h1.234v-1.27h-1.234Zm-51.637 2.524v1.27h1.234v-1.27h-1.234Zm-8.611-8.857V26.89h-1.234v1.27h1.234Zm-3.688-1.269v-1.27h-1.234v1.27h1.234Zm-2.454 0v-1.27h-1.234v1.27h1.234Zm8.611 1.27v-1.27h-1.235v1.27h1.235Zm36.883 13.904h1.234v-1.27h-1.234v1.27Zm20.896-2.524v-1.27h-1.234v1.27h1.234Zm-49.168-2.524v1.27h1.234v-1.27h-1.234Zm23.349 5.063h1.235v-1.27h-1.235v1.27Zm-4.922 0h1.234v-1.27h-1.234v1.27Zm17.207-10.111h-1.234v1.27h1.234v-1.27Zm-74.986-1.27h-1.235v1.27h1.235v-1.27Zm34.415 3.794v1.27h1.234v-1.27h-1.234Zm9.83-11.38h-1.234v1.269h1.234v-1.27Zm-45.48 6.317h-1.234v1.27h1.234v-1.27Zm27.039-1.27V26.89h-1.234v1.27h1.234Zm13.519-5.063h-1.234v1.27h1.234v-1.27Zm-35.649 10.112v-1.27h-1.235v-1.27h-1.234v1.27h-1.234v1.27h1.234v1.269h1.234v-1.27h1.235Zm0 0v1.269h1.234v-1.27h-1.234Zm28.272 1.269v1.27h1.234v-1.27h-1.234Zm11.065-1.27v-1.269h-1.234v1.27h1.234Zm-11.065 0h-1.234v1.27h1.234v-1.27ZM408.311 37h1.234v-1.27h-1.234V37Zm12.299-1.27v-1.269h-1.234v1.27h1.234Zm-2.454-11.38h-1.234v1.27h1.234v-1.27Zm0 5.063h-1.234v1.27h1.234v-1.27Zm1.234 5.063v-1.27h-1.234v1.27h1.234Zm-70.064-3.793v-1.27h-1.234v1.27h1.234Zm-3.688-1.27v-1.27h-1.235v1.27h1.235Zm70.064-2.524h-1.234v1.27h1.234v-1.27Zm-2.454-2.524h-1.235v1.27h1.235v-1.27Zm-67.61 6.318h1.234v-1.27h-1.234v1.27Zm49.168-7.587h-1.234v1.269h1.234v-1.27Zm33.195 11.38h-1.234v1.27h1.234v-1.27Zm-63.922-1.27v1.27h1.235v-1.27h-1.235Zm63.922 5.063V37h-1.234v1.27h1.234ZM426.767 37v-1.27h-1.234V37h1.234Zm-13.519 2.524h1.234v-1.27h-1.234v1.27Zm7.376-12.65h-1.234v1.27h1.234v-1.27Zm-51.636 6.318v-1.27h-1.235v-1.269h-1.234v1.27h-1.234v1.269h1.234v1.27h1.234v-1.27h1.235Zm-4.923 0v-1.27h-1.234v-1.269h-1.234v1.27h-1.235v1.269h1.235v1.27h1.234v-1.27h1.234Zm61.468-1.27h-1.235v1.27h1.235v-1.27Zm-2.455-2.524h-1.234v1.27h1.234v-1.27Zm-63.921 3.794v-1.27h-1.234v-1.269h-1.235v1.27h-1.234v1.269h1.234v1.27h1.235v-1.27h1.234Zm25.818-1.27v-1.269h-1.234v1.27h1.234Zm-8.611 0h-1.234v1.27h1.234v-1.27Zm-22.13 1.27v1.27h1.234v-1.27h-1.234Zm54.091 6.317h1.234V38.24h-1.234v1.27Zm-54.091-6.317v-1.27H353v-1.269h-1.234v1.27h-1.234v1.269h1.234v1.27H353v-1.27h1.234Zm31.961 0v-1.27h-1.234v1.27h1.234Zm-15.987-1.27v1.27h1.234v-1.27h-1.234Zm33.195 7.587h1.234V38.24h-1.234v1.27Zm-30.727-7.587v1.27h1.234v-1.27h-1.234Zm-13.519 1.27v1.27h1.234v-1.27h-1.234Zm124.155 0h1.234v-1.27h-1.234v1.27Zm-29.507 10.11h1.234v-1.269h-1.234v1.27Zm3.688 0v-1.269h-1.234v1.27h1.234Zm-6.142-22.76h1.234v-1.27h-1.234v1.27Zm3.688 21.491h1.235v-1.269h-1.235v1.27Zm-3.688-11.38h1.234v-1.27h-1.234v1.27Zm0-2.524h1.234v-1.27h-1.234v1.27Zm2.454 11.38v1.27h1.234v-1.27h-1.234Zm-2.454-16.443h1.234v-1.27h-1.234v1.27Zm0 2.524h1.234v-1.27h-1.234v1.27Zm4.923 2.524h1.234v-1.27h-1.234v1.27Zm0-2.524h1.234v-1.27h-1.234v1.27Zm0-5.063h1.234v-1.27h-1.234v1.27Zm0 10.111h1.234v-1.27h-1.234v1.27Zm0 10.111h1.234v-1.27h-1.234v1.27Zm0-17.698h1.234v-1.27h-1.234v1.27Zm9.83 2.524h1.235v-1.27h-1.235v1.27Zm-9.83 12.65h1.234v-1.27h-1.234v1.27Zm0-2.524h1.234v-1.27h-1.234v1.27Zm-4.923-2.524h1.234v-1.27h-1.234v1.27Zm-4.923-10.111h1.235v-1.27h-1.235v1.27Zm0 2.524h1.235v-1.27h-1.235v1.27Zm0 2.524h1.235v-1.27h-1.235v1.27Zm1.235 5.063v-1.27h-1.235v1.27h1.235Zm4.922 10.111v-1.27h-1.234v1.27h1.234Zm-6.142-12.65h1.234v-1.27h-1.234v1.27Zm4.922 5.063h1.235v-1.27h-1.235v1.27Zm-6.142-3.793h1.234v-1.27h-1.234v1.27Zm-1.234-2.524v1.269h1.234v-1.27h-1.234Zm0 3.793h1.234v-1.27h-1.234v1.27Zm6.142 3.794h1.234V35.7h-1.234v1.27Zm2.454 1.269v-1.27h-1.234v1.27h1.234Zm-3.688 5.063h1.234v-1.27h-1.234v1.27Zm0-8.856v1.269h1.234v-1.27h-1.234Zm0 3.793h1.234v-1.27h-1.234v1.27Zm2.454 2.524h1.234v-1.27h-1.234v1.27Zm-1.234 1.27h1.234v-1.27h-1.234v1.27Zm-1.234-2.525v1.27h1.234v-1.27h-1.234Zm-2.455-18.967h1.235v-1.27h-1.235v1.27Zm17.208 10.111h1.234v-1.27h-1.234v1.27Zm0 5.063h1.234v-1.27h-1.234v1.27Zm0-10.111h1.234v-1.27h-1.234v1.27Zm0 2.524h1.234v-1.27h-1.234v1.27Zm0 5.063h1.234v-1.27h-1.234v1.27Zm0 10.11h1.234v-1.269h-1.234v1.27Zm-2.454-22.76h1.234v-1.27h-1.234v1.27Zm2.454 17.698h1.234v-1.27h-1.234v1.27Zm0 2.524h1.234v-1.27h-1.234v1.27Zm0-17.698h1.234v-1.27h-1.234v1.27Zm2.454 10.111h1.234v-1.27h-1.234v1.27Zm0-2.524h1.234v-1.27h-1.234v1.27Zm-7.377 12.65h1.235v-1.27h-1.235v1.27Zm7.377-7.587h1.234v-1.27h-1.234v1.27Zm0-7.587h1.234v-1.27h-1.234v1.27Zm0 15.174h1.234v-1.27h-1.234v1.27Zm0-2.524h1.234v-1.27h-1.234v1.27Zm0-2.524h1.234v-1.27h-1.234v1.27Zm-4.923-15.174h1.235v-1.27h-1.235v1.27Zm-2.454 5.063h1.235v-1.27h-1.235v1.27Zm0 5.063h1.235v-1.27h-1.235v1.27Zm0-2.524h1.235v-1.27h-1.235v1.27Zm0-5.063h1.235v-1.27h-1.235v1.27Zm0-2.524h1.235v-1.27h-1.235v1.27Zm0 12.65h1.235v-1.27h-1.235v1.27Zm0 5.062h1.235v-1.27h-1.235v1.27Zm0-2.524h1.235v-1.27h-1.235v1.27Zm2.454-10.11h1.235v-1.27h-1.235v1.27Zm0 7.586h1.235v-1.27h-1.235v1.27Zm0-5.063h1.235v-1.27h-1.235v1.27Zm0 2.524h1.235v-1.27h-1.235v1.27Zm0-7.587h1.235v-1.27h-1.235v1.27Zm0 15.174h1.235v-1.27h-1.235v1.27Zm0 2.524h1.235v-1.269h-1.235v1.27Zm0-5.063h1.235V37h-1.235v1.27Zm-2.454-17.697h1.235v-1.27h-1.235v1.27Zm-2.454 12.65h1.234v-1.27h-1.234v1.27Zm-45.48 7.586v1.27h1.234v-1.27h-1.234Zm3.689 2.524h1.234v-1.269h-1.234v1.27Zm-2.455-1.269v1.27h1.235v-1.27h-1.235Zm-4.922 0v1.27h1.234v-1.27h-1.234Zm2.454 1.27h1.234v-1.27h-1.234v1.27Zm-8.611-2.525v1.27h1.234v-1.27h-1.234Zm1.234 1.27v1.27h1.235v-1.27h-1.235Zm2.454 1.27h1.235v-1.27h-1.235v1.27Zm-4.922 0h1.234v-1.27H399.7v1.27Zm29.507 0h1.234v-1.27h-1.234v1.27Zm-4.923 0h1.234v-1.27h-1.234v1.27Zm-2.454-1.27v1.27h1.234v-1.27h-1.234Zm3.688-1.27v1.27h1.234v-1.27h-1.234Zm-9.831 0v1.27h1.235v-1.27h-1.235Zm11.065 1.27v1.27h1.235v-1.27h-1.235Zm-9.83 0v1.27h1.234v-1.27h-1.234Zm2.454 1.27h1.234v-1.27h-1.234v1.27Zm1.234-2.525v1.27h1.234v-1.27h-1.234Zm-14.753 0v1.27h1.234v-1.27h-1.234Zm-47.949 1.27v-1.27h-1.234v1.27h-1.234v1.269h1.234v1.27h1.234v-1.27h1.234v-1.27h-1.234Zm14.754 0v-1.27h-1.235v1.27h-1.234v1.269h1.234v1.27h1.235v-1.27h1.234v-1.27h-1.234Zm-9.831 0v-1.27h-1.234v1.27h-1.235v1.269h1.235v1.27h1.234v-1.27h1.234v-1.27h-1.234Zm4.922 0v-1.27h-1.234v1.27h-1.234v1.269h1.234v1.27h1.234v-1.27h1.235v-1.27h-1.235Zm-14.753 0v-1.27h-1.234v1.27h-1.234v1.269h1.234v1.27H353v-1.27h1.234v-1.27H353Zm-13.519 0v1.269h-1.234v1.27h-1.235v-1.27h-1.234v1.27h-1.234v-1.27h-1.234v1.27h-1.234v-1.27h-1.235v1.27h-1.234v-1.27h-1.234v1.27h-1.234v-1.27h-1.235v1.27h-1.234v-1.27h-1.234v1.27h-1.234v-1.27h-1.235v1.27h-1.234v-1.27h-1.234v1.27h-1.234v-1.27h-1.234v1.27h-1.235v-1.27h-1.234v1.27h-1.234v-1.27h-1.234v1.27h-1.235v-1.27h-1.234v1.27h-1.234v-1.27h-1.234v1.27h-1.235v-1.27h-1.234v1.27h-1.234v-1.27h-1.234v1.27h-1.234v-1.27h-1.235v1.27h-1.234v-1.27h-1.234v1.27h-1.234v-1.27h-1.235v1.27h-1.234v-1.27h-1.234v1.27h-1.234v-1.27h-1.235v1.27h-1.234v-1.27h-1.234v1.27h-1.234v-1.27h-1.234v1.27h-1.235v-1.27h-1.234v1.27h-1.234v-1.27h-1.234v1.27h-1.235v-1.27h-1.234v1.27h-1.234v-1.27h-1.234v1.27h-1.235v-1.27h-1.234v1.27h-3.688v-1.27h-1.234v1.27h-3.689v-1.27h-1.234v1.27h-3.688v-1.27h-1.234v1.27h-3.689v-1.27h-1.234v1.27h-3.688v-1.27h-1.235v1.27h-3.688v-1.27h-1.234v1.27h-3.689v-1.27h-1.234v1.27h-3.688v-1.27h-1.234v1.27H77.58v-26.51h130.312v1.269h1.234v-1.27h3.688v1.27h1.235v-1.27h3.688v1.27h1.234v-1.27h3.689v1.27h1.234v-1.27h3.688v1.27h1.234v-1.27h3.689v1.27h1.234v-1.27h3.688v1.27h1.235v-1.27h3.688v1.27h1.234v-1.27h3.688v1.27h1.235v-1.27h1.234v1.27h1.234v-1.27h1.234v1.27h1.235v-1.27h1.234v1.27h1.234v-1.27h1.234v1.27h1.234v-1.27h1.235v1.27h1.234v-1.27h1.234v1.27h1.234v-1.27h1.235v1.27h1.234v-1.27h1.234v1.27h1.234v-1.27h3.689v1.27h1.234v-1.27h1.234v1.27h1.234v-1.27h1.235v1.27h1.234v-1.27h1.234v1.27h1.234v-1.27h1.235v1.27h1.234v-1.27h1.234v1.27h1.234v-1.27h1.234v1.27h1.235v-1.27h1.234v1.27h1.234v-1.27h1.234v1.27h1.235v1.269h-1.235v1.27h1.235v-1.27h1.234v1.27h1.234v-1.27h-1.234v-1.27h1.234v-1.269h1.234v1.27h1.234v1.269h-1.234v1.27h1.234v-1.27h1.235v1.27h1.234v-1.27h-1.234v-1.27h1.234v-1.269h1.234v1.27h1.234v1.269h-1.234v1.27h1.234v-1.27h1.235v1.27h1.234v-1.27h-1.234v-1.27h1.234v-1.269h1.234v1.27h1.234v1.269h-1.234v1.27h1.234v-1.27h1.235v1.27h1.234v-1.27h-1.234v-1.27h1.234v-1.269h1.234v1.27h1.234v1.269h-1.234v1.27h1.234v-1.27h1.234v1.27h1.235v-1.27h-1.235v-1.27h1.235v-1.269h1.234v1.27h1.234v1.269h-1.234v1.27h1.234v-1.27h1.234v1.27h1.235v1.269h-1.235v1.27h-1.234v-1.27h-1.234v1.27h1.234v1.269h-1.234v1.27h1.234v-1.27h1.234v1.27h1.235v-1.27h-1.235v-1.27h1.235v-1.27h1.234v1.27h1.234v1.27h-1.234v1.27h1.234v-1.27h1.234v1.27h1.235v1.268h-1.235v1.27h-1.234v-1.27h-1.234v1.27h1.234v1.27h-1.234v1.269h1.234v-1.27h1.234v1.27h1.235v-1.27h-1.235v-1.27h1.235v-1.269h1.234v1.27h1.234v1.27h-1.234v1.269h1.234v-1.27h1.234v1.27h1.234v1.27h-1.234v1.269h-1.234v-1.27h-1.234v1.27h1.234v1.269h-1.234v1.27h1.234v-1.27h1.234v1.27h1.234v-1.27h-1.234v-1.27h1.234v-1.269h1.235v1.27h1.234v1.269h-1.234v1.27h1.234v-1.27h1.234v1.27h1.234v1.269h-1.234v1.27h-1.234v-1.27h-1.234v1.27h1.234v1.269h-1.234v1.27h1.234v-1.27h1.234v1.27h1.234v-1.27h-1.234V39.7h1.234v-1.27h1.235v1.27h1.234v1.27h-1.234v1.27h1.234v-1.27h1.234v1.27h1.234l-.344-.148ZM214.02 23.184h-1.234v1.27h1.234v-1.27Zm4.923 5.063h-1.235v1.27h1.235v-1.27Zm0-5.063h-1.235v1.27h1.235v-1.27Zm4.922 10.111h-1.234v1.27h1.234v-1.27Zm0-5.063h-1.234v1.27h1.234v-1.27Zm0-5.063h-1.234v1.27h1.234v-1.27Zm4.923 15.174h-1.235v1.27h1.235v-1.27Zm0-5.063h-1.235v1.27h1.235v-1.27Zm0-5.063h-1.235v1.27h1.235v-1.27Zm0-5.062h-1.235v1.269h1.235v-1.27Zm4.922 15.173h-1.234v1.27h1.234v-1.27Zm0-5.062h-1.234v1.269h1.234v-1.27Zm0-5.063h-1.234v1.27h1.234v-1.27Zm0-5.063h-1.234v1.27h1.234v-1.27Zm2.454-2.524h-1.234v1.27h1.234v-1.27Zm2.454 17.698h-1.234v1.27h1.234v-1.27Zm0-5.063h-1.234v1.27h1.234v-1.27Zm0-5.063h-1.234v1.27h1.234v-1.27Zm0-5.063h-1.234v1.27h1.234v-1.27Zm2.455 2.524h-1.235v1.27h1.235v-1.27Zm0-5.063h-1.235v1.27h1.235v-1.27Zm2.454 17.698h-1.235v1.27h1.235v-1.27Zm0-5.063h-1.235v1.27h1.235v-1.27Zm0-5.063h-1.235v1.27h1.235v-1.27Zm0-5.063h-1.235v1.27h1.235v-1.27Zm2.454 7.588h-1.234v1.269h1.234v-1.27Zm0-5.063h-1.234v1.269h1.234v-1.27Zm0-5.063h-1.234v1.27h1.234v-1.27Zm2.454 17.698h-1.234v1.27h1.234v-1.27Zm0-5.063h-1.234v1.27h1.234v-1.27Zm0-5.063h-1.234v1.27h1.234v-1.27Zm0-5.063h-1.234v1.27h1.234v-1.27Zm2.454 12.65h-1.234v1.27h1.234v-1.27Zm0-5.063h-1.234v1.27h1.234v-1.27Zm0-5.063h-1.234v1.27h1.234v-1.27Zm0-5.063h-1.234v1.27h1.234v-1.27Zm2.454 17.698h-1.234v1.27h1.234v-1.27Zm0-5.063h-1.234v1.27h1.234v-1.27Zm0-5.063h-1.234v1.27h1.234v-1.27Zm0-5.063h-1.234v1.27h1.234v-1.27Zm2.454 17.698h-1.234v1.27h1.234v-1.27Zm0-5.062h-1.234v1.269h1.234v-1.27Zm0-5.063h-1.234v1.27h1.234v-1.27Zm0-5.063h-1.234v1.27h1.234v-1.27Zm0-2.524h-1.234v1.27h1.234v-1.27Zm0-2.524h-1.234v1.27h1.234v-1.27Zm2.454 17.698h-1.234v1.27h1.234v-1.27Zm0-5.063h-1.234v1.27h1.234v-1.27Zm0-5.063h-1.234v1.27h1.234v-1.27Zm0-5.063h-1.234v1.27h1.234v-1.27Zm2.454 17.698h-1.234v1.27h1.234v-1.27Zm0-5.063h-1.234v1.27h1.234v-1.27Zm0-5.063h-1.234v1.27h1.234v-1.27Zm0-2.524h-1.234v1.27h1.234v-1.27Zm0-2.524h-1.234v1.27h1.234v-1.27Zm0-2.524h-1.234v1.27h1.234v-1.27Zm0-2.524h-1.234v1.27h1.234v-1.27Zm2.455 17.698h-1.235v1.27h1.235v-1.27Zm0-5.063h-1.235v1.27h1.235v-1.27Zm0-5.063h-1.235v1.27h1.235v-1.27Zm0-5.063h-1.235v1.27h1.235v-1.27Zm2.454 17.698h-1.235v1.27h1.235v-1.27Zm0-5.063h-1.235v1.27h1.235v-1.27Zm0-2.524h-1.235v1.27h1.235v-1.27Zm0-2.524h-1.235v1.27h1.235v-1.27Zm0-2.524h-1.235v1.27h1.235v-1.27Zm0-2.524h-1.235v1.27h1.235v-1.27Zm0-2.524h-1.235v1.27h1.235v-1.27Zm0-2.524h-1.235v1.27h1.235v-1.27Zm2.454 17.698h-1.234v1.27h1.234v-1.27Zm0-5.063h-1.234v1.27h1.234v-1.27Zm0-5.063h-1.234v1.27h1.234v-1.27Zm0-5.063h-1.234v1.27h1.234v-1.27Zm2.454 17.698h-1.234v1.27h1.234v-1.27Zm0-2.524h-1.234v1.27h1.234v-1.27Zm0-2.524h-1.234v1.27h1.234v-1.27Zm0-2.524h-1.234v1.27h1.234v-1.27Zm0-2.524h-1.234v1.27h1.234v-1.27Zm0-2.524h-1.234v1.27h1.234v-1.27Zm0-2.524h-1.234v1.27h1.234v-1.27Zm0-2.524h-1.234v1.27h1.234v-1.27Zm0-2.524h-1.234v1.27h1.234v-1.27Zm2.454 17.698h-1.234v1.27h1.234v-1.27Zm0-5.063h-1.234v1.27h1.234v-1.27Zm0-5.063h-1.234v1.27h1.234v-1.27Zm0-5.063h-1.234v1.27h1.234v-1.27Zm2.454 17.698h-1.234v1.27h1.234v-1.27Zm0-2.524h-1.234v1.27h1.234v-1.27Zm0-2.524h-1.234v1.27h1.234v-1.27Zm0-2.524h-1.234v1.27h1.234v-1.27Zm0-2.524h-1.234v1.27h1.234v-1.27Zm0-2.524h-1.234v1.27h1.234v-1.27Zm0-2.524h-1.234v1.269h1.234v-1.27Zm0-2.524h-1.234v1.269h1.234v-1.27Zm0-2.525h-1.234v1.27h1.234v-1.27Zm2.454 17.699h-1.234v1.269h1.234v-1.27Zm0-5.063h-1.234v1.269h1.234v-1.27Zm0-5.063h-1.234v1.27h1.234v-1.27Zm0-5.063h-1.234v1.27h1.234v-1.27Zm0-2.524h-1.234v1.27h1.234v-1.27Zm2.454 20.236h-1.234v1.27h1.234v-1.27Zm0-2.523h-1.234v1.269h1.234v-1.27Zm0-2.525h-1.234v1.27h1.234v-1.27Zm0-2.524h-1.234v1.27h1.234v-1.27Zm0-2.524h-1.234v1.27h1.234v-1.27Zm0-2.524h-1.234v1.27h1.234v-1.27Zm0-2.524h-1.234v1.27h1.234v-1.27Zm0-2.524h-1.234v1.27h1.234v-1.27Zm0-2.524h-1.234v1.27h1.234v-1.27Zm2.454 17.698h-1.234v1.27h1.234v-1.27Zm0-5.063h-1.234v1.27h1.234v-1.27Zm0-5.063h-1.234v1.27h1.234v-1.27Zm0-2.524h-1.234v1.27h1.234v-1.27Zm0-2.524h-1.234v1.27h1.234v-1.27Zm0-2.524h-1.234v1.27h1.234v-1.27Zm2.455 20.237h-1.235v1.27h1.235v-1.27Zm0-2.524h-1.235v1.27h1.235v-1.27Zm0-2.524h-1.235V37h1.235v-1.27Zm0-2.524h-1.235v1.269h1.235v-1.27Zm0-2.524h-1.235v1.269h1.235v-1.27Zm0-2.525h-1.235v1.27h1.235v-1.27Zm0-2.524h-1.235v1.27h1.235v-1.27Zm0-2.524h-1.235v1.27h1.235v-1.27Zm0-2.524h-1.235v1.27h1.235v-1.27Zm2.454 17.698h-1.235v1.27h1.235v-1.27Zm0-5.063h-1.235v1.27h1.235v-1.27Zm0-2.524h-1.235v1.27h1.235v-1.27Zm0-2.524h-1.235v1.27h1.235v-1.27Zm0-2.524h-1.235v1.27h1.235v-1.27Zm0-2.524h-1.235v1.27h1.235v-1.27Zm0-2.524h-1.235v1.27h1.235V20.6Zm2.454 20.237h-1.234v1.27h1.234v-1.27Zm0-2.524h-1.234v1.27h1.234v-1.27Zm0-2.524h-1.234v1.27h1.234v-1.27Zm0-2.524h-1.234v1.269h1.234v-1.27Zm0-2.524h-1.234v1.269h1.234v-1.27Zm0-2.524h-1.234v1.269h1.234v-1.27Zm0-2.525h-1.234v1.27h1.234v-1.27Zm0-2.524h-1.234v1.27h1.234v-1.27Zm0-2.524h-1.234v1.27h1.234v-1.27Zm2.454 17.698h-1.234v1.27h1.234v-1.27Zm0-2.524h-1.234v1.27h1.234v-1.27Zm0-2.524h-1.234v1.27h1.234v-1.27Zm0-2.524h-1.234v1.27h1.234v-1.27Zm0-2.524h-1.234v1.27h1.234v-1.27Zm0-2.524h-1.234v1.27h1.234v-1.27Zm0-2.524h-1.234v1.27h1.234v-1.27Zm2.454 17.698h-1.234v1.27h1.234v-1.27Zm0-2.524h-1.234v1.27h1.234v-1.27Zm0-2.524h-1.234v1.27h1.234v-1.27Zm0-2.524h-1.234v1.27h1.234v-1.27Zm0-2.524h-1.234v1.269h1.234V30.8Zm0-2.524h-1.234v1.269h1.234v-1.27Zm0-2.525h-1.234v1.27h1.234v-1.27Zm0-2.524h-1.234v1.27h1.234v-1.27Zm2.454 17.698h-1.234v1.27h1.234v-1.27Zm0-2.524h-1.234v1.27h1.234v-1.27Zm0-2.524h-1.234v1.27h1.234v-1.27Zm0-2.524h-1.234v1.27h1.234v-1.27Zm0-2.524h-1.234v1.27h1.234v-1.27Zm0-2.524h-1.234v1.27h1.234v-1.27Zm2.454 12.65h-1.234v1.27h1.234v-1.27Zm0-2.524h-1.234v1.27h1.234v-1.27Zm0-2.524h-1.234v1.27h1.234v-1.27Zm0-2.524h-1.234v1.27h1.234v-1.27Zm0-2.524h-1.234v1.27h1.234v-1.27Zm0-2.524h-1.234v1.269h1.234v-1.27Zm0-5.063h-1.234v1.27h-1.234v-1.27h-1.235v1.27h1.235v1.268h-1.235v1.27h1.235v-1.27h1.234v1.27h1.234v-1.27h-1.234v-1.269h1.234v-1.27Zm2.454 17.698h-1.234v1.27h1.234v-1.27Zm0-2.524h-1.234v1.269h1.234v-1.27Zm0-2.525h-1.234v1.27h1.234v-1.27Zm0-2.523h-1.234v1.269h1.234v-1.27Zm2.454 7.587h-1.234v1.269h1.234v-1.27Zm0-2.525h-1.234v1.27h1.234v-1.27Zm0-2.524h-1.234v1.27h1.234v-1.27Zm0-2.524h-1.234v1.27h1.234v-1.27Zm0-5.063h-1.234v1.27h-1.234v-1.27h-1.234v1.27h1.234v1.27h-1.234v1.269h1.234v-1.27h1.234v1.27h1.234v-1.27h-1.234v-1.27h1.234V28.35Zm0-5.063h-1.234v1.27h-1.234v-1.27h-1.234v1.27h1.234v1.27h-1.234v1.269h1.234v-1.27h1.234v1.27h1.234v-1.27h-1.234v-1.27h1.234v-1.269Zm2.454 17.699h-1.234v1.269h1.234v-1.27Zm0-2.525h-1.234v1.27h1.234v-1.27Zm2.455 2.525h-1.235v1.269h1.235v-1.27Zm0-2.525h-1.235v1.27h1.235v-1.27Zm0-5.063h-1.235v1.27h-1.234v-1.27h-1.234v1.27h1.234v1.27h-1.234v1.269h1.234v-1.27h1.234v1.27h1.235v-1.27h-1.235v-1.27h1.235v-1.269Zm0-5.062h-1.235v1.269h-1.234v-1.27h-1.234v1.27h1.234v1.27h-1.234v1.269h1.234v-1.27h1.234v1.27h1.235v-1.27h-1.235v-1.269h1.235v-1.27Zm0-5.063h-1.235v1.27h-1.234v-1.27h-1.234v1.27h1.234v1.268h-1.234v1.27h1.234v-1.27h1.234v1.27h1.235v-1.27h-1.235v-1.269h1.235v-1.27Zm4.922 15.174h-1.234v1.269h-1.234v-1.27h-1.235v1.27h1.235v1.27h-1.235v1.269h1.235v-1.27h1.234v1.27h1.234v-1.27h-1.234v-1.269h1.234v-1.27Zm0-5.063h-1.234v1.27h-1.234v-1.27h-1.235v1.27h1.235v1.268h-1.235v1.27h1.235v-1.27h1.234v1.27h1.234v-1.27h-1.234v-1.269h1.234v-1.27Zm0-5.063h-1.234v1.27h-1.234v-1.27h-1.235v1.27h1.235v1.269h-1.235v1.27h1.235v-1.27h1.234v1.27h1.234v-1.27h-1.234v-1.27h1.234v-1.27Zm0-5.063h-1.234v1.27h-1.234v-1.27h-1.235v1.27h1.235v1.269h-1.235v1.27h1.235v-1.27h1.234v1.27h1.234v-1.27h-1.234v-1.27h1.234v-1.27Zm4.923 15.174h-1.234v1.27h-1.235v-1.27h-1.234v1.27h1.234v1.269h-1.234v1.27h1.234v-1.27h1.235v1.27h1.234v-1.27h-1.234V39.7h1.234v-1.27Zm0-5.063h-1.234v1.27h-1.235v-1.27h-1.234v1.27h1.234v1.269h-1.234v1.27h1.234v-1.27h1.235v1.27h1.234v-1.27h-1.234v-1.27h1.234V33.37Zm0-5.063h-1.234v1.27h-1.235v-1.27h-1.234v1.27h1.234v1.269h-1.234v1.27h1.234v-1.27h1.235v1.27h1.234v-1.27h-1.234v-1.27h1.234v-1.269Zm4.922 10.111h-1.234v1.27h-1.234v-1.27h-1.234v1.27h1.234v1.269h-1.234v1.27h1.234v-1.27h1.234v1.27h1.234v-1.27h-1.234v-1.27h1.234v-1.269Zm0-5.063h-1.234v1.27h-1.234v-1.27h-1.234v1.27h1.234v1.269h-1.234v1.27h1.234v-1.27h1.234v1.27h1.234v-1.27h-1.234v-1.27h1.234v-1.269Zm4.923 5.063h-1.234v1.27h-1.235v-1.27h-1.234v1.27h1.234v1.269h-1.234v1.27h1.234v-1.27h1.235v1.27h1.234v-1.27h-1.234v-1.27h1.234v-1.269Zm13.519 3.794v-1.27h-1.234v1.27h-1.234v1.269h1.234v1.27h1.234v-1.27h1.234v-1.27h-1.234Zm103.259-6.318h1.234v-1.27h-1.234v1.27Zm-98.336 6.318v-1.27h-1.235v1.27h-1.234v1.269h1.234v1.27h1.235v-1.27h1.234v-1.27h-1.234Zm41.791 0v1.269h1.234v-1.27h-1.234Zm-2.454 0v1.269h1.234v-1.27h-1.234Zm4.923 0v1.269h1.234v-1.27h-1.234Zm2.454 0v1.269h1.234v-1.27h-1.234Zm-12.299 0v1.269h1.234v-1.27h-1.234Zm-2.455 0v1.269h1.235v-1.27h-1.235Zm4.923 0v1.269h1.234v-1.27h-1.234Zm-7.377 0v-1.27h-1.234v1.27h-1.234v1.269h1.234v1.27h1.234v-1.27h1.235v-1.27h-1.235Zm19.662 0v1.269h1.234v-1.27h-1.234Zm41.792-17.698v1.269h1.234v-1.27h-1.234Zm2.454-1.27h1.234v-1.27h-1.234v1.27Zm0 2.524h1.234v-1.27h-1.234v1.27Zm6.142 17.698v-1.27h-1.234v1.27h1.234Zm-6.142-22.76h1.234v-1.27h-1.234v1.27Zm0 10.11h1.234v-1.27h-1.234v1.27Zm1.234-2.524v-1.27h-1.234v1.27h1.234Zm-3.688 0h1.234v-1.27h-1.234v1.27Zm-8.611 12.65v1.27h1.234v-1.27h-1.234Zm13.519 2.524h1.234v-1.27h-1.234v1.27Zm1.234-6.317h1.234v-1.27h-1.234v1.27Zm2.454 1.27v-1.27h-1.234v1.27h1.234Zm-3.688 0h1.234v-1.27h-1.234v1.27Zm-4.923-8.857v1.27h1.234v-1.27h-1.234Zm4.923 5.063v1.269h1.234v-1.27h-1.234Zm2.454 6.317h1.234v-1.27h-1.234v1.27Zm-1.234 1.27h1.234v-1.27h-1.234v1.27Zm-1.235-2.524v1.269h1.235v-1.27h-1.235Zm-3.688-12.65h1.234v-1.27h-1.234v1.27Zm-3.688 15.174v1.269h1.234v-1.27h-1.234Zm2.454 1.269h1.234v-1.27h-1.234v1.27Zm-1.234-3.793h-1.235v1.269h1.235v-1.27Zm2.454 2.524h1.234v-1.27h-1.234v1.27Zm-8.611 0v1.269h1.234v-1.27h-1.234Zm8.611-10.111h1.234v-1.27h-1.234v1.27Zm-4.923 8.856v1.27h1.234v-1.27h-1.234Zm-1.234 2.524h1.234v-1.27h-1.234v1.27Zm4.922-3.793v1.269h1.235v-1.27h-1.235Zm2.455-3.794h1.234v-1.27h-1.234v1.27Zm1.234-2.524v-1.27h-1.234v1.27h1.234Zm-3.689 1.27v1.269h1.235v-1.27h-1.235Zm0-1.27h1.235v-1.27h-1.235v1.27Zm2.455 7.587h1.234v-1.27h-1.234v1.27Zm-1.235-3.794h1.235v-1.269h-1.235v1.27Zm2.454 1.27v-1.27h-1.234v1.27h1.234Zm-3.688 0h1.234v-1.27h-1.234v1.27Zm71.298-7.587h1.235v-1.27h-1.235v1.27Zm-9.83 5.063h1.234v-1.27h-1.234v1.27Zm0-5.063h1.234v-1.27h-1.234v1.27Zm0-5.063h1.234v-1.27h-1.234v1.27Zm0 15.174h1.234v-1.27h-1.234v1.27Zm0 2.524h1.234v-1.27h-1.234v1.27Zm-2.454-15.174h1.234v-1.27h-1.234v1.27Zm2.454-7.587h1.234v-1.27h-1.234v1.27Zm-2.454 12.65h1.234v-1.27h-1.234v1.27Zm0-10.111h1.234v-1.27h-1.234v1.27Zm7.376 2.524h1.234v-1.27h-1.234v1.27Zm-2.454 17.698h1.234v-1.27h-1.234v1.27Zm0-20.222h1.234v-1.27h-1.234v1.27Zm2.454 12.65h1.234v-1.27h-1.234v1.27Zm0-5.063h1.234v-1.27h-1.234v1.27Zm0 10.11h1.234v-1.268h-1.234v1.269Zm-2.454-2.523h1.234v-1.27h-1.234v1.27Zm0-5.063h1.234v-1.27h-1.234v1.27Zm0-5.063h1.234v-1.27h-1.234v1.27Zm-4.922 10.111h1.234v-1.27h-1.234v1.27Zm-4.923-10.111h1.234v-1.27h-1.234v1.27Zm0 10.111h1.234v-1.27h-1.234v1.27Zm4.923 5.063h1.234v-1.27h-1.234v1.27Zm-4.923-10.111h1.234v-1.27h-1.234v1.27Zm-2.454-12.65h1.234v-1.27h-1.234v1.27Zm0 12.65h1.234v-1.27h-1.234v1.27Zm0-2.524h1.234v-1.27h-1.234v1.27Zm0-5.063h1.234v-1.27h-1.234v1.27Zm2.454 17.698h1.234v-1.27h-1.234v1.27Zm2.454-12.65h1.234v-1.27h-1.234v1.27Zm-2.454-7.587h1.234v-1.27h-1.234v1.27Zm2.454-2.524h1.234v-1.27h-1.234v1.27Zm0 15.174h1.234v-1.27h-1.234v1.27Zm0-10.111h1.234v-1.27h-1.234v1.27Zm0 12.65h1.234v-1.27h-1.234v1.27Zm0 5.063h1.234v-1.27h-1.234v1.27Zm0-2.524h1.234V39.7h-1.234v1.27Zm17.208-17.698h1.234v-1.27h-1.234v1.27Zm9.83 5.063h1.235v-1.27h-1.235v1.27Zm0-5.063h1.235v-1.27h-1.235v1.27Zm4.923 20.222h1.234v-1.27h-1.234v1.27Zm-4.923-10.111h1.235v-1.27h-1.235v1.27Zm-4.922-10.111h1.234v-1.27h-1.234v1.27Zm9.831 15.174h1.234v-1.27h-1.234v1.27Zm-4.923 0h1.234v-1.27h-1.234v1.27Zm-2.454 2.524h1.234V39.7h-1.234v1.27Zm2.454 2.524h1.234v-1.27h-1.234v1.27Zm-14.753 0h1.234v-1.27h-1.234v1.27Zm29.506 0h1.235v-1.27h-1.235v1.27Zm0-5.063h1.235v-1.27h-1.235v1.27Zm4.923 3.793v1.27h1.234v-1.27h-1.234Zm-14.753-8.856h1.234v-1.27h-1.234v1.27Zm4.922 0h1.234v-1.27h-1.234v1.27Zm-14.753-5.063h1.234v-1.27h-1.234v1.27Zm14.753 15.174h1.234v-1.27h-1.234v1.27Zm0-5.063h1.234v-1.27h-1.234v1.27Zm-4.922-10.111h1.234v-1.27h-1.234v1.27Zm-17.208 12.65h1.234v-1.27h-1.234v1.27Zm0-5.063h1.234v-1.27h-1.234v1.27Zm-2.454-12.65h1.234v-1.27h-1.234v1.27ZM319.575 20.72v1.27h1.235v-1.27h1.234v-1.27h-1.234V18.18h-1.235v1.27h-1.234v1.27h1.234Zm188.077 17.698h1.234v-1.27h-1.234v1.27Zm4.923 5.063h1.234v-1.27h-1.234v1.27Zm-4.923-15.174h1.234v-1.27h-1.234v1.27Zm0 5.063h1.234v-1.27h-1.234v1.27Zm-17.207 2.524h1.234v-1.27h-1.234v1.27Zm24.584 0h1.234v-1.27h-1.234v1.27Zm2.454 7.587h1.234v-1.27h-1.234v1.27Zm0-5.063h1.234v-1.27h-1.234v1.27Zm-2.454 2.524h1.234v-1.27h-1.234v1.27Zm-2.454-2.524h1.234v-1.27h-1.234v1.27Zm4.922-5.063h1.234v-1.27h-1.234v1.27Zm-4.922 0h1.234v-1.27h-1.234v1.27Zm0-5.063h1.234v-1.27h-1.234v1.27Zm-39.338 10.111h1.234v-1.27h-1.234v1.27Zm0-10.11h1.234v-1.27h-1.234v1.27Zm0 5.062h1.234v-1.27h-1.234v1.27Zm0-10.11h1.234v-1.27h-1.234v1.27Zm0 12.649h1.234v-1.27h-1.234v1.27Zm2.454 7.587h1.234v-1.27h-1.234v1.27Zm-4.922-22.76h1.234v-1.27h-1.234v1.27Zm2.454 22.76h1.234v-1.27h-1.234v1.27Zm0-2.524h1.234v-1.27h-1.234v1.27Zm-7.377-17.698h1.234v-1.27h-1.234v1.27Zm9.831 7.587h1.234v-1.27h-1.234v1.27Zm0-2.524h1.234v-1.27h-1.234v1.27Zm0-2.524h1.234v-1.27h-1.234v1.27Zm0-2.524h1.234v-1.27h-1.234v1.27Zm-4.923 0h1.234v-1.27h-1.234v1.27Zm4.923 12.65h1.234v-1.27h-1.234v1.27Zm0 2.524h1.234v-1.27h-1.234v1.27Zm0-5.063h1.234v-1.27h-1.234v1.27Zm0 7.587h1.234V39.7h-1.234v1.27ZM468.3 23.273h1.234v-1.27H468.3v1.27Zm0 10.11h1.234v-1.269H468.3v1.27Zm0 2.525h1.234v-1.27H468.3v1.27Zm0-5.063h1.234v-1.27H468.3v1.27Zm0 7.587h1.234v-1.27H468.3v1.27Zm-2.454-17.698h1.234v-1.27h-1.234v1.27Zm2.454 7.587h1.234v-1.27H468.3v1.27Zm0 15.174h1.234v-1.27H468.3v1.27Zm0-2.524h1.234V39.7H468.3v1.27Zm22.13-2.524h1.234v-1.27h-1.234v1.27Zm-19.661-12.65h1.234v-1.27h-1.234v1.27Zm0 5.063h1.234v-1.27h-1.234v1.27Zm0 2.524h1.234v-1.27h-1.234v1.27Zm0-5.063h1.234v-1.27h-1.234v1.27Zm0 7.587h1.234v-1.27h-1.234v1.27Zm0 7.587h1.234v-1.27h-1.234v1.27Zm0-2.524h1.234V39.7h-1.234v1.27Zm0-2.524h1.234v-1.27h-1.234v1.27Zm4.922-17.698h1.234v-1.27h-1.234v1.27Zm9.831 10.11h1.234V29.59h-1.234v1.27Zm0 2.525h1.234v-1.27h-1.234v1.27Zm0 2.524h1.234v-1.27h-1.234v1.27Zm0-7.587h1.234v-1.27h-1.234v1.27Zm-2.454-5.063h1.234v-1.27h-1.234v1.27Zm2.454 20.222h1.234v-1.27h-1.234v1.27Zm0-17.698h1.234v-1.27h-1.234v1.27Zm-2.454 2.524h1.234v-1.27h-1.234v1.27Zm2.454 10.111h1.234v-1.27h-1.234v1.27Zm0 2.524h1.234v-1.27h-1.234v1.27Zm4.923 2.524h1.234v-1.27h-1.234v1.27Zm-2.455-20.222h1.235v-1.27h-1.235v1.27Zm-2.454-2.524h1.235v-1.27h-1.235v1.27Zm2.454 7.587h1.235v-1.27h-1.235v1.27Zm2.455 12.65h1.234v-1.27h-1.234v1.27Zm-2.455-7.587h1.235v-1.27h-1.235v1.27Zm0 10.111h1.235v-1.27h-1.235v1.27Zm0-5.063h1.235v-1.27h-1.235v1.27Zm-7.376-12.65h1.234v-1.27h-1.234v1.27Zm-2.454 2.524h1.234v-1.27h-1.234v1.27Zm0-5.063h1.234V21.96h-1.234v1.27Zm2.454 20.222h1.234v-1.269h-1.234v1.27Zm0-5.062h1.234v-1.27h-1.234v1.27Zm0 2.524h1.234v-1.27h-1.234v1.27Zm-2.454 0h1.234v-1.27h-1.234v1.27Zm0-2.524h1.234v-1.27h-1.234v1.27Zm0-5.063h1.234v-1.27h-1.234v1.27Zm2.454-12.65h1.234v-1.27h-1.234v1.27Zm0 2.524h1.234v-1.27h-1.234v1.27Zm2.454 15.174h1.234v-1.27h-1.234v1.27Zm0 5.063h1.234v-1.27h-1.234v1.27Zm-4.923 0h1.234v-1.27h-1.234v1.27Zm2.454-12.65h1.235v-1.27h-1.235v1.27Zm0 2.524h1.235v-1.27h-1.235v1.27Zm0-5.063h1.235v-1.27h-1.235v1.27Zm0 7.587h1.235v-1.27h-1.235v1.27Zm-63.921 5.063h1.234v-1.27h-1.234v1.27Zm-57.78-2.524v-1.27h-1.234v-1.269h-1.234v1.27h-1.234v1.269h1.234v1.27h1.234v-1.27h1.234Zm-4.922 0v-1.27h-1.234v-1.269h-1.235v1.27h-1.234v1.269h1.234v1.27h1.235v-1.27h1.234Zm12.299-15.174v-1.27h-1.234v1.27h1.234Zm-12.299 15.174v1.27h1.234v-1.27h-1.234Zm-6.143-1.27v-1.269h-1.234v1.27h-1.234v1.269h1.234v1.27h1.234v-1.27h1.235v-1.27h-1.235Zm-12.299-6.317h1.234v-1.27h-1.234v-1.269H334.3v1.27h-1.234v1.269h1.234v1.27h1.234v-1.27Zm-2.454-2.524h1.234v-1.27h-1.234v-1.27h-1.234v1.27h-1.234v1.27h1.234v1.27h1.234v-1.27Zm7.377 7.587h1.234v-1.27h-1.234v-1.27h-1.234v1.27h-1.235v1.27h1.235v1.27h1.234v-1.27Zm-2.454-2.524h1.234v-1.27h-1.234v-1.27h-1.235v1.27h-1.234v1.27h1.234v1.27h1.235v-1.27Zm38.103 5.063v1.269h1.234v-1.27h-1.234Zm-2.454 0v-1.27h-1.234v-1.27h-1.235v1.27h-1.234v1.27h1.234v1.269h1.235v-1.27h1.234Zm0 0v1.269h1.234v-1.27h-1.234Zm-43.026-12.65h1.234v-1.27h-1.234v-1.27h-1.234v1.27h-1.234v1.27h1.234v1.27h1.234v-1.27Zm28.272 12.65v1.269h1.235v-1.27h-1.235Zm9.831 0v1.269h1.235v-1.27h-1.235Zm-4.922 0v-1.27h-1.235v-1.27h-1.234v1.27h-1.234v1.27h1.234v1.269h1.234v-1.27h1.235Zm4.922 0v-1.27h-1.234v-1.27h-1.234v1.27h-1.234v1.27h1.234v1.269h1.234v-1.27h1.234Zm-4.922 0v1.269h1.234v-1.27h-1.234Zm-23.35-13.905v-1.27h-1.234v1.27h1.234Zm18.441 1.27v-1.27h-1.234v1.27h1.234Zm-3.688-1.27v-1.27h-1.234v1.27h1.234Zm0 1.27h1.234v-1.27h-1.234v1.27Zm-20.896 0v1.269h1.235v-1.27h1.234v-1.269h-1.234v-1.27h-1.235v1.27h-1.234v1.27h1.234Zm25.819-1.27v-1.27h-1.235v1.27h1.235Zm3.688-1.27v-1.269h-1.234v1.27h1.234Zm-2.454 0v-1.269h-1.234v1.27h1.234Zm-11.065 2.525h1.234v-1.27h-1.234v1.27Zm3.688 0v-1.27h-1.234v1.27h1.234Zm-13.519 0h1.234v-1.27h-1.234v1.27Zm9.831-1.27v-1.27h-1.234v1.27h1.234Zm-6.143 1.27v-1.27h-1.234v1.27h1.234Zm-4.922 0v-1.27h-1.234v1.27h1.234Zm40.572 12.65h-1.235v1.269h1.235v-1.27Zm-34.415-13.905v-1.27h-1.235v1.27h1.235Zm67.61-1.27v-1.269h-1.234v1.27h1.234Zm-67.61 2.525h1.234v-1.27h-1.234v1.27Zm-2.454 11.38v-1.27h-1.235v1.27h-1.234v1.27h1.234v1.269h1.235v-1.27h1.234v-1.269h-1.234Zm79.909-2.524h-1.234v1.27h1.234v-1.27Zm1.234 3.794h1.234v-1.27h-1.234v1.27Zm-2.454-1.27v1.27h1.234v-1.27h-1.234Zm2.454-2.524v-1.27h-1.234v1.27h1.234Zm1.234 1.27v-1.27h-1.234v1.27h1.234Zm-4.922 0v1.269h1.234v-1.27h-1.234Zm-3.689 1.269v1.27h1.235v-1.27h-1.235Zm-2.454 1.27h1.235v-1.27h-1.235v1.27Zm4.923 0h1.234v-1.27h-1.234v1.27Zm-3.688-2.525v1.27h1.234v-1.27h-1.234Zm1.234-8.856v-1.27h-1.234v1.27h1.234Zm-1.234-1.27v-1.269h-1.235v1.27h1.235Zm7.376 7.587V32.07h-1.234v1.27h1.234Zm-4.922-5.063v-1.269h-1.235v1.27h1.235Zm-3.689-3.793v-1.27h-1.234v1.27h1.234Zm7.377 7.587V30.8h-1.234v1.27h1.234Zm-2.454-2.524v-1.27h-1.234v1.27h1.234Zm1.234 1.27v-1.27h-1.234v1.27h1.234Zm-25.818 8.856v1.27h1.234v-1.27h-1.234Zm-14.754 0v1.27h1.235v-1.27h-1.235Zm18.442 0h1.234v-1.27h-1.234v1.27Zm-8.611 0v1.27h1.234v-1.27h-1.234Zm7.377 1.27h1.234v-1.27h-1.234v1.27Zm-4.923-1.27v1.27h1.235v-1.27h-1.235Zm-9.831 0v1.27h1.235v-1.27h-1.235Zm2.455 0v1.27h1.234v-1.27h-1.234Zm2.454 0v1.27h1.234v-1.27H387.2Zm23.35-3.794v1.27h1.234v-1.27h-1.234Zm-1.235 2.524h1.235v-1.27h-1.235v1.27Zm-2.454-1.27v1.27h1.234v-1.27h-1.234Zm-1.234-1.268v1.269h1.234v-1.27h-1.234Zm6.143 1.269v1.27h1.234v-1.27h-1.234Zm-9.831 0v1.27h1.234v-1.27h-1.234Zm-1.235-1.27v1.27h1.235v-1.27h-1.235Zm-1.234 2.525h1.234v-1.27h-1.234v1.27Zm4.923 0h1.234v-1.27h-1.234v1.27Zm-55.325-12.65v-1.27h-1.235v1.27h1.235Zm31.961 12.65v1.269h1.234v-1.27h-1.234Zm2.454 0v1.269h1.234v-1.27h-1.234Zm4.922 0v1.269h1.234v-1.27h-1.234Zm-2.454 0v1.269h1.234v-1.27h-1.234Zm-4.922-1.27h-1.235v1.27h1.235v-1.27Zm-7.377-2.524h-1.234v1.27h1.234v-1.27Zm1.234 1.27h-1.234v1.269h1.234v-1.27Zm-4.922-1.27v1.27h1.234v-1.27h-1.234Zm36.883 0v1.27h1.234v-1.27h-1.234Zm-29.507 2.524v1.27h1.234v-1.27h-1.234Zm22.13-2.524v1.27h1.234v-1.27h-1.234Zm-30.726-11.38v-1.27h-1.235v1.27h1.235Zm29.506 13.904h1.235v-1.27h-1.235v1.27Zm6.143-2.524v1.27h1.234v-1.27h-1.234Zm-11.065 5.063h1.234v-1.27h-1.234v1.27Zm2.454-3.793v1.269h1.234v-1.27h-1.234Zm-4.923 2.524v1.269h1.235v-1.27h-1.235Zm3.689 0h1.234v-1.27h-1.234v1.27Zm-19.662-1.27v1.27h1.234v-1.27h-1.234Zm-24.584-2.524v1.27h1.234v-1.27h-1.234Zm-1.234 0h-1.235v1.27h1.235v-1.27Zm4.922 1.27v1.269h1.235v-1.27h-1.235Zm0-1.27h-1.234v1.27h1.234v-1.27Zm-4.922 1.27v1.269h1.234v-1.27h-1.234Zm19.661 0v1.269h1.235v-1.27h-1.235Zm-23.35-1.27v-1.27h-1.234v1.27h-1.234v1.27h1.234v1.269h1.234v-1.27h1.235v-1.269h-1.235Zm-2.454-1.27h1.234v-1.269h-1.234v-1.27h-1.234v1.27h-1.234v1.27h1.234v1.27h1.234v-1.27Zm-2.454-2.523h1.234v-1.27h-1.234v-1.27h-1.234v1.27h-1.234v1.27h1.234v1.269h1.234V30.8Zm23.35 5.063v1.269h1.234v-1.27h-1.234Zm-8.611-1.27v1.27h1.234v-1.27h-1.234Zm8.611 0h-1.234v1.27h1.234v-1.27Zm4.923 0h-1.235v1.27h1.235v-1.27Zm-3.689 0v1.27h1.235v-1.27h-1.235Zm-4.922 0v1.27h1.234v-1.27h-1.234Zm-1.235 0h-1.234v1.27h1.234v-1.27Zm0 1.27v1.269h1.235v-1.27h-1.235Zm43.026-1.27v1.27h1.235v-1.27h-1.235Zm-11.065-8.856v-1.27h-1.234v1.27h1.234Zm-2.454-1.27h-1.234v1.27h1.234v-1.27Zm-1.234 2.524v-1.27h-1.234v1.27h1.234Zm4.923 0v-1.27h-1.235v1.27h1.235Zm1.234-2.524h-1.234v1.27h1.234v-1.27Zm-7.377 1.27v-1.27h-1.234v1.27h1.234Zm11.065 1.27v-1.27h-1.234v1.27h1.234Zm1.234-2.525h-1.234v1.27h1.234v-1.27Zm-2.454 1.27v-1.27h-1.234v1.27h1.234Zm-13.519 1.269v-1.27h-1.234v1.27h1.234Zm1.234-2.524h-1.234v1.27h1.234v-1.27Zm-6.142 0v-1.27h-1.234v1.27h1.234Zm-3.688-1.27V21.96h-1.235v1.27h1.235Zm-2.455 0V21.96h-1.234v1.27h1.234Zm3.689 1.27v-1.27h-1.234v1.27h1.234Zm25.818 1.27v-1.27h-1.234v1.27h1.234Zm-20.896-1.27v-1.27h-1.234v1.27h1.234Zm1.235 1.27v-1.27h-1.235v1.27h1.235Zm27.038-1.27h-1.234v1.27h1.234v-1.27Zm6.142 10.11v1.27h1.235v-1.27h-1.235Zm2.454 1.27h1.235v-1.27h-1.235v1.27Zm1.235-2.524v-1.27h-1.235v1.27h1.235Zm-1.235-1.27v-1.269h-1.234v1.27h1.234Zm-1.234 0h-1.234v1.27h1.234v-1.27Zm0-1.269v-1.27h-1.234v1.27h1.234Zm-3.688 5.063h1.234v-1.27h-1.234v1.27Zm1.234-2.524v1.27h1.234v-1.27h-1.234Zm-3.688 1.27v1.269h1.234v-1.27h-1.234Zm-2.454-7.587v-1.27h-1.235v1.27h1.235Zm-1.235-1.27v-1.27h-1.234v1.27h1.234Zm-2.454-1.27h-1.234v1.27h1.234v-1.27Zm-1.234 2.525v-1.27h-1.234v1.27h1.234Zm8.611-1.27v-1.269h-1.234v1.27h1.234Zm2.454 2.524v-1.269h-1.234v1.27h1.234Zm-1.234-1.269v-1.27h-1.234v1.27h1.234Zm2.454 2.524v-1.27h-1.234v1.27h1.234Zm-55.325 11.38v1.27h1.234v-1.27h-1.234Zm63.922-12.65v-1.269H421.6v1.27h1.235Zm-3.689-3.793v-1.27h-1.234v1.27h1.234Zm4.923 5.063v-1.27h-1.234v1.27h1.234Zm-3.689-3.793v-1.27h-1.234v1.27h1.234Zm1.235 1.27v-1.27h-1.235v1.27h1.235Zm6.142 6.317v-1.27h-1.234v1.27h1.234Zm1.234 1.27v-1.27h-1.234v1.27h1.234Zm1.235 1.269v-1.27h-1.235v1.27h1.235Zm-4.923-5.063v-1.27h-1.234v1.27h1.234Zm1.234 1.269V30.8h-1.234v1.27h1.234Zm-14.753-10.111v-1.27h-1.234v1.27h1.234Zm-3.689-2.524h-1.234v1.27h1.234v-1.27Zm2.455 1.27v-1.27h-1.235v1.27h1.235Zm-3.689 1.269v-1.27h-1.234v1.27h1.234Zm9.831 0v-1.27h-1.234v1.27h1.234Zm-3.688-2.524h-1.234v1.27h1.234v-1.27Zm-7.377 1.27v-1.27h-1.234v1.27h1.234Zm9.831 0v-1.27h-1.234v1.27h1.234Zm2.454 2.523v-1.27h-1.234v1.27h1.234Zm0 15.174v1.27h1.234v-1.27h-1.234Zm3.688 2.524h1.235v-1.27H421.6v1.27Zm-83.597-12.65h1.234v-1.27h-1.234v-1.269h-1.235v1.27h-1.234v1.27h1.234v1.269h1.235v-1.27Zm81.129 11.38v1.27h1.234v-1.27h-1.234Zm-4.923 0v1.27h1.234v-1.27h-1.234Zm-2.454 0v1.27h1.234v-1.27h-1.234Zm-4.922 0v1.27h1.234v-1.27h-1.234Zm2.454 0v1.27h1.234v-1.27h-1.234Zm19.661 0v1.27h1.235v-1.27h-1.235Zm1.235-2.523h-1.235v1.27h1.235v-1.27Zm1.234 3.793h1.234v-1.27h-1.234v1.27Zm0-3.793v-1.27h-1.234v1.27h1.234Zm1.234 1.27v-1.27h-1.234v1.27h1.234Zm-6.143 2.523h1.235v-1.27h-1.235v1.27Zm-2.454-1.27v1.27h1.235v-1.27h-1.235Zm3.689-1.269v1.27h1.234v-1.27h-1.234Zm-4.923 0v1.27h1.234v-1.27h-1.234Zm-51.637-17.698v-1.27h-1.234v1.27h1.234Zm-14.753 0v-1.27h-1.234v1.27h1.234Zm4.923 0v-1.27h-1.235v1.27h1.235Zm-2.455 0v-1.27h-1.234v1.27h1.234Zm44.261-1.27h-1.235v1.27h1.235v-1.27Zm-36.884 1.27v-1.27h-1.234v1.27h1.234Zm2.454 0v-1.27h-1.234v1.27h1.234Zm4.923 0v-1.27h-1.234v1.27h1.234Zm30.726 18.968v1.27h1.235v-1.27h-1.235Zm-52.856-18.968v-1.27h-1.234v1.27h1.234Zm12.299 0v-1.27h-1.234v1.27h1.234Zm-14.753 0v-1.27h-1.235v1.27h1.235Zm-9.831 0v-1.27h-1.234v1.27h1.234Zm-2.454 0v-1.27h-1.234v1.27h1.234Zm-7.377 0v1.27h1.234v-1.27h1.235v-1.27h-1.235v-1.268h-1.234v1.269h-1.234v1.27h1.234Zm4.923 0v-1.27h-1.235v1.27h1.235Zm7.376 0v-1.27h-1.234v1.27h1.234Zm4.923 0v-1.27h-1.234v1.27h1.234Zm-2.454 0v-1.27h-1.234v1.27h1.234Zm9.831 0v-1.27h-1.235v1.27h1.235Zm41.791 0v-1.27h-1.234v1.27h1.234Zm-4.922 0v-1.27h-1.235v1.27h1.235Zm1.234 1.27v-1.27h-1.234v1.27h1.234Zm4.922 0v-1.27h-1.234v1.27h1.234Zm13.52 0h-1.235v1.27h1.235v-1.27Zm-8.611 0v-1.27h-1.235v1.27h1.235Zm-3.689-2.524h-1.234v1.27h1.234v-1.27Zm2.454 1.27v-1.27h-1.234v1.27h1.234Zm-13.519 1.268V20.72h-1.234v1.27h1.234Zm-6.142-1.269v-1.27h-1.234v1.27h1.234Zm7.377-1.27h-1.235v1.27h1.235v-1.27Zm-11.065 2.525v-1.27h-1.235v1.27h1.235Zm4.922 0v-1.27h-1.234v1.27h1.234Zm-3.688-2.524h-1.234v1.27h1.234v-1.27Zm-2.454 1.27v-1.27H374.9v1.27h1.235Zm9.83 0v-1.27h-1.234v1.27h1.234Zm-2.454-1.27h-1.234v1.27h1.234v-1.27Zm9.831 0h-1.234v1.27h1.234v-1.27Zm-33.195 2.524v-1.27h-1.234v1.27h1.234Zm-4.922 0v1.27h1.234v1.269h1.234v-1.27h1.234v-1.27h-1.234v-1.269h-1.234v1.27h-1.234Zm-4.923 0v1.27h1.234v1.269h1.234v-1.27h1.235v-1.27h-1.235v-1.269h-1.234v1.27h-1.234Zm12.299 0v-1.27h-1.234v1.27h1.234Zm12.299 0v-1.27h-1.234v1.27h1.234Zm-4.922 0v-1.27h-1.234v1.27h1.234Zm-4.923 0v-1.27h-1.234v1.27h1.234Zm7.377 0v-1.27h-1.234v1.27h1.234Zm-4.923 0v-1.27h-1.234v1.27h1.234Zm-12.299 0v-1.27h-1.234v1.27h1.234Zm-19.661 0v-1.27h-1.235v1.27h1.235Zm0 0v1.27h1.234v1.269h1.234v-1.27h1.234v-1.27h-1.234v-1.269h-1.234v1.27h-1.234Zm4.922 0v-1.27h-1.234v1.27h1.234Zm9.831 0v-1.27h-1.234v1.27h1.234Zm-18.442 1.27v1.269h1.234v-1.27h1.235v-1.27h-1.235v-1.269h-1.234v1.27h-1.234v1.27h1.234Zm13.519-1.27v1.27h1.235v1.269h1.234v-1.27h1.234v-1.27h-1.234v-1.269h-1.234v1.27h-1.235Zm-4.922 0v1.27h1.234v1.269h1.234v-1.27h1.234v-1.27h-1.234v-1.269h-1.234v1.27h-1.234Zm4.922 0v-1.27h-1.234v1.27h1.234Zm54.091 2.524v-1.27h-1.234v1.27h1.234Zm-1.234-1.27V21.96h-1.234v1.27h1.234Zm4.923 0V21.96h-1.235v1.27h1.235Zm1.234 1.27v-1.27h-1.234v1.27h1.234Zm-77.441-1.27v1.27h1.234v-1.27h1.235V21.96h-1.235v-1.27h-1.234v1.27h-1.234v1.27h1.234Zm73.752-1.269h-1.234v1.27h1.234v-1.27Zm4.923 0h-1.234v1.27h1.234v-1.27Zm3.688 2.524v-1.27h-1.234v1.27h1.234Zm-1.234-1.27v-1.269h-1.234v1.27h1.234Zm-17.207 0v-1.269h-1.235v1.27h1.235Zm-7.377 0v-1.269h-1.234v1.27h1.234Zm-2.454 0v-1.269h-1.234v1.27h1.234Zm4.922 0v-1.269h-1.234v1.27h1.234Zm-7.376 0v-1.269h-1.234v1.27h1.234Zm14.753 0v-1.269h-1.234v1.27h1.234Zm2.454 0v-1.269h-1.234v1.27h1.234Zm-7.376 0v-1.269h-1.235v1.27h1.235Zm-12.3 0v-1.269h-1.234v1.27h1.234Zm-11.065 16.444v1.27h1.235v-1.27h-1.235Zm9.831 0v1.27h1.234v-1.27h-1.234Zm-1.234 1.27v1.269h1.234v-1.27h-1.234Zm4.922-1.27h-1.234v1.27h1.234v-1.27Zm2.455 1.27v1.269h1.234v-1.27h-1.234Zm-2.455 0v1.269h1.235v-1.27h-1.235Zm-4.922-1.27h-1.234v1.27h1.234v-1.27Zm-4.923 0h-1.234v1.27h1.234v-1.27Zm0 1.27v1.269h1.235v-1.27h-1.235Zm1.235-1.27v1.27h1.234v-1.27h-1.234Zm23.349 1.27v1.269h1.235v-1.27h-1.235Zm-70.064-17.699h1.235V21.96h-1.235v-1.27h-1.234v1.27h-1.234v1.27h1.234v1.269h1.234v-1.27Zm74.987 18.968h1.234v-1.27h-1.234v1.27Zm3.688-2.524v1.27h1.235v-1.27h-1.235Zm-2.454 0v1.27h1.234v-1.27h-1.234Zm-13.519 1.27v1.269h1.234v-1.27h-1.234Zm-2.454 0v1.269h1.234v-1.27h-1.234Zm4.923 0v1.269h1.234v-1.27h-1.234Zm2.454 0v1.269h1.234v-1.27h-1.234Zm4.922 0v1.269h1.234v-1.27h-1.234Zm-57.779-2.525h1.234v-1.27h-1.234v-1.269h-1.234v1.27h-1.234v1.27h1.234v1.269h1.234v-1.27Zm25.818 2.524v1.27h1.235v-1.27h-1.235Zm-18.441-1.27v-1.269h-1.235v1.27h-1.234v1.27h1.234v1.269h1.235v-1.27h1.234v-1.27h-1.234Zm-4.923 0v-1.269h-1.234v1.27h-1.234v1.27h1.234v1.269h1.234v-1.27h1.234v-1.27h-1.234Zm-4.922-3.793h1.234v-1.27h-1.234V33.34h-1.235v1.27h-1.234v1.27h1.234v1.269h1.235v-1.27Zm-4.923-5.063h1.234v-1.27h-1.234v-1.269h-1.234v1.27h-1.234v1.27h1.234v1.269h1.234v-1.27Zm-4.923-5.063h1.235v-1.269h-1.235v-1.27h-1.234v1.27h-1.234v1.27h1.234v1.269h1.234v-1.27Zm2.455 2.524h1.234v-1.269h-1.234v-1.27h-1.235v1.27h-1.234v1.27h1.234v1.269h1.235v-1.27Zm4.922 5.063h1.234V32.07h-1.234V30.8h-1.234v1.27h-1.234v1.27h1.234v1.269h1.234v-1.27Zm25.818 6.318h-1.234v1.27h1.234v-1.27Zm1.235 0v1.27h1.234v-1.27h-1.234ZM324.484 20.69v1.269h1.234v-1.27h1.234V19.42h-1.234v-1.27h-1.234v1.27h-1.235v1.27h1.235Zm39.337 18.967h-1.234v1.27h1.234v-1.27Zm-9.831 1.27v1.269h1.235v-1.27h-1.235Zm1.235-1.27v1.27h1.234v-1.27h-1.234Zm-1.235 0h-1.234v1.27h1.234v-1.27Zm-3.688 0v-1.27h-1.234v1.27h-1.235v1.27h1.235v1.269h1.234v-1.27h1.234v-1.269h-1.234Z"/></g><path fill="#0A1133" d="M162.611 213.64h1.875v4.687h-3.75v-.937h2.813v-2.813h-.938v-.937Zm-2.812-2.813h.937v6.563h-.937v-6.563Zm.937-.937h2.813v.937h-2.813v-.937Zm2.813.937h.937v.938h-.937v-.938Zm6.562 1.875h.938v4.688h-.938v-4.688Zm-2.812 4.688h2.812v.937h-2.812v-.937Zm-.938-4.688h.938v4.688h-.938v-4.688Zm.938-.937h2.812v.937h-2.812v-.937Zm9.375.937h.937v4.688h-.937v-4.688Zm-2.813 4.688h2.813v.937h-2.813v-.937Zm-.937-4.688h.937v4.688h-.937v-4.688Zm.937-.937h2.813v.937h-2.813v-.937Zm5.625 6.562h.938v.938h-.938v-.938Zm.938.938h2.812v.937h-2.812v-.937Zm0-7.5h3.75v7.5h-.938v-1.875h-2.812v-.938h2.812v-3.75h-2.812v-.937Zm-.938.937h.938v3.75h-.938v-3.75Zm7.5-2.812h.938v7.5h-.938v-7.5Zm.938 7.5h.937v.937h-.937v-.937Zm6.562-.938h.938v.938h-.938v-.938Zm-2.812.938h2.812v.937h-2.812v-.937Zm-.938-4.688h.938v1.875h2.812v-1.875h.938v2.813h-3.75v1.875h-.938v-4.688Zm.938-.937h2.812v.937h-2.812v-.937Zm9.375-1.875h4.687v.937h-3.75v2.813h1.875v.937h-1.875v2.813h3.75v.937h-4.687v-8.437Zm10.312 0h.938v7.5h-.938v-7.5Zm-2.812 7.5h2.812v.937h-2.812v-.937Zm-.938-7.5h.938v7.5h-.938v-7.5Zm6.563 0h3.75v.937h-2.813v2.813h2.813v.937h-.938v.938h-.937v-.938h-.938v3.75h-.937v-8.437Zm3.75.937h.937v2.813h-.937v-2.813Zm-.938 4.688h.938v.937h-.938v-.937Zm.938.937h.937v1.875h-.937v-1.875Zm2.812-6.562h4.688v.937h-3.75v2.813h1.875v.937h-1.875v3.75h-.938v-8.437Zm10.313 0h4.687v.937h-3.75v2.813h1.875v.937h-1.875v2.813h3.75v.937h-4.687v-8.437Zm10.312 1.875h.938v5.625h-.938v-5.625Zm-2.812 5.625h2.812v.937h-2.812v-.937Zm-.938-5.625h.938v5.625h-.938v-5.625Zm9.375 0h1.875v.937h-1.875v-.937Zm-.937.937h.937v.938h-.937v-.938Zm-1.875-.937h.937v1.875h.938v.937h-.938v3.75h-.937v-6.562Zm10.312.937h.938v4.688h-.938v-4.688Zm-2.812 4.688h2.812v.937h-2.812v-.937Zm-.938-4.688h.938v4.688h-.938v-4.688Zm.938-.937h2.812v.937h-2.812v-.937Zm9.375.937h.937v4.688h-.937v-4.688Zm-3.75-.937h3.75v.937h-2.813v4.688h2.813v.937h-2.813v1.875h-.937v-8.437Zm6.562.937h.938v.938h-.938v-.938Zm0 2.813h.938v1.875h-.938v-1.875Zm3.75-2.813h.938v5.625h-3.75v-.937h2.812v-1.875h-2.812v-.938h2.812v-1.875Zm-2.812-.937h2.812v.937h-2.812v-.937Zm5.625.937h.937v.938h-.937v-.938Zm0 2.813h.937v1.875h-.937v-1.875Zm3.75-2.813h.937v5.625h-3.75v-.937h2.813v-1.875h-2.813v-.938h2.813v-1.875Zm-2.813-.937h2.813v.937h-2.813v-.937Zm6.563-1.875h.937v7.5h-.937v-7.5Zm.937 7.5h.938v.937h-.938v-.937Zm3.75-7.5h.938v7.5h-.938v-7.5Zm.938 7.5h.937v.937h-.937v-.937Zm6.562-.938h.938v.938h-.938v-.938Zm-2.812.938h2.812v.937h-2.812v-.937Zm-.938-4.688h.938v1.875h2.812v-1.875h.938v2.813h-3.75v1.875h-.938v-4.688Zm.938-.937h2.812v.937h-2.812v-.937Zm9.375 4.687h.937v.938h-.937v-.938Zm-2.813.938h2.813v.937h-2.813v-.937Zm-.937-4.688h.937v1.875h2.813v-1.875h.937v2.813h-3.75v1.875h-.937v-4.688Zm.937-.937h2.813v.937h-2.813v-.937Zm9.375 4.687h.938v.938h-.938v-.938Zm.938.938h2.812v.937h-2.812v-.937Zm2.812-2.813h.938v2.813h-.938v-2.813Zm-1.875-.937h1.875v.937h-1.875v-.937Zm1.875-2.813h.938v2.813h-.938v-2.813Zm-2.812-.937h2.812v.937h-2.812v-.937Zm-.938.937h.938v.938h-.938v-.938Zm10.313 3.75h.937v2.813h-.937v-2.813Zm-2.813 2.813h2.813v.937h-2.813v-.937Zm-.937-6.563h.937v2.813h2.813v.937h-2.813v2.813h-.937v-6.563Zm.937-.937h2.813v.937h-2.813v-.937Zm2.813.937h.937v.938h-.937v-.938Zm2.812 8.438h.938v.937h-.938v-.937Zm.938-1.875h.937v1.875h-.937v-1.875Zm7.5-6.563h.937v2.813h-.937v-2.813Zm3.75 3.75h.937v2.813h-.937v-2.813Zm-2.813 2.813h2.813v.937h-2.813v-.937Zm-.937-2.813h.937v2.813h-.937v-2.813Zm.937-.937h2.813v.937h-2.813v-.937Zm2.813-2.813h.937v2.813h-.937v-2.813Zm-2.813-.937h2.813v.937h-2.813v-.937Zm6.563 7.5h2.812v.937h-2.812v-.937Zm2.812-6.563h.938v6.563h-.938v-3.75h-.937v-.938h.937v-1.875Zm-1.875 2.813h.938v.937h-.938v-.937Zm-1.875-2.813h.938v3.75h.937v.938h-.937v1.875h-.938v-6.563Zm.938-.937h2.812v.937h-2.812v-.937Zm6.562 7.5h2.813v.937h-2.813v-.937Zm2.813-6.563h.937v6.563h-.937v-3.75h-.938v-.938h.938v-1.875Zm-1.875 2.813h.937v.937h-.937v-.937Zm-1.875-2.813h.937v3.75h.938v.938h-.938v1.875h-.937v-6.563Zm.937-.937h2.813v.937h-2.813v-.937Zm9.375 0h.938v8.437h-.938v-2.812h-3.75v-1.875h.938v.937h2.812v-2.812h-.937v-.938h.937v-.937Zm-2.812 2.812h.937v.938h-.937v-.938Zm.937-.937h.938v.937h-.938v-.937Zm8.438 3.75h.937v1.875h3.75v.937h-4.687v-2.812Zm.937 0v-.938h.938v.938h-.938Zm.938-.938v-.937h.937v.937h-.937Zm.937-.937v-.938h.938v.938h-.938Zm-2.812-3.75h4.687v2.812h-.937v-1.875h-3.75v-.937Zm7.5 0h.937v.937h-.937v-.937Zm1.875 0h.937v.937h-.937v-.937Zm.937 1.875h.938v5.625h-.938v-5.625Zm-2.812 5.625h2.812v.937h-2.812v-.937Zm-.938-5.625h.938v5.625h-.938v-5.625Zm9.375 0h1.875v.937h-1.875v-.937Zm-.937.937h.937v.938h-.937v-.938Zm-1.875-.937h.937v1.875h.938v.937h-.938v3.75h-.937v-6.562Zm7.5 0h.937v6.562h-.937v-6.562Zm0-1.875h.937v.937h-.937v-.937Zm7.5 6.562h.937v.938h-.937v-.938Zm-2.813.938h2.813v.937h-2.813v-.937Zm-.937-4.688h.937v4.688h-.937v-4.688Zm.937-.937h2.813v.937h-2.813v-.937Zm2.813.937h.937v.938h-.937v-.938Zm6.562 0h.938v5.625h-.938v-5.625Zm-3.75-2.812h.938v1.875h2.812v.937h-2.812v5.625h-.938v-8.437Z"/><path fill="#0A1133" fill-rule="evenodd" d="m162.12 118.302 224.035-.001v-1.629H162.12v1.63Zm-3.259 1.63v48.903h1.63v-48.903h-1.63Zm227.294 50.534H162.12v1.629h224.035v-1.629Zm1.629-50.534v48.903h1.63v-48.903h-1.63Zm-227.293-1.63h1.629v1.63h-1.629v-1.63Zm1.629 52.163h-1.629v-1.629h1.629v1.629Zm224.035-52.163h1.629v1.63h-1.629v-1.63Zm1.629 52.163h-1.629v-1.629h1.629v1.629Z" clip-rule="evenodd"/><path fill="#0A1133" d="M163.549 103.976h.937v.937h-.937v-.937Zm-2.813.937h2.813v.938h-2.813v-.938Zm-.937-6.562h.937v6.562h-.937v-6.562Zm.937-.938h2.813v.938h-2.813v-.938Zm2.813.938h.937v.937h-.937v-.937Zm6.562 1.875h.938v4.687h-.938v-4.687Zm-2.812 4.687h2.812v.938h-2.812v-.938Zm-.938-4.687h.938v4.687h-.938v-4.687Zm.938-.938h2.812v.938h-2.812v-.938Zm9.375.938h.937v4.687h-.937v-4.687Zm-3.75-.938h3.75v.938h-2.813v4.687h2.813v.938h-2.813v1.875h-.937v-8.438Zm6.562 6.563h.938v.937h-.938v-.937Zm.938.937h2.812v.938h-2.812v-.938Zm2.812-7.5h.938v7.5h-.938v-1.875h-2.812v-.937h2.812v-4.688Zm-3.75 0h.938v4.688h-.938v-4.688Zm11.25-.937h.938v.937h1.875v.938h-1.875v4.687h-.938v-4.687h-.937v-.938h.937v-.937Zm.938 6.562h1.875v.938h-1.875v-.938Zm7.5-4.687h.937v5.625h-.937v-5.625Zm-3.75-2.813h.937v1.875h2.813v.938h-2.813v5.625h-.937v-8.438Zm10.312 6.563h.938v.937h-.938v-.937Zm-2.812.937h2.812v.938h-2.812v-.938Zm-.938-4.687h.938v1.875h2.812v-1.875h.938v2.812h-3.75v1.875h-.938v-4.687Zm.938-.938h2.812v.938h-2.812v-.938Zm9.375.938h.937v1.875h-.937v-1.875Zm3.75 2.812h.937v1.875h-.937v-1.875Zm-2.813 1.875h2.813v.938h-2.813v-.938Zm-.937-.937h.937v.937h-.937v-.937Zm.937-1.875h2.813v.937h-2.813v-.937Zm2.813-1.875h.937v.937h-.937v-.937Zm-2.813-.938h2.813v.938h-2.813v-.938Zm9.375 4.688h.938v.937h-.938v-.937Zm-2.812.937h2.812v.938h-2.812v-.938Zm-.938-4.687h.938v1.875h2.812v-1.875h.938v2.812h-3.75v1.875h-.938v-4.687Zm.938-.938h2.812v.938h-2.812v-.938Zm9.375 4.688h.937v.937h-.937v-.937Zm-2.813.937h2.813v.938h-2.813v-.938Zm-.937-4.687h.937v4.687h-.937v-4.687Zm.937-.938h2.813v.938h-2.813v-.938Zm2.813.938h.937v.937h-.937v-.937Zm5.625-.938h1.875v.938h-1.875v-.938Zm-.938.938h.938v.937h-.938v-.937Zm-1.875-.938h.938v1.875h.937v.938h-.937v3.75h-.938v-6.563Zm10.313 4.688h.937v.937h-.937v-.937Zm-2.813.937h2.813v.938h-2.813v-.938Zm-.937-4.687h.937v1.875h2.813v-1.875h.937v2.812h-3.75v1.875h-.937v-4.687Zm.937-.938h2.813v.938h-2.813v-.938Zm6.563-.937h.937v.937h1.875v.938h-1.875v4.687h-.937v-4.687h-.938v-.938h.938v-.937Zm.937 6.562h1.875v.938h-1.875v-.938Zm11.25-.937h.938v.937h-.938v-.937Zm-2.812.937h2.812v.938h-2.812v-.938Zm-.938-4.687h.938v4.687h-.938v-4.687Zm.938-.938h2.812v.938h-2.812v-.938Zm2.812.938h.938v.937h-.938v-.937Zm6.563 0h.937v4.687h-.937v-4.687Zm-2.813 4.687h2.813v.938h-2.813v-.938Zm-.937-4.687h.937v4.687h-.937v-4.687Zm.937-.938h2.813v.938h-2.813v-.938Zm5.625.938h.938v4.687h-.938v-4.687Zm3.75-2.813h.938v8.438h-3.75v-.938h2.812v-4.687h-2.812v-.938h2.812v-1.875Zm6.563 6.563h.937v.937h-.937v-.937Zm-2.813.937h2.813v.938h-2.813v-.938Zm-.937-4.687h.937v1.875h2.813v-1.875h.937v2.812h-3.75v1.875h-.937v-4.687Zm.937-.938h2.813v.938h-2.813v-.938Zm6.563 5.625h.937v.938h-.937v-.938Zm0-5.625h.937v.938h-.937v-.938Z"/><path stroke="#0A1133" stroke-dasharray="5.46 7.28" stroke-width=".815" d="M158.861 198.177h418.742" opacity=".2"/><path fill="#0A1133" d="M501.875 59.648h2.75v11h-1.375v1.375h-5.5v-1.375h-1.375v-1.375h2.75v1.375h2.75v-11Zm4.84 0h2.75v11h2.75v-11h2.75v11h-1.375v1.375h-5.5v-1.375h-1.375v-11Zm10.34 0h2.75v4.125h1.375v1.375h1.375v-5.5h2.75v12.375h-2.75v-4.125h-1.375v-1.375h-1.375v5.5h-2.75V59.648Zm10.34 0h8.25v1.375h-5.5v4.125h2.75v1.375h-2.75v4.125h5.5v1.375h-8.25V59.648Zm11.715 11h2.75v2.75h-1.375v1.375h-2.75v-1.375h1.375v-2.75Zm10.34-11h2.75v12.375h-2.75v-8.25h-1.375v1.375H546.7v-2.75h1.375v-1.375h1.375v-1.375Zm7.59 0h5.5v1.375h1.375v4.125h-1.375v1.375h1.375v4.125h-1.375v1.375h-5.5v-1.375h-1.375v-1.375h2.75v1.375h2.75v-4.125h-2.75v-1.375h2.75v-4.125h-2.75v1.375h-2.75v-1.375h1.375v-1.375ZM495.938 121.562h4.687v.938h-1.875v7.5h-.938v-7.5h-1.874v-.938Zm10.312 2.813h.938V130h-.938v-5.625Zm-3.75-2.813h.938v1.876h2.812v.937h-2.812V130h-.938v-8.438Zm10.312 1.876h.938v5.624h-.938v-5.624ZM510 129.062h2.812V130H510v-.938Zm-.938-5.624H510v5.624h-.938v-5.624Zm9.376 0h1.874v.937h-1.874v-.937Zm-.938.937h.938v.937h-.938v-.937Zm-1.875-.937h.937v1.874h.938v.938h-.938V130h-.937v-6.562Zm6.563.937h.937v1.875h-.937v-1.875Zm3.75 2.813h.937v1.874h-.937v-1.874Zm-2.813 1.874h2.813V130h-2.813v-.938Zm-.937-.937h.937v.937h-.937v-.937Zm.937-1.875h2.813v.938h-2.813v-.938Zm2.813-1.875h.937v.937h-.937v-.937Zm-2.813-.937h2.813v.937h-2.813v-.937Zm5.625.937h.938v4.687h-.938v-4.687Zm3.75-2.813h.938V130h-3.75v-.938h2.812v-4.687h-2.812v-.937h2.812v-1.876Zm2.812 2.813h.938v.937h-.938v-.937Zm0 2.813h.938v1.874h-.938v-1.874Zm3.75-2.813H540V130h-3.75v-.938h2.812v-1.874h-2.812v-.938h2.812v-1.875Zm-2.812-.937h2.812v.937h-2.812v-.937Zm5.625 6.562h.937v.938h-.937V130Zm.937.938h2.813v.937h-2.813v-.937Zm2.813-7.5h.937v7.5h-.937v-1.876h-2.813v-.937h2.813v-4.687Zm-3.75 0h.937v4.687h-.937v-4.687Zm-45 18h.937v.937h-.937v-.937Zm1.875-1.876h.938V148h-.938v-6.562h-.938v-.938h.938v-.938Zm3.75 6.563h.938v.937h-.938v-.937Zm.938.937h2.812V148h-2.812v-.938Zm2.812-2.812h.938v2.812h-.938v-2.812Zm-1.875-.938h1.875v.938h-1.875v-.938Zm1.875-2.812h.938v2.812h-.938V140.5Zm-2.812-.938h2.812v.938h-2.812v-.938Zm-.938.938h.938v.938h-.938v-.938Zm14.062-.938h.938v7.5h-.938v-7.5Zm-2.812 7.5h2.812V148h-2.812v-.938Zm-.938-.937h.938v.937h-.938v-.937Zm10.313-4.687h.937v5.624h-.937v-5.624Zm-2.813 5.624h2.813V148h-2.813v-.938Zm-.937-5.624h.937v5.624h-.937v-5.624Zm10.313.937h.937V148h-.937v-5.625Zm-3.75-.937h3.75v.937h-2.813V148h-.937v-6.562Zm10.312 4.687h.938v.937h-.938v-.937Zm-2.812.937h2.812V148h-2.812v-.938Zm-.938-4.687h.938v1.875h2.812v-1.875h.938v2.813h-3.75v1.874h-.938v-4.687Zm.938-.937h2.812v.937h-2.812v-.937Zm9.374 3.75h.938v1.874h3.75V148h-4.688v-2.812Zm.938 0v-.938h.938v.938h-.938Zm.938-1.876h.937v.938h-.937v-.938Zm.937-.937h.937v.937h-.937v-.937Zm.937-1.875h.938v1.875h-.938V140.5Zm-2.812-.938h2.812v.938h-2.812v-.938Zm-.938.938h.938v.938h-.938v-.938Zm7.5 6.562h2.813V148h-2.813v-.938Zm2.813-6.562h.937v6.562h-.937v-3.75h-.937v-.937h.937V140.5Zm-1.875 2.812h.938v.938h-.938v-.938Zm-1.875-2.812h.937v3.75h.938v.938h-.938v1.874h-.937V140.5Zm.937-.938h2.813v.938h-2.813v-.938Zm5.626 5.626h.937v1.874h3.75V148h-4.687v-2.812Zm.937 0v-.938h.937v.938h-.937Zm.937-1.876h.938v.938h-.938v-.938Zm.938-.937h.938v.937h-.938v-.937Zm.938-1.875h.937v1.875h-.937V140.5Zm-2.813-.938h2.813v.938h-2.813v-.938Zm-.937.938h.937v.938h-.937v-.938Zm10.312-.938h.938V148h-.938v-2.812h-3.75v-1.876h.938v.938h2.812v-2.812h-.938v-.938h.938v-.938Zm-2.812 2.813h.937v.937h-.937v-.937Zm.937-.937h.937v.937h-.937v-.937Zm4.687 7.5H570v.937h-.938v-.937Zm.938-1.876h.938v1.876H570v-1.876ZM495.938 158.5h.937v2.812h-.937V158.5Zm.937-.938h2.813v.938h-2.813v-.938Zm2.813.938h.937v6.562h-.937v-2.812h-2.813v-.938h2.813V158.5Zm-2.813 6.562h2.813V166h-2.813v-.938Zm-.937-.937h.937v.937h-.937v-.937Zm6.562-5.625h.938v3.75h2.812v-3.75h.938v7.5h-.938v-2.812h-2.812V166h-.938v-7.5Zm.938-.938h2.812v.938h-2.812v-.938Zm11.25 0h.937V166h-.937v-5.625h-.938v-.937h.938v-1.876Zm-1.876 2.813h.938v.937h-.938v-.937Zm-.937.937h.937v.938h-.937v-.938Zm-.937-.937h.937v.937h-.937v-.937Zm-1.876-2.813H510v1.876h.938v.937H510V166h-.938v-8.438Zm12.188 3.75H525v.938h-3.75v-.938Zm13.125.938h.937v2.812h-.937v-2.812Zm-2.813 2.812h2.813V166h-2.813v-.938Zm-.937-6.562h.937v2.812h2.813v.938h-2.813v2.812h-.937V158.5Zm.937-.938h2.813v.938h-2.813v-.938Zm2.813.938h.937v.938h-.937v-.938Zm6.563 0h.937v2.812h-.937V158.5Zm-3.75-.938h3.75v.938h-2.813v2.812h2.813v.938h-2.813V166h-.937v-8.438Zm12.187 0h.937V166h-.937v-5.625h-.937v-.937h.937v-1.876Zm-1.875 2.813h.938v.937h-.938v-.937Zm-.938.937h.938v.938h-.938v-.938Zm-.937-.937h.937v.937h-.937v-.937Zm-1.875-2.813h.938v1.876h.937v.937h-.937V166h-.938v-8.438Z"/><path fill="#0A1133" fill-rule="evenodd" d="M39.104 27.831h45.622v-1.63H39.104v1.63Zm-3.258 1.63v181.756h1.629V29.462h-1.63Zm48.88 183.387H39.104v1.63h45.622v-1.63Zm1.629-183.386v181.755h1.63V29.462h-1.63Zm-48.88-1.63h1.63v1.63h-1.63v-1.63Zm1.63 185.015h-1.63v-1.629h1.63v1.629Zm45.62-185.015h1.63v1.63h-1.63v-1.63Zm1.63 185.015h-1.63v-1.629h1.63v1.629Z" clip-rule="evenodd"/><g clip-path="url(#b)"><path fill="#0A1133" d="M80.653 37.612H47.25v1.63h33.402v-1.63ZM80.653 40.873H47.25v.815h33.402v-.815ZM80.55 44.96H47.02v2.94H80.55v-2.94ZM80.553 49.373H47.022v1.47h33.531v-1.47ZM80.553 53.78H47.022v1.468h33.531V53.78ZM80.553 56.721H47.022v1.47h33.531v-1.47ZM80.553 59.657H47.022v1.469h33.531v-1.469ZM80.55 62.593H47.02v1.468H80.55v-1.469ZM80.553 67.005H47.022v1.47h33.531v-1.47ZM80.553 71.418H47.022v1.469h33.531v-1.469ZM80.553 69.94H47.022v1.47h33.531v-1.47ZM80.553 74.353H47.022v2.94h33.531v-2.94ZM80.553 111.094H47.022v1.469h33.531v-1.469ZM80.55 81.702H47.02v1.469H80.55V81.7ZM80.553 91.985H47.022v2.94h33.531v-2.94ZM80.55 96.398H47.02v1.469H80.55v-1.47ZM80.55 100.811H47.02v1.469H80.55v-1.469ZM80.553 105.223H47.022v2.939h33.531v-2.939ZM80.553 109.623H47.022v1.469h33.531v-1.469ZM80.55 115.507H47.02v1.469H80.55v-1.469ZM80.55 118.442H47.02v1.469H80.55v-1.469ZM80.653 123.193H47.25v.814h33.402v-.814ZM80.553 131.674H47.022v1.469h33.531v-1.469Z"/><path fill="#0A1133" d="M80.55 133.139H47.02v1.469H80.55v-1.469ZM80.55 136.081H47.02v1.469H80.55v-1.469ZM80.553 143.429H47.022v2.939h33.531v-2.939ZM80.553 156.66H47.022v2.94h33.531v-2.94ZM80.553 161.067H47.022v1.469h33.531v-1.469ZM80.55 169.879H47.02v1.469H80.55v-1.469ZM80.553 175.763H47.022v2.94h33.531v-2.94ZM80.553 178.705H47.022v1.469h33.531v-1.469ZM80.55 187.518H47.02v1.469H80.55v-1.469ZM80.55 191.924H47.02v1.469H80.55v-1.469ZM80.553 196.337H47.022v1.469h33.531v-1.469ZM80.553 199.272H47.022v2.94h33.531v-2.94Z"/></g><defs><clipPath id="b"><path fill="white" d="M47.251 37.612h29.328v165.455H47.251z"/></clipPath></defs></svg>