<svg xmlns="http://www.w3.org/2000/svg" width="281" height="555" fill="none" viewBox="0 0 281 555"><g clip-path="url(#a)"><path fill="white" fill-rule="evenodd" d="M11.67 8.23H1v.93l.41-.56 10.26-.37Z" clip-rule="evenodd"/><path fill="white" fill-rule="evenodd" d="M280 407V9.16h-11.63V1H11.7v7.23l.88-.03.04.96H1V407h13v4H1v143h19.1c0-5.17 4.02-9.38 8.98-9.38 4.96 0 8.98 4.2 8.98 9.38h9.9c0-5.17 4.02-9.38 8.98-9.38 4.96 0 8.98 4.2 8.98 9.38h9.9c0-5.17 4.02-9.38 8.98-9.38 4.96 0 8.98 4.2 8.98 9.38h9.9c0-5.17 4.02-9.38 8.98-9.38 4.96 0 8.98 4.2 8.98 9.38h9.9c0-5.17 4.02-9.38 8.98-9.38 4.96 0 8.98 4.2 8.98 9.38h9.9c0-5.17 4.02-9.38 8.98-9.38 4.96 0 8.98 4.2 8.98 9.38h9.9c0-5.17 4.02-9.38 8.98-9.38 4.96 0 8.98 4.2 8.98 9.38h9.9c0-5.17 4.02-9.38 8.98-9.38 4.96 0 8.98 4.2 8.98 9.38h9.9c0-5.17 4.02-9.38 8.98-9.38 4.96 0 8.98 4.2 8.98 9.38h19.1V411h-6.93v-4h6.93-.04Zm-238.73 4H27.63v-4h13.64v4Zm27.27 0H54.9v-4h13.64v4Zm27.27 0H82.17v-4h13.64v4Zm27.27 0h-13.64v-4h13.64v4Zm27.27 0h-13.64v-4h13.64v4Zm27.27 0h-13.64v-4h13.64v4Zm27.27 0h-13.63v-4h13.63v4Zm27.27 0h-13.64v-4h13.64v4Zm27.27 0h-13.64v-4h13.64v4Z" clip-rule="evenodd"/><path fill="white" fill-rule="evenodd" d="M0 555V410h13v-2H0V8.2h11.7V0h257.6v8.2H281V408h-6.93v2H281v145h-21.1v-1c0-4.66-3.62-8.38-7.98-8.38s-7.98 3.71-7.98 8.38v1h-11.9v-1c0-4.66-3.62-8.38-7.98-8.38s-7.98 3.71-7.98 8.38v1h-11.9v-1c0-4.66-3.62-8.38-7.98-8.38s-7.98 3.71-7.98 8.38v1h-11.9v-1c0-4.66-3.62-8.38-7.98-8.38s-7.98 3.71-7.98 8.38v1h-11.9v-1c0-4.66-3.61-8.38-7.98-8.38-4.37 0-7.98 3.71-7.98 8.38v1h-11.9v-1c0-4.66-3.62-8.38-7.98-8.38s-7.98 3.71-7.98 8.38v1h-11.9v-1c0-4.66-3.62-8.38-7.98-8.38s-7.98 3.71-7.98 8.38v1h-11.9v-1c0-4.66-3.62-8.38-7.98-8.38s-7.98 3.71-7.98 8.38v1h-11.9v-1c0-4.66-3.62-8.38-7.98-8.38s-7.98 3.71-7.98 8.38v1H0Zm273.07-144v-4H280V9.2h-11.7V1H12.7v8.2H1V407h13v4H1v143h19.1c0-5.17 4.02-9.38 8.98-9.38 4.96 0 8.98 4.2 8.98 9.38h9.9c0-5.17 4.02-9.38 8.98-9.38 4.96 0 8.98 4.2 8.98 9.38h9.9c0-5.17 4.02-9.38 8.98-9.38 4.96 0 8.98 4.2 8.98 9.38h9.9c0-5.17 4.02-9.38 8.98-9.38 4.96 0 8.98 4.2 8.98 9.38h9.9c0-5.17 4.02-9.38 8.98-9.38 4.96 0 8.98 4.2 8.98 9.38h9.9c0-5.17 4.02-9.38 8.98-9.38 4.96 0 8.98 4.2 8.98 9.38h9.9c0-5.17 4.02-9.38 8.98-9.38 4.96 0 8.98 4.2 8.98 9.38h9.9c0-5.17 4.02-9.38 8.98-9.38 4.96 0 8.98 4.2 8.98 9.38h9.9c0-5.17 4.02-9.38 8.98-9.38 4.96 0 8.98 4.2 8.98 9.38h19.1V411h-6.97Zm-13.64-4v4h-13.64v-4h13.64Zm-12.63 1v2h11.64v-2H246.8Zm-28.27-1h13.64v4h-13.64v-4Zm1 3h11.64v-2h-11.64v2Zm-15.64 0v-2h-11.63v2h11.63Zm-39.9-3h13.64v4h-13.64v-4Zm1 3v-2h11.64v2h-11.64Zm-15.64 0v-2h-11.63v2h11.63Zm-39.9-3h13.64v4h-13.64v-4Zm1 3v-2h11.64v2h-11.64Zm-15.64 0v-2H83.17v2h11.64Zm-39.9-3h13.64v4H54.91v-4Zm1 3v-2h11.64v2H55.91Zm-15.64 0v-2H28.63v2h11.64Zm164.62 1h-13.63v-4h13.63v4Zm-54.54 0h-13.63v-4h13.63v4Zm-54.54 0H82.17v-4h13.64v4Zm-54.54 0H27.63v-4h13.64v4Z" clip-rule="evenodd"/><path fill="#0A1133" fill-rule="evenodd" d="M1 10.16V407h13v4H1v143h19.1c0-5.17 4.02-9.38 8.98-9.38 4.96 0 8.98 4.2 8.98 9.38h9.9c0-5.17 4.02-9.38 8.98-9.38 4.96 0 8.98 4.2 8.98 9.38h9.9c0-5.17 4.02-9.38 8.98-9.38 4.96 0 8.98 4.2 8.98 9.38h9.9c0-5.17 4.02-9.38 8.98-9.38 4.96 0 8.98 4.2 8.98 9.38h9.9c0-5.17 4.02-9.38 8.98-9.38 4.96 0 8.98 4.2 8.98 9.38h9.9c0-5.17 4.02-9.38 8.98-9.38 4.96 0 8.98 4.2 8.98 9.38h9.9c0-5.17 4.02-9.38 8.98-9.38 4.96 0 8.98 4.2 8.98 9.38h9.9c0-5.17 4.02-9.38 8.98-9.38 4.96 0 8.98 4.2 8.98 9.38h9.9c0-5.17 4.02-9.38 8.98-9.38 4.96 0 8.98 4.2 8.98 9.38h19.1V411h-6.93v-4h6.93V9.16h-11.63V1H12.62v8.16H1m1 1V406h13v6H2v141h17.14c.48-5.22 4.71-9.38 9.93-9.38s9.45 4.15 9.93 9.38h7.99c.48-5.22 4.71-9.38 9.93-9.38s9.45 4.15 9.93 9.38h7.99c.48-5.22 4.71-9.38 9.93-9.38s9.45 4.15 9.93 9.38h7.99c.48-5.22 4.71-9.38 9.93-9.38s9.45 4.15 9.93 9.38h7.99c.48-5.22 4.71-9.38 9.93-9.38s9.45 4.15 9.93 9.38h7.99c.48-5.22 4.71-9.38 9.93-9.38s9.45 4.15 9.93 9.38h7.99c.48-5.22 4.71-9.38 9.93-9.38s9.45 4.15 9.93 9.38h7.99c.48-5.22 4.71-9.38 9.93-9.38s9.45 4.15 9.93 9.38h7.99c.48-5.22 4.71-9.38 9.93-9.38s9.45 4.15 9.93 9.38h17.14V412h-6.93v-6h6.93V10.16h-11.63V2H13.62v8.16H2ZM260.43 412h-15.64v-6h15.64v6Zm-27.27-6v6h-15.64v-6h15.64Zm-27.27 0v6h-15.63v-6h15.63Zm-27.27 0v6h-15.64v-6h15.64Zm-27.27 0v6h-15.63v-6h15.63Zm-27.27 0v6h-15.64v-6h15.64Zm-27.27 0v6H81.17v-6h15.64Zm-27.27 0v6H53.9v-6h15.64Zm-27.27 0v6H26.63v-6h15.64Zm217.16 1v4h-13.64v-4h13.64Zm-40.9 0h13.64v4h-13.64v-4Zm-54.54 0h13.64v4h-13.64v-4Zm-54.54 0h13.64v4h-13.64v-4Zm-54.54 0h13.64v4H54.91v-4Zm149.98 4h-13.63v-4h13.63v4Zm-54.54 0h-13.63v-4h13.63v4Zm-54.54 0H82.17v-4h13.64v4Zm-54.54 0H27.63v-4h13.64v4Z" clip-rule="evenodd"/></g><path fill="#0A1133" d="M20 143h1v1h-1v-1Zm-3 1h3v1h-3v-1Zm-1-7h1v7h-1v-7Zm1-1h3v1h-3v-1Zm3 1h1v1h-1v-1Zm7 2h1v5h-1v-5Zm-3 5h3v1h-3v-1Zm-1-5h1v5h-1v-5Zm1-1h3v1h-3v-1Zm10 1h1v5h-1v-5Zm-4-1h4v1h-3v5h3v1h-3v2h-1v-9Zm7 7h1v1h-1v-1Zm1 1h3v1h-3v-1Zm3-8h1v8h-1v-2h-3v-1h3v-5Zm-4 0h1v5h-1v-5Zm12-1h1v1h2v1h-2v5h-1v-5h-1v-1h1v-1Zm1 7h2v1h-2v-1Zm8-5h1v6h-1v-6Zm-4-3h1v2h3v1h-3v6h-1v-9Zm11 7h1v1h-1v-1Zm-3 1h3v1h-3v-1Zm-1-5h1v2h3v-2h1v3h-4v2h-1v-5Zm1-1h3v1h-3v-1Zm10 1h1v2h-1v-2Zm4 3h1v2h-1v-2Zm-3 2h3v1h-3v-1Zm-1-1h1v1h-1v-1Zm1-2h3v1h-3v-1Zm3-2h1v1h-1v-1Zm-3-1h3v1h-3v-1Zm10 5h1v1h-1v-1Zm-3 1h3v1h-3v-1Zm-1-5h1v2h3v-2h1v3h-4v2h-1v-5Zm1-1h3v1h-3v-1Zm10 5h1v1h-1v-1Zm-3 1h3v1h-3v-1Zm-1-5h1v5h-1v-5Zm1-1h3v1h-3v-1Zm3 1h1v1h-1v-1Zm6-1h2v1h-2v-1Zm-1 1h1v1h-1v-1Zm-2-1h1v2h1v1h-1v4h-1v-7Zm11 5h1v1h-1v-1Zm-3 1h3v1h-3v-1Zm-1-5h1v2h3v-2h1v3h-4v2h-1v-5Zm1-1h3v1h-3v-1Zm7-1h1v1h2v1h-2v5h-1v-5h-1v-1h1v-1Zm1 7h2v1h-2v-1Zm12-1h1v1h-1v-1Zm-3 1h3v1h-3v-1Zm-1-5h1v5h-1v-5Zm1-1h3v1h-3v-1Zm3 1h1v1h-1v-1Zm7 0h1v5h-1v-5Zm-3 5h3v1h-3v-1Zm-1-5h1v5h-1v-5Zm1-1h3v1h-3v-1Zm6 1h1v5h-1v-5Zm4-3h1v9h-4v-1h3v-5h-3v-1h3v-2Zm7 7h1v1h-1v-1Zm-3 1h3v1h-3v-1Zm-1-5h1v2h3v-2h1v3h-4v2h-1v-5Zm1-1h3v1h-3v-1Zm7 6h1v1h-1v-1Zm0-6h1v1h-1v-1ZM16 265h1v3h-1v-3Zm4 4h1v3h-1v-3Zm-3 3h3v1h-3v-1Zm-1-1h1v1h-1v-1Zm1-3h3v1h-3v-1Zm3-3h1v1h-1v-1Zm-3-1h3v1h-3v-1Zm6 3h1v1h-1v-1Zm0 3h1v2h-1v-2Zm4-3h1v6h-4v-1h3v-2h-3v-1h3v-2Zm-3-1h3v1h-3v-1Zm7-1h1v1h2v1h-2v5h-1v-5h-1v-1h1v-1Zm1 7h2v1h-2v-1Zm8-6h1v6h-1v-6Zm-3 6h3v1h-3v-1Zm-1-6h1v6h-1v-6Zm10 0h2v1h-2v-1Zm-1 1h1v1h-1v-1Zm-2-1h1v2h1v1h-1v4h-1v-7Zm7 1h1v5h-1v-5Zm4-3h1v9h-4v-1h3v-5h-3v-1h3v-2Zm3 3h1v1h-1v-1Zm0 3h1v2h-1v-2Zm4-3h1v6h-4v-1h3v-2h-3v-1h3v-2Zm-3-1h3v1h-3v-1Zm6 7h1v1h-1v-1Zm1 1h3v1h-3v-1Zm3-8h1v8h-1v-2h-3v-1h3v-5Zm-4 0h1v5h-1v-5Zm7 8h1v1h-1v-1Zm1-2h1v2h-1v-2Zm5-6h1v1h-1v-1Zm2-2h1v9h-1v-7h-1v-1h1v-1Zm4 6h1v2h4v1h-5v-3Zm1 0v-1h1v1h-1Zm1-2h1v1h-1v-1Zm1-1h1v1h-1v-1Zm1-2h1v2h-1v-2Zm-3-1h3v1h-3v-1Zm-1 1h1v1h-1v-1Zm7 0h1v4h3v-4h1v8h-1v-3h-3v3h-1v-8Zm1-1h3v1h-3v-1Zm12 0h1v9h-1v-6h-1v-1h1v-2Zm-2 3h1v1h-1v-1Zm-1 1h1v1h-1v-1Zm-1-1h1v1h-1v-1Zm-2-3h1v2h1v1h-1v6h-1v-9Zm13 4h4v1h-4v-1Zm14 1h1v3h-1v-3Zm-3 3h3v1h-3v-1Zm-1-7h1v3h3v1h-3v3h-1v-7Zm1-1h3v1h-3v-1Zm3 1h1v1h-1v-1Zm7 0h1v3h-1v-3Zm-4-1h4v1h-3v3h3v1h-3v4h-1v-9Zm13 0h1v9h-1v-6h-1v-1h1v-2Zm-2 3h1v1h-1v-1Zm-1 1h1v1h-1v-1Zm-1-1h1v1h-1v-1Zm-2-3h1v2h1v1h-1v6h-1v-9ZM22 283h1v9h-1v-6h-1v-1h1v-2Zm-2 3h1v1h-1v-1Zm-1 1h1v1h-1v-1Zm-1-1h1v1h-1v-1Zm-2-3h1v2h1v1h-1v6h-1v-9Zm9 3h1v1h-1v-1Zm0 3h1v2h-1v-2Zm4-3h1v6h-4v-1h3v-2h-3v-1h3v-2Zm-3-1h3v1h-3v-1Zm7 0h1v7h-1v-7Zm0-2h1v1h-1v-1Zm8 3h1v6h-1v-6Zm-4-1h4v1h-3v6h-1v-7Zm11-2h1v4h3v-4h1v9h-1v-4h-3v4h-1v-9Zm7 3h1v1h-1v-1Zm0 3h1v2h-1v-2Zm4-3h1v6h-4v-1h3v-2h-3v-1h3v-2Zm-3-1h3v1h-3v-1Zm7-2h1v8h-1v-8Zm1 8h1v1h-1v-1Zm4-8h1v8h-1v-8Zm1 8h1v1h-1v-1Zm9-6h1v2h2v1h-2v2h-1v-2h-2v-1h2v-2Zm13-1h1v3h-1v-3Zm0 4h1v3h-1v-3Zm-4-5h4v1h-3v3h3v1h-3v3h3v1h-4v-9Zm11 3h1v5h-1v-5Zm-3 5h3v1h-3v-1Zm-1-5h1v5h-1v-5Zm1-1h3v1h-3v-1Zm10 1h1v6h-1v-6Zm-4-1h4v1h-3v6h-1v-7Zm11 0h1v6h-1v-6Zm-3 6h3v1h-3v-1Zm-1-6h1v6h-1v-6Zm7 1h1v2h-1v-2Zm4 3h1v2h-1v-2Zm-3 2h3v1h-3v-1Zm-1-1h1v1h-1v-1Zm1-2h3v1h-3v-1Zm3-2h1v1h-1v-1Zm-3-1h3v1h-3v-1Zm14-2h1v7h-1v-7Zm-1 7h1v1h-1v-1Zm-1 1h1v1h-1v-1Zm-1-1h1v1h-1v-1Zm-1-7h1v7h-1v-7Zm8 0h1v9h-1v-9Zm8 1h1v3h-1v-3Zm-4-1h4v1h-3v3h3v1h-3v4h-1v-9Zm14 4h2v5h-4v-1h3v-3h-1v-1Zm-3-3h1v7h-1v-7Zm1-1h3v1h-3v-1Zm3 1h1v1h-1v-1Zm7 1h1v6h-1v-6Zm-3 6h3v1h-3v-1Zm-1-6h1v6h-1v-6Zm11 5h1v1h-1v-1Zm-3 1h3v1h-3v-1Zm-1-5h1v2h3v-2h1v3h-4v2h-1v-5Zm1-1h3v1h-3v-1Zm6 1h1v2h-1v-2Zm4 3h1v2h-1v-2Zm-3 2h3v1h-3v-1Zm-1-1h1v1h-1v-1Zm1-2h3v1h-3v-1Zm3-2h1v1h-1v-1Zm-3-1h3v1h-3v-1Zm7-1h1v1h2v1h-2v5h-1v-5h-1v-1h1v-1Zm1 7h2v1h-2v-1ZM16 336h1v2h4v1h-5v-3Zm1 0v-1h1v1h-1Zm1-1v-1h1v1h-1Zm1-1v-1h1v1h-1Zm-3-4h5v3h-1v-2h-4v-1Zm8 0h1v1h-1v-1Zm2 0h1v1h-1v-1Zm1 2h1v6h-1v-6Zm-3 6h3v1h-3v-1Zm-1-6h1v6h-1v-6Zm10 0h2v1h-2v-1Zm-1 1h1v1h-1v-1Zm-2-1h1v2h1v1h-1v4h-1v-7Zm8 0h1v7h-1v-7Zm0-2h1v1h-1v-1Zm8 7h1v1h-1v-1Zm-3 1h3v1h-3v-1Zm-1-5h1v5h-1v-5Zm1-1h3v1h-3v-1Zm3 1h1v1h-1v-1Zm7 0h1v6h-1v-6Zm-4-3h1v2h3v1h-3v6h-1v-9Zm7 10h1v1h-1v-1Zm1-2h1v2h-1v-2Zm12-1h1v1h-1v-1Zm-3 1h3v1h-3v-1Zm-1-7h1v7h-1v-7Zm1-1h3v1h-3v-1Zm3 1h1v1h-1v-1Zm4 1h1v7h-1v-7Zm0-2h1v1h-1v-1Zm5 1h1v1h2v1h-2v5h-1v-5h-1v-1h1v-1Zm1 7h2v1h-2v-1Zm4 1h1v1h-1v-1Zm1 1h3v1h-3v-1Zm3-8h1v8h-1v-2h-3v-1h3v-5Zm-4 0h1v5h-1v-5Zm15 5h1v1h-1v-1Zm-3 1h3v1h-3v-1Zm-1-7h1v7h-1v-7Zm1-1h3v1h-3v-1Zm3 1h1v1h-1v-1Zm7 6h1v1h-1v-1Zm-3 1h3v1h-3v-1Zm-1-5h1v2h3v-2h1v3h-4v2h-1v-5Zm1-1h3v1h-3v-1Zm10 1h1v6h-1v-6Zm-4-1h4v1h-3v6h-1v-7Zm8-1h1v1h2v1h-2v5h-1v-5h-1v-1h1v-1Zm1 7h2v1h-2v-1Zm8-1h1v1h-1v-1Zm-3 1h3v1h-3v-1Zm-1-5h1v2h3v-2h1v3h-4v2h-1v-5Zm1-1h3v1h-3v-1Zm9 0h2v1h-2v-1Zm-1 1h1v1h-1v-1Zm-2-1h1v2h1v1h-1v4h-1v-7Zm11-1h1v3h-1v-3Zm4 4h1v3h-1v-3Zm-3 3h3v1h-3v-1Zm-1-1h1v1h-1v-1Zm1-3h3v1h-3v-1Zm3-3h1v1h-1v-1Zm-3-1h3v1h-3v-1Zm7 1h1v1h2v1h-2v5h-1v-5h-1v-1h1v-1Zm1 7h2v1h-2v-1Zm8-5h1v5h-1v-5Zm-3 5h3v1h-3v-1Zm-1-5h1v5h-1v-5Zm1-1h3v1h-3v-1Zm10 5h1v1h-1v-1Zm-3 1h3v1h-3v-1Zm-1-5h1v5h-1v-5Zm1-1h3v1h-3v-1Zm3 1h1v1h-1v-1Zm7 5h1v1h-1v-1Zm-1-1h1v1h-1v-1Zm-1-1h1v1h-1v-1Zm-2-6h1v5h1v1h-1v3h-1v-9Zm2 4h1v1h-1v-1Zm1-1h1v1h-1v-1Zm1-1h1v1h-1v-1Zm7 5h1v1h-1v-1Zm-3 1h3v1h-3v-1Zm-1-5h1v2h3v-2h1v3h-4v2h-1v-5Zm1-1h3v1h-3v-1Zm9 0h2v1h-2v-1Zm-1 1h1v1h-1v-1Zm-2-1h1v2h1v1h-1v4h-1v-7Zm11 1h1v6h-1v-6Zm-4-3h1v2h3v1h-3v6h-1v-9Zm11 3h1v5h-1v-5Zm-3 5h3v1h-3v-1Zm-1-5h1v5h-1v-5Zm1-1h3v1h-3v-1Zm7-1h1v2h2v1h-2v5h-1v-5h-1v-1h1v-2Zm1-1h2v1h-2v-1Zm4 10h1v1h-1v-1Zm1-2h1v2h-1v-2Zm-188 9h1v3h-1v-3Zm0 4h1v3h-1v-3Zm-4-5h4v1h-3v3h3v1h-3v3h3v1h-4v-9Zm7 3h1v1h-1v-1Zm0 3h1v2h-1v-2Zm4-3h1v6h-4v-1h3v-2h-3v-1h3v-2Zm-3-1h3v1h-3v-1Zm10 1h1v6h-1v-6Zm-4-3h1v2h3v1h-3v6h-1v-9Zm11 3h1v6h-1v-6Zm-4-1h4v1h-3v6h-1v-7Zm11 1h1v6h-1v-6Zm-4-3h1v2h3v1h-3v6h-1v-9Zm11 3h1v5h-1v-5Zm-3 5h3v1h-3v-1Zm-1-5h1v5h-1v-5Zm1-1h3v1h-3v-1Zm7-1h1v2h2v1h-2v5h-1v-5h-1v-1h1v-2Zm1-1h2v1h-2v-1Zm4 3h1v2h-1v-2Zm4 3h1v2h-1v-2Zm-3 2h3v1h-3v-1Zm-1-1h1v1h-1v-1Zm1-2h3v1h-3v-1Zm3-2h1v1h-1v-1Zm-3-1h3v1h-3v-1Zm7-1h1v1h2v1h-2v5h-1v-5h-1v-1h1v-1Zm1 7h2v1h-2v-1Zm7-6h2v1h-2v-1Zm-1 1h1v1h-1v-1Zm-2-1h1v2h1v1h-1v4h-1v-7Zm7 1h1v1h-1v-1Zm0 3h1v2h-1v-2Zm4-3h1v6h-4v-1h3v-2h-3v-1h3v-2Zm-3-1h3v1h-3v-1Zm6 1h1v2h-1v-2Zm4 3h1v2h-1v-2Zm-3 2h3v1h-3v-1Zm-1-1h1v1h-1v-1Zm1-2h3v1h-3v-1Zm3-2h1v1h-1v-1Zm-3-1h3v1h-3v-1Zm6 1h1v2h-1v-2Zm4 3h1v2h-1v-2Zm-3 2h3v1h-3v-1Zm-1-1h1v1h-1v-1Zm1-2h3v1h-3v-1Zm3-2h1v1h-1v-1Zm-3-1h3v1h-3v-1Zm10 5h1v1h-1v-1Zm-3 1h3v1h-3v-1Zm-1-5h1v2h3v-2h1v3h-4v2h-1v-5Zm1-1h3v1h-3v-1Zm6 8h1v1h-1v-1Zm1-2h1v2h-1v-2Zm9-6h1v1h-1v-1Zm2-2h1v9h-1v-7h-1v-1h1v-1Zm5 8h3v1h-3v-1Zm3-7h1v7h-1v-4h-1v-1h1v-2Zm-2 3h1v1h-1v-1Zm-2-3h1v4h1v1h-1v2h-1v-7Zm1-1h3v1h-3v-1Zm7 8h3v1h-3v-1Zm3-7h1v7h-1v-4h-1v-1h1v-2Zm-2 3h1v1h-1v-1Zm-2-3h1v4h1v1h-1v2h-1v-7Zm1-1h3v1h-3v-1Zm6 10h1v1h-1v-1Zm1-2h1v2h-1v-2Zm10-6h1v2h2v1h-2v2h-1v-2h-2v-1h2v-2Zm9-2h1v9h-1v-3h-4v-2h1v1h3v-3h-1v-1h1v-1Zm-3 3h1v1h-1v-1Zm1-1h1v1h-1v-1Zm5-1h1v3h-1v-3Zm1-1h3v1h-3v-1Zm3 1h1v7h-1v-3h-3v-1h3v-3Zm-3 7h3v1h-3v-1Zm-1-1h1v1h-1v-1Zm8-5h1v1h-1v-1Zm2-2h1v9h-1v-7h-1v-1h1v-1Zm4 6h1v3h-1v-3Zm1-1h1v1h-1v-1Zm1-1h1v1h-1v-1Zm1-1h1v1h-1v-1Zm-3-3h5v3h-1v-2h-4v-1Zm7 6h1v2h4v1h-5v-3Zm1 0v-1h1v1h-1Zm1-2h1v1h-1v-1Zm1-1h1v1h-1v-1Zm1-2h1v2h-1v-2Zm-3-1h3v1h-3v-1Zm-1 1h1v1h-1v-1Zm11 4h1v3h-1v-3Zm-3 3h3v1h-3v-1Zm-1-7h1v3h3v1h-3v3h-1v-7Zm1-1h3v1h-3v-1Zm3 1h1v1h-1v-1Zm3 5h1v3h-1v-3Zm1-1h1v1h-1v-1Zm1-1h1v1h-1v-1Zm1-1h1v1h-1v-1Zm-3-3h5v3h-1v-2h-4v-1Zm11 5h1v3h-1v-3Zm-3 3h3v1h-3v-1Zm-1-7h1v3h3v1h-3v3h-1v-7Zm1-1h3v1h-3v-1Zm3 1h1v1h-1v-1Zm3 6h1v1h-1v-1Zm1 1h3v1h-3v-1Zm3-4h1v4h-1v-4Zm-4-4h5v1h-4v2h3v1h-4v-4Zm11 0h1v9h-1v-3h-4v-2h1v1h3v-3h-1v-1h1v-1Zm-3 3h1v1h-1v-1Zm1-1h1v1h-1v-1Zm6 6h3v1h-3v-1Zm3-7h1v7h-1v-4h-1v-1h1v-2Zm-2 3h1v1h-1v-1Zm-2-3h1v4h1v1h-1v2h-1v-7Zm1-1h3v1h-3v-1Zm7 8h3v1h-3v-1Zm3-7h1v7h-1v-4h-1v-1h1v-2Zm-2 3h1v1h-1v-1Zm-2-3h1v4h1v1h-1v2h-1v-7Zm1-1h3v1h-3v-1Z"/><path stroke="#0A1133" stroke-dasharray="6.55 8.74" d="M15 312h251" opacity=".2"/><path fill="#0A1133" d="M29.45 55.75h2.5v3.75h1.25v-1.25h1.25v-2.5h2.5v2.5H35.7v1.25h-1.25v1.25H33.2V62h1.25v1.25h1.25v1.25h1.25V67h-2.5v-2.5H33.2v-1.25h-1.25V67h-2.5V55.75Zm9.4 0h2.5v10h2.5v-10h2.5v10H45.1V67h-5v-1.25h-1.25v-10Zm9.4 0h6.25V57h1.25v3.75H54.5V62h1.25v3.75H54.5V67h-6.25V55.75Zm5 1.25h-2.5v3.75h2.5V57Zm0 5h-2.5v3.75h2.5V62Zm4.4-6.25h7.5V57h-5v3.75h2.5V62h-2.5v3.75h5V67h-7.5V55.75ZM72.05 57h-2.5v3.75h2.5V57Zm-5-1.25h6.25V57h1.25v3.75H73.3V62h-1.25v1.25h1.25v1.25h1.25V67h-2.5v-2.5H70.8v-1.25h-1.25V67h-2.5V55.75Zm9.4 0h2.5v3.75h1.25v1.25h1.25v-5h2.5V67h-2.5v-3.75H80.2V62h-1.25v5h-2.5V55.75Zm9.4 0h7.5V57h-5v3.75h2.5V62h-2.5v3.75h5V67h-7.5V55.75Zm9.4 0h7.5V57h-2.5v10h-2.5V57h-2.5v-1.25Zm9.4 0h7.5V57h-5v3.75h2.5V62h-2.5v3.75h5V67h-7.5V55.75Zm10.65 0h5V57h1.25v1.25h-2.5V57h-2.5v3.75h3.75V62h1.25v3.75h-1.25V67h-5v-1.25h-1.25V64.5h2.5v1.25h2.5V62h-3.75v-1.25h-1.25V57h1.25v-1.25Zm13.8 0h5V57h1.25v1.25h-2.5V57h-2.5v8.75h2.5V64.5h2.5v1.25h-1.25V67h-5v-1.25h-1.25V57h1.25v-1.25Zm9.4 0h5V57h1.25v8.75h-1.25V67h-5v-1.25h-1.25V57h1.25v-1.25Zm3.75 1.25h-2.5v8.75h2.5V57Zm4.4-1.25h2.5v2.5h1.25v1.25h1.25v-1.25h1.25v-2.5h2.5V67h-2.5v-6.25h-1.25V62h-1.25v-1.25h-1.25V67h-2.5V55.75Zm10.65 0h2.5v2.5h1.25v1.25h1.25v-1.25h1.25v-2.5h2.5V67h-2.5v-6.25h-1.25V62h-1.25v-1.25h-1.25V67h-2.5V55.75Zm10.65 0h2.5v10h2.5v-10h2.5v10h-1.25V67h-5v-1.25h-1.25v-10Zm9.4 0h2.5v3.75h1.25v1.25h1.25v-5h2.5V67h-2.5v-3.75h-1.25V62h-1.25v5h-2.5V55.75Zm10.65 0h2.5V67H188V55.75Zm5.65 0h7.5V57h-2.5v10h-2.5V57h-2.5v-1.25Zm9.4 0h2.5v3.75h2.5v-3.75h2.5v3.75h-1.25v1.25h-1.25V67h-2.5v-6.25h-1.25V59.5h-1.25v-3.75Zm13.8 0h6.25V57h1.25v8.75h-1.25V67h-6.25V55.75Zm5 1.25h-2.5v8.75h2.5V57Zm5.65-1.25h5V57h1.25v10h-2.5v-3.75h-2.5V67h-2.5V57h1.25v-1.25Zm3.75 1.25h-2.5v5h2.5v-5Zm4.4-1.25h2.5v3.75h2.5v-3.75h2.5v3.75h-1.25v1.25h-1.25V67h-2.5v-6.25h-1.25V59.5h-1.25v-3.75Zm10.65 0h5V57h1.25v1.25h-2.5V57h-2.5v3.75h3.75V62h1.25v3.75h-1.25V67h-5v-1.25h-1.25V64.5h2.5v1.25h2.5V62h-3.75v-1.25h-1.25V57h1.25v-1.25ZM115.8 28.75h2.5v10h-1.25V40h-5v-1.25h-1.25V37.5h2.5v1.25h2.5v-10Zm4.4 0h2.5v10h2.5v-10h2.5v10h-1.25V40h-5v-1.25h-1.25v-10Zm9.4 0h2.5v3.75h1.25v1.25h1.25v-5h2.5V40h-2.5v-3.75h-1.25V35h-1.25v5h-2.5V28.75Zm9.4 0h7.5V30h-5v3.75h2.5V35h-2.5v3.75h5V40H139V28.75Zm10.65 10h2.5v2.5h-1.25v1.25h-2.5v-1.25h1.25v-2.5Zm9.4-10h2.5V40h-2.5v-7.5h-1.25v1.25h-1.25v-2.5h1.25V30h1.25v-1.25Zm6.9 0h5V30h1.25v3.75h-1.25V35h1.25v3.75h-1.25V40h-5v-1.25h-1.25V37.5h2.5v1.25h2.5V35h-2.5v-1.25h2.5V30h-2.5v1.25h-2.5V30h1.25v-1.25Z"/><path fill="#0A1133" fill-rule="evenodd" d="M17.39 155.208h246.22V154H17.39v1.208ZM15 156.417v59.17h1.195v-.001 1.208h1.19v-1.208h-1.19v-59.169h1.19v-1.208h-1.19v1.208H15Zm248.61 60.375H17.39V218h246.22v-1.206h1.189v-1.208h-1.189v1.206Zm1.195-60.375v59.17H266v-59.17h-1.195Zm-1.195-1.208h1.189v1.208h-1.189v-1.208ZM17.39 447.208h246.22V446H17.39v1.208ZM15 448.417v59.17h1.195v-.001 1.208h1.19v-1.208h-1.19v-59.169h1.19v-1.208h-1.19v1.208H15Zm248.61 60.375H17.39V510h246.22v-1.206h1.189v-1.208h-1.189v1.206Zm1.195-60.375v59.17H266v-59.17h-1.195Zm-1.195-1.208h1.189v1.208h-1.189v-1.208Z" clip-rule="evenodd"/><g clip-path="url(#b)"><path fill="#0A1133" d="M42.3 455v41h1.931v-41H42.3ZM46.165 455v41h.966v-41h-.966ZM51.013 455.126v41.159h3.485v-41.159h-3.485ZM56.245 455.122v41.159h1.742v-41.159h-1.742ZM61.47 455.122v41.159h1.742v-41.159H61.47ZM64.958 455.122v41.159H66.7v-41.159h-1.742ZM68.44 455.122v41.159h1.741v-41.159H68.44ZM71.92 455.126v41.159h1.741v-41.159H71.92ZM77.151 455.122v41.159h1.742v-41.159h-1.742ZM82.385 455.122v41.159h1.742v-41.159h-1.742ZM80.633 455.122v41.159h1.742v-41.159h-1.742ZM85.865 455.122v41.159h3.485v-41.159h-3.485ZM129.43 455.122v41.159h1.742v-41.159h-1.742ZM94.578 455.126v41.159h1.742v-41.159h-1.742ZM106.772 455.122v41.159h3.486v-41.159h-3.486ZM112.005 455.125v41.16h1.742v-41.16h-1.742ZM117.237 455.126v41.159h1.742v-41.159h-1.742ZM122.469 455.122v41.159h3.486v-41.159h-3.486ZM127.686 455.122v41.159h1.742v-41.159h-1.742ZM134.664 455.125v41.16h1.741v-41.16h-1.741ZM138.144 455.126v41.159h1.741v-41.159h-1.741ZM143.776 455v41h.966v-41h-.966ZM153.833 455.122v41.159h1.742v-41.159h-1.742Z"/><path fill="#0A1133" d="M155.57 455.126v41.159h1.742v-41.159h-1.742ZM159.059 455.126v41.159h1.741v-41.159h-1.741ZM167.771 455.122v41.159h3.486v-41.159h-3.486ZM183.461 455.122v41.159h3.486v-41.159h-3.486ZM188.687 455.122v41.159h1.741v-41.159h-1.741ZM199.136 455.126v41.159h1.742v-41.159h-1.742ZM206.112 455.122v41.159h3.485v-41.159h-3.485ZM209.601 455.122v41.159h1.742v-41.159h-1.742ZM220.05 455.126v41.159h1.742v-41.159h-1.742ZM225.275 455.125v41.16h1.742v-41.16h-1.742ZM230.508 455.122v41.159h1.742v-41.159h-1.742ZM233.989 455.122v41.159h3.485v-41.159h-3.485Z"/></g><path fill="white" d="M16.318 80v20H267V80H16.318Z"/><path fill="#0A1133" d="M15 80.592v.908h251.181v16.683H15v.909h252v-18.5H15Z"/><mask id="c" width="252" height="20" x="15" y="80" maskUnits="userSpaceOnUse" style="mask-type:alpha"><path fill="#D9D9D9" d="m15 81 252-.32V99.1H15V81Z"/></mask><g mask="url(#c)"><path fill="#0A1133" d="M125.906 79.249h-.947v-1.014h.947v1.014Zm53.746 6.059h-.947v1.013h.947v-1.013Zm3.776 3.03v-1.014h-.947v1.013h.947Zm-.947 2.015h.947v-1.014h-.947v1.014Zm13.2-6.059h-.947v1.014h.947v-1.014Zm.947-1.014h-.947v1.014h.947V83.28Zm-26.4 10.102h.947v-1.014h-.947v1.014Zm-57.522-15.147h-.947v1.014h.947v-1.014Zm16.976 0h-.947v1.014h.947v-1.014Zm52.81 9.088V86.31h-.947v1.013h.947Zm-58.469-9.088h-.946v1.014h.946v-1.014Zm69.786 5.045v1.014h.947V83.28h-.947Zm-73.551-5.045h-.947v1.014h.947v-1.014Zm61.298 8.075v-1.014h-.947v1.014h.947Zm-53.746-8.075h-.946v1.014h.946v-1.014Zm72.616 9.088h-.947v1.014h.947v-1.014Zm-83.922-9.088h-.947v1.014h.947v-1.014Zm12.264 21.206h.947v-1.014h-.947v1.014ZM93.881 78.235h-.947v1.014h.947v-1.014Zm3.776 0h-.947v1.014h.947v-1.014Zm78.263 8.075v-1.014h-.947v1.014h.947ZM140.085 99.44h.947v-1.014h-.947v1.014Zm-7.541 0h.947v-1.014h-.947v1.014Zm3.776 0h.947v-1.014h-.947v1.014Zm41.493-13.131v-1.014h-.947v1.014h.947Zm-3.776 0v-1.014h-.947v1.014h.947Zm4.712 1.013V86.31h-.947v1.013h.947Zm-69.786-9.088h-.947v1.014h.947v-1.014Zm-3.776 0h-.947v1.014h.947v-1.014Zm64.127 16.15h.947V93.37h-.947v1.013Zm25.464-9.089h-.947v1.014h.947v-1.014Zm-27.346 8.075v1.013h.947v-1.013h-.947Zm30.175-6.06v1.014h.947v-1.013h-.947Zm-96.185-9.088h-.947v1.014h.947v-1.013Zm95.239 9.089h-.947v1.013h.947v-1.013Zm0-1.014v-1.014h-.947v1.014h.947Zm-14.147-8.075h-.947v1.014h.947v-1.013Zm-10.37 8.075v-1.014h-.947v1.014h.947Zm7.541 2.016V87.3h-.947v1.014h.947Zm-16.029-10.102h-.947v1.013h.947v-1.013Zm-7.541 0h-.947v1.013h.947v-1.013Zm21.687 11.104h.947v-1.014h-.947v1.014Zm-17.911-11.104h-.947v1.013h.947v-1.013Zm-9.435 0h-.947v1.013h.947v-1.013Zm27.346 9.088h-.947v1.014h.947V87.3Zm-23.57-9.088h-.947v1.013h.947v-1.013Zm35.834 1.013v1.014h.947v-1.014h-.947Zm-37.717-1.013h-.946v1.013h.946v-1.013Zm26.4 0h-.947v1.013h.947v-1.013Zm7.541 0h-.947v1.013h.947v-1.013Zm-11.317 0h-.947v1.013h.947v-1.013Zm0 12.117h.947v-1.013h-.947v1.013Zm14.146-11.103h-.946v1.013h.946v-1.014Zm-21.687-1.014h-.947v1.013h.947v-1.013Zm3.776 0h-.947v1.013h.947v-1.013Zm2.829 13.131h.947v-1.014h-.947v1.014Zm1.883-3.03v1.014h.946v-1.013h-.946Zm16.976-9.088h-.947v1.014h.947v-1.014Zm-13.2 9.089v1.013h.947v-1.013h-.947Zm-44.322-10.102h-.947v1.013h.947v-1.013Zm35.834 13.131v1.014h.947v-1.014h-.947ZM139.15 78.212h-.947v1.013h.947v-1.013Zm1.882 0h-.947v1.013h.947v-1.013Zm-3.776 0h-.947v1.013h.947v-1.013Zm44.322 9.088h-.946v1.014h.946V87.3Zm-48.087-9.088h-.947v1.013h.947v-1.013Zm59.405 5.045h-.947v1.013h.947v-1.013Zm-1.883-2.016h-.947v1.014h.947V81.24Zm-44.322-3.03h-.947v1.014h.947v-1.013Zm32.058 12.118h.947v-1.013h-.947v1.013Zm-1.883-1.013v1.013h.947v-1.013h-.947Zm3.777 0v1.013h.946v-1.013h-.946Zm-32.059-11.104h-.946v1.013h.946v-1.013Zm43.376 2.015h-.947v1.014h.947v-1.014Zm.947 2.016V81.23h-.947v1.014h.947ZM144.819 78.2h-.946v1.014h.946V78.2Zm-1.882 0h-.947v1.014h.947V78.2Zm30.175 14.133h.947V91.32h-.947v1.014ZM131.62 78.2h-.947v1.014h.947V78.2Zm72.615 4.043V81.23h-.947v1.014h.947Zm0 4.043v-1.014h-.947v1.014h.947Zm-1.883-5.045h-.947v1.014h.947V81.24Zm-.947 2.016v1.013h.947v-1.013h-.947Zm2.83 0h-.947v1.013h.947v-1.013Zm-.947 1.013h-.947v1.014h.947V84.27Zm-3.776-4.043h-.947v1.014h.947v-1.014Zm1.882-1.013v1.013h.947v-1.013h-.947Zm-60.351 6.058V84.26h-.947v1.013h.947Zm-3.776 0v1.014h.947V87.3h.947v-1.014h.946v-1.014h-.946V84.26h-.947v1.013h-.947Zm66.957-6.058h-.947v1.013h.947v-1.013Zm-.947 1.013h-.947v1.014h.947v-1.014Zm-59.404 19.179h.946v-1.014h-.946v1.014Zm58.468-10.102h-.947v1.013h.947v-1.013Zm-55.639-6.059v-1.014h-.947v1.014h.947Zm50.916-4.043v1.014h.947v-1.014h-.947Zm2.83 0h-.947v1.014h.947v-1.014Zm3.776 11.104v-1.014h-.947v1.014h.947Zm1.882-9.088h-.947v1.013h.947v-1.013Zm-4.712 6.058v1.014h.947v-1.014h-.947Zm.947-2.015h-.947v1.013h.947v-1.013Zm-56.575-1.014v-1.014h-.947v1.014h.947Zm58.469 3.03h-.947v1.013h.947v-1.014ZM144.83 85.26v-1.014h-.946v1.014h.946Zm-3.776 0v1.013h.947v1.014h.947v-1.014h.947v-1.013h-.947v-1.014h-.947v1.014h-.947Zm76.381 6.058h-.947v1.014h.947V91.32Zm0-2.015h-.947v1.013h.947v-1.013Zm-87.698-4.043v1.013h.947v1.014h.947v-1.014h.946v-1.013h-.946v-1.014h-.947v1.014h-.947Zm83.921-6.06h-.946v1.015h.946v-1.014Zm3.777 14.134h-.947v1.014h.947v-1.014Zm0-8.074h-.947v1.013h.947v-1.013Zm0-4.043h-.947v1.013h.947v-1.013Zm0-2.016h-.947v1.014h.947v-1.014Zm0 8.074h-.947v1.014h.947v-1.014Zm0-4.043h-.947v1.014h.947v-1.014Zm-3.777-2.016h-.946v1.014h.946v-1.013Zm0 8.075h-.946v1.014h.946v-1.014Zm-3.776-10.102h-.946v1.014h.946V79.19Zm0 4.043h-.946v1.014h.946v-1.014Zm0-2.016h-.946v1.014h.946v-1.013Zm0 4.044h-.946v1.013h.946v-1.013Zm-72.615 0v-1.014h-.947v1.014h.947Zm-3.776 0v1.013h.947v1.014h.947v-1.014h.946v-1.013h-.946v-1.014h-.947v1.014h-.947Zm0 0v-1.014h-.947v1.014h.947Zm80.156-2.016h-.946v1.014h.946v-1.014Zm0 2.016h-.946v1.013h.946v-1.013Zm-7.541-6.06h-.947v1.015h.947v-1.014Zm7.541 8.075h-.946v1.014h.946v-1.014Zm-10.37 1.014h-.947v1.014h.947V88.29Zm-42.44-2.016v-1.013h-.946v1.013h.946Zm9.435 13.132h.947v-1.014h-.947v1.014Zm-1.883 0h.947v-1.014h-.947v1.014Zm-5.658-13.132v-1.013h-.947v1.013h.947Zm3.776 13.132h.947v-1.014h-.947v1.014Zm5.659 0h.946v-1.014h-.946v1.014Zm-13.2-15.147v-1.014h-.947v1.014h.947ZM181.6 99.406h.947v-1.014h-.947v1.014Zm-21.687-14.134V84.26h-.947v1.013h.947Zm17.911 14.134h.947v-1.014h-.947v1.014Zm-3.776 0h.947v-1.014h-.947v1.014Zm11.317 0h.947v-1.014h-.947v1.014Zm-30.175 0h.947v-1.014h-.947v1.014Zm-3.776 0h.946v-1.014h-.946v1.014Zm5.658-11.104v-1.014h-.946v1.014h.946Zm-9.434 11.104h.946v-1.014h-.946v1.014Zm22.634-13.132v-1.013h-.947v1.013h.947Zm-9.435 13.132h.947v-1.014h-.947v1.014Zm1.883 0h.947v-1.014h-.947v1.014Zm1.882-13.132v-1.013h-.946v1.013h.946Zm-5.658 13.132h.947v-1.014h-.947v1.014Zm7.541-13.132v-1.013h-.947v1.013h.947Zm-1.883 13.132h.947v-1.014h-.947v1.014Zm33.952-14.134h-.947v1.014h.947v-1.014Zm-46.205-2.015v-1.014h-.946v1.014h.946Zm47.152 1.013h-.947v1.014h.947V84.27Zm.947 2.016v-1.014h-.947v1.014h.947Zm-6.606-7.072v1.013h.947v-1.013h-.947Zm-45.258 4.043v-1.014h-.946v1.014h.946Zm51.864 0h-.947v1.013h.947v-1.013Zm0-1.014V81.23h-.947v1.014h.947Zm-1.883-1.014h-.947v1.014h.947V81.23Zm-1.882-2.015h-.947v1.013h.947v-1.013Zm.946 4.043v1.013h.947v-1.013h-.947Zm-47.151 0v-1.014h-.947v1.014h.947Zm38.663 16.149h.947v-1.014h-.947v1.014Zm-32.058-15.147v-1.014h-.946v1.014h.946Zm43.376 15.147h.946v-1.014h-.946v1.014Zm-7.541 0h.946v-1.014h-.946v1.014Zm-38.664-16.15v-1.013h-.947v1.014h.947Zm49.981 16.15h.947v-1.014h-.947v1.014Zm-7.541 0h.946v-1.014h-.946v1.014Zm-.947-19.179h-.947v1.014h.947v-1.014Zm12.264 18.177V97.39h-.947v1.014h.947Zm-11.317-16.15v-1.013h-.947v1.014h.947Zm-41.493 2.016v-1.013h-.947v1.013h.947Zm39.61-3.029h-.947v1.014h.947V81.24Zm-26.399 5.045v-1.014h-.947v1.014h.947ZM144.841 87.3v-1.014h-.946V87.3h.946Zm23.571 6.059h.946v-1.014h-.946v1.014Zm-13.2-5.045v1.013h.947v-1.013h-.947Zm8.488 2.015h-.947v1.014h.947v-1.014Zm-17.912-4.043V87.3h.947v-1.014h.947v-1.014h-.947V84.26h-.947v1.013h-.947v1.014h.947Zm20.741 6.059v1.014h.947v-1.014h-.947Zm15.082-1.014h.947v-1.014h-.947v1.014Zm2.83-2.015v-1.014h-.947v1.014h.947Zm-6.606 4.043h.947v-1.014h-.947v1.014Zm-33.951-5.045V87.3h-.947v1.014h.947Zm41.492 2.015v-1.013h-.946v1.013h.946Zm-14.146-4.043h-.947V87.3h.947v-1.014Zm-5.659 5.045v-1.014h-.947v1.014h.947Zm1.883-5.045h-.947V87.3h.947v-1.014Zm32.058 2.016h-.947v1.014h.947v-1.014Zm-30.176 4.043h.947V91.33h-.947v1.014Zm5.659-6.059h-.947V87.3h.947v-1.014Zm.947 2.016v-1.014h-.947v1.014h.947Zm-26.4-4.043v-1.014h-.947v1.014h.947Zm-1.882 0v-1.014h-.947v1.014h.947Zm22.634 7.072h.947v-1.014h-.947v1.014Zm-16.976-3.03v1.015h.947v-1.014h-.947Zm12.264 3.03v1.014h.947V91.33h-.947Zm-2.829 0h-.947v1.014h.947V91.33Zm0 1.014v1.014h.947v-1.014h-.947Zm-26.4-4.043v1.014h.947v-1.014h-.947Zm3.776 0v-1.014h-.946v1.014h.946Zm-2.829-1.014v-1.014h-.947v1.014h.947Zm3.776 0v-1.014h-.947v1.014h.947Zm32.058 7.073h.947v-1.014h-.947v1.014Zm-6.605-3.03h.947v-1.014h-.947v1.014Zm-29.229-3.03h.947v-1.013h-.947v1.014Zm3.776 0h.947v-1.013h-.947v1.014Zm30.176-4.042h-.947v1.013h.947V84.26Zm-3.776 0h-.947v1.013h.947V84.26Zm16.029 1.013h-.947v1.014h.947v-1.014Zm-8.488-1.013h-.947v1.013h.947V84.26Zm-11.317 0h-.947v1.013h.947V84.26Zm0 7.072v1.014h.946V91.33h-.946Zm-23.571-3.03v1.015h.947v-1.014h-.947Zm45.258-1.013h-.946v1.014h.946v-1.014Zm-55.639-2.016V84.26h-.947v1.013h.947Zm34.887 7.073v1.014h.947v-1.014h-.947Zm13.2-1.014h.947v-1.014h-.947v1.014Zm-21.687-4.043v-1.014h-.947v1.014h.947Zm12.264 5.045V91.32h-.947v1.014h.947Zm-9.435-2.016v1.014h.947v-1.014h-.947Zm9.435-2.015v-1.014h-.947v1.014h.947Zm-6.606 1.014v-1.014h-.947v1.014h.947Zm8.488 1.013v-1.013h-.947v1.013h.947Zm-10.37-1.013v1.013h.946v-1.013h-.946ZM163.7 87.3v-1.014h-.947V87.3h.947Zm-1.883 0v-1.014h-.947V87.3h.947Zm6.606 3.03v-1.014h-.947v1.013h.947Zm-14.147-3.03v1.014h.947V87.3h-.947Zm4.712 2.016h-.947v1.013h.947v-1.013Zm-9.435-3.03V87.3h.947v-1.014h-.947Zm8.488 2.016h-.947v1.014h.947v-1.014Zm7.541 1.014v-1.014h-.947v1.014h.947Zm5.659-1.014h-.947v1.014h.947v-1.014Zm-6.606 0v-1.014h-.946v1.014h.946Zm-15.082-3.03h-.947v1.014h.947v-1.014Zm16.976 2.016h-.947v1.014h.947v-1.014Zm-15.082-1.014v-1.013h-.947v1.013h.947Zm8.488 3.03V88.29h-.947v1.014h.947Zm14.146-2.016h-.947v1.014h.947v-1.014Zm-2.829 3.03h.947v-1.014h-.947v1.013Zm1.882-1.014V88.29h-.946v1.014h.946Zm-.946-1.014v-1.014h-.947v1.014h.947Zm-16.029-3.03v-1.013h-.947v1.014h.947Zm1.882 0v-1.013h-.947v1.014h.947Zm-4.712 2.016h-.947v1.014h.947v-1.014Zm20.741 2.016h.947v-1.014h-.947v1.014Zm-20.741-5.045v-1.014h-.947v1.014h.947Zm.947 1.014v-1.014h-.947v1.014h.947Zm18.858 5.045h.947v-1.014h-.947v1.014Zm-18.858-3.03v-1.013h-.947v1.013h.947Zm5.659 0v-1.013h-.947v1.013h.947Zm2.829 3.03v-1.014h-.947v1.014h.947Zm4.712-2.016h-.947v1.014h.947V88.29Zm-22.635-1.014v1.014h.947v-1.014h-.947Zm24.517 2.016v-1.014h-.946v1.014h.946Zm-10.37-3.03V85.25h-.947v1.014h.947Zm11.317 1.014h-.947v1.014h.947v-1.014Zm-9.435 3.03v1.013h.947v-1.013h-.947Zm-8.488-4.043h-.946v1.013h.946v-1.013Zm-8.487 2.015v1.014h.946v-1.014h-.946Zm7.541-4.043v-1.014h-.947v1.014h.947Zm-3.776 4.043v1.014h.946v-1.014h-.946Zm9.434 4.043v1.014h.947v-1.014h-.947Zm-8.488-5.045v1.014h.947v-1.014h-.947Zm10.371 5.045v1.014h.947v-1.014h-.947Zm1.882-4.043v-1.014h-.946v1.014h.946Zm-2.829-1.014v-1.013h-.947v1.013h.947Zm-6.605 0h-.947v1.014h.947v-1.014Zm-2.83 0v-1.013h-.946v1.013h.946Zm10.371 1.014v-1.014h-.947v1.014h.947Zm2.829 4.043h-.947v1.014h.947v-1.014Zm-14.146-5.045h-.947v1.014h.947v-1.014Zm16.029-7.072h-.947v1.014h.947v-1.014Zm-6.606 11.104h-.946v1.013h.946v-1.013Zm14.147-11.104h-.947v1.014h.947v-1.014Zm16.029 1.014h-.947v1.013h.947v-1.013Zm-33.952 9.088v1.013h.947v-1.013h-.947Zm14.147-10.102h-.947v1.014h.947v-1.014Zm-4.712 8.074v-1.014h-.947v1.014h.947Zm-10.371 0h-.946v1.014h.946v-1.014Zm7.542-8.074h-.947v1.014h.947v-1.014Zm-3.776 10.102h-.947v1.013h.947v-1.013Zm-4.712 0v1.013h.946v-1.013h-.946Zm51.863 2.015h-.947v1.014h.947v-1.014Zm.947-1.013h-.947v1.013h.947v-1.013Zm0 3.029v-1.014h-.947v1.014h.947Zm-1.883-1.014h-.947v1.014h.947v-1.014Zm-53.746-9.088h-.946v1.014h.946v-1.014Zm49.981 5.045h-.947v1.014h.947V89.28Zm1.883 1.014V89.28h-.947v1.014h.947Zm-34.888 3.03v1.013h.947v-1.014h-.947Zm36.781 3.029v-1.014h-.947v1.014h.947Zm-1.882-5.045h-.947v1.013h.947v-1.013Zm.946 0v1.013h.947v-1.013h-.947Zm-39.61 2.015v1.014h.947v-1.014h-.947Zm-6.605-7.072v-1.014h-.947v1.014h.947Zm-2.83-1.014v-1.014h-.946v1.014h.946Zm-1.882 0v-1.014h-.947v1.014h.947Zm6.605 1.014v-1.014h-.946v1.014h.946Zm28.293 11.104h.947V96.34h-.947v1.014Zm16.029-2.016v-1.014h-.946v1.014h.946ZM163.7 93.323v1.014h.946v-1.014h-.946Zm17.911 4.043h.947v-1.013h-.947v1.013Zm-3.776 0h.947v-1.013h-.947v1.013Zm13.2-8.074h-.947v1.014h.947v-1.014Zm-57.522-1.014h-.947v1.014h.947v-1.014Zm26.4 3.03v1.013h.946v-1.013h-.946Zm7.541-9.089h-.947v1.014h.947V82.22Zm-34.888 5.046h-.946v1.013h.946v-1.014Zm20.741-1.014v-1.014h-.947v1.014h.947Zm10.371-4.043h-.947v1.013h.947v-1.013Zm-27.347 8.074v-1.014h-.946v-1.013h-.947v1.013h-.947v1.014h.947v1.014h.947v-1.014h.946Zm0 0v1.014h.947v-1.014h-.947Zm21.688 1.014v1.014h.947v-1.014h-.947Zm8.488-1.014v-1.014h-.947v1.014h.947Zm-8.488 0h-.947v1.014h.947v-1.014Zm23.57 3.03h.947v-1.014h-.947v1.013Zm9.435-1.014v-1.014h-.947v1.014h.947Zm-1.883-9.088h-.946v1.013h.946V83.21Zm0 4.043h-.946v1.013h.946v-1.013Zm.947 4.043v-1.014h-.947v1.014h.947Zm-53.746-3.03v-1.013h-.946v1.013h.946Zm-2.829-1.013v-1.014h-.947v1.014h.947Zm53.746-2.016h-.947v1.014h.947v-1.014Zm-1.883-2.016h-.946v1.014h.946v-1.014Zm-51.863 5.045h.947v-1.013h-.947v1.013Zm37.717-6.058h-.947v1.013h.947v-1.013Zm25.464 9.088h-.947v1.014h.947v-1.014Zm-49.034-1.014v1.014h.946v-1.014h-.946Zm49.034 4.043v-1.014h-.947v1.014h.947Zm-.947-1.014v-1.013h-.947v1.013h.947Zm-10.371 2.016h.947v-1.013h-.947v1.013Zm5.659-10.102h-.947v1.014h.947v-1.014Zm-39.61 5.045v-1.013h-.947v-1.014h-.947v1.014h-.947v1.013h.947v1.014h.947V90.27h.947Zm-3.776 0v-1.013h-.947v-1.014h-.947v1.014h-.947v1.013h.947v1.014h.947V90.27h.947Zm47.151-1.013h-.947v1.013h.947v-1.013Zm-1.882-2.016h-.947v1.014h.947V87.24Zm-49.034 3.03v-1.014h-.947v-1.014h-.947v1.014h-.947v1.013h.947v1.014h.947V90.27h.947Zm19.805-1.014v-1.014h-.947v1.014h.947Zm-6.606 0h-.946v1.013h.946v-1.013Zm-16.976 1.013v1.014h.947V90.27h-.947Zm41.493 5.045h.947v-1.013h-.947v1.013Zm-41.493-5.045v-1.013h-.946v-1.014h-.947v1.014h-.947v1.013h.947v1.014h.947V90.27h.946Zm24.517 0v-1.013h-.946v1.013h.946Zm-12.264-1.013v1.013h.947v-1.013h-.947Zm25.464 6.058h.947v-1.013h-.947v1.013Zm-23.57-6.058v1.013h.947v-1.013h-.947Zm-10.37 1.013v1.014h.946V90.27h-.946Zm87.441 0h.947v-1.013h-.947v1.013Zm-14.837 8.075h.947V97.33h-.947v1.014Zm-1.883-18.177h.947v-1.013h-.947v1.013Zm0 8.075h.947v-1.014h-.947v1.014Zm0-2.016h.947v-1.014h-.947v1.014Zm1.883 9.088v1.014h.947v-1.014h-.947Zm-1.883-13.13h.947V81.17h-.947v1.014Zm0 2.015h.947v-1.014h-.947V84.2Zm3.521-.012h.946v-1.014h-.946v1.014Zm-3.521 6.07h.947v-1.013h-.947v1.014Zm-3.776-8.074h.947V81.17h-.947v1.014Zm0 2.016h.947v-1.014h-.947V84.2Zm0 2.015h.947v-1.013h-.947v1.013Zm.947 4.044v-1.014h-.947v1.014h.947Zm3.776 8.074v-1.014h-.947v1.014h.947Zm-4.712-10.102h.947v-1.014h-.947v1.014Zm3.776 4.043h.947V91.26h-.947v1.014Zm-4.712-3.03h.947v-1.013h-.947v1.014Zm-.946-2.015v1.014h.946v-1.014h-.946Zm0 3.03h.946v-1.014h-.946v1.014Zm4.711 3.029h.947v-1.014h-.947v1.014Zm1.883 1.014v-1.014h-.947v1.014h.947Zm-2.829 4.043h.946V97.33h-.946v1.014Zm0-7.073v1.014h.946v-1.014h-.946Zm0 3.03h.946v-1.014h-.946v1.014Zm1.882 2.015h.947v-1.013h-.947v1.013Zm-.947 1.014h.947v-1.014h-.947v1.014Zm-.946-2.016v1.014h.946v-1.014h-.946Zm-1.883-15.147h.947v-1.013h-.947v1.013Zm7.286 10.09h.946v-1.013h-.946v1.014Zm0-2.015h.946v-1.014h-.946v1.014Zm0 4.043h.946v-1.014h-.946v1.014Zm0-6.059h.946v-1.014h-.946v1.014Zm0 12.118h.946V97.33h-.946v1.014Zm0-2.016h.946v-1.014h-.946v1.014Zm0-2.015h.946V93.3h-.946v1.014Zm-34.632 2.039v1.013h.947v-1.013h-.947Zm2.829 2.015h.947v-1.013h-.947v1.013Zm-1.882-1.013v1.013h.946v-1.013h-.946Zm-3.776 0v1.013h.946v-1.013h-.946Zm1.882 1.013h.947v-1.013h-.947v1.013Zm-6.605-2.015v1.013h.946v-1.013h-.946Zm.946 1.013v1.014h.947v-1.014h-.947Zm1.883 1.014h.947v-1.014h-.947v1.014Zm-3.776 0h.947v-1.014h-.947v1.014Zm22.634 0h.947v-1.014h-.947v1.014Zm-3.776 0h.947v-1.014h-.947v1.014Zm-1.882-1.014v1.014h.947v-1.014h-.947Zm2.829-1.013v1.013h.947v-1.013h-.947Zm-7.541 0v1.013h.947v-1.013h-.947Zm8.488 1.013v1.014h.947v-1.014h-.947Zm-7.541 0v1.014h.946v-1.014h-.946Zm1.882 1.014h.947v-1.014h-.947v1.014Zm.947-2.015v1.013h.947v-1.013h-.947Zm-11.317 0v1.013h.947v-1.013h-.947Zm-36.781 1.013v-1.013h-.947v1.013h-.947v1.014h.947v1.014h.947v-1.014h.947v-1.014h-.947Zm11.317 0v-1.013h-.947v1.013h-.947v1.014h.947v1.014h.947v-1.014h.947v-1.014h-.947Zm-7.541 0v-1.013h-.947v1.013h-.947v1.014h.947v1.014h.947v-1.014h.947v-1.014h-.947Zm3.776 0v-1.013h-.947v1.013h-.947v1.014h.947v1.014h.947v-1.014h.947v-1.014h-.947Zm-11.317 0v-1.013h-.947v1.013h-.947v1.014h.947v1.014h.947v-1.014h.946v-1.014h-.946Zm-10.371 0v1.014h-.947v1.014h-.946v-1.014h-.947v1.014h-.947v-1.014h-.947v1.014h-.946v-1.014h-.947v1.014h-.947v-1.014h-.947v1.014h-.946v-1.014h-.947v1.014h-.947v-1.014h-.947v1.014h-.947v-1.014h-.946v1.014h-.947v-1.014h-.947v1.014h-.947v-1.014h-.946v1.014h-.947v-1.014h-.947v1.014h-.947v-1.014h-.947v1.014h-.946v-1.014h-.947v1.014h-.947v-1.014h-.947v1.014h-.946v-1.014h-.947v1.014h-.947v-1.014h-.947v1.014h-.947v-1.014h-.946v1.014H96.6v-1.014h-.947v1.014h-.947v-1.014h-.946v1.014h-.947v-1.014h-.947v1.014h-.947v-1.014h-.946v1.014h-.947v-1.014h-.947v1.014h-.947v-1.014h-.947v1.014h-.946v-1.014h-.947v1.014h-.947v-1.014h-.947v1.014h-.946v-1.014h-.947v1.014h-.947v-1.014h-.947v1.014h-.947v-1.014h-.946v1.014h-2.83v-1.014h-.946v1.014h-2.83v-1.014h-.946v1.014h-2.83v-1.014h-.947v1.014H62.56v-1.014h-.947v1.014h-2.829v-1.014h-.947v1.014h-2.829v-1.014h-.947v1.014h-2.829v-1.014h-.947v1.014h-2.83v-1.014h-.946v1.014H15v-21.17h12.849v1.013h.947v-1.014h2.829v1.014h.947v-1.014h2.83v1.014h.946v-1.014h2.83v1.014h.946v-1.014h2.83v1.014h.946v-1.014h2.83v1.014h.946v-1.014h2.83v1.014h.946v-1.014h2.83v1.014h.946v-1.014h2.83v1.014h.946v-1.014h.947v1.014h.947v-1.014h.947v1.014h.946v-1.014h.947v1.014h.947v-1.014h.947v1.014h.947v-1.014h.946v1.014h.947v-1.014h.947v1.014h.947v-1.014h.946v1.014h.947v-1.014h.947v1.014h.947v-1.014h2.829v1.014h.947v-1.014h.947v1.014h.946v-1.014h.947v1.014h.947v-1.014h.947v1.014h.946v-1.014h.947v1.014h.947v-1.014h.947v1.014h.947v-1.014h.946v1.014h.947v-1.014h.947v1.014h.947v-1.014h.946v1.014h.947v1.014h-.947v1.013h.947v-1.013h.947v1.013h.947v-1.013h-.947v-1.014h.947v-1.014h.946v1.014h.947v1.014h-.947v1.013h.947v-1.013h.947v1.013h.947v-1.013h-.947v-1.014h.947v-1.014h.947v1.014h.946v1.014h-.947v1.013h.947v-1.013h.947v1.013h.947v-1.013h-.947v-1.014h.947v-1.014h.947v1.014h.946v1.014h-.946v1.013h.946v-1.013h.947v1.013h.947v-1.013h-.947v-1.014h.947v-1.014h.947v1.014h.946v1.014h-.946v1.013h.946v-1.013h.947v1.013h.947v-1.013h-.947v-1.014h.947v-1.014h.947v1.014h.947v1.014h-.947v1.013h.947v-1.013h.946v1.013h.947v1.014h-.947v1.014h-.946V82.29h-.947v1.014h.947v1.014h-.947v1.013h.947v-1.013h.946v1.013h.947v-1.013h-.947v-1.014h.947V82.29h.947v1.014h.947v1.014h-.947v1.013h.947v-1.013h.946v1.013h.947v1.014h-.947v1.014h-.946v-1.014h-.947v1.014h.947v1.014h-.947v1.013h.947v-1.013h.946v1.013h.947v-1.013h-.947v-1.014h.947v-1.014h.947v1.014h.947v1.014h-.947v1.013h.947v-1.013h.946v1.013h.947V90.4h-.947v1.014h-.946V90.4h-.947v1.014h.947v1.013h-.947v1.014h.947v-1.014h.946v1.014h.947v-1.014h-.947v-1.013h.947V90.4h.947v1.014h.947v1.013h-.947v1.014h.947v-1.014h.947v1.014h.946v1.014h-.946v1.014h-.947v-1.014h-.947v1.014h.947v1.013h-.947v1.014h.947v-1.014h.947v1.014h.946v-1.014h-.946V95.47h.946v-1.014h.947v1.014h.947v1.013h-.947v1.014h.947v-1.014h.947v1.014h.946l-.264-.118Zm-96.24-15.1h-.947v1.014h.947v-1.014Zm3.776 4.043h-.947v1.014h.947v-1.013Zm0-4.043h-.947v1.014h.947v-1.014Zm3.776 8.075h-.947v1.014h.947v-1.014Zm0-4.043h-.947v1.013h.947V86.31Zm0-4.043h-.947v1.013h.947v-1.013Zm3.776 12.117h-.947v1.014h.947v-1.014Zm0-4.043h-.947v1.014h.947V90.34Zm0-4.043h-.947v1.014h.947v-1.014Zm0-4.043h-.947v1.014h.947v-1.014Zm3.776 12.117h-.947v1.014h.947v-1.014Zm0-4.043h-.947v1.014h.947v-1.014Zm0-4.043h-.947V87.3h.947v-1.014Zm0-4.043h-.947v1.014h.947v-1.014Zm1.883-2.016h-.947v1.014h.947v-1.014Zm1.882 14.134h-.947v1.013h.947v-1.013Zm0-4.044h-.947v1.014h.947v-1.014Zm0-4.043h-.947v1.014h.947v-1.014Zm0-4.043h-.947v1.014h.947v-1.014Zm1.883 2.016h-.947v1.014h.947v-1.014Zm0-4.043h-.947v1.014h.947v-1.014Zm1.882 14.133h-.947v1.014h.947v-1.014Zm0-4.043h-.947v1.014h.947v-1.014Zm0-4.043h-.947v1.013h.947v-1.013Zm0-4.043h-.947v1.013h.947v-1.013Zm1.883 6.058h-.947v1.014h.947v-1.014Zm0-4.043h-.947v1.014h.947v-1.014Zm0-4.043h-.947v1.014h.947V80.18Zm1.882 14.133h-.947v1.014h.947v-1.013Zm0-4.043h-.947v1.014h.947V90.27Zm0-4.043h-.947v1.014h.947v-1.014Zm0-4.043h-.947v1.014h.947v-1.014Zm1.883 10.102h-.947V93.3h.947v-1.014Zm0-4.043h-.947v1.014h.947v-1.014Zm0-4.043h-.947v1.013h.947V84.2Zm0-4.043h-.947v1.013h.947v-1.013Zm1.882 14.133h-.946v1.014h.946V94.29Zm0-4.043h-.946v1.013h.946v-1.013Zm0-4.043h-.946v1.013h.946v-1.013Zm0-4.043h-.946v1.013h.946V82.16Zm1.883 14.133h-.947v1.014h.947v-1.014Zm0-4.043h-.947v1.013h.947v-1.013Zm0-4.044h-.947v1.014h.947v-1.014Zm0-4.043h-.947v1.014h.947v-1.014Zm0-2.015h-.947v1.013h.947V82.15Zm0-2.016h-.947v1.014h.947v-1.014Zm1.882 14.133h-.946v1.014h.946v-1.014Zm0-4.043h-.946v1.014h.946v-1.014Zm0-4.043h-.946v1.014h.946V86.18Zm0-4.043h-.946v1.014h.946v-1.014Zm1.883 14.133h-.947v1.014h.947V96.27Zm0-4.043h-.947v1.014h.947v-1.014Zm0-4.043h-.947v1.014h.947v-1.014Zm0-2.016h-.947v1.014h.947v-1.014Zm0-2.015h-.947v1.013h.947v-1.013Zm0-2.016h-.947v1.014h.947v-1.014Zm0-2.016h-.947v1.014h.947v-1.014Zm1.883 14.133h-.947v1.014h.947v-1.014Zm0-4.043h-.947v1.014h.947v-1.014Zm0-4.043h-.947v1.014h.947v-1.014Zm0-4.043h-.947v1.014h.947v-1.014Zm1.882 14.133h-.947v1.014h.947v-1.014Zm0-4.043h-.947v1.014h.947v-1.014Zm0-2.015h-.947v1.013h.947V90.2Zm0-2.016h-.947v1.014h.947v-1.014Zm0-2.016h-.947v1.014h.947v-1.014Zm0-2.015h-.947v1.013h.947v-1.013Zm0-2.016h-.947v1.014h.947v-1.014Zm0-2.016h-.947v1.014h.947v-1.014Zm1.883 14.133h-.947v1.014h.947v-1.014Zm0-4.043h-.947v1.014h.947v-1.014Zm0-4.043h-.947v1.014h.947v-1.014Zm0-4.043h-.947v1.014h.947v-1.014Zm1.882 14.133h-.947v1.014h.947v-1.014Zm0-2.015h-.947v1.014h.947v-1.014Zm0-2.016h-.947v1.014h.947v-1.014Zm0-2.016h-.947v1.014h.947v-1.014Zm0-2.015h-.947v1.014h.947v-1.014Zm0-2.016h-.947v1.014h.947V86.18Zm0-2.016h-.947v1.014h.947v-1.014Zm0-2.015h-.947v1.013h.947V82.15Zm0-2.016h-.947v1.014h.947v-1.014Zm1.883 14.133h-.947v1.014h.947v-1.014Zm0-4.043h-.947v1.014h.947v-1.014Zm0-4.043h-.947v1.014h.947V86.18Zm0-4.043h-.947v1.014h.947v-1.014Zm1.882 14.133h-.947v1.014h.947V96.27Zm0-2.016h-.947v1.014h.947v-1.014Zm0-2.015h-.947v1.014h.947v-1.014Zm0-2.016h-.947v1.014h.947v-1.014Zm0-2.016h-.947v1.014h.947v-1.014Zm0-2.015h-.947v1.014h.947v-1.014Zm0-2.016h-.947v1.014h.947v-1.014Zm0-2.016h-.947v1.014h.947V82.16Zm0-2.015h-.947v1.014h.947v-1.014Zm1.883 14.133h-.947v1.014h.947v-1.014Zm0-4.043h-.947v1.014h.947v-1.014Zm0-4.043h-.947v1.014h.947v-1.014Zm0-4.043h-.947v1.013h.947V82.15Zm0-2.016h-.947v1.014h.947v-1.014Zm1.882 16.16h-.947v1.014h.947v-1.013Zm0-2.015h-.947v1.014h.947v-1.014Zm0-2.016h-.947v1.014h.947v-1.014Zm0-2.015h-.947v1.013h.947v-1.013Zm0-2.016h-.947v1.014h.947V88.23Zm0-2.016h-.947v1.014h.947v-1.014Zm0-2.015h-.947v1.013h.947V84.2Zm0-2.016h-.947v1.014h.947v-1.014Zm0-2.016h-.947v1.014h.947v-1.014Zm1.883 14.134h-.947v1.013h.947v-1.013Zm0-4.043h-.947v1.013h.947V90.26Zm0-4.044h-.947v1.014h.947v-1.014Zm0-2.015h-.947v1.013h.947V84.2Zm0-2.016h-.947v1.014h.947v-1.014Zm0-2.016h-.947v1.014h.947v-1.014Zm1.882 16.161h-.947v1.014h.947v-1.014Zm0-2.015h-.947v1.013h.947v-1.013Zm0-2.016h-.947v1.013h.947v-1.013Zm0-2.016h-.947v1.014h.947v-1.014Zm0-2.016h-.947v1.014h.947v-1.014Zm0-2.015h-.947v1.013h.947v-1.013Zm0-2.016h-.947v1.014h.947v-1.014Zm0-2.016h-.947v1.014h.947V82.22Zm0-2.015h-.947v1.014h.947v-1.014Zm1.883 14.133h-.947v1.014h.947v-1.014Zm0-4.043h-.947v1.014h.947v-1.014Zm0-2.016h-.947v1.014h.947v-1.014Zm0-2.015h-.947v1.013h.947v-1.013Zm0-2.016h-.947v1.014h.947v-1.014Zm0-2.016h-.947v1.014h.947v-1.014Zm0-2.015h-.947v1.013h.947v-1.013Zm1.882 16.16h-.946v1.014h.946v-1.014Zm0-2.015h-.946v1.013h.946v-1.013Zm0-2.016h-.946v1.014h.946v-1.014Zm0-2.016h-.946v1.014h.946v-1.014Zm0-2.015h-.946v1.013h.946v-1.013Zm0-2.016h-.946v1.014h.946v-1.014Zm0-2.016h-.946v1.014h.946v-1.014Zm0-2.015h-.946v1.013h.946v-1.013Zm0-2.016h-.946v1.014h.946V80.25Zm1.883 14.133h-.947v1.014h.947v-1.014Zm0-2.016h-.947v1.014h.947v-1.014Zm0-2.015h-.947v1.014h.947v-1.014Zm0-2.016h-.947v1.014h.947v-1.014Zm0-2.016h-.947v1.014h.947v-1.013Zm0-2.015h-.947v1.014h.947v-1.014Zm0-2.016h-.947v1.014h.947V82.29Zm1.882 14.133h-.946v1.014h.946v-1.014Zm0-2.015h-.946v1.013h.946v-1.013Zm0-2.016h-.946v1.014h.946v-1.014Zm0-2.016h-.946v1.014h.946v-1.014Zm0-2.015h-.946v1.013h.946v-1.013Zm0-2.016h-.946v1.014h.946v-1.014Zm0-2.016h-.946v1.014h.946V84.33Zm0-2.015h-.946v1.014h.946v-1.014ZM96.6 96.447h-.947v1.014h.947v-1.014Zm0-2.016h-.947v1.014h.947v-1.014Zm0-2.015h-.947v1.013h.947v-1.013Zm0-2.016h-.947v1.014h.947V90.4Zm0-2.016h-.947v1.014h.947v-1.014Zm0-2.015h-.947v1.013h.947V86.37Zm1.883 10.102h-.947v1.013h.947v-1.013Zm0-2.016h-.947v1.014h.947v-1.014Zm0-2.016h-.947v1.014h.947v-1.014Zm0-2.015h-.947v1.013h.947v-1.013Zm0-2.016h-.947v1.014h.947v-1.014Zm0-2.016h-.947v1.014h.947v-1.014Zm0-4.043h-.947v1.014h-.947v-1.014h-.947v1.014h.947v1.014h-.947v1.013h.947v-1.013h.947v1.013h.947v-1.013h-.947v-1.014h.947v-1.014Zm1.882 14.133h-.947v1.014h.947v-1.014Zm0-2.015h-.947v1.013h.947v-1.013Zm0-2.016h-.947v1.014h.947V92.45Zm0-2.016h-.947v1.014h.947v-1.014Zm1.883 6.06h-.947v1.013h.947v-1.014Zm0-2.017h-.947v1.014h.947v-1.014Zm0-2.015h-.947v1.014h.947v-1.014Zm0-2.016h-.947v1.014h.947v-1.014Zm0-4.043h-.947v1.014h-.947v-1.014h-.947v1.014h.947v1.013h-.947v1.014h.947v-1.013h.947v1.013h.947v-1.013h-.947v-1.014h.947v-1.014Zm0-4.043h-.947v1.014h-.947V82.36h-.947v1.014h.947v1.013h-.947v1.014h.947v-1.014h.947v1.014h.947v-1.014h-.947v-1.013h.947V82.36Zm1.882 14.133h-.947v1.014h.947v-1.014Zm0-2.016h-.947v1.014h.947v-1.014Zm1.883 2.016h-.947v1.014h.947v-1.014Zm0-2.016h-.947v1.014h.947v-1.014Zm0-4.043h-.947v1.014h-.947v-1.014h-.947v1.014h.947v1.014h-.947v1.014h.947v-1.014h.947v1.014h.947v-1.014h-.947v-1.014h.947v-1.014Zm0-4.043h-.947v1.014h-.947v-1.014h-.947v1.014h.947v1.014h-.947v1.013h.947V88.42h.947v1.013h.947V88.42h-.947v-1.014h.947v-1.014Zm0-4.043h-.947v1.014h-.947v-1.014h-.947v1.014h.947v1.014h-.947v1.013h.947v-1.013h.947v1.013h.947v-1.013h-.947v-1.014h.947v-1.014Zm3.776 12.118h-.947v1.013h-.947v-1.013h-.947v1.013h.947v1.014h-.947v1.014h.947v-1.014h.947v1.014h.947v-1.014h-.947V95.48h.947v-1.013Zm0-4.043h-.947v1.013h-.947v-1.013h-.947v1.013h.947v1.014h-.947v1.014h.947V92.45h.947v1.014h.947V92.45h-.947v-1.014h.947v-1.013Zm0-4.044h-.947v1.014h-.947V86.38h-.947v1.014h.947v1.014h-.947v1.014h.947v-1.014h.947v1.014h.947v-1.014h-.947v-1.014h.947V86.38Zm0-4.043h-.947v1.014h-.947v-1.014h-.947v1.014h.947v1.014h-.947v1.014h.947v-1.014h.947v1.014h.947v-1.014h-.947V83.35h.947v-1.014Zm3.776 12.118h-.947v1.014h-.947v-1.014h-.947v1.014h.947v1.013h-.947v1.014h.947v-1.014h.947v1.014h.947v-1.014h-.947V95.47h.947v-1.014Zm0-4.043h-.947v1.013h-.947v-1.013h-.947v1.013h.947v1.014h-.947v1.014h.947v-1.014h.947v1.014h.947v-1.014h-.947v-1.013h.947v-1.014Zm0-4.043h-.947v1.013h-.947V86.37h-.947v1.013h.947v1.014h-.947v1.014h.947v-1.014h.947v1.014h.947v-1.014h-.947v-1.014h.947V86.37Zm3.776 8.074h-.947v1.014h-.947v-1.014h-.946v1.014h.946v1.014h-.946v1.013h.946v-1.013h.947v1.013h.947v-1.013h-.947v-1.014h.947v-1.014Zm0-4.043h-.947v1.014h-.947V90.4h-.946v1.014h.946v1.013h-.946v1.014h.946v-1.014h.947v1.014h.947v-1.014h-.947v-1.013h.947V90.4Zm3.776 4.043h-.947v1.014h-.947v-1.014h-.946v1.014h.946v1.014h-.946v1.013h.946v-1.013h.947v1.013h.947v-1.013h-.947v-1.014h.947v-1.014Zm10.37 3.03v-1.014h-.946v1.013h-.947v1.014h.947V99.5h.946v-1.014h.947v-1.014h-.947Zm79.21-5.046h.947v-1.013h-.947v1.013Zm-75.434 5.045V96.46h-.946v1.013h-.947v1.014h.947V99.5h.946v-1.014h.947v-1.014h-.947Zm32.059 0v1.014h.946v-1.014h-.946Zm-1.883 0v1.014h.947v-1.014h-.947Zm3.776 0v1.014h.947v-1.014h-.947Zm1.883 0v1.014h.947v-1.014h-.947Zm-9.435 0v1.014h.947v-1.014h-.947Zm-1.882 0v1.014h.946v-1.014h-.946Zm3.776 0v1.014h.946v-1.014h-.946Zm-5.659 0V96.46h-.947v1.013h-.947v1.014h.947V99.5h.947v-1.014h.947v-1.014h-.947Zm15.082 0v1.014h.947v-1.014h-.947Zm32.058-14.133v1.014h.947v-1.014h-.947Zm1.883-1.013h.947v-1.014h-.947v1.014Zm0 2.015h.947v-1.013h-.947v1.013Zm4.712 14.133v-1.013h-.947v1.013h.947Zm-4.712-18.176h.947v-1.014h-.947v1.014Zm0 8.075h.947v-1.014h-.947v1.014Zm.947-2.016v-1.014h-.947v1.014h.947Zm-2.83 0h.947v-1.014h-.947v1.014Zm-6.605 10.102v1.013h.947V96.46h-.947Zm10.37 2.015h.947v-1.013h-.947v1.013Zm.947-5.045h.947v-1.013h-.947v1.013Zm1.883 1.014V93.43h-.947v1.014h.947Zm-2.83 0h.947V93.43h-.947v1.014Zm-3.776-7.072v1.013h.947v-1.013h-.947Zm3.776 4.043v1.013h.947v-1.013h-.947Zm1.883 5.045h.947v-1.014h-.947v1.014Zm-.947 1.013h.947V96.46h-.947v1.013Zm-.947-2.015v1.014h.947v-1.014h-.947Zm-2.829-10.102h.947v-1.014h-.947v1.014Zm-2.829 12.117v1.014h.947v-1.014h-.947Zm1.882 1.014h.947v-1.014h-.947v1.014Zm-.946-3.03h-.947v1.015h.947v-1.014Zm1.882 2.016h.947V96.46h-.947v1.013Zm-6.605 0v1.014h.947v-1.014h-.947Zm6.605-8.074h.947v-1.014h-.947v1.014Zm-3.776 7.073v1.013h.947v-1.013h-.947Zm-.947 2.015h.947v-1.014h-.947v1.014Zm3.776-3.03v1.015h.947v-1.014h-.947Zm1.883-3.029h.947v-1.013h-.947v1.013Zm.947-2.015v-1.014h-.947v1.014h.947Zm-2.83 1.013v1.014h.947v-1.013h-.947Zm0-1.013h.947v-1.014h-.947v1.014Zm1.883 6.059h.947v-1.014h-.947v1.014Zm-.947-3.03h.947v-1.014h-.947v1.014Zm1.883 1.014V93.44h-.947v1.014h.947Zm-2.83 0h.947V93.44h-.947v1.014Zm39.094-6.059h.947v-1.014h-.947v1.014Zm.261 4.043h.947v-1.013h-.947v1.013Zm0 4.032h.947v-1.014h-.947v1.014Zm0 2.015h.947v-1.014h-.947v1.014Zm-7.802-18.176h.947v-1.014h-.947v1.014Zm5.919 10.102h.947v-1.014h-.947v1.014Zm-2.143-6.059h.947v-1.014h-.947v1.014Zm5.92 14.133h.946v-1.014h-.946v1.014Zm-7.802-16.149h.947v-1.013h-.947v1.013Zm9.684 14.134h.947v-1.014h-.947v1.014Zm-1.882-2.016h.946V93.44h-.946v1.014Zm-3.777-.012h.947V93.43h-.947v1.014Zm-3.776-8.074h.947v-1.014h-.947v1.014Zm0 8.074h.947V93.43h-.947v1.014Zm3.776 4.043h.947v-1.014h-.947v1.014Zm-3.776-8.074h.947v-1.014h-.947v1.014Zm-1.882 0h.947v-1.014h-.947v1.014Zm0-2.016h.947v-1.014h-.947v1.014Zm0-4.043h.947v-1.014h-.947v1.014Zm1.882 14.133h.947v-1.014h-.947v1.014Zm1.883-10.102h.947v-1.013h-.947v1.013Zm0 4.043h.947v-1.013h-.947v1.013Zm0 2.028h.947V93.44h-.947v1.014Zm0 4.043h.947v-1.014h-.947v1.014Zm0-2.016h.947V95.47h-.947v1.013Zm5.398-14.133h.947v-1.014h-.947v1.014Zm11.317 16.149h.947v-1.014h-.947v1.014Zm-3.776-8.074h.947V89.41h-.947v1.014Zm3.765 4.043h.947v-1.014h-.947v1.014Zm-3.776 0h.947v-1.014h-.947v1.014Zm-1.882 2.015h.946V95.47h-.946v1.013Zm1.882 2.016h.947v-1.014h-.947v1.014Zm-3.515 0h.946v-1.014h-.946v1.014Zm-.25-12.13h.947v-1.013h-.947v1.014Zm11.317 12.118H262v-1.014h-.947v1.014Zm-18.858-16.16h.947v-1.014h-.947v1.014ZM113.521 80.31v1.014h.947V80.31h.946v-1.014h-.946v-1.014h-.947v1.014h-.947v1.014h.947Zm128.674 6.059h.947v-1.014h-.947v1.014Zm-5.398 6.058h.947v-1.013h-.947v1.013Zm11.056 0h.947v-1.013h-.947v1.013Zm1.883 2.016h.947V93.43h-.947v1.014Zm.011-4.043h.947v-1.014h-.947V90.4Zm-3.776 0h.947v-1.014h-.947V90.4Zm0-4.043h.947v-1.014h-.947v1.014Zm-22.374 8.074h.947v-1.013h-.947v1.013Zm0-8.074h.947v-1.014h-.947v1.014Zm0 4.043h.947v-1.014h-.947V90.4Zm0-8.169h.947v-1.013h-.947v1.013Zm0 10.197h.947v-1.014h-.947v1.013Zm1.883 6.058h.946v-1.014h-.946v1.014Zm-3.776-18.176h.946v-1.014h-.946v1.014Zm1.882 18.176h.947v-1.014h-.947v1.014Zm0-2.015h.947v-1.014h-.947v1.014Zm-5.471-14.24h.946v-1.013h-.946v1.013Zm7.354 6.165h.946v-1.014h-.946v1.014Zm0-2.016h.946v-1.013h-.946v1.013Zm0-2.015h.946V83.35h-.946v1.014Zm0-2.134h.946v-1.013h-.946v1.013Zm-3.777 0h.947v-1.013h-.947v1.013Zm3.777 10.22h.946v-1.014h-.946v1.014Zm0 2.016h.946v-1.014h-.946v1.014Zm0-4.043h.946V89.41h-.946v1.014Zm0 6.058h.946V95.47h-.946v1.013Zm-5.586-14.25h.947v-1.014h-.947v1.013Zm-.073 8.192h.947V89.41h-.947v1.014Zm0 2.015h.947v-1.013h-.947v1.013Zm0-4.043h.947v-1.014h-.947v1.014Zm0 6.059h.947V93.44h-.947v1.014Zm-1.883-14.133h.947v-1.014h-.947v1.014Zm1.883 5.898h.947v-1.013h-.947v1.013Zm0 12.278h.947v-1.014h-.947v1.014Zm0-2.016h.947V95.47h-.947v1.013Zm16.976-2.015h.947v-1.014h-.947v1.014Zm-15.082-10.102h.946V83.35h-.946v1.014Zm0 4.043h.946v-1.014h-.946v1.014Zm0 2.016h.946V89.41h-.946v1.014Zm-.097-4.209h.947v-1.013h-.947v1.013Zm.097 6.224h.946v-1.013h-.946v1.013Zm0 6.059h.946v-1.014h-.946v1.014Zm0-2.016h.946V95.47h-.946v1.013Zm0-2.015h.946v-1.014h-.946v1.014Zm3.776-14.133h.946V79.32h-.946v1.014Zm7.541 8.074h.946v-1.014h-.946v1.014Zm0 2.016h.946V89.41h-.946v1.014Zm0 2.015h.946v-1.013h-.946v1.013Zm0-6.058h.946v-1.014h-.946v1.013Zm-1.883-4.15h.947v-1.013h-.947v1.013Zm1.883 16.255h.946v-1.014h-.946v1.014Zm0-14.133h.946v-1.014h-.946v1.014Zm-1.883 2.016h.947v-1.014h-.947v1.014Zm1.883 8.074h.946V93.43h-.946v1.014Zm0 2.016h.946v-1.014h-.946v1.014Zm3.776 2.015h.947v-1.013h-.947v1.013Zm-1.883-16.148h.947v-1.014h-.947v1.014Zm-1.882-2.016h.946v-1.014h-.946v1.014Zm1.882 6.059h.947v-1.014h-.947v1.014Zm1.883 10.102h.947v-1.014h-.947v1.014Zm-1.883-6.06h.947v-1.013h-.947v1.014Zm0 8.075h.947v-1.014h-.947v1.014Zm0-4.043h.947V93.43h-.947v1.014Zm-5.658-10.102h.946v-1.013h-.946v1.013Zm-1.883 2.016h.947v-1.014h-.947v1.014Zm0-4.126h.947v-1.013h-.947v1.013Zm1.883 16.232h.946v-1.014h-.946v1.014Zm0-4.043h.946v-1.014h-.946v1.013Zm0 2.015h.946v-1.014h-.946v1.014Zm-1.883 0h.947v-1.014h-.947v1.014Zm0-2.016h.947v-1.013h-.947v1.013Zm0-4.043h.947v-1.013h-.947v1.013Zm1.883-10.102h.946v-1.013h-.946v1.014Zm0 1.957h.946v-1.013h-.946v1.013Zm1.882 12.177h.947v-1.014h-.947v1.014Zm0 4.043h.947v-1.014h-.947v1.014Zm-3.776 0h.947v-1.014h-.947v1.014Zm1.883-10.102h.946v-1.014h-.946v1.014Zm0 2.016h.946V89.35h-.946v1.014Zm0-4.043h.946v-1.014h-.946v1.013Zm0 6.058h.946v-1.013h-.946v1.013Zm-41.237 4.043h.946V95.41h-.946v1.013Zm-44.323-2.015v-1.014h-.946V92.38h-.947v1.014h-.947v1.014h.947v1.013h.947v-1.013h.946Zm-3.776 0v-1.014h-.946V92.38h-.947v1.014h-.947v1.014h.947v1.013h.947v-1.013h.946Zm9.435-12.118v-1.014h-.947v1.014h.947Zm-9.435 12.118v1.013h.947v-1.013h-.947Zm-4.712-1.014V92.38h-.946v1.014h-.947v1.014h.947v1.013h.946v-1.013h.947v-1.014h-.947Zm-9.434-5.045h.947v-1.014h-.947v-1.013h-.947v1.013h-.947v1.014h.947v1.014h.947v-1.014Zm-1.883-2.016h.947V85.32h-.947v-1.014h-.947v1.014h-.946v1.013h.946v1.014h.947v-1.014Zm5.659 6.06h.947v-1.015h-.947v-1.013h-.947v1.013h-.947v1.014h.947v1.014h.947v-1.014Zm-1.883-2.017h.947v-1.013h-.947v-1.014h-.946v1.014h-.947v1.013h.947v1.014h.946v-1.014Zm29.229 4.043v1.014h.947V94.42h-.947Zm-1.882 0v-1.013h-.947v-1.014h-.947v1.014h-.947v1.013h.947v1.014h.947V94.42h.947Zm0 0v1.014h.946V94.42h-.946Zm-33.005-10.101h.946v-1.014h-.946V82.29h-.947v1.014h-.947v1.014h.947v1.013h.947v-1.013Zm21.687 10.102v1.013h.947V94.42h-.947Zm7.542 0v1.013h.946V94.42h-.946Zm-3.777 0v-1.014h-.946v-1.014h-.947v1.014h-.947v1.013h.947v1.014h.947V94.42h.946Zm3.777 0v-1.014h-.947v-1.014h-.947v1.014h-.947v1.013h.947v1.014h.947V94.42h.947Zm-3.777 0v1.013h.947V94.42h-.947Zm-17.911-11.104v-1.014h-.947v1.014h.947Zm14.146 1.013v-1.013h-.946v1.013h.946Zm-2.829-1.013v-1.014h-.947v1.014h.947Zm0 1.013h.947v-1.013h-.947v1.013Zm-16.029 0v1.014h.947V84.33h.947v-1.013h-.947v-1.014h-.947v1.014h-.947v1.013h.947Zm19.805-1.013v-1.014h-.947v1.014h.947Zm2.829-1.014v-1.014h-.946v1.014h.946Zm-1.882 0v-1.014h-.947v1.014h.947Zm-8.488 2.016h.947v-1.014h-.947v1.014Zm2.829 0v-1.014h-.946v1.014h.946Zm-10.37 0h.947v-1.014h-.947v1.014Zm7.541-1.014V82.29h-.947v1.014h.947Zm-4.712 1.014v-1.014h-.947v1.014h.947Zm-3.776 0v-1.014h-.947v1.014h.947Zm31.122 10.102h-.946v1.013h.946V94.42Zm-26.399-11.104v-1.014h-.947v1.014h.947Zm51.863-1.014v-1.014h-.947v1.014h.947Zm-51.863 2.016h.947v-1.014h-.947v1.014Zm-1.883 9.088v-1.014h-.946v1.014h-.947v1.013h.947v1.014h.946V94.42h.947v-1.013h-.947Zm61.298-2.016h-.946v1.014h.946V91.39Zm.947 3.03h.947v-1.014h-.947v1.013Zm-1.882-1.014v1.013h.946v-1.013h-.946Zm1.882-2.016v-1.014h-.947v1.014h.947Zm.947 1.014V91.39h-.947v1.014h.947Zm-3.776 0v1.014h.947v-1.014h-.947Zm-2.829 1.014v1.013h.946v-1.013h-.946Zm-1.883 1.013h.947v-1.013h-.947v1.013Zm3.776 0h.947v-1.013h-.947v1.013Zm-2.829-2.015v1.013h.947v-1.013h-.947Zm.947-7.073V84.33h-.947v1.014h.947Zm-.947-1.014v-1.013h-.947v1.013h.947Zm5.658 6.06v-1.014h-.946v1.013h.946Zm-3.776-4.044v-1.014h-.946v1.014h.946Zm-2.829-3.03v-1.013h-.947v1.014h.947Zm5.659 6.06V88.36h-.947v1.013h.947Zm-1.883-2.016v-1.014h-.947v1.014h.947Zm.947 1.014v-1.014h-.947v1.014h.947Zm-19.805 7.072v1.014h.946v-1.014h-.946Zm-11.318 0v1.014h.947v-1.014h-.947Zm14.147 0h.947v-1.014h-.947v1.014Zm-6.605 0v1.014h.946v-1.014h-.946Zm5.658 1.014h.947v-1.014h-.947v1.014Zm-3.776-1.014v1.014h.947v-1.014h-.947Zm-7.541 0v1.014h.947v-1.014h-.947Zm1.883 0v1.014h.946v-1.014h-.946Zm1.882 0v1.014h.947v-1.014h-.947Zm17.912-3.03v1.014h.946v-1.013h-.946Zm-.947 2.016h.947v-1.013h-.947v1.013Zm-1.883-1.013v1.013h.947v-1.013h-.947Zm-.946-1.014v1.014h.946v-1.014h-.946Zm4.711 1.014v1.013h.947v-1.013h-.947Zm-7.541 0v1.013h.947v-1.013h-.947Zm-.946-1.014v1.014h.946v-1.014h-.946Zm-.947 2.016h.947v-1.014h-.947v1.013Zm3.776 0h.947v-1.014h-.947v1.013Zm-42.44-10.102v-1.014h-.947v1.014h.947Zm24.517 10.102v1.013h.947V94.42h-.947Zm1.883 0v1.013h.947V94.42h-.947Zm3.776 0v1.013h.947V94.42h-.947Zm-1.883 0v1.013h.947V94.42h-.947Zm-3.776-1.014h-.947v1.013h.947v-1.013Zm-5.658-2.016h-.947v1.014h.947V91.39Zm.946 1.014h-.946v1.014h.946v-1.014Zm-3.776-1.014v1.014h.947V91.39h-.947Zm28.293 0v1.014h.947V91.39h-.947Zm-22.634 2.016v1.013h.947v-1.013h-.947Zm16.976-2.016v1.014h.947V91.39h-.947Zm-23.57-9.088v-1.014h-.947v1.014h.947Zm22.634 11.104h.947v-1.014h-.947v1.014Zm4.712-2.016v1.014h.947V91.39h-.947Zm-8.488 4.043h.947V94.42h-.947v1.014Zm1.882-3.03v1.015h.947v-1.014h-.947Zm-3.776 2.016v1.014h.947V94.42h-.947Zm2.83 0h.946v-1.013h-.946v1.013Zm-15.083-1.013v1.013h.947v-1.013h-.947Zm-18.858-2.016v1.014h.947V91.39h-.947Zm-.947 0h-.947v1.014h.947V91.39Zm3.776 1.014v1.014h.947v-1.014h-.947Zm0-1.014h-.946v1.014h.946V91.39Zm-3.776 1.014v1.014h.947v-1.014h-.947Zm15.083 0v1.014h.946v-1.014h-.946Zm-17.912-1.014v-1.014h-.947v1.014h-.947v1.014h.947v1.014h.947v-1.014h.947V91.39h-.947Zm-1.883-1.014h.947v-1.013h-.947v-1.014h-.946v1.014h-.947v1.013h.947v1.014h.946v-1.014Zm-1.882-2.015h.947v-1.014h-.947v-1.014h-.947v1.014h-.947v1.014h.947v1.013h.947v-1.013Zm17.911 4.043v1.014h.947v-1.014h-.947Zm-6.605-1.014v1.014h.947V91.39h-.947Zm6.605 0h-.946v1.014h.946V91.39Zm3.777 0h-.947v1.014h.947V91.39Zm-2.83 0v1.014h.947V91.39h-.947Zm-3.776 0v1.014h.947V91.39h-.947Zm-.947 0h-.946v1.014h.946V91.39Zm0 1.014v1.014h.947v-1.014h-.947Zm33.005-1.014v1.014h.947V91.39h-.947Zm-8.488-7.072v-1.014h-.946v1.014h.946Zm-1.882-1.014h-.947v1.014h.947v-1.014Zm-.947 2.016v-1.014h-.947v1.014h.947Zm3.776 0v-1.014h-.947v1.014h.947Zm.947-2.016h-.947v1.014h.947v-1.014Zm-5.659 1.014v-1.014h-.946v1.014h.946Zm8.488 1.013v-1.013h-.947v1.013h.947Zm.947-2.015h-.947v1.013h.947v-1.013Zm-1.883 1.013v-1.013h-.946v1.013h.946Zm-10.37 1.014V84.33h-.947v1.014h.947Zm.947-2.016h-.947v1.014h.947v-1.013Zm-4.712 0v-1.013h-.947v1.014h.947Zm-2.829-1.013V81.3h-.947v1.014h.947Zm-1.883 0V81.3h-.947v1.014h.947Zm2.829 1.014v-1.014h-.946v1.014h.946Zm19.806 1.013v-1.013h-.947v1.013h.947Zm-16.03-1.013v-1.014h-.946v1.014h.946Zm.947 1.013v-1.013h-.947v1.013h.947Zm20.741-1.013h-.947v1.013h.947v-1.013Zm4.712 8.074v1.014h.947v-1.014h-.947Zm1.883 1.014h.946v-1.014h-.946v1.014Zm.946-2.016v-1.014h-.946V90.4h.946Zm-.946-1.014v-1.013h-.947v1.013h.947Zm-.947 0h-.947V90.4h.947v-1.014Zm0-1.013v-1.014h-.947v1.014h.947Zm-2.83 4.043h.947v-1.014h-.947v1.014Zm.947-2.016v1.014h.947V90.4h-.947Zm-2.829 1.014v1.013h.947v-1.013h-.947Zm-1.883-6.059v-1.014h-.946v1.014h.946Zm-.946-1.014v-1.013h-.947v1.013h.947Zm-1.883-1.013h-.947v1.013h.947v-1.013Zm-.947 2.015V84.33h-.946v1.014h.946Zm6.606-1.014v-1.013h-.947v1.013h.947Zm1.882 2.016v-1.014h-.947v1.014h.947Zm-.947-1.014v-1.013h-.946v1.013h.946Zm1.883 2.016v-1.014h-.947v1.014h.947Zm-42.44 9.088v1.014h.947v-1.014h-.947Zm49.034-10.102V85.32h-.946v1.013h.946Zm-2.829-3.03V82.29h-.947v1.014h.947Zm3.776 4.044v-1.014h-.947v1.014h.947Zm-2.829-3.03v-1.013h-.947v1.014h.947Zm.947 1.014v-1.013h-.947v1.013h.947Zm4.711 5.045v-1.013h-.946v1.013h.946Zm.947 1.014v-1.014h-.947v1.014h.947Zm.947 1.014V91.39h-.947v1.014h.947Zm-3.776-4.043v-1.014h-.947v1.014h.947Zm.947 1.013v-1.013h-.947v1.013h.947ZM184.253 81.3v-1.014h-.946V81.3h.946Zm-2.829-2.016h-.947v1.014h.947v-1.014Zm1.883 1.014v-1.014h-.947v1.014h.947Zm-2.83 1.014v-1.014h-.946v1.014h.946Zm7.542 0v-1.014h-.947v1.014h.947Zm-2.83-2.016h-.947v1.014h.947v-1.014Zm-5.658 1.014v-1.014h-.947v1.014h.947Zm7.541 0v-1.014h-.947v1.014h.947Zm1.882 2.016v-1.014h-.946v1.014h.946Zm0 12.117v1.014h.947v-1.014h-.947Zm2.83 2.016h.946v-1.014h-.946v1.014Zm-64.128-10.102h.947v-1.014h-.947V84.33h-.946v1.014h-.947v1.014h.947v1.014h.946v-1.014Zm62.234 9.088v1.014h.947v-1.014h-.947Zm-3.776 0v1.014h.947v-1.014h-.947Zm-1.883 0v1.014h.947v-1.014h-.947Zm-3.776 0v1.014h.947v-1.014h-.947Zm1.883 0v1.014h.947v-1.014h-.947Zm15.082 0v1.014h.947v-1.014h-.947Zm.947-2.016h-.947v1.014h.947V93.43Zm.947 3.03h.946v-1.014h-.946v1.014Zm0-3.03v-1.013h-.947v1.013h.947Zm.946 1.014V93.43h-.946v1.014h.946Zm-4.711 2.016h.946v-1.014h-.946v1.014Zm-1.883-1.014v1.014h.947v-1.014h-.947Zm2.829-1.014v1.014h.947v-1.014h-.947Zm-3.776 0v1.014h.947v-1.014h-.947Zm-39.61-14.133v-1.014h-.947v1.014h.947Zm-11.317 0v-1.014h-.947v1.014h.947Zm3.776 0v-1.014h-.947v1.014h.947Zm-1.883 0v-1.014h-.946v1.014h.946Zm33.952-1.014h-.947v1.014h.947v-1.014Zm-28.293 1.014v-1.014h-.947v1.014h.947Zm1.883 0v-1.014h-.947v1.014h.947Zm3.776 0v-1.014h-.947v1.014h.947Zm23.57 15.147v1.014h.947v-1.014h-.947Zm-40.546-15.147v-1.014h-.947v1.014h.947Zm9.434 0v-1.014h-.946v1.014h.946Zm-11.317 0v-1.014h-.947v1.014h.947Zm-7.541 0v-1.014h-.947v1.014h.947Zm-1.882 0v-1.014h-.947v1.014h.947Zm-5.659 0v1.014h.947v-1.014h.946v-1.014h-.946v-1.013h-.947v1.013h-.947v1.014h.947Zm3.776 0v-1.014h-.947v1.014h.947Zm5.659 0v-1.014h-.947v1.014h.947Zm3.776 0v-1.014h-.947v1.014h.947Zm-1.883 0v-1.014h-.947v1.014h.947Zm7.541 0v-1.014h-.946v1.014h.946Zm32.058 0v-1.014h-.946v1.014h.946Zm-3.776 0v-1.014h-.946v1.014h.946Zm.947 1.014v-1.014h-.947v1.014h.947Zm3.776 0v-1.014h-.947v1.014h.947Zm10.371 0h-.947v1.014h.947v-1.014Zm-6.606 0v-1.014h-.946v1.014h.946Zm-2.829-2.016h-.947v1.014h.947v-1.014Zm1.883 1.014v-1.014h-.947v1.014h.947Zm-10.371 1.014V80.31h-.947v1.014h.947Zm-4.712-1.014v-1.014h-.947v1.014h.947Zm5.659-1.014h-.947v1.014h.947v-1.014Zm-8.488 2.016v-1.014h-.947v1.014h.947Zm3.776 0v-1.014h-.947v1.014h.947Zm-2.829-2.016h-.947v1.014h.947v-1.014Zm-1.883 1.014v-1.014h-.947v1.014h.947Zm7.541 0v-1.014h-.946v1.014h.946Zm-1.882-1.014h-.947v1.014h.947v-1.014Zm7.541 0h-.947v1.014h.947v-1.014Zm-25.464 2.016v-1.014h-.947v1.014h.947Zm-3.776 0v1.014h.947v1.013h.947v-1.013h.946v-1.014h-.946v-1.014h-.947v1.014h-.947Zm-3.776 0v1.014h.947v1.013h.947v-1.013h.946v-1.014h-.946v-1.014h-.947v1.014h-.947Zm9.435 0v-1.014h-.947v1.014h.947Zm9.434 0v-1.014h-.946v1.014h.946Zm-3.776 0v-1.014h-.946v1.014h.946Zm-3.776 0v-1.014h-.947v1.014h.947Zm5.659 0v-1.014h-.947v1.014h.947Zm-3.776 0v-1.014h-.947v1.014h.947Zm-9.435 0v-1.014h-.947v1.014h.947Zm-15.082 0v-1.014h-.947v1.014h.947Zm0 0v1.014h.947v1.013h.946v-1.013h.947v-1.014h-.947v-1.014h-.946v1.014h-.947Zm3.776 0v-1.014h-.947v1.014h.947Zm7.541 0v-1.014h-.947v1.014h.947Zm-14.147 1.014v1.013h.947v-1.013h.947v-1.014h-.947v-1.014h-.947v1.014h-.946v1.014h.946Zm10.371-1.014v1.014h.947v1.013h.946v-1.013h.947v-1.014h-.947v-1.014h-.946v1.014h-.947Zm-3.776 0v1.014h.947v1.013h.946v-1.013h.947v-1.014h-.947v-1.014h-.946v1.014h-.947Zm3.776 0v-1.014h-.947v1.014h.947Zm41.493 2.016v-1.014h-.947v1.014h.947Zm-.947-1.014V81.3h-.947v1.014h.947Zm3.776 0V81.3h-.947v1.014h.947Zm.947 1.014v-1.014h-.947v1.014h.947Zm-59.405-1.014v1.014h.947v-1.014h.947V81.3h-.947v-1.014h-.947V81.3h-.946v1.014h.946Zm56.576-1.014h-.947v1.014h.947V81.3Zm3.776 0h-.947v1.014h.947V81.3Zm2.829 2.016v-1.014h-.947v1.014h.947Zm-.947-1.014v-1.014h-.947v1.014h.947Zm-13.2 0v-1.014h-.946v1.014h.946Zm-5.658 0v-1.014h-.947v1.014h.947Zm-1.883 0v-1.014h-.947v1.014h.947Zm3.776 0v-1.014h-.946v1.014h.946Zm-5.658 0v-1.014h-.947v1.014h.947Zm11.317 0v-1.014h-.947v1.014h.947Zm1.882 0v-1.014h-.946v1.014h.946Zm-5.658 0v-1.014h-.947v1.014h.947Zm-9.435 0v-1.014h-.947v1.014h.947Zm-8.488 13.131v1.014h.947v-1.014h-.947Zm7.541 0v1.014h.947v-1.014h-.947Zm-.946 1.014v1.014h.946v-1.014h-.946Zm3.776-1.014h-.947v1.014h.947v-1.014Zm1.882 1.014v1.014h.947v-1.014h-.947Zm-1.882 0v1.014h.946v-1.014h-.946Zm-3.776-1.014h-.947v1.014h.947v-1.014Zm-3.776 0h-.947v1.014h.947v-1.014Zm0 1.014v1.014h.946v-1.014h-.946Zm.946-1.014v1.014h.947v-1.014h-.947Zm17.912 1.014v1.014h.947v-1.014h-.947Zm-53.746-14.133h.947V81.3h-.947v-1.014h-.947V81.3h-.946v1.014h.946v1.014h.947v-1.014Zm57.522 15.147h.947v-1.014h-.947v1.014Zm2.829-2.016v1.014h.947v-1.014h-.947Zm-1.882 0v1.014h.947v-1.014h-.947Zm-10.371 1.014v1.013h.947V96.46h-.947Zm-1.882 0v1.013h.947V96.46h-.947Zm3.776 0v1.013h.947V96.46h-.947Zm1.882 0v1.013h.947V96.46h-.947Zm3.776 0v1.013h.947V96.46h-.947Zm-44.322-2.016h.947V93.43h-.947v-1.013h-.946v1.013h-.947v1.014h.947v1.014h.946v-1.014Zm19.805 2.016v1.013h.947V96.46h-.947Zm-14.146-1.014v-1.014h-.947v1.014h-.947v1.014h.947v1.013h.947V96.46h.947v-1.014h-.947Zm-3.776 0v-1.014h-.947v1.014h-.947v1.014h.947v1.013h.947V96.46h.947v-1.014h-.947Zm-3.776-3.03h.947v-1.013h-.947v-1.014h-.947v1.014h-.947v1.014h.947v1.013h.947v-1.013Zm-3.776-4.042h.946v-1.014h-.946v-1.014h-.947v1.014h-.947v1.014h.947v1.013h.947v-1.013Zm-3.776-4.044h.946v-1.013h-.946v-1.014h-.947v1.014h-.947v1.013h.947v1.014h.947V84.33Zm1.882 2.016h.947v-1.014h-.947v-1.013h-.947v1.013h-.946v1.014h.946v1.014h.947v-1.014Zm3.776 4.043h.947v-1.014h-.947v-1.013h-.947v1.013h-.946v1.014h.946v1.014h.947v-1.014Zm19.805 5.045h-.946v1.014h.946v-1.014Zm.947 0v1.014h.947v-1.014h-.947Zm-27.346-15.147V81.3h.947v-1.014h.946v-1.013h-.946v-1.014h-.947v1.014h-.947v1.013h.947Zm30.175 15.147h-.946v1.014h.946v-1.014Zm-7.541 1.014v1.014h.947v-1.014h-.947Zm.947-1.014v1.014h.947v-1.014h-.947Zm-.947 0h-.946v1.014h.946v-1.014Zm-2.829 0V94.42h-.947v1.014h-.947v1.014h.947v1.014h.947v-1.014h.947v-1.014h-.947Z"/></g><defs><clipPath id="a"><path fill="white" d="M0 0h281v555H0z"/></clipPath><clipPath id="b"><path fill="white" d="M43 496v-36h195v36z"/></clipPath></defs></svg>