<svg xmlns="http://www.w3.org/2000/svg" width="626" height="252" fill="none" viewBox="0 0 626 252"><path fill="#A4DFE3" fill-rule="evenodd" d="M14 33.084V17h119.952v11.384h4.896V17h477.36v9.792H626V242.21h-9.792V252h-477.36v-7.318h-4.896V252H14v-16.084c4.34 0 7.864-3.388 7.864-7.562s-3.523-7.562-7.864-7.562v-8.339c4.34 0 7.864-3.389 7.864-7.563 0-4.174-3.523-7.562-7.864-7.562v-8.339c4.34 0 7.864-3.388 7.864-7.562s-3.523-7.562-7.864-7.562v-8.339c4.34 0 7.864-3.389 7.864-7.563 0-4.173-3.523-7.562-7.864-7.562v-8.339c4.34 0 7.864-3.388 7.864-7.562s-3.523-7.562-7.864-7.562v-8.339c4.34 0 7.864-3.389 7.864-7.562 0-4.174-3.523-7.563-7.864-7.563v-8.339c4.34 0 7.864-3.388 7.864-7.562S18.341 80.011 14 80.011v-8.339c4.34 0 7.864-3.388 7.864-7.562S18.341 56.547 14 56.547V48.21c4.34 0 7.864-3.389 7.864-7.563 0-4.174-3.523-7.562-7.864-7.562Zm119.952 200.214h4.896v-11.385h-4.896v11.385Zm4.896-34.153v11.384h-4.896v-11.384h4.896Zm-4.896-11.384h4.896v-11.384h-4.896v11.384Zm4.896-34.152v11.384h-4.896v-11.384h4.896Zm-4.896-11.384h4.896v-11.384h-4.896v11.384Zm4.896-34.152v11.384h-4.896v-11.384h4.896Zm-4.896-11.384h4.896V85.305h-4.896v11.384Zm4.896-34.153V73.92h-4.896V62.536h4.896Zm-4.896-11.384h4.896V39.768h-4.896v11.384Z" clip-rule="evenodd"/><path fill="white" fill-rule="evenodd" d="M0 0h122.311v11.507h2.446V0h479.458v9.897H614v220.208h-9.785V240H124.757v-7.397h-2.446V240H0v-18.723h1.223c3.704 0 6.636-2.914 6.636-6.411 0-3.497-2.932-6.411-6.636-6.411H0v-10.894h1.223c3.704 0 6.636-2.915 6.636-6.412 0-3.496-2.932-6.411-6.636-6.411H0v-10.894h1.223c3.704 0 6.636-2.914 6.636-6.411 0-3.497-2.932-6.411-6.636-6.411H0v-10.894h1.223c3.704 0 6.636-2.915 6.636-6.411 0-3.497-2.932-6.412-6.636-6.412H0v-10.894h1.223c3.704 0 6.636-2.914 6.636-6.411 0-3.497-2.932-6.411-6.636-6.411H0v-10.894h1.223c3.704 0 6.636-2.914 6.636-6.411 0-3.497-2.932-6.412-6.636-6.412H0V78.978h1.223c3.704 0 6.636-2.914 6.636-6.411 0-3.497-2.932-6.411-6.636-6.411H0V55.262h1.223c3.704 0 6.636-2.915 6.636-6.412 0-3.496-2.932-6.41-6.636-6.41H0V31.545h1.223c3.704 0 6.636-2.914 6.636-6.411 0-3.497-2.932-6.411-6.636-6.411H0V0Zm121.088 231.37h4.892v7.397h477.012v-9.895h9.785V11.13h-9.785V1.233H125.98V12.74h-4.892V1.233H1.223V17.49c4.338 0 7.859 3.425 7.859 7.644s-3.521 7.644-7.859 7.644v8.429c4.338 0 7.859 3.425 7.859 7.643 0 4.22-3.521 7.645-7.859 7.645v8.428c4.338 0 7.859 3.425 7.859 7.644s-3.521 7.644-7.859 7.644v8.429c4.338 0 7.859 3.425 7.859 7.644 0 4.218-3.521 7.643-7.859 7.643v8.429c4.338 0 7.859 3.425 7.859 7.644s-3.521 7.644-7.859 7.644v8.429c4.338 0 7.859 3.425 7.859 7.644 0 4.218-3.521 7.643-7.859 7.643v8.429c4.338 0 7.859 3.425 7.859 7.644s-3.521 7.644-7.859 7.644v8.429c4.338 0 7.859 3.425 7.859 7.643 0 4.219-3.521 7.644-7.859 7.644v8.429c4.338 0 7.859 3.425 7.859 7.644s-3.521 7.644-7.859 7.644v16.257h119.865v-7.397Zm4.892-11.507h-4.892v-11.507h4.892v11.507Zm-1.223-10.274h-2.446v9.041h2.446v-9.041Zm1.223-24.247v11.507h-4.892v-11.507h4.892Zm-3.669 1.233v9.041h2.446v-9.041h-2.446Zm0-13.972h2.446v-9.041h-2.446v9.041Zm3.669-33.288v11.507h-4.892v-11.507h4.892Zm-3.669 1.233h2.446v9.041h-2.446v-9.041Zm0-13.973h2.446v-9.041h-2.446v9.041Zm3.669-33.287v11.507h-4.892V93.288h4.892Zm-3.669 1.233h2.446v9.041h-2.446v-9.041Zm0-13.973h2.446v-9.041h-2.446v9.041Zm3.669-33.288v11.507h-4.892V47.26h4.892Zm-3.669 1.233h2.446v9.041h-2.446v-9.04Zm0-13.973h2.446v-9.04h-2.446v9.04Zm-1.223 139.316v-11.507h4.892v11.507h-4.892Zm0-46.028v-11.507h4.892v11.507h-4.892Zm0-46.027V70.274h4.892v11.507h-4.892Zm0-46.028V24.247h4.892v11.506h-4.892Z" clip-rule="evenodd"/><path fill="white" fill-rule="evenodd" d="M.816 17.084V.827H120.68v11.507h4.893V.827h477.012v9.897h9.785v217.742h-9.785v9.895H125.573v-7.397h-4.893v7.397H.816v-16.257c4.337 0 7.859-3.425 7.859-7.644s-3.522-7.644-7.86-7.644v-8.429c4.338 0 7.86-3.425 7.86-7.644s-3.522-7.644-7.86-7.644v-8.428c4.338 0 7.86-3.425 7.86-7.644s-3.522-7.644-7.86-7.644v-8.429c4.338 0 7.86-3.425 7.86-7.644s-3.522-7.644-7.86-7.644v-8.428c4.338 0 7.86-3.425 7.86-7.644s-3.522-7.644-7.86-7.644v-8.429c4.338 0 7.86-3.425 7.86-7.644s-3.522-7.644-7.86-7.644v-8.428c4.338 0 7.86-3.425 7.86-7.644 0-4.22-3.522-7.644-7.86-7.644v-8.429c4.338 0 7.86-3.425 7.86-7.644S5.153 40.8.815 40.8v-8.428c4.338 0 7.86-3.425 7.86-7.644 0-4.22-3.522-7.644-7.86-7.644ZM120.68 219.457h4.893V207.95h-4.893v11.507Zm4.893-34.521v11.507h-4.893v-11.507h4.893Zm-4.893-11.507h4.893v-11.506h-4.893v11.506Zm4.893-34.52v11.507h-4.893v-11.507h4.893Zm-4.893-11.507h4.893v-11.507h-4.893v11.507Zm4.893-34.52v11.506h-4.893V92.881h4.893Zm-4.893-11.507h4.893V69.868h-4.893v11.507Zm4.893-34.52V58.36h-4.893V46.854h4.893Zm-4.893-11.508h4.893V23.84h-4.893v11.507Z" clip-rule="evenodd"/><path fill="#0A1133" fill-rule="evenodd" d="M121.088 231.364h4.892v7.397h477.012v-9.895h9.785V11.124h-9.785V1.227H125.98v11.506h-4.892V1.227H1.223v16.257c4.338 0 7.859 3.425 7.859 7.644s-3.521 7.644-7.859 7.644V41.2c4.338 0 7.859 3.425 7.859 7.644 0 4.22-3.521 7.644-7.859 7.644v8.429c4.338 0 7.859 3.425 7.859 7.644s-3.521 7.644-7.859 7.644v8.428c4.338 0 7.859 3.425 7.859 7.644s-3.521 7.644-7.859 7.644v8.429c4.338 0 7.859 3.425 7.859 7.644s-3.521 7.644-7.859 7.644v8.428c4.338 0 7.859 3.425 7.859 7.644s-3.521 7.644-7.859 7.644v8.429c4.338 0 7.859 3.425 7.859 7.644s-3.521 7.644-7.859 7.644v8.428c4.338 0 7.859 3.425 7.859 7.644s-3.521 7.644-7.859 7.644v8.429c4.338 0 7.859 3.425 7.859 7.644s-3.521 7.644-7.859 7.644v16.257h119.865v-7.397Zm-1.223 6.164v-7.397h7.338v7.397h474.566v-9.895h9.785V12.357h-9.785V2.459H127.203v11.507h-7.338V2.46H2.446v13.872c4.405.583 7.859 4.268 7.859 8.797 0 4.529-3.454 8.214-7.859 8.796v6.124c4.405.582 7.859 4.267 7.859 8.796 0 4.53-3.454 8.214-7.859 8.797v6.123c4.405.583 7.859 4.267 7.859 8.797 0 4.529-3.454 8.213-7.859 8.796v6.124c4.405.582 7.859 4.267 7.859 8.796 0 4.529-3.454 8.214-7.859 8.797v6.123c4.405.583 7.859 4.268 7.859 8.797 0 4.529-3.454 8.214-7.859 8.796v6.124c4.405.582 7.859 4.267 7.859 8.796 0 4.529-3.454 8.214-7.859 8.797v6.123c4.405.583 7.859 4.268 7.859 8.797 0 4.529-3.454 8.214-7.859 8.796v6.124c4.405.582 7.859 4.267 7.859 8.796 0 4.529-3.454 8.214-7.859 8.797v6.123c4.405.583 7.859 4.267 7.859 8.797 0 4.529-3.454 8.213-7.859 8.796v13.872h117.419Zm0-16.438v-13.973h7.338v13.973h-7.338Zm7.338-23.014h-7.338v-13.973h7.338v13.973Zm0-23.014h-7.338V161.09h7.338v13.972Zm0-23.014h-7.338v-13.972h7.338v13.972Zm0-23.013h-7.338v-13.973h7.338v13.973Zm0-23.014h-7.338V92.049h7.338v13.972Zm0-23.014h-7.338V69.035h7.338v13.972Zm0-23.013h-7.338V46.02h7.338v13.973Zm0-23.014h-7.338V23.007h7.338V36.98Zm-1.223 182.877h-4.892V208.35h4.892v11.507Zm0-34.521v11.507h-4.892v-11.507h4.892Zm0-46.027v11.507h-4.892v-11.507h4.892Zm0-46.028v11.507h-4.892V93.281h4.892Zm0-46.027v11.507h-4.892V47.254h4.892Zm-4.892 126.575v-11.507h4.892v11.507h-4.892Zm0-46.027v-11.507h4.892v11.507h-4.892Zm0-46.028V70.269h4.892v11.507h-4.892Zm0-46.027V24.24h4.892v11.507h-4.892Z" clip-rule="evenodd"/><path fill="#0A1133" d="M157.375 59.648h2.75v4.125h1.375v-1.375h1.375v-2.75h2.75v2.75h-1.375v1.375h-1.375v1.375H161.5v1.375h1.375v1.375h1.375v1.375h1.375v2.75h-2.75v-2.75H161.5v-1.375h-1.375v4.125h-2.75V59.648Zm10.34 0h2.75v11h2.75v-11h2.75v11h-1.375v1.375h-5.5v-1.375h-1.375v-11Zm10.34 0h6.875v1.375h1.375v4.125h-1.375v1.375h1.375v4.125h-1.375v1.375h-6.875V59.648Zm5.5 1.375h-2.75v4.125h2.75v-4.125Zm0 5.5h-2.75v4.125h2.75v-4.125Zm4.84-6.875h8.25v1.375h-5.5v4.125h2.75v1.375h-2.75v4.125h5.5v1.375h-8.25V59.648Zm15.84 1.375h-2.75v4.125h2.75v-4.125Zm-5.5-1.375h6.875v1.375h1.375v4.125h-1.375v1.375h-1.375v1.375h1.375v1.375h1.375v2.75h-2.75v-2.75h-1.375v-1.375h-1.375v4.125h-2.75V59.648Zm10.34 0h2.75v4.125h1.375v1.375h1.375v-5.5h2.75v12.375h-2.75v-4.125H213.2v-1.375h-1.375v5.5h-2.75V59.648Zm10.34 0h8.25v1.375h-5.5v4.125h2.75v1.375h-2.75v4.125h5.5v1.375h-8.25V59.648Zm10.34 0h8.25v1.375h-2.75v11h-2.75v-11h-2.75v-1.375Zm10.34 0h8.25v1.375h-5.5v4.125h2.75v1.375h-2.75v4.125h5.5v1.375h-8.25V59.648Zm11.715 0h5.5v1.375h1.375v1.375h-2.75v-1.375h-2.75v4.125h4.125v1.375h1.375v4.125h-1.375v1.375h-5.5v-1.375h-1.375v-1.375h2.75v1.375h2.75v-4.125h-4.125v-1.375h-1.375v-4.125h1.375v-1.375Zm15.18 0h5.5v1.375h1.375v1.375h-2.75v-1.375h-2.75v9.625h2.75v-1.375h2.75v1.375h-1.375v1.375h-5.5v-1.375h-1.375v-9.625h1.375v-1.375Zm10.34 0h5.5v1.375h1.375v9.625h-1.375v1.375h-5.5v-1.375h-1.375v-9.625h1.375v-1.375Zm4.125 1.375h-2.75v9.625h2.75v-9.625Zm4.84-1.375h2.75v2.75h1.375v1.375h1.375v-1.375h1.375v-2.75h2.75v12.375h-2.75v-6.875h-1.375v1.375h-1.375v-1.375h-1.375v6.875h-2.75V59.648Zm11.715 0h2.75v2.75h1.375v1.375h1.375v-1.375h1.375v-2.75h2.75v12.375h-2.75v-6.875h-1.375v1.375h-1.375v-1.375h-1.375v6.875h-2.75V59.648Zm11.715 0h2.75v11h2.75v-11h2.75v11H316.6v1.375h-5.5v-1.375h-1.375v-11Zm10.34 0h2.75v4.125h1.375v1.375h1.375v-5.5h2.75v12.375h-2.75v-4.125h-1.375v-1.375h-1.375v5.5h-2.75V59.648Zm11.715 0h2.75v12.375h-2.75V59.648Zm6.215 0h8.25v1.375h-2.75v11h-2.75v-11h-2.75v-1.375Zm10.34 0h2.75v4.125h2.75v-4.125h2.75v4.125h-1.375v1.375h-1.375v6.875h-2.75v-6.875h-1.375v-1.375h-1.375v-4.125Zm15.18 0h6.875v1.375h1.375v9.625h-1.375v1.375h-6.875V59.648Zm5.5 1.375h-2.75v9.625h2.75v-9.625Zm6.215-1.375h5.5v1.375h1.375v11h-2.75v-4.125h-2.75v4.125h-2.75v-11h1.375v-1.375Zm4.125 1.375h-2.75v5.5h2.75v-5.5Zm4.84-1.375h2.75v4.125h2.75v-4.125h2.75v4.125h-1.375v1.375h-1.375v6.875h-2.75v-6.875h-1.375v-1.375h-1.375v-4.125Zm11.715 0h5.5v1.375h1.375v1.375h-2.75v-1.375h-2.75v4.125h4.125v1.375h1.375v4.125h-1.375v1.375h-5.5v-1.375h-1.375v-1.375h2.75v1.375h2.75v-4.125h-4.125v-1.375h-1.375v-4.125h1.375v-1.375Z"/><path fill="white" d="M159.16 19.682v26.062h418.081V19.682H159.16Z"/><path fill="#0A1133" d="M157 19.7v1.247h420.939v23.57H157v1.245h422V19.701H157Z"/><mask id="a" width="386" height="26" x="156" y="20" maskUnits="userSpaceOnUse" style="mask-type:alpha"><path fill="#D9D9D9" d="M156 20.274h385.173v24.905H156V20.274Z"/></mask><g mask="url(#a)"><path fill="#0A1133" d="M335.221 19.39h-1.234v-1.269h1.234v1.27Zm70.064 7.588h-1.234v1.269h1.234v-1.27Zm4.922 3.793v-1.27h-1.234v1.27h1.234Zm-1.234 2.524h1.234v-1.27h-1.234v1.27Zm17.208-7.587h-1.235v1.27h1.235v-1.27Zm1.234-1.27h-1.234v1.27h1.234v-1.27ZM393 37.089h1.234V35.82H393v1.27Zm-74.987-18.967h-1.234v1.27h1.234v-1.27Zm22.13 0h-1.234v1.27h1.234v-1.27Zm68.845 11.38v-1.269h-1.235v1.27h1.235Zm-76.221-11.38h-1.235v1.27h1.235v-1.27Zm90.974 6.318v1.27h1.234v-1.27h-1.234Zm-95.883-6.318h-1.234v1.27h1.234v-1.27Zm79.91 10.111v-1.27h-1.235v1.27h1.235Zm-70.064-10.11h-1.235v1.269h1.235v-1.27Zm94.662 11.38h-1.234v1.27h1.234v-1.27Zm-109.401-11.38h-1.235v1.269h1.235v-1.27Zm15.987 26.554h1.234v-1.27h-1.234v1.27Zm-45.48-26.555h-1.234v1.27h1.234v-1.27Zm4.923 0h-1.234v1.27h1.234v-1.27ZM400.42 28.232v-1.27h-1.234v1.27h1.234Zm-46.714 16.444h1.234v-1.27h-1.234v1.27Zm-9.831 0h1.234v-1.27h-1.234v1.27Zm4.922 0h1.235v-1.27h-1.235v1.27Zm54.091-16.444v-1.27h-1.234v1.27h1.234Zm-4.922 0v-1.27h-1.235v1.27h1.235Zm6.142 1.27v-1.27h-1.234v1.27h1.234Zm-90.974-11.38H311.9v1.269h1.234v-1.27Zm-4.923 0h-1.234v1.269h1.234v-1.27Zm83.598 20.221h1.234v-1.27h-1.234v1.27Zm33.195-11.38h-1.234v1.27h1.234v-1.27Zm-35.649 10.11v1.27h1.234v-1.27h-1.234Zm39.337-7.586v1.27h1.234v-1.27h-1.234Zm-125.389-11.38h-1.234v1.269h1.234v-1.27Zm124.155 11.38h-1.234v1.27h1.234v-1.27Zm0-1.27v-1.269h-1.234v1.27h1.234Zm-18.442-10.11h-1.234v1.269h1.234v-1.27Zm-13.519 10.11v-1.269h-1.234v1.27h1.234Zm9.831 2.525v-1.27h-1.234v1.27h1.234Zm-20.896-12.65h-1.234v1.27h1.234v-1.27Zm-9.831 0h-1.234v1.27h1.234v-1.27Zm28.273 13.904h1.234v-1.27h-1.234v1.27Zm-23.35-13.904h-1.234v1.27h1.234v-1.27Zm-12.299 0h-1.235v1.27h1.235v-1.27Zm35.649 11.38h-1.234v1.27h1.234v-1.27Zm-30.727-11.38h-1.234v1.27h1.234v-1.27Zm46.714 1.27v1.269h1.235v-1.27h-1.235Zm-49.168-1.27h-1.234v1.27h1.234v-1.27Zm34.415 0h-1.234v1.27h1.234v-1.27Zm9.831 0h-1.234v1.27h1.234v-1.27Zm-14.753 0h-1.235v1.27h1.235v-1.27Zm0 15.174h1.234v-1.27h-1.234v1.27Zm18.441-13.905h-1.234v1.27h1.234v-1.27Zm-28.272-1.27h-1.234v1.27h1.234v-1.27Zm4.922 0h-1.234v1.27h1.234v-1.27Zm3.689 16.444h1.234v-1.27h-1.234v1.27Zm2.454-3.793v1.269h1.234v-1.27h-1.234Zm22.13-11.38h-1.234v1.269h1.234v-1.27Zm-17.208 11.38v1.269h1.235v-1.27h-1.235Zm-57.779-12.65h-1.234v1.27h1.234v-1.27Zm46.714 16.443v1.27h1.235v-1.27h-1.235Zm-41.791-16.443h-1.235v1.27h1.235v-1.27Zm2.454 0h-1.234v1.27h1.234v-1.27Zm-4.923 0h-1.234v1.27h1.234v-1.27Zm57.779 11.38h-1.234v1.27h1.234v-1.27Zm-62.687-11.38h-1.234v1.27h1.234v-1.27Zm77.441 6.317h-1.234v1.27h1.234v-1.27Zm-2.454-2.524h-1.235v1.27h1.235v-1.27Zm-57.78-3.793h-1.234v1.27h1.234v-1.27Zm41.792 15.174h1.234v-1.27h-1.234v1.27Zm-2.454-1.27v1.27h1.234v-1.27h-1.234Zm4.923 0v1.27h1.234v-1.27h-1.234Zm-41.792-13.904h-1.234v1.27h1.234v-1.27Zm56.545 2.524h-1.234v1.27h1.234v-1.27Zm1.234 2.524v-1.27h-1.234v1.27h1.234Zm-62.687-5.063h-1.235v1.27h1.235v-1.27Zm-2.454 0h-1.235v1.27h1.235v-1.27Zm39.337 17.698h1.234v-1.27h-1.234v1.27Zm-54.091-17.698h-1.234v1.27h1.234v-1.27Zm94.663 5.063v-1.27h-1.234v1.27h1.234Zm0 5.063v-1.27h-1.234v1.27h1.234Zm-2.454-6.318h-1.235v1.27h1.235v-1.27Zm-1.235 2.524v1.27h1.235v-1.27h-1.235Zm3.689 0h-1.234v1.27h1.234v-1.27Zm-1.234 1.27h-1.235v1.27h1.235v-1.27Zm-4.923-5.063h-1.234v1.27h1.234v-1.27Zm2.454-1.27v1.27h1.234v-1.27h-1.234Zm-78.675 7.587v-1.27h-1.234v1.27h1.234Zm-4.922 0v1.27h1.234v1.27h1.234v-1.27h1.234v-1.27H352.5v-1.27h-1.234v1.27h-1.234Zm87.286-7.587h-1.235v1.27h1.235v-1.27Zm-1.235 1.27h-1.234v1.27h1.234v-1.27ZM358.642 44.63h1.235v-1.27h-1.235v1.27Zm76.221-12.65h-1.234v1.27h1.234v-1.27Zm-72.532-7.587v-1.269h-1.234v1.27h1.234Zm66.376-5.062V20.6h1.234v-1.27h-1.234Zm3.688 0h-1.234V20.6h1.234v-1.27Zm4.923 13.904v-1.27h-1.235v1.27h1.235Zm2.454-11.38h-1.235v1.27h1.235v-1.27Zm-6.143 7.587v1.269h1.234v-1.27h-1.234Zm1.234-2.524h-1.234v1.269h1.234v-1.27Zm-73.752-1.27v-1.27h-1.234v1.27h1.234Zm76.221 3.794h-1.234v1.269h1.234v-1.27Zm-77.441-2.524v-1.27h-1.234v1.27h1.234Zm-4.923 0v1.269h1.235v1.27h1.234v-1.27h1.234v-1.27h-1.234V25.65h-1.234v1.27h-1.235Zm99.571 7.586h-1.234v1.27h1.234v-1.27Zm0-2.524h-1.234v1.27h1.234v-1.27Zm-114.324-5.063v1.27h1.234v1.27h1.235v-1.27h1.234v-1.27h-1.234V25.65h-1.235v1.27h-1.234Zm109.402-7.586h-1.234V20.6h1.234v-1.27Zm4.922 17.698h-1.234v1.269h1.234v-1.27Zm0-10.111h-1.234v1.269h1.234v-1.27Zm0-5.063h-1.234v1.27h1.234v-1.27Zm0-2.524h-1.234V20.6h1.234v-1.27Zm0 10.11h-1.234v1.27h1.234v-1.27Zm0-5.062h-1.234v1.27h1.234v-1.27Zm-4.922-2.524h-1.234v1.27h1.234v-1.27Zm0 10.11h-1.234v1.27h1.234v-1.27Zm-4.923-12.65h-1.234v1.27h1.234v-1.27Zm0 5.064h-1.234v1.27h1.234v-1.27Zm0-2.524h-1.234v1.27h1.234v-1.27Zm0 5.063h-1.234v1.269h1.234v-1.27Zm-94.662 0v-1.27h-1.235v1.27h1.235Zm-4.923 0v1.269h1.234v1.27h1.234v-1.27h1.235v-1.27h-1.235V25.65h-1.234v1.27h-1.234Zm0 0v-1.27h-1.234v1.27h1.234Zm104.493-2.524h-1.234v1.269h1.234v-1.27Zm0 2.524h-1.234v1.269h1.234v-1.27Zm-9.83-7.587h-1.235V20.6h1.235v-1.27Zm9.83 10.11h-1.234v1.27h1.234v-1.27Zm-13.519 1.27h-1.234v1.27h1.234v-1.27Zm-55.325-2.524v-1.27h-1.234v1.27h1.234Zm12.299 16.443h1.235v-1.27h-1.235v1.27Zm-2.454 0h1.235v-1.27h-1.235v1.27Zm-7.376-16.443v-1.27h-1.235v1.27h1.235Zm4.922 16.443h1.234v-1.27h-1.234v1.27Zm7.377 0h1.234v-1.27h-1.234v1.27Zm-17.208-18.967v-1.27h-1.234v1.27h1.234Zm29.507 18.967h1.234v-1.27h-1.234v1.27Zm-28.272-17.698v-1.27h-1.235v1.27h1.235Zm23.35 17.698h1.234v-1.27h-1.234v1.27Zm-4.923 0h1.234v-1.27h-1.234v1.27Zm14.753 0h1.235v-1.27h-1.235v1.27Zm-39.337 0h1.234v-1.27h-1.234v1.27Zm-4.923 0h1.235v-1.27h-1.235v1.27Zm7.377-13.904v-1.27h-1.234v1.27h1.234ZM363.551 44.63h1.234v-1.27h-1.234v1.27Zm29.506-16.443v-1.27h-1.234v1.27h1.234Zm-12.299 16.443h1.234v-1.27h-1.234v1.27Zm2.454 0h1.235v-1.27h-1.235v1.27Zm2.454-16.443v-1.27h-1.234v1.27h1.234Zm-7.376 16.443h1.234v-1.27h-1.234v1.27Zm9.831-16.443v-1.27h-1.235v1.27h1.235Zm-2.455 16.443h1.235v-1.27h-1.235v1.27Zm44.26-17.698h-1.234v1.27h1.234v-1.27Zm-60.233-2.524v-1.27h-1.234v1.27h1.234Zm61.468 1.27h-1.235v1.27h1.235v-1.27Zm1.234 2.524v-1.27h-1.234v1.27h1.234Zm-8.611-8.857v1.27h1.234v-1.27h-1.234Zm-58.999 5.063v-1.27h-1.234v1.27h1.234Zm67.61 0h-1.234v1.27h1.234v-1.27Zm0-1.27V21.87h-1.234v1.27h1.234Zm-2.454-1.269h-1.234v1.27h1.234v-1.27Zm-2.454-2.524h-1.235v1.27h1.235v-1.27Zm1.234 5.063v1.27h1.234v-1.27h-1.234Zm-61.468 0v-1.27h-1.234v1.27h1.234Zm50.403 20.222h1.234v-1.27h-1.234v1.27Zm-41.792-18.967v-1.27h-1.234v1.27h1.234Zm56.545 18.967h1.234v-1.27h-1.234v1.27Zm-9.831 0h1.235v-1.27h-1.235v1.27ZM372.176 24.41v-1.27h-1.234v1.27h1.234Zm65.156 20.222h1.234v-1.27h-1.234v1.27Zm-9.831 0h1.234v-1.27h-1.234v1.27Zm-1.234-24.015h-1.234v1.27h1.234v-1.27Zm15.987 22.76v-1.269h-1.234v1.27h1.234Zm-14.753-20.221v-1.27h-1.234v1.27h1.234Zm-54.091 2.524v-1.27h-1.234v1.27h1.234Zm51.637-3.794h-1.234v1.27h1.234v-1.27Zm-34.415 6.318v-1.27h-1.234v1.27h1.234Zm-30.727 1.27v-1.27h-1.234v1.27h1.234Zm30.727 7.586h1.234v-1.27h-1.234v1.27Zm-17.207-6.317v1.269h1.234v-1.27h-1.234Zm11.065 2.524h-1.235v1.269h1.235v-1.27Zm-23.35-5.063v1.27h1.234v-1.27h1.234v-1.27h-1.234v-1.27h-1.234v1.27h-1.235v1.27h1.235Zm27.038 7.587v1.27h1.234v-1.27h-1.234Zm19.661-1.27h1.235v-1.27h-1.235v1.27Zm3.689-2.524v-1.27h-1.234v1.27h1.234Zm-8.611 5.063h1.234v-1.27h-1.234v1.27Zm-44.26-6.317v-1.27h-1.234v1.27h1.234Zm54.091 2.524v-1.27h-1.235v1.27h1.235Zm-18.442-5.063h-1.234v1.27h1.234v-1.27Zm-7.377 6.317v-1.27h-1.234v1.27h1.234Zm2.454-6.317h-1.234v1.27h1.234v-1.27Zm41.792 2.524h-1.234v1.27h1.234v-1.27Zm-39.337 5.063h1.234v-1.27h-1.234v1.27Zm7.376-7.587h-1.234v1.27h1.234v-1.27Zm1.234 2.524v-1.27h-1.234v1.27h1.234Zm-34.414-5.063v-1.27h-1.235v1.27h1.235Zm-2.455 0v-1.27h-1.234v1.27h1.234Zm29.507 8.856h1.234v-1.27h-1.234v1.27Zm-22.13-3.793v1.27h1.234v-1.27h-1.234Zm15.988 3.793v1.27h1.234v-1.27h-1.234Zm-3.689 0h-1.234v1.27h1.234v-1.27Zm0 1.27v1.27h1.235v-1.27h-1.235Zm-34.415-5.063v1.27h1.235v-1.27h-1.235Zm4.923 0v-1.27h-1.234v1.27h1.234Zm-3.688-1.27v-1.269h-1.235v1.27h1.235Zm4.922 0v-1.269h-1.234v1.27h1.234Zm41.792 8.857h1.234v-1.27h-1.234v1.27Zm-8.611-3.794h1.234v-1.27h-1.234v1.27Zm-38.103-3.793h1.234v-1.27h-1.234v1.27Zm4.922 0h1.234v-1.27h-1.234v1.27Zm39.338-5.063H393.1v1.27h1.235v-1.27Zm-4.923 0h-1.234v1.27h1.234v-1.27Zm20.896 1.27h-1.234v1.269h1.234v-1.27Zm-11.065-1.27h-1.234v1.27h1.234v-1.27Zm-14.753 0h-1.235v1.27h1.235v-1.27Zm0 8.856v1.27h1.234v-1.27h-1.234Zm-30.727-3.793v1.27h1.234v-1.27h-1.234Zm58.999-1.27h-1.234v1.27h1.234v-1.27Zm-72.533-2.524v-1.27h-1.234v1.27h1.234Zm45.48 8.857v1.27h1.235v-1.27h-1.235Zm17.208-1.27h1.234v-1.27h-1.234v1.27Zm-28.273-5.063v-1.269h-1.234v1.27h1.234Zm15.988 6.318v-1.27h-1.234v1.27h1.234Zm-12.299-2.524v1.27h1.234v-1.27h-1.234Zm12.299-2.524v-1.27h-1.234v1.27h1.234Zm-8.611 1.27v-1.27h-1.234v1.27h1.234Zm11.065 1.269v-1.27h-1.234v1.27h1.234Zm-13.519-1.27v1.27h1.234v-1.27h-1.234Zm4.923-2.524v-1.27h-1.235v1.27h1.235Zm-2.455 0v-1.27h-1.234v1.27h1.234Zm8.611 3.794v-1.27h-1.234v1.27h1.234Zm-18.441-3.794v1.27h1.234v-1.27h-1.234Zm6.142 2.524h-1.234v1.27h1.234v-1.27Zm-12.299-3.793v1.27h1.234v-1.27h-1.234Zm11.065 2.524h-1.234v1.27h1.234v-1.27Zm9.831 1.27v-1.27h-1.235v1.27h1.235Zm7.376-1.27h-1.234v1.27h1.234v-1.27Zm-8.611 0v-1.27h-1.234v1.27h1.234Zm-19.661-3.794h-1.234v1.27h1.234v-1.27Zm22.13 2.524h-1.234v1.27h1.234v-1.27Zm-19.662-1.269v-1.27h-1.234v1.27h1.234Zm11.065 3.794v-1.27h-1.234v1.27h1.234Zm18.442-2.525h-1.234v1.27h1.234v-1.27Zm-3.688 3.794h1.234v-1.27h-1.234v1.27Zm2.454-1.27v-1.269h-1.234v1.27h1.234Zm-1.234-1.269v-1.27h-1.235v1.27h1.235Zm-20.896-3.793v-1.27h-1.234v1.27h1.234Zm2.454 0v-1.27h-1.234v1.27h1.234Zm-6.143 2.524h-1.234v1.269h1.234v-1.27Zm27.039 2.524h1.234v-1.27h-1.234v1.27Zm-27.039-6.318v-1.27h-1.234v1.27h1.234Zm1.235 1.27v-1.27h-1.235v1.27h1.235Zm24.584 6.317h1.234v-1.27h-1.234v1.27Zm-24.584-3.793v-1.27h-1.235v1.27h1.235Zm7.376 0v-1.27h-1.234v1.27h1.234Zm3.689 3.793v-1.27h-1.235v1.27h1.235Zm6.142-2.524h-1.234v1.27h1.234v-1.27Zm-29.507-1.27v1.27h1.235v-1.27h-1.235Zm31.961 2.525v-1.27h-1.234v1.27h1.234Zm-13.519-3.794v-1.27h-1.234v1.27h1.234Zm14.753 1.27h-1.234v1.269h1.234v-1.27Zm-12.299 3.793v1.27h1.234v-1.27h-1.234Zm-11.065-5.063h-1.234v1.27h1.234v-1.27Zm-11.065 2.524v1.27h1.234v-1.27h-1.234Zm9.831-5.063v-1.27h-1.234v1.27h1.234Zm-4.923 5.063v1.27h1.235v-1.27h-1.235Zm12.3 5.063v1.27h1.234v-1.27h-1.234Zm-11.065-6.317v1.269h1.234v-1.27h-1.234Zm13.519 6.317v1.27h1.234v-1.27h-1.234Zm2.454-5.063v-1.27h-1.234v1.27h1.234Zm-3.688-1.27v-1.269h-1.235v1.27h1.235Zm-8.611 0h-1.235v1.27h1.235v-1.27Zm-3.689 0v-1.269h-1.234v1.27h1.234Zm13.519 1.27v-1.27h-1.234v1.27h1.234Zm3.689 5.063h-1.234v1.27h1.234v-1.27Zm-18.442-6.317h-1.234v1.269h1.234v-1.27Zm20.896-8.857h-1.234v1.27h1.234v-1.27Zm-8.611 13.905h-1.234v1.27h1.234v-1.27Zm18.442-13.905h-1.235v1.27h1.235v-1.27Zm20.895 1.27h-1.234v1.27h1.234v-1.27Zm-44.26 11.38v1.27h1.235v-1.27h-1.235Zm18.442-12.65h-1.234v1.27h1.234v-1.27Zm-6.142 10.111v-1.27h-1.235v1.27h1.235Zm-13.519 0h-1.235v1.27h1.235v-1.27Zm9.83-10.11h-1.234v1.269h1.234v-1.27Zm-4.922 12.65h-1.234v1.268h1.234v-1.269Zm-6.143 0v1.268h1.235v-1.269h-1.235Zm67.61 2.523h-1.234v1.27h1.234v-1.27Zm1.235-1.27h-1.235v1.27h1.235v-1.27Zm0 3.794v-1.27h-1.235v1.27h1.235Zm-2.455-1.27h-1.234v1.27h1.234v-1.27Zm-70.064-11.38h-1.234v1.27h1.234v-1.27Zm65.156 6.318h-1.234v1.27h1.234v-1.27Zm2.454 1.27v-1.27h-1.234v1.27h1.234Zm-45.48 3.793v1.27h1.235v-1.27h-1.235Zm47.949 3.793v-1.27h-1.235v1.27h1.235Zm-2.454-6.317h-1.235v1.27h1.235v-1.27Zm1.234 0v1.27h1.234v-1.27h-1.234Zm-51.637 2.524v1.27h1.234v-1.27h-1.234Zm-8.611-8.857V26.89h-1.234v1.27h1.234Zm-3.688-1.269v-1.27h-1.234v1.27h1.234Zm-2.454 0v-1.27h-1.234v1.27h1.234Zm8.611 1.27v-1.27h-1.235v1.27h1.235Zm36.883 13.904h1.234v-1.27h-1.234v1.27Zm20.896-2.524v-1.27h-1.234v1.27h1.234Zm-49.168-2.524v1.27h1.234v-1.27h-1.234Zm23.349 5.063h1.235v-1.27h-1.235v1.27Zm-4.922 0h1.234v-1.27h-1.234v1.27Zm17.207-10.111h-1.234v1.27h1.234v-1.27Zm-74.986-1.27h-1.235v1.27h1.235v-1.27Zm34.415 3.794v1.27h1.234v-1.27h-1.234Zm9.83-11.38h-1.234v1.269h1.234v-1.27Zm-45.48 6.317h-1.234v1.27h1.234v-1.27Zm27.039-1.27V26.89h-1.234v1.27h1.234Zm13.519-5.063h-1.234v1.27h1.234v-1.27Zm-35.649 10.112v-1.27h-1.235v-1.27h-1.234v1.27h-1.234v1.27h1.234v1.269h1.234v-1.27h1.235Zm0 0v1.269h1.234v-1.27h-1.234Zm28.272 1.269v1.27h1.234v-1.27h-1.234Zm11.065-1.27v-1.269h-1.234v1.27h1.234Zm-11.065 0h-1.234v1.27h1.234v-1.27ZM407.811 37h1.234v-1.27h-1.234V37Zm12.299-1.27v-1.269h-1.234v1.27h1.234Zm-2.454-11.38h-1.234v1.27h1.234v-1.27Zm0 5.063h-1.234v1.27h1.234v-1.27Zm1.234 5.063v-1.27h-1.234v1.27h1.234Zm-70.064-3.793v-1.27h-1.234v1.27h1.234Zm-3.688-1.27v-1.27h-1.235v1.27h1.235Zm70.064-2.524h-1.234v1.27h1.234v-1.27Zm-2.454-2.524h-1.235v1.27h1.235v-1.27Zm-67.61 6.318h1.234v-1.27h-1.234v1.27Zm49.168-7.587h-1.234v1.269h1.234v-1.27Zm33.195 11.38h-1.234v1.27h1.234v-1.27Zm-63.922-1.27v1.27h1.235v-1.27h-1.235Zm63.922 5.063V37h-1.234v1.27h1.234ZM426.267 37v-1.27h-1.234V37h1.234Zm-13.519 2.524h1.234v-1.27h-1.234v1.27Zm7.376-12.65h-1.234v1.27h1.234v-1.27Zm-51.636 6.318v-1.27h-1.235v-1.269h-1.234v1.27h-1.234v1.269h1.234v1.27h1.234v-1.27h1.235Zm-4.923 0v-1.27h-1.234v-1.269h-1.234v1.27h-1.235v1.269h1.235v1.27h1.234v-1.27h1.234Zm61.468-1.27h-1.235v1.27h1.235v-1.27Zm-2.455-2.524h-1.234v1.27h1.234v-1.27Zm-63.921 3.794v-1.27h-1.234v-1.269h-1.235v1.27h-1.234v1.269h1.234v1.27h1.235v-1.27h1.234Zm25.818-1.27v-1.269h-1.234v1.27h1.234Zm-8.611 0h-1.234v1.27h1.234v-1.27Zm-22.13 1.27v1.27h1.234v-1.27h-1.234Zm54.091 6.317h1.234V38.24h-1.234v1.27Zm-54.091-6.317v-1.27H352.5v-1.269h-1.234v1.27h-1.234v1.269h1.234v1.27h1.234v-1.27h1.234Zm31.961 0v-1.27h-1.234v1.27h1.234Zm-15.987-1.27v1.27h1.234v-1.27h-1.234Zm33.195 7.587h1.234V38.24h-1.234v1.27Zm-30.727-7.587v1.27h1.234v-1.27h-1.234Zm-13.519 1.27v1.27h1.234v-1.27h-1.234Zm124.155 0h1.234v-1.27h-1.234v1.27Zm-29.507 10.11h1.234v-1.269h-1.234v1.27Zm3.688 0v-1.269h-1.234v1.27h1.234Zm-6.142-22.76h1.234v-1.27h-1.234v1.27Zm3.688 21.491h1.235v-1.269h-1.235v1.27Zm-3.688-11.38h1.234v-1.27h-1.234v1.27Zm0-2.524h1.234v-1.27h-1.234v1.27Zm2.454 11.38v1.27h1.234v-1.27h-1.234Zm-2.454-16.443h1.234v-1.27h-1.234v1.27Zm0 2.524h1.234v-1.27h-1.234v1.27Zm4.923 2.524h1.234v-1.27h-1.234v1.27Zm0-2.524h1.234v-1.27h-1.234v1.27Zm0-5.063h1.234v-1.27h-1.234v1.27Zm0 10.111h1.234v-1.27h-1.234v1.27Zm0 10.111h1.234v-1.27h-1.234v1.27Zm0-17.698h1.234v-1.27h-1.234v1.27Zm9.83 2.524h1.235v-1.27h-1.235v1.27Zm-9.83 12.65h1.234v-1.27h-1.234v1.27Zm0-2.524h1.234v-1.27h-1.234v1.27Zm-4.923-2.524h1.234v-1.27h-1.234v1.27Zm-4.923-10.111h1.235v-1.27h-1.235v1.27Zm0 2.524h1.235v-1.27h-1.235v1.27Zm0 2.524h1.235v-1.27h-1.235v1.27Zm1.235 5.063v-1.27h-1.235v1.27h1.235Zm4.922 10.111v-1.27h-1.234v1.27h1.234Zm-6.142-12.65h1.234v-1.27h-1.234v1.27Zm4.922 5.063h1.235v-1.27h-1.235v1.27Zm-6.142-3.793h1.234v-1.27h-1.234v1.27Zm-1.234-2.524v1.269h1.234v-1.27h-1.234Zm0 3.793h1.234v-1.27h-1.234v1.27Zm6.142 3.794h1.234V35.7h-1.234v1.27Zm2.454 1.269v-1.27h-1.234v1.27h1.234Zm-3.688 5.063h1.234v-1.27h-1.234v1.27Zm0-8.856v1.269h1.234v-1.27h-1.234Zm0 3.793h1.234v-1.27h-1.234v1.27Zm2.454 2.524h1.234v-1.27h-1.234v1.27Zm-1.234 1.27h1.234v-1.27h-1.234v1.27Zm-1.234-2.525v1.27h1.234v-1.27h-1.234Zm-2.455-18.967h1.235v-1.27h-1.235v1.27Zm17.208 10.111h1.234v-1.27h-1.234v1.27Zm0 5.063h1.234v-1.27h-1.234v1.27Zm0-10.111h1.234v-1.27h-1.234v1.27Zm0 2.524h1.234v-1.27h-1.234v1.27Zm0 5.063h1.234v-1.27h-1.234v1.27Zm0 10.11h1.234v-1.269h-1.234v1.27Zm-2.454-22.76h1.234v-1.27h-1.234v1.27Zm2.454 17.698h1.234v-1.27h-1.234v1.27Zm0 2.524h1.234v-1.27h-1.234v1.27Zm0-17.698h1.234v-1.27h-1.234v1.27Zm2.454 10.111h1.234v-1.27h-1.234v1.27Zm0-2.524h1.234v-1.27h-1.234v1.27Zm-7.377 12.65h1.235v-1.27h-1.235v1.27Zm7.377-7.587h1.234v-1.27h-1.234v1.27Zm0-7.587h1.234v-1.27h-1.234v1.27Zm0 15.174h1.234v-1.27h-1.234v1.27Zm0-2.524h1.234v-1.27h-1.234v1.27Zm0-2.524h1.234v-1.27h-1.234v1.27Zm-4.923-15.174h1.235v-1.27h-1.235v1.27Zm-2.454 5.063h1.235v-1.27h-1.235v1.27Zm0 5.063h1.235v-1.27h-1.235v1.27Zm0-2.524h1.235v-1.27h-1.235v1.27Zm0-5.063h1.235v-1.27h-1.235v1.27Zm0-2.524h1.235v-1.27h-1.235v1.27Zm0 12.65h1.235v-1.27h-1.235v1.27Zm0 5.062h1.235v-1.27h-1.235v1.27Zm0-2.524h1.235v-1.27h-1.235v1.27Zm2.454-10.11h1.235v-1.27h-1.235v1.27Zm0 7.586h1.235v-1.27h-1.235v1.27Zm0-5.063h1.235v-1.27h-1.235v1.27Zm0 2.524h1.235v-1.27h-1.235v1.27Zm0-7.587h1.235v-1.27h-1.235v1.27Zm0 15.174h1.235v-1.27h-1.235v1.27Zm0 2.524h1.235v-1.269h-1.235v1.27Zm0-5.063h1.235V37h-1.235v1.27Zm-2.454-17.697h1.235v-1.27h-1.235v1.27Zm-2.454 12.65h1.234v-1.27h-1.234v1.27Zm-45.48 7.586v1.27h1.234v-1.27h-1.234Zm3.689 2.524h1.234v-1.269h-1.234v1.27Zm-2.455-1.269v1.27h1.235v-1.27h-1.235Zm-4.922 0v1.27h1.234v-1.27h-1.234Zm2.454 1.27h1.234v-1.27h-1.234v1.27Zm-8.611-2.525v1.27h1.234v-1.27h-1.234Zm1.234 1.27v1.27h1.235v-1.27h-1.235Zm2.454 1.27h1.235v-1.27h-1.235v1.27Zm-4.922 0h1.234v-1.27H399.2v1.27Zm29.507 0h1.234v-1.27h-1.234v1.27Zm-4.923 0h1.234v-1.27h-1.234v1.27Zm-2.454-1.27v1.27h1.234v-1.27h-1.234Zm3.688-1.27v1.27h1.234v-1.27h-1.234Zm-9.831 0v1.27h1.235v-1.27h-1.235Zm11.065 1.27v1.27h1.235v-1.27h-1.235Zm-9.83 0v1.27h1.234v-1.27h-1.234Zm2.454 1.27h1.234v-1.27h-1.234v1.27Zm1.234-2.525v1.27h1.234v-1.27h-1.234Zm-14.753 0v1.27h1.234v-1.27h-1.234Zm-47.949 1.27v-1.27h-1.234v1.27h-1.234v1.269h1.234v1.27h1.234v-1.27h1.234v-1.27h-1.234Zm14.754 0v-1.27h-1.235v1.27h-1.234v1.269h1.234v1.27h1.235v-1.27h1.234v-1.27h-1.234Zm-9.831 0v-1.27h-1.234v1.27h-1.235v1.269h1.235v1.27h1.234v-1.27h1.234v-1.27h-1.234Zm4.922 0v-1.27h-1.234v1.27h-1.234v1.269h1.234v1.27h1.234v-1.27h1.235v-1.27h-1.235Zm-14.753 0v-1.27h-1.234v1.27h-1.234v1.269h1.234v1.27h1.234v-1.27h1.234v-1.27H352.5Zm-13.519 0v1.269h-1.234v1.27h-1.235v-1.27h-1.234v1.27h-1.234v-1.27h-1.234v1.27h-1.234v-1.27h-1.235v1.27h-1.234v-1.27h-1.234v1.27h-1.234v-1.27h-1.235v1.27h-1.234v-1.27h-1.234v1.27h-1.234v-1.27h-1.235v1.27h-1.234v-1.27h-1.234v1.27h-1.234v-1.27h-1.234v1.27h-1.235v-1.27h-1.234v1.27h-1.234v-1.27h-1.234v1.27h-1.235v-1.27h-1.234v1.27h-1.234v-1.27h-1.234v1.27h-1.235v-1.27h-1.234v1.27h-1.234v-1.27h-1.234v1.27h-1.234v-1.27h-1.235v1.27h-1.234v-1.27h-1.234v1.27h-1.234v-1.27h-1.235v1.27h-1.234v-1.27h-1.234v1.27h-1.234v-1.27h-1.235v1.27h-1.234v-1.27h-1.234v1.27h-1.234v-1.27h-1.234v1.27h-1.235v-1.27h-1.234v1.27h-1.234v-1.27h-1.234v1.27h-1.235v-1.27h-1.234v1.27h-1.234v-1.27h-1.234v1.27h-1.235v-1.27h-1.234v1.27h-3.688v-1.27h-1.234v1.27h-3.689v-1.27h-1.234v1.27h-3.688v-1.27h-1.234v1.27h-3.689v-1.27h-1.234v1.27h-3.688v-1.27h-1.235v1.27h-3.688v-1.27h-1.234v1.27h-3.689v-1.27h-1.234v1.27h-3.688v-1.27h-1.234v1.27H77.08v-26.51h130.312v1.269h1.234v-1.27h3.688v1.27h1.235v-1.27h3.688v1.27h1.234v-1.27h3.689v1.27h1.234v-1.27h3.688v1.27h1.234v-1.27h3.689v1.27h1.234v-1.27h3.688v1.27h1.235v-1.27h3.688v1.27h1.234v-1.27h3.688v1.27h1.235v-1.27h1.234v1.27h1.234v-1.27h1.234v1.27h1.235v-1.27h1.234v1.27h1.234v-1.27h1.234v1.27h1.234v-1.27h1.235v1.27h1.234v-1.27h1.234v1.27h1.234v-1.27h1.235v1.27h1.234v-1.27h1.234v1.27h1.234v-1.27h3.689v1.27h1.234v-1.27h1.234v1.27h1.234v-1.27h1.235v1.27h1.234v-1.27h1.234v1.27h1.234v-1.27h1.235v1.27h1.234v-1.27h1.234v1.27h1.234v-1.27h1.234v1.27h1.235v-1.27h1.234v1.27h1.234v-1.27h1.234v1.27h1.235v1.269h-1.235v1.27h1.235v-1.27h1.234v1.27h1.234v-1.27h-1.234v-1.27h1.234v-1.269h1.234v1.27h1.234v1.269h-1.234v1.27h1.234v-1.27h1.235v1.27h1.234v-1.27h-1.234v-1.27h1.234v-1.269h1.234v1.27h1.234v1.269h-1.234v1.27h1.234v-1.27h1.235v1.27h1.234v-1.27h-1.234v-1.27h1.234v-1.269h1.234v1.27h1.234v1.269h-1.234v1.27h1.234v-1.27h1.235v1.27h1.234v-1.27h-1.234v-1.27h1.234v-1.269h1.234v1.27h1.234v1.269h-1.234v1.27h1.234v-1.27h1.234v1.27h1.235v-1.27h-1.235v-1.27h1.235v-1.269h1.234v1.27h1.234v1.269h-1.234v1.27h1.234v-1.27h1.234v1.27h1.235v1.269h-1.235v1.27h-1.234v-1.27h-1.234v1.27h1.234v1.269h-1.234v1.27h1.234v-1.27h1.234v1.27h1.235v-1.27h-1.235v-1.27h1.235v-1.27h1.234v1.27h1.234v1.27h-1.234v1.27h1.234v-1.27h1.234v1.27h1.235v1.268h-1.235v1.27h-1.234v-1.27h-1.234v1.27h1.234v1.27h-1.234v1.269h1.234v-1.27h1.234v1.27h1.235v-1.27h-1.235v-1.27h1.235v-1.269h1.234v1.27h1.234v1.27h-1.234v1.269h1.234v-1.27h1.234v1.27h1.234v1.27h-1.234v1.269h-1.234v-1.27h-1.234v1.27h1.234v1.269h-1.234v1.27h1.234v-1.27h1.234v1.27h1.234v-1.27h-1.234v-1.27h1.234v-1.269h1.235v1.27h1.234v1.269h-1.234v1.27h1.234v-1.27h1.234v1.27h1.234v1.269h-1.234v1.27h-1.234v-1.27h-1.234v1.27h1.234v1.269h-1.234v1.27h1.234v-1.27h1.234v1.27h1.234v-1.27h-1.234V39.7h1.234v-1.27h1.235v1.27h1.234v1.27h-1.234v1.27h1.234v-1.27h1.234v1.27h1.234l-.344-.148ZM213.52 23.184h-1.234v1.27h1.234v-1.27Zm4.923 5.063h-1.235v1.27h1.235v-1.27Zm0-5.063h-1.235v1.27h1.235v-1.27Zm4.922 10.111h-1.234v1.27h1.234v-1.27Zm0-5.063h-1.234v1.27h1.234v-1.27Zm0-5.063h-1.234v1.27h1.234v-1.27Zm4.923 15.174h-1.235v1.27h1.235v-1.27Zm0-5.063h-1.235v1.27h1.235v-1.27Zm0-5.063h-1.235v1.27h1.235v-1.27Zm0-5.062h-1.235v1.269h1.235v-1.27Zm4.922 15.173h-1.234v1.27h1.234v-1.27Zm0-5.062h-1.234v1.269h1.234v-1.27Zm0-5.063h-1.234v1.27h1.234v-1.27Zm0-5.063h-1.234v1.27h1.234v-1.27Zm2.454-2.524h-1.234v1.27h1.234v-1.27Zm2.454 17.698h-1.234v1.27h1.234v-1.27Zm0-5.063h-1.234v1.27h1.234v-1.27Zm0-5.063h-1.234v1.27h1.234v-1.27Zm0-5.063h-1.234v1.27h1.234v-1.27Zm2.455 2.524h-1.235v1.27h1.235v-1.27Zm0-5.063h-1.235v1.27h1.235v-1.27Zm2.454 17.698h-1.235v1.27h1.235v-1.27Zm0-5.063h-1.235v1.27h1.235v-1.27Zm0-5.063h-1.235v1.27h1.235v-1.27Zm0-5.063h-1.235v1.27h1.235v-1.27Zm2.454 7.588h-1.234v1.269h1.234v-1.27Zm0-5.063h-1.234v1.269h1.234v-1.27Zm0-5.063h-1.234v1.27h1.234v-1.27Zm2.454 17.698h-1.234v1.27h1.234v-1.27Zm0-5.063h-1.234v1.27h1.234v-1.27Zm0-5.063h-1.234v1.27h1.234v-1.27Zm0-5.063h-1.234v1.27h1.234v-1.27Zm2.454 12.65h-1.234v1.27h1.234v-1.27Zm0-5.063h-1.234v1.27h1.234v-1.27Zm0-5.063h-1.234v1.27h1.234v-1.27Zm0-5.063h-1.234v1.27h1.234v-1.27Zm2.454 17.698h-1.234v1.27h1.234v-1.27Zm0-5.063h-1.234v1.27h1.234v-1.27Zm0-5.063h-1.234v1.27h1.234v-1.27Zm0-5.063h-1.234v1.27h1.234v-1.27Zm2.454 17.698h-1.234v1.27h1.234v-1.27Zm0-5.062h-1.234v1.269h1.234v-1.27Zm0-5.063h-1.234v1.27h1.234v-1.27Zm0-5.063h-1.234v1.27h1.234v-1.27Zm0-2.524h-1.234v1.27h1.234v-1.27Zm0-2.524h-1.234v1.27h1.234v-1.27Zm2.454 17.698h-1.234v1.27h1.234v-1.27Zm0-5.063h-1.234v1.27h1.234v-1.27Zm0-5.063h-1.234v1.27h1.234v-1.27Zm0-5.063h-1.234v1.27h1.234v-1.27Zm2.454 17.698h-1.234v1.27h1.234v-1.27Zm0-5.063h-1.234v1.27h1.234v-1.27Zm0-5.063h-1.234v1.27h1.234v-1.27Zm0-2.524h-1.234v1.27h1.234v-1.27Zm0-2.524h-1.234v1.27h1.234v-1.27Zm0-2.524h-1.234v1.27h1.234v-1.27Zm0-2.524h-1.234v1.27h1.234v-1.27Zm2.455 17.698h-1.235v1.27h1.235v-1.27Zm0-5.063h-1.235v1.27h1.235v-1.27Zm0-5.063h-1.235v1.27h1.235v-1.27Zm0-5.063h-1.235v1.27h1.235v-1.27Zm2.454 17.698h-1.235v1.27h1.235v-1.27Zm0-5.063h-1.235v1.27h1.235v-1.27Zm0-2.524h-1.235v1.27h1.235v-1.27Zm0-2.524h-1.235v1.27h1.235v-1.27Zm0-2.524h-1.235v1.27h1.235v-1.27Zm0-2.524h-1.235v1.27h1.235v-1.27Zm0-2.524h-1.235v1.27h1.235v-1.27Zm0-2.524h-1.235v1.27h1.235v-1.27Zm2.454 17.698h-1.234v1.27h1.234v-1.27Zm0-5.063h-1.234v1.27h1.234v-1.27Zm0-5.063h-1.234v1.27h1.234v-1.27Zm0-5.063h-1.234v1.27h1.234v-1.27Zm2.454 17.698h-1.234v1.27h1.234v-1.27Zm0-2.524h-1.234v1.27h1.234v-1.27Zm0-2.524h-1.234v1.27h1.234v-1.27Zm0-2.524h-1.234v1.27h1.234v-1.27Zm0-2.524h-1.234v1.27h1.234v-1.27Zm0-2.524h-1.234v1.27h1.234v-1.27Zm0-2.524h-1.234v1.27h1.234v-1.27Zm0-2.524h-1.234v1.27h1.234v-1.27Zm0-2.524h-1.234v1.27h1.234v-1.27Zm2.454 17.698h-1.234v1.27h1.234v-1.27Zm0-5.063h-1.234v1.27h1.234v-1.27Zm0-5.063h-1.234v1.27h1.234v-1.27Zm0-5.063h-1.234v1.27h1.234v-1.27Zm2.454 17.698h-1.234v1.27h1.234v-1.27Zm0-2.524h-1.234v1.27h1.234v-1.27Zm0-2.524h-1.234v1.27h1.234v-1.27Zm0-2.524h-1.234v1.27h1.234v-1.27Zm0-2.524h-1.234v1.27h1.234v-1.27Zm0-2.524h-1.234v1.27h1.234v-1.27Zm0-2.524h-1.234v1.269h1.234v-1.27Zm0-2.524h-1.234v1.269h1.234v-1.27Zm0-2.525h-1.234v1.27h1.234v-1.27Zm2.454 17.699h-1.234v1.269h1.234v-1.27Zm0-5.063h-1.234v1.269h1.234v-1.27Zm0-5.063h-1.234v1.27h1.234v-1.27Zm0-5.063h-1.234v1.27h1.234v-1.27Zm0-2.524h-1.234v1.27h1.234v-1.27Zm2.454 20.236h-1.234v1.27h1.234v-1.27Zm0-2.523h-1.234v1.269h1.234v-1.27Zm0-2.525h-1.234v1.27h1.234v-1.27Zm0-2.524h-1.234v1.27h1.234v-1.27Zm0-2.524h-1.234v1.27h1.234v-1.27Zm0-2.524h-1.234v1.27h1.234v-1.27Zm0-2.524h-1.234v1.27h1.234v-1.27Zm0-2.524h-1.234v1.27h1.234v-1.27Zm0-2.524h-1.234v1.27h1.234v-1.27Zm2.454 17.698h-1.234v1.27h1.234v-1.27Zm0-5.063h-1.234v1.27h1.234v-1.27Zm0-5.063h-1.234v1.27h1.234v-1.27Zm0-2.524h-1.234v1.27h1.234v-1.27Zm0-2.524h-1.234v1.27h1.234v-1.27Zm0-2.524h-1.234v1.27h1.234v-1.27Zm2.455 20.237h-1.235v1.27h1.235v-1.27Zm0-2.524h-1.235v1.27h1.235v-1.27Zm0-2.524h-1.235V37h1.235v-1.27Zm0-2.524h-1.235v1.269h1.235v-1.27Zm0-2.524h-1.235v1.269h1.235v-1.27Zm0-2.525h-1.235v1.27h1.235v-1.27Zm0-2.524h-1.235v1.27h1.235v-1.27Zm0-2.524h-1.235v1.27h1.235v-1.27Zm0-2.524h-1.235v1.27h1.235v-1.27Zm2.454 17.698h-1.235v1.27h1.235v-1.27Zm0-5.063h-1.235v1.27h1.235v-1.27Zm0-2.524h-1.235v1.27h1.235v-1.27Zm0-2.524h-1.235v1.27h1.235v-1.27Zm0-2.524h-1.235v1.27h1.235v-1.27Zm0-2.524h-1.235v1.27h1.235v-1.27Zm0-2.524h-1.235v1.27h1.235V20.6Zm2.454 20.237h-1.234v1.27h1.234v-1.27Zm0-2.524h-1.234v1.27h1.234v-1.27Zm0-2.524h-1.234v1.27h1.234v-1.27Zm0-2.524h-1.234v1.269h1.234v-1.27Zm0-2.524h-1.234v1.269h1.234v-1.27Zm0-2.524h-1.234v1.269h1.234v-1.27Zm0-2.525h-1.234v1.27h1.234v-1.27Zm0-2.524h-1.234v1.27h1.234v-1.27Zm0-2.524h-1.234v1.27h1.234v-1.27Zm2.454 17.698h-1.234v1.27h1.234v-1.27Zm0-2.524h-1.234v1.27h1.234v-1.27Zm0-2.524h-1.234v1.27h1.234v-1.27Zm0-2.524h-1.234v1.27h1.234v-1.27Zm0-2.524h-1.234v1.27h1.234v-1.27Zm0-2.524h-1.234v1.27h1.234v-1.27Zm0-2.524h-1.234v1.27h1.234v-1.27Zm2.454 17.698h-1.234v1.27h1.234v-1.27Zm0-2.524h-1.234v1.27h1.234v-1.27Zm0-2.524h-1.234v1.27h1.234v-1.27Zm0-2.524h-1.234v1.27h1.234v-1.27Zm0-2.524h-1.234v1.269h1.234V30.8Zm0-2.524h-1.234v1.269h1.234v-1.27Zm0-2.525h-1.234v1.27h1.234v-1.27Zm0-2.524h-1.234v1.27h1.234v-1.27Zm2.454 17.698h-1.234v1.27h1.234v-1.27Zm0-2.524h-1.234v1.27h1.234v-1.27Zm0-2.524h-1.234v1.27h1.234v-1.27Zm0-2.524h-1.234v1.27h1.234v-1.27Zm0-2.524h-1.234v1.27h1.234v-1.27Zm0-2.524h-1.234v1.27h1.234v-1.27Zm2.454 12.65h-1.234v1.27h1.234v-1.27Zm0-2.524h-1.234v1.27h1.234v-1.27Zm0-2.524h-1.234v1.27h1.234v-1.27Zm0-2.524h-1.234v1.27h1.234v-1.27Zm0-2.524h-1.234v1.27h1.234v-1.27Zm0-2.524h-1.234v1.269h1.234v-1.27Zm0-5.063h-1.234v1.27h-1.234v-1.27h-1.235v1.27h1.235v1.268h-1.235v1.27h1.235v-1.27h1.234v1.27h1.234v-1.27h-1.234v-1.269h1.234v-1.27Zm2.454 17.698h-1.234v1.27h1.234v-1.27Zm0-2.524h-1.234v1.269h1.234v-1.27Zm0-2.525h-1.234v1.27h1.234v-1.27Zm0-2.523h-1.234v1.269h1.234v-1.27Zm2.454 7.587h-1.234v1.269h1.234v-1.27Zm0-2.525h-1.234v1.27h1.234v-1.27Zm0-2.524h-1.234v1.27h1.234v-1.27Zm0-2.524h-1.234v1.27h1.234v-1.27Zm0-5.063h-1.234v1.27h-1.234v-1.27h-1.234v1.27h1.234v1.27h-1.234v1.269h1.234v-1.27h1.234v1.27h1.234v-1.27h-1.234v-1.27h1.234V28.35Zm0-5.063h-1.234v1.27h-1.234v-1.27h-1.234v1.27h1.234v1.27h-1.234v1.269h1.234v-1.27h1.234v1.27h1.234v-1.27h-1.234v-1.27h1.234v-1.269Zm2.454 17.699h-1.234v1.269h1.234v-1.27Zm0-2.525h-1.234v1.27h1.234v-1.27Zm2.455 2.525h-1.235v1.269h1.235v-1.27Zm0-2.525h-1.235v1.27h1.235v-1.27Zm0-5.063h-1.235v1.27h-1.234v-1.27h-1.234v1.27h1.234v1.27h-1.234v1.269h1.234v-1.27h1.234v1.27h1.235v-1.27h-1.235v-1.27h1.235v-1.269Zm0-5.062h-1.235v1.269h-1.234v-1.27h-1.234v1.27h1.234v1.27h-1.234v1.269h1.234v-1.27h1.234v1.27h1.235v-1.27h-1.235v-1.269h1.235v-1.27Zm0-5.063h-1.235v1.27h-1.234v-1.27h-1.234v1.27h1.234v1.268h-1.234v1.27h1.234v-1.27h1.234v1.27h1.235v-1.27h-1.235v-1.269h1.235v-1.27Zm4.922 15.174h-1.234v1.269h-1.234v-1.27h-1.235v1.27h1.235v1.27h-1.235v1.269h1.235v-1.27h1.234v1.27h1.234v-1.27h-1.234v-1.269h1.234v-1.27Zm0-5.063h-1.234v1.27h-1.234v-1.27h-1.235v1.27h1.235v1.268h-1.235v1.27h1.235v-1.27h1.234v1.27h1.234v-1.27h-1.234v-1.269h1.234v-1.27Zm0-5.063h-1.234v1.27h-1.234v-1.27h-1.235v1.27h1.235v1.269h-1.235v1.27h1.235v-1.27h1.234v1.27h1.234v-1.27h-1.234v-1.27h1.234v-1.27Zm0-5.063h-1.234v1.27h-1.234v-1.27h-1.235v1.27h1.235v1.269h-1.235v1.27h1.235v-1.27h1.234v1.27h1.234v-1.27h-1.234v-1.27h1.234v-1.27Zm4.923 15.174h-1.234v1.27h-1.235v-1.27h-1.234v1.27h1.234v1.269h-1.234v1.27h1.234v-1.27h1.235v1.27h1.234v-1.27h-1.234V39.7h1.234v-1.27Zm0-5.063h-1.234v1.27h-1.235v-1.27h-1.234v1.27h1.234v1.269h-1.234v1.27h1.234v-1.27h1.235v1.27h1.234v-1.27h-1.234v-1.27h1.234V33.37Zm0-5.063h-1.234v1.27h-1.235v-1.27h-1.234v1.27h1.234v1.269h-1.234v1.27h1.234v-1.27h1.235v1.27h1.234v-1.27h-1.234v-1.27h1.234v-1.269Zm4.922 10.111h-1.234v1.27h-1.234v-1.27h-1.234v1.27h1.234v1.269h-1.234v1.27h1.234v-1.27h1.234v1.27h1.234v-1.27h-1.234v-1.27h1.234v-1.269Zm0-5.063h-1.234v1.27h-1.234v-1.27h-1.234v1.27h1.234v1.269h-1.234v1.27h1.234v-1.27h1.234v1.27h1.234v-1.27h-1.234v-1.27h1.234v-1.269Zm4.923 5.063h-1.234v1.27h-1.235v-1.27h-1.234v1.27h1.234v1.269h-1.234v1.27h1.234v-1.27h1.235v1.27h1.234v-1.27h-1.234v-1.27h1.234v-1.269Zm13.519 3.794v-1.27h-1.234v1.27h-1.234v1.269h1.234v1.27h1.234v-1.27h1.234v-1.27h-1.234Zm103.259-6.318h1.234v-1.27h-1.234v1.27Zm-98.336 6.318v-1.27h-1.235v1.27h-1.234v1.269h1.234v1.27h1.235v-1.27h1.234v-1.27h-1.234Zm41.791 0v1.269h1.234v-1.27h-1.234Zm-2.454 0v1.269h1.234v-1.27h-1.234Zm4.923 0v1.269h1.234v-1.27h-1.234Zm2.454 0v1.269h1.234v-1.27h-1.234Zm-12.299 0v1.269h1.234v-1.27h-1.234Zm-2.455 0v1.269h1.235v-1.27h-1.235Zm4.923 0v1.269h1.234v-1.27h-1.234Zm-7.377 0v-1.27h-1.234v1.27h-1.234v1.269h1.234v1.27h1.234v-1.27h1.235v-1.27h-1.235Zm19.662 0v1.269h1.234v-1.27h-1.234Zm41.792-17.698v1.269h1.234v-1.27h-1.234Zm2.454-1.27h1.234v-1.27h-1.234v1.27Zm0 2.524h1.234v-1.27h-1.234v1.27Zm6.142 17.698v-1.27h-1.234v1.27h1.234Zm-6.142-22.76h1.234v-1.27h-1.234v1.27Zm0 10.11h1.234v-1.27h-1.234v1.27Zm1.234-2.524v-1.27h-1.234v1.27h1.234Zm-3.688 0h1.234v-1.27h-1.234v1.27Zm-8.611 12.65v1.27h1.234v-1.27h-1.234Zm13.519 2.524h1.234v-1.27h-1.234v1.27Zm1.234-6.317h1.234v-1.27h-1.234v1.27Zm2.454 1.27v-1.27h-1.234v1.27h1.234Zm-3.688 0h1.234v-1.27h-1.234v1.27Zm-4.923-8.857v1.27h1.234v-1.27h-1.234Zm4.923 5.063v1.269h1.234v-1.27h-1.234Zm2.454 6.317h1.234v-1.27h-1.234v1.27Zm-1.234 1.27h1.234v-1.27h-1.234v1.27Zm-1.235-2.524v1.269h1.235v-1.27h-1.235Zm-3.688-12.65h1.234v-1.27h-1.234v1.27Zm-3.688 15.174v1.269h1.234v-1.27h-1.234Zm2.454 1.269h1.234v-1.27h-1.234v1.27Zm-1.234-3.793h-1.235v1.269h1.235v-1.27Zm2.454 2.524h1.234v-1.27h-1.234v1.27Zm-8.611 0v1.269h1.234v-1.27h-1.234Zm8.611-10.111h1.234v-1.27h-1.234v1.27Zm-4.923 8.856v1.27h1.234v-1.27h-1.234Zm-1.234 2.524h1.234v-1.27h-1.234v1.27Zm4.922-3.793v1.269h1.235v-1.27h-1.235Zm2.455-3.794h1.234v-1.27h-1.234v1.27Zm1.234-2.524v-1.27h-1.234v1.27h1.234Zm-3.689 1.27v1.269h1.235v-1.27h-1.235Zm0-1.27h1.235v-1.27h-1.235v1.27Zm2.455 7.587h1.234v-1.27h-1.234v1.27Zm-1.235-3.794h1.235v-1.269h-1.235v1.27Zm2.454 1.27v-1.27h-1.234v1.27h1.234Zm-3.688 0h1.234v-1.27h-1.234v1.27Zm71.298-7.587h1.235v-1.27h-1.235v1.27Zm-9.83 5.063h1.234v-1.27h-1.234v1.27Zm0-5.063h1.234v-1.27h-1.234v1.27Zm0-5.063h1.234v-1.27h-1.234v1.27Zm0 15.174h1.234v-1.27h-1.234v1.27Zm0 2.524h1.234v-1.27h-1.234v1.27Zm-2.454-15.174h1.234v-1.27h-1.234v1.27Zm2.454-7.587h1.234v-1.27h-1.234v1.27Zm-2.454 12.65h1.234v-1.27h-1.234v1.27Zm0-10.111h1.234v-1.27h-1.234v1.27Zm7.376 2.524h1.234v-1.27h-1.234v1.27Zm-2.454 17.698h1.234v-1.27h-1.234v1.27Zm0-20.222h1.234v-1.27h-1.234v1.27Zm2.454 12.65h1.234v-1.27h-1.234v1.27Zm0-5.063h1.234v-1.27h-1.234v1.27Zm0 10.11h1.234v-1.268h-1.234v1.269Zm-2.454-2.523h1.234v-1.27h-1.234v1.27Zm0-5.063h1.234v-1.27h-1.234v1.27Zm0-5.063h1.234v-1.27h-1.234v1.27Zm-4.922 10.111h1.234v-1.27h-1.234v1.27Zm-4.923-10.111h1.234v-1.27h-1.234v1.27Zm0 10.111h1.234v-1.27h-1.234v1.27Zm4.923 5.063h1.234v-1.27h-1.234v1.27Zm-4.923-10.111h1.234v-1.27h-1.234v1.27Zm-2.454-12.65h1.234v-1.27h-1.234v1.27Zm0 12.65h1.234v-1.27h-1.234v1.27Zm0-2.524h1.234v-1.27h-1.234v1.27Zm0-5.063h1.234v-1.27h-1.234v1.27Zm2.454 17.698h1.234v-1.27h-1.234v1.27Zm2.454-12.65h1.234v-1.27h-1.234v1.27Zm-2.454-7.587h1.234v-1.27h-1.234v1.27Zm2.454-2.524h1.234v-1.27h-1.234v1.27Zm0 15.174h1.234v-1.27h-1.234v1.27Zm0-10.111h1.234v-1.27h-1.234v1.27Zm0 12.65h1.234v-1.27h-1.234v1.27Zm0 5.063h1.234v-1.27h-1.234v1.27Zm0-2.524h1.234V39.7h-1.234v1.27Zm17.208-17.698h1.234v-1.27h-1.234v1.27Zm9.83 5.063h1.235v-1.27h-1.235v1.27Zm0-5.063h1.235v-1.27h-1.235v1.27Zm4.923 20.222h1.234v-1.27h-1.234v1.27Zm-4.923-10.111h1.235v-1.27h-1.235v1.27Zm-4.922-10.111h1.234v-1.27h-1.234v1.27Zm9.831 15.174h1.234v-1.27h-1.234v1.27Zm-4.923 0h1.234v-1.27h-1.234v1.27Zm-2.454 2.524h1.234V39.7h-1.234v1.27Zm2.454 2.524h1.234v-1.27h-1.234v1.27Zm-14.753 0h1.234v-1.27h-1.234v1.27Zm29.506 0h1.235v-1.27h-1.235v1.27Zm0-5.063h1.235v-1.27h-1.235v1.27Zm4.923 3.793v1.27h1.234v-1.27h-1.234Zm-14.753-8.856h1.234v-1.27h-1.234v1.27Zm4.922 0h1.234v-1.27h-1.234v1.27Zm-14.753-5.063h1.234v-1.27h-1.234v1.27Zm14.753 15.174h1.234v-1.27h-1.234v1.27Zm0-5.063h1.234v-1.27h-1.234v1.27Zm-4.922-10.111h1.234v-1.27h-1.234v1.27Zm-17.208 12.65h1.234v-1.27h-1.234v1.27Zm0-5.063h1.234v-1.27h-1.234v1.27Zm-2.454-12.65h1.234v-1.27h-1.234v1.27ZM319.075 20.72v1.27h1.235v-1.27h1.234v-1.27h-1.234V18.18h-1.235v1.27h-1.234v1.27h1.234Zm188.077 17.698h1.234v-1.27h-1.234v1.27Zm4.923 5.063h1.234v-1.27h-1.234v1.27Zm-4.923-15.174h1.234v-1.27h-1.234v1.27Zm0 5.063h1.234v-1.27h-1.234v1.27Zm-17.207 2.524h1.234v-1.27h-1.234v1.27Zm24.584 0h1.234v-1.27h-1.234v1.27Zm2.454 7.587h1.234v-1.27h-1.234v1.27Zm0-5.063h1.234v-1.27h-1.234v1.27Zm-2.454 2.524h1.234v-1.27h-1.234v1.27Zm-2.454-2.524h1.234v-1.27h-1.234v1.27Zm4.922-5.063h1.234v-1.27h-1.234v1.27Zm-4.922 0h1.234v-1.27h-1.234v1.27Zm0-5.063h1.234v-1.27h-1.234v1.27Zm-39.338 10.111h1.234v-1.27h-1.234v1.27Zm0-10.11h1.234v-1.27h-1.234v1.27Zm0 5.062h1.234v-1.27h-1.234v1.27Zm0-10.11h1.234v-1.27h-1.234v1.27Zm0 12.649h1.234v-1.27h-1.234v1.27Zm2.454 7.587h1.234v-1.27h-1.234v1.27Zm-4.922-22.76h1.234v-1.27h-1.234v1.27Zm2.454 22.76h1.234v-1.27h-1.234v1.27Zm0-2.524h1.234v-1.27h-1.234v1.27Zm-7.377-17.698h1.234v-1.27h-1.234v1.27Zm9.831 7.587h1.234v-1.27h-1.234v1.27Zm0-2.524h1.234v-1.27h-1.234v1.27Zm0-2.524h1.234v-1.27h-1.234v1.27Zm0-2.524h1.234v-1.27h-1.234v1.27Zm-4.923 0h1.234v-1.27h-1.234v1.27Zm4.923 12.65h1.234v-1.27h-1.234v1.27Zm0 2.524h1.234v-1.27h-1.234v1.27Zm0-5.063h1.234v-1.27h-1.234v1.27Zm0 7.587h1.234V39.7h-1.234v1.27ZM467.8 23.273h1.234v-1.27H467.8v1.27Zm0 10.11h1.234v-1.269H467.8v1.27Zm0 2.525h1.234v-1.27H467.8v1.27Zm0-5.063h1.234v-1.27H467.8v1.27Zm0 7.587h1.234v-1.27H467.8v1.27Zm-2.454-17.698h1.234v-1.27h-1.234v1.27Zm2.454 7.587h1.234v-1.27H467.8v1.27Zm0 15.174h1.234v-1.27H467.8v1.27Zm0-2.524h1.234V39.7H467.8v1.27Zm22.13-2.524h1.234v-1.27h-1.234v1.27Zm-19.661-12.65h1.234v-1.27h-1.234v1.27Zm0 5.063h1.234v-1.27h-1.234v1.27Zm0 2.524h1.234v-1.27h-1.234v1.27Zm0-5.063h1.234v-1.27h-1.234v1.27Zm0 7.587h1.234v-1.27h-1.234v1.27Zm0 7.587h1.234v-1.27h-1.234v1.27Zm0-2.524h1.234V39.7h-1.234v1.27Zm0-2.524h1.234v-1.27h-1.234v1.27Zm4.922-17.698h1.234v-1.27h-1.234v1.27Zm9.831 10.11h1.234V29.59h-1.234v1.27Zm0 2.525h1.234v-1.27h-1.234v1.27Zm0 2.524h1.234v-1.27h-1.234v1.27Zm0-7.587h1.234v-1.27h-1.234v1.27Zm-2.454-5.063h1.234v-1.27h-1.234v1.27Zm2.454 20.222h1.234v-1.27h-1.234v1.27Zm0-17.698h1.234v-1.27h-1.234v1.27Zm-2.454 2.524h1.234v-1.27h-1.234v1.27Zm2.454 10.111h1.234v-1.27h-1.234v1.27Zm0 2.524h1.234v-1.27h-1.234v1.27Zm4.923 2.524h1.234v-1.27h-1.234v1.27Zm-2.455-20.222h1.235v-1.27h-1.235v1.27Zm-2.454-2.524h1.235v-1.27h-1.235v1.27Zm2.454 7.587h1.235v-1.27h-1.235v1.27Zm2.455 12.65h1.234v-1.27h-1.234v1.27Zm-2.455-7.587h1.235v-1.27h-1.235v1.27Zm0 10.111h1.235v-1.27h-1.235v1.27Zm0-5.063h1.235v-1.27h-1.235v1.27Zm-7.376-12.65h1.234v-1.27h-1.234v1.27Zm-2.454 2.524h1.234v-1.27h-1.234v1.27Zm0-5.063h1.234V21.96h-1.234v1.27Zm2.454 20.222h1.234v-1.269h-1.234v1.27Zm0-5.062h1.234v-1.27h-1.234v1.27Zm0 2.524h1.234v-1.27h-1.234v1.27Zm-2.454 0h1.234v-1.27h-1.234v1.27Zm0-2.524h1.234v-1.27h-1.234v1.27Zm0-5.063h1.234v-1.27h-1.234v1.27Zm2.454-12.65h1.234v-1.27h-1.234v1.27Zm0 2.524h1.234v-1.27h-1.234v1.27Zm2.454 15.174h1.234v-1.27h-1.234v1.27Zm0 5.063h1.234v-1.27h-1.234v1.27Zm-4.923 0h1.234v-1.27h-1.234v1.27Zm2.454-12.65h1.235v-1.27h-1.235v1.27Zm0 2.524h1.235v-1.27h-1.235v1.27Zm0-5.063h1.235v-1.27h-1.235v1.27Zm0 7.587h1.235v-1.27h-1.235v1.27Zm-63.921 5.063h1.234v-1.27h-1.234v1.27Zm-57.78-2.524v-1.27h-1.234v-1.269h-1.234v1.27h-1.234v1.269h1.234v1.27h1.234v-1.27h1.234Zm-4.922 0v-1.27h-1.234v-1.269h-1.235v1.27h-1.234v1.269h1.234v1.27h1.235v-1.27h1.234Zm12.299-15.174v-1.27h-1.234v1.27h1.234Zm-12.299 15.174v1.27h1.234v-1.27h-1.234Zm-6.143-1.27v-1.269h-1.234v1.27h-1.234v1.269h1.234v1.27h1.234v-1.27h1.235v-1.27h-1.235Zm-12.299-6.317h1.234v-1.27h-1.234v-1.269H333.8v1.27h-1.234v1.269h1.234v1.27h1.234v-1.27Zm-2.454-2.524h1.234v-1.27h-1.234v-1.27h-1.234v1.27h-1.234v1.27h1.234v1.27h1.234v-1.27Zm7.377 7.587h1.234v-1.27h-1.234v-1.27h-1.234v1.27h-1.235v1.27h1.235v1.27h1.234v-1.27Zm-2.454-2.524h1.234v-1.27h-1.234v-1.27h-1.235v1.27h-1.234v1.27h1.234v1.27h1.235v-1.27Zm38.103 5.063v1.269h1.234v-1.27h-1.234Zm-2.454 0v-1.27h-1.234v-1.27h-1.235v1.27h-1.234v1.27h1.234v1.269h1.235v-1.27h1.234Zm0 0v1.269h1.234v-1.27h-1.234Zm-43.026-12.65h1.234v-1.27h-1.234v-1.27h-1.234v1.27h-1.234v1.27h1.234v1.27h1.234v-1.27Zm28.272 12.65v1.269h1.235v-1.27h-1.235Zm9.831 0v1.269h1.235v-1.27h-1.235Zm-4.922 0v-1.27h-1.235v-1.27h-1.234v1.27h-1.234v1.27h1.234v1.269h1.234v-1.27h1.235Zm4.922 0v-1.27h-1.234v-1.27h-1.234v1.27h-1.234v1.27h1.234v1.269h1.234v-1.27h1.234Zm-4.922 0v1.269h1.234v-1.27h-1.234Zm-23.35-13.905v-1.27h-1.234v1.27h1.234Zm18.441 1.27v-1.27h-1.234v1.27h1.234Zm-3.688-1.27v-1.27h-1.234v1.27h1.234Zm0 1.27h1.234v-1.27h-1.234v1.27Zm-20.896 0v1.269h1.235v-1.27h1.234v-1.269h-1.234v-1.27h-1.235v1.27h-1.234v1.27h1.234Zm25.819-1.27v-1.27h-1.235v1.27h1.235Zm3.688-1.27v-1.269h-1.234v1.27h1.234Zm-2.454 0v-1.269h-1.234v1.27h1.234Zm-11.065 2.525h1.234v-1.27h-1.234v1.27Zm3.688 0v-1.27h-1.234v1.27h1.234Zm-13.519 0h1.234v-1.27h-1.234v1.27Zm9.831-1.27v-1.27h-1.234v1.27h1.234Zm-6.143 1.27v-1.27h-1.234v1.27h1.234Zm-4.922 0v-1.27h-1.234v1.27h1.234Zm40.572 12.65h-1.235v1.269h1.235v-1.27Zm-34.415-13.905v-1.27h-1.235v1.27h1.235Zm67.61-1.27v-1.269h-1.234v1.27h1.234Zm-67.61 2.525h1.234v-1.27h-1.234v1.27Zm-2.454 11.38v-1.27h-1.235v1.27h-1.234v1.27h1.234v1.269h1.235v-1.27h1.234v-1.269h-1.234Zm79.909-2.524h-1.234v1.27h1.234v-1.27Zm1.234 3.794h1.234v-1.27h-1.234v1.27Zm-2.454-1.27v1.27h1.234v-1.27h-1.234Zm2.454-2.524v-1.27h-1.234v1.27h1.234Zm1.234 1.27v-1.27h-1.234v1.27h1.234Zm-4.922 0v1.269h1.234v-1.27h-1.234Zm-3.689 1.269v1.27h1.235v-1.27h-1.235Zm-2.454 1.27h1.235v-1.27h-1.235v1.27Zm4.923 0h1.234v-1.27h-1.234v1.27Zm-3.688-2.525v1.27h1.234v-1.27h-1.234Zm1.234-8.856v-1.27h-1.234v1.27h1.234Zm-1.234-1.27v-1.269h-1.235v1.27h1.235Zm7.376 7.587V32.07h-1.234v1.27h1.234Zm-4.922-5.063v-1.269h-1.235v1.27h1.235Zm-3.689-3.793v-1.27h-1.234v1.27h1.234Zm7.377 7.587V30.8h-1.234v1.27h1.234Zm-2.454-2.524v-1.27h-1.234v1.27h1.234Zm1.234 1.27v-1.27h-1.234v1.27h1.234Zm-25.818 8.856v1.27h1.234v-1.27h-1.234Zm-14.754 0v1.27h1.235v-1.27h-1.235Zm18.442 0h1.234v-1.27h-1.234v1.27Zm-8.611 0v1.27h1.234v-1.27h-1.234Zm7.377 1.27h1.234v-1.27h-1.234v1.27Zm-4.923-1.27v1.27h1.235v-1.27h-1.235Zm-9.831 0v1.27h1.235v-1.27h-1.235Zm2.455 0v1.27h1.234v-1.27h-1.234Zm2.454 0v1.27h1.234v-1.27H386.7Zm23.35-3.794v1.27h1.234v-1.27h-1.234Zm-1.235 2.524h1.235v-1.27h-1.235v1.27Zm-2.454-1.27v1.27h1.234v-1.27h-1.234Zm-1.234-1.268v1.269h1.234v-1.27h-1.234Zm6.143 1.269v1.27h1.234v-1.27h-1.234Zm-9.831 0v1.27h1.234v-1.27h-1.234Zm-1.235-1.27v1.27h1.235v-1.27h-1.235Zm-1.234 2.525h1.234v-1.27h-1.234v1.27Zm4.923 0h1.234v-1.27h-1.234v1.27Zm-55.325-12.65v-1.27h-1.235v1.27h1.235Zm31.961 12.65v1.269h1.234v-1.27h-1.234Zm2.454 0v1.269h1.234v-1.27h-1.234Zm4.922 0v1.269h1.234v-1.27h-1.234Zm-2.454 0v1.269h1.234v-1.27h-1.234Zm-4.922-1.27h-1.235v1.27h1.235v-1.27Zm-7.377-2.524h-1.234v1.27h1.234v-1.27Zm1.234 1.27h-1.234v1.269h1.234v-1.27Zm-4.922-1.27v1.27h1.234v-1.27h-1.234Zm36.883 0v1.27h1.234v-1.27h-1.234Zm-29.507 2.524v1.27h1.234v-1.27h-1.234Zm22.13-2.524v1.27h1.234v-1.27h-1.234Zm-30.726-11.38v-1.27h-1.235v1.27h1.235Zm29.506 13.904h1.235v-1.27h-1.235v1.27Zm6.143-2.524v1.27h1.234v-1.27h-1.234Zm-11.065 5.063h1.234v-1.27h-1.234v1.27Zm2.454-3.793v1.269h1.234v-1.27h-1.234Zm-4.923 2.524v1.269h1.235v-1.27h-1.235Zm3.689 0h1.234v-1.27h-1.234v1.27Zm-19.662-1.27v1.27h1.234v-1.27h-1.234Zm-24.584-2.524v1.27h1.234v-1.27h-1.234Zm-1.234 0h-1.235v1.27h1.235v-1.27Zm4.922 1.27v1.269h1.235v-1.27h-1.235Zm0-1.27h-1.234v1.27h1.234v-1.27Zm-4.922 1.27v1.269h1.234v-1.27h-1.234Zm19.661 0v1.269h1.235v-1.27h-1.235Zm-23.35-1.27v-1.27h-1.234v1.27h-1.234v1.27h1.234v1.269h1.234v-1.27h1.235v-1.269h-1.235Zm-2.454-1.27h1.234v-1.269h-1.234v-1.27h-1.234v1.27h-1.234v1.27h1.234v1.27h1.234v-1.27Zm-2.454-2.523h1.234v-1.27h-1.234v-1.27h-1.234v1.27h-1.234v1.27h1.234v1.269h1.234V30.8Zm23.35 5.063v1.269h1.234v-1.27h-1.234Zm-8.611-1.27v1.27h1.234v-1.27h-1.234Zm8.611 0h-1.234v1.27h1.234v-1.27Zm4.923 0h-1.235v1.27h1.235v-1.27Zm-3.689 0v1.27h1.235v-1.27h-1.235Zm-4.922 0v1.27h1.234v-1.27h-1.234Zm-1.235 0h-1.234v1.27h1.234v-1.27Zm0 1.27v1.269h1.235v-1.27h-1.235Zm43.026-1.27v1.27h1.235v-1.27h-1.235Zm-11.065-8.856v-1.27h-1.234v1.27h1.234Zm-2.454-1.27h-1.234v1.27h1.234v-1.27Zm-1.234 2.524v-1.27h-1.234v1.27h1.234Zm4.923 0v-1.27h-1.235v1.27h1.235Zm1.234-2.524h-1.234v1.27h1.234v-1.27Zm-7.377 1.27v-1.27h-1.234v1.27h1.234Zm11.065 1.27v-1.27h-1.234v1.27h1.234Zm1.234-2.525h-1.234v1.27h1.234v-1.27Zm-2.454 1.27v-1.27h-1.234v1.27h1.234Zm-13.519 1.269v-1.27h-1.234v1.27h1.234Zm1.234-2.524h-1.234v1.27h1.234v-1.27Zm-6.142 0v-1.27h-1.234v1.27h1.234Zm-3.688-1.27V21.96h-1.235v1.27h1.235Zm-2.455 0V21.96h-1.234v1.27h1.234Zm3.689 1.27v-1.27h-1.234v1.27h1.234Zm25.818 1.27v-1.27h-1.234v1.27h1.234Zm-20.896-1.27v-1.27h-1.234v1.27h1.234Zm1.235 1.27v-1.27h-1.235v1.27h1.235Zm27.038-1.27h-1.234v1.27h1.234v-1.27Zm6.142 10.11v1.27h1.235v-1.27h-1.235Zm2.454 1.27h1.235v-1.27h-1.235v1.27Zm1.235-2.524v-1.27h-1.235v1.27h1.235Zm-1.235-1.27v-1.269h-1.234v1.27h1.234Zm-1.234 0h-1.234v1.27h1.234v-1.27Zm0-1.269v-1.27h-1.234v1.27h1.234Zm-3.688 5.063h1.234v-1.27h-1.234v1.27Zm1.234-2.524v1.27h1.234v-1.27h-1.234Zm-3.688 1.27v1.269h1.234v-1.27h-1.234Zm-2.454-7.587v-1.27h-1.235v1.27h1.235Zm-1.235-1.27v-1.27h-1.234v1.27h1.234Zm-2.454-1.27h-1.234v1.27h1.234v-1.27Zm-1.234 2.525v-1.27h-1.234v1.27h1.234Zm8.611-1.27v-1.269h-1.234v1.27h1.234Zm2.454 2.524v-1.269h-1.234v1.27h1.234Zm-1.234-1.269v-1.27h-1.234v1.27h1.234Zm2.454 2.524v-1.27h-1.234v1.27h1.234Zm-55.325 11.38v1.27h1.234v-1.27h-1.234Zm63.922-12.65v-1.269H421.1v1.27h1.235Zm-3.689-3.793v-1.27h-1.234v1.27h1.234Zm4.923 5.063v-1.27h-1.234v1.27h1.234Zm-3.689-3.793v-1.27h-1.234v1.27h1.234Zm1.235 1.27v-1.27h-1.235v1.27h1.235Zm6.142 6.317v-1.27h-1.234v1.27h1.234Zm1.234 1.27v-1.27h-1.234v1.27h1.234Zm1.235 1.269v-1.27h-1.235v1.27h1.235Zm-4.923-5.063v-1.27h-1.234v1.27h1.234Zm1.234 1.269V30.8h-1.234v1.27h1.234Zm-14.753-10.111v-1.27h-1.234v1.27h1.234Zm-3.689-2.524h-1.234v1.27h1.234v-1.27Zm2.455 1.27v-1.27h-1.235v1.27h1.235Zm-3.689 1.269v-1.27h-1.234v1.27h1.234Zm9.831 0v-1.27h-1.234v1.27h1.234Zm-3.688-2.524h-1.234v1.27h1.234v-1.27Zm-7.377 1.27v-1.27h-1.234v1.27h1.234Zm9.831 0v-1.27h-1.234v1.27h1.234Zm2.454 2.523v-1.27h-1.234v1.27h1.234Zm0 15.174v1.27h1.234v-1.27h-1.234Zm3.688 2.524h1.235v-1.27H421.1v1.27Zm-83.597-12.65h1.234v-1.27h-1.234v-1.269h-1.235v1.27h-1.234v1.27h1.234v1.269h1.235v-1.27Zm81.129 11.38v1.27h1.234v-1.27h-1.234Zm-4.923 0v1.27h1.234v-1.27h-1.234Zm-2.454 0v1.27h1.234v-1.27h-1.234Zm-4.922 0v1.27h1.234v-1.27h-1.234Zm2.454 0v1.27h1.234v-1.27h-1.234Zm19.661 0v1.27h1.235v-1.27h-1.235Zm1.235-2.523h-1.235v1.27h1.235v-1.27Zm1.234 3.793h1.234v-1.27h-1.234v1.27Zm0-3.793v-1.27h-1.234v1.27h1.234Zm1.234 1.27v-1.27h-1.234v1.27h1.234Zm-6.143 2.523h1.235v-1.27h-1.235v1.27Zm-2.454-1.27v1.27h1.235v-1.27h-1.235Zm3.689-1.269v1.27h1.234v-1.27h-1.234Zm-4.923 0v1.27h1.234v-1.27h-1.234Zm-51.637-17.698v-1.27h-1.234v1.27h1.234Zm-14.753 0v-1.27h-1.234v1.27h1.234Zm4.923 0v-1.27h-1.235v1.27h1.235Zm-2.455 0v-1.27h-1.234v1.27h1.234Zm44.261-1.27h-1.235v1.27h1.235v-1.27Zm-36.884 1.27v-1.27h-1.234v1.27h1.234Zm2.454 0v-1.27h-1.234v1.27h1.234Zm4.923 0v-1.27h-1.234v1.27h1.234Zm30.726 18.968v1.27h1.235v-1.27h-1.235Zm-52.856-18.968v-1.27h-1.234v1.27h1.234Zm12.299 0v-1.27h-1.234v1.27h1.234Zm-14.753 0v-1.27h-1.235v1.27h1.235Zm-9.831 0v-1.27h-1.234v1.27h1.234Zm-2.454 0v-1.27h-1.234v1.27h1.234Zm-7.377 0v1.27h1.234v-1.27h1.235v-1.27h-1.235v-1.268h-1.234v1.269h-1.234v1.27h1.234Zm4.923 0v-1.27h-1.235v1.27h1.235Zm7.376 0v-1.27h-1.234v1.27h1.234Zm4.923 0v-1.27h-1.234v1.27h1.234Zm-2.454 0v-1.27h-1.234v1.27h1.234Zm9.831 0v-1.27h-1.235v1.27h1.235Zm41.791 0v-1.27h-1.234v1.27h1.234Zm-4.922 0v-1.27h-1.235v1.27h1.235Zm1.234 1.27v-1.27h-1.234v1.27h1.234Zm4.922 0v-1.27h-1.234v1.27h1.234Zm13.52 0h-1.235v1.27h1.235v-1.27Zm-8.611 0v-1.27h-1.235v1.27h1.235Zm-3.689-2.524h-1.234v1.27h1.234v-1.27Zm2.454 1.27v-1.27h-1.234v1.27h1.234Zm-13.519 1.268V20.72h-1.234v1.27h1.234Zm-6.142-1.269v-1.27h-1.234v1.27h1.234Zm7.377-1.27h-1.235v1.27h1.235v-1.27Zm-11.065 2.525v-1.27h-1.235v1.27h1.235Zm4.922 0v-1.27h-1.234v1.27h1.234Zm-3.688-2.524h-1.234v1.27h1.234v-1.27Zm-2.454 1.27v-1.27H374.4v1.27h1.235Zm9.83 0v-1.27h-1.234v1.27h1.234Zm-2.454-1.27h-1.234v1.27h1.234v-1.27Zm9.831 0h-1.234v1.27h1.234v-1.27Zm-33.195 2.524v-1.27h-1.234v1.27h1.234Zm-4.922 0v1.27h1.234v1.269h1.234v-1.27h1.234v-1.27h-1.234v-1.269h-1.234v1.27h-1.234Zm-4.923 0v1.27h1.234v1.269h1.234v-1.27h1.235v-1.27h-1.235v-1.269h-1.234v1.27h-1.234Zm12.299 0v-1.27h-1.234v1.27h1.234Zm12.299 0v-1.27h-1.234v1.27h1.234Zm-4.922 0v-1.27h-1.234v1.27h1.234Zm-4.923 0v-1.27h-1.234v1.27h1.234Zm7.377 0v-1.27h-1.234v1.27h1.234Zm-4.923 0v-1.27h-1.234v1.27h1.234Zm-12.299 0v-1.27h-1.234v1.27h1.234Zm-19.661 0v-1.27h-1.235v1.27h1.235Zm0 0v1.27h1.234v1.269h1.234v-1.27h1.234v-1.27h-1.234v-1.269h-1.234v1.27h-1.234Zm4.922 0v-1.27h-1.234v1.27h1.234Zm9.831 0v-1.27h-1.234v1.27h1.234Zm-18.442 1.27v1.269h1.234v-1.27h1.235v-1.27h-1.235v-1.269h-1.234v1.27h-1.234v1.27h1.234Zm13.519-1.27v1.27h1.235v1.269h1.234v-1.27h1.234v-1.27h-1.234v-1.269h-1.234v1.27h-1.235Zm-4.922 0v1.27h1.234v1.269h1.234v-1.27h1.234v-1.27h-1.234v-1.269h-1.234v1.27h-1.234Zm4.922 0v-1.27h-1.234v1.27h1.234Zm54.091 2.524v-1.27h-1.234v1.27h1.234Zm-1.234-1.27V21.96h-1.234v1.27h1.234Zm4.923 0V21.96h-1.235v1.27h1.235Zm1.234 1.27v-1.27h-1.234v1.27h1.234Zm-77.441-1.27v1.27h1.234v-1.27h1.235V21.96h-1.235v-1.27h-1.234v1.27h-1.234v1.27h1.234Zm73.752-1.269h-1.234v1.27h1.234v-1.27Zm4.923 0h-1.234v1.27h1.234v-1.27Zm3.688 2.524v-1.27h-1.234v1.27h1.234Zm-1.234-1.27v-1.269h-1.234v1.27h1.234Zm-17.207 0v-1.269h-1.235v1.27h1.235Zm-7.377 0v-1.269h-1.234v1.27h1.234Zm-2.454 0v-1.269h-1.234v1.27h1.234Zm4.922 0v-1.269h-1.234v1.27h1.234Zm-7.376 0v-1.269h-1.234v1.27h1.234Zm14.753 0v-1.269h-1.234v1.27h1.234Zm2.454 0v-1.269h-1.234v1.27h1.234Zm-7.376 0v-1.269h-1.235v1.27h1.235Zm-12.3 0v-1.269h-1.234v1.27h1.234Zm-11.065 16.444v1.27h1.235v-1.27h-1.235Zm9.831 0v1.27h1.234v-1.27h-1.234Zm-1.234 1.27v1.269h1.234v-1.27h-1.234Zm4.922-1.27h-1.234v1.27h1.234v-1.27Zm2.455 1.27v1.269h1.234v-1.27h-1.234Zm-2.455 0v1.269h1.235v-1.27h-1.235Zm-4.922-1.27h-1.234v1.27h1.234v-1.27Zm-4.923 0h-1.234v1.27h1.234v-1.27Zm0 1.27v1.269h1.235v-1.27h-1.235Zm1.235-1.27v1.27h1.234v-1.27h-1.234Zm23.349 1.27v1.269h1.235v-1.27h-1.235Zm-70.064-17.699h1.235V21.96h-1.235v-1.27h-1.234v1.27h-1.234v1.27h1.234v1.269h1.234v-1.27Zm74.987 18.968h1.234v-1.27h-1.234v1.27Zm3.688-2.524v1.27h1.235v-1.27h-1.235Zm-2.454 0v1.27h1.234v-1.27h-1.234Zm-13.519 1.27v1.269h1.234v-1.27h-1.234Zm-2.454 0v1.269h1.234v-1.27h-1.234Zm4.923 0v1.269h1.234v-1.27h-1.234Zm2.454 0v1.269h1.234v-1.27h-1.234Zm4.922 0v1.269h1.234v-1.27h-1.234Zm-57.779-2.525h1.234v-1.27h-1.234v-1.269h-1.234v1.27h-1.234v1.27h1.234v1.269h1.234v-1.27Zm25.818 2.524v1.27h1.235v-1.27h-1.235Zm-18.441-1.27v-1.269h-1.235v1.27h-1.234v1.27h1.234v1.269h1.235v-1.27h1.234v-1.27h-1.234Zm-4.923 0v-1.269h-1.234v1.27h-1.234v1.27h1.234v1.269h1.234v-1.27h1.234v-1.27h-1.234Zm-4.922-3.793h1.234v-1.27h-1.234V33.34h-1.235v1.27h-1.234v1.27h1.234v1.269h1.235v-1.27Zm-4.923-5.063h1.234v-1.27h-1.234v-1.269h-1.234v1.27h-1.234v1.27h1.234v1.269h1.234v-1.27Zm-4.923-5.063h1.235v-1.269h-1.235v-1.27h-1.234v1.27h-1.234v1.27h1.234v1.269h1.234v-1.27Zm2.455 2.524h1.234v-1.269h-1.234v-1.27h-1.235v1.27h-1.234v1.27h1.234v1.269h1.235v-1.27Zm4.922 5.063h1.234V32.07h-1.234V30.8h-1.234v1.27h-1.234v1.27h1.234v1.269h1.234v-1.27Zm25.818 6.318h-1.234v1.27h1.234v-1.27Zm1.235 0v1.27h1.234v-1.27h-1.234ZM323.984 20.69v1.269h1.234v-1.27h1.234V19.42h-1.234v-1.27h-1.234v1.27h-1.235v1.27h1.235Zm39.337 18.967h-1.234v1.27h1.234v-1.27Zm-9.831 1.27v1.269h1.235v-1.27h-1.235Zm1.235-1.27v1.27h1.234v-1.27h-1.234Zm-1.235 0h-1.234v1.27h1.234v-1.27Zm-3.688 0v-1.27h-1.234v1.27h-1.235v1.27h1.235v1.269h1.234v-1.27h1.234v-1.269h-1.234Z"/></g><path fill="#0A1133" d="M156.938 215.188h.937v1.874h3.75V218h-4.687v-2.812Zm.937 0v-.938h.937v.938h-.937Zm.937-.938v-.938h.938v.938h-.938Zm.938-.938v-.937h.938v.937h-.938Zm-2.812-3.75h4.687v2.813h-.937V210.5h-3.75v-.938Zm7.5 0h.937v.938h-.937v-.938Zm1.874 0h.938v.938h-.938v-.938Zm.938 1.876h.938v5.624h-.938v-5.624Zm-2.812 5.624h2.812V218h-2.812v-.938Zm-.938-5.624h.938v5.624h-.938v-5.624Zm9.375 0h1.875v.937h-1.875v-.937Zm-.937.937h.937v.937h-.937v-.937Zm-1.876-.937H171v1.874h.938v.938H171V218h-.938v-6.562Zm7.5 0h.938V218h-.938v-6.562Zm0-1.876h.938v.938h-.938v-.938Zm7.5 6.563H186v.937h-.938v-.937Zm-2.812.937h2.812V218h-2.812v-.938Zm-.938-4.687h.938v4.687h-.938v-4.687Zm.938-.937h2.812v.937h-2.812v-.937Zm2.812.937H186v.937h-.938v-.937Zm6.563 0h.937V218h-.937v-5.625Zm-3.75-2.813h.937v1.876h2.813v.937h-2.813V218h-.937v-8.438Zm6.563 9.376h.937v.937h-.937v-.937Zm.937-1.876h.937v1.876h-.937v-1.876Zm11.25-.937h.937v.937h-.937v-.937Zm-2.813.937h2.813V218h-2.813v-.938Zm-.937-6.562h.937v6.562h-.937V210.5Zm.937-.938h2.813v.938h-2.813v-.938Zm2.813.938h.937v.938h-.937v-.938Zm3.75.938h.937V218h-.937v-6.562Zm0-1.876h.937v.938h-.937v-.938Zm4.687.938H216v.938h1.875v.937H216v4.687h-.938v-4.687h-.937v-.937h.937v-.938Zm.938 6.562h1.875V218H216v-.938Zm3.75.938h.938v.938h-.938V218Zm.938.938h2.812v.937h-2.812v-.937Zm2.812-7.5h.938v7.5h-.938v-1.876h-2.812v-.937h2.812v-4.687Zm-3.75 0h.938v4.687h-.938v-4.687Zm14.062 4.687h.938v.937h-.938v-.937Zm-2.812.937h2.812V218H231v-.938Zm-.938-6.562H231v6.562h-.938V210.5Zm.938-.938h2.812v.938H231v-.938Zm2.812.938h.938v.938h-.938v-.938Zm6.563 5.625h.937v.937h-.937v-.937Zm-2.813.937h2.813V218h-2.813v-.938Zm-.937-4.687h.937v1.875h2.813v-1.875h.937v2.813h-3.75v1.874h-.937v-4.687Zm.937-.937h2.813v.937h-2.813v-.937Zm9.376.937h.937V218h-.937v-5.625Zm-3.75-.937h3.75v.937h-2.813V218h-.937v-6.562Zm7.5-.938h.937v.938h1.875v.937h-1.875v4.687h-.937v-4.687h-.938v-.937h.938v-.938Zm.937 6.562h1.875V218h-1.875v-.938Zm7.5-.937h.937v.937h-.937v-.937Zm-2.813.937h2.813V218h-2.813v-.938Zm-.937-4.687h.937v1.875h2.813v-1.875h.937v2.813h-3.75v1.874h-.937v-4.687Zm.937-.937h2.813v.937h-2.813v-.937Zm8.438 0h1.875v.937h-1.875v-.937Zm-.938.937h.938v.937h-.938v-.937Zm-1.874-.937h.937v1.874h.937v.938h-.937V218h-.937v-6.562Zm10.312-.938h.938v2.812h-.938V210.5Zm3.75 3.75h.938v2.812H276v-2.812Zm-2.812 2.812H276V218h-2.812v-.938Zm-.938-.937h.938v.937h-.938v-.937Zm.938-2.813H276v.938h-2.812v-.938ZM276 210.5h.938v.938H276v-.938Zm-2.812-.938 2.812.001v.937h-2.812v-.938Zm6.562.938h.938v.938h1.874v.937h-1.874v4.688l-.938-.001v-4.687h-.938v-.937h.938v-.938Zm.938 6.563h1.874V218h-1.874v-.937Zm7.5-4.688h.937v4.688h-.937v-4.688Zm-2.813 4.688h2.813V218h-2.813v-.937Zm-.937-4.688h.937v4.688h-.937v-4.688Zm.937-.937h2.813v.937h-2.813v-.937Zm9.375 4.687h.938v.938h-.938v-.938Zm-2.812.938h2.812V218h-2.812v-.937Zm-.938-4.688h.938v4.688H291v-4.688Zm.938-.937h2.812v.937h-2.812v-.937Zm2.812.937h.938v.938h-.938v-.938Zm6.562 4.688h.938V218h-.938v-.937Zm-.937-.938h.937v.938h-.937v-.938Zm-.937-.937h.937v.937h-.937v-.937Zm-1.876-5.625h.938v4.687h.938v.938h-.938V218h-.938v-8.437Zm1.876 3.75h.937v.937h-.937v-.937Zm.937-.938h.937v.938h-.937v-.938Zm.937-.937h.938v.937h-.938v-.937Zm6.563 4.687h.937v.938h-.937v-.938Zm-2.813.938h2.813V218h-2.813v-.937Zm-.937-4.688h.937v1.875h2.813v-1.875h.937v2.813h-3.75v1.875h-.937v-4.688Zm.937-.937h2.813v.937h-2.813v-.937Zm8.438 0h1.875v.937H313.5v-.937Zm-.938.937h.938v.938h-.938v-.938Zm-1.874-.937h.937v1.875h.937v.937h-.937V218h-.937v-6.562Zm10.312.937h.938V218H321v-5.625Zm-3.75-2.812h.938v1.875H321v.937h-2.812V218h-.938v-8.437Zm10.312 2.812h.938v4.688h-.938v-4.688Zm-2.812 4.688h2.812V218h-2.812v-.937Zm-.938-4.688h.938v4.688h-.938v-4.688Zm.938-.937h2.812v.937h-2.812v-.937Zm6.562-.938h.938v1.875h1.875v.938h-1.875V218h-.938v-4.687h-.937v-.938h.937V210.5Zm.938-.937h1.875v.937h-1.875v-.937Zm3.75 9.375h.938v.937H336v-.937Zm.938-1.875h.937v1.875h-.937v-1.875Zm11.25-6.563h.937v2.813h-.937V210.5Zm0 3.75h.937v2.813h-.937v-2.813Zm-3.75-4.687h3.75v.937h-2.813v2.813h2.813v.937h-2.813v2.813h2.813V218h-3.75v-8.437Zm6.562 2.812h.938v.938H351v-.938Zm0 2.813h.938v1.875H351v-1.875Zm3.75-2.813h.938V218h-3.75v-.937h2.812v-1.875h-2.812v-.938h2.812v-1.875Zm-2.812-.937h2.812v.937h-2.812v-.937Zm9.374.937h.938V218h-.938v-5.625Zm-3.75-2.812h.938v1.875h2.812v.937H358.5V218h-.938v-8.437Zm10.313 2.812h.937V218h-.937v-5.625Zm-3.75-.937h3.75v.937h-2.813V218h-.937v-6.562Zm10.313.937h.937V218h-.937v-5.625Zm-3.75-2.812h.937v1.875h2.813v.937h-2.813V218h-.937v-8.437ZM381 212.375h.938v4.688H381v-4.688Zm-2.812 4.688H381V218h-2.812v-.937Zm-.938-4.688h.938v4.688h-.938v-4.688Zm.938-.937H381v.937h-2.812v-.937Zm6.562-.938h.938v1.875h1.874v.938h-1.874V218h-.938v-4.687h-.938v-.938h.938V210.5Zm.938-.937h1.874v.937h-1.874v-.937Zm3.75 2.812h.937v1.875h-.937v-1.875Zm3.75 2.813h.937v1.875h-.937v-1.875Zm-2.813 1.875h2.813V218h-2.813v-.937Zm-.937-.938h.937v.938h-.937v-.938Zm.937-1.875h2.813v.938h-2.813v-.938Zm2.813-1.875h.937v.938h-.937v-.938Zm-2.813-.937h2.813v.937h-2.813v-.937Zm6.563-.938h.937v.938h1.875v.937h-1.875v4.688h-.937v-4.688H396v-.937h.938v-.938Zm.937 6.563h1.875V218h-1.875v-.937Zm6.563-5.625h1.874v.937h-1.874v-.937Zm-.938.937h.938v.938h-.938v-.938Zm-1.875-.937h.937v1.875h.938v.937h-.938V218h-.937v-6.562Zm6.563.937h.937v.938h-.937v-.938Zm0 2.813h.937v1.875h-.937v-1.875Zm3.75-2.813h.937V218h-3.75v-.937h2.813v-1.875h-2.813v-.938h2.813v-1.875Zm-2.813-.937h2.813v.937h-2.813v-.937Zm5.625.937h.938v1.875h-.938v-1.875Zm3.75 2.813h.938v1.875h-.938v-1.875Zm-2.812 1.875h2.812V218h-2.812v-.937Zm-.938-.938h.938v.938h-.938v-.938Zm.938-1.875h2.812v.938h-2.812v-.938Zm2.812-1.875h.938v.938h-.938v-.938Zm-2.812-.937h2.812v.937h-2.812v-.937Zm5.624.937h.938v1.875h-.938v-1.875Zm3.75 2.813H426v1.875h-.938v-1.875Zm-2.812 1.875h2.812V218h-2.812v-.937Zm-.938-.938h.938v.938h-.938v-.938Zm.938-1.875h2.812v.938h-2.812v-.938Zm2.812-1.875H426v.938h-.938v-.938Zm-2.812-.937h2.812v.937h-2.812v-.937Zm9.375 4.687h.937v.938h-.937v-.938Zm-2.813.938h2.813V218h-2.813v-.937Zm-.937-4.688h.937v1.875h2.813v-1.875h.937v2.813h-3.75v1.875h-.937v-4.688Zm.937-.937h2.813v.937h-2.813v-.937Zm5.626 7.5h.937v.937h-.937v-.937Zm.937-1.875h.937v1.875h-.937v-1.875Zm8.437-5.625h.938v.937h-.938v-.937Zm1.876-1.875h.937V218h-.937v-6.562h-.938v-.938h.938v-.937Zm4.687 7.5h2.813V218h-2.813v-.937Zm2.813-6.563h.937v6.563h-.937v-3.75h-.938v-.938h.938V210.5Zm-1.876 2.813h.938v.937h-.938v-.937Zm-1.874-2.813h.937v3.75h.937v.938h-.937v1.875h-.937V210.5Zm.937-.937h2.813v.937h-2.813v-.937Zm6.563 7.5h2.812V218h-2.812v-.937Zm2.812-6.563h.938v6.563h-.938v-3.75h-.938v-.938h.938V210.5Zm-1.875 2.813h.937v.937h-.937v-.937ZM456 210.5h.938v3.75h.937v.938h-.937v1.875H456V210.5Zm.938-.937h2.812v.937h-2.812v-.937Zm5.624 9.375h.938v.937h-.938v-.937Zm.938-1.875h.938v1.875h-.938v-1.875Zm9.375-5.625h.937v1.875h1.876v.937h-1.876v1.875h-.937v-1.875H471v-.937h1.875v-1.875Zm8.437-1.875h.938V218h-.938v-2.812h-3.75v-1.875h.938v.937h2.812v-2.812h-.937v-.938h.937v-.937Zm-2.812 2.812h.938v.938h-.938v-.938Zm.938-.937h.937v.937h-.937v-.937Zm4.687-.938h.937v2.813h-.937V210.5Zm.937-.937h2.813v.937h-2.813v-.937Zm2.813.937h.937v6.563h-.937v-2.813h-2.813v-.937h2.813V210.5Zm-2.813 6.563h2.813V218h-2.813v-.937Zm-.937-.938h.937v.938h-.937v-.938Zm7.5-4.687h.937v.937h-.937v-.937Zm1.875-1.875h.938V218h-.938v-6.562h-.938v-.938h.938v-.937Zm3.75 5.625h.938V218h-.938v-2.812Zm.938-.938h.937v.938h-.937v-.938Zm.937-.937h.937v.937h-.937v-.937Zm.937-.938H501v.938h-.938v-.938Zm-2.812-2.812h4.688v2.812H501V210.5h-3.75v-.937Zm6.562 5.625h.938v1.875h3.75V218h-4.688v-2.812Zm.938 0v-.938h.938v.938h-.938Zm.938-1.875h.937v.937h-.937v-.937Zm.937-.938h.937v.938h-.937v-.938Zm.937-1.875h.938v1.875h-.938V210.5Zm-2.812-.937h2.812v.937h-2.812v-.937Zm-.938.937h.938v.938h-.938v-.938Zm10.313 3.75h.937v2.813h-.937v-2.813Zm-2.813 2.813h2.813V218h-2.813v-.937Zm-.937-6.563h.937v2.813h2.813v.937h-2.813v2.813h-.937V210.5Zm.937-.937h2.813v.937h-2.813v-.937Zm2.813.937h.937v.938h-.937v-.938Zm2.813 4.688h.937V218h-.937v-2.812Zm.937-.938h.937v.938h-.937v-.938Zm.937-.937h.938v.937h-.938v-.937Zm.938-.938h.938v.938h-.938v-.938Zm-2.812-2.812h4.687v2.812h-.937V210.5h-3.75v-.937Zm10.312 4.687h.938v2.813h-.938v-2.813Zm-2.812 2.813h2.812V218h-2.812v-.937Zm-.938-6.563h.938v2.813h2.812v.937h-2.812v2.813h-.938V210.5Zm.938-.937h2.812v.937h-2.812v-.937Zm2.812.937h.938v.938h-.938v-.938Zm2.812 5.625H531v.938h-.938v-.938Zm.938.938h2.812V218H531v-.937Zm2.812-3.75h.938v3.75h-.938v-3.75Zm-3.75-3.75h4.688v.937H531v1.875h2.812v.938h-3.75v-3.75Zm10.313 0h.937V218h-.937v-2.812h-3.75v-1.875h.937v.937h2.813v-2.812h-.937v-.938h.937v-.937Zm-2.813 2.812h.938v.938h-.938v-.938Zm.938-.937h.938v.937h-.938v-.937Zm5.625 5.625h2.813V218h-2.813v-.937Zm2.813-6.563h.937v6.563h-.937v-3.75H546v-.938h.938V210.5Zm-1.876 2.813H546v.937h-.938v-.937Zm-1.874-2.813h.937v3.75h.937v.938h-.937v1.875h-.937V210.5Zm.937-.937h2.813v.937h-2.813v-.937Zm6.563 7.5h2.812V218h-2.812v-.937Zm2.812-6.563h.938v6.563h-.938v-3.75h-.938v-.938h.938V210.5Zm-1.875 2.813h.937v.937h-.937v-.937Zm-1.875-2.813h.938v3.75h.937v.938h-.937v1.875h-.938V210.5Zm.938-.937h2.812v.937h-2.812v-.937Z"/><path fill="#0A1133" fill-rule="evenodd" d="m159.12 118.302 224.035-.001v-1.629H159.12v1.63Zm-3.259 1.63v48.903h1.63v-48.903h-1.63Zm227.294 50.534H159.12v1.629h224.035v-1.629Zm1.629-50.534v48.903h1.63v-48.903h-1.63Zm-227.293-1.63h1.629v1.63h-1.629v-1.63Zm1.629 52.163h-1.629v-1.629h1.629v1.629Zm224.035-52.163h1.629v1.63h-1.629v-1.63Zm1.629 52.163h-1.629v-1.629h1.629v1.629Z" clip-rule="evenodd"/><path fill="#0A1133" d="M160.688 103.976h.937v.937h-.937v-.937Zm-2.813.937h2.813v.938h-2.813v-.938Zm-.937-6.562h.937v6.562h-.937v-6.562Zm.937-.938h2.813v.938h-2.813v-.938Zm2.813.938h.937v.937h-.937v-.937Zm6.562 1.875h.938v4.687h-.938v-4.687Zm-2.812 4.687h2.812v.938h-2.812v-.938Zm-.938-4.687h.938v4.687h-.938v-4.687Zm.938-.938h2.812v.938h-2.812v-.938Zm9.374.938h.938v4.687h-.938v-4.687Zm-3.75-.938h3.75v.938H171v4.687h2.812v.938H171v1.875h-.938v-8.438Zm6.563 6.563h.937v.937h-.937v-.937Zm.937.937h2.813v.938h-2.813v-.938Zm2.813-7.5h.937v7.5h-.937v-1.875h-2.813v-.937h2.813v-4.688Zm-3.75 0h.937v4.688h-.937v-4.688Zm11.25-.937h.937v.937h1.876v.938h-1.876v4.687h-.937v-4.687h-.937v-.938h.937v-.937Zm.937 6.562h1.876v.938h-1.876v-.938Zm7.5-4.687h.938v5.625h-.938v-5.625Zm-3.75-2.813h.938v1.875h2.812v.938H193.5v5.625h-.938v-8.438Zm10.313 6.563h.937v.937h-.937v-.937Zm-2.813.937h2.813v.938h-2.813v-.938Zm-.937-4.687h.937v1.875h2.813v-1.875h.937v2.812h-3.75v1.875h-.937v-4.687Zm.937-.938h2.813v.938h-2.813v-.938Zm9.376.938h.937v1.875h-.937v-1.875Zm3.75 2.812h.937v1.875h-.937v-1.875Zm-2.813 1.875h2.813v.938h-2.813v-.938Zm-.937-.937h.937v.937h-.937v-.937Zm.937-1.875h2.813v.937h-2.813v-.937Zm2.813-1.875h.937v.937h-.937v-.937Zm-2.813-.938h2.813v.938h-2.813v-.938Zm9.375 4.688h.938v.937h-.938v-.937Zm-2.812.937h2.812v.938h-2.812v-.938Zm-.938-4.687h.938v1.875h2.812v-1.875h.938v2.812h-3.75v1.875H216v-4.687Zm.938-.938h2.812v.938h-2.812v-.938Zm9.374 4.688h.938v.937h-.938v-.937Zm-2.812.937h2.812v.938H223.5v-.938Zm-.938-4.687h.938v4.687h-.938v-4.687Zm.938-.938h2.812v.938H223.5v-.938Zm2.812.938h.938v.937h-.938v-.937Zm5.626-.938h1.874v.938h-1.874v-.938Zm-.938.938h.938v.937H231v-.937Zm-1.875-.938h.937v1.875H231v.938h-.938v3.75h-.937v-6.563Zm10.313 4.688h.937v.937h-.937v-.937Zm-2.813.937h2.813v.938h-2.813v-.938Zm-.937-4.687h.937v1.875h2.813v-1.875h.937v2.812h-3.75v1.875h-.937v-4.687Zm.937-.938h2.813v.938h-2.813v-.938Zm6.563-.937h.937v.937H246v.938h-1.875v4.687h-.937v-4.687h-.938v-.938h.938v-.937Zm.937 6.562H246v.938h-1.875v-.938Zm11.25-.937h.937v.937h-.937v-.937Zm-2.813.937h2.813v.938h-2.813v-.938Zm-.937-4.687h.937v4.687h-.937v-4.687Zm.937-.938h2.813v.938h-2.813v-.938Zm2.813.938h.937v.937h-.937v-.937Zm6.563 0h.937v4.687h-.937v-4.687Zm-2.813 4.687h2.813v.938h-2.813v-.938Zm-.937-4.687h.937v4.687h-.937v-4.687Zm.937-.938h2.813v.938h-2.813v-.938Zm5.625.938h.938v4.687h-.938v-4.687Zm3.75-2.813h.938v8.438h-3.75v-.938h2.812v-4.687h-2.812v-.938h2.812v-1.875Zm6.562 6.563H276v.937h-.938v-.937Zm-2.812.937h2.812v.938h-2.812v-.938Zm-.938-4.687h.938v1.875h2.812v-1.875H276v2.812h-3.75v1.875h-.938v-4.687Zm.938-.938h2.812v.938h-2.812v-.938Zm6.562 5.625h.938v.938h-.938v-.938Zm0-5.625h.938v.938h-.938v-.938Z"/><path stroke="#0A1133" stroke-dasharray="5.46 7.28" stroke-width=".815" d="M156 198h423" opacity=".2"/><path fill="#0A1133" d="M512.875 59.648h2.75v11h-1.375v1.375h-5.5v-1.375h-1.375v-1.375h2.75v1.375h2.75v-11Zm4.84 0h2.75v11h2.75v-11h2.75v11h-1.375v1.375h-5.5v-1.375h-1.375v-11Zm10.34 0h2.75v4.125h1.375v1.375h1.375v-5.5h2.75v12.375h-2.75v-4.125h-1.375v-1.375h-1.375v5.5h-2.75V59.648Zm10.34 0h8.25v1.375h-5.5v4.125h2.75v1.375h-2.75v4.125h5.5v1.375h-8.25V59.648Zm11.715 11h2.75v2.75h-1.375v1.375h-2.75v-1.375h1.375v-2.75Zm10.34-11h2.75v12.375h-2.75v-8.25h-1.375v1.375H557.7v-2.75h1.375v-1.375h1.375v-1.375Zm7.59 0h5.5v1.375h1.375v4.125h-1.375v1.375h1.375v4.125h-1.375v1.375h-5.5v-1.375h-1.375v-1.375h2.75v1.375h2.75v-4.125h-2.75v-1.375h2.75v-4.125h-2.75v1.375h-2.75v-1.375h1.375v-1.375ZM456.938 123.5h.937v2.812h-.937V123.5Zm3.75 3.75h.937v2.812h-.937v-2.812Zm-2.813 2.812h2.813V131h-2.813v-.938Zm-.937-.937h.937v.937h-.937v-.937Zm.937-2.813h2.813v.938h-2.813v-.938Zm2.813-2.812h.937v.938h-.937v-.938Zm-2.813-.938h2.813v.938h-2.813v-.938Zm5.625 2.813h.938v.937h-.938v-.937Zm0 2.813h.938v1.874h-.938v-1.874Zm3.75-2.813h.938V131h-3.75v-.938h2.812v-1.874h-2.812v-.938h2.812v-1.875Zm-2.812-.937h2.812v.937h-2.812v-.937ZM471 123.5h.938v.938h1.874v.937h-1.874v4.687H471v-4.687h-.938v-.937H471v-.938Zm.938 6.562h1.874V131h-1.874v-.938Zm7.5-5.624h.937v5.624h-.937v-5.624Zm-2.813 5.624h2.813V131h-2.813v-.938Zm-.937-5.624h.937v5.624h-.937v-5.624Zm9.374 0h1.876v.937h-1.876v-.937Zm-.937.937h.937v.937h-.937v-.937Zm-1.875-.937h.938v1.874h.937v.938h-.937V131h-.938v-6.562Zm6.562.937h.938v4.687h-.938v-4.687Zm3.75-2.813h.938V131h-3.75v-.938h2.812v-4.687h-2.812v-.937h2.812v-1.876Zm2.813 2.813h.937v.937h-.937v-.937Zm0 2.813h.937v1.874h-.937v-1.874Zm3.75-2.813h.937V131h-3.75v-.938h2.813v-1.874h-2.813v-.938h2.813v-1.875Zm-2.813-.937h2.813v.937h-2.813v-.937Zm5.626 6.562h.937v.938h-.937V131Zm.937.938h2.813v.937h-2.813v-.937Zm2.813-7.5h.937v7.5h-.937v-1.876h-2.813v-.937h2.813v-4.687Zm-3.75 0h.937v4.687h-.937v-4.687Zm6.562 7.5h.938v.937h-.938v-.937Zm.938-1.876h.937v1.876h-.937v-1.876Zm4.687-5.624h.937v.937h-.937v-.937Zm1.875-1.876h.938V131H516v-6.562h-.938v-.938H516v-.938Zm3.75 5.626h.938v1.874h3.75V131h-4.688v-2.812Zm.938 0v-.938h.937v.938h-.937Zm.937-1.876h.937v.938h-.937v-.938Zm.937-.937h.938v.937h-.938v-.937Zm.938-1.875h.938v1.875h-.938V123.5Zm-2.812-.938h2.812v.938h-2.812v-.938Zm-.938.938h.938v.938h-.938v-.938Zm6.562 0h.938v3.75h2.812v-3.75H531v7.5h-.938v-2.812h-2.812V131h-.938v-7.5Zm.938-.938h2.812v.938h-2.812v-.938Zm11.25 0h.938V131h-.938v-5.625h-.938v-.937h.938v-1.876Zm-1.875 2.813h.937v.937h-.937v-.937Zm-.937.937h.937v.938h-.937v-.938Zm-.938-.937h.938v.937h-.938v-.937Zm-1.875-2.813h.937v1.876h.938v.937h-.938V131h-.937v-8.438Zm12.187 3.75h3.75v.938h-3.75v-.938Zm13.126.938h.937v2.812h-.937v-2.812Zm-2.813 2.812h2.813V131h-2.813v-.938Zm-.937-6.562h.937v2.812h2.813v.938h-2.813v2.812h-.937V123.5Zm.937-.938h2.813v.938h-2.813v-.938Zm2.813.938h.937v.938h-.937v-.938Zm6.562 0h.938v2.812h-.938V123.5Zm-3.75-.938h3.75v.938h-2.812v2.812h2.812v.938h-2.812V131H561v-8.438Zm12.188 0h.937V131h-.937v-5.625h-.938v-.937h.938v-1.876Zm-1.876 2.813h.938v.937h-.938v-.937Zm-.937.937h.937v.938h-.937v-.938Zm-.937-.937h.937v.937h-.937v-.937Zm-1.876-2.813h.938v1.876h.938v.937h-.938V131h-.938v-8.438Zm-105 18h.938V149h-.938v-5.625h-.937v-.937h.937v-1.876Zm-1.874 2.813h.937v.937h-.937v-.937Zm-.938.937h.938v.938h-.938v-.938Zm-.938-.937h.938v.937h-.938v-.937Zm-1.874-2.813h.937v1.876h.937v.937h-.937V149h-.937v-8.438Zm8.437 2.813h.937v.937h-.937v-.937Zm0 2.813h.937v1.874h-.937v-1.874Zm3.75-2.813h.937V149h-3.75v-.938h2.813v-1.874h-2.813v-.938h2.813v-1.875Zm-2.813-.937h2.813v.937h-2.813v-.937Zm6.563 0h.937V149h-.937v-6.562Zm0-1.876h.937v.938h-.937v-.938Zm7.5 2.813h.937V149h-.937v-5.625Zm-3.75-.937h3.75v.937h-2.813V149h-.937v-6.562Zm10.313-1.876h.937v3.75h2.813v-3.75h.937V149h-.937v-3.75h-2.813V149h-.937v-8.438Zm6.562 2.813h.938v.937h-.938v-.937Zm0 2.813h.938v1.874h-.938v-1.874Zm3.75-2.813h.938V149h-3.75v-.938h2.812v-1.874h-2.812v-.938h2.812v-1.875Zm-2.812-.937h2.812v.937h-2.812v-.937Zm6.562-1.876h.938v7.5H501v-7.5Zm.938 7.5h.937V149h-.937v-.938Zm3.75-7.5h.937v7.5h-.937v-7.5Zm.937 7.5h.937V149h-.937v-.938Zm8.437-5.624H516v1.874h1.875v.938H516v1.875h-.938v-1.875h-1.874v-.938h1.874v-1.874Zm12.188-.938h.938v2.812h-.938V141.5Zm0 3.75h.938v2.812h-.938v-2.812Zm-3.75-4.688h3.75v.938h-2.812v2.812h2.812v.938h-2.812v2.812h2.812V149h-3.75v-8.438Zm10.312 2.813h.938v4.687h-.938v-4.687ZM531 148.062h2.812V149H531v-.938Zm-.938-4.687H531v4.687h-.938v-4.687Zm.938-.937h2.812v.937H531v-.937Zm9.375.937h.937V149h-.937v-5.625Zm-3.75-.937h3.75v.937h-2.813V149h-.937v-6.562Zm10.313 0h.937v5.624h-.937v-5.624Zm-2.813 5.624h2.813V149h-2.813v-.938Zm-.937-5.624h.937v5.624h-.937v-5.624Zm6.562.937h.938v1.875h-.938v-1.875Zm3.75 2.813h.938v1.874h-.938v-1.874Zm-2.812 1.874h2.812V149h-2.812v-.938Zm-.938-.937h.938v.937h-.938v-.937Zm.938-1.875h2.812v.938h-2.812v-.938Zm2.812-1.875h.938v.937h-.938v-.937Zm-2.812-.937h2.812v.937h-2.812v-.937Zm-90 16.124h.937v6.563h-.937v-6.563Zm-.938 6.563h.938v.937h-.938v-.937Zm-.938.937h.938V167h-.938v-.938Zm-.937-.937h.937v.937h-.937v-.937Zm-.937-6.563h.937v6.563h-.937v-6.563Zm7.5 0h.937V167h-.937v-8.438Zm7.5.938h.937v2.812h-.937V159.5Zm-3.75-.938h3.75v.938h-2.813v2.812h2.813v.938h-2.813V167h-.937v-8.438Zm13.124 3.75h1.876V167h-3.75v-.938h2.812v-2.812h-.938v-.938ZM478.5 159.5h.938v6.562h-.938V159.5Zm.938-.938h2.812v.938h-2.812v-.938Zm2.812.938h.938v.938h-.938v-.938Zm6.562.938h.938v5.624h-.938v-5.624ZM486 166.062h2.812V167H486v-.938Zm-.938-5.624H486v5.624h-.938v-5.624Zm10.313 4.687h.937v.937h-.937v-.937Zm-2.813.937h2.813V167h-2.813v-.938Zm-.937-4.687h.937v1.875h2.813v-1.875h.937v2.813h-3.75v1.874h-.937v-4.687Zm.937-.937h2.813v.937h-2.813v-.937Zm5.626.937h.937v1.875h-.937v-1.875Zm3.75 2.813h.937v1.874h-.937v-1.874Zm-2.813 1.874h2.813V167h-2.813v-.938Zm-.937-.937h.937v.937h-.937v-.937Zm.937-1.875h2.813v.938h-2.813v-.938Zm2.813-1.875h.937v.937h-.937v-.937Zm-2.813-.937h2.813v.937h-2.813v-.937Zm6.563-.938h.937v.938h1.875v.937h-1.875v4.687h-.937v-4.687h-.938v-.937h.938v-.938Zm.937 6.562h1.875V167h-1.875v-.938Z"/><path fill="#0A1133" fill-rule="evenodd" d="M36.104 27.831h45.622v-1.63H36.104v1.63Zm-3.258 1.63v181.756h1.629V29.462h-1.63Zm48.88 183.387H36.104v1.63h45.622v-1.63Zm1.629-183.386v181.755h1.63V29.462h-1.63Zm-48.88-1.63h1.63v1.63h-1.63v-1.63Zm1.63 185.015h-1.63v-1.629h1.63v1.629Zm45.62-185.015h1.63v1.63h-1.63v-1.63Zm1.63 185.015h-1.63v-1.629h1.63v1.629Z" clip-rule="evenodd"/><g clip-path="url(#b)"><path fill="#0A1133" d="M77.653 37.612H44.25v1.63h33.402v-1.63ZM77.653 40.873H44.25v.815h33.402v-.815ZM77.55 44.96H44.02v2.94H77.55v-2.94ZM77.553 49.373H44.022v1.47h33.531v-1.47ZM77.553 53.78H44.022v1.468h33.531V53.78ZM77.553 56.721H44.022v1.47h33.531v-1.47ZM77.553 59.657H44.022v1.469h33.531v-1.469ZM77.55 62.593H44.02v1.468H77.55v-1.469ZM77.553 67.005H44.022v1.47h33.531v-1.47ZM77.553 71.418H44.022v1.469h33.531v-1.469ZM77.553 69.94H44.022v1.47h33.531v-1.47ZM77.553 74.353H44.022v2.94h33.531v-2.94ZM77.553 111.094H44.022v1.469h33.531v-1.469ZM77.55 81.702H44.02v1.469H77.55V81.7ZM77.553 91.985H44.022v2.94h33.531v-2.94ZM77.55 96.398H44.02v1.469H77.55v-1.47ZM77.55 100.811H44.02v1.469H77.55v-1.469ZM77.553 105.223H44.022v2.939h33.531v-2.939ZM77.553 109.623H44.022v1.469h33.531v-1.469ZM77.55 115.507H44.02v1.469H77.55v-1.469ZM77.55 118.442H44.02v1.469H77.55v-1.469ZM77.653 123.193H44.25v.814h33.402v-.814ZM77.553 131.674H44.022v1.469h33.531v-1.469Z"/><path fill="#0A1133" d="M77.55 133.139H44.02v1.469H77.55v-1.469ZM77.55 136.081H44.02v1.469H77.55v-1.469ZM77.553 143.429H44.022v2.939h33.531v-2.939ZM77.553 156.66H44.022v2.94h33.531v-2.94ZM77.553 161.067H44.022v1.469h33.531v-1.469ZM77.55 169.879H44.02v1.469H77.55v-1.469ZM77.553 175.763H44.022v2.94h33.531v-2.94ZM77.553 178.705H44.022v1.469h33.531v-1.469ZM77.55 187.518H44.02v1.469H77.55v-1.469ZM77.55 191.924H44.02v1.469H77.55v-1.469ZM77.553 196.337H44.022v1.469h33.531v-1.469ZM77.553 199.272H44.022v2.94h33.531v-2.94Z"/></g><defs><clipPath id="b"><path fill="white" d="M44.251 37.612h29.328v165.455H44.251z"/></clipPath></defs></svg>