<svg xmlns="http://www.w3.org/2000/svg" width="160" height="65" fill="none" viewBox="0 0 160 65"><path fill="#0A1133" d="M101.445 26.78a5.195 5.195 0 0 0-2.006-1.318 7.433 7.433 0 0 0-2.597-.44 6.492 6.492 0 0 0-2.418.398 6.867 6.867 0 0 0-1.622.885c-.479.386-.896.84-1.24 1.347h-.065v-2.31h-3.35v15.832h3.34v-8.426a5.527 5.527 0 0 1 .325-1.968 4.44 4.44 0 0 1 .938-1.5 4.297 4.297 0 0 1 1.418-.968 4.45 4.45 0 0 1 1.762-.343 3.954 3.954 0 0 1 2.85 1.015c.707.676 1.062 1.722 1.065 3.137v9.047h3.356v-9.412a8.227 8.227 0 0 0-.461-2.863 6.206 6.206 0 0 0-1.299-2.113M119.003 35.427a5.25 5.25 0 0 1-1.032 1.65 4.392 4.392 0 0 1-1.545 1.067c-.618.253-1.28.38-1.948.372a4.78 4.78 0 0 1-1.895-.372 4.4 4.4 0 0 1-1.526-1.066 4.978 4.978 0 0 1-1.019-1.651 6.646 6.646 0 0 1 0-4.333 5.037 5.037 0 0 1 1.019-1.655 4.597 4.597 0 0 1 3.421-1.466 4.755 4.755 0 0 1 3.493 1.45c.448.48.799 1.044 1.032 1.658.262.696.392 1.434.383 2.178a5.88 5.88 0 0 1-.383 2.168ZM126 22.302V19h-6.614v8.75h-.094a5.807 5.807 0 0 0-1.26-1.377 7.674 7.674 0 0 0-1.7-.91 6.522 6.522 0 0 0-2.483-.43 7.234 7.234 0 0 0-2.921.594 7.415 7.415 0 0 0-2.418 1.683 7.735 7.735 0 0 0-1.639 2.604 9.066 9.066 0 0 0-.591 3.303 9.317 9.317 0 0 0 .587 3.37 7.566 7.566 0 0 0 1.639 2.584 7.747 7.747 0 0 0 2.418 1.687 7.14 7.14 0 0 0 2.921.607 6.932 6.932 0 0 0 4.184-1.292 5.782 5.782 0 0 0 1.259-1.376h.094v2.342h6.615v-3.296h-3.304v-15.54H126ZM57.041 29.44c.44-.453.966-.817 1.545-1.07a5.166 5.166 0 0 1 4.086.074c.508.257.97.594 1.37.999.25.277.468.582.65.907l2.31-2.303c-.023-.032-.042-.068-.068-.1a9.56 9.56 0 0 0-1.032-1.063 6.88 6.88 0 0 0-1.383-.934 8.63 8.63 0 0 0-1.782-.646 9.01 9.01 0 0 0-2.272-.256 8.547 8.547 0 0 0-3.245.624 7.955 7.955 0 0 0-2.639 1.732 7.995 7.995 0 0 0-1.75 2.62 8.665 8.665 0 0 0 0 6.517 8.03 8.03 0 0 0 1.75 2.62 7.955 7.955 0 0 0 2.639 1.732 8.547 8.547 0 0 0 3.245.624 9.396 9.396 0 0 0 2.292-.255 8.058 8.058 0 0 0 1.827-.679c.506-.263.977-.589 1.402-.97.365-.333.692-.707.974-1.114l-2.272-2.262a4.95 4.95 0 0 1-.562.792c-.412.421-.89.773-1.415 1.044a4.64 4.64 0 0 1-2.242.475 4.518 4.518 0 0 1-1.86-.385 5 5 0 0 1-1.545-1.066 5.147 5.147 0 0 1-1.065-1.641 5.574 5.574 0 0 1-.399-2.165 5.875 5.875 0 0 1 .383-2.149 5.119 5.119 0 0 1 1.049-1.67M72.613 31.704c.487-2.135 2.174-3.731 4.466-3.731 2.291 0 3.752 1.596 4.239 3.731h-8.705Zm4.544-6.678c-4.768 0-8.134 3.602-8.134 8.077v.159c0 .261 0 .517.032.772v.084c.017.187.043.375.072.559 0 .045.016.09.023.133a8.514 8.514 0 0 0 .308 1.201c.062.172.123.343.195.51a7.911 7.911 0 0 0 4.388 4.353 8.547 8.547 0 0 0 3.245.624 9.391 9.391 0 0 0 2.292-.256 8.053 8.053 0 0 0 1.827-.678 6.725 6.725 0 0 0 1.402-.97c.364-.335.691-.708.974-1.114l-2.272-2.262c-.16.28-.348.545-.561.789a5.59 5.59 0 0 1-1.416 1.043 4.678 4.678 0 0 1-2.242.475 4.52 4.52 0 0 1-1.86-.384 5.005 5.005 0 0 1-1.545-1.067 5.167 5.167 0 0 1-1.065-1.638 4.344 4.344 0 0 1-.142-.407 3.292 3.292 0 0 1-.055-.19l-.04-.159a7.373 7.373 0 0 1-.1-.556h12.43v-.937c0-4.882-3.245-8.151-7.756-8.151M44.954 33.41c0 3.183-2.46 5.096-4.71 5.096-1.476 0-2.642-.805-2.642-2.262 0-2.062 3.194-3.29 7.352-3.29v.456Zm3.34 4.472v-12.55H35.058v3.296h9.896v1.68c-7.79 0-10.83 2.233-10.95 6.033-.105 3.198 2.424 5.153 5.517 5.153 1.992 0 4.15-.782 5.345-2.656h.104v2.346h5.803v-3.296l-2.48-.006Z"/></svg>