<svg xmlns="http://www.w3.org/2000/svg" width="176" height="65" fill="none" viewBox="0 0 176 65"><path fill="#0A1133" fill-rule="evenodd" d="M41.307 17H36.42l17.24 30h4.955L41.307 17Zm61.221 13.914v10.181h3.054v-9.638h3.937v-2.58h-3.937s-.135-1.696.543-2.578c.804-1.044 2.24-.948 3.044-.894.216.014.385.026.486.011l.203-2.579c-.412-.086-2.628-.204-3.393 0-1.018.272-2.062.77-2.715 1.63-.654.842-1.358 2.035-1.222 4.007v2.44Zm17.784 10.18V28.879c1.764-1.018 4.977-1.29 5.836-1.29 1.697 0 3.793.752 4.412 1.63.619.876 1.29 2.334 1.29 3.933v7.944h-3.055v-7.557c0-1.606-.764-2.926-1.968-3.167-.679-.136-2.86-.096-3.393.42v10.304h-3.122Zm26.132.204c-2.594 0-4.481-.678-4.481-.678h.001l.543-2.58c.488.362 1.273.527 1.915.662.139.03.272.057.393.085.383.09.886.087 1.435.084l.302-.001c.72 0 1.996-.15 1.996-1.169 0-.369-.051-.772-.322-1.018a3.58 3.58 0 0 0-1.053-.679 23.715 23.715 0 0 0-1.35-.542c-.541-.199-1.081-.48-1.622-.76l-.106-.055c-.558-.316-1.018-.815-1.378-1.29-.36-.492-.481-1.174-.481-1.894 0-1.142.373-2.074 1.238-2.794.864-.72 2.034-1.08 3.51-1.08.936 0 3.065.294 3.804.61l-.543 2.376c-.468-.211-2.658-.543-3.18-.543-.666 0-1.161.126-1.485.407-.22.191-.427.462-.427.866 0 .51.211.974.751 1.238s1.17.568 1.89.814c.612.211 1.207.499 1.783.815.576.299 1.053.797 1.431 1.29.292.379.39 1.092.39 1.9 0 1.107-.237 2.06-1.119 2.85-.882.774-2.161 1.086-3.835 1.086Zm-52.545 0c-1.582 0-3.724-.203-5.42-1.9-1.064-1.063-1.833-2.67-1.833-4.751 0-1.375.126-2.375.534-3.394.271-1.018 1.142-2.181 1.967-2.715 1.018-.678 2.483-.95 3.394-.95.722 0 2.036.272 3.054.815v-4.887l2.919-.407v17.443c-1.561.543-3.81.747-4.615.747Zm1.696-2.85V30.95c-1.018-.716-2.285-.784-2.715-.784-.808 0-1.79.347-2.375 1.086-.4.506-.815 1.391-.815 2.715 0 1.359.316 2.672.815 3.394.499.722 1.477 1.802 5.09 1.086Zm-15.6-3.462h-5.653c.82-2.437 1.49-4.161 2.58-6.966l.195-.5.242.591c1.054 2.575 1.714 4.187 2.636 6.875Zm-4.276-10.759c-2.926 6.524-4.411 10.218-6.788 16.868h3.258l1.222-3.53h7.398l1.256 3.53h3.36c-2.343-6.825-3.799-10.537-6.788-16.868H75.72Zm37.534-.915h2.986v2.85h-2.986v-2.85Zm2.986 5.09h-2.986v12.693h2.986V28.403Zm19.411-5.09h2.987v2.85h-2.987v-2.85Zm2.987 5.09h-2.987v12.693h2.987V28.403ZM37.635 23.367l2.45 4.265L28.955 47H24l13.635-23.634Zm-.015 12.966 2.466 4.29L36.42 47h-4.954l6.154-10.668Zm4.976 4.29 2.466-4.29L51.216 47h-4.954l-3.666-6.378Z" clip-rule="evenodd"/></svg>