<svg xmlns="http://www.w3.org/2000/svg" width="176" height="65" fill="none" viewBox="0 0 176 65"><path fill="#0A1133" d="M140.59 23.825h-4.099l-7.539 7.517v-7.517h-2.89v17.44h2.89v-7.489l7.539 7.488h4.099l-8.722-8.717 8.722-8.722Zm-30.015 2.565c-1.712 1.707-2.566 3.76-2.566 6.157 0 2.408.854 4.462 2.566 6.152 1.707 1.708 3.769 2.565 6.182 2.565 1.204 0 2.332-.224 3.38-.68a8.86 8.86 0 0 0 2.777-1.885l-2.063-2.036c-1.157 1.124-2.522 1.686-4.099 1.686-1.61 0-2.983-.562-4.124-1.686-1.141-1.158-1.707-2.527-1.707-4.116 0-1.593.57-2.958 1.707-4.1 1.141-1.14 2.514-1.706 4.124-1.706 1.594 0 2.958.57 4.099 1.707l2.063-2.062a8.903 8.903 0 0 0-2.777-1.885 8.443 8.443 0 0 0-3.38-.676c-2.426 0-4.488.853-6.182 2.565ZM74.673 41.264h11.612V38.35h-8.722V23.825h-2.89v17.44Zm-9.833-8.717-5.832-.026v-5.78h5.832c.786 0 1.466.287 2.036.853.571.57.854 1.247.854 2.037a2.81 2.81 0 0 1-.854 2.062c-.57.57-1.25.854-2.036.854Zm4.775.376a5.661 5.661 0 0 0 1.03-3.292c0-1.593-.57-2.958-1.706-4.095-1.141-1.14-2.506-1.707-4.1-1.707h-8.721v17.44h2.89v-5.81h4.927l3.368 5.805h3.343l-3.596-6.258c1.04-.418 1.893-1.111 2.565-2.083Zm-20.998-9.098h2.89v17.44h-2.89v-17.44Zm-11.895 6.512 2.565 5.121h-5.13l2.565-5.121ZM28 41.264h3.241l1.483-2.915h8.02l1.459 2.915h3.24l-8.721-17.44L28 41.265Zm74.71-14.887a9.171 9.171 0 0 0-1.457-1.196l-1.129 2.79c.178.143.355.295.524.464 1.141 1.141 1.712 2.506 1.712 4.099 0 1.589-.571 2.958-1.712 4.116-1.14 1.124-2.505 1.686-4.094 1.686-.203 0-.406-.008-.605-.03l-1.124 2.785a9.198 9.198 0 0 0 1.729.156c2.412 0 4.466-.853 6.156-2.565 1.725-1.673 2.591-3.727 2.591-6.152 0-2.392-.866-4.446-2.591-6.153Zm-11.962 6.157c0-1.593.561-2.958 1.681-4.099 1.158-1.14 2.531-1.707 4.12-1.707.216 0 .423.013.626.034l1.124-2.785a9.458 9.458 0 0 0-1.754-.16c-2.43 0-4.483.853-6.157 2.564-1.707 1.708-2.565 3.761-2.565 6.157 0 2.409.854 4.463 2.565 6.153.45.452.944.857 1.475 1.208l1.116-2.763a7.244 7.244 0 0 1-.558-.478c-1.112-1.162-1.674-2.535-1.674-4.124Z"/><path fill="#0A1133" fill-opacity=".4" d="m89.045 46.847 1.757-4.349 2.958 1.196-1.757 4.349-2.958-1.196ZM99.357 21.35l1.758-4.35 2.958 1.196-1.758 4.348-2.958-1.195Z"/><path fill="#0A1133" d="m145.419 26.246-1.048-.004v-1.036h1.048c.139 0 .262.051.363.153a.496.496 0 0 1 .152.363c0 .144-.05.266-.152.368a.472.472 0 0 1-.363.156Zm.858.068c.122-.178.186-.372.186-.592a.997.997 0 0 0-.309-.735 1 1 0 0 0-.735-.309h-1.564v3.127h.52v-1.04h.883l.605 1.04h.6l-.647-1.124a.932.932 0 0 0 .461-.367Z"/><path fill="#0A1133" d="M145.093 29.22a2.907 2.907 0 1 1 0-5.813 2.907 2.907 0 0 1 0 5.814Zm0-5.383a2.48 2.48 0 0 0-2.476 2.477 2.48 2.48 0 0 0 2.476 2.476 2.48 2.48 0 0 0 2.477-2.476 2.48 2.48 0 0 0-2.477-2.477Z"/></svg>