<svg width="176" height="64" viewBox="0 0 176 64" fill="none" xmlns="http://www.w3.org/2000/svg">
<path d="M24.459 32.1311C24.459 33.3115 23.541 34.3606 22.2295 34.3606C21.0492 34.3606 20 33.4426 20 32.1311C20 30.9508 20.918 29.9016 22.2295 29.9016C23.541 30.0328 24.459 30.9508 24.459 32.1311Z" fill="#1A2446"/>
<path d="M32.7213 29.5082C31.1476 29.5082 29.9672 28.3279 29.9672 26.7541C29.9672 25.1803 28.7869 24 27.2131 24C25.6394 24 24.459 25.1803 24.459 26.7541C24.459 28.3279 25.6394 29.5082 27.2131 29.5082C28.7869 29.5082 29.9672 30.6885 29.9672 32.2623C29.9672 33.8361 28.7869 35.0164 27.2131 35.0164C25.6394 35.0164 24.459 36.1967 24.459 37.7705C24.459 39.3443 25.6394 40.5246 27.2131 40.5246C28.7869 40.5246 29.9672 39.3443 29.9672 37.7705C29.9672 36.1967 31.1476 35.0164 32.7213 35.0164C34.2951 35.0164 35.4754 33.8361 35.4754 32.2623C35.4754 30.6885 34.164 29.5082 32.7213 29.5082Z" fill="#1A2446"/>
<path d="M51.2131 30.1638C51.2131 29.6393 51.2131 29.1147 51.082 28.7212C50.9508 28.3278 50.8197 27.9343 50.4262 27.672C50.1639 27.4097 49.7705 27.2786 49.377 27.1474C48.9836 27.0163 48.3279 27.0163 47.6721 27.0163C47.0164 27.0163 46.4918 27.0163 46.0984 27.1474C45.7049 27.2786 45.3115 27.4097 44.918 27.5409C44.6557 27.672 44.2623 27.8032 44.1311 27.8032C43.8689 27.9343 43.7377 27.9343 43.4754 27.9343C43.082 27.9343 42.8197 27.8032 42.6885 27.672C42.4262 27.4097 42.4262 27.1475 42.4262 26.754C42.4262 26.4917 42.4262 26.3606 42.5574 26.2294C42.5574 26.0983 42.6885 25.9671 42.9508 25.836C43.082 25.7048 43.3443 25.5737 43.7377 25.3114C44.1311 25.1802 44.5246 24.9179 45.0492 24.7868C45.5738 24.6557 46.0984 24.5245 46.7541 24.3934C47.4098 24.2622 48.0656 24.2622 48.7213 24.2622C50.8197 24.2622 52.3934 24.7868 53.4426 25.7048C54.4918 26.6229 55.0164 27.9343 55.0164 29.7704V35.2786C55.0164 35.9343 55.0164 36.5901 55.1475 36.9835C55.1475 37.377 55.2787 37.7704 55.2787 38.0327C55.2787 38.295 55.4098 38.5573 55.4098 38.6884C55.4098 38.8196 55.541 39.0819 55.541 39.213C55.541 39.3442 55.541 39.6065 55.4098 39.7376C55.2787 39.8688 55.2787 39.9999 55.1475 40.1311C55.0164 40.2622 54.8852 40.3933 54.6229 40.3933C54.4918 40.3933 54.2295 40.5245 53.9672 40.5245C53.7049 40.5245 53.4426 40.5245 53.1803 40.3933C52.918 40.2622 52.7869 40.1311 52.6557 39.9999C52.5246 39.8688 52.3934 39.6065 52.2623 39.3442C52.1311 39.0819 52.1311 38.8196 52 38.5573C51.6066 38.9507 51.2131 39.3442 50.8197 39.6065C50.4262 39.8688 49.9016 40.1311 49.377 40.3933C48.7213 40.6556 48.0656 40.7868 47.2787 40.7868C46.4918 40.7868 45.7049 40.6556 45.0492 40.3933C44.3934 40.1311 43.8689 39.8688 43.3443 39.4753C42.9508 39.0819 42.5574 38.5573 42.2951 38.0327C42.0328 37.5081 41.9016 36.8524 41.9016 36.1966C41.9016 35.5409 42.0328 34.8852 42.4262 34.2294C42.6885 33.7048 43.2131 33.1802 43.7377 32.9179C44.2623 32.5245 45.0492 32.2622 45.8361 32.1311C46.623 31.9999 47.541 31.8688 48.5902 31.8688C49.1148 31.8688 49.5082 31.8688 49.9016 31.8688C50.2951 31.8688 50.5574 31.9999 50.8197 31.9999C51.082 31.9999 51.3443 32.1311 51.6066 32.1311V30.1638H51.2131ZM51.2131 34.0983C50.9508 34.0983 50.6885 33.9671 50.4262 33.9671C50.1639 33.9671 49.9016 33.836 49.6393 33.836C49.377 33.836 48.9836 33.836 48.5902 33.836C47.4098 33.836 46.4918 33.9671 45.9672 34.3606C45.4426 34.6229 45.0492 35.1474 45.0492 35.8032C45.0492 36.0655 45.0492 36.4589 45.1803 36.7212C45.3115 36.9835 45.4426 37.2458 45.7049 37.377C45.9672 37.5081 46.2295 37.7704 46.4918 37.9016C46.8852 38.0327 47.1475 38.0327 47.6721 38.0327C48.1967 38.0327 48.7213 37.9015 49.1148 37.7704C49.5082 37.5081 49.9016 37.377 50.2951 37.1147C50.6885 36.8524 50.9508 36.4589 51.2131 36.1966V34.0983Z" fill="#1A2446"/>
<path d="M59.6066 25.7049C59.6066 25.3114 59.7377 24.918 60 24.6557C60.2623 24.3934 60.6557 24.2622 61.0492 24.2622C61.3115 24.2622 61.4426 24.2622 61.7049 24.3934C61.8361 24.3934 62.0984 24.5245 62.2295 24.6557C62.3607 24.7868 62.4918 24.918 62.4918 25.0491C62.623 25.1803 62.623 25.4426 62.623 25.5737L62.7541 26.4918C63.0164 26.0983 63.4098 25.5737 63.9344 25.3114C64.0656 25.1803 64.3279 25.0491 64.5902 24.918C64.8525 24.7868 65.1148 24.6557 65.3771 24.5245C65.6393 24.3934 66.0328 24.2622 66.4262 24.2622C66.8197 24.1311 67.2131 24.1311 67.6066 24.1311C68.7869 24.1311 69.8361 24.3934 70.7541 24.918C71.541 25.4426 72.1967 26.0983 72.7213 27.0163C73.1148 26.4918 73.5082 25.9672 74.0328 25.5737C74.2951 25.4426 74.5574 25.1803 74.8197 25.0491C75.082 24.918 75.3443 24.7868 75.7377 24.5245C76.1312 24.3934 76.3935 24.2622 76.7869 24.2622C77.1803 24.1311 77.5738 24.1311 78.0984 24.1311C79.0164 24.1311 79.8033 24.2622 80.459 24.5245C81.1148 24.7868 81.7705 25.1803 82.2951 25.7049C82.8197 26.2295 83.2131 26.8852 83.4754 27.6721C83.7377 28.459 83.8689 29.377 83.8689 30.4262V38.6885C83.8689 39.2131 83.7377 39.6065 83.4754 39.8688C83.2131 40.1311 82.8197 40.2622 82.1639 40.2622C81.6394 40.2622 81.1148 40.1311 80.8525 39.8688C80.5902 39.6065 80.459 39.2131 80.459 38.6885V30.9508C80.459 30.295 80.3279 29.6393 80.1967 29.1147C80.0656 28.5901 79.8033 28.1967 79.541 27.8032C79.2787 27.4098 78.8853 27.2786 78.4918 27.0163C78.0984 26.8852 77.7049 26.7541 77.1803 26.7541C76.918 26.7541 76.5246 26.7541 76.2623 26.8852C76 27.0163 75.7377 27.0163 75.4754 27.1475C75.2131 27.2786 75.082 27.4098 74.8197 27.5409C74.6885 27.6721 74.4262 27.8032 74.2951 28.0655C73.9016 28.459 73.6394 28.8524 73.3771 29.377C73.3771 29.5082 73.3771 29.6393 73.3771 29.9016C73.3771 30.1639 73.3771 30.5573 73.3771 30.8196V38.5573C73.3771 39.0819 73.2459 39.4754 72.9836 39.7377C72.7213 40 72.1967 40.1311 71.6721 40.1311C71.1475 40.1311 70.623 40 70.3607 39.7377C70.0984 39.4754 69.9672 39.0819 69.9672 38.5573V30.8196C69.9672 30.1639 69.8361 29.5081 69.7049 28.9836C69.5738 28.459 69.3115 28.0655 69.0492 27.6721C68.7869 27.2786 68.3934 27.1475 68 26.8852C67.6066 26.7541 67.2131 26.6229 66.6885 26.6229C66.4262 26.6229 66.1639 26.6229 65.9016 26.7541C65.6393 26.8852 65.3771 26.8852 65.1148 27.0163C64.8525 27.1475 64.7213 27.2786 64.459 27.4098C64.3279 27.5409 64.0656 27.6721 63.9344 27.8032C63.541 28.1967 63.2787 28.5901 63.0164 28.9836V38.295C63.0164 38.8196 62.8853 39.2131 62.623 39.4754C62.3607 39.7377 61.9672 39.8688 61.3115 39.8688C60.7869 39.8688 60.2623 39.7377 60 39.4754C59.7377 39.2131 59.6066 38.8196 59.6066 38.295V25.7049Z" fill="#1A2446"/>
<path d="M97.2459 30.1638C97.2459 29.6393 97.2459 29.1147 97.1148 28.7212C96.9836 28.3278 96.8525 27.9343 96.459 27.672C96.1967 27.4097 95.8033 27.2786 95.4099 27.1474C95.0164 27.0163 94.3607 27.0163 93.7049 27.0163C93.0492 27.0163 92.5246 27.0163 92.1312 27.1474C91.7377 27.2786 91.3443 27.4097 90.9508 27.5409C90.6885 27.672 90.2951 27.8032 90.164 27.8032C89.9017 27.9343 89.7705 27.9343 89.5082 27.9343C89.1148 27.9343 88.8525 27.8032 88.7213 27.672C88.459 27.4097 88.459 27.1475 88.459 26.754C88.459 26.4917 88.459 26.3606 88.5902 26.2294C88.5902 26.0983 88.7213 25.9671 88.9836 25.836C89.1148 25.7048 89.3771 25.5737 89.7705 25.3114C90.164 25.1802 90.5574 24.9179 91.082 24.7868C91.6066 24.6557 92.1312 24.5245 92.7869 24.3934C93.4426 24.2622 94.0984 24.2622 94.7541 24.2622C96.8525 24.2622 98.4262 24.7868 99.4754 25.7048C100.525 26.6229 101.049 27.9343 101.049 29.7704V35.2786C101.049 35.9343 101.049 36.5901 101.18 36.9835C101.18 37.377 101.311 37.7704 101.311 38.0327C101.311 38.295 101.443 38.5573 101.443 38.6884C101.443 38.8196 101.574 39.0819 101.574 39.213C101.574 39.3442 101.574 39.6065 101.443 39.7376C101.311 39.8688 101.311 39.9999 101.18 40.1311C101.049 40.2622 100.918 40.3933 100.656 40.3933C100.525 40.3933 100.262 40.5245 100 40.5245C99.7377 40.5245 99.4754 40.5245 99.2131 40.3933C98.9508 40.2622 98.8197 40.1311 98.6885 39.9999C98.5574 39.8688 98.4263 39.6065 98.2951 39.3442C98.164 39.0819 98.164 38.8196 98.0328 38.5573C97.6394 38.9507 97.2459 39.3442 96.8525 39.6065C96.459 39.8688 95.9344 40.1311 95.4099 40.3933C94.8853 40.6556 94.0984 40.7868 93.3115 40.7868C92.5246 40.7868 91.7377 40.6556 91.082 40.3933C90.4263 40.1311 89.9017 39.8688 89.3771 39.4753C88.9836 39.0819 88.5902 38.5573 88.3279 38.0327C88.0656 37.5081 87.9344 36.8524 87.9344 36.1966C87.9344 35.5409 88.0656 34.8852 88.459 34.2294C88.7213 33.7048 89.2459 33.1802 89.7705 32.9179C90.2951 32.5245 91.082 32.2622 91.8689 32.1311C92.6558 31.9999 93.5738 31.8688 94.623 31.8688C95.1476 31.8688 95.541 31.8688 95.9344 31.8688C96.3279 31.8688 96.5902 31.9999 96.8525 31.9999C97.1148 31.9999 97.3771 32.1311 97.6394 32.1311V30.1638H97.2459ZM97.2459 34.0983C96.9836 34.0983 96.7213 33.9671 96.459 33.9671C96.1967 33.9671 95.9344 33.836 95.6722 33.836C95.4099 33.836 95.0164 33.836 94.623 33.836C93.4426 33.836 92.5246 33.9671 92 34.3606C91.4754 34.6229 91.082 35.1474 91.082 35.8032C91.082 36.0655 91.082 36.4589 91.2131 36.7212C91.3443 36.9835 91.4754 37.2458 91.7377 37.377C92 37.5081 92.2623 37.7704 92.5246 37.9016C92.9181 38.0327 93.1804 38.0327 93.7049 38.0327C94.2295 38.0327 94.7541 37.9015 95.1476 37.7704C95.541 37.5081 95.9344 37.377 96.3279 37.1147C96.7213 36.8524 96.9836 36.4589 97.2459 36.1966V34.0983Z" fill="#1A2446"/>
<path d="M105.77 25.7049C105.77 25.3114 105.902 24.918 106.164 24.6557C106.426 24.3934 106.82 24.2622 107.213 24.2622C107.475 24.2622 107.607 24.2622 107.869 24.3934C108 24.3934 108.262 24.5245 108.393 24.6557C108.525 24.7868 108.656 24.918 108.656 25.0491C108.787 25.1803 108.787 25.4426 108.787 25.5737L108.918 26.4918C109.18 26.0983 109.574 25.5737 110.098 25.3114C110.361 25.1803 110.492 25.0491 110.754 24.918C111.016 24.7868 111.279 24.6557 111.541 24.5245C111.803 24.3934 112.197 24.2622 112.59 24.2622C112.984 24.1311 113.377 24.1311 113.77 24.1311C114.689 24.1311 115.475 24.2622 116.262 24.5245C117.049 24.7868 117.574 25.1803 118.098 25.7049C118.623 26.2295 119.016 26.8852 119.279 27.6721C119.541 28.459 119.672 29.377 119.672 30.4262V38.6885C119.672 39.2131 119.541 39.6065 119.279 39.8688C119.016 40.1311 118.623 40.2622 117.967 40.2622C117.443 40.2622 116.918 40.1311 116.656 39.8688C116.393 39.6065 116.262 39.2131 116.262 38.6885V30.9508C116.262 30.295 116.131 29.6393 116 29.1147C115.869 28.5901 115.607 28.1967 115.344 27.8032C115.082 27.4098 114.689 27.2786 114.295 27.0163C113.902 26.8852 113.377 26.7541 112.852 26.7541C112.59 26.7541 112.197 26.7541 111.934 26.8852C111.672 27.0163 111.41 27.0163 111.148 27.1475C110.885 27.2786 110.754 27.4098 110.492 27.5409C110.361 27.6721 110.098 27.8032 109.967 27.9344C109.574 28.3278 109.311 28.7213 109.049 29.1147V38.4262C109.049 38.9508 108.918 39.3442 108.656 39.6065C108.393 39.8688 108 40 107.344 40C106.82 40 106.295 39.8688 106.033 39.6065C105.77 39.3442 105.639 38.9508 105.639 38.4262V25.7049H105.77Z" fill="#1A2446"/>
<path d="M123.475 32.6557C123.475 31.3442 123.607 30.1638 124 29.1147C124.393 28.0655 124.918 27.1474 125.574 26.4917C126.23 25.7048 127.148 25.1802 128.066 24.7868C129.115 24.3934 130.164 24.2622 131.344 24.2622C132.525 24.2622 133.574 24.3934 134.492 24.7868C135.41 25.1802 136.197 25.7048 136.852 26.3606C137.508 27.0163 138.033 27.9343 138.426 28.8524C138.82 29.7704 138.951 30.9507 138.951 32.1311C138.951 33.4425 138.82 34.6229 138.426 35.672C138.033 36.7212 137.508 37.6393 136.852 38.295C136.197 39.0819 135.279 39.6065 134.361 39.9999C133.311 40.3934 132.262 40.5245 131.082 40.5245C129.902 40.5245 128.852 40.3934 127.934 39.9999C127.016 39.6065 126.23 39.0819 125.443 38.4261C124.787 37.7704 124.262 36.8524 123.869 35.9343C123.738 34.8852 123.475 33.836 123.475 32.6557ZM127.016 32.2622C127.016 33.1802 127.148 33.9671 127.41 34.6229C127.672 35.2786 127.934 35.9343 128.328 36.3278C128.721 36.8524 129.246 37.1147 129.77 37.377C130.295 37.6393 130.82 37.7704 131.475 37.7704C132.131 37.7704 132.656 37.6393 133.18 37.377C133.705 37.1147 134.098 36.8524 134.492 36.3278C134.885 35.9343 135.148 35.2786 135.41 34.6229C135.672 33.9671 135.803 33.1802 135.803 32.2622C135.803 31.3442 135.672 30.5573 135.41 29.9015C135.148 29.2458 134.885 28.5901 134.492 28.1966C134.098 27.672 133.574 27.4097 133.049 27.1474C132.525 26.8852 132 26.754 131.344 26.754C130.689 26.754 130.164 26.8852 129.639 27.1474C129.115 27.4097 128.59 27.672 128.328 28.1966C127.934 28.5901 127.672 29.2458 127.41 29.9015C127.148 30.5573 127.016 31.3442 127.016 32.2622Z" fill="#1A2446"/>
<path d="M142.885 27.6721C142.754 27.5409 142.623 27.4098 142.492 27.2786C142.361 27.1475 142.23 27.0163 142.23 26.8852C142.098 26.7541 142.098 26.6229 142.098 26.4918C142.098 26.3606 141.967 26.2295 141.967 26.0983C141.967 25.836 141.967 25.5737 142.098 25.3114C142.23 25.0491 142.361 24.918 142.623 24.6557C142.754 24.5245 143.016 24.3934 143.279 24.2622C143.541 24.1311 143.672 24.1311 143.934 24.1311C144.066 24.1311 144.328 24.1311 144.459 24.2622C144.59 24.2622 144.721 24.3934 144.852 24.5245C144.852 24.5245 144.852 24.5245 144.984 24.6557L145.115 24.7868C145.115 24.7868 145.246 24.918 145.246 25.0491C145.377 25.1803 145.377 25.3114 145.508 25.4426L149.18 29.9016L152.459 25.4426C152.59 25.3114 152.721 25.1803 152.721 25.0491C152.852 24.918 152.852 24.918 152.852 24.7868L152.984 24.6557C152.984 24.6557 152.984 24.6557 153.115 24.5245C153.246 24.3934 153.377 24.2622 153.508 24.2622C153.639 24.2622 153.771 24.1311 154.033 24.1311C154.295 24.1311 154.426 24.1311 154.689 24.2622C154.951 24.3934 155.082 24.5245 155.213 24.6557C155.344 24.7868 155.475 25.0491 155.607 25.1803C155.738 25.4426 155.738 25.5737 155.738 25.836C155.738 25.9672 155.738 26.0983 155.738 26.2295C155.738 26.3606 155.607 26.4918 155.607 26.6229C155.475 26.754 155.475 26.8852 155.344 27.0163C155.213 27.1475 155.082 27.2786 154.951 27.4098L151.016 32L155.082 36.8524C155.213 36.9836 155.344 37.1147 155.475 37.2459C155.607 37.377 155.738 37.5081 155.738 37.6393C155.869 37.7704 155.869 37.9016 155.869 38.0327C155.869 38.1639 156 38.295 156 38.4262C156 38.6885 156 38.9508 155.869 39.2131C155.738 39.4754 155.607 39.6065 155.344 39.8688C155.213 40 154.951 40.1311 154.689 40.2622C154.426 40.3934 154.295 40.3934 154.033 40.3934C153.902 40.3934 153.639 40.3934 153.508 40.2622C153.377 40.2622 153.246 40.1311 153.115 40C153.115 40 153.115 40 152.984 39.8688L152.852 39.7377C152.852 39.7377 152.721 39.6065 152.59 39.4754C152.459 39.3442 152.459 39.2131 152.328 39.0819L148.393 34.2295L144.852 39.0819C144.721 39.2131 144.59 39.3442 144.59 39.4754C144.459 39.6065 144.459 39.6065 144.459 39.7377L144.328 39.8688C144.328 39.8688 144.328 39.8688 144.197 40C144.066 40.1311 143.934 40.2622 143.803 40.2622C143.672 40.3934 143.541 40.3934 143.279 40.3934C143.016 40.3934 142.885 40.3934 142.623 40.2622C142.361 40.1311 142.23 40 142.098 39.8688C141.967 39.7377 141.836 39.4754 141.705 39.3442C141.574 39.0819 141.574 38.9508 141.574 38.6885C141.574 38.5573 141.574 38.4262 141.574 38.295C141.574 38.1639 141.705 38.0327 141.705 37.9016C141.705 37.7704 141.836 37.6393 141.967 37.5081C142.098 37.377 142.23 37.2458 142.361 37.1147L146.557 32.1311L142.885 27.6721Z" fill="#1A2446"/>
</svg>
