<svg xmlns="http://www.w3.org/2000/svg" width="176" height="64" fill="none" viewBox="0 0 176 64"><path fill="#0A1133" d="M34.482 32.438c-.002 2.433-1.703 4.37-4.134 4.698-.552.073-1.12.073-1.66.203-2.093.5-3.509 2.261-3.641 4.469-.175 2.91-1.953 4.882-4.518 5.003-2.62.124-4.822-1.941-4.946-4.637-.117-2.552 1.91-4.758 4.498-4.894 2.543-.134 4.368-1.537 4.853-3.731.685-3.097-1.409-5.79-4.655-5.991-2.552-.158-4.233-1.653-4.636-4.122-.407-2.5 1.348-4.895 3.933-5.369 2.364-.433 4.84 1.27 5.311 3.671.09.463.133.94.161 1.413a4.745 4.745 0 0 0 4.43 4.447c3.111.213 5.005 2.047 5.004 4.84ZM58.072 28.873c.929-.842 1.972-.991 3.101-.825 1.351.2 2.257 1.09 2.3 2.464.06 1.926.022 3.857.026 5.785.001.587-.334.904-.881.892-.508-.011-.805-.328-.805-.877.001-1.65.005-3.298-.012-4.947-.01-.985-.428-1.527-1.215-1.64-.928-.132-1.622.457-1.634 1.438-.02 1.592 0 3.186-.013 4.78-.002.272.002.63-.156.792-.22.224-.717.498-.87.399-.32-.201-.669-.626-.689-.978-.079-1.309-.03-2.626-.032-3.94 0-.39.01-.783-.018-1.172-.057-.802-.567-1.297-1.334-1.33-.807-.034-1.43.448-1.463 1.278-.06 1.451-.035 2.906-.047 4.359-.001.28-.006.558-.001.838.011.593-.244 1.02-.858 1.004-.59-.015-.862-.411-.857-1.019.014-1.676.005-3.353.003-5.031 0-.698-.013-1.398.004-2.095.022-.886.6-1.25 1.404-.958.258.094.589.09.862.023 1.166-.283 2.215-.104 3.184.76Z"/><path fill="#0A1133" d="M11.755 36.13A3.77 3.77 0 0 1 8 32.321a3.771 3.771 0 0 1 3.781-3.781c2.108.003 3.742 1.668 3.735 3.807-.005 2.132-1.652 3.79-3.761 3.781ZM49.799 32.745c0 .56.007 1.12-.002 1.678-.008.517.022.945.6 1.245.236.122.385.746.29 1.052-.073.225-.596.355-.94.428-.183.038-.458-.086-.608-.227-.382-.356-.686-.24-1.105-.03-2.127 1.06-4.491-.304-4.468-2.548.012-1.156.57-1.983 1.742-2.4.678-.241 1.4-.359 2.109-.516.69-.155.853-.535.473-1.138-.495-.785-1.738-.82-2.279-.01-.372.559-.761.982-1.402.507-.617-.458-.36-1.037-.009-1.557.708-1.05 2.156-1.513 3.518-1.134 1.213.337 2.01 1.334 2.07 2.639.03.67.004 1.342.004 2.011h.007Zm-1.723.172c-.804.197-1.497.3-2.14.541-.808.304-.986 1.312-.281 1.705.433.242 1.104.325 1.562.17.367-.125.66-.683.832-1.111.133-.33.027-.758.027-1.306ZM70.37 36.607c-.839.554-1.734.724-2.72.519-1.336-.275-2.163-1.133-2.269-2.431-.112-1.366.461-2.305 1.795-2.772.68-.238 1.403-.362 2.112-.5.616-.119.777-.501.465-.952-.227-.328-.67-.707-1.012-.705-.46.003-.934.324-1.369.567-.297.166-.51.569-.807.627-.666.133-1.087-.64-.788-1.357.471-1.134 1.827-1.778 3.313-1.575 1.33.181 2.376 1.11 2.458 2.357.092 1.39.015 2.793.086 4.187.016.343.347.663.496 1.009.16.37.475.85.354 1.119-.114.255-.703.407-1.08.402-.322-.005-.641-.295-1.034-.495Zm-.49-3.685c-.785.193-1.503.293-2.164.548-.8.309-.899 1.245-.245 1.747.886.68 2.248.159 2.401-.94.055-.404.008-.822.008-1.355ZM144.897 32.587c0-.53-.015-1.062.003-1.592.059-1.68 1.233-2.894 2.894-3.001 1.743-.114 3.136.903 3.309 2.609a20.74 20.74 0 0 1 .005 4.01c-.156 1.64-1.586 2.702-3.247 2.6-1.686-.104-2.879-1.285-2.956-2.948-.025-.557-.003-1.117-.003-1.676l-.005-.002Zm4.526.022h-.006c0-.585.04-1.174-.011-1.755-.062-.726-.625-1.164-1.399-1.139-.726.024-1.281.353-1.322 1.116a36.002 36.002 0 0 0-.003 3.508c.034.75.584 1.14 1.386 1.127.785-.013 1.293-.436 1.347-1.186.04-.553.008-1.112.008-1.67ZM132.434 32.646c0 1.144.011 2.29-.004 3.434-.013 1.003-.594 1.36-1.488.961-.169-.075-.409-.124-.57-.063-2.017.746-3.988-.364-4.149-2.5-.139-1.832-.059-3.683-.054-5.525.002-.582.282-.974.92-.942.588.03.812.42.813.964.004 1.676-.01 3.352.009 5.026.011 1.005.577 1.527 1.516 1.462.775-.056 1.233-.529 1.247-1.39.025-1.618-.009-3.239.032-4.858.008-.359.144-.778.37-1.043.136-.16.645-.2.832-.073.252.173.485.556.499.86.055 1.226.023 2.456.023 3.685 0 .002.002.002.004.002ZM118.683 32.638c0 .585.022 1.172-.005 1.758-.072 1.597-1.377 2.79-3.063 2.82-1.681.029-3.047-1.13-3.126-2.733a40.417 40.417 0 0 1-.011-3.684c.072-1.674 1.404-2.832 3.134-2.81 1.763.024 3.034 1.25 3.073 2.973.012.558.002 1.117.002 1.674 0 .002-.002.002-.004.002Zm-1.721-.03c0-.557.044-1.12-.01-1.671-.079-.806-.619-1.24-1.416-1.225-.787.015-1.33.49-1.359 1.287a44.888 44.888 0 0 0-.001 3.177c.028.82.541 1.272 1.345 1.292.83.02 1.345-.376 1.431-1.193.057-.548.01-1.11.01-1.667ZM88.997 32.6c-.001.586.019 1.173-.005 1.759-.064 1.619-1.347 2.823-3.021 2.857-1.728.033-3.096-1.132-3.17-2.782a42.822 42.822 0 0 1-.001-3.684c.066-1.604 1.413-2.774 3.095-2.77 1.723.005 3.04 1.213 3.1 2.86.02.586.004 1.174.002 1.76Zm-1.7.008c0-.53.03-1.062-.008-1.59-.058-.813-.568-1.284-1.347-1.306-.827-.022-1.409.45-1.447 1.285a36.48 36.48 0 0 0-.006 3.177c.036.851.583 1.302 1.431 1.292.81-.008 1.299-.44 1.366-1.27.044-.527.008-1.06.01-1.588ZM110.649 34.44c-.001 1.236-.565 2.058-1.716 2.504-1.772.688-3.751.1-4.575-1.362-.27-.478-.399-.961.138-1.332.523-.362.981-.153 1.28.33.521.845 1.303 1.068 2.167.834.381-.102.821-.498.956-.864.195-.525-.167-.98-.708-1.15-.635-.202-1.301-.307-1.941-.504-1.357-.42-1.949-1.132-1.951-2.285-.001-1.224.661-2.073 2.002-2.446 1.236-.344 2.439-.255 3.511.535.431.317.773.732.44 1.279-.334.547-.844.46-1.321.17-.706-.427-1.458-.63-2.228-.278-.271.125-.565.482-.597.76-.023.208.315.578.569.675.699.265 1.451.392 2.162.634 1.27.434 1.814 1.215 1.812 2.5ZM164.876 27.98c.883.041 1.614.415 2.33.801.443.238.678.713.349 1.215-.324.493-.803.463-1.255.183-.729-.453-1.501-.665-2.301-.3-.276.127-.577.487-.604.766-.02.211.334.575.595.673.701.263 1.455.384 2.164.627 1.316.451 1.918 1.354 1.839 2.657-.074 1.244-.866 2.161-2.131 2.473-1.722.425-3.266-.082-4.086-1.347-.326-.501-.557-1.042.043-1.476.562-.406 1.015-.089 1.329.404.542.852 1.359.97 2.203.742.345-.093.808-.544.824-.85.018-.368-.297-.903-.628-1.1-.458-.272-1.064-.287-1.604-.424-1.605-.406-2.296-1.143-2.296-2.436 0-1.458.989-2.39 2.729-2.567.166-.017.334-.027.5-.04.03-.059-.025.058 0 0ZM74.427 32.557c0-1.172-.014-2.343.003-3.516.014-.894.58-1.246 1.394-.941.235.089.557.116.785.027 1.71-.663 3.837.486 3.973 2.325.148 1.971.066 3.96.067 5.939 0 .557-.38.82-.876.795-.555-.027-.82-.396-.82-.961.005-1.675.012-3.349-.007-5.023-.01-.924-.521-1.466-1.342-1.488-.87-.024-1.429.505-1.45 1.471-.034 1.507-.014 3.013-.02 4.521 0 .224 0 .447-.013.67-.033.538-.347.834-.867.809-.503-.024-.829-.313-.829-.861.002-1.255.004-2.512.002-3.767ZM153.418 32.544c0-1.174-.017-2.349.005-3.523.015-.894.579-1.228 1.407-.908.215.084.51.128.712.049 1.795-.715 3.932.478 4.051 2.409.118 1.923.041 3.857.041 5.786 0 .554-.346.84-.848.834-.562-.008-.837-.364-.835-.94.003-1.677.017-3.355-.015-5.032-.02-1.093-.789-1.715-1.753-1.467-.767.198-1.066.759-1.067 1.507-.005 1.622-.01 3.243.001 4.865.004.534-.134.98-.718 1.052-.659.082-.978-.284-.978-.94a2275.57 2275.57 0 0 1-.003-3.692ZM94.022 34.127c-.55.891-1.012 1.62-1.456 2.36-.314.521-.69.962-1.337.573-.633-.38-.472-.926-.146-1.451.513-.83 1.003-1.676 1.545-2.486.304-.453.33-.82.012-1.286-.52-.758-.975-1.56-1.457-2.345-.322-.525-.337-1.047.23-1.374.542-.312.943-.008 1.238.482.416.69.853 1.368 1.361 2.182.478-.755.918-1.416 1.324-2.095.322-.539.738-.94 1.345-.54.577.379.458.936.112 1.47-.47.726-.874 1.494-1.377 2.195-.355.495-.298.873.02 1.346.56.832 1.066 1.7 1.589 2.558.295.483.357.982-.168 1.324-.572.374-.99.084-1.308-.44-.468-.78-.955-1.552-1.527-2.473ZM137.131 27.989c.671.114 1.49-.08 1.51.882.02.974-.789.82-1.492.953 0 1.63-.035 3.265.037 4.896.012.253.472.602.787.703.549.174.837.473.758 1.016-.085.584-.533.713-1.067.681-1.296-.077-2.239-1.137-2.271-2.635-.029-1.339-.017-2.68-.007-4.018.004-.396-.038-.643-.517-.787-.276-.082-.593-.53-.61-.829-.014-.246.352-.69.61-.74.526-.1.522-.394.519-.771-.005-.698-.005-1.396 0-2.094.005-.599.114-1.183.862-1.181.722 0 .898.522.888 1.157-.019.912-.007 1.826-.007 2.767ZM121.083 29.903c0-1.535.003-3.07-.004-4.605-.003-.643.111-1.247.898-1.23.783.017.862.633.86 1.267-.006 2.93.007 5.862-.006 8.792-.004.71.084 1.24.963 1.383.248.04.61.174.61.845 0 .433-.5.7-.79.74-1.464.203-2.481-.778-2.521-2.417-.041-1.592-.009-3.184-.01-4.775ZM142.508 32.588c0 1.172-.014 2.347.005 3.52.01.627-.215 1.072-.876 1.078-.629.007-.845-.438-.844-1.018.004-2.374.004-4.748.005-7.123 0-.566.173-1.027.826-1.032.679-.007.896.43.889 1.055-.015 1.174-.005 2.347-.005 3.52ZM142.51 25.17c.028.566-.245.995-.895.982-.629-.012-.803-.478-.795-1.049.008-.56.153-1.026.802-1.043.683-.017.894.438.888 1.11Z"/></svg>