<svg xmlns="http://www.w3.org/2000/svg" width="176" height="64" fill="none" viewBox="0 0 176 64"><g clip-path="url(#a)"><path fill="#232947" d="M128.935 26.93c-.672-.374-.237-.878-.237-.878l1.271-1.563c.274-.33.641-.293.909-.156 2.921 1.482 6.831 1.85 9.652 1.47 2.448-.33 2.871-1.383 2.871-2.298 0-1.295-1.239-1.725-1.239-1.725-.741-.399-3.718-.58-7.386-.953s-5.785-2.167-5.785-4.988c0-1.743.71-2.94 2.323-3.998 1.694-1.114 8.525-2.74 15.306.947.629.324.237.878.237.878l-1.27 1.563c-.287.311-.648.28-.909.156-1.987-1.072-4.964-1.632-7.766-1.62-4.297.125-4.303 1.476-4.303 2.068 0 .66 0 1.488 2.672 1.8l5.056.548c4.739.51 6.757 2.366 6.67 5.473-.088 3.108-2.074 4.334-4.671 5.044 0 0-6.85 1.881-13.395-1.774l-.006.006ZM84.777 10.546h-2.472a.58.58 0 0 0-.58.58v17.467c0 .32.26.579.58.579h2.472c.32 0 .58-.26.58-.58V11.126a.58.58 0 0 0-.58-.579Z"/><path fill="#0A1133" fill-opacity=".6" d="M64.365 22.39c7.304 7.959 14.011 6.713 14.011 6.713.318 0 .58-.255.58-.573v-2.242a.577.577 0 0 0-.58-.572s-4.085.162-7.062-1.694c-2.97-1.85-4.639-4.147-4.651-4.16.012-.012 1.681-2.316 4.651-4.16 2.977-1.855 7.062-1.694 7.062-1.694.318 0 .58-.255.58-.572v-2.242a.577.577 0 0 0-.58-.573s-6.707-1.24-14.011 6.713c-7.305-7.959-14.011-6.72-14.011-6.72a.577.577 0 0 0-.58.573v2.242c0 .318.262.573.58.573 0 0 4.085-.162 7.061 1.694 2.97 1.85 4.64 4.147 4.652 4.16-.013.012-1.681 2.316-4.652 4.16-2.976 1.855-7.062 1.693-7.062 1.693a.577.577 0 0 0-.579.573v2.242c0 .318.262.573.58.573 0 0 6.706 1.24 14.01-6.713v.006Z"/><path fill="#232947" d="M103.634 12.066c-1.694-1.128-8.202-3.052-14.983.678-.63.324-.237.885-.237.885l1.27 1.581c.287.318.648.287.91.162 1.986-1.083 4.639-1.563 7.441-1.55 4.297.124 4.503 1.681 4.503 2.279v2.148a5.681 5.681 0 0 0-2.28-.473h-7.043a5.695 5.695 0 1 0 0 11.39h7.043a5.692 5.692 0 0 0 5.692-5.698V16.1c0-1.769-.71-2.97-2.323-4.042l.007.007Zm-3.189 13.911h-7.41c-1.32 0-2.398-1.12-2.398-2.503s1.078-2.497 2.398-2.497h7.41c1.32 0 2.398 1.12 2.398 2.497 0 1.376-1.078 2.503-2.398 2.503ZM45.11 12.066c-1.694-1.128-8.201-3.052-14.977.678-.629.324-.236.885-.236.885l1.27 1.581c.286.318.648.287.91.162 1.986-1.083 4.639-1.563 7.44-1.55 4.298.124 4.503 1.681 4.503 2.279v2.148a5.676 5.676 0 0 0-2.28-.473h-7.042A5.7 5.7 0 0 0 29 23.474a5.67 5.67 0 0 0 1.669 4.029 5.66 5.66 0 0 0 4.029 1.669h7.043a5.691 5.691 0 0 0 5.692-5.698v-7.367c0-1.768-.71-2.97-2.323-4.041Zm-3.188 13.911h-7.41c-1.321 0-2.398-1.12-2.398-2.503s1.077-2.497 2.397-2.497h7.41c1.32 0 2.398 1.12 2.398 2.497 0 1.376-1.077 2.503-2.398 2.503ZM117.558 10.54c2.048 0 3.257.193 3.257.193 5.947.753 5.766 5.224 5.766 5.224v12.598c0 .318-.262.58-.579.58h-2.261a.582.582 0 0 1-.579-.58V15.964s.069-1.638-3.089-1.918c-1.861-.162-2.522-.125-2.522-.125s-.66-.037-2.522.125c-3.157.28-3.088 1.918-3.088 1.918V28.56c0 .318-.262.58-.579.58h-2.261a.582.582 0 0 1-.579-.58V15.964s-.181-4.471 5.766-5.225c0 0 1.208-.193 3.257-.193l.013-.006Z"/><path fill="#232947" fill-opacity=".7" d="M32.799 45.562a1.899 1.899 0 1 1-3.8 0 1.899 1.899 0 0 1 3.8 0ZM39.923 43.227a2.372 2.372 0 0 1-2.373-2.373 2.376 2.376 0 0 0-2.372-2.373 2.376 2.376 0 0 0-2.373 2.373 2.376 2.376 0 0 0 2.373 2.373 2.376 2.376 0 0 1 2.372 2.372 2.376 2.376 0 0 1-2.372 2.373 2.376 2.376 0 0 0-2.373 2.372 2.376 2.376 0 0 0 2.373 2.373 2.376 2.376 0 0 0 2.372-2.373 2.376 2.376 0 0 1 2.373-2.372 2.376 2.376 0 0 0 2.372-2.373 2.376 2.376 0 0 0-2.372-2.372ZM56.007 43.793c0-.504-.056-.94-.162-1.301a1.939 1.939 0 0 0-.523-.884c-.236-.225-.554-.393-.946-.505-.393-.106-.872-.162-1.433-.162-.56 0-1.008.044-1.4.131-.393.087-.736.18-1.016.286-.286.106-.53.2-.735.28a1.554 1.554 0 0 1-.56.125.948.948 0 0 1-.704-.274c-.18-.18-.274-.436-.274-.76 0-.174.025-.323.081-.454.056-.13.15-.262.287-.386.124-.137.342-.28.647-.436a6.822 6.822 0 0 1 1.102-.424c.436-.124.928-.236 1.476-.323.555-.094 1.14-.137 1.763-.137 1.8 0 3.15.404 4.047 1.214.903.81 1.352 1.986 1.352 3.537v4.764c0 .604.018 1.096.062 1.47.044.373.087.684.137.927.05.243.093.442.137.598.044.156.062.305.062.46 0 .163-.03.312-.093.45a1.23 1.23 0 0 1-.255.36c-.106.106-.25.181-.411.237a1.713 1.713 0 0 1-.549.081c-.242 0-.46-.044-.653-.125a1.33 1.33 0 0 1-.492-.354 2.066 2.066 0 0 1-.355-.555 3.867 3.867 0 0 1-.224-.716h-.044a4.944 4.944 0 0 1-1.046.947c-.343.236-.772.448-1.29.641-.516.193-1.114.293-1.805.293-.735 0-1.389-.1-1.968-.305a4.27 4.27 0 0 1-1.463-.847 3.58 3.58 0 0 1-.91-1.283 4.128 4.128 0 0 1-.31-1.607c0-.622.136-1.177.404-1.656.274-.48.66-.878 1.158-1.196.505-.317 1.109-.554 1.825-.716.716-.162 1.52-.243 2.416-.243.417 0 .79.013 1.12.044.33.025.611.056.848.093.274.038.504.081.703.137v-1.426h-.006Zm0 3.456c-.2-.056-.417-.1-.66-.137a6.269 6.269 0 0 0-.735-.105 10.8 10.8 0 0 0-.953-.044c-1.04 0-1.805.137-2.297.423-.499.28-.741.698-.741 1.246 0 .274.05.517.149.747.1.23.25.424.448.592.2.168.442.299.729.398.286.1.623.15 1.003.15.485 0 .921-.087 1.301-.268.38-.18.704-.367.971-.58.306-.255.573-.535.798-.84v-1.588l-.013.006ZM63.306 39.939c0-.399.106-.704.324-.922.218-.218.523-.324.921-.324.2 0 .374.025.53.075.155.05.286.124.398.23.112.106.2.23.268.374.062.143.106.311.137.504l.124.829h.056c.262-.399.592-.754.99-1.071.162-.137.355-.268.567-.393.218-.124.455-.236.716-.336.262-.1.548-.18.853-.237a5.654 5.654 0 0 1 1.016-.087c1.064 0 1.961.218 2.677.66a4.417 4.417 0 0 1 1.663 1.8 5.64 5.64 0 0 1 1.127-1.22c.187-.156.405-.306.635-.455a5.11 5.11 0 0 1 1.712-.679c.337-.069.704-.1 1.09-.1.76 0 1.451.119 2.068.362a4.241 4.241 0 0 1 1.588 1.07c.436.474.772 1.06 1.009 1.757.236.697.355 1.5.355 2.416v7.124c0 .423-.125.753-.374.99s-.629.355-1.133.355c-.505 0-.885-.118-1.134-.355-.249-.237-.373-.567-.373-.99v-6.72c0-.622-.063-1.158-.187-1.606a2.953 2.953 0 0 0-.548-1.102 2.187 2.187 0 0 0-.878-.642 3.043 3.043 0 0 0-1.14-.211c-.274 0-.523.03-.753.1-.23.068-.449.155-.648.26a3.8 3.8 0 0 0-.548.362 4.96 4.96 0 0 0-.454.417c-.306.324-.58.698-.816 1.121 0 .063.012.218.03.455.026.243.032.51.032.822v6.744c0 .423-.124.753-.374.99-.249.237-.628.355-1.133.355-.504 0-.884-.118-1.133-.355-.25-.237-.374-.567-.374-.99v-6.72c0-.622-.062-1.158-.187-1.606a2.95 2.95 0 0 0-.548-1.102 2.167 2.167 0 0 0-.872-.642 3.086 3.086 0 0 0-1.152-.211c-.255 0-.492.03-.716.1-.224.068-.436.149-.635.248-.2.1-.38.212-.542.343a5.003 5.003 0 0 0-1.24 1.476v8.114c.001.423-.123.753-.373.99-.249.237-.629.355-1.133.355s-.884-.118-1.133-.355c-.25-.237-.374-.567-.374-.99V39.964l.019-.025ZM95.999 43.793c0-.504-.057-.94-.162-1.301a1.94 1.94 0 0 0-.523-.884c-.237-.225-.555-.393-.947-.505-.392-.106-.872-.162-1.432-.162-.56 0-1.01.044-1.401.131-.393.087-.735.18-1.016.286-.286.106-.529.2-.734.28-.206.082-.393.125-.56.125a.947.947 0 0 1-.704-.274c-.181-.18-.274-.436-.274-.76 0-.174.025-.323.08-.454.057-.13.15-.262.287-.386.124-.137.343-.28.648-.436a6.822 6.822 0 0 1 1.102-.424c.436-.124.928-.236 1.476-.323.554-.094 1.14-.137 1.762-.137 1.8 0 3.151.404 4.048 1.214.903.81 1.351 1.986 1.351 3.537v4.764c0 .604.019 1.096.062 1.47.044.373.088.685.137.927.05.243.094.443.137.598.044.156.063.305.063.461 0 .162-.032.311-.094.448s-.15.256-.255.362c-.106.105-.25.18-.411.236a1.713 1.713 0 0 1-.548.081c-.243 0-.461-.043-.654-.124a1.331 1.331 0 0 1-.492-.355 2.066 2.066 0 0 1-.355-.555 3.852 3.852 0 0 1-.224-.716h-.044a4.944 4.944 0 0 1-1.046.947c-.342.236-.772.448-1.289.641-.517.193-1.115.293-1.806.293-.735 0-1.388-.1-1.968-.305-.579-.206-1.064-.486-1.463-.847a3.578 3.578 0 0 1-.91-1.283 4.128 4.128 0 0 1-.31-1.606c0-.623.136-1.177.404-1.657s.66-.878 1.159-1.196c.504-.317 1.108-.554 1.824-.716.716-.162 1.52-.243 2.416-.243.417 0 .791.013 1.121.044.33.025.61.056.847.093.274.038.504.081.704.137v-1.426h-.006Zm0 3.456c-.2-.056-.418-.1-.66-.137a6.272 6.272 0 0 0-.735-.105c-.28-.025-.605-.044-.953-.044-1.04 0-1.806.137-2.298.423-.498.28-.741.698-.741 1.246 0 .274.05.517.15.747.099.23.248.424.448.592.199.168.442.299.728.398.287.1.623.15 1.003.15.486 0 .921-.087 1.301-.268.38-.18.704-.367.972-.58.305-.254.573-.535.797-.84v-1.588l-.012.006ZM103.297 39.939c0-.399.106-.704.324-.922.218-.218.523-.324.921-.324.2 0 .374.025.53.075.155.05.286.124.398.23.112.106.199.23.268.374.062.143.106.311.137.504l.125.829h.056a4.496 4.496 0 0 1 1.002-1.071 4.42 4.42 0 0 1 .592-.393 5.147 5.147 0 0 1 1.631-.573 6.057 6.057 0 0 1 1.04-.087c.797 0 1.507.118 2.142.361a4.3 4.3 0 0 1 1.619 1.071c.449.474.791 1.06 1.028 1.757.237.697.355 1.5.355 2.416v7.124c0 .423-.125.753-.374.99-.249.236-.629.355-1.133.355s-.884-.119-1.133-.355c-.25-.237-.374-.567-.374-.99v-6.72c0-.622-.062-1.158-.187-1.606-.124-.449-.311-.816-.56-1.102a2.29 2.29 0 0 0-.91-.642 3.345 3.345 0 0 0-1.214-.212c-.274 0-.523.032-.76.1-.236.069-.454.15-.666.25-.205.099-.398.21-.56.342a4.862 4.862 0 0 0-1.271 1.476v8.114c0 .423-.124.753-.373.99-.249.236-.629.355-1.134.355-.504 0-.884-.119-1.133-.355-.249-.237-.374-.567-.374-.99V39.957l-.012-.018ZM118.771 45.923c0-1.158.162-2.192.499-3.107.33-.916.803-1.682 1.413-2.31a6.177 6.177 0 0 1 2.211-1.445c.866-.337 1.831-.505 2.902-.505.984 0 1.887.162 2.702.486.816.324 1.514.79 2.105 1.389a6.21 6.21 0 0 1 1.37 2.18c.324.852.492 1.793.492 2.82 0 1.158-.168 2.192-.498 3.107-.33.916-.797 1.688-1.407 2.317a5.883 5.883 0 0 1-2.205 1.445c-.865.33-1.831.498-2.902.498-.984 0-1.887-.162-2.709-.486a6 6 0 0 1-2.111-1.389 6.255 6.255 0 0 1-1.37-2.173c-.323-.847-.492-1.787-.492-2.827Zm3.083-.274c0 .778.1 1.463.293 2.055.193.592.46 1.09.809 1.495.343.404.747.71 1.208.915a3.63 3.63 0 0 0 1.495.311c.535 0 1.015-.1 1.469-.299a3.25 3.25 0 0 0 1.19-.896c.336-.399.598-.89.784-1.476.187-.586.287-1.27.287-2.049 0-.778-.1-1.45-.299-2.049a4.48 4.48 0 0 0-.816-1.5 3.342 3.342 0 0 0-1.202-.916 3.53 3.53 0 0 0-1.469-.311c-.523 0-1.028.1-1.482.305a3.478 3.478 0 0 0-1.196.897c-.342.392-.604.884-.785 1.47-.186.585-.28 1.27-.28 2.048h-.006ZM135.554 41.676c-.125-.143-.237-.274-.336-.386a3.128 3.128 0 0 1-.249-.324 1.45 1.45 0 0 1-.162-.311.856.856 0 0 1-.063-.33c0-.243.056-.461.162-.66.106-.2.249-.368.411-.517a1.74 1.74 0 0 1 .548-.336c.2-.075.386-.119.567-.119.156 0 .293.025.411.069.124.043.23.112.33.205a.784.784 0 0 1 .087.075c.031.031.069.075.118.124.044.05.1.119.169.206.068.087.155.2.261.33l3.139 3.904 2.858-3.848c.1-.137.181-.249.243-.33.062-.087.118-.156.162-.205.043-.05.081-.088.099-.125a.425.425 0 0 1 .075-.075c.106-.106.224-.187.355-.243a1.07 1.07 0 0 1 .436-.08c.181 0 .361.037.548.105.187.075.355.175.511.306.155.13.274.286.367.46.087.175.137.368.137.573 0 .106-.019.218-.05.318a1.238 1.238 0 0 1-.143.305c-.062.1-.143.2-.237.305-.093.106-.199.218-.305.349l-3.394 4.023 3.575 4.234c.118.143.224.274.324.386.099.112.186.224.255.33.075.106.131.218.168.318.037.1.062.211.062.317 0 .243-.056.467-.162.667-.105.199-.249.373-.411.517a2.172 2.172 0 0 1-.548.342c-.199.081-.386.125-.566.125-.156 0-.293-.025-.424-.075a.994.994 0 0 1-.417-.299c-.025-.031-.062-.069-.106-.118a2.326 2.326 0 0 1-.174-.2c-.075-.087-.162-.199-.274-.33l-3.4-4.222-3.101 4.166c-.1.137-.181.25-.249.33-.069.087-.125.156-.162.212-.038.056-.075.093-.094.125a.751.751 0 0 1-.075.068c-.105.106-.23.193-.361.25-.13.055-.28.086-.442.086-.18 0-.361-.037-.542-.105a1.802 1.802 0 0 1-.498-.306 1.587 1.587 0 0 1-.367-.467 1.232 1.232 0 0 1-.143-.573c0-.118.018-.224.056-.323.037-.1.087-.2.155-.306a3.63 3.63 0 0 1 .237-.317c.087-.106.187-.224.299-.355l3.63-4.334-3.306-3.917.006.006Z"/></g><defs><clipPath id="a"><path fill="white" d="M29 10.509h118v42.289H29z"/></clipPath></defs></svg>