<svg xmlns="http://www.w3.org/2000/svg" width="176" height="65" fill="none" viewBox="0 0 176 65"><path fill="#0A1133" fill-rule="evenodd" d="M93.469 40.574c4.532 0 8.206-3.518 8.206-7.857 0-4.34-3.674-7.858-8.206-7.858-4.533 0-8.207 3.518-8.207 7.858s3.674 7.857 8.207 7.857Zm0-4.54c2.025 0 3.667-1.485 3.667-3.317s-1.642-3.318-3.667-3.318-3.667 1.485-3.667 3.318c0 1.832 1.642 3.317 3.667 3.317ZM135.004 38.788a8.396 8.396 0 0 1-5.209 1.786c-4.533 0-8.207-3.518-8.207-7.858s3.674-7.857 8.207-7.857c4.532 0 8.206 3.518 8.206 7.857 0 .253-.012.502-.036.749.022.379.034.77.034 1.172 0 3.279-.782 5.937-1.746 5.937-.49 0-.932-.684-1.249-1.786Zm-1.542-6.072c0 1.833-1.642 3.318-3.667 3.318s-3.667-1.485-3.667-3.318c0-1.832 1.642-3.317 3.667-3.317s3.667 1.485 3.667 3.317ZM38.864 25.662c-.17-5.746-1.189-10.162-2.42-10.162-1.35 0-2.444 5.316-2.444 11.873 0 1.984.1 3.854.277 5.497.085 4.269 3.726 7.704 8.205 7.704 4.533 0 8.207-3.518 8.207-7.857 0-4.34-3.674-7.858-8.207-7.858a8.473 8.473 0 0 0-3.618.803Zm7.286 7.055c0 1.832-1.642 3.317-3.667 3.317s-3.667-1.485-3.667-3.317c0-1.833 1.642-3.318 3.667-3.318s3.667 1.485 3.667 3.318Z" clip-rule="evenodd"/><ellipse cx="58.724" cy="32.717" fill="#0A1133" rx="5.937" ry="2.619"/><path fill="#0A1133" d="M66.754 32.192h4.889v8.381h-4.889zM78.28 32.192h4.889v8.381H78.28z"/><path fill="#0A1133" fill-rule="evenodd" d="M66.754 32.542c.097-4.259 3.733-7.683 8.205-7.683 4.471 0 8.108 3.424 8.205 7.683h-4.895c-.137-1.369-1.803-3.352-3.309-3.352-1.514 0-3.19 1.814-3.31 3.352h-4.896ZM103.074 24.51c.103 8.905 3.973 16.064 8.731 16.064s8.627-7.159 8.73-16.064h-5.223c.025.967.025 2.026.025 3.114v.013c0 3.286-1.858 8.397-3.53 8.397-1.673 0-3.531-5.538-3.531-8.397 0-.49-.023-1.027-.048-1.59-.022-.496-.045-1.013-.053-1.537h-5.101Z" clip-rule="evenodd"/></svg>