<svg xmlns="http://www.w3.org/2000/svg" width="176" height="65" fill="none" viewBox="0 0 176 65"><g clip-path="url(#a)"><path fill="#232947" fill-opacity=".5" d="M95.472 33v-.043c0-3.291-2.625-5.92-6.17-5.92-3.564 0-6.21 2.672-6.21 5.963v.043c0 3.291 2.625 5.92 6.168 5.92 3.565 0 6.212-2.67 6.212-5.963Zm-3.202.043c0 1.689-1.11 3.12-2.967 3.12-1.793 0-3.01-1.474-3.01-3.163v-.043c0-1.688 1.11-3.12 2.967-3.12 1.793 0 3.01 1.474 3.01 3.163v.043Z"/><path fill="#0A1133" d="M74.161 33v-.043c0-3.826-2.54-5.92-5.208-5.92-1.686 0-2.775.79-3.565 1.86V27.25h-3.05v14.876h3.05v-4.916c.768.92 1.836 1.71 3.565 1.71 2.71 0 5.208-2.094 5.208-5.92Zm-2.92 0c0 1.924-1.28 3.164-2.796 3.164-1.516 0-2.775-1.261-2.775-3.164v-.043c0-1.902 1.26-3.163 2.775-3.163s2.796 1.261 2.796 3.163V33ZM60.356 38.707v-7.46c0-2.757-1.452-4.21-3.864-4.21-1.558 0-2.753.641-3.756 1.817-.598-1.154-1.73-1.817-3.224-1.817-1.643 0-2.625.876-3.372 1.838v-1.624h-3.245v11.456h3.245v-6.39c0-1.54.747-2.33 1.964-2.33 1.216 0 1.9.79 1.9 2.33v6.39h3.244v-6.39c0-1.54.747-2.33 1.964-2.33s1.9.79 1.9 2.33v6.39h3.244ZM40.954 38.703s-.019-5.51-.019-7.44c0-2.281-1.77-4.229-5.105-4.229-3.39 0-4.937 1.915-4.937 4.423h3.029c.038-.266-.1-1.623 1.811-1.623 1.377 0 2.043.406 2.043 1.104 0 1.916-7.013-.292-7.013 4.797 0 2.467 1.799 3.228 3.485 3.228 2.593 0 3.528-1.465 3.528-1.465L37.75 38.7l3.205.004Zm-5.646-2.087c-.92 0-1.482-.483-1.482-1.095 0-.705.34-1.07 1.352-1.22 2.111-.31 2.63-.624 2.63-.624.313 2.583-1.518 2.939-2.5 2.939ZM26.496 34.578c-.148.635-.872 1.586-2.389 1.586-1.771 0-2.903-1.41-2.903-3.163v-.043c0-1.689 1.153-3.12 2.775-3.12 1.59 0 2.303.87 2.517 1.62h3.029c-.049-1.432-1.361-4.421-5.525-4.421-3.5 0-5.998 2.694-5.998 5.964v.042c0 3.27 2.52 5.92 5.956 5.92 4.102 0 5.518-3.036 5.567-4.385h-3.029ZM152.862 33v-.043c0-3.826-2.54-5.92-5.208-5.92-1.686 0-2.775.79-3.565 1.86V27.25h-3.05v14.876h3.05v-4.916c.768.92 1.836 1.71 3.565 1.71 2.711 0 5.208-2.094 5.208-5.92Zm-2.92 0c0 1.924-1.281 3.164-2.796 3.164-1.516 0-2.775-1.261-2.775-3.164v-.043c0-1.902 1.259-3.163 2.775-3.163 1.515 0 2.796 1.261 2.796 3.163V33ZM139.057 38.707v-7.46c0-2.757-1.452-4.21-3.864-4.21-1.558 0-2.754.641-3.757 1.817-.597-1.154-1.729-1.817-3.223-1.817-1.644 0-2.625.876-3.373 1.838v-1.624h-3.244v11.456h3.244v-6.39c0-1.54.748-2.33 1.964-2.33 1.217 0 1.9.79 1.9 2.33v6.39h3.244v-6.39c0-1.54.748-2.33 1.965-2.33 1.216 0 1.899.79 1.899 2.33v6.39h3.245ZM119.65 38.703s-.018-5.51-.018-7.44c0-2.281-1.771-4.229-5.106-4.229-3.39 0-4.937 1.915-4.937 4.423h3.029c.038-.266-.099-1.623 1.811-1.623 1.378 0 2.044.406 2.044 1.104 0 1.916-7.014-.292-7.014 4.797 0 2.467 1.799 3.228 3.485 3.228 2.594 0 3.529-1.465 3.529-1.465l-.028 1.201 3.205.004Zm-5.646-2.087c-.92 0-1.481-.483-1.481-1.095 0-.705.34-1.07 1.352-1.22 2.111-.31 2.63-.624 2.63-.624.312 2.583-1.519 2.939-2.501 2.939ZM105.197 34.578c-.148.635-.872 1.586-2.389 1.586-1.772 0-2.903-1.41-2.903-3.163v-.043c0-1.689 1.153-3.12 2.775-3.12 1.59 0 2.303.87 2.517 1.62h3.029c-.049-1.432-1.361-4.421-5.525-4.421-3.5 0-5.998 2.694-5.998 5.964v.042c0 3.27 2.519 5.92 5.956 5.92 4.102 0 5.518-3.036 5.567-4.385h-3.029Z"/><path fill="#232947" fill-opacity=".5" d="M157.692 27.25V25.14h-.527v-.528h-.527v-1.056h-.527v-.527h-.527v1.055h-.527v.528h.527v.528h-.527v-.528h-.528v.528h-.527v.528h-.527v.528h-.527v-.528h-.527v1.583h5.271Zm-2.635-4.222h-.528v.527h.528v-.527Zm-.528.527h-.527v.528h.527v-.527Zm-.527.528h-.527v.528h.527v-.528Zm-.527.528h-.527v1.056h.527V24.61Zm1.582-1.583h.527V22.5h-.527v.528ZM82.183 35.996s-.428.047-1.152.047-1.136-.454-1.136-1.21V30.03h2.365V27.25h-2.365v-2.928H76.65v2.928h-1.82v2.779h1.82v5.228c0 2.651 1.33 3.579 3.33 3.579 1.397 0 2.203-.137 2.203-.137v-2.704Z"/></g><defs><clipPath id="a"><path fill="white" d="M18 22.5h140v19.798H18z"/></clipPath></defs></svg>