<svg xmlns="http://www.w3.org/2000/svg" width="176" height="64" fill="none" viewBox="0 0 176 64"><path fill="#0A1133" fill-rule="evenodd" d="M40.81 14.323a3.27 3.27 0 0 0-2.834 0l-12.13 5.837a3.27 3.27 0 0 0-1.77 2.218l-2.063 9.033h7.683l1.055-4.619c.11-.485.436-.893.885-1.109l7.045-3.39c.448-.216.97-.216 1.418 0l7.045 3.39c.448.216.774.624.885 1.109l1.055 4.619h7.69l-2.064-9.033a3.27 3.27 0 0 0-1.77-2.218l-12.13-5.837ZM21.083 35.488l.277-1.212h7.682l-.03.132c-.11.485.006.994.316 1.383l4.875 6.108c.31.389.78.615 1.278.615h7.82c.497 0 .968-.226 1.278-.615l4.874-6.108c.311-.389.427-.898.316-1.383l-.03-.132h7.69l.277 1.212c.221.97-.011 1.989-.632 2.767L48.68 48.77A3.27 3.27 0 0 1 46.125 50H32.662a3.27 3.27 0 0 1-2.556-1.23l-8.392-10.515a3.27 3.27 0 0 1-.632-2.767Zm17.596-9.734c.448-.216.97-.216 1.418 0l4.354 2.095c.449.216.774.624.885 1.11l1.075 4.706c.111.485-.005.995-.316 1.384l-3.013 3.775c-.31.388-.78.615-1.277.615H36.97c-.498 0-.968-.227-1.278-.615l-3.013-3.775a1.635 1.635 0 0 1-.316-1.384l1.075-4.707c.11-.485.437-.893.885-1.109l4.355-2.095Zm1.897 3.975h-2.008v2.012h-2.005v2.005h2.005v2h2.008v-2h2.01v-2.005h-2.01v-2.012Z" clip-rule="evenodd"/><path fill="#0A1133" d="M69.48 30.44a4.715 4.715 0 0 1-1.87-.366 4.66 4.66 0 0 1-1.49-1.022 4.734 4.734 0 0 1-.984-1.541 5.154 5.154 0 0 1-.354-1.932c0-.699.114-1.343.341-1.932a4.46 4.46 0 0 1 2.488-2.55 4.715 4.715 0 0 1 1.869-.367c.673 0 1.275.114 1.805.341.54.227.994.53 1.364.91.37.37.636.778.796 1.224l-1.54.72a2.48 2.48 0 0 0-.898-1.162c-.42-.311-.93-.467-1.527-.467-.59 0-1.112.139-1.566.417-.446.277-.796.66-1.048 1.149-.244.488-.367 1.06-.367 1.717s.123 1.233.367 1.73c.252.488.602.871 1.048 1.15.454.277.976.416 1.566.416.597 0 1.107-.152 1.527-.455.421-.311.72-.703.897-1.174l1.54.72c-.16.446-.425.858-.795 1.237-.37.37-.825.67-1.364.897-.53.227-1.132.34-1.805.34Zm5.359-.15v-9.408h1.717v7.892h4.028v1.515H74.84Zm11.244.15a5.06 5.06 0 0 1-1.932-.366 4.764 4.764 0 0 1-2.614-2.563 5.06 5.06 0 0 1-.366-1.932 5 5 0 0 1 .366-1.932 4.602 4.602 0 0 1 2.601-2.55 5.094 5.094 0 0 1 1.945-.367c.698 0 1.347.122 1.944.366.598.244 1.12.585 1.566 1.023.446.43.791.939 1.036 1.528.252.59.378 1.233.378 1.932 0 .69-.126 1.334-.378 1.932a4.764 4.764 0 0 1-2.614 2.563 5 5 0 0 1-1.932.367Zm0-1.565c.463 0 .888-.08 1.275-.24.387-.169.724-.4 1.01-.695.295-.294.518-.644.67-1.048.16-.404.24-.841.24-1.313 0-.471-.08-.905-.24-1.3a2.905 2.905 0 0 0-.67-1.049 2.895 2.895 0 0 0-1.01-.694 3.31 3.31 0 0 0-1.275-.24c-.455 0-.876.08-1.263.24-.387.16-.728.391-1.023.694-.286.295-.51.644-.669 1.048-.16.396-.24.83-.24 1.301s.08.91.24 1.313c.16.404.383.754.67 1.048.294.295.635.526 1.022.695.387.16.808.24 1.263.24Zm10.076 1.566c-.724 0-1.368-.152-1.932-.455a3.41 3.41 0 0 1-1.314-1.25c-.32-.53-.48-1.132-.48-1.806v-6.048h1.718v5.96c0 .387.084.736.252 1.048.177.311.417.555.72.732.303.169.648.253 1.036.253.395 0 .74-.084 1.035-.253a1.85 1.85 0 0 0 .707-.732c.177-.312.265-.661.265-1.048v-5.96h1.718v6.048c0 .674-.16 1.276-.48 1.806-.32.53-.762.947-1.326 1.25-.556.303-1.195.455-1.92.455Zm5.439-.152v-9.407h3.069c.993 0 1.856.202 2.588.606a4.225 4.225 0 0 1 1.718 1.654c.404.699.606 1.511.606 2.437 0 .918-.202 1.734-.606 2.45a4.309 4.309 0 0 1-1.718 1.667c-.732.395-1.595.593-2.588.593h-3.069Zm1.717-1.515h1.39c.639 0 1.191-.13 1.654-.392.471-.27.837-.64 1.098-1.11.261-.48.392-1.045.392-1.693 0-.657-.131-1.22-.392-1.692a2.76 2.76 0 0 0-1.098-1.099c-.463-.26-1.015-.391-1.654-.391h-1.39v6.377Zm7.63 1.515v-9.407h1.339l5.177 6.97-.694.139v-7.11h1.717v9.408h-1.351l-5.102-7.02.632-.14v7.16h-1.718Zm8.59 0 3.245-9.407h2.222l3.246 9.407h-1.869l-.669-2.02h-3.637l-.682 2.02h-1.856Zm3.03-3.536h2.652l-1.566-4.684h.48l-1.566 4.684Zm7.768 3.536v-7.892h-2.438v-1.515h6.567v1.515h-2.399v7.892h-1.73Zm5.177 0v-9.407h1.717v9.407h-1.717Zm6.039 0-3.283-9.407h1.869l2.576 7.79h-.366l2.576-7.79h1.869l-3.271 9.407h-1.97Zm6.292 0v-9.407h6.251v1.515h-4.533v2.412h4.28v1.515h-4.28v2.45h4.533v1.515h-6.251ZM64.468 43.638v-.476l5.033-7.29h-4.738v-.68h5.713v.477l-5.022 7.289h5.136v.68h-6.122Zm10.37.136c-.582 0-1.092-.125-1.53-.374a2.706 2.706 0 0 1-1.032-1.032c-.242-.446-.363-.956-.363-1.53v-5.646h.737v5.668c0 .439.09.828.272 1.168.189.333.446.593.77.782.333.19.715.284 1.146.284.43 0 .808-.095 1.133-.284.333-.189.59-.45.771-.782.181-.34.272-.73.272-1.168v-5.668h.737v5.646c0 .574-.121 1.084-.363 1.53a2.625 2.625 0 0 1-1.02 1.032c-.438.249-.948.374-1.53.374Zm-1.417-9.817v-.998h.963v.998h-.963Zm1.87 0v-.998h.964v.998h-.964Zm4.55 9.68v-8.445h2.833c.537 0 1.01.106 1.417.318.408.211.726.51.953.895.234.386.351.832.351 1.338 0 .605-.166 1.122-.499 1.553-.325.423-.763.714-1.315.873l1.995 3.469h-.872l-2.098-3.696.612.352h-2.64v3.344h-.738Zm.736-4.024h2.12c.385 0 .725-.075 1.02-.226.295-.159.526-.378.692-.658.166-.287.25-.62.25-.997 0-.378-.084-.703-.25-.975a1.677 1.677 0 0 0-.692-.646 2.119 2.119 0 0 0-1.02-.238h-2.12v3.74Zm6.492 4.025v-8.446h.737v8.446h-.737Zm6.654.136a4.026 4.026 0 0 1-1.61-.318 3.995 3.995 0 0 1-1.292-.918 4.295 4.295 0 0 1-.85-1.383 4.978 4.978 0 0 1-.295-1.746c0-.627.098-1.205.295-1.734.204-.537.487-.998.85-1.383.37-.393.801-.695 1.292-.907a3.905 3.905 0 0 1 1.61-.329 3.69 3.69 0 0 1 2.675 1.089c.31.317.533.646.67.986l-.692.306a2.851 2.851 0 0 0-1.032-1.224c-.453-.31-.994-.465-1.621-.465-.642 0-1.217.155-1.723.465-.499.31-.888.74-1.168 1.292-.28.544-.42 1.179-.42 1.904 0 .726.14 1.364.42 1.916.28.552.67.983 1.168 1.292.506.303 1.08.454 1.723.454.627 0 1.168-.151 1.621-.453.461-.31.805-.718 1.032-1.225l.691.306a3.088 3.088 0 0 1-.669.975c-.31.318-.691.582-1.145.794a3.69 3.69 0 0 1-1.53.306Zm5.103-.136v-8.446h.737v3.843h4.761v-3.843h.737v8.446h-.737v-3.923h-4.761v3.923h-.737Z"/></svg>