<svg xmlns="http://www.w3.org/2000/svg" width="176" height="64" fill="none" viewBox="0 0 176 64"><path fill="#0A1133" fill-rule="evenodd" d="M89.613 18.404c-.172-1.042-.673-1.945-1.511-2.592-.899-.641-1.993-.945-3.09-.757-1.111.224-2.007.861-2.646 1.796-.557.938-.706 2.01-.489 3.081.301 1.038.961 1.883 1.873 2.457.818.45 1.821.659 2.741.432l.127-.037c.938-.262 1.659-.711 2.27-1.485a4.06 4.06 0 0 0 .725-2.895ZM51.156 46.61V15.033h3.392v6.286c0 6.116 0 6.285.094 6.285.055 0 .18-.115.31-.29.893-1.186 2.03-1.89 3.581-2.204 1.297-.264 2.515-.35 5.343-.384 3.342-.04 6.53.085 8.047.309 2.1.32 3.551.998 4.788 2.245 1.756 1.766 2.44 4.23 2.445 8.755 0 1.916-.1 3.048-.394 4.39-.374 1.7-.958 2.843-1.96 3.841-.989.978-2.2 1.626-3.832 2.05-1.636.42-3.407.544-7.687.55-4.7 0-6.79-.21-8.121-.804-.819-.37-1.726-1.127-2.215-1.856-.165-.244-.255-.334-.335-.34h-.114v2.745h-3.342ZM73.983 29.56c-1.183-1.247-2.56-1.632-6.415-1.806-.988-.045-4.655-.055-5.538-.015-2.948.125-4.4.464-5.502 1.272-.883.653-1.466 1.621-1.76 2.933-.22.978-.28 1.671-.305 3.457-.06 4.051.379 5.787 1.756 6.93 1.456 1.212 3.557 1.556 9.478 1.56 2.709 0 3.487-.034 4.64-.204 2.06-.304 3.491-1.087 4.21-2.304.723-1.218 1.062-3.328.982-6.121-.08-3.053-.499-4.6-1.546-5.702Zm-30.36-2.006V15.033h3.442v31.578h-3.392v-2.744h-.11c-.08 0-.17.085-.31.28-.104.154-.328.428-.498.608-1.606 1.726-3.462 2.125-9.832 2.12-2.704 0-4.001-.045-5.498-.19-2.923-.289-4.684-.997-6.096-2.444-1.097-1.127-1.71-2.48-2.045-4.49-.404-2.429-.374-5.926.07-8.131.4-1.98 1.082-3.342 2.275-4.52 1.516-1.506 3.108-1.995 7.453-2.294 1.202-.08 6.28-.115 7.457-.05 2.938.164 4.355.523 5.542 1.407.37.269.968.878 1.173 1.192.095.14.17.2.25.2h.119Zm-3.282.828c-.843-.264-2.006-.449-3.677-.578-.883-.07-4.804-.1-6.061-.05-3.497.15-5.128.569-6.2 1.591-.998.948-1.507 2.37-1.687 4.7-.075 1.017-.035 3.511.075 4.33.3 2.26.968 3.611 2.11 4.29.933.549 2.335.893 4.53 1.112.898.09 6.21.09 7.408 0 3.033-.23 4.275-.628 5.302-1.7.779-.82 1.188-1.782 1.442-3.423.08-.509.105-.988.125-2.225.025-1.621-.02-2.634-.165-3.637-.364-2.444-1.367-3.83-3.203-4.41Zm90.131.643v.524h.898V28.5h-.898v.524ZM97.997 31.64c.295-.45.848-.624 2.145-.694.973-.045 2.27-.015 2.914.08 1.067.15 1.571.594 1.576 1.377v.339h-.948v-.18c0-.668-.509-.833-2.544-.828-1.262.005-1.91.08-2.14.25-.28.204-.39.698-.225 1.012.05.1.16.19.31.26.22.095.354.105 2.23.14 1.097.02 2.115.06 2.259.09.913.184 1.277.653 1.277 1.65 0 .38-.025.524-.114.724-.14.32-.36.544-.649.663-.469.2-.883.235-2.848.235-1.621 0-1.926-.01-2.29-.09-.504-.11-.738-.22-.978-.469-.224-.23-.324-.564-.324-1.072v-.39h.933l.025.355c.045.573.244.753.938.838.543.07 3.068.07 3.492 0 .618-.095.848-.325.848-.833 0-.36-.105-.564-.36-.709-.189-.105-.299-.12-1.082-.154-.484-.02-1.362-.04-1.951-.045-1.182 0-1.646-.05-1.99-.205-.514-.224-.713-.559-.743-1.242-.025-.544.03-.788.24-1.102Zm10.8-.695c-1.092.065-1.616.24-2.015.674-.439.479-.614 1.102-.614 2.22 0 .828.08 1.297.305 1.776.274.583.658.848 1.501 1.032.419.09.654.105 2.021.105 1.307.005 1.606-.01 1.945-.085.743-.164 1.127-.404 1.352-.843.125-.244.234-.788.175-.853-.02-.02-.24-.035-.484-.025l-.444.015-.03.175c-.075.464-.394.698-1.083.798-.489.075-2.738.04-3.123-.045-.753-.165-1.062-.569-1.157-1.502l-.035-.349h6.41l-.035-.538c-.069-1.053-.204-1.442-.643-1.886-.359-.36-.673-.499-1.352-.594-.594-.085-1.886-.12-2.694-.075Zm1.746.799c.764.054 1.128.13 1.397.299.319.2.479.489.554 1.008l.03.239h-5.348v-.135c0-.324.165-.728.394-.968.28-.284.594-.389 1.327-.443.748-.055.888-.055 1.646 0Zm6.385-.721c.085-.02.4-.055.699-.075.648-.045 1.681-.015 2.07.06.574.11.943.394 1.182.912.125.27.14.365.155.983l.02.689h-.893l-.025-.544c-.02-.42-.055-.599-.135-.768-.209-.43-.593-.554-1.701-.544-1.486.01-2.045.23-2.264.893-.145.439-.18.923-.18 2.519v1.586h-.898v-5.737h.898v.375c0 .204.01.374.025.374.01 0 .12-.105.234-.23a1.8 1.8 0 0 1 .813-.493Zm18.732-.076c-1.082.065-1.581.21-1.99.579-.494.444-.704 1.132-.704 2.31 0 1.077.165 1.73.569 2.224.469.574 1.422.758 3.667.709 1.307-.025 1.566-.065 2.04-.305.494-.25.793-.768.843-1.466l.03-.36h-.903l-.035.26c-.045.374-.204.673-.419.813-.334.215-.629.25-2.05.244-1.791 0-2.205-.104-2.519-.638-.34-.579-.375-2.07-.065-2.784.274-.633.793-.803 2.484-.798 1.891 0 2.389.215 2.519 1.073l.035.234h.948l-.03-.24c-.075-.533-.145-.768-.294-.992-.424-.629-1.063-.828-2.779-.878a17.025 17.025 0 0 0-1.347.015Zm6.405.608c.434-.404.908-.549 1.976-.604.369-.024.728-.044.798-.044.07-.006.524.015 1.008.04 1.297.07 1.716.189 2.185.628.444.414.623.913.678 1.9l.035.564h-6.41l.035.31c.075.728.279 1.142.663 1.352.424.224.713.259 2.28.259 1.247 0 1.486-.01 1.731-.09.379-.115.608-.34.688-.678l.06-.255h.948l-.03.235c-.14.988-.683 1.412-2.02 1.561-.714.085-2.819.04-3.422-.07-.599-.11-.968-.284-1.253-.588-.478-.51-.643-1.183-.603-2.43.035-1.137.204-1.676.653-2.09Zm5.647 1.457c-.079-.704-.424-1.048-1.192-1.193-.798-.144-2.609-.124-3.178.04-.518.15-.848.564-.927 1.173l-.035.259h5.367l-.035-.28Zm4.834-2.065c-1.262.065-1.726.195-2.07.589-.245.274-.349.603-.349 1.082 0 .464.114.833.329 1.068.354.394.873.504 2.454.509.569 0 1.427.02 1.911.04.733.03.913.054 1.072.14.265.134.38.349.384.708.005.533-.244.768-.922.863-.449.06-3.477.02-3.752-.05-.414-.11-.563-.315-.613-.833l-.03-.325h-.933v.365c0 .533.115.858.394 1.137.454.459 1.232.569 3.647.529 2.015-.03 2.429-.115 2.833-.554.269-.294.334-.509.334-1.127 0-.44-.02-.564-.114-.774-.21-.459-.559-.708-1.168-.828-.144-.03-1.162-.07-2.26-.09-1.726-.034-2.025-.05-2.204-.124-.29-.125-.385-.285-.39-.664 0-.723.434-.878 2.545-.873 1.192 0 1.696.05 2.05.21.244.105.329.234.369.549l.025.224.494.015.489.015-.035-.364c-.02-.2-.08-.464-.135-.579-.199-.419-.773-.708-1.591-.803-.629-.07-1.921-.1-2.764-.055Zm-29.118 3.094a326.711 326.711 0 0 1-1.641-2.859l-.1-.19.534.015.534.015 1.377 2.43c.758 1.337 1.402 2.434 1.427 2.434.029 0 .678-1.102 1.441-2.444l1.392-2.445h1.082l-.084.17c-.05.09-.798 1.382-1.661 2.869l-1.572 2.698-.593-.01-.594-.015-1.542-2.669Zm7.044-.175v2.868h.898v-5.737h-.898v2.869ZM97.748 46.759v-6.535h.798v2.554l.254-.279c.614-.674 1.697-.863 2.579-.444.574.27 1.073.928 1.213 1.601.074.36.03 1.263-.075 1.592-.19.593-.738 1.192-1.312 1.416-.245.1-.379.12-.863.12-.544 0-.594-.01-.913-.16a2.198 2.198 0 0 1-.614-.438l-.269-.28v.853h-.798Zm3.956-3.257c-.175-.38-.384-.604-.724-.784-.409-.219-.962-.259-1.367-.1-.374.15-.683.445-.877.839-.155.31-.165.364-.165.858 0 .469.015.554.14.823.289.619.823.973 1.466.973.684 0 1.217-.334 1.502-.938.12-.255.134-.34.134-.858 0-.489-.014-.609-.109-.813Zm51.416-.084v3.193h.798v-1.487c0-1.686.03-1.87.334-2.21.3-.33.514-.42 1.038-.42.399 0 .474.016.683.14.285.165.449.375.559.699.065.2.08.494.08 1.756v1.522h.748v-1.637c0-1.76-.025-1.96-.274-2.35a1.909 1.909 0 0 0-.749-.663c-.214-.1-.329-.115-.848-.115-.543 0-.623.01-.878.13a2.025 2.025 0 0 0-.488.34l-.205.204v-2.295h-.798v3.193Zm-42.058-1.872c.2-.45.624-.798 1.152-.948.414-.115 1.282-.075 1.672.075.394.15.818.568.937.918.071.21.108.318.069.372-.04.057-.159.057-.403.057-.409 0-.419-.005-.449-.13-.02-.07-.125-.224-.234-.344-.24-.26-.534-.374-.968-.374-.783 0-1.297.623-1.048 1.272.14.369.345.494 1.322.808 1.038.33 1.267.439 1.517.713.274.304.344.504.349.998 0 .364-.02.464-.135.703-.264.544-.793.898-1.486.993-1.212.17-2.315-.464-2.425-1.402l-.03-.244h.809l.054.19c.075.299.31.578.579.713.299.14.933.154 1.222.03.449-.2.679-.569.634-1.038-.05-.504-.319-.698-1.457-1.043-.464-.14-.928-.299-1.032-.354a1.54 1.54 0 0 1-.659-.688c-.145-.324-.14-.938.01-1.277Zm28.14-.273v.598h-.599v.649h.599v1.521c0 1.791.025 1.956.319 2.25.26.265.464.32 1.143.32h.533v-.649h-.444c-.394 0-.463-.015-.578-.115-.195-.164-.22-.389-.225-1.945V42.52H141.197v-.649H139.95v-1.197h-.748v.599Zm-22.508 1.137c.279-.264.544-.409.923-.514.304-.08 1.018-.095 1.327-.02.349.08.738.295 1.008.559.429.424.643.993.643 1.716v.414h-3.846l.035.185c.085.509.384.913.838 1.152.219.11.319.13.703.135.394 0 .479-.015.704-.135.279-.145.464-.34.563-.584l.065-.154h.424c.414 0 .419 0 .384.11-.144.473-.618 1.002-1.082 1.212a2.612 2.612 0 0 1-1.671.15c-.424-.1-.674-.24-.998-.54-.519-.493-.718-1.007-.718-1.855 0-.838.199-1.367.698-1.83Zm2.958.818c-.134-.264-.504-.584-.788-.678a2.171 2.171 0 0 0-.584-.08c-.399 0-.733.13-1.037.389-.175.16-.404.599-.459.893l-.025.165h3.053l-.03-.245a1.58 1.58 0 0 0-.13-.444Zm3.318-1.308c-.963.344-1.497 1.168-1.497 2.32-.005 1.367.813 2.355 2.025 2.454.679.06 1.267-.154 1.721-.618l.265-.27v3.098h.798V41.87h-.798V42.684l-.25-.255a2.48 2.48 0 0 0-.583-.419c-.305-.15-.379-.164-.863-.18-.429-.01-.579.006-.818.09Zm1.571.709c.339.16.604.424.778.783.125.25.14.334.14.828 0 .489-.015.579-.13.823-.17.37-.379.599-.703.778-.245.135-.305.145-.764.145-.463 0-.518-.01-.773-.155-.553-.314-.823-.843-.823-1.616 0-.414.02-.514.14-.773.304-.654.848-.993 1.536-.953.215.01.419.06.599.14Zm8.775.5a2.348 2.348 0 0 1 1.451-1.228c.15-.04.459-.075.694-.075.773-.01 1.332.22 1.796.729.448.488.598.913.598 1.69 0 .819-.199 1.318-.718 1.807-.719.678-1.846.853-2.759.424-.324-.15-.773-.554-.948-.849-.409-.703-.459-1.76-.114-2.499Zm3.746 1.46c.145-.842-.244-1.68-.918-1.97-.544-.239-1.242-.16-1.671.185-.589.474-.783 1.551-.424 2.325.284.598.643.838 1.322.873.384.02.459.01.723-.11.544-.25.858-.674.968-1.302Zm6.615-2.714c-.813.19-1.472.903-1.627 1.761-.319 1.736.704 3.078 2.335 3.073.963-.005 1.711-.494 2.075-1.362l.075-.184h-.843l-.08.174c-.404.843-1.801.968-2.444.215-.185-.22-.374-.659-.374-.863v-.125h3.776l.035-.245c.045-.349-.05-.932-.215-1.287-.374-.798-1.097-1.217-2.065-1.207a4.365 4.365 0 0 0-.648.05Zm1.342.733c.444.23.718.604.793 1.093l.035.214h-3.068l.035-.204c.074-.48.464-.968.908-1.143.334-.134.997-.114 1.297.04Zm2.464 1.667c0-1.212.603-2.105 1.596-2.374.364-.095 1.053-.1 1.422-.005.703.184 1.237.683 1.427 1.332l.039.14h-.833l-.064-.165c-.11-.26-.444-.559-.744-.659-.344-.114-.938-.085-1.222.065-.279.14-.589.489-.703.788-.075.195-.095.374-.095.868 0 .579.01.644.14.923.174.37.334.544.658.714.215.114.314.134.674.134.364 0 .463-.02.708-.14.289-.14.504-.369.599-.633l.049-.15h.424c.414 0 .419 0 .39.11-.09.285-.365.714-.594.918-.309.28-.534.4-.938.494-.888.21-1.746-.025-2.3-.619-.444-.479-.633-1.002-.633-1.74Zm-19.794-.723c.015 1.491.03 1.716.109 1.935.295.794.918 1.198 1.851 1.193.384 0 .494-.02.748-.135.165-.08.404-.245.539-.374l.235-.23v.669h.748v-4.74h-.738l-.02 1.557c-.015 1.522-.02 1.566-.135 1.826-.145.324-.474.623-.773.708a2.316 2.316 0 0 1-.594.045c-.459-.025-.783-.204-.993-.544-.209-.334-.239-.628-.239-2.175v-1.416h-.753l.015 1.68Zm-23.546.748c-.529-1.287-.958-2.35-.958-2.36 0-.014.195-.014.434-.01l.439.016.744 1.93c.414 1.063.758 1.92.773 1.906.015-.015.359-.883.758-1.93l.728-1.906.409-.015c.22-.01.404-.005.404.005 0 .005-.648 1.596-1.436 3.527l-1.442 3.517-.404.015c-.224.01-.409.005-.409-.005s.204-.51.454-1.113c.244-.599.449-1.127.454-1.167.005-.04-.424-1.128-.948-2.41ZM84.311 24.204l.107-.002.346-.002.12-.001.633-.003c.216 0 .432-.003.648-.006.167-.002.335-.002.502-.002.08 0 .16-.001.239-.003.712-.01 1.272.138 1.827.62.613.596.995 1.37 1.019 2.232v.604a151.44 151.44 0 0 0 0 1.155l.001.076a474.164 474.164 0 0 1 0 2.268v9.77a425.735 425.735 0 0 1 0 1.87 85.84 85.84 0 0 1 0 .786c.004.945-.269 1.767-.91 2.47-.452.437-1.089.743-1.72.745l-.196.002h-.883c-.193 0-.386 0-.58.002a74.856 74.856 0 0 1-.663.001c-.819.005-1.463-.206-2.068-.775-.702-.78-.886-1.685-.88-2.708l-.002-.214V41.88a457.56 457.56 0 0 1-.001-2.228V36.504c0-.826 0-1.652-.002-2.478a1445.114 1445.114 0 0 1-.002-3.98 328.915 328.915 0 0 1 0-1.836v-.869c.006-.908.281-1.761.915-2.43.45-.413.927-.7 1.55-.707Z" clip-rule="evenodd"/></svg>