<svg xmlns="http://www.w3.org/2000/svg" width="176" height="64" fill="none" viewBox="0 0 176 64"><g clip-path="url(#a)"><path fill="#0A1133" d="M114.824 26.498h-2.764c-.78 0-1.321.15-1.652.48-.33.314-.495.868-.495 1.617v9.528h-1.652v-9.648c.015-.734.135-1.528.525-2.127.706-1.124 2.058-1.333 3.064-1.333h2.989v1.483h-.015ZM106.939 36.625v1.483h-2.989c-1.006 0-2.358-.21-3.064-1.334-.39-.599-.511-1.393-.526-2.127V21.075h1.652v3.94h3.47v1.483h-3.47v8.06c0 .748.166 1.273.496 1.587.33.33.871.48 1.652.48h2.779Z"/><path fill="#0A1133" fill-rule="evenodd" d="M62.528 21.075v13.587c-.015.734-.15 1.528-.526 2.127-.705 1.109-2.057 1.334-3.063 1.334h-1.547c-2.118 0-3.395-.63-4.175-1.393C52 35.546 52 33.852 52 33.672V29.45c0-.18 0-1.873 1.217-3.056.796-.764 2.072-1.393 4.175-1.393h3.47v-3.925h1.666Zm-1.682 13.497v-8.074h-3.634c-1.367 0-2.208.39-2.734.898-.616.6-.826 1.394-.826 2.008v4.33c0 .614.21 1.408.826 2.007.51.51 1.367.899 2.733.899h1.502c.781 0 1.322-.165 1.652-.48.33-.33.496-.854.481-1.588Z" clip-rule="evenodd"/><path fill="#0A1133" d="M128.956 29.404v4.344c0 .615.21 1.409.826 2.008.511.51 1.367.899 2.734.899h3.98v1.483h-3.815c-2.118 0-3.394-.63-4.175-1.393-1.217-1.184-1.217-2.877-1.217-3.056v-4.225c0-.18 0-1.873 1.217-3.056.796-.764 2.072-1.393 4.175-1.393h3.815v1.483h-3.98c-1.367 0-2.208.39-2.734.899-.616.584-.826 1.393-.826 2.007Z"/><path fill="#0A1133" fill-rule="evenodd" d="M98.648 34.647c-.015.734-.15 1.528-.525 2.127-.706 1.109-2.058 1.334-3.064 1.334h-3.35c-1.006 0-2.357-.21-3.063-1.334-.39-.599-.51-1.393-.526-2.127v-.524c.015-.734.15-1.528.526-2.127.706-1.11 2.057-1.334 3.064-1.334h5.271V29.39c0-.614-.21-1.408-.826-2.008-.51-.509-1.367-.898-2.733-.898h-3.845V25h3.68c2.117 0 3.394.629 4.175 1.393 1.216 1.183 1.216 2.876 1.216 3.056v5.198Zm-1.652-.075v-2.427H91.95c-.781 0-1.322.165-1.652.48-.33.314-.496.839-.496 1.588v.36c0 .733.15 1.258.48 1.587.331.33.872.48 1.653.48h2.913c.781 0 1.322-.165 1.653-.48.33-.33.495-.854.495-1.588ZM125.982 34.647c-.015.734-.15 1.528-.525 2.127-.706 1.109-2.058 1.334-3.064 1.334h-3.349c-1.007 0-2.358-.21-3.064-1.334-.391-.599-.511-1.393-.526-2.127v-.524c.015-.734.15-1.528.526-2.127.706-1.11 2.057-1.334 3.064-1.334h5.271V29.39c0-.614-.21-1.408-.826-2.008-.51-.509-1.367-.898-2.733-.898h-3.845V25h3.68c2.117 0 3.394.629 4.175 1.393 1.216 1.183 1.216 2.876 1.216 3.056v5.198Zm-1.652-.075v-2.427h-5.046c-.781 0-1.322.165-1.652.48-.331.314-.496.839-.496 1.588v.36c0 .733.15 1.258.481 1.587.33.33.871.48 1.652.48h2.914c.78 0 1.321-.165 1.652-.48.33-.33.495-.854.495-1.588Z" clip-rule="evenodd"/><path fill="#0A1133" d="M69.091 42.047h-1.727l1.517-3.94L63.835 25h1.712l4.19 10.876L73.927 25h1.728L69.09 42.047ZM86.829 38.123h-1.652v-8.72c0-.613-.21-1.407-.812-2.007-.51-.494-1.486-.883-2.793-.898-1.307.015-2.283.404-2.794.898-.615.6-.81 1.394-.81 2.008v8.719h-1.653v-8.674c0-.18 0-1.873 1.202-3.056.766-.75 1.982-1.364 3.965-1.393h.18c1.983.03 3.2.644 3.965 1.393 1.202 1.183 1.202 2.876 1.202 3.056v8.674Z"/><path fill="#0A1133" fill-rule="evenodd" d="M147.925 29.449v2.726h-8.861v1.543c0 .614.21 1.408.811 2.008.511.494 1.487.883 2.794.898h3.814v1.499h-3.904c-1.983-.03-3.199-.645-3.965-1.394-1.202-1.183-1.202-2.876-1.202-3.056V29.45c0-.18 0-1.873 1.202-3.056.766-.75 1.982-1.364 3.965-1.393h.18c1.982.03 3.199.644 3.965 1.393 1.216 1.183 1.216 2.876 1.201 3.056Zm-1.637 1.243v-1.288c0-.614-.21-1.408-.811-2.008-.51-.494-1.487-.883-2.793-.898-1.307.015-2.283.404-2.794.898-.616.6-.811 1.394-.811 2.008v1.288h7.209Z" clip-rule="evenodd"/><path fill="#A3A6B0" d="M35.089 22.828c-.27 1.423-.6 3.535-.781 5.678-.315 3.775-.12 6.306-.12 6.306l-5.332 5.049s-.405-2.831-.616-6.022a84.388 84.388 0 0 1-.165-4.764c0-.06.03-.12.03-.18 0-.075.09-.779.781-1.438.751-.72 6.293-5.049 6.203-4.63Z"/><path fill="#858892" d="M35.089 22.828c-.27 1.423-.6 3.535-.781 5.678 0 0-5.902-.705-6.233.719 0-.075.105-.944.796-1.603.751-.72 6.308-5.214 6.218-4.794Z"/><path fill="#4C5169" d="M28.706 27.427c1.532-1.453 5.347-5.064 6.098-5.783.69-.659 1.427-.57 1.502-.57 1.036.06 2.868.196 4.956.45 3.184.375 5.977.9 5.977.9l-5.331 5.048s-2.508-.315-6.308-.195c-2.148.06-4.28.285-5.722.48-.286.03-.991.18-1.427.733-.21.285-.315.465-.375.72v-.33c0-.06-.06-.794.63-1.453Z"/><path fill="#777A8B" d="M42.179 41.18c-.691.658-1.427.793-1.502.793-.075 0-.196.06-.27.06a84.183 84.183 0 0 1-4.731-.404c-3.184-.36-6.008-.914-6.008-.914L35 35.65s2.523.315 6.322.195c2.148-.075 4.28-.314 5.723-.51.42-.044-4.116 5.124-4.866 5.843Z"/><path fill="#595C6D" d="M42.043 41.314c-.69.66-1.667.704-1.742.704 1.427-.255 1.021-6.172 1.021-6.172 2.148-.075 4.28-.314 5.722-.51.42-.044-4.25 5.259-5.001 5.978Z"/><path fill="#0A1133" d="M40.617 42.048c-.106 0-.21-.015-.33-.015.27-.045.45-.135.735-.345.57-.404.751-1.108.811-1.393.255-1.423.6-3.535.766-5.677.3-3.776.12-6.292.12-6.292l5.332-5.064s.39 2.817.616 6.008c.135 2.082.18 3.924.195 4.943 0 .075.06.809-.63 1.468-.752.72-4.567 4.345-6.084 5.798-.72.659-1.456.569-1.532.569Z"/></g><defs><clipPath id="a"><path fill="white" d="M28 21h120v21.123H28z"/></clipPath></defs></svg>