<svg xmlns="http://www.w3.org/2000/svg" width="176" height="65" fill="none" viewBox="0 0 176 65"><g clip-path="url(#a)"><path fill="#0A1133" fill-rule="evenodd" d="M36 21.984v22.1h3.09V34.22h10.023v-2.653H39.09v-6.868H49.8v-2.715H36Zm24.078 19.353h9.867v2.747H56.986v-22.1h3.091l.001 19.353Zm34.092-8.334a9.798 9.798 0 0 0-.594-3.419 8.676 8.676 0 0 0-1.685-2.823 7.884 7.884 0 0 0-2.64-1.921c-1.03-.468-2.19-.702-3.48-.702-1.27 0-2.42.234-3.45.702a7.725 7.725 0 0 0-2.623 1.92 8.837 8.837 0 0 0-1.67 2.824 9.814 9.814 0 0 0-.593 3.419c0 1.228.197 2.382.592 3.465a8.438 8.438 0 0 0 1.687 2.824 7.827 7.827 0 0 0 2.622 1.889c1.02.458 2.165.687 3.435.687s2.424-.23 3.465-.687a7.76 7.76 0 0 0 2.654-1.89 8.458 8.458 0 0 0 1.686-2.823c.395-1.083.594-2.237.594-3.465Zm3.34 0c0 1.706-.296 3.272-.89 4.697-.592 1.426-1.41 2.653-2.45 3.684-1.042 1.03-2.28 1.831-3.716 2.403-1.436.573-2.998.858-4.683.858-1.686 0-3.243-.286-4.667-.858a11.023 11.023 0 0 1-3.7-2.403c-1.042-1.03-1.854-2.258-2.436-3.684-.583-1.425-.874-2.99-.874-4.697 0-1.727.29-3.303.874-4.73.582-1.424 1.394-2.642 2.435-3.652 1.04-1.008 2.274-1.794 3.7-2.356 1.425-.562 2.982-.843 4.668-.843 1.685 0 3.247.28 4.683.843 1.436.562 2.674 1.348 3.716 2.356 1.04 1.01 1.857 2.228 2.45 3.653.594 1.426.89 3.001.89 4.729ZM128.603 25.87a6.496 6.496 0 0 0-1.28-2.266c-.574-.659-1.308-1.193-2.182-1.587-.873-.395-1.905-.595-3.069-.595-1.163 0-2.195.2-3.069.595-.872.394-1.607.928-2.182 1.587a6.495 6.495 0 0 0-1.279 2.267 8.37 8.37 0 0 0-.412 2.613v9.19h3.088v-9.047c0-.542.068-1.088.204-1.623.132-.52.35-.99.648-1.396a3.225 3.225 0 0 1 1.175-.968c.491-.245 1.105-.369 1.827-.369.738 0 1.356.124 1.836.368.482.244.874.57 1.167.969.297.407.516.875.647 1.395.136.536.204 1.081.204 1.624v8.56h3.09v-8.704a8.397 8.397 0 0 0-.413-2.612Z" clip-rule="evenodd"/><path fill="#0A1133" fill-rule="evenodd" d="M115.13 30.3v7.034c0 .543-.07 1.088-.205 1.623a4.013 4.013 0 0 1-.648 1.396 3.202 3.202 0 0 1-1.175.968c-.49.245-1.104.369-1.827.369-.737 0-1.356-.123-1.836-.367a3.225 3.225 0 0 1-1.166-.97 4.012 4.012 0 0 1-.648-1.395 6.582 6.582 0 0 1-.204-1.624V21.977h-3.088v15.5c0 .897.138 1.776.412 2.614a6.491 6.491 0 0 0 1.279 2.266c.575.66 1.309 1.193 2.182 1.588.874.394 1.906.594 3.069.594 1.162 0 2.195-.2 3.069-.594.873-.395 1.607-.928 2.182-1.588a6.51 6.51 0 0 0 1.28-2.266 8.39 8.39 0 0 0 .412-2.613v-7.179h-3.088ZM136.726 21.976v15.358a6.59 6.59 0 0 1-.205 1.624c-.131.52-.349.988-.647 1.396a3.253 3.253 0 0 1-1.166.969c-.481.243-1.099.367-1.837.367-.722 0-1.337-.124-1.826-.369a3.21 3.21 0 0 1-1.176-.967 4.018 4.018 0 0 1-.648-1.396 6.582 6.582 0 0 1-.204-1.623v-5.87h-3.089v6.013c0 .896.139 1.775.413 2.613a6.49 6.49 0 0 0 1.28 2.266c.574.66 1.308 1.194 2.182 1.587.873.395 1.906.595 3.068.595 1.163 0 2.196-.2 3.069-.595.873-.393 1.607-.928 2.181-1.587a6.493 6.493 0 0 0 1.281-2.266 8.423 8.423 0 0 0 .412-2.613V21.977h-3.088Z" clip-rule="evenodd"/></g><defs><clipPath id="a"><path fill="white" d="M36 21h104v23.696H36z"/></clipPath></defs></svg>