<svg xmlns="http://www.w3.org/2000/svg" width="176" height="65" fill="none" viewBox="0 0 176 65"><path fill="#0A1133" fill-opacity=".3" d="M13.637 27.371a8.688 8.688 0 0 0-5.245 15.576l3.875-3.875a3.34 3.34 0 1 1 4.42-4.42l3.874-3.875a8.68 8.68 0 0 0-6.924-3.406Z"/><path fill="#0A1133" fill-opacity=".5" fill-rule="evenodd" d="m8.401 42.937 3.863-3.862c.43.196.899.297 1.373.297h6.68v5.349h-6.68a8.642 8.642 0 0 1-5.245-1.746l.01-.038Z" clip-rule="evenodd"/><path fill="#0A1133" fill-rule="evenodd" d="M28.312 23.018a12.048 12.048 0 0 1 3.631 5.855 8.69 8.69 0 0 1-4.936 15.885h-6.68l-.038-.038h.028v-5.3l.01-.01h6.68a3.34 3.34 0 1 0 0-6.681v-.666a6.671 6.671 0 0 0-2.449-5.292l3.754-3.753Z" clip-rule="evenodd"/><path fill="#0A1133" fill-opacity=".7" fill-rule="evenodd" d="M25.46 26.818h-.92a6.671 6.671 0 0 0-9.13.694c-.023-.005-.05.004-.077.02a8.678 8.678 0 0 0-1.696-.16A8.689 8.689 0 0 0 8.9 28.81a1.463 1.463 0 0 0-.19.063 12.02 12.02 0 0 1 19.555-5.865l-.131 1.136-2.674 2.674Z" clip-rule="evenodd"/><path fill="#0A1133" d="M53.552 40.986a8.55 8.55 0 0 1-6.193-2.543 8.257 8.257 0 0 1-2.599-6.117 8.267 8.267 0 0 1 2.6-6.118 8.549 8.549 0 0 1 6.192-2.59 8.293 8.293 0 0 1 5.94 2.393l-1.67 1.698a6.014 6.014 0 0 0-4.27-1.689 5.949 5.949 0 0 0-4.41 1.877 6.128 6.128 0 0 0-1.81 4.457 6.127 6.127 0 0 0 1.81 4.4 6.296 6.296 0 0 0 8.783.104 4.992 4.992 0 0 0 1.285-2.918h-5.63v-2.402h7.967c.078.483.11.973.094 1.463a7.506 7.506 0 0 1-2.055 5.536 7.982 7.982 0 0 1-6.034 2.45Zm18.523-1.595a5.742 5.742 0 0 1-7.948 0 5.349 5.349 0 0 1-1.623-3.988 5.357 5.357 0 0 1 1.623-3.987 5.752 5.752 0 0 1 7.948 0 5.358 5.358 0 0 1 1.623 3.987 5.348 5.348 0 0 1-1.633 3.988h.01Zm-6.193-1.567a3.04 3.04 0 0 0 4.438 0 3.339 3.339 0 0 0 .938-2.42 3.348 3.348 0 0 0-.938-2.43 3.087 3.087 0 0 0-4.457 0 3.35 3.35 0 0 0-.938 2.43 3.34 3.34 0 0 0 .947 2.42h.01Zm18.41 1.567a5.742 5.742 0 0 1-7.948 0 5.349 5.349 0 0 1-1.623-3.988 5.357 5.357 0 0 1 1.623-3.987 5.742 5.742 0 0 1 7.947 0 5.357 5.357 0 0 1 1.624 3.987 5.347 5.347 0 0 1-1.624 3.988Zm-6.194-1.567a3.04 3.04 0 0 0 4.439 0 3.34 3.34 0 0 0 .938-2.42 3.35 3.35 0 0 0-.938-2.43 3.087 3.087 0 0 0-4.457 0 3.35 3.35 0 0 0-.939 2.43 3.341 3.341 0 0 0 .948 2.42h.01Zm14.225 8.173a4.917 4.917 0 0 1-3.124-.995 5.752 5.752 0 0 1-1.82-2.308l2.139-.892a3.603 3.603 0 0 0 1.06 1.399c.496.4 1.118.609 1.754.59a2.813 2.813 0 0 0 2.187-.844 3.425 3.425 0 0 0 .778-2.44v-.806h-.084a3.575 3.575 0 0 1-2.937 1.266 5.094 5.094 0 0 1-3.753-1.632 5.395 5.395 0 0 1-1.605-3.932 5.45 5.45 0 0 1 1.605-3.96 5.085 5.085 0 0 1 3.753-1.641 4.035 4.035 0 0 1 1.727.384c.467.204.883.509 1.22.892h.084v-.892h2.327v9.993a5.828 5.828 0 0 1-1.492 4.363 5.255 5.255 0 0 1-3.819 1.455Zm.169-7.206a2.73 2.73 0 0 0 2.12-.939 3.472 3.472 0 0 0 .854-2.402 3.547 3.547 0 0 0-.853-2.449 2.722 2.722 0 0 0-2.121-.938 2.9 2.9 0 0 0-2.196.938 3.425 3.425 0 0 0-.938 2.43 3.36 3.36 0 0 0 .938 2.403 2.91 2.91 0 0 0 2.196.957Zm9.28-14.544v16.401h-2.45V24.247h2.45Zm6.718 16.74a5.327 5.327 0 0 1-3.95-1.605 5.442 5.442 0 0 1-1.586-3.979 5.49 5.49 0 0 1 1.53-4.016 5.023 5.023 0 0 1 3.753-1.567 4.735 4.735 0 0 1 1.876.366 4.416 4.416 0 0 1 1.436.939c.354.342.669.723.938 1.135.218.348.403.716.554 1.098l.253.638-7.506 3.087a2.816 2.816 0 0 0 2.702 1.689 3.2 3.2 0 0 0 2.749-1.548l1.877 1.266a6.183 6.183 0 0 1-1.802 1.708 5.104 5.104 0 0 1-2.824.788Zm-3.134-5.753 4.992-2.073a1.728 1.728 0 0 0-.779-.854 2.54 2.54 0 0 0-1.285-.329 2.9 2.9 0 0 0-2.018.892 2.974 2.974 0 0 0-.91 2.364ZM126.121 40.986a7.73 7.73 0 0 1-7.863-7.91 7.734 7.734 0 0 1 4.822-7.343 7.73 7.73 0 0 1 3.041-.567 7.005 7.005 0 0 1 5.564 2.477l-1.351 1.314a5.101 5.101 0 0 0-4.204-1.924 5.734 5.734 0 0 0-4.175 1.67 5.854 5.854 0 0 0-1.698 4.373 5.854 5.854 0 0 0 1.698 4.373 5.723 5.723 0 0 0 4.175 1.67 5.971 5.971 0 0 0 4.692-2.196l1.351 1.351a7.375 7.375 0 0 1-2.599 1.98 7.96 7.96 0 0 1-3.453.732ZM135.805 40.648h-1.943V25.495h1.943v15.153ZM138.976 31.528a5.434 5.434 0 0 1 7.657 0 5.48 5.48 0 0 1 1.501 3.94 5.48 5.48 0 0 1-1.501 3.942 5.433 5.433 0 0 1-7.657 0 5.504 5.504 0 0 1-1.501-3.941 5.5 5.5 0 0 1 1.501-3.94Zm1.445 6.662a3.273 3.273 0 0 0 4.758 0 3.753 3.753 0 0 0 1.004-2.721 3.77 3.77 0 0 0-1.004-2.721 3.273 3.273 0 0 0-4.758 0 3.753 3.753 0 0 0-1.004 2.72 3.753 3.753 0 0 0 1.014 2.713l-.01.009ZM158.897 40.648h-1.877v-1.435h-.056a3.614 3.614 0 0 1-1.37 1.295 3.828 3.828 0 0 1-1.924.516 3.65 3.65 0 0 1-2.946-1.182 4.69 4.69 0 0 1-1.004-3.172v-6.38h1.943v6.023c0 1.933.853 2.9 2.561 2.9a2.385 2.385 0 0 0 1.971-.938c.503-.639.771-1.43.76-2.243V30.29h1.942v10.358ZM165.493 40.986a4.56 4.56 0 0 1-3.472-1.586 5.626 5.626 0 0 1-1.454-3.931 5.626 5.626 0 0 1 1.454-3.932 4.565 4.565 0 0 1 3.472-1.585 4.398 4.398 0 0 1 2.12.506c.574.29 1.06.727 1.408 1.267h.084l-.084-1.436v-4.794h1.942v15.153h-1.877v-1.435h-.084a3.6 3.6 0 0 1-1.408 1.266 4.398 4.398 0 0 1-2.101.507Zm.319-1.773a3.096 3.096 0 0 0 2.336-1.014c.66-.751.997-1.732.938-2.73a3.798 3.798 0 0 0-.938-2.73 3.168 3.168 0 0 0-4.691 0 3.751 3.751 0 0 0-.939 2.72 3.76 3.76 0 0 0 .939 2.721 3.092 3.092 0 0 0 2.355 1.033Z"/></svg>