<svg xmlns="http://www.w3.org/2000/svg" width="176" height="65" fill="none" viewBox="0 0 176 65"><path fill="#0A1133" d="M46 15h84.857v36H46V15Z"/><path fill="#E2F1F3" fill-opacity=".6" fill-rule="evenodd" d="M54.21 41.405h3.998V24.55H54.21v16.855ZM81.427 24.55v10.281l-7.246-10.28H70.53v10.28l-7.246-10.28h-3.634v16.854h3.793V31.124l7.246 10.28h3.652v-10.28l7.246 10.28h3.646V24.55h-3.805ZM94.935 24.158c-4.963 0-8.478 3.697-8.478 8.716 0 5.017 3.515 8.715 8.478 8.715 4.963 0 8.478-3.697 8.478-8.715 0-5.019-3.515-8.716-8.478-8.716Zm0 3.842c2.62 0 4.48 1.993 4.48 4.874 0 2.88-1.86 4.874-4.48 4.874s-4.48-1.993-4.48-4.874c0-2.881 1.86-4.874 4.48-4.874Z" clip-rule="evenodd"/><path fill="#DFEFF2" fill-rule="evenodd" d="M112.997 24.49c-4.963 0-8.478 3.697-8.478 8.716 0 5.017 3.515 8.715 8.478 8.715a7.826 7.826 0 0 0 4.365-1.296l.713.984h4.514l-2.538-3.601c.896-1.333 1.424-2.918 1.424-4.802 0-5.019-3.515-8.716-8.478-8.716Zm0 3.842c2.619 0 4.481 1.993 4.481 4.874 0 .552-.069 1.068-.196 1.548l-.517-.732h-4.182l2.539 3.553a4.573 4.573 0 0 1-2.125.505c-2.619 0-4.48-1.993-4.48-4.874 0-2.881 1.861-4.874 4.48-4.874Z" clip-rule="evenodd"/></svg>