<svg width="176" height="65" viewBox="0 0 176 65" fill="none" xmlns="http://www.w3.org/2000/svg">
<mask id="mask0_1949_3402" style="mask-type:luminance" maskUnits="userSpaceOnUse" x="134" y="39" width="27" height="8">
<path d="M160.277 39.9385H134.625V46.9686H160.277V39.9385Z" fill="white"/>
</mask>
<g mask="url(#mask0_1949_3402)">
<path d="M140.805 40.5324H142.173V46.7331H140.805V40.5324ZM153.028 42.3182C152.985 42.2686 152.558 41.971 151.874 41.971C151.02 41.971 150.378 42.6655 150.378 43.608C150.378 44.5505 150.977 45.2449 151.874 45.2449C152.515 45.2449 152.943 44.9473 153.028 44.8977V46.5843C152.857 46.6339 152.387 46.7827 151.789 46.7827C150.25 46.7827 148.925 45.5922 148.925 43.5584C148.925 41.723 150.122 40.334 151.789 40.334C152.43 40.334 152.9 40.5324 153.028 40.5324V42.3182ZM138.925 42.3182C138.882 42.2686 138.455 41.971 137.771 41.971C136.916 41.971 136.275 42.6655 136.275 43.608C136.275 44.5505 136.874 45.2449 137.771 45.2449C138.412 45.2449 138.84 44.9473 138.925 44.8977V46.5843C138.754 46.6339 138.284 46.7827 137.686 46.7827C136.19 46.7827 134.822 45.5922 134.822 43.5584C134.822 41.723 136.019 40.334 137.686 40.334C138.327 40.334 138.797 40.5324 138.925 40.5324V42.3182ZM160.08 43.6576C160.08 45.4433 158.883 46.8819 157.259 46.8819C155.635 46.8819 154.438 45.4433 154.438 43.6576C154.438 41.8718 155.635 40.4332 157.259 40.4332C158.926 40.4332 160.08 41.8718 160.08 43.6576ZM157.259 42.0206C156.447 42.0206 155.849 42.7647 155.849 43.6576C155.849 44.5505 156.447 45.2946 157.259 45.2946C158.071 45.2946 158.669 44.5505 158.669 43.6576C158.669 42.7647 158.071 42.0206 157.259 42.0206ZM147.258 41.971C147.258 41.971 146.66 41.7726 146.19 41.7726C145.635 41.7726 145.336 41.971 145.336 42.2686C145.336 42.6655 145.72 42.7647 145.934 42.8639L146.319 43.0127C147.173 43.36 147.601 44.0544 147.601 44.7985C147.601 46.3363 146.404 46.8819 145.378 46.8819C144.652 46.8819 143.968 46.7331 143.925 46.7331V45.2946C144.053 45.3441 144.609 45.5426 145.207 45.5426C145.891 45.5426 146.19 45.2946 146.19 44.9473C146.19 44.6497 145.934 44.4513 145.592 44.352C145.506 44.3024 145.378 44.2528 145.293 44.2528C144.523 43.9552 143.925 43.4592 143.925 42.4174C143.925 41.2765 144.694 40.4828 145.934 40.4828C146.575 40.4828 147.216 40.6812 147.258 40.6812V41.971Z" fill="#0A1133"/>
</g>
<path d="M131.558 41.2333V42.0845H128.479V41.2333H131.558ZM129.323 46.681V40.602C129.323 40.2615 129.398 39.979 129.547 39.7543C129.696 39.5274 129.893 39.3583 130.139 39.2472C130.385 39.1337 130.652 39.0769 130.94 39.0769C131.153 39.0769 131.335 39.0947 131.487 39.1301C131.638 39.1632 131.75 39.194 131.824 39.2223L131.575 40.0806C131.526 40.0665 131.462 40.0499 131.384 40.031C131.306 40.0097 131.211 39.9991 131.1 39.9991C130.842 39.9991 130.658 40.0629 130.547 40.1906C130.438 40.3183 130.384 40.5027 130.384 40.7439V46.681H129.323Z" fill="#0A1133"/>
<path d="M125.242 46.791C124.731 46.791 124.285 46.6739 123.905 46.4398C123.524 46.2057 123.228 45.8782 123.018 45.4574C122.807 45.0365 122.703 44.5447 122.703 43.9819C122.703 43.4169 122.807 42.9227 123.018 42.4995C123.228 42.0762 123.524 41.7475 123.905 41.5135C124.285 41.2794 124.731 41.1624 125.242 41.1624C125.753 41.1624 126.198 41.2794 126.579 41.5135C126.959 41.7475 127.255 42.0762 127.466 42.4995C127.676 42.9227 127.781 43.4169 127.781 43.9819C127.781 44.5447 127.676 45.0365 127.466 45.4574C127.255 45.8782 126.959 46.2057 126.579 46.4398C126.198 46.6739 125.753 46.791 125.242 46.791ZM125.246 45.9007C125.576 45.9007 125.851 45.8133 126.068 45.6383C126.286 45.4633 126.447 45.2304 126.551 44.9396C126.657 44.6488 126.71 44.3284 126.71 43.9784C126.71 43.6308 126.657 43.3117 126.551 43.0208C126.447 42.7276 126.286 42.4924 126.068 42.315C125.851 42.1377 125.576 42.049 125.246 42.049C124.912 42.049 124.635 42.1377 124.415 42.315C124.198 42.4924 124.036 42.7276 123.93 43.0208C123.826 43.3117 123.773 43.6308 123.773 43.9784C123.773 44.3284 123.826 44.6488 123.93 44.9396C124.036 45.2304 124.198 45.4633 124.415 45.6383C124.635 45.8133 124.912 45.9007 125.246 45.9007Z" fill="#0A1133"/>
<path d="M119.131 41.2332V42.0844H116.155V41.2332H119.131ZM116.953 39.928H118.014V45.0814C118.014 45.287 118.044 45.4419 118.106 45.546C118.167 45.6476 118.247 45.7174 118.343 45.7552C118.443 45.7907 118.551 45.8084 118.666 45.8084C118.751 45.8084 118.826 45.8025 118.89 45.7907C118.954 45.7789 119.003 45.7694 119.039 45.7623L119.23 46.6383C119.169 46.662 119.081 46.6856 118.968 46.7093C118.854 46.7353 118.712 46.7495 118.542 46.7518C118.263 46.7566 118.003 46.7069 117.762 46.6029C117.521 46.4988 117.326 46.3381 117.177 46.1205C117.028 45.903 116.953 45.6299 116.953 45.3012V39.928Z" fill="#0A1133"/>
<path d="M112.433 46.6809V41.2332H113.458V42.0986H113.515C113.614 41.8054 113.789 41.5749 114.04 41.407C114.293 41.2368 114.579 41.1516 114.898 41.1516C114.964 41.1516 115.042 41.154 115.132 41.1587C115.224 41.1635 115.296 41.1694 115.348 41.1765V42.1908C115.306 42.179 115.23 42.166 115.122 42.1518C115.013 42.1352 114.904 42.127 114.795 42.127C114.544 42.127 114.321 42.1802 114.125 42.2866C113.931 42.3906 113.777 42.536 113.664 42.7228C113.55 42.9073 113.494 43.1177 113.494 43.3541V46.6809H112.433Z" fill="#0A1133"/>
<path d="M108.332 46.8016C107.987 46.8016 107.675 46.7378 107.396 46.61C107.117 46.48 106.896 46.2921 106.733 46.0461C106.572 45.8002 106.492 45.4988 106.492 45.1417C106.492 44.8344 106.55 44.5814 106.669 44.3827C106.787 44.1841 106.946 44.0269 107.148 43.911C107.349 43.7952 107.573 43.7077 107.821 43.6486C108.07 43.5895 108.322 43.5445 108.581 43.5138C108.907 43.476 109.171 43.4453 109.375 43.4216C109.578 43.3956 109.726 43.3542 109.818 43.2975C109.911 43.2407 109.957 43.1485 109.957 43.0208V42.996C109.957 42.6862 109.869 42.4463 109.694 42.276C109.521 42.1058 109.264 42.0207 108.921 42.0207C108.564 42.0207 108.282 42.0998 108.077 42.2583C107.873 42.4143 107.733 42.5881 107.655 42.7796L106.658 42.5526C106.776 42.2216 106.949 41.9544 107.176 41.7511C107.405 41.5454 107.669 41.3964 107.967 41.3042C108.265 41.2096 108.578 41.1624 108.907 41.1624C109.124 41.1624 109.355 41.1883 109.598 41.2404C109.844 41.29 110.074 41.3822 110.286 41.517C110.502 41.6518 110.678 41.8445 110.815 42.0951C110.952 42.3434 111.021 42.6661 111.021 43.0634V46.681H109.985V45.9362H109.942C109.874 46.0733 109.771 46.2081 109.634 46.3405C109.497 46.4729 109.321 46.5829 109.105 46.6704C108.89 46.7578 108.632 46.8016 108.332 46.8016ZM108.563 45.9504C108.856 45.9504 109.106 45.8924 109.315 45.7766C109.525 45.6607 109.685 45.5094 109.793 45.3226C109.904 45.1335 109.96 44.9313 109.96 44.7161V44.0139C109.922 44.0517 109.849 44.0872 109.74 44.1203C109.634 44.151 109.512 44.1782 109.375 44.2019C109.238 44.2232 109.104 44.2432 108.974 44.2622C108.844 44.2787 108.735 44.2929 108.648 44.3047C108.442 44.3307 108.254 44.3745 108.084 44.4359C107.916 44.4974 107.781 44.5861 107.68 44.7019C107.58 44.8154 107.531 44.9667 107.531 45.1559C107.531 45.4184 107.628 45.617 107.821 45.7518C108.015 45.8842 108.262 45.9504 108.563 45.9504Z" fill="#0A1133"/>
<path d="M100.583 48.7239V41.2333H101.618V42.1164H101.707C101.769 42.0029 101.857 41.8717 101.973 41.7227C102.089 41.5738 102.25 41.4437 102.455 41.3326C102.661 41.2191 102.933 41.1624 103.271 41.1624C103.711 41.1624 104.104 41.2735 104.449 41.4957C104.794 41.718 105.065 42.0384 105.261 42.4569C105.46 42.8754 105.559 43.379 105.559 43.9678C105.559 44.5565 105.46 45.0613 105.264 45.4822C105.068 45.9007 104.798 46.2235 104.456 46.4505C104.113 46.6751 103.721 46.7874 103.282 46.7874C102.951 46.7874 102.68 46.7318 102.469 46.6207C102.261 46.5096 102.098 46.3795 101.98 46.2306C101.862 46.0816 101.771 45.9492 101.707 45.8333H101.643V48.7239H100.583ZM101.622 43.9571C101.622 44.3402 101.678 44.6759 101.789 44.9644C101.9 45.2529 102.061 45.4787 102.271 45.6418C102.481 45.8026 102.739 45.883 103.044 45.883C103.361 45.883 103.626 45.7991 103.838 45.6312C104.051 45.461 104.212 45.2304 104.321 44.9396C104.432 44.6488 104.487 44.3213 104.487 43.9571C104.487 43.5977 104.433 43.275 104.324 42.9889C104.218 42.7028 104.057 42.477 103.842 42.3115C103.629 42.146 103.363 42.0632 103.044 42.0632C102.737 42.0632 102.477 42.1424 102.264 42.3008C102.053 42.4592 101.894 42.6803 101.785 42.9641C101.676 43.2478 101.622 43.5788 101.622 43.9571Z" fill="#0A1133"/>
<path d="M90.8788 46.6809L89.276 41.2332H90.3717L91.4395 45.2338H91.4926L92.5635 41.2332H93.6596L94.7235 45.2161H94.7766L95.837 41.2332H96.9331L95.3333 46.6809H94.252L93.145 42.7476H93.0636L91.9571 46.6809H90.8788Z" fill="#0A1133"/>
<path d="M86.1404 46.791C85.6298 46.791 85.184 46.6739 84.8036 46.4398C84.4227 46.2057 84.1271 45.8782 83.9169 45.4574C83.7062 45.0365 83.6013 44.5447 83.6013 43.9819C83.6013 43.4169 83.7062 42.9227 83.9169 42.4995C84.1271 42.0762 84.4227 41.7475 84.8036 41.5135C85.184 41.2794 85.6298 41.1624 86.1404 41.1624C86.651 41.1624 87.0968 41.2794 87.4777 41.5135C87.8582 41.7475 88.1537 42.0762 88.3644 42.4995C88.5747 42.9227 88.68 43.4169 88.68 43.9819C88.68 44.5447 88.5747 45.0365 88.3644 45.4574C88.1537 45.8782 87.8582 46.2057 87.4777 46.4398C87.0968 46.6739 86.651 46.791 86.1404 46.791ZM86.1439 45.9007C86.4752 45.9007 86.7494 45.8133 86.9671 45.6383C87.1843 45.4633 87.3454 45.2304 87.4494 44.9396C87.5556 44.6488 87.6087 44.3284 87.6087 43.9784C87.6087 43.6308 87.5556 43.3117 87.4494 43.0208C87.3454 42.7276 87.1843 42.4924 86.9671 42.315C86.7494 42.1377 86.4752 42.049 86.1439 42.049C85.8105 42.049 85.534 42.1377 85.3142 42.315C85.0965 42.4924 84.9346 42.7276 84.8284 43.0208C84.7244 43.3117 84.6721 43.6308 84.6721 43.9784C84.6721 44.3284 84.7244 44.6488 84.8284 44.9396C84.9346 45.2304 85.0965 45.4633 85.3142 45.6383C85.534 45.8133 85.8105 45.9007 86.1439 45.9007Z" fill="#0A1133"/>
<path d="M78.9373 43.4464V46.681H77.8769V41.2333H78.8946V42.1199H78.9621C79.0875 41.8315 79.2834 41.5998 79.5507 41.4248C79.8201 41.2499 80.1597 41.1624 80.5684 41.1624C80.9397 41.1624 81.2649 41.2404 81.5439 41.3964C81.823 41.5501 82.0393 41.7794 82.193 42.0845C82.3467 42.3895 82.4237 42.7666 82.4237 43.2159V46.681H81.3633V43.3436C81.3633 42.9487 81.2601 42.6401 81.0546 42.4179C80.8487 42.1933 80.5662 42.0809 80.2067 42.0809C79.9612 42.0809 79.7422 42.1341 79.5507 42.2405C79.3617 42.3469 79.2116 42.503 79.1001 42.7087C78.9917 42.912 78.9373 43.1579 78.9373 43.4464Z" fill="#0A1133"/>
<path d="M20.5128 31.3999L20.5139 31.4004L20.5167 31.4018L20.5268 31.4068C20.5355 31.411 20.548 31.4171 20.5634 31.4245C20.5944 31.4392 20.6378 31.4596 20.6876 31.4817C20.7809 31.5232 20.9054 31.575 21.0158 31.6078C22.7107 32.3526 24.5462 32.7238 26.4915 32.7524H26.4945C27.6791 32.7524 28.7263 32.5501 29.6328 32.17L29.638 32.1677C30.5404 31.7602 31.253 31.2296 31.7609 30.5126C32.2663 29.7991 32.5354 28.9928 32.5354 28.0986C32.5354 27.0131 32.2414 26.1401 31.6924 25.4996L31.6887 25.4953C31.1325 24.8806 30.4842 24.4076 29.7151 24.1112C28.9635 23.7935 27.9888 23.5077 26.7978 23.2241L26.7927 23.223C25.8628 23.0257 25.1379 22.83 24.6136 22.6368C24.0985 22.447 23.6983 22.2058 23.3527 21.8868C23.0352 21.5937 22.8822 21.2006 22.8822 20.7102C22.8822 19.996 23.2072 19.4112 23.9119 18.9936L23.9149 18.9918C24.6071 18.5658 25.5557 18.3434 26.721 18.3434C27.9408 18.3434 29.1357 18.5652 30.3066 18.9555C30.397 18.9856 30.5004 19.0151 30.5795 19.0367C30.6195 19.0476 30.654 19.0566 30.6785 19.063L30.7074 19.0704L30.7154 19.0724L30.7175 19.073L30.7181 19.0731L30.8941 19.1171L30.9628 18.9495L31.6705 17.2227L31.7234 17.0938L31.6249 16.9953L31.4768 17.1433C31.6249 16.9953 31.6245 16.9949 31.6241 16.9945L31.6234 16.9938L31.622 16.9925L31.6193 16.9899L31.6141 16.9853C31.6109 16.9824 31.6077 16.9799 31.6049 16.9777C31.5993 16.9733 31.594 16.9697 31.5895 16.9667C31.5806 16.9608 31.5715 16.9557 31.5629 16.9512C31.5457 16.9422 31.5225 16.9315 31.4893 16.9179C31.423 16.8906 31.3056 16.8467 31.0937 16.776C29.7093 16.2574 28.1849 15.9998 26.4945 15.9998C25.2295 15.9998 24.121 16.2006 23.207 16.6422C22.2989 17.0528 21.5867 17.6435 21.1095 18.3892C20.6347 19.131 20.397 19.9346 20.397 20.8517C20.397 21.8824 20.6921 22.7574 21.2721 23.3984C21.8308 24.0159 22.5087 24.4881 23.3047 24.7835C24.0807 25.0994 25.0805 25.4131 26.3011 25.7254L26.3037 25.726C27.23 25.9506 27.9316 26.1751 28.4382 26.344C28.9282 26.5073 29.3245 26.7211 29.6368 27.0074C29.9358 27.2814 30.0785 27.5944 30.0785 27.9854C30.0785 28.7856 29.7756 29.3673 29.1754 29.76C28.56 30.1626 27.6104 30.3804 26.2964 30.3804C24.7431 30.3804 23.2758 30.0763 21.92 29.4694C21.8378 29.4214 21.7273 29.3704 21.6425 29.3331C21.5967 29.3129 21.5555 29.2955 21.5257 29.2832C21.5109 29.277 21.4988 29.272 21.4904 29.2686L21.4805 29.2646L21.4778 29.2635L21.4771 29.2632L21.2907 29.1886L21.2082 29.3713L20.4156 31.1264L20.3327 31.3098L20.5128 31.3999Z" fill="#0A1133"/>
<path d="M20.6064 31.2126L20.5128 31.3999M20.5128 31.3999L20.5139 31.4004L20.5167 31.4018L20.5268 31.4068C20.5355 31.411 20.548 31.4171 20.5634 31.4245C20.5944 31.4392 20.6378 31.4596 20.6876 31.4817C20.7809 31.5232 20.9054 31.575 21.0158 31.6078C22.7107 32.3526 24.5462 32.7238 26.4915 32.7524H26.4945C27.6791 32.7524 28.7263 32.5501 29.6328 32.17L29.638 32.1677C30.5404 31.7602 31.253 31.2296 31.7609 30.5126C32.2663 29.7991 32.5354 28.9928 32.5354 28.0986C32.5354 27.0131 32.2414 26.1401 31.6924 25.4996L31.6887 25.4953C31.1325 24.8806 30.4842 24.4076 29.7151 24.1112C28.9635 23.7935 27.9888 23.5077 26.7978 23.2241L26.7927 23.223C25.8628 23.0257 25.1379 22.83 24.6136 22.6368C24.0985 22.447 23.6983 22.2058 23.3527 21.8868C23.0352 21.5937 22.8822 21.2006 22.8822 20.7102C22.8822 19.996 23.2072 19.4112 23.9119 18.9936L23.9149 18.9918C24.6071 18.5658 25.5557 18.3434 26.721 18.3434C27.9408 18.3434 29.1357 18.5652 30.3066 18.9555C30.397 18.9856 30.5004 19.0151 30.5795 19.0367C30.6195 19.0476 30.654 19.0566 30.6785 19.063L30.7074 19.0704L30.7154 19.0724L30.7175 19.073L30.7181 19.0731M20.5128 31.3999L20.3327 31.3098L20.4156 31.1264L21.2082 29.3713L21.2907 29.1886L21.4771 29.2632M30.7181 19.0731L30.7691 18.8701M30.7181 19.0731L30.8941 19.1171L30.9628 18.9495L31.6705 17.2227L31.7234 17.0938L31.6249 16.9953L31.4768 17.1433C31.6249 16.9953 31.6245 16.9949 31.6241 16.9945L31.6234 16.9938L31.622 16.9925L31.6193 16.9899L31.6141 16.9853C31.6109 16.9824 31.6077 16.9799 31.6049 16.9777C31.5993 16.9733 31.594 16.9697 31.5895 16.9667C31.5806 16.9608 31.5715 16.9557 31.5629 16.9512C31.5457 16.9422 31.5225 16.9315 31.4893 16.9179C31.423 16.8906 31.3056 16.8467 31.0937 16.776C29.7093 16.2574 28.1849 15.9998 26.4945 15.9998C25.2295 15.9998 24.121 16.2006 23.207 16.6422C22.2989 17.0528 21.5867 17.6435 21.1095 18.3892C20.6347 19.131 20.397 19.9346 20.397 20.8517C20.397 21.8824 20.6921 22.7574 21.2721 23.3984C21.8308 24.0159 22.5087 24.4881 23.3047 24.7835C24.0807 25.0994 25.0805 25.4131 26.3011 25.7254L26.3037 25.726C27.23 25.9506 27.9316 26.1751 28.4382 26.344C28.9282 26.5073 29.3245 26.7211 29.6368 27.0074C29.9358 27.2814 30.0785 27.5944 30.0785 27.9854C30.0785 28.7856 29.7756 29.3673 29.1754 29.76C28.56 30.1626 27.6104 30.3804 26.2964 30.3804C24.7431 30.3804 23.2758 30.0763 21.92 29.4694C21.8378 29.4214 21.7273 29.3704 21.6425 29.3331C21.5967 29.3129 21.5555 29.2955 21.5257 29.2832C21.5109 29.277 21.4988 29.272 21.4904 29.2686L21.4805 29.2646L21.4778 29.2635L21.4771 29.2632M21.4771 29.2632L21.399 29.4575" stroke="#0A1133" stroke-width="0.418687"/>
<path d="M37.4389 24.3582L37.4388 24.3619L37.4389 24.3657C37.4677 25.9788 37.8136 27.4278 38.4827 28.6786C39.1524 29.9305 40.1138 30.9207 41.3345 31.6472C42.562 32.3779 44.0161 32.7241 45.6312 32.7241C47.2463 32.7241 48.6714 32.3779 49.898 31.6482C51.1204 30.9493 52.0821 29.9582 52.7514 28.6785C53.4486 27.3998 53.7947 25.9793 53.8235 24.3657L53.8236 24.3601L53.8234 24.3544C53.7659 22.7427 53.4199 21.3242 52.7523 20.047L52.7514 20.0452C52.0817 18.7933 51.1203 17.8032 49.8996 17.0766C48.6727 16.3463 47.2471 15.9998 45.6312 15.9998C44.0161 15.9998 42.562 16.346 41.3345 17.0766C40.1138 17.8032 39.1524 18.7933 38.4827 20.0452C37.8136 21.2961 37.4677 22.7451 37.4389 24.3582ZM50.6539 27.4366L50.6516 27.4411C50.2156 28.3404 49.5637 29.073 48.6949 29.5888C47.8243 30.1058 46.8144 30.3804 45.6312 30.3804C44.4473 30.3804 43.4115 30.1055 42.5721 29.5916C41.7253 29.0449 41.0721 28.3365 40.6086 27.4366C40.1453 26.5373 39.9241 25.4956 39.9241 24.3619C39.9241 23.2283 40.1453 22.1866 40.6086 21.2872C41.0739 20.3838 41.7281 19.6495 42.5701 19.1335C43.4098 18.6188 44.4464 18.3434 45.6312 18.3434C46.8129 18.3434 47.8216 18.6174 48.6915 19.133C49.5377 19.6797 50.1905 20.3878 50.6539 21.2872C51.1172 22.1866 51.3383 23.2283 51.3383 24.3619C51.3383 25.4956 51.1172 26.5373 50.6539 27.4366Z" fill="#0A1133" stroke="#0A1133" stroke-width="0.418687"/>
<path d="M57.5205 16.0847H57.2071L57.3272 16.3743L64.0079 32.4818L64.0615 32.6109H64.2016H66.6076H66.7478L66.8013 32.4815L73.4537 16.374L73.573 16.0847H73.26H71.0238H70.8823L70.8297 16.2161L65.39 29.7741L59.923 16.2158L59.8699 16.0847H59.7288H57.5205Z" fill="#0A1133" stroke="#0A1133" stroke-width="0.418687"/>
<path d="M78.2091 32.4823L83.6491 19.4695L89.0896 32.4823L89.1432 32.6109H89.2825H91.5191H91.8351L91.7119 32.3199L84.8893 16.2124L84.8354 16.0847H84.6969H82.6301H82.4916L82.4372 16.2124L75.615 32.3199L75.4919 32.6109H75.8079H78.0158H78.1555L78.2091 32.4823Z" fill="#0A1133" stroke="#0A1133" stroke-width="0.418687"/>
<path d="M97.1694 32.2883V32.4977H97.3788H107.938H108.147V32.2883V30.2218V30.0125H107.938H99.6542L99.6263 16.2936L99.6259 16.0847H99.4169H97.3788H97.1694V16.2941V32.2883Z" fill="#0A1133" stroke="#0A1133" stroke-width="0.418687"/>
<path d="M113.6 16.198H113.39V16.4073V32.0507V32.2601V32.2884H113.6V32.4694H124.725H124.934V32.2601V30.3351V30.1257H124.725H115.876V25.5055H123.904H124.113V25.2962V23.3712V23.1619H123.904H115.876V18.5417H124.725H124.934V18.3323V16.4073V16.198H124.725H113.6Z" fill="#0A1133" stroke="#0A1133" stroke-width="0.418687"/>
<path d="M131.338 32.4016V32.6109H131.547H133.585H133.794L133.795 32.4021L133.822 20.7999L143.73 32.5366L143.792 32.6109H143.89H145.39H145.599V32.4016V16.2941V16.0847H145.39H143.324H143.114V16.2941V27.95L133.18 16.1592L133.116 16.0847H133.019H133.017H133.015H133.012H133.01H133.008H133.005H133.003H133H132.998H132.995H132.993H132.99H132.988H132.985H132.983H132.98H132.978H132.975H132.972H132.97H132.967H132.965H132.962H132.959H132.957H132.954H132.951H132.948H132.946H132.943H132.94H132.938H132.935H132.932H132.929H132.926H132.924H132.921H132.918H132.915H132.912H132.909H132.906H132.903H132.9H132.898H132.894H132.891H132.888H132.885H132.882H132.879H132.876H132.873H132.87H132.867H132.864H132.861H132.858H132.855H132.852H132.849H132.845H132.842H132.839H132.836H132.833H132.83H132.827H132.823H132.82H132.817H132.813H132.81H132.807H132.803H132.8H132.797H132.794H132.79H132.787H132.784H132.78H132.777H132.774H132.77H132.767H132.764H132.76H132.757H132.753H132.75H132.746H132.743H132.74H132.736H132.733H132.729H132.726H132.723H132.719H132.716H132.712H132.709H132.705H132.701H132.698H132.694H132.691H132.687H132.684H132.68H132.676H132.673H132.669H132.666H132.662H132.659H132.655H132.651H132.648H132.644H132.64H132.637H132.633H132.629H132.626H132.622H132.618H132.615H132.611H132.608H132.604H132.6H132.596H132.593H132.589H132.585H132.581H132.578H132.574H132.57H132.567H132.563H132.559H132.555H132.551H132.548H132.544H132.54H132.536H132.533H132.529H132.525H132.521H132.517H132.514H132.51H132.506H132.502H132.498H132.495H132.491H132.487H132.483H132.48H132.476H132.472H132.468H132.464H132.46H132.457H132.453H132.449H132.445H132.441H132.437H132.433H132.43H132.426H132.422H132.418H132.414H132.41H132.406H132.403H132.399H132.395H132.391H132.387H132.383H132.379H132.376H132.372H132.368H132.364H132.36H132.356H132.353H132.349H132.345H132.341H132.337H132.333H132.329H132.326H132.322H132.318H132.314H132.31H132.306H132.302H132.299H132.295H132.291H132.287H132.283H132.279H132.275H132.272H132.268H132.264H132.26H132.256H132.252H132.248H132.245H132.241H132.237H132.233H132.229H132.225H132.221H132.218H132.214H132.21H132.206H132.202H132.199H132.195H132.191H132.188H132.184H132.18H132.176H132.172H132.168H132.165H132.161H132.157H132.154H132.15H132.146H132.142H132.138H132.135H132.131H132.127H132.124H132.12H132.116H132.112H132.109H132.105H132.101H132.097H132.094H132.09H132.087H132.083H132.079H132.076H132.072H132.068H132.065H132.061H132.057H132.054H132.05H132.046H132.043H132.04H132.036H132.032H132.029H132.025H132.022H132.018H132.014H132.011H132.007H132.004H132H131.997H131.993H131.99H131.986H131.983H131.979H131.976H131.972H131.969H131.966H131.962H131.959H131.955H131.952H131.949H131.945H131.942H131.939H131.935H131.932H131.929H131.925H131.922H131.918H131.915H131.912H131.908H131.905H131.902H131.899H131.895H131.892H131.889H131.886H131.883H131.879H131.876H131.873H131.87H131.867H131.864H131.861H131.857H131.854H131.851H131.848H131.845H131.842H131.839H131.836H131.833H131.83H131.827H131.824H131.821H131.818H131.815H131.812H131.809H131.806H131.803H131.8H131.797H131.794H131.791H131.789H131.786H131.783H131.78H131.777H131.774H131.772H131.769H131.766H131.764H131.761H131.758H131.755H131.753H131.75H131.747H131.745H131.742H131.74H131.737H131.734H131.732H131.729H131.727H131.724H131.722H131.719H131.717H131.714H131.712H131.709H131.707H131.704H131.702H131.7H131.697H131.695H131.693H131.69H131.688H131.686H131.683H131.681H131.679H131.676H131.674H131.672H131.67H131.668H131.666H131.663H131.662H131.659H131.657H131.655H131.653H131.651H131.649H131.647H131.645H131.643H131.641H131.639H131.637H131.636H131.634H131.632H131.63H131.628H131.626H131.625H131.623H131.621H131.619H131.618H131.616H131.614H131.612H131.611H131.609H131.608H131.606H131.605H131.603H131.602H131.6H131.599H131.597H131.595H131.594H131.593H131.592H131.59H131.589H131.588H131.586H131.585H131.584H131.582H131.581H131.58H131.579H131.578H131.576H131.575H131.574H131.573H131.572H131.571H131.57H131.569H131.568H131.567H131.566H131.565H131.564H131.563H131.562H131.562H131.561H131.56H131.559H131.559H131.558H131.557H131.557H131.556H131.555H131.554H131.553H131.552H131.552H131.551H131.551H131.55H131.549H131.549H131.548H131.548H131.547H131.338V16.2941V32.4016Z" fill="#0A1133"/>
<path d="M131.547 16.0847H131.548H131.548H131.549H131.549H131.55H131.551H131.551H131.552H131.552H131.553H131.554H131.555H131.556H131.557H131.557H131.558H131.559H131.559H131.56H131.561H131.562H131.562H131.563H131.564H131.565H131.566H131.567H131.568H131.569H131.57H131.571H131.572H131.573H131.574H131.575H131.576H131.578H131.579H131.58H131.581H131.582H131.584H131.585H131.586H131.588H131.589H131.59H131.592H131.593H131.594H131.595H131.597H131.599H131.6H131.602H131.603H131.605H131.606H131.608H131.609H131.611H131.612H131.614H131.616H131.618H131.619H131.621H131.623H131.625H131.626H131.628H131.63H131.632H131.634H131.636H131.637H131.639H131.641H131.643H131.645H131.647H131.649H131.651H131.653H131.655H131.657H131.659H131.662H131.663H131.666H131.668H131.67H131.672H131.674H131.676H131.679H131.681H131.683H131.686H131.688H131.69H131.693H131.695H131.697H131.7H131.702H131.704H131.707H131.709H131.712H131.714H131.717H131.719H131.722H131.724H131.727H131.729H131.732H131.734H131.737H131.74H131.742H131.745H131.747H131.75H131.753H131.755H131.758H131.761H131.764H131.766H131.769H131.772H131.774H131.777H131.78H131.783H131.786H131.789H131.791H131.794H131.797H131.8H131.803H131.806H131.809H131.812H131.815H131.818H131.821H131.824H131.827H131.83H131.833H131.836H131.839H131.842H131.845H131.848H131.851H131.854H131.857H131.861H131.864H131.867H131.87H131.873H131.876H131.879H131.883H131.886H131.889H131.892H131.895H131.899H131.902H131.905H131.908H131.912H131.915H131.918H131.922H131.925H131.929H131.932H131.935H131.939H131.942H131.945H131.949H131.952H131.955H131.959H131.962H131.966H131.969H131.972H131.976H131.979H131.983H131.986H131.99H131.993H131.997H132H132.004H132.007H132.011H132.014H132.018H132.022H132.025H132.029H132.032H132.036H132.04H132.043H132.046H132.05H132.054H132.057H132.061H132.065H132.068H132.072H132.076H132.079H132.083H132.087H132.09H132.094H132.097H132.101H132.105H132.109H132.112H132.116H132.12H132.124H132.127H132.131H132.135H132.138H132.142H132.146H132.15H132.154H132.157H132.161H132.165H132.168H132.172H132.176H132.18H132.184H132.188H132.191H132.195H132.199H132.202H132.206H132.21H132.214H132.218H132.221H132.225H132.229H132.233H132.237H132.241H132.245H132.248H132.252H132.256H132.26H132.264H132.268H132.272H132.275H132.279H132.283H132.287H132.291H132.295H132.299H132.302H132.306H132.31H132.314H132.318H132.322H132.326H132.329H132.333H132.337H132.341H132.345H132.349H132.353H132.356H132.36H132.364H132.368H132.372H132.376H132.379H132.383H132.387H132.391H132.395H132.399H132.403H132.406H132.41H132.414H132.418H132.422H132.426H132.43H132.433H132.437H132.441H132.445H132.449H132.453H132.457H132.46H132.464H132.468H132.472H132.476H132.48H132.483H132.487H132.491H132.495H132.498H132.502H132.506H132.51H132.514H132.517H132.521H132.525H132.529H132.533H132.536H132.54H132.544H132.548H132.551H132.555H132.559H132.563H132.567H132.57H132.574H132.578H132.581H132.585H132.589H132.593H132.596H132.6H132.604H132.608H132.611H132.615H132.618H132.622H132.626H132.629H132.633H132.637H132.64H132.644H132.648H132.651H132.655H132.659H132.662H132.666H132.669H132.673H132.676H132.68H132.684H132.687H132.691H132.694H132.698H132.701H132.705H132.709H132.712H132.716H132.719H132.723H132.726H132.729H132.733H132.736H132.74H132.743H132.746H132.75H132.753H132.757H132.76H132.764H132.767H132.77H132.774H132.777H132.78H132.784H132.787H132.79H132.794H132.797H132.8H132.803H132.807H132.81H132.813H132.817H132.82H132.823H132.827H132.83H132.833H132.836H132.839H132.842H132.845H132.849H132.852H132.855H132.858H132.861H132.864H132.867H132.87H132.873H132.876H132.879H132.882H132.885H132.888H132.891H132.894H132.898H132.9H132.903H132.906H132.909H132.912H132.915H132.918H132.921H132.924H132.926H132.929H132.932H132.935H132.938H132.94H132.943H132.946H132.948H132.951H132.954H132.957H132.959H132.962H132.965H132.967H132.97H132.972H132.975H132.978H132.98H132.983H132.985H132.988H132.99H132.993H132.995H132.998H133H133.003H133.005H133.008H133.01H133.012H133.015H133.017H133.019H133.116L133.18 16.1592L143.114 27.95V16.2941V16.0847H143.324H145.39H145.599V16.2941V32.4016V32.6109H145.39H143.89H143.792L143.73 32.5366L133.822 20.7999L133.795 32.4021L133.794 32.6109H133.585H131.547H131.338V32.4016V16.2941V16.0847H131.547ZM131.547 16.0847V16.2941" stroke="#0A1133" stroke-width="0.418687"/>
<path d="M155.91 32.4016V32.611H156.119H158.186H158.395V32.4016V18.57H163.791H164V18.3606V16.4357V16.2263H163.791H150.542H150.333V16.4357V18.3606V18.57H150.542H155.91V32.4016Z" fill="#0A1133" stroke="#0A1133" stroke-width="0.418687"/>
<path d="M14.4852 16.2941V16.0847H14.2759H12.2093H12V16.2941V32.4016V32.6109H12.2093H14.2759H14.4852V32.4016V16.2941Z" fill="#0A1133" stroke="#0A1133" stroke-width="0.418687"/>
<path d="M84.5272 26.3152L85.3477 27.7023L84.5272 29.1177H82.9418L82.1208 27.7023L82.9418 26.3152H84.5272Z" fill="#0A1133"/>
</svg>
