<svg xmlns="http://www.w3.org/2000/svg" width="176" height="65" fill="none" viewBox="0 0 176 65"><path fill="#232947" fill-opacity=".5" fill-rule="evenodd" d="M36 16H17.333L8 32.236l9.333 16.237H36l9.333-16.237L36 16Zm-4.8 8.35h-9.067l-4.534 7.886 4.534 7.888H31.2l4.534-7.888L31.2 24.35Z" clip-rule="evenodd"/><path fill="#232947" fill-opacity=".8" d="M23.948 27.5h5.41l2.706 4.706-2.706 4.707h-5.41l-2.706-4.707 2.706-4.706Z"/><path fill="#232947" d="m29.357 36.916-2.67-4.707-2.74 4.706h5.41Z"/><path fill="#B5C1D2" d="M29.357 27.5h-5.41l2.74 4.706 2.67-4.706Z"/><path fill="#7D8597" d="m29.358 27.5-2.67 4.706h5.39l-2.72-4.706Zm-2.67 4.706-2.74-4.706-2.706 4.706h5.446Z"/><path fill="#232947" fill-opacity=".8" d="m35.993 48.474 9.333-16.237h-9.599l-4.534 7.887 4.8 8.35Z"/><path fill="#232947" fill-opacity=".5" d="m35.993 48.474 4.8-8.349h-9.6l4.8 8.35Z"/><path fill="#232947" fill-opacity=".3" d="M40.812 24.352h-9.619l4.534 7.887 5.085-7.887Z"/><path fill="#B5C1D2" d="m40.815 24.36-5.084 7.876h9.599l-4.515-7.876Z"/><path fill="#232947" fill-opacity=".6" d="m26.668 48.474 4.534-8.349 4.8 8.35h-9.334Z"/><path fill="#232947" d="M8 32.237h9.6l-5.066 7.887h9.599l4.672 8.35h-9.472l-4.8-8.35L8 32.237Z"/><path fill="#232947" fill-opacity=".9" fill-rule="evenodd" d="m17.6 32.24-5.049-7.888L8 32.24h9.6l4.533 7.887h-9.581l5.047-7.887Z" clip-rule="evenodd"/><path fill="#232947" fill-opacity=".9" d="M31.198 24.35 26.803 16l-4.672 8.35h9.067Z"/><path fill="#232947" fill-opacity=".4" d="m35.993 16-4.8 8.35h9.619L35.992 16Z"/><path fill="#232947" d="M108.259 32.945h1.03l.516.87-.516.869h-1.03l-.515-.87.515-.87Z"/><path fill="#0A1133" d="M56.001 37.544V26.9h1.385v10.645H56Zm14.105-8.41c-.257-.28-.652-.536-1.185-.765a4.463 4.463 0 0 0-1.785-.345c-.84 0-1.461.155-1.861.464-.4.31-.6.735-.6 1.275 0 .38.102.68.307.9.206.22.518.4.939.54.43.139.974.284 1.63.434.76.16 1.416.355 1.97.585.554.23.98.54 1.277.93.298.379.446.889.446 1.528 0 .68-.174 1.24-.523 1.68-.349.44-.826.764-1.43.974-.596.21-1.267.315-2.016.315-1.703 0-3.185-.5-4.447-1.5l.662-1.139c.226.22.528.44.908.66.39.22.83.405 1.323.555.502.14 1.03.21 1.585.21.78 0 1.384-.135 1.815-.405.43-.28.646-.685.646-1.215 0-.4-.123-.72-.369-.96-.236-.24-.59-.439-1.061-.599a19.3 19.3 0 0 0-1.724-.48c-.738-.18-1.359-.375-1.862-.584-.502-.22-.882-.505-1.138-.855-.246-.35-.37-.805-.37-1.364 0-.68.17-1.255.509-1.724.338-.47.805-.825 1.4-1.065.594-.24 1.266-.36 2.015-.36.728 0 1.39.11 1.985.33.605.22 1.138.515 1.6.885l-.646 1.094Zm11.083 8.485c-.77 0-1.467-.15-2.092-.45a5.226 5.226 0 0 1-1.631-1.214c-.452-.52-.8-1.1-1.046-1.74a5.584 5.584 0 0 1-.37-1.993c0-.71.129-1.385.385-2.024.267-.65.63-1.225 1.092-1.725.472-.51 1.02-.91 1.646-1.199.626-.3 1.308-.45 2.047-.45.77 0 1.466.155 2.092.465.626.31 1.164.725 1.616 1.244.451.52.8 1.1 1.046 1.74a5.508 5.508 0 0 1-.015 4.003A5.57 5.57 0 0 1 84.866 36c-.462.5-1.005.894-1.63 1.184a4.807 4.807 0 0 1-2.047.435Zm-3.739-5.397c0 .54.087 1.064.262 1.574.185.5.44.944.77 1.334.328.39.722.7 1.184.93.461.23.974.345 1.538.345.585 0 1.108-.12 1.57-.36.461-.24.851-.56 1.17-.96.327-.4.573-.85.737-1.35.175-.499.262-1.004.262-1.513 0-.54-.092-1.06-.277-1.56-.174-.5-.43-.944-.77-1.334-.328-.4-.722-.71-1.184-.93a3.274 3.274 0 0 0-1.508-.344c-.584 0-1.107.12-1.569.36-.462.23-.856.544-1.184.944-.319.4-.565.85-.74 1.35a4.48 4.48 0 0 0-.26 1.514Zm14.396-5.323 3.616 8.95 3.6-8.95h1.462l-4.431 10.645H94.83L90.385 26.9h1.461Zm16.279 0h1.17l4.461 10.645h-1.574l-1.195-3.118-2.277-5.968-3.585 9.086h-1.477l4.477-10.645Zm10.782 10.645V26.9h1.384v9.446h6.093v1.2h-7.477Zm20.093-1.2v1.2h-7.416V26.9h7.277v1.2h-5.892v3.448h5.123v1.124h-5.123v3.674H139Zm6.977-6.956v8.156h-1.385V26.9h1.169l6.678 8.321v-8.306h1.384v10.63h-1.261l-6.585-8.156Zm22.024-1.29h-3.769v9.446h-1.385V28.1h-3.769v-1.2h8.923v1.2Z"/></svg>