<svg xmlns="http://www.w3.org/2000/svg" width="176" height="64" fill="none" viewBox="0 0 176 64"><path fill="#232947" fill-opacity=".9" fill-rule="evenodd" d="M23.723 11v42.182L6.92 43.9 4 17.983 23.723 11Z" clip-rule="evenodd"/><path fill="#232947" fill-rule="evenodd" d="M23.722 11v42.182L40.525 43.9l2.92-25.917L23.722 11Z" clip-rule="evenodd"/><mask id="a" width="4" height="3" x="38" y="21" maskUnits="userSpaceOnUse" style="mask-type:luminance"><path fill="white" d="m38.552 22.747.004.007c.054.098.194.317.385.328l.873-.729 1.272-1.064-1.546.563-1.059.385-.001.002c-.093.178.018.409.072.508Z"/></mask><g mask="url(#a)"><path fill="#FFFFFE" d="M41.557 20.814h-3.586v2.736h3.586v-2.736Z"/></g><mask id="b" width="9" height="8" x="30" y="22" maskUnits="userSpaceOnUse" style="mask-type:luminance"><path fill="white" d="m30.518 23.482 7.362-.809c.032.122.087.249.139.346.07.13.145.231.226.303l-4.909 5.674a6.428 6.428 0 0 0 .354.216l5.132-5.932c-.24-.02-.416-.287-.484-.408l-.005-.009c-.07-.123-.211-.41-.092-.631v-.003l-7.648.832c-.028.098-.059.198-.066.29l-.01.131Z"/></mask><g mask="url(#b)"><path fill="#FFFFFE" d="M39.293 21.758h-9.248v7.926h9.248v-7.926Z"/></g><mask id="c" width="18" height="14" x="16" y="23" maskUnits="userSpaceOnUse" style="mask-type:luminance"><path fill="white" d="M23.931 32.764a2.19 2.19 0 0 1-2.189-2.184 2.19 2.19 0 0 1 4.379 0 2.19 2.19 0 0 1-2.19 2.184Zm9.321-3.019-.021-.014a6.524 6.524 0 0 1-.097-.066l-.074-.052a7.62 7.62 0 0 1-1.51-1.428h-.001l-.002.002-2.79 1.454c-.508-.656-.982-1.56-1.201-2.367l-.102-.39 2.66-1.483a7.132 7.132 0 0 1-.173-.815c-.046-.31-.04-.734-.03-1.074l.004-.142.002-.037.002-.022c-.091-.107-.473-.026-.924.191l-.16.097-1.692 1.025-.232.14-.003.002c-.014.293-.032.69-.032.73 0 .482.046.956.137 1.415l-.361.205-1.964 1.115c-.078-.378-.138-1.363-.156-2.026l-.42.254-1.126.682-.465.282-1.057.64-.041.025c.063.642.192 1.62.274 1.963l-1.655 1.056-.554.342c-.09-.358-.195-1.467-.237-2.045l-2.542 1.54-.44.248.003.065c.038.661.164 1.303.374 1.911l.156-.088.39-.222 2.104-1.207c.11.32.34.818.497 1.116l.03.058c.17.314.399.662.615.946l-2.347 1.083-.4.202-.022.011c.376.49.819.933 1.319 1.314l2.728-1.216.335-.146.05-.023a8.574 8.574 0 0 1-1.45-1.267l.344-.174 2.05-.94c.235.274.922 1.015 1.32 1.389l.053-.023 1.145-.502.491-.215 1.237-.542.45-.198c-.454-.33-1.235-.968-1.54-1.303l1.604-.81.41-.208.323-.163.065.074c.341.385 1.168 1.029 1.592 1.335l.29-.127 1.925-.844.179-.078c.42-.25.694-.518.663-.655Z"/></mask><g mask="url(#c)"><path fill="#FFFFFE" d="M33.727 22.793h-17.93v14.06h17.93v-14.06Z"/></g><mask id="d" width="8" height="5" x="12" y="33" maskUnits="userSpaceOnUse" style="mask-type:luminance"><path fill="white" d="m19.194 33.083-2.343.608-.792.206-3.848 2.479.357.67 4.225-1.893 2.401-2.07Z"/></mask><g mask="url(#d)"><path fill="#FFFFFE" d="M19.665 32.608h-7.927v4.907h7.927v-4.907Z"/></g><mask id="e" width="5" height="3" x="6" y="31" maskUnits="userSpaceOnUse" style="mask-type:luminance"><path fill="white" d="m6.644 33.648 3.585-1.67-.412-.784-3.173 2.454Z"/></mask><g mask="url(#e)"><path fill="#FFFFFE" d="M10.7 30.725H6.17v3.397h4.53v-3.397Z"/></g><mask id="f" width="11" height="6" x="10" y="26" maskUnits="userSpaceOnUse" style="mask-type:luminance"><path fill="white" d="M20.122 28.388c.018-.01.02-.04.002-.05l-3.612-1.964-.147-.08c-.017-.01-.035-.002-.042.016a.713.713 0 0 1-.01.023l-6.273 4.785.445.834 4.079-1.875c.169-.032.364-.031.567.012.211.045.375.148.51.272.148.137.262.3.365.44.008.01.024.013.034.006 1.434-.905 2.165-1.307 3.622-2.17.15-.089.307-.166.46-.25Z"/></mask><g mask="url(#f)"><path fill="#FFFFFE" d="M20.608 25.814H9.568v6.606h11.04v-6.606Z"/></g><mask id="g" width="5" height="3" x="11" y="41" maskUnits="userSpaceOnUse" style="mask-type:luminance"><path fill="white" d="m11.645 43.18 3.869-1.373-.425-.798-3.444 2.17Z"/></mask><g mask="url(#g)"><path fill="#FFFFFE" d="M15.986 40.536h-4.813v3.114h4.813v-3.114Z"/></g><mask id="h" width="9" height="8" x="15" y="34" maskUnits="userSpaceOnUse" style="mask-type:luminance"><path fill="white" d="m23.169 38.88.366-4.073c.002-.022-.024-.035-.042-.026-.153.083-.304.17-.46.247-1.517.74-2.252 1.127-3.793 1.824a.028.028 0 0 0-.014.031c.06.163.132.346.164.545.028.179.023.37-.057.571a1.45 1.45 0 0 1-.302.478l-.386.24-3.415 2.125.445.825 7.417-2.6.061-.02.016-.166Z"/></mask><g mask="url(#h)"><path fill="#FFFFFE" d="M24.006 34.306h-9.248v7.833h9.248v-7.833Z"/></g><mask id="i" width="6" height="4" x="7" y="36" maskUnits="userSpaceOnUse" style="mask-type:luminance"><path fill="white" d="m7.965 39.025 4.34-1.922-.337-.626-4.003 2.548Z"/></mask><g mask="url(#i)"><path fill="#FFFFFE" d="M12.777 36.005H7.492v3.492h5.285v-3.492Z"/></g><mask id="j" width="5" height="5" x="21" y="28" maskUnits="userSpaceOnUse" style="mask-type:luminance"><path fill="white" d="M25.672 31.015a1.708 1.708 0 0 1-.098.285 1.808 1.808 0 0 1-2.09 1.027 1.766 1.766 0 0 1-.314-.113 1.81 1.81 0 0 1-.995-2.05 1.785 1.785 0 0 1 .189-.474 1.814 1.814 0 0 1 1.796-.892 1.754 1.754 0 0 1 .47.129 1.812 1.812 0 0 1 1.042 2.088Zm-1.187-2.383-.016-.005h-.004a2.031 2.031 0 0 0-2.569 1.956c0 1.118.91 2.028 2.03 2.028 1.118 0 2.028-.91 2.028-2.029 0-.9-.604-1.702-1.469-1.95Z"/></mask><g mask="url(#j)"><path fill="#FFFFFE" d="M26.366 28.083h-5.002v5.002h5.002v-5.002Z"/></g><mask id="k" width="1" height="1" x="18" y="36" maskUnits="userSpaceOnUse" style="mask-type:luminance"><path fill="white" d="m18.912 36.386-.001-.002h-.001l.002.002Z"/></mask><g mask="url(#k)"><path fill="#FFFFFE" d="M19.382 35.913h-.945v.945h.945v-.945Z"/></g><path fill="#232947" d="M59.088 21.003h-1.486v20.383h1.486V21.003ZM67.9 41.651c-1.69 0-3.013-.553-3.968-1.659-.956-1.105-1.442-2.68-1.46-4.724v-1.751c0-2.106.46-3.758 1.38-4.957.92-1.198 2.185-1.798 3.795-1.798 1.557 0 2.745.509 3.563 1.526.819 1.018 1.237 2.575 1.254 4.671v1.38h-8.532v.81c0 1.645.351 2.915 1.055 3.808.703.894 1.696 1.34 2.979 1.34 1.415 0 2.56-.517 3.437-1.552l.77.982c-.938 1.283-2.363 1.924-4.274 1.924Zm-.253-13.509c-1.159 0-2.05.41-2.674 1.228-.623.818-.966 2.014-1.028 3.59h7.046v-.386c-.07-2.954-1.185-4.432-3.344-4.432ZM77.812 23.365v3.663h2.455v1.327h-2.455v9.54c0 .788.117 1.374.352 1.759.234.385.626.577 1.174.577.239 0 .593-.044 1.062-.132l.04 1.327c-.337.15-.819.225-1.447.225-1.725 0-2.61-1.185-2.654-3.556v-9.74h-2.216v-1.328h2.216v-3.662h1.473ZM90.657 37.856c0-.62-.256-1.161-.77-1.626-.513-.464-1.382-.973-2.607-1.526-1.225-.553-2.081-1.013-2.568-1.38-.486-.367-.845-.767-1.075-1.2-.23-.434-.345-.948-.345-1.54 0-1.106.398-2.02 1.195-2.74.796-.722 1.826-1.082 3.092-1.082 1.362 0 2.45.385 3.264 1.154.814.77 1.22 1.787 1.22 3.053h-1.472c0-.814-.279-1.489-.836-2.024-.557-.535-1.283-.803-2.176-.803-.867 0-1.555.221-2.064.664-.509.442-.763 1.017-.763 1.725 0 .575.195 1.044.584 1.406.39.363 1.23.854 2.521 1.473 1.336.584 2.256 1.066 2.76 1.447.505.38.885.803 1.142 1.267.256.465.385 1.015.385 1.652 0 1.186-.412 2.128-1.235 2.827-.822.699-1.906 1.048-3.25 1.048-1.425 0-2.578-.39-3.458-1.168-.88-.778-1.32-1.782-1.32-3.012h1.486c.044.894.343 1.586.896 2.077.553.49 1.351.736 2.395.736.903 0 1.628-.22 2.177-.663.548-.443.822-1.03.822-1.765ZM105.414 34.883c0 2.212-.387 3.893-1.161 5.043-.774 1.15-1.926 1.725-3.457 1.725-1.69 0-2.942-.73-3.755-2.19l-.067 1.925h-1.367V21.003h1.46v8.028c.805-1.513 2.04-2.27 3.703-2.27 1.548 0 2.702.547 3.463 1.64.761 1.092 1.155 2.722 1.181 4.89v1.592Zm-1.473-1.34c0-1.822-.27-3.172-.809-4.047-.54-.876-1.425-1.314-2.654-1.314-1.637 0-2.774.862-3.41 2.587v7.113c.3.752.742 1.334 1.326 1.745.584.412 1.287.617 2.11.617 1.177 0 2.042-.426 2.594-1.28.553-.854.834-2.183.843-3.988v-1.433ZM108.267 33.477c0-2.07.469-3.707 1.407-4.91.938-1.203 2.216-1.805 3.835-1.805 1.628 0 2.909.593 3.842 1.778.933 1.186 1.404 2.818 1.413 4.897v1.526c0 2.106-.471 3.747-1.413 4.923-.942 1.177-2.214 1.765-3.815 1.765-1.602 0-2.871-.575-3.809-1.725-.938-1.15-1.424-2.733-1.46-4.75v-1.7Zm1.487 1.486c0 1.654.334 2.955 1.002 3.901.668.947 1.594 1.42 2.78 1.42 1.212 0 2.138-.455 2.78-1.366.641-.912.966-2.216.975-3.915v-1.526c0-1.655-.336-2.957-1.008-3.908-.673-.951-1.597-1.427-2.774-1.427-1.141 0-2.048.465-2.72 1.394-.673.928-1.018 2.207-1.035 3.835v1.592ZM121.604 33.477c0-2.07.468-3.707 1.406-4.91.938-1.204 2.216-1.805 3.835-1.805 1.628 0 2.909.593 3.842 1.778.933 1.186 1.404 2.818 1.413 4.897v1.526c0 2.105-.471 3.747-1.413 4.923-.942 1.177-2.214 1.765-3.815 1.765s-2.871-.575-3.809-1.725c-.938-1.15-1.424-2.734-1.459-4.75v-1.7Zm1.486 1.486c0 1.654.334 2.955 1.002 3.901.668.947 1.594 1.42 2.78 1.42 1.212 0 2.139-.455 2.78-1.367.641-.91.966-2.216.975-3.914v-1.526c0-1.655-.336-2.957-1.008-3.908-.673-.951-1.597-1.427-2.774-1.427-1.141 0-2.048.465-2.72 1.393-.672.93-1.018 2.208-1.035 3.835v1.593ZM137.714 23.365v3.663h2.455v1.327h-2.455v9.54c0 .788.118 1.374.352 1.759.235.385.626.577 1.175.577.238 0 .592-.044 1.061-.132l.04 1.327c-.336.15-.818.225-1.446.225-1.726 0-2.61-1.185-2.655-3.556v-9.74h-2.216v-1.328h2.216v-3.662h1.473ZM143.341 40.417c0-.318.099-.586.298-.802.199-.217.476-.325.83-.325s.632.108.836.325c.203.216.305.484.305.802 0 .31-.102.567-.305.77-.204.204-.482.305-.836.305s-.631-.101-.83-.305a1.056 1.056 0 0 1-.298-.77ZM154.408 40.284c1.026 0 1.814-.287 2.362-.862.549-.575.845-1.402.889-2.482h1.42c-.071 1.469-.54 2.621-1.407 3.457-.867.836-1.955 1.254-3.264 1.254-1.707 0-2.997-.546-3.868-1.639-.872-1.092-1.316-2.713-1.334-4.863v-1.752c0-2.194.436-3.848 1.307-4.963.872-1.115 2.165-1.672 3.882-1.672 1.424 0 2.548.45 3.37 1.347.823.898 1.261 2.152 1.314 3.762h-1.42c-.044-1.185-.345-2.103-.902-2.753-.558-.65-1.345-.976-2.362-.976-1.274 0-2.21.43-2.807 1.287-.597.859-.896 2.177-.896 3.955v1.632c0 1.84.301 3.178.903 4.014.601.836 1.539 1.254 2.813 1.254ZM163.67 29.283c.425-.77.963-1.382 1.613-1.838.65-.455 1.395-.683 2.236-.683 2.503 0 3.786 1.668 3.848 5.003v9.62h-1.46v-9.461c-.008-1.283-.234-2.23-.676-2.84-.443-.61-1.137-.915-2.084-.915-.769 0-1.462.29-2.077.869-.614.58-1.081 1.373-1.4 2.382v9.966h-1.473V21.003h1.473v8.28ZM112.328 50.098a.71.71 0 0 0-.256-.542c-.171-.155-.461-.324-.869-.508-.409-.185-.694-.338-.856-.46a1.245 1.245 0 0 1-.359-.4 1.088 1.088 0 0 1-.115-.514c0-.368.133-.673.399-.913.265-.24.609-.36 1.03-.36.454 0 .817.127 1.088.384.272.257.407.596.407 1.017h-.491a.898.898 0 0 0-.278-.674c-.186-.179-.428-.268-.726-.268-.289 0-.518.074-.688.221a.728.728 0 0 0-.254.575c0 .192.065.348.195.47.129.12.41.284.84.49.445.195.752.356.92.482.168.127.295.268.381.423.085.155.128.338.128.55 0 .396-.137.71-.412.943-.274.233-.635.35-1.083.35-.475 0-.859-.13-1.153-.39a1.28 1.28 0 0 1-.44-1.004h.496c.014.298.114.528.298.692.185.164.451.246.799.246.301 0 .542-.074.725-.222a.717.717 0 0 0 .274-.588ZM114.987 50.187l.04.265.053-.287.978-3.676h.411l.969 3.645.07.376.058-.336.827-3.685h.504l-1.172 4.786h-.411l-1.04-3.804-.022-.115-.017.12-1.022 3.8h-.416l-1.163-4.787h.499l.854 3.698ZM120.436 51.275h-.495v-4.786h.495v4.786Zm-.566-6.166a.4.4 0 0 1 .084-.257.288.288 0 0 1 .239-.106c.103 0 .184.035.241.106.058.07.086.156.086.257 0 .1-.028.185-.086.254a.296.296 0 0 1-.241.104.29.29 0 0 1-.239-.104.392.392 0 0 1-.084-.254ZM124.188 50.098a.711.711 0 0 0-.257-.542c-.171-.155-.46-.324-.869-.508-.408-.185-.694-.338-.856-.46a1.24 1.24 0 0 1-.358-.4 1.076 1.076 0 0 1-.115-.514c0-.368.133-.673.398-.913s.609-.36 1.031-.36c.454 0 .816.127 1.088.384.271.257.407.596.407 1.017h-.491a.895.895 0 0 0-.279-.674c-.186-.179-.427-.268-.725-.268-.289 0-.519.074-.688.221a.725.725 0 0 0-.255.575c0 .192.065.348.195.47.13.12.41.284.841.49.445.195.752.356.92.482.168.127.295.268.38.423.086.155.128.338.128.55 0 .396-.137.71-.411.943-.274.233-.636.35-1.084.35-.475 0-.859-.13-1.152-.39a1.277 1.277 0 0 1-.44-1.004h.495c.015.298.114.528.299.692.184.164.45.246.798.246.301 0 .543-.074.726-.222a.72.72 0 0 0 .274-.588ZM128.231 50.098a.711.711 0 0 0-.257-.542c-.171-.155-.461-.324-.869-.508-.409-.185-.694-.338-.856-.46a1.23 1.23 0 0 1-.358-.4 1.076 1.076 0 0 1-.115-.514c0-.368.132-.673.398-.913.265-.24.609-.36 1.03-.36.455 0 .817.127 1.089.384.271.257.407.596.407 1.017h-.491a.895.895 0 0 0-.279-.674c-.186-.179-.428-.268-.726-.268-.289 0-.518.074-.687.221a.725.725 0 0 0-.255.575c0 .192.065.348.195.47.13.12.41.284.84.49.446.195.752.356.92.482.168.127.295.268.381.423.085.155.128.338.128.55 0 .396-.137.71-.411.943-.275.233-.636.35-1.084.35-.475 0-.859-.13-1.152-.39a1.277 1.277 0 0 1-.44-1.004h.495c.015.298.114.528.299.692.184.164.45.246.798.246.301 0 .543-.074.725-.222a.718.718 0 0 0 .275-.588ZM131.738 48.66c0-.749.131-1.313.394-1.692.262-.379.652-.568 1.168-.568.542 0 .948.243 1.216.73v-2.65h.491v6.794h-.46l-.022-.614c-.268.468-.678.703-1.23.703-.504 0-.888-.192-1.152-.575-.264-.384-.399-.928-.405-1.632v-.496Zm.5.447c0 .613.092 1.064.277 1.353.184.29.477.434.878.434.516 0 .89-.246 1.123-.739v-2.481c-.221-.534-.594-.801-1.119-.801-.401 0-.694.143-.878.43-.184.285-.278.728-.281 1.326v.478ZM137.914 51.363c-.564 0-1.004-.184-1.323-.553-.318-.368-.481-.893-.487-1.574v-.584c0-.702.154-1.253.461-1.653.306-.4.728-.599 1.265-.599.519 0 .915.17 1.187.509.273.339.412.858.418 1.557v.46h-2.844v.27c0 .548.117.971.352 1.27.234.297.565.446.993.446.472 0 .854-.172 1.145-.517l.257.327c-.313.427-.787.641-1.424.641Zm-.084-4.503c-.387 0-.684.137-.892.41-.208.272-.322.671-.343 1.196h2.349v-.128c-.023-.985-.395-1.478-1.114-1.478ZM141.691 50.505l1.176-4.016h.505l-1.491 4.786h-.389l-1.5-4.786h.504l1.195 4.016ZM147.039 45.268v1.221h.818v.443h-.818v3.18c0 .262.039.458.117.586.078.128.209.193.392.193.079 0 .197-.015.354-.045l.013.443c-.112.05-.273.075-.482.075-.575 0-.87-.395-.885-1.186v-3.246h-.739v-.443h.739v-1.22h.491ZM150.803 46.949a1.81 1.81 0 0 0-.309-.031.927.927 0 0 0-.684.278c-.184.186-.314.444-.391.775v3.304h-.491v-4.786h.482l.009.716c.233-.536.599-.805 1.097-.805.13 0 .229.02.296.058l-.009.49ZM154.019 51.275a3.145 3.145 0 0 1-.088-.664 1.583 1.583 0 0 1-.568.555 1.506 1.506 0 0 1-.755.197c-.412 0-.734-.116-.964-.35-.23-.232-.345-.564-.345-.994 0-.47.16-.84.48-1.115.32-.274.762-.413 1.325-.416h.823v-.668c0-.342-.085-.587-.255-.736-.169-.15-.418-.224-.745-.224-.304 0-.553.089-.748.266a.886.886 0 0 0-.292.685l-.491-.004c0-.392.148-.725.443-.998.295-.273.665-.409 1.11-.409.481 0 .845.121 1.093.363.247.242.371.594.371 1.057v2.349c0 .469.043.82.128 1.053v.053h-.522Zm-1.349-.385a1.323 1.323 0 0 0 1.257-.827v-1.164h-.779c-.448.006-.786.106-1.013.299-.227.193-.341.453-.341.78 0 .608.292.912.876.912ZM156.302 51.275h-.496v-4.786h.496v4.786Zm-.567-6.166a.4.4 0 0 1 .084-.257.288.288 0 0 1 .239-.106c.103 0 .184.035.241.106.058.07.087.156.087.257 0 .1-.029.185-.087.254a.296.296 0 0 1-.241.104.29.29 0 0 1-.239-.104.392.392 0 0 1-.084-.254ZM158.128 46.489l.013.76c.142-.26.323-.466.542-.619.22-.153.47-.23.75-.23.835 0 1.262.556 1.283 1.668v3.207h-.487V48.12c-.003-.428-.078-.743-.225-.947-.148-.203-.379-.305-.695-.305a.984.984 0 0 0-.692.29c-.205.193-.361.458-.467.794v3.322h-.491v-4.786h.469ZM162.57 51.275h-.496v-4.786h.496v4.786Zm-.566-6.166a.4.4 0 0 1 .084-.257.286.286 0 0 1 .239-.106c.103 0 .183.035.241.106.057.07.086.156.086.257 0 .1-.029.185-.086.254a.297.297 0 0 1-.241.104.289.289 0 0 1-.239-.104.392.392 0 0 1-.084-.254ZM164.397 46.489l.013.76c.141-.26.322-.466.542-.619.219-.153.469-.23.75-.23.834 0 1.262.556 1.282 1.668v3.207h-.486V48.12c-.003-.428-.078-.743-.226-.947-.147-.203-.379-.305-.694-.305a.985.985 0 0 0-.693.29c-.205.193-.36.458-.466.794v3.322h-.491v-4.786h.469ZM168.117 48.66c0-.754.13-1.32.389-1.696.26-.376.649-.564 1.168-.564.552 0 .962.252 1.23.757l.026-.668h.456v4.923c-.003.578-.141 1.017-.414 1.318-.272.3-.67.451-1.192.451-.262 0-.527-.064-.794-.192a1.617 1.617 0 0 1-.608-.471l.23-.354c.328.374.706.562 1.137.562.398 0 .688-.106.869-.319.182-.212.274-.535.277-.969v-.76c-.269.457-.676.685-1.221.685-.499 0-.88-.187-1.144-.562-.264-.374-.4-.915-.409-1.623v-.517Zm.496.447c0 .614.092 1.065.278 1.354.186.289.478.433.876.433.531 0 .905-.252 1.124-.756v-2.446c-.222-.546-.593-.819-1.115-.819-.401 0-.695.144-.88.43-.186.286-.28.728-.283 1.327v.477Z"/></svg>