<svg xmlns="http://www.w3.org/2000/svg" width="176" height="64" fill="none" viewBox="0 0 176 64"><path fill="#0A1133" d="M81.227 27.4h-6.422s-.011.004-.011.011v12.495c0 .135-.106.24-.24.24h-3.1a.239.239 0 0 1-.241-.24V27.411s-.004-.01-.01-.01h-6.406a.239.239 0 0 1-.24-.241v-2.8c0-.133.106-.24.24-.24h16.427c.134 0 .24.107.24.24v2.8c0 .134-.106.24-.24.24h.003Zm45.628-3.28h-3.104a.238.238 0 0 0-.24.24v15.546c0 .135.106.24.24.24h3.104c.134 0 .24-.105.24-.24V24.361a.238.238 0 0 0-.24-.24Zm25.068 15.638a.222.222 0 0 1-.145.389H147a.216.216 0 0 1-.145-.053l-5.248-4.544a.22.22 0 0 1 0-.333l2.389-2.066a.225.225 0 0 1 .29 0l7.637 6.61v-.003Zm-7.927-8.638a.222.222 0 0 0 .145.053.222.222 0 0 0 .145-.053l7.637-6.61a.222.222 0 0 0-.145-.39H147a.216.216 0 0 0-.145.053l-5.248 4.544a.22.22 0 0 0-.077.166.22.22 0 0 0 .077.167l2.389 2.066v.004Zm-1.001 1.015a.22.22 0 0 0-.078-.166l-9.003-7.792a.216.216 0 0 0-.145-.053h-4.777a.222.222 0 0 0-.145.39l8.801 7.614s.003.01 0 .014l-8.801 7.616a.22.22 0 0 0-.064.244.227.227 0 0 0 .209.145h4.777a.216.216 0 0 0 .145-.053l9.003-7.792a.22.22 0 0 0 .078-.167ZM27.585 29.33s.01-.014.017-.007c.471.421 11.193 10.022 11.71 10.429.456.357.983.58 1.67.477.888-.11 1.868-.867 1.868-2.148V24.36a.239.239 0 0 0-.24-.24h-3.104a.239.239 0 0 0-.24.24v10.567s-.01.014-.018.008c-.47-.422-11.193-10.022-11.71-10.429-.456-.357-.983-.58-1.67-.478-.888.11-1.868.87-1.868 2.148V39.91c0 .134.106.24.24.24h3.1c.135 0 .241-.106.241-.24V29.33h.004Zm78.742 0s.011-.014.018-.007c.47.421 11.192 10.022 11.709 10.429.457.357.984.58 1.67.477.889-.11 1.869-.867 1.869-2.148V24.36a.239.239 0 0 0-.241-.24h-3.103a.239.239 0 0 0-.241.24v10.567s-.011.014-.018.008c-.47-.422-11.192-10.022-11.709-10.429-.457-.357-.984-.58-1.67-.478-.888.11-1.869.87-1.869 2.148V39.91c0 .134.106.24.241.24h3.1c.134 0 .24-.106.24-.24V29.33h.004Zm-51.59 11.136c1.932-.003 4.087-.113 5.407-.895 1.759-1.04 2.615-2.48 2.615-4.41v-10.8a.24.24 0 0 0-.24-.24h-3.132a.239.239 0 0 0-.241.24v10.592c-.032 2.11-2.643 2.13-4.526 2.13h-1.713c-1.882 0-4.494-.02-4.526-2.13V24.361a.24.24 0 0 0-.24-.24h-3.132c-.13 0-.24.109-.24.24v10.803c0 1.929.856 3.37 2.614 4.41 1.324.782 3.475.891 5.408.895h1.942l.004-.004Zm46.53-.679a.23.23 0 0 1 .017.237.222.222 0 0 1-.201.124h-3.83a.24.24 0 0 1-.194-.103l-2.233-3.195s-.003-.004-.007-.004H83.333s-.007 0-.007.004l-2.244 3.199a.228.228 0 0 1-.184.095H77.07a.223.223 0 0 1-.201-.123.23.23 0 0 1 .017-.238S86.627 25.88 87.23 25.047C87.83 24.216 88.436 24 89.087 24c.718 0 1.27.269 1.804.984l10.386 14.798-.01.004Zm-8.776-6.235-3.408-4.827s-.01-.007-.018 0l-3.41 4.827s0 .014.006.014h6.82s.013-.01.006-.014h.004Z"/></svg>