<svg xmlns="http://www.w3.org/2000/svg" width="176" height="64" fill="none" viewBox="0 0 176 64"><path fill="#0A1133" d="M37.953 52.29v-1.61h3.96c.627 0 1.108-.168 1.444-.504.335-.335.503-.783.503-1.342 0-.604-.168-1.063-.504-1.376-.358-.358-.839-.537-1.443-.537h-5.235v8.155H35v-9.9h6.913c.582 0 1.097.09 1.544.268.448.18.828.403 1.141.671.313.269.537.65.671 1.142.202.425.291.917.269 1.476 0 .515-.078.996-.235 1.443a3.187 3.187 0 0 1-1.846 1.88c-.447.179-.962.268-1.544.268l-3.96-.033ZM49.733 49.338h5.47v1.443h-5.47v-1.443Zm-2.987 5.739V45.21h8.826v1.712h-7.114v6.477h7.148v1.711l-8.86-.033ZM67.386 55.11l-1.477-2.517H61.21l.84-1.376h3.02l-2.181-3.692-4.498 7.585h-1.98l5.706-9.464a.751.751 0 0 1 .335-.437.999.999 0 0 1 .504-.134c.179 0 .335.045.47.134.134.09.246.235.335.437l5.705 9.464h-2.08ZM78.662 55.11l-5.538-4.363-.302-.335a1.006 1.006 0 0 1 .034-.806 1.61 1.61 0 0 1 .336-.369l5.302-4.027h2.651l-6.51 4.833 6.678 5.034-2.651.033Zm-8.155-9.9h1.745v9.9h-1.745v-9.9ZM86.414 55.11v-1.745h7.383c.493 0 .862-.112 1.108-.336.224-.246.336-.559.336-.94 0-.447-.112-.771-.336-.972-.269-.224-.627-.336-1.074-.336h-4.564c-.448 0-.861-.067-1.242-.201a2.586 2.586 0 0 1-1.544-1.477 2.957 2.957 0 0 1-.201-1.108c-.024-.374.021-.75.134-1.107a2.35 2.35 0 0 1 .671-.906c.224-.224.526-.414.907-.57.402-.135.85-.202 1.342-.202h7.048v1.712h-7.048c-.448 0-.76.111-.94.335-.224.202-.335.504-.335.906 0 .358.112.65.335.873.224.224.526.335.906.335h4.498c1.006 0 1.767.224 2.282.672.537.47.794 1.185.771 2.148 0 .425-.055.816-.167 1.174a2.349 2.349 0 0 1-1.544 1.51c-.38.135-.828.213-1.343.235h-7.383ZM102.892 55.11a4.697 4.697 0 0 1-4.43-3.054 6.558 6.558 0 0 1-.369-2.013c0-.716.112-1.376.336-1.98a4.361 4.361 0 0 1 2.584-2.517 5.19 5.19 0 0 1 1.879-.336h5.37v1.712h-5.37c-.447 0-.861.089-1.241.268a3.02 3.02 0 0 0-1.611 1.678c-.135.358-.213.783-.235 1.275 0 .448.078.873.235 1.276.156.402.38.738.671 1.006a3.016 3.016 0 0 0 2.181.974h5.37v1.745l-5.37-.034ZM119.941 55.11l-1.477-2.517h-4.698l.839-1.376h3.02l-2.181-3.692-4.497 7.585h-1.98l5.705-9.464a.75.75 0 0 1 .336-.437.995.995 0 0 1 .503-.134c.179 0 .336.045.47.134.134.09.246.235.335.437l5.706 9.464h-2.081ZM123.096 55.11v-9.9h1.711v8.155h6.679v1.745h-8.39ZM135.681 49.338h5.503v1.443h-5.503v-1.443Zm-2.954 5.739V45.21h8.827v1.712h-7.115v6.477h7.115v1.711l-8.827-.033ZM99.637 21.414 89.535 31.617a1.342 1.342 0 0 1-1.88 0l-4.731-5.034a1.343 1.343 0 0 0-1.88-.034L79.3 28.227a1.342 1.342 0 0 0 0 1.88l8.39 8.39a1.342 1.342 0 0 0 1.813 0l10.202-9.9a1.343 1.343 0 0 1 1.846 0l10.471 10.47c.223.224.503.336.839.336h3.792c1.074 0 1.611-1.276.839-2.014l-16.008-15.975a1.345 1.345 0 0 0-1.846 0Z"/><path fill="#0A1133" d="m89.401 16.516 4.564 4.564a1.342 1.342 0 0 0 1.846 0l1.779-1.678a1.344 1.344 0 0 0 0-1.913l-8.155-8.121a1.342 1.342 0 0 0-1.846 0l-28.56 27.955a1.21 1.21 0 0 0 .84 2.047h3.825c.336 0 .615-.111.839-.335L87.555 16.55a1.342 1.342 0 0 1 1.846 0"/></svg>