<svg xmlns="http://www.w3.org/2000/svg" width="176" height="65" fill="none" viewBox="0 0 176 65"><path fill="#0A1133" d="M21.415 37.1 20 44.135h114.916l1.415-7.033H21.415Zm127.328-9.585s1.552-7.467 1.575-7.515h-9.79c0 .048-2.031 9.9-2.031 9.947h2.511c.022 0 1.528-7.442 1.528-7.442h4.747s-1.506 7.466-1.529 7.515h7.234l-.936 4.6h-7.188c0 .048-1.461 7.009-1.461 7.009h-5.43c0 .024-.48 2.505-.502 2.529h8.009c0-.024 1.438-7.033 1.438-7.033h7.187c0-.024 1.895-9.538 1.895-9.586h-7.257v-.024Z"/><path fill="#0A1133" d="m28.304 31.495 1.027-5.13h1.323c1.46 0 2.145.626 2.145 2.095 0 1.879-1.118 3.035-3.195 3.035h-1.3Zm-.548 2.842h1.392c4.427 0 6.891-2.288 6.891-6.142 0-2.866-1.917-4.72-5.203-4.72h-4.084l-3.126 15.607h3.172l.958-4.745Zm13.28 2.433c-1.255 0-2.236-1.036-1.78-3.445.457-2.384 1.552-3.444 2.807-3.444s2.237 1.06 1.757 3.444c-.456 2.385-1.528 3.445-2.783 3.445Zm-.296 2.673c3.446 0 5.796-2.65 6.32-6.117.548-3.469-1.277-6.118-4.723-6.118-3.445 0-5.796 2.65-6.32 6.117-.548 3.469 1.277 6.118 4.723 6.118Zm11.843-3.733c0 .94-1.073 1.084-1.985 1.084-1.141 0-2.42-.313-3.104-.554l-.525 2.601c.982.265 2.237.458 3.423.458 2.807 0 5.112-1.108 5.112-3.902 0-3.589-4.085-2.963-4.085-4.576 0-.723.662-.988 1.689-.988.981 0 2.373.41 2.83.554l.524-2.625c-.935-.29-2.076-.434-3.08-.434-3.058 0-4.907 1.445-4.907 3.83.023 3.54 4.108 2.962 4.108 4.552Zm11.934-5.588.502-2.529h-3.377l.662-3.203-3.286.77-2.054 9.852c-.57 2.794.89 4.31 3.514 4.31.548 0 1.483-.12 2.145-.336l.525-2.53c-.525.145-1.187.29-1.757.29-.913 0-1.552-.313-1.323-1.494l1.026-5.106h3.423v-.024Zm3.104 8.984 1.232-6.021h4.746l.57-2.939h-4.723l.73-3.685h4.998l.616-2.938h-8.26L64.402 39.13h3.218v-.024Zm8.876-11.513-2.35 11.513h3.126l2.35-11.513h-3.126Zm.456-3.203c-.068 1.035.662 1.854 1.62 1.854 1.073 0 1.849-.819 1.917-1.854.069-1.036-.661-1.855-1.62-1.855-1.095 0-1.87.82-1.917 1.855Zm5.614 14.716 1.21-5.877c.479-2.36 1.574-3.18 2.738-3.18 1.483 0 1.642 1.157 1.369 2.482l-1.324 6.575h3.15l1.391-6.744c.685-3.372-.799-5.13-3.103-5.13-1.278 0-2.51.53-3.56 1.71l.297-1.373h-2.921l-2.35 11.513h3.103v.024Zm15.266-11.802c-1.46 0-2.921.337-3.4.506l-.548 2.673c.708-.216 2.1-.602 3.332-.602 1.643 0 2.236.53 2.236 1.445 0 .169 0 .338-.046.53l-.045.241c-.799-.096-1.53-.168-1.894-.168-3.127 0-5.637 1.276-5.637 4.287 0 1.975 1.46 3.155 3.355 3.155 1.346 0 2.487-.554 3.24-1.493l-.25 1.204h2.783l1.369-6.6c.114-.481.16-.987.16-1.493 0-1.95-1.027-3.685-4.655-3.685Zm-3.035 8.478c0-1.156.958-1.806 2.578-1.806.32 0 .982.024 1.598.12l-.137.65c-.365 1.373-1.438 2.289-2.693 2.289-.89 0-1.346-.458-1.346-1.253Zm11.295 3.324 1.21-5.877c.479-2.36 1.574-3.18 2.738-3.18 1.483 0 1.643 1.157 1.369 2.482l-1.323 6.575h3.149l1.392-6.744c.684-3.372-.799-5.13-3.104-5.13-1.278 0-2.51.53-3.56 1.71l.297-1.373h-2.921l-2.35 11.513h3.103v.024Zm15.22-2.48c-1.437 0-2.396-.651-2.396-2.53 0-2.216 1.324-4.046 3.4-4.046.662 0 1.415.217 2.168.506l.525-2.65c-.867-.313-1.871-.554-2.875-.554-3.446 0-6.412 2.722-6.412 6.889 0 3.444 2.008 5.058 4.883 5.058.958 0 1.78-.193 2.373-.434l.571-2.721c-.662.264-1.392.481-2.237.481Zm11.935 2.336.571-2.77c-.96.337-1.918.626-3.127.626-1.414 0-2.647-.506-2.715-2.288h7.256a9.267 9.267 0 0 0 .411-2.65c0-2.553-1.415-4.648-4.427-4.648-3.925 0-6.298 3.396-6.298 7.13 0 3.203 2.03 5.081 5.18 5.081 1.3 0 2.327-.192 3.149-.481Zm-2.214-9.25c1.027 0 1.734.747 1.734 1.976 0 .216-.022.385-.046.602h-4.472c.479-1.542 1.461-2.577 2.784-2.577Z"/></svg>