<svg xmlns="http://www.w3.org/2000/svg" width="176" height="64" fill="none" viewBox="0 0 176 64"><path fill="#0A1133" fill-rule="evenodd" d="M31.334 28.586c.318 0 .637 0 .954.024l.272.017v6.866l-.499-.026c-1.861-.09-4.403.136-5.969 1.63-1.202 1.153-1.792 3.032-1.748 5.544l.01.679h-6.907v-.589c-.057-3.696.856-6.85 2.673-9.254-2.17 1.279-4.85 1.936-7.894 1.936-.317 0-.636 0-.953-.023L11 35.373v-6.867l.499.026c1.862.091 4.403-.135 5.97-1.629 1.202-1.153 1.792-3.032 1.747-5.544l-.01-.68h6.908v.59c.057 3.695-.857 6.85-2.674 9.253 2.17-1.278 4.85-1.936 7.894-1.936Zm13.087 5.589c3.149 0 4.97-2.41 4.97-5.02 0-2.606-1.821-5.018-4.958-5.018H37.95V39.87h2.853v-5.696h3.618Zm-3.618-2.56v-4.922h3.199c1.538 0 2.46.972 2.485 2.461-.024 1.49-.947 2.461-2.485 2.461h-3.199Zm38.679 4.43c0 1.377.59 1.772 2.226 1.772l-.001.001c.273 0 .535-.02.816-.043l.07-.006v2.313a9.102 9.102 0 0 1-1.416.099c-2.695 0-4.38-1.18-4.38-3.85V30.77h-1.77V29.23c2.3-.996 2.436-3.482 2.436-3.617h2.584c.074 1.61-.407 2.311-.947 2.816h3.358v2.338h-2.976v5.278ZM95.223 24.15h.002l-.002-.001v.001Zm0 0H85.075v15.722h2.866v-6.434h6.742v-2.535H87.94V26.72h7.282v-2.57Zm2.04 4.047h2.717v11.687h-2.718V28.196Zm8.03 11.687h-2.721V28.196h2.362l.21 2.08c.456-1.54 1.993-2.363 3.531-2.363 2.669 0 4.072 1.699 4.072 4.564v7.406h-2.718V32.81c0-1.662-.849-2.338-1.968-2.338-1.254 0-2.768.824-2.768 2.743v6.668Zm14.937-11.956c-3.864 0-5.611 3.1-5.611 6.101h.002c0 2.83 1.736 6.151 5.61 6.151 1.563 0 2.977-1.021 3.31-2.104v.025c.061 1.12 1.364 2.042 2.952 1.943l.614-.074v-2.005c-.811.013-.996-.405-.996-.762V28.21h-2.387l-.185 1.587c-.209-.873-1.538-1.87-3.309-1.87Zm3.247 5.548v.912c0 1.796-1.045 3.26-3.001 3.248-2.387 0-3.051-1.968-3.051-3.617 0-1.65.947-3.593 3.051-3.593 1.648 0 3.001 1.082 3.001 3.05Zm5.849 6.41V28.198h2.36l.209 2.079c.456-1.539 1.993-2.363 3.531-2.363 2.669 0 4.072 1.7 4.072 4.565v7.406h-2.718v-7.073c0-1.662-.849-2.338-1.968-2.338-1.254 0-2.768.824-2.768 2.743v6.668h-2.718Zm18.038-2.19c.739 0 1.894-.159 2.387-1.746l.002-.003 2.504.65c-.644 2.293-2.43 3.605-4.891 3.581-3.764-.024-5.929-2.767-5.929-6.101s2.324-6.101 5.941-6.101c2.304 0 4.486 1.333 5.02 3.545l-2.672.686c-.381-1.561-1.587-1.746-2.362-1.746-1.489 0-3.26 1.033-3.26 3.642s1.746 3.593 3.26 3.593Zm12.382 2.486c2.622 0 4.272-1.405 4.911-3.336h.001l-2.475-.638c-.406 1.352-1.513 1.636-2.46 1.636-1.845 0-3.293-1.452-3.219-3.15h8.471l.025-.774c0-4.49-3.014-5.954-5.438-5.966-3.482 0-5.832 2.558-5.832 6.101 0 3.36 2.349 6.127 6.016 6.127Zm2.453-7.425-5.584.006c.148-1.44 1.421-2.608 3.009-2.608 1.401 0 2.575 1.088 2.575 2.602Zm-61.948-7.892c0 .838-.714 1.526-1.55 1.526-.813 0-1.526-.688-1.526-1.526 0-.838.714-1.526 1.526-1.526.837 0 1.55.688 1.55 1.526Zm-50.023 9.141c0-3.383 2.472-6.175 5.978-6.175 3.567 0 6.003 2.792 6.003 6.175 0 3.359-2.435 6.175-5.978 6.175-3.567 0-6.003-2.791-6.003-6.175Zm2.496-.01c0 2.078 1.576 3.75 3.507 3.75s3.506-1.672 3.506-3.75c0-2.08-1.575-3.752-3.506-3.752-1.931 0-3.507 1.672-3.507 3.751Zm21.27 2.09c0 2.45-2.004 4.097-5.018 4.097h.001c-2.695 0-4.835-1.329-5.487-3.556l2.621-.676c.37 1.317 1.48 1.953 2.92 1.953 1.378 0 2.185-.564 2.185-1.437 0-1.091-1.294-1.29-2.887-1.536l-.015-.002-.028-.005c-2.171-.331-4.648-.71-4.648-3.465 0-2.447 1.956-3.9 4.994-3.9 3.002 0 4.662 1.428 5.142 3.396l-2.596.664c-.333-1.156-1.144-1.808-2.658-1.808-1.44 0-2.128.58-2.128 1.379 0 1.144 1.377 1.353 2.94 1.563 2.14.27 4.663.591 4.663 3.334Z" clip-rule="evenodd"/></svg>