<svg xmlns="http://www.w3.org/2000/svg" width="176" height="65" fill="none" viewBox="0 0 176 65"><path fill="#0A1133" fill-rule="evenodd" d="M64.582 33.703h2.295c.667 0 1.175-.182 1.524-.549.349-.366.523-.836.523-1.41 0-.588-.174-1.069-.523-1.444-.349-.375-.857-.563-1.524-.563h-2.295v3.966Zm0 2.36v4.529h-3.086V27.377h5.38c1.572 0 2.82.402 3.742 1.203.923.802 1.384 1.85 1.384 3.145 0 1.301-.461 2.35-1.384 3.145-.923.795-2.17 1.193-3.741 1.193h-2.295Zm19.591-8.686v8.659c0 1.507-.502 2.675-1.507 3.504-1.004.828-2.32 1.242-3.945 1.242-1.645 0-2.971-.414-3.979-1.242-1.007-.83-1.511-1.997-1.511-3.504v-8.659h3.086v8.659c0 .811.21 1.411.628 1.802.419.39 1.01.585 1.776.585.758 0 1.342-.194 1.752-.581.41-.387.614-.99.614-1.806v-8.659h3.086Zm5 10.856h6.035v2.359h-9.822v-1.38l5.926-9.475h-5.953v-2.36h9.768v1.326l-5.954 9.53Zm10.785 0h6.036v2.359h-9.822v-1.38l5.926-9.475h-5.954v-2.36h9.768v1.326l-5.954 9.53Zm10.276 0h5.707v2.359h-8.794V27.377h3.087v10.856Zm15.06-3.295h-5.198v3.294h6.126v2.36h-9.212V27.377h9.23v2.36h-6.144v2.841h5.198v2.36Zm10.24 5.654h-3.067V27.377h3.067v13.215Zm11.199-10.855h-3.495v10.855h-3.087V29.737h-3.468v-2.36h10.05v2.36Zm11.231 6.218.018.054c-.06 1.549-.521 2.731-1.379 3.549-.859.816-2.104 1.224-3.737 1.224-1.638 0-2.97-.502-3.996-1.506-1.026-1.004-1.539-2.308-1.539-3.912v-2.759c0-1.597.493-2.9 1.48-3.907.986-1.007 2.267-1.511 3.846-1.511 1.675 0 2.955.42 3.84 1.261.887.842 1.388 2.036 1.503 3.586l-.018.054h-2.995c-.043-.86-.235-1.497-.578-1.915-.343-.418-.927-.626-1.752-.626-.698 0-1.248.28-1.648.84-.4.56-.601 1.293-.601 2.2v2.777c0 .914.219 1.653.656 2.215.437.563 1.037.844 1.802.844.741 0 1.266-.197 1.575-.59.309-.393.486-1.02.528-1.878h2.995Zm-134.67 9.301c-7.058-7.036-7.058-18.444 0-25.48 7.056-7.035 18.498-7.035 25.555 0 7.058 7.037 7.057 18.443 0 25.48-7.057 7.036-18.498 7.036-25.556 0Z" clip-rule="evenodd"/><path fill="#DFEFF2" fill-rule="evenodd" d="M44.974 33.014c-.634 1.714-4.341 1.7-9.375 1.714 0 0 3.253-.458 4.192-2.269.94-1.809 2.048-5.476 2.048-5.476-5.008 0-5.454 1.749-5.454 1.749S33.22 37.555 32.09 40.81c-8.77 0-7.368-4.32-7.368-4.32l4.386-12.268h8.888l-.594 1.767s.724-1.767 5.623-1.767c0 0 5.021.022 4.431 1.776-.589 1.754-2.483 7.015-2.483 7.015Z" clip-rule="evenodd"/></svg>