<svg xmlns="http://www.w3.org/2000/svg" width="176" height="65" fill="none" viewBox="0 0 176 65"><path fill="#0A1133" d="M50.452 35.29c2.606 0 6.377-.538 6.377-3.638a2.915 2.915 0 0 0-.064-.712l-1.553-6.742c-.358-1.483-.672-2.156-3.277-3.458-2.02-1.034-6.422-2.74-7.725-2.74-1.212 0-1.564 1.563-3.01 1.563-1.392 0-2.425-1.167-3.727-1.167-1.25 0-2.065.852-2.694 2.604 0 0-1.752 4.942-1.977 5.658a1.338 1.338 0 0 0-.046.404c0 1.921 7.563 8.22 17.696 8.22m6.777-2.372c.36 1.707.36 1.886.36 2.11 0 2.917-3.279 4.536-7.589 4.536-9.742.007-18.275-5.702-18.275-9.475 0-.525.106-1.045.315-1.527-3.505.175-8.04.8-8.04 4.804C24 39.917 39.54 48 51.844 48c9.433 0 11.812-4.267 11.812-7.635 0-2.65-2.291-5.659-6.423-7.455"/><path fill="#DFEFF2" d="M57.227 32.91c.36 1.707.36 1.886.36 2.111 0 2.917-3.278 4.536-7.589 4.536-9.741.006-18.275-5.703-18.275-9.475 0-.526.107-1.045.315-1.527l.762-1.888c-.035.129-.05.262-.046.396 0 1.92 7.563 8.219 17.696 8.219 2.606 0 6.377-.538 6.377-3.638a2.915 2.915 0 0 0-.064-.712l.464 1.979Z"/><path fill="#0A1133" d="M144.676 37.23c0 2.476 1.49 3.68 4.207 3.68.836-.02 1.667-.138 2.477-.35v-2.872a5.181 5.181 0 0 1-1.6.241c-1.119 0-1.534-.35-1.534-1.402v-4.402h3.242v-2.958h-3.242v-3.75l-3.541.766v2.984h-2.352v2.958h2.343v5.104Zm-11.041.066c0-.767.769-1.14 1.929-1.14a8.977 8.977 0 0 1 2.104.263v1.49c-.678.37-1.441.559-2.214.547-1.138 0-1.819-.437-1.819-1.16Zm1.083 3.658c1.25 0 2.258-.262 3.2-.898v.703h3.504v-7.43c0-2.825-1.904-4.375-5.081-4.375-1.775 0-3.529.417-5.417 1.271l1.271 2.608c1.359-.57 2.5-.92 3.506-.92 1.459 0 2.213.568 2.213 1.73v.57a10.318 10.318 0 0 0-2.629-.33c-2.981 0-4.777 1.25-4.777 3.486 0 2.037 1.621 3.592 4.206 3.592m-19.258-.196h3.768v-6.01h6.311v6.003h3.779V25.421h-3.765v5.894h-6.31V25.42h-3.769l-.014 15.344Zm-14.346-5.813c0-1.666 1.314-2.937 3.046-2.937a3.59 3.59 0 0 1 2.45.9v4.052a3.408 3.408 0 0 1-2.45.929c-1.709 0-3.046-1.27-3.046-2.935m5.544 5.806h3.506V24.654l-3.542.767v4.36a5.894 5.894 0 0 0-2.958-.766c-3.373 0-6.025 2.606-6.025 5.937a5.885 5.885 0 0 0 5.916 5.959 5.235 5.235 0 0 0 3.111-1.007l-.008.863Zm-16.09-8.913c1.117 0 2.058.723 2.431 1.84h-4.833c.35-1.152 1.227-1.84 2.402-1.84ZM84.59 34.98c0 3.375 2.76 6.005 6.308 6.005 1.95 0 3.375-.528 4.844-1.755l-2.346-2.083c-.548.57-1.358.877-2.32.877a2.997 2.997 0 0 1-2.85-1.84h8.26v-.88c0-3.682-2.475-6.332-5.85-6.332a5.951 5.951 0 0 0-6.042 6.002m-6.114-6.331c1.25 0 1.95.787 1.95 1.731 0 .944-.7 1.731-1.95 1.731h-3.727v-3.462h3.727Zm-7.5 12.116h3.768v-5.587h2.87l2.893 5.587h4.219l-3.375-6.135a4.64 4.64 0 0 0 2.891-4.317c0-2.76-2.168-4.885-5.416-4.885h-7.85v15.337Z"/></svg>