<svg xmlns="http://www.w3.org/2000/svg" width="176" height="64" fill="none" viewBox="0 0 176 64"><g clip-path="url(#a)"><path fill="#0A1432" d="M53 20.237h10.408c4.48 0 7.1 2.896 7.1 6.72 0 3.376-1.965 5.928-5.376 6.581l6.56 13.57h-2.447l-6.387-13.432H55.24V40.4H53V20.237ZM63.34 31.54c3.204 0 4.928-1.827 4.928-4.583 0-2.755-1.724-4.582-4.929-4.582h-8.1v9.168h8.1v-.003ZM92.064 46.282c0 4.926-3.41 8.718-8.408 8.718-4.998 0-8.478-3.79-8.478-8.718V22.215c0-4.892 3.446-8.753 8.478-8.753s8.408 3.86 8.408 8.753v24.067Zm-14.646 0c0 3.789 2.583 6.581 6.238 6.581 3.654 0 6.169-2.758 6.169-6.581V22.215c0-3.79-2.584-6.617-6.17-6.617-3.585 0-6.237 2.827-6.237 6.617v24.067ZM115.894 54.96V22.381h-4.477v-2.144h11.194v2.144h-4.479v32.58h-2.238ZM96.546 9.012h2.24v24.663l7.441-7.222h2.93l-6.788 6.638 10.83 14.013h-2.745l-9.669-12.46-1.999 1.93v6.087h-2.24V9.011Z"/></g><defs><clipPath id="a"><path fill="white" d="M53 9h69.613v46H53z"/></clipPath></defs></svg>