<svg xmlns="http://www.w3.org/2000/svg" width="160" height="64" fill="none" viewBox="0 0 160 64"><path fill="#0A1133" fill-rule="evenodd" d="M32.269 33.746c.335-.68.503-1.417.503-2.209 0-.56-.066-1.063-.206-1.539a4.043 4.043 0 0 0-.726-1.36 9.863 9.863 0 0 0-1.433-1.435 41.2 41.2 0 0 0-2.281-1.77c-.913-.709-1.555-1.24-1.927-1.631-.373-.383-.559-.82-.559-1.305 0-.513.214-.932.633-1.268.42-.335.96-.503 1.602-.503 1.06 0 2.075.345 3.034 1.016l1.406-2.274a9.15 9.15 0 0 0-2.44-1.1 9.756 9.756 0 0 0-2.717-.373c-.894 0-1.712.121-2.466.364-.763.242-1.405.577-1.945 1.015-.54.438-.968.96-1.276 1.575a4.55 4.55 0 0 0-.465 2.05c0 .644.12 1.231.344 1.734.233.513.53.97.903 1.38.382.41.792.792 1.248 1.155.456.354.93.709 1.406 1.044.633.457 1.145.848 1.536 1.156.4.307.716.606.94.866.223.27.381.532.465.783.084.252.13.522.13.811 0 .68-.223 1.211-.698 1.612-.475.4-1.09.597-1.862.597-.633 0-1.247-.14-1.843-.429-.606-.29-1.276-.746-2.02-1.37L20 34.864c.94.745 1.88 1.286 2.811 1.603.93.326 1.992.485 3.174.485.987 0 1.9-.131 2.728-.392.828-.26 1.545-.624 2.15-1.1a5.008 5.008 0 0 0 1.406-1.714Zm16.242-4.203c.15-.81.224-1.566.224-2.264 0-1.976-.4-3.542-1.201-4.688-.8-1.137-1.889-1.715-3.267-1.715-1.452 0-2.606.606-3.454 1.827-.856 1.221-1.275 2.86-1.275 4.94 0 2.021.419 3.615 1.257 4.77.837 1.165 1.982 1.743 3.434 1.743.866 0 1.592-.224 2.16-.671.568-.438 1.024-1.007 1.378-1.696.353-.69.605-1.436.744-2.246Zm4.692-6.122c.381 1.1.577 2.329.577 3.68 0 1.417-.215 2.73-.662 3.924a10.082 10.082 0 0 1-1.815 3.122 8.13 8.13 0 0 1-2.755 2.078 8.214 8.214 0 0 1-3.444.736c-.55 0-1.07-.046-1.555-.14a5.165 5.165 0 0 1-1.377-.484 6.484 6.484 0 0 1-1.284-.885c-.428-.363-.865-.81-1.322-1.342v11.45H34.93V18.452h4.645l.028 2.637c.838-1.061 1.76-1.835 2.746-2.329.987-.485 2.132-.736 3.435-.736 1.182 0 2.262.223 3.24.67a7.583 7.583 0 0 1 2.53 1.865c.718.801 1.258 1.751 1.649 2.86Zm7.408 13.102h-4.765V10h4.766v26.523Zm20.326-18.088V36.54l-4.784-.01-.009-2.423c-.912 1.016-1.852 1.743-2.82 2.19-.968.448-2.094.671-3.37.671-1.414 0-2.615-.28-3.592-.848-.977-.568-1.676-1.406-2.113-2.516a3.608 3.608 0 0 1-.27-.83 12.403 12.403 0 0 1-.26-2.284 88.018 88.018 0 0 1-.02-1.77V18.437h4.766V28.79c0 .923.046 1.621.13 2.106.084.485.233.923.456 1.305.56 1.016 1.536 1.52 2.942 1.52 1.796 0 3.034-.756 3.704-2.247a5.32 5.32 0 0 0 .363-1.286c.075-.475.112-1.147.112-2.014v-9.737h4.765Zm20.537 7.825v10.263l-.001-.01-4.756-.01V26.2c0-.913-.047-1.622-.13-2.097a4.103 4.103 0 0 0-.447-1.295c-.56-1.016-1.536-1.52-2.942-1.52-.893 0-1.656.188-2.299.56a3.346 3.346 0 0 0-1.433 1.64c-.167.42-.289.858-.344 1.323-.066.467-.093 1.128-.093 1.967v9.748h-4.803V18.47h4.794l.009 2.423c.912-1.007 1.852-1.743 2.82-2.19.968-.448 2.094-.671 3.37-.671 1.424 0 2.625.297 3.602.885.977.588 1.676 1.427 2.113 2.507.093.261.177.531.252.811.065.27.13.587.176.95.056.364.084.793.093 1.287.01.494.019 1.09.019 1.789Zm12.458.04 7.259 9.03-.001.001-4.439 1.557-7.185-9.967v9.607h-4.803V10.005h4.803v15.568h.502l6.386-7.409 3.611 1.556-6.133 6.58Zm25.821-.41v2.954l-14.442 7.202v-3.178l11.192-5.526-11.192-5.451v-3.252l14.442 7.25ZM74.92 44.453c-.033-.01-.986-.274-1.77-.274-.906 0-1.4.304-1.4.735 0 .529.623.724 1 .843l.038.012.625.198c1.469.468 2.138 1.474 2.138 2.566 0 2.254-1.981 3.01-3.713 3.01-1.204 0-2.332-.22-2.443-.244v-2.064l.037.01.042.01h.001c.307.083 1.166.313 2.057.313 1.126 0 1.644-.33 1.644-.838 0-.454-.448-.716-1.01-.893l-.292-.095-.19-.061c-1.261-.399-2.312-1.14-2.312-2.624 0-1.678 1.256-2.804 3.342-2.804 1.102 0 2.139.267 2.206.285v1.915Zm9.645.52.022.012v-2.408l-.045-.014c-.265-.08-1.019-.308-2.02-.308-2.754 0-4.775 1.965-4.775 4.643 0 2.89 2.231 4.645 4.776 4.645.952 0 1.693-.212 2.01-.304l.054-.015v-2.407l-.007.003a3.98 3.98 0 0 1-1.894.473c-1.509 0-2.48-1.062-2.48-2.395 0-1.374 1.013-2.392 2.48-2.392 1.02 0 1.725.383 1.879.467Zm-20.492-2.558h2.264v8.97h-2.264v-8.97Zm-3.111 2.57-.022-.012a3.938 3.938 0 0 0-1.88-.467c-1.466 0-2.48 1.019-2.48 2.392 0 1.333.972 2.395 2.48 2.395a3.98 3.98 0 0 0 1.895-.472l.007-.004v2.407l-.054.016a7.104 7.104 0 0 1-2.01.303c-2.545 0-4.777-1.755-4.777-4.645 0-2.678 2.022-4.642 4.777-4.642 1 0 1.754.228 2.018.308l.046.013v2.408Zm28.405 1.913c0-1.302.998-2.359 2.34-2.359 1.342 0 2.342 1.057 2.342 2.36 0 1.304-1 2.36-2.342 2.36s-2.34-1.056-2.34-2.36Zm2.34 4.645c2.759 0 4.74-2.079 4.74-4.645 0-2.562-1.981-4.643-4.74-4.643-2.758 0-4.736 2.081-4.736 4.643 0 2.566 1.977 4.645 4.736 4.645Zm-43.215-.354c-.344 0-.655-.063-.933-.19a1.572 1.572 0 0 1-.661-.562c-.16-.245-.24-.546-.24-.902 0-.306.059-.558.176-.756.118-.198.277-.354.477-.47.2-.115.424-.203.672-.261.247-.06.5-.104.756-.135l.792-.092c.202-.026.35-.067.441-.123.092-.057.138-.149.138-.276v-.025c0-.308-.087-.547-.261-.717-.172-.17-.429-.255-.77-.255-.356 0-.637.08-.842.237a1.268 1.268 0 0 0-.42.52l-.993-.226c.117-.33.29-.596.516-.8.228-.204.49-.352.788-.444.297-.095.609-.142.936-.142.217 0 .447.026.69.078.244.05.473.141.685.276.214.134.39.326.526.576.137.247.205.569.205.965v3.604H50.14v-.742h-.043c-.068.137-.17.271-.307.403a1.633 1.633 0 0 1-.527.329c-.214.087-.471.13-.77.13Zm.23-.848c.292 0 .541-.057.749-.173.21-.115.368-.266.477-.452.11-.189.166-.39.166-.605v-.7a.55.55 0 0 1-.22.107c-.105.03-.227.057-.363.08-.137.022-.27.042-.4.061l-.325.042c-.205.026-.392.07-.562.131a.965.965 0 0 0-.402.265.662.662 0 0 0-.149.453c0 .261.097.459.29.593.193.132.44.198.738.198Zm52.713.838c-.526 0-.978-.12-1.357-.357a2.361 2.361 0 0 1-.87-.993c-.202-.422-.304-.905-.304-1.45 0-.55.104-1.037.311-1.459.208-.424.5-.755.877-.993s.821-.357 1.332-.357c.412 0 .78.077 1.103.23a1.928 1.928 0 0 1 1.138 1.594h-1.029a1.232 1.232 0 0 0-.388-.658c-.201-.183-.469-.275-.806-.275a1.31 1.31 0 0 0-.774.233c-.219.153-.39.372-.513.657a2.52 2.52 0 0 0-.183 1.004c0 .396.06.737.18 1.025.12.287.29.51.509.668.221.158.482.237.781.237.2 0 .381-.037.544-.11.165-.075.303-.183.413-.322.114-.139.192-.306.237-.501h1.029a2 2 0 0 1-.343.94 1.977 1.977 0 0 1-.767.65c-.318.158-.692.237-1.12.237Zm5.348 0c-.509 0-.953-.117-1.333-.35a2.356 2.356 0 0 1-.883-.979c-.21-.42-.315-.91-.315-1.47 0-.563.105-1.056.315-1.477a2.35 2.35 0 0 1 .883-.983c.38-.233.824-.35 1.333-.35s.953.117 1.332.35c.379.233.674.56.883.983.21.421.315.914.315 1.477 0 .56-.105 1.05-.315 1.47-.209.42-.504.746-.883.979-.379.233-.823.35-1.332.35Zm.003-.887c.33 0 .603-.087.82-.262.217-.174.377-.406.481-.696a2.77 2.77 0 0 0 .159-.958c0-.346-.053-.664-.159-.954a1.556 1.556 0 0 0-.481-.703c-.217-.177-.49-.265-.82-.265-.332 0-.608.088-.827.265a1.577 1.577 0 0 0-.484.703c-.104.29-.155.608-.155.954 0 .349.051.668.155.958.106.29.267.522.484.696.219.175.495.262.827.262Zm3.408-4.651v5.428h1.057v-3.346c0-.245.05-.461.152-.647.103-.186.239-.331.406-.435a1.03 1.03 0 0 1 .555-.159c.294 0 .533.09.717.269.184.179.276.415.276.71v3.608h1.053v-3.46c0-.33.095-.6.286-.809.191-.212.458-.318.802-.318.278 0 .518.083.718.247.2.165.3.432.3.8v3.54h1.057v-3.64c0-.622-.157-1.087-.47-1.396-.311-.308-.713-.463-1.205-.463-.391 0-.728.087-1.011.262a1.522 1.522 0 0 0-.618.693h-.057a1.49 1.49 0 0 0-.548-.7c-.245-.17-.549-.255-.911-.255-.359 0-.666.085-.923.255-.257.167-.442.4-.555.7h-.067v-.884h-1.014Zm8.497 7.464v-7.464h1.032v.88h.088c.061-.113.149-.244.265-.392.115-.149.276-.278.481-.39.205-.112.475-.169.812-.169.439 0 .83.111 1.174.333.344.221.613.54.809.957.198.417.297.919.297 1.506 0 .586-.098 1.09-.294 1.509a2.288 2.288 0 0 1-.805.965 2.089 2.089 0 0 1-1.17.335c-.33 0-.6-.055-.809-.166-.208-.11-.37-.24-.488-.389a2.867 2.867 0 0 1-.272-.395h-.064v2.88h-1.056Zm1.035-4.75c0 .382.055.716.166 1.004.111.287.271.512.481.675.209.16.466.24.77.24.316 0 .58-.084.792-.25.212-.17.372-.4.48-.69a2.72 2.72 0 0 0 .167-.979c0-.358-.055-.68-.163-.965a1.473 1.473 0 0 0-.481-.675c-.212-.165-.477-.247-.795-.247-.306 0-.565.079-.777.237-.21.158-.369.378-.477.66a2.743 2.743 0 0 0-.163.99ZM125.181 51c.278.128.589.191.933.191.299 0 .556-.043.77-.13.215-.088.39-.197.527-.33.136-.131.239-.265.307-.402h.043v.742h1.032v-3.605c0-.395-.069-.717-.205-.964a1.532 1.532 0 0 0-.527-.576 2.011 2.011 0 0 0-.686-.276 3.298 3.298 0 0 0-.689-.078c-.327 0-.639.047-.936.142-.297.091-.56.24-.788.445a1.915 1.915 0 0 0-.516.799l.993.226c.078-.191.218-.364.42-.52.205-.158.486-.236.841-.236.342 0 .599.084.771.254.174.17.261.409.261.717v.025c0 .127-.046.22-.137.276-.092.056-.24.098-.442.123l-.792.092c-.257.031-.509.076-.756.135a2.508 2.508 0 0 0-.672.261c-.2.116-.359.272-.477.47-.117.198-.176.45-.176.756 0 .356.08.657.24.902.163.245.383.432.661.561Zm1.912-.83a1.519 1.519 0 0 1-.749.173c-.3 0-.546-.066-.739-.198-.193-.134-.29-.332-.29-.593 0-.189.05-.34.149-.453a.961.961 0 0 1 .402-.265c.17-.061.357-.105.562-.13.088-.012.196-.027.326-.043a38.742 38.742 0 0 0 .399-.06c.136-.024.258-.05.364-.081a.555.555 0 0 0 .219-.106v.7c0 .214-.055.415-.166.604a1.22 1.22 0 0 1-.477.452Zm3.865-2.322v3.223h-1.057v-5.428h1.015v.883h.067c.125-.287.32-.518.587-.692.268-.175.606-.262 1.014-.262.37 0 .694.078.972.233.278.154.493.382.646.686.154.304.23.68.23 1.127v3.453h-1.057v-3.325c0-.394-.102-.701-.307-.923-.205-.224-.487-.335-.845-.335-.245 0-.463.053-.653.159a1.137 1.137 0 0 0-.449.466 1.533 1.533 0 0 0-.163.735Zm4.635 5.22c.13.026.273.039.431.039.292 0 .549-.05.771-.149.221-.099.412-.247.572-.445.16-.196.292-.435.396-.717L140 45.642h-1.134l-1.375 4.212h-.057l-1.374-4.212h-1.131l1.986 5.499-.131.36c-.089.24-.193.414-.311.52a.616.616 0 0 1-.399.17 1.702 1.702 0 0 1-.516-.068l-.255.866c.064.028.161.054.29.078Z" clip-rule="evenodd"/></svg>