<svg width="176" height="64" viewBox="0 0 176 64" fill="none" xmlns="http://www.w3.org/2000/svg">
<path d="M142.581 41.016C140.583 41.016 138.957 39.3812 138.957 37.3715V26.5678C138.957 24.558 140.583 22.9221 142.581 22.9221H150.828C151.474 22.9221 152 23.4507 152 24.0998C152 24.7489 151.474 25.2769 150.828 25.2769H142.581C141.875 25.2769 141.3 25.8562 141.3 26.5678V30.8198H149.388C150 30.8198 150.497 31.3208 150.497 31.9363C150.497 32.5517 150 33.0522 149.388 33.0522H141.3V37.3715C141.3 38.083 141.875 38.6605 142.581 38.6605H150.828C151.474 38.6605 152 39.1897 152 39.8389C152 40.4886 151.474 41.016 150.828 41.016H142.581ZM105.602 41.2539C103.224 41.2539 101.392 40.647 100.157 39.4491C98.9228 38.2537 98.2974 36.455 98.2974 34.1027V24.0521C98.2974 23.2989 98.9058 22.6865 99.6541 22.6865C100.403 22.6865 101.012 23.2989 101.012 24.0521V33.7423C101.012 35.5024 101.389 36.8221 102.133 37.6627C102.881 38.5094 104.047 38.9383 105.602 38.9383C107.155 38.9383 108.323 38.5094 109.07 37.6627C109.814 36.8215 110.19 35.5024 110.19 33.7423V24.0521C110.19 23.2989 110.8 22.6865 111.549 22.6865C112.298 22.6865 112.907 23.2989 112.907 24.0521V34.1027C112.907 36.4538 112.28 38.2525 111.046 39.4491C109.811 40.647 107.98 41.2539 105.602 41.2539ZM125.999 41.2539C122.937 41.2539 120.604 40.3791 119.067 38.6538C118.622 38.1546 118.65 37.3843 119.131 36.901L119.136 36.8955L119.141 36.8906C119.385 36.6471 119.709 36.5137 120.053 36.5137C120.418 36.5137 120.761 36.6698 120.996 36.9438C121.424 37.4412 121.914 37.8462 122.454 38.1466C123.395 38.6722 124.579 38.9383 125.972 38.9383C127.294 38.9383 128.349 38.704 129.108 38.2408C129.889 37.7661 130.286 37.0815 130.286 36.2054C130.286 35.4969 129.927 34.9188 129.219 34.4893C128.53 34.0727 127.368 33.7148 125.666 33.3936C124.012 33.0834 122.679 32.6955 121.703 32.2403C120.738 31.7913 120.029 31.2303 119.596 30.5695C119.162 29.9137 118.942 29.0994 118.942 28.1493C118.942 27.1465 119.222 26.2203 119.774 25.3974C120.327 24.5727 121.138 23.9077 122.185 23.4219C123.237 22.9337 124.483 22.6865 125.889 22.6865C127.532 22.6865 128.952 22.9888 130.112 23.5859C130.89 23.986 131.596 24.5378 132.209 25.2255C132.678 25.7522 132.634 26.5678 132.11 27.0431C131.874 27.2566 131.569 27.3741 131.253 27.3741C130.852 27.3741 130.481 27.1906 130.236 26.8718C129.888 26.4166 129.497 26.0459 129.07 25.7706C128.282 25.261 127.221 25.0028 125.917 25.0028C124.629 25.0028 123.613 25.2671 122.896 25.7883C122.166 26.3188 121.796 27.0113 121.796 27.8452C121.796 28.6277 122.158 29.256 122.874 29.7124C123.57 30.1572 124.774 30.5304 126.554 30.8522C128.17 31.144 129.47 31.5184 130.418 31.9632C131.355 32.4019 132.046 32.9549 132.472 33.6065C132.896 34.2556 133.111 35.0742 133.111 36.0396C133.111 37.0772 132.814 38.0016 132.229 38.7872C131.639 39.577 130.8 40.1913 129.739 40.6128C128.667 41.038 127.409 41.2539 125.999 41.2539ZM85.3397 41.2588C82.2764 41.2588 79.9444 40.3834 78.407 38.6581C77.9623 38.1595 77.9909 37.3892 78.4715 36.9053L78.4788 36.898C78.7234 36.6532 79.0483 36.5186 79.3938 36.5186C79.7589 36.5186 80.1026 36.6753 80.3362 36.9487C80.7633 37.4455 81.2531 37.8505 81.7934 38.1515C82.7352 38.6777 83.9191 38.9438 85.3123 38.9438C86.6338 38.9438 87.6887 38.7095 88.4486 38.2464C89.2298 37.7716 89.6259 37.087 89.6259 36.2115C89.6259 35.5018 89.2663 34.9249 88.5588 34.4954C87.8694 34.0776 86.7068 33.7191 85.0051 33.3979C83.3521 33.0883 82.0191 32.6998 81.0426 32.2458C80.0783 31.7962 79.3683 31.2339 78.9351 30.575C78.5019 29.9186 78.2823 29.1043 78.2823 28.1548C78.2823 27.1514 78.5622 26.2264 79.1134 25.4035C79.6664 24.5776 80.478 23.9132 81.5251 23.4274C82.5764 22.9398 83.8224 22.692 85.229 22.692C86.8717 22.692 88.2929 22.9949 89.4513 23.5914C90.2312 23.9921 90.9364 24.5439 91.5484 25.231C92.0181 25.7577 91.9731 26.572 91.4505 27.048C91.2144 27.2615 90.9096 27.379 90.5926 27.379C90.1917 27.379 89.8212 27.1961 89.5766 26.8773C89.2304 26.4228 88.8368 26.0514 88.4103 25.7755C87.6212 25.2652 86.5608 25.0071 85.257 25.0071C83.969 25.0071 82.953 25.272 82.2345 25.7932C81.5056 26.3255 81.1357 27.0174 81.1357 27.8501C81.1357 28.6326 81.4983 29.2609 82.2138 29.7179C82.9098 30.1627 84.1132 30.5353 85.8952 30.8577C87.5093 31.1483 88.8094 31.5221 89.7591 31.9681C90.696 32.4086 91.386 32.9617 91.8119 33.6108C92.2365 34.2593 92.4519 35.0779 92.4519 36.0451C92.4519 37.0833 92.155 38.0071 91.5685 38.7915C90.9783 39.5819 90.1406 40.1968 89.0777 40.6183C88.0063 41.0435 86.7488 41.2588 85.3397 41.2588Z" fill="#0A1133"/>
<path d="M67.5252 29.075C67.235 28.774 66.7574 28.774 66.4678 29.075C66.1417 29.4017 66.1806 29.9658 66.5846 30.2356C66.8316 30.4002 67.1613 30.4002 67.4077 30.2356C67.8105 29.9658 67.85 29.4017 67.5252 29.075ZM66.5584 26.5183C64.5604 26.0478 62.7657 27.8532 63.2347 29.8612C63.4726 30.8835 64.2806 31.6953 65.2984 31.9352C67.2964 32.4075 69.0924 30.6008 68.6221 28.5917C68.3824 27.5688 67.575 26.7575 66.5584 26.5183ZM53.3677 37.8286C52.0658 37.3447 51.5626 37.4419 49.898 37.4652C48.7445 37.4799 48.7025 37.4401 47.386 37.4401C46.9789 37.4401 46.8293 39.4009 48.301 39.8084C48.9453 39.9864 49.6413 40.099 50.1262 40.597C50.341 40.8172 50.4614 41.15 49.9656 41.15H46.3115C45.6721 41.15 45.0686 41.1647 44.58 40.7487C43.842 40.1216 43.4977 39.259 43.1284 38.4031C42.7451 37.5129 42.332 36.6362 41.8465 35.7974C40.8816 34.1297 39.6058 32.621 37.8943 31.699C35.7577 30.5464 32.131 29.975 29.2594 32.1927C26.2332 34.5292 26.8811 38.906 29.5283 41.0473C30.5735 41.8934 31.9363 42.247 33.276 42.1675C35.8939 42.0151 37.8244 40.0751 37.345 37.6873C37.185 36.8883 36.7214 36.1315 36.0229 35.7191C35.5265 35.4273 34.9375 35.3239 34.3626 35.3227C33.7445 35.3208 33.0868 35.4487 32.642 35.8812C32.1164 36.3933 32.0312 37.2982 32.4516 37.9008C32.684 38.2348 33.0624 38.5169 32.9986 38.9519C32.9548 39.2461 32.7132 39.4652 32.4248 39.53C31.9339 39.6401 31.4843 39.3587 31.1527 39.0149C30.3021 38.1339 30.0357 36.7316 30.5041 35.5968C31.1162 34.1107 32.8185 33.2933 34.4167 33.3466C36.4774 33.4163 38.42 34.7831 39.2645 36.6741C40.1095 38.5664 39.8564 40.8882 38.692 42.6C36.1044 46.4029 29.7144 45.9539 26.7455 42.7468C24.8831 40.7346 23.8714 38.7824 24.0131 35.1465C24.1129 32.5775 25.5871 30.0465 27.4664 28.2662C30.5285 25.3645 34.5609 23.3804 38.6646 22.5251C41.1566 22.0069 43.7295 21.8858 46.2592 22.1397C48.4902 22.3624 50.7078 22.7735 52.8518 23.441C53.9165 23.7744 54.9636 24.1708 55.9759 24.6383C56.8691 25.0506 58.0396 25.5003 58.735 26.2124C58.735 24.9227 58.6851 23.5058 58.6851 22.519C58.6851 22.1427 59.0788 21.8882 59.4158 22.0491C60.8668 22.7264 64.3043 24.3593 66.5961 25.4134C69.6685 26.8248 69.8857 30.1548 69.9928 33.1074C69.9953 33.1734 69.9983 33.2413 69.9691 33.3001C69.8724 33.5026 69.3546 33.4475 69.1648 33.45C68.7973 33.4536 68.2431 33.4512 67.8756 33.4683C67.1425 33.5001 66.4282 33.4867 65.6945 33.45C64.3384 33.3839 63.0273 32.7758 62.1493 32.0373C62.0617 31.9627 61.7782 31.8819 61.645 32.0214C61.5063 32.1652 61.5537 32.3903 61.6286 32.4674C62.1323 32.9783 62.678 33.3086 63.3132 33.6384C64.1199 34.055 64.9997 34.1609 65.8916 34.2129C66.8468 34.2698 67.8087 34.2551 68.762 34.1572C69.5578 34.0752 69.7635 34.0202 68.978 34.6069C68.2881 35.1226 67.488 35.4934 66.6764 35.7675C65.512 36.1663 64.283 36.3627 63.0559 36.397C62.3118 36.4172 61.5677 36.3786 60.8297 36.282C60.4477 36.2343 60.0686 36.1645 59.6853 36.1254C59.3744 36.0935 59.052 36.0354 58.7423 36.1027C58.4606 36.1645 58.2008 36.3175 58.0238 36.5481C57.7811 36.8669 57.6971 37.7417 57.8376 38.121C58.1084 38.8558 58.704 39.2828 59.3331 39.6597C60.0145 40.0672 60.9107 40.2066 61.0853 40.9855C61.1212 41.1482 59.6726 41.1525 59.5083 41.15H57.5803C57.5803 41.15 56.5326 41.1751 56.1244 41.0258C56.1116 41.0222 56.1007 41.0161 56.0873 41.0093C55.8658 40.8894 55.7697 40.5909 55.6942 40.3645C55.5866 40.0457 55.398 39.727 55.1686 39.3972C54.733 38.772 54.0637 38.088 53.3677 37.8286ZM67.9675 29.2255C67.9675 30.3622 67.0524 31.2824 65.9226 31.2824C64.7934 31.2824 63.8784 30.3622 63.8784 29.2255C63.8784 28.0906 64.7934 27.1705 65.9226 27.1705C67.0524 27.1705 67.9675 28.0906 67.9675 29.2255Z" fill="#0A1133"/>
</svg>
