<svg xmlns="http://www.w3.org/2000/svg" width="176" height="64" fill="none" viewBox="0 0 176 64"><path fill="#0A1133" d="M109.506 28.03a8.974 8.974 0 0 0-2.815-.573c-1.071 0-1.91.28-1.91 1.255 0 2.303 5.933.886 5.933 5.625 0 3.207-2.604 4.428-5.541 4.428a13.723 13.723 0 0 1-3.934-.583l.233-2.812c1.151.379 2.349.599 3.561.653 1.137 0 2.068-.369 2.068-1.347 0-2.465-5.928-.886-5.928-5.602 0-2.953 2.486-4.16 5.23-4.16a11.327 11.327 0 0 1 3.724.584l-.621 2.531Zm-10.842 0a9.058 9.058 0 0 0-2.81-.573c-1.072 0-1.933.28-1.933 1.255 0 2.303 5.955.886 5.955 5.625 0 3.207-2.626 4.428-5.54 4.428a14.267 14.267 0 0 1-3.98-.583l.256-2.812c1.159.378 2.364.598 3.583.653 1.108 0 2.046-.369 2.046-1.347 0-2.465-5.954-.886-5.954-5.602 0-2.953 2.511-4.16 5.23-4.16 1.28-.011 2.555.186 3.772.584l-.625 2.531Zm54.8-3.138c2.586 0 4.093 1.395 4.093 4.43v9.155h-3.443v-8.436c0-1.37-.395-2.277-1.847-2.277s-2.745 1.277-2.745 3.576v7.16h-3.368v-8.46c0-1.276-.422-2.276-1.888-2.276-1.533 0-2.719 1.417-2.719 3.716v7.012h-3.487v-13.32c2.276-.28 3.136.65 3.232 2.138a4.6 4.6 0 0 1 4.163-2.418c2.394 0 3.347 1.325 3.694 2.584.58-1.322 2.069-2.584 4.326-2.584h-.011Zm-70.126.28c-.739 3.95-2.652 10.18-3.86 13.317h-3.627l-2.56-8.858h-.045l-2.56 8.858h-3.605c-1.163-3.093-3.258-9.53-3.86-13.316h3.417l2.257 9.156h.048l2.697-9.156h3.42l2.626 9.086h.048l2.28-9.086h3.324ZM61.175 28.03a8.975 8.975 0 0 0-2.815-.572c-1.071 0-1.884.28-1.884 1.255 0 2.303 5.91.886 5.91 5.625 0 3.207-2.604 4.428-5.54 4.428a13.678 13.678 0 0 1-3.931-.583l.207-2.812c1.16.378 2.365.598 3.583.653 1.138 0 2.069-.369 2.069-1.347 0-2.465-5.91-.886-5.91-5.602 0-2.953 2.485-4.16 5.23-4.16a11.434 11.434 0 0 1 3.723.584l-.642 2.531Zm68.378 10.736c-3.79 0-6.442-2.066-6.442-6.713 0-4.16 2.792-7.16 6.837-7.16 3.768 0 6.21 2.119 6.21 6.643 0 4.348-2.649 7.227-6.605 7.227v.003Zm.14-10.939c-1.533 0-2.999 1.137-2.999 4.06 0 2.532.953 3.949 2.955 3.949 1.699 0 3.003-1.37 3.003-4.06 0-2.583-.931-3.949-2.955-3.949h-.004ZM84.897 38.492h3.42v-13.32c-1.606-.162-3.42.281-3.42 2.79v10.53Zm1.87-14.991a2.146 2.146 0 0 0 2.038-1.286c.114-.262.174-.543.177-.829a2.15 2.15 0 0 0-2.151-2.062 2.155 2.155 0 0 0-2.152 2.062 2.136 2.136 0 0 0 2.087 2.115Zm31.911 15.22c-3.956 0-6.538-1.974-6.538-6.691 0-4 2.216-7.09 7.07-7.09 1.11.002 2.211.19 3.258.558l-.739 2.79a7.047 7.047 0 0 0-2.416-.488c-2.489 0-3.513 1.624-3.513 4.06 0 2.373.931 3.953 3.373 3.953a6.803 6.803 0 0 0 2.697-.583l.395 2.742c-.665.424-2.084.749-3.572.749h-.015Z"/><path fill="#DFEFF2" d="M30.587 22.678a2.358 2.358 0 0 0-1.917 1.476c-.34.757-.525 1.59-1.023 2.27-1.035 1.417-3.716 1.085-4.126 3.03-.603 2.856 3.117 3.458 4.222 5.447.809 1.476.413 3.746 1.943 4.776.234.153.49.267.76.34.048.012.096.022.145.029l-.004-17.368Z"/><path fill="#0A1133" d="m30.591 40.053-.144-.03a2.63 2.63 0 0 1-.765-.34c-1.529-1.029-1.134-3.32-1.939-4.775a4.198 4.198 0 0 0-1.108-1.21l-.04-.033c-.178.177-.44.453-.865.878-.33.337-.64.693-.927 1.066a13.16 13.16 0 0 1 2.438 3.396c.739 1.657.938 3.462 1.514 5.167.193.64.482 1.247.857 1.8.242.362.583.645.983.816v-6.753l-.004.018Z"/><path fill="url(#a)" d="M28.77 19.039c.162.177.37.39.554.583.184.192.436.45.705.708.167.159.37.37.543.517v-7.806a2.088 2.088 0 0 0-.55-.037c-.466.027-.925.121-1.363.28a3.51 3.51 0 0 0-1.075.606 2.04 2.04 0 0 0-.71 1.152c-.099.632.01 1.28.311 1.845.183.388.402.759.654 1.107 0 0 .185.225.288.34.21.214.428.457.643.705Z"/><path fill="url(#b)" d="M41.236 25.077a10.095 10.095 0 0 0-.883-3.418 8.823 8.823 0 0 0-1.75-2.502 9.228 9.228 0 0 0-1.533-1.233 9.554 9.554 0 0 0-1.452-.764 8.633 8.633 0 0 0-2.612-.645 4.68 4.68 0 0 0-2.423.369v3.949c.443.406.975.893 1.245 1.133.188.166.37.325.558.487l.55.461.573.484c.236.199 1.086.885 1.185.97l.167.133 2.146 1.738.048.037c.288.233 1.77 1.425 2.497 2.049a48.932 48.932 0 0 1 1.326 1.162c.144-.648.251-1.303.321-1.963.086-.813.098-1.632.037-2.447Z"/><path fill="url(#c)" d="M45.895 36.528a9.623 9.623 0 0 0-1.212-2.738 18.737 18.737 0 0 0-2.686-3.248c-.369-.369-.738-.701-1.108-1.052-.037.166-.13.561-.314 1.163-.096.314-.27.83-.336 1.026-.1.284-.292.793-.421 1.107a28.745 28.745 0 0 1-.71 1.646c-.361.775-.564 1.144-.967 1.882-.181.329-.336.642-.562 1.033-.077.133-.158.274-.254.429-.041.062-.507.815-.555.9-.092.144-.195.31-.258.402-.558.853-.606.894-.695 1.019-.206.28.074-.103-.317.447l-.927 1.306c-.137.188-.599.794-1.109 1.425-.51.63-1.034 1.32-1.267 1.598l-1.629 1.919v3.856a22.012 22.012 0 0 0 2.14-.284 24.708 24.708 0 0 0 2.784-.69c.801-.25 1.588-.543 2.357-.878.69-.302 1.364-.642 2.017-1.019a16.344 16.344 0 0 0 2.371-1.664c.833-.7 1.567-1.51 2.184-2.407a9.647 9.647 0 0 0 1.396-3.081c.159-.63.253-1.274.28-1.923a7.576 7.576 0 0 0-.203-2.174Z"/><path fill="url(#d)" d="M29.606 45.991a6.616 6.616 0 0 1-.857-1.8c-.576-1.72-.761-3.525-1.515-5.168a13.189 13.189 0 0 0-2.434-3.395c-.26.336-.498.689-.713 1.055a6.154 6.154 0 0 0-.488 1.052 5.273 5.273 0 0 0-.162.631 4.436 4.436 0 0 0-.022 1.525c.05.314.13.623.236.922.139.385.315.756.525 1.107l.092.152a8.901 8.901 0 0 0 1.574 1.886c.343.317.705.614 1.082.89.255.18.514.368.78.52.369.22.72.428 1.09.62.502.258 1.292.616 1.798.819a2.25 2.25 0 0 1-.986-.816Z"/><path fill="url(#e)" d="M40.883 29.486a63.268 63.268 0 0 0-1.326-1.162c-.68-.58-2.216-1.816-2.497-2.048l-.048-.037-2.146-1.735a3.348 3.348 0 0 1-.166-.137c-.1-.08-.95-.767-1.186-.966l-.573-.48-.547-.454c-.199-.162-.369-.321-.561-.491-.27-.236-.802-.738-1.245-1.13-.17-.158-.37-.368-.54-.512a18.17 18.17 0 0 1-.705-.709c-.229-.244-.391-.406-.554-.583-.229-.247-.447-.49-.643-.72l-.221-.258c.13.21.399.598.535.79.37.546.3.432.669.985.251.37.676 1.056.909 1.447.03.049.057.1.081.151.143.268.267.545.37.83.049.131.08.268.092.407V46.802l1.629-1.92c.233-.276.764-.952 1.267-1.597.502-.646.953-1.237 1.108-1.425l.927-1.321c.392-.55.111-.166.318-.447.089-.125.137-.166.694-1.018l.259-.403c.048-.085.513-.837.554-.904.096-.151.177-.291.255-.424.225-.392.37-.705.561-1.034a29.839 29.839 0 0 0 2.427-5.654c.185-.605.277-1 .314-1.166l-.01-.004Z"/><path fill="url(#f)" d="M24.795 35.61c.287-.374.597-.73.927-1.067.424-.425.687-.698.864-.878-1.477-1.163-3.528-2.034-3.07-4.204.41-1.945 3.092-1.613 4.127-3.03.498-.68.683-1.513 1.023-2.27a2.355 2.355 0 0 1 1.917-1.476 1.517 1.517 0 0 0-.092-.41 5.936 5.936 0 0 0-.37-.826 1.242 1.242 0 0 0-.081-.155 49.86 49.86 0 0 0-.909-1.447c-.37-.554-.288-.44-.668-.982a21.399 21.399 0 0 1-.536-.793.71.71 0 0 1-.067-.081 6.826 6.826 0 0 1-.653-1.108l-.096-.232-1.197.886c-.946.694-1.899 1.38-2.819 2.107-.605.476-1.2.97-1.769 1.476a16.452 16.452 0 0 0-1.577 1.624c-.913 1.107-1.633 2.347-1.736 3.765a4.81 4.81 0 0 0 0 .693c.013.248.045.495.096.738a5.8 5.8 0 0 0 1.086 2.362 13.54 13.54 0 0 0 2.031 2.086l.37.328c.868.738 1.75 1.476 2.585 2.288.237.222.462.454.687.69l-.07-.077-.003-.008Z"/><defs><radialGradient id="a" cx="0" cy="0" r="1" gradientTransform="matrix(7.45066 0 0 7.44396 30.502 20.183)" gradientUnits="userSpaceOnUse"><stop stop-color="#2D3350"/><stop offset="1" stop-color="#B5C1D2" stop-opacity=".98"/></radialGradient><radialGradient id="b" cx="0" cy="0" r="1" gradientTransform="matrix(8.89499 0 0 8.88698 35.5 19.176)" gradientUnits="userSpaceOnUse"><stop stop-color="#4D526A"/><stop offset="1" stop-color="#2E3350"/></radialGradient><radialGradient id="c" cx="0" cy="0" r="1" gradientTransform="matrix(15.2781 0 0 15.2644 43.711 31.834)" gradientUnits="userSpaceOnUse"><stop stop-color="#B5C1D2"/><stop offset="1" stop-color="#2D3350"/></radialGradient><radialGradient id="d" cx="0" cy="0" r="1" gradientTransform="matrix(9.981 0 0 9.97202 24.272 37.95)" gradientUnits="userSpaceOnUse"><stop stop-color="#B5C1D2" stop-opacity=".98"/><stop offset="1" stop-color="#2D3350"/></radialGradient><radialGradient id="e" cx="0" cy="0" r="1" gradientTransform="matrix(17.6348 0 0 17.619 37.082 26.02)" gradientUnits="userSpaceOnUse"><stop stop-color="#B5C1D2"/><stop offset="1" stop-color="#2D3350" stop-opacity=".98"/></radialGradient><radialGradient id="f" cx="0" cy="0" r="1" gradientTransform="matrix(20.3831 0 0 20.3648 21.828 22.622)" gradientUnits="userSpaceOnUse"><stop stop-color="#4D526A"/><stop offset="1" stop-color="#2E3350"/></radialGradient></defs></svg>