<svg version="1.2" xmlns="http://www.w3.org/2000/svg" viewBox="0 0 284 200" width="176" height="64">
	<title>TK-Logo-RGB-Darkblue-svg</title>
	<style>
		.s0 { fill: #0a1432 } 
	</style>
	<path id="Layer" class="s0" d="m10.5 115.5h16.5v40.2l21.6-21.8h21.2l-26.6 26.8 28 37h-19.8l-19.5-25.6-4.9 5.1v20.5h-16.5z"/>
	<path id="Layer" fill-rule="evenodd" class="s0" d="m104.6 131.9c19.8 0 33.2 15 33.2 34 0 19.1-13.4 33.8-33.2 33.8-19.9 0-33.4-14.8-33.4-33.8 0-19 13.5-34 33.4-34zm0 52c9.7 0 16.8-7.6 16.8-18 0-10.4-7.1-18.2-16.8-18.2-9.8 0-17 7.8-17 18.2 0 10.4 7.1 18 17 18z"/>
	<path id="Layer" class="s0" d="m148.4 115.5h16.4v40.2l21.7-21.8h21.2l-26.6 26.8 28 37h-19.8l-19.5-25.6-5 5.1v20.5h-16.4z"/>
	<path id="Layer" fill-rule="evenodd" class="s0" d="m242.6 131.9c19.9 0 33.3 15 33.3 34 0 19.1-13.4 33.8-33.3 33.8-19.8 0-33.3-14.8-33.3-33.8 0-19 13.5-34 33.3-34zm0 52c9.8 0 16.8-7.6 16.8-18 0-10.4-7.1-18.2-16.8-18.2-9.7 0-16.9 7.8-16.9 18.2 0 10.4 7.1 18 16.9 18z"/>
	<path id="Layer" class="s0" d="m0 29.6l10.5-0.1v-18.3h16.4v18.4h27.4v14.1h-27.4v27.6c0 6.1 3.5 9.2 8.8 9.2 5.7 0 9.2-4.3 8.6-12.3l15.6 1.5c0.8 15.8-9.7 25.6-23.5 25.6-16.3 0-25.9-9.4-25.9-24.6v-27h-10.5z"/>
	<path id="Layer" class="s0" d="m79 0c5.7 0 10.3 4.7 10.3 10.2 0 5.6-4.6 10.3-10.3 10.3-5.6 0-10.1-4.6-10.1-10.3 0-5.6 4.6-10.2 10.1-10.2zm-8 29.6l16.4-0.1v63.9h-16.4z"/>
	<path id="Layer" class="s0" d="m101.8 29.6l15.7-0.1v6.9c3.5-5.5 8.7-8.9 15.5-8.9 8.5 0 14.4 3.6 17.1 10.8 3.4-6.7 9.3-10.8 17.5-10.8 12.1 0 18.9 7.2 18.9 21.8l0.3 44.1h-15.9v-40.3c0-7.8-2.9-10.9-8.6-10.9-6.3 0-10.4 4.8-10.4 15.6l0.3 35.6h-15.4v-40.3c0-7.8-3-10.9-8.8-10.9-6.3 0-10.5 4.8-10.5 15.3v35.9h-15.7v-63.9z"/>
	<path id="Layer" fill-rule="evenodd" class="s0" d="m226.6 41c-2-3.7-3-7.4-3-11.9 0-11 8.1-18.9 19.1-18.9 10.4 0 18.1 7.8 18.1 18.9 0 8.2-5.1 14.8-13.3 18.7l14.8 18.9c0.4-1.7 0.6-3.3 0.6-5.2 0-3.5-0.7-7.2-2.2-11.1l13.2-3.7c1.2 5.1 1.9 9.7 1.9 14.2 0 6.7-1.5 12.7-4.1 17.7l11.8 15h-16.7l-3.8-4.9c-5.7 4.3-13 6.7-21.5 6.7-20.2 0-32.7-11.5-32.7-29.9 0-11.7 6.6-19.9 17.8-24.5zm14.9 40.7c5.2 0 9.6-1.3 13.2-3.6l-20.7-26.4c-7.3 2.6-10.9 7.3-10.9 13.9 0 9.1 6.1 16.1 18.4 16.1zm-2.1-44.3c5.4-1.9 9.1-4.7 9.1-8.5 0-4.2-2.6-6.4-6.1-6.4-3.4 0-6.6 2.3-6.6 6.4 0 3.6 1.3 5.5 3.5 8.5z"/>
</svg>