<svg xmlns="http://www.w3.org/2000/svg" width="176" height="65" fill="none" viewBox="0 0 176 65"><g clip-path="url(#a)"><path fill="#0A1133" d="M44.032 17.03c-.951 0-1.867.378-2.539 1.049l-5.442 5.428A3.58 3.58 0 0 0 35 26.039V49l97.693-.057c.951 0 1.867-.378 2.538-1.05l5.381-5.367a3.581 3.581 0 0 0 1.051-2.532l.004-22.965H44.032Z"/><path fill="#DFEFF2" d="m35 28.37.01 20.622 36.443-.022s4.051.185 7.201-.51c5.789-1.276 9.236-3.723 13.545-8.02C99.469 33.187 115.748 17 115.748 17l-35.642.004-24.553 24.39s-1.57 1.75-3.69 1.751c-1.587.001-2.494-.639-3.677-1.73C47.84 41.097 35 28.38 35 28.372Z" opacity=".2"/><path fill="#DFEFF2" d="m50.463 40.775-7.37-15.35h3.322s5.267 10.988 5.396 11.544h.064c.133-.556 5.396-11.545 5.396-11.545h3.354l-7.37 15.35h-2.792ZM74.898 34.277H62.963c.429 2.492 2.267 4.066 4.637 4.066 1.942 0 3.221-.756 3.879-2.165h3.089c-.922 2.918-3.582 4.918-6.972 4.918-4.473 0-7.76-3.245-7.76-8.003 0-4.723 3.222-8.004 7.76-8.004 4.044 0 7.365 3.445 7.365 8.004.002.46.002.724-.063 1.184Zm-11.903-2.494h8.846c-.197-2.1-1.906-3.934-4.241-3.934-2.37-.003-4.147 1.541-4.605 3.934ZM91.272 34.277H79.335c.43 2.492 2.268 4.066 4.637 4.066 1.942 0 3.222-.756 3.88-2.165h3.089c-.923 2.918-3.583 4.918-6.973 4.918-4.473 0-7.76-3.245-7.76-8.003 0-4.723 3.222-8.004 7.76-8.004 4.045 0 7.365 3.445 7.365 8.004.002.46.002.724-.061 1.184Zm-11.904-2.494h8.846c-.196-2.1-1.905-3.934-4.24-3.934-2.371-.003-4.145 1.541-4.606 3.934ZM108.009 33.096v7.676h-2.663l-.265-2.394c-1.184 1.773-3.254 2.722-5.131 2.722-4.21 0-7.399-3.346-7.399-8.004 0-4.59 3.418-8.004 7.792-8.004 4.015 0 7.666 2.886 7.666 8.004Zm-3.029 0c0-3.377-2.235-5.246-4.637-5.246-2.632 0-4.767 2.1-4.767 5.246 0 3.15 1.974 5.246 4.767 5.246 2.37 0 4.637-1.969 4.637-5.246ZM110.047 40.77v-9.083c0-3.837 2.467-6.59 6.315-6.59 3.089 0 4.734 2.065 4.967 2.788h.064c.228-.721 1.873-2.789 4.967-2.789 3.847 0 6.315 2.754 6.315 6.591v9.084h-3.026v-8.855c0-2.493-1.118-4.001-3.385-4.001-2.271 0-3.387 1.508-3.387 4.066v8.823h-3.025v-8.823c0-2.558-1.118-4.066-3.386-4.066-2.267 0-3.386 1.508-3.386 4v8.856h-3.033Z"/></g><defs><clipPath id="a"><path fill="white" d="M35 17h106.667v32H35z"/></clipPath></defs></svg>