<svg xmlns="http://www.w3.org/2000/svg" width="176" height="64" fill="none" viewBox="0 0 176 64"><path fill="#0A1133" d="M37.183 34.957c.002.006.006.01.012.014a.032.032 0 0 0 .034.001.03.03 0 0 0 .012-.013 725.061 725.061 0 0 1 3.151-7.41c.493-1.14.88-1.903 1.164-2.29 2.314-3.153 6.89-2.84 9.315.005a.074.074 0 0 0 .08.02.073.073 0 0 0 .024-.014c1.388-1.253 3.175-2.2 5.06-2.258 2.099-.066 3.981.601 5.315 2.28a.032.032 0 0 0 .01.009.033.033 0 0 0 .027.002.036.036 0 0 0 .012-.007c1.834-1.801 4.571-2.743 7.117-2.087 2.137.551 3.789 2.088 4.327 4.257.121.488.182 1.218.182 2.19.001 4.62 0 7.599-.007 8.934-.017 3.645-5.141 3.699-5.143-.166 0-2.786-.002-5.572-.004-8.357-.002-2.971-4.137-3.528-5.099-1.028-.136.355-.205 1.053-.206 2.095-.001 2.496-.004 4.993-.007 7.49-.006 3.51-5.052 3.629-5.133.074-.027-1.166-.03-3.725-.008-7.677.005-.887-.055-1.519-.181-1.895-.764-2.273-4.18-2.175-4.958.03-.116.33-.174.862-.175 1.598 0 2.528-.003 5.055-.006 7.582-.003 1.42-.614 2.712-2.12 2.94-1.347.207-2.54-.49-2.898-1.818-.078-.282-.117-.793-.119-1.533-.01-3.111-.01-6.223-.005-9.336.003-1.204-1-1.563-1.54-.388l-4.497 9.792c-.83 1.805-1.664 3.463-4.007 3.294-1.762-.126-2.615-1.528-3.275-2.967a9592.708 9592.708 0 0 0-5.01-10.913c-.382-.83-.588-1.439-.62-1.824-.178-2.241 2.708-3.436 4.213-1.855.252.265.537.77.852 1.515 1.37 3.236 2.741 6.474 4.11 9.714Zm83.254-7.506c0 .004.002.008.005.01a.016.016 0 0 0 .01.007.02.02 0 0 0 .012-.001.018.018 0 0 0 .009-.008c1.074-2.168 3.119-3.81 5.575-4.082 1.422-.158 2.252 1.434 1.159 2.33-.49.405-1.444.404-2.093.623-3.762 1.273-4.665 4.629-4.68 8.22a830.59 830.59 0 0 0-.005 5.235c.004 1.479-2.041 1.833-2.506.507-.067-.191-.101-.533-.101-1.026 0-4.765 0-9.53.002-14.293 0-.41.046-.713.137-.91.491-1.061 2.042-.917 2.392.178.053.167.079.448.076.843-.004.789-.001 1.578.008 2.367Zm9.636 11.476c-2.526-2.475-3.17-6.292-2.195-9.591 1.308-4.426 5.625-6.982 10.134-5.658 3.463 1.015 5.403 4.55 5.481 8 .025 1.095-.358 1.575-1.448 1.575-3.97-.004-7.94-.003-11.909.005a.062.062 0 0 0-.024.005.054.054 0 0 0-.019.014.044.044 0 0 0-.012.02c-.003.008-.004.016-.003.024.268 3.05 2.358 5.419 5.41 5.668 2.217.18 3.843-.605 5.474-2.005.534-.459 1.282-.244 1.631.323.434.705-.069 1.274-.632 1.754-2.512 2.147-5.398 2.752-8.658 1.817-1.17-.336-2.247-.986-3.23-1.95Zm3.397-12.946c-2.03.932-3.204 3.121-3.404 5.278a.06.06 0 0 0 .002.023.074.074 0 0 0 .012.02c.005.006.012.01.019.014a.056.056 0 0 0 .023.005h10.738a.056.056 0 0 0 .043-.018.057.057 0 0 0 .013-.021.06.06 0 0 0 .002-.023c-.127-1.908-.973-3.89-2.591-4.938-1.433-.929-3.312-1.05-4.857-.34Zm14.53-.488a2.158 2.158 0 1 1-4.316.001 2.158 2.158 0 0 1 4.316-.001Zm-.449-.003a1.715 1.715 0 1 0-3.43 0 1.715 1.715 0 0 0 3.43 0ZM92.534 36.945a.023.023 0 0 0 .044 0l4.283-12.266c.159-.455.314-.765.467-.93.533-.576 1.492-.465 1.941.137.343.46.253.892.054 1.443-1.777 4.948-3.56 9.893-5.35 14.835-.373 1.033-1.785 1.344-2.504.496-.14-.165-.295-.492-.466-.982-1.386-3.984-2.77-7.971-4.154-11.962a.05.05 0 0 0-.046-.033.047.047 0 0 0-.045.032 6449.05 6449.05 0 0 1-4.286 12.237c-.387 1.102-1.613 1.69-2.501.779-.18-.185-.37-.56-.574-1.124-1.707-4.728-3.404-9.46-5.09-14.195-.143-.4-.198-.72-.168-.96.103-.805.887-1.227 1.633-1.033.582.153.812.582 1.017 1.17 1.427 4.105 2.848 8.215 4.262 12.329a.035.035 0 0 0 .067 0c1.465-4.252 2.939-8.498 4.422-12.738.205-.586.83-.865 1.434-.801 1.05.112 1.18.84 1.533 1.863 1.345 3.9 2.687 7.8 4.027 11.703Zm19.71 1.522a.034.034 0 0 0-.006-.024.04.04 0 0 0-.042-.018.04.04 0 0 0-.02.012c-1.915 2.212-4.357 3.135-7.323 2.768-2.878-.356-5.246-2.203-5.326-5.273-.097-3.724 2.993-5.415 6.299-5.648a18.362 18.362 0 0 1 6.305.643.053.053 0 0 0 .023 0 .058.058 0 0 0 .022-.008.06.06 0 0 0 .016-.017.044.044 0 0 0 .007-.022c.5-5.448-5.222-5.983-8.872-4.531-.37.147-.655.213-.855.2-.816-.056-1.348-1.148-.827-1.799.139-.172.398-.339.777-.5 2.069-.876 4.529-1.059 6.71-.747 3.63.517 5.554 3.044 5.579 6.602.022 3.205.028 6.41.017 9.615-.007 1.965-2.534 1.834-2.512.174.007-.532-.013-.958.028-1.427Zm-9.419-.786c1.599 1.975 4.883 1.83 6.872.755 2.362-1.276 2.65-2.982 2.541-5.478a.096.096 0 0 0-.019-.052.09.09 0 0 0-.047-.03c-2.501-.703-8.573-1.712-9.812 1.68-.428 1.172-.273 2.214.465 3.125Z"/><path fill="#0A1133" d="M145.484 25.969c.052.219.034.656-.329.52a.21.21 0 0 1-.135-.196l-.002-1.658a.227.227 0 0 1 .217-.229c.506-.023 1.357-.16 1.502.545.065.312-.026.562-.272.749a.089.089 0 0 0-.034.055.09.09 0 0 0 .014.062l.283.415c.013.018.02.04.02.063a.12.12 0 0 1-.018.064c-.428.646-.684-.754-1.204-.483a.08.08 0 0 0-.037.04.077.077 0 0 0-.005.053Zm.763-.79c.033-.419-.418-.325-.671-.329a.074.074 0 0 0-.053.023.073.073 0 0 0-.023.053v.38a.099.099 0 0 0 .03.07c.009.009.02.016.033.02a.096.096 0 0 0 .038.007l.427-.015a.224.224 0 0 0 .149-.062.231.231 0 0 0 .07-.146Z"/></svg>