<svg xmlns="http://www.w3.org/2000/svg" width="176" height="65" fill="none" viewBox="0 0 176 65"><path fill="#0A1133" d="M42.008 44.056 26 34.698v-4.01l15.91-9.41-.06 4.168-12.472 7.32 12.647 7.18-.017 4.11Z"/><path fill="#0A1133" d="M61.678 20.762v3.788s-3.978-2.959-8.794-2.959c-5.21-.005-11.032 3.853-11.032 3.853v-4.159C45.879 19.107 49.452 18 52.928 18c4.247 0 8.75 2.762 8.75 2.762Z"/><path fill="#0A1133" d="M53.017 42.419c1.92 0 3.797-.576 5.393-1.655a9.795 9.795 0 0 0 3.576-4.407 9.92 9.92 0 0 0-.897-9.213 9.747 9.747 0 0 0-3.496-3.204 9.62 9.62 0 0 0-4.576-1.16c-5.375 0-9.733 4.397-9.733 9.819a9.928 9.928 0 0 0 .745 3.762 9.838 9.838 0 0 0 2.11 3.187 9.712 9.712 0 0 0 3.157 2.127 9.624 9.624 0 0 0 3.721.744ZM64.02 21.632l16.008 9.358V35l-15.91 9.41.059-4.168 12.473-7.32-12.647-7.18.017-4.11Z"/><path fill="#0A1133" d="M44.348 44.954v-3.789s3.978 2.964 8.794 2.964c5.21 0 11.032-3.86 11.032-3.86v4.16c-4.026 2.18-7.6 3.286-11.076 3.286-4.246 0-8.75-2.761-8.75-2.761ZM86.769 25.113h4.321l3.84 11.251 3.862-11.251h4.125L96.905 40.67h-4.169L86.77 25.113Zm25.57 3.488c-.928-.31-1.708-.466-2.34-.467-.497 0-.887.092-1.17.277a.9.9 0 0 0-.427.81 1.126 1.126 0 0 0 .372.855c.27.242.583.43.922.554.366.141.907.323 1.623.545.901.251 1.784.562 2.644.932a4.619 4.619 0 0 1 1.788 1.425c.498.643.746 1.483.746 2.52 0 1.036-.27 1.92-.811 2.65-.541.734-1.284 1.285-2.227 1.654a8.562 8.562 0 0 1-3.149.555 11.283 11.283 0 0 1-3.803-.677 10.396 10.396 0 0 1-3.279-1.853l1.56-3.173a9.671 9.671 0 0 0 2.754 1.708c1.06.444 1.999.666 2.819.666.599 0 1.071-.111 1.415-.333a1.086 1.086 0 0 0 .516-.976 1.158 1.158 0 0 0-.384-.888 2.81 2.81 0 0 0-.966-.566c-.39-.14-.935-.307-1.634-.499-.89-.239-1.762-.54-2.611-.9a4.623 4.623 0 0 1-1.767-1.38c-.489-.614-.734-1.431-.734-2.452a4.314 4.314 0 0 1 .757-2.53c.504-.723 1.219-1.282 2.145-1.677.927-.394 2.005-.592 3.237-.592 1.113 0 2.222.161 3.291.478 1.006.284 1.967.714 2.852 1.276l-1.514 3.24a13.42 13.42 0 0 0-2.625-1.183Zm6.203-3.488h4.015v6.348h6.21v-6.348h4.012V40.67h-4.014V34.7h-6.21v5.97h-4.013V25.113Zm27.728 0H150V40.67h-3.51l-6.977-9.299v9.3h-3.752V25.112h3.532l7 9.37-.023-9.37Z"/></svg>