<svg width="1696" height="172" viewBox="0 0 1696 172" fill="none" xmlns="http://www.w3.org/2000/svg">
<path d="M288.173 96.4369H277.507V107.151H288.173V117.864H298.838V107.151H288.173V96.4369H298.838V85.7232H288.173V96.4369Z" fill="#DFEFF2"/>
<path d="M53.538 75.0095H42.8724V85.7232H53.538V75.0095Z" fill="#DFEFF2"/>
<path d="M10.6657 118.335H0V129.049H10.6657V118.335Z" fill="#DFEFF2"/>
<path d="M53.538 96.4369H32.2067V107.151H53.538V96.4369Z" fill="#DFEFF2"/>
<path d="M128.198 75.0095H117.532V85.7232H128.198V75.0095Z" fill="#DFEFF2"/>
<path d="M149.519 161.21H138.853V171.923H149.519V161.21Z" fill="#DFEFF2"/>
<path d="M192.671 107.151H182.005V117.864H192.671V107.151Z" fill="#DFEFF2"/>
<path d="M10.9852 -1.08594H0V10.7372H10.9852V-1.08594Z" fill="#DFEFF2"/>
<path d="M1696 21.541V-0.995822H1077.4V10.7972L1066.74 10.8173V21.5109H1056.07V10.8173L1066.74 10.7972V-1.00584L21.541 -1.08594V10.7372H10.9852V21.611H0V42.8582H10.8654V53.5719H21.541V64.2957H0V96.4369H10.6657V75.0195H42.8724V53.5819H53.528V42.8582H64.2037V53.5719H53.538V64.2957H64.2037V85.7232H53.538V96.4369H74.8694V75.0195H85.525V85.7232H96.1907V96.4369H106.856V75.0195H117.522V64.3058H96.1907V75.0095H85.525V64.3058H96.1907V42.8582H106.856V53.5719H117.532V64.2957H128.188V53.5819H138.853V75.0195H149.519V85.7232H170.85V64.3058H160.185V75.0095H149.519V64.2957H160.185V42.8582H170.85V64.2957H181.516V75.0195H192.182V85.7232H202.847V64.3058H192.182V53.5819H181.516V42.8582H192.182V32.1545H202.847V42.8582H192.182V53.5719H202.847V64.2957H224.179V53.5819H234.844V64.2957H224.179V75.0095H213.513V85.7232H224.179V75.0195H245.51V85.7232H256.176V96.4369H266.841V75.0195H277.507V85.7232H288.173V64.3058H277.507V42.8582H288.173V64.2957H298.838V75.0095H320.17V85.7131H330.835V74.9994H320.17V53.5719H330.835V42.8582H341.501V53.5719H330.835V64.2857H341.501V85.7131H330.835V96.4369H352.167V75.0095H362.832V85.7131H373.498V96.4369H384.164V75.0095H394.819V85.7131H405.485V74.9994H394.829V64.2957H373.498V74.9994H362.832V64.2957H373.498V42.8582H384.164V53.5719H394.819V64.2857H405.485V53.5719H416.161V75.0095H426.816V64.2857H437.482V42.8582H426.816V32.1445H437.482V42.8582H448.148V64.2857H458.813V75.0095H469.479V85.7131H480.145V64.2957H469.479V53.5719H458.813V42.8582H469.479V32.1445H480.145V42.8582H469.479V53.5719H480.145V64.2857H501.476V53.5719H512.142V64.2857H501.476V74.9994H490.81V85.7131H501.476V75.0095H522.807V85.7131H533.473V96.4369H544.138V75.0095H554.804V85.7131H565.47V64.2957H554.804V42.8582H565.47V32.1445H576.135V42.8582H565.47V64.2857H576.135V75.0896H597.467V53.662H608.132V42.9383H618.798V53.652H608.132V64.3759H618.798V85.8033H608.132V96.517H629.464V75.0896H640.129V64.3759H650.795V42.9383H661.461V53.652H672.126V64.3759H682.792V53.662H693.458V75.0896H704.123V64.3759H714.789V42.9383H725.455V64.3759H736.11V75.0896H746.776V85.8033H757.452V64.3759H746.786V53.662H736.11V42.9383H746.776V32.2246H757.452V42.9383H746.786V53.652H757.452V64.3759H778.773V53.662H789.439L789.449 53.652L789.439 64.3759H778.773V75.0896H800.114V53.662H810.77L810.78 42.9383H821.436V53.652H810.78V64.3759H821.436V75.0896H832.101V85.8033H842.767V64.3759H832.101V42.9383H842.767V64.3759H853.433V75.0896H874.764V53.662H885.43V42.9383H896.095V53.652H885.43V64.3759H896.095V85.8033H885.43V96.517H906.761V75.0896H917.427V64.3759H928.092V42.9383H938.758V53.652H949.424V64.3759H960.089V53.662H970.745L970.755 53.652V75.0896H981.421V64.3759H992.086V42.9383H981.421V32.2246H992.086V42.9383H1002.74V64.3759H1013.41V75.0896H1024.07V85.8033H1034.74V64.3759H1024.08V53.662L1013.41 53.652V42.9383H1024.07V32.2246H1034.74V42.9383H1024.08V53.652H1034.75V64.3759H1056.07V53.662H1066.74V64.3759H1056.07V75.0896H1077.4V53.662H1088.07L1088.08 42.9383H1098.73V53.652H1088.08V64.3759H1098.73V75.0896H1109.4V85.8033H1120.06V64.3759H1109.4V42.9383H1120.06V64.3759H1130.73V53.662H1141.4V64.3759H1130.73V75.0896H1152.06V75.0195H1173.39V85.7232H1184.06V75.0095H1173.39V53.5819H1184.06V42.8582H1194.72V53.5719H1184.06V64.2957H1194.72V85.7232H1184.06V96.4369H1205.39V75.0195H1216.06V85.7232H1226.72V96.4369H1237.39V75.0195H1248.05V85.7232H1258.72V75.0095H1248.05V64.3058H1226.72V75.0095H1216.06V64.3058H1226.72V42.8582H1237.39V53.5719H1248.05V64.2957H1258.72V53.5819H1269.38V75.0195H1280.05V85.7232H1301.38V64.3058H1290.71V75.0095H1280.05V64.3058H1290.71V42.8582H1301.38V64.2957H1312.05V75.0195H1322.71V85.7232H1333.38V64.3058H1322.71V53.5819H1312.05V42.8582H1322.71V53.5719H1333.38V64.2957H1354.71V53.5819H1365.37V64.2957H1354.71V75.0095H1344.04V85.7232H1354.71V75.0195H1376.04V85.7232H1386.7V96.4369H1397.36V75.0095H1376.04V53.5819H1386.7L1386.71 42.8582H1397.36V53.5719H1386.71V64.2957H1397.37V75.0195H1408.03V85.7232H1418.69V64.3058H1408.03V42.8582H1418.69V64.2957H1429.36V75.0996H1450.69V85.8033H1461.36V75.0896H1450.7V53.6721H1461.36V42.9483H1472.02V53.6721H1461.36V64.3859H1472.02V85.8033H1472.03H1461.36V96.517H1482.7V75.0896H1493.36V85.7932H1504.02V96.517H1514.68V75.0896H1525.35V85.7932H1536.02V75.0795H1525.35V64.3759H1504.02V75.0795H1493.36V64.3759H1504.02V42.9383H1514.68V53.652H1525.35V64.3759H1536.02V53.662H1546.68V75.0896H1557.35V85.7932H1578.68V64.3759H1568.01V75.0795H1557.35V64.3759H1568.01V42.9383H1578.68V64.3759H1589.34V75.0896H1600.01V85.7932H1610.67V64.3759H1600.01V53.662H1589.34V42.9383H1600.01V53.652H1610.67V64.3759H1632.01V53.662H1642.67V64.3759H1632.01V75.0795H1621.34V85.7932H1632.01V75.0896H1653.34V85.7932H1664V96.517H1674.67V75.0896H1685.33V85.7932H1696V64.3759H1685.33V42.9383H1696V32.2246H1685.33V21.5309H1696V21.541ZM53.538 32.1445H42.8724V21.4508H53.538V32.1445ZM85.525 53.5719H74.8694V32.1545H85.525V53.5719ZM128.188 32.1445H117.532V21.4508H128.188V32.1445ZM234.844 21.4308H224.179V10.7372H234.844V21.4308ZM266.841 53.5719H256.176V64.2957H266.841V75.0095H245.51V53.5819H256.176V42.8582H266.841V53.5719ZM362.832 53.5719H352.167V32.1445H362.832V53.5719ZM384.164 21.4308H373.498V10.7271H384.164V21.4308ZM501.476 21.4308V10.7271H512.142V21.4308H501.476ZM512.142 42.8582V32.1445H522.807V42.8582H512.142ZM544.138 53.5719H533.473V64.2857H544.138V74.9994H522.807V53.5719H533.473V42.8582H544.138V53.5719ZM640.129 53.652H629.464V32.2246H640.129V53.652ZM661.461 21.5109H650.795V10.8173H661.461V21.5109ZM789.439 21.5109H778.773V10.8173L789.439 10.7972V21.5109ZM800.104 42.9383H789.449V32.2246H800.104V42.9383ZM842.767 32.2246H832.101V21.5309H842.767V32.2246ZM917.427 53.652H906.761V32.2246H917.427V53.652ZM938.758 21.5109H928.092V10.8173H938.758V21.5109ZM1141.4 21.5109H1130.73V10.8173H1141.4V21.5109ZM1216.06 53.5719H1205.39V32.1545H1216.06V53.5719ZM1237.39 21.4308H1226.72V10.7372H1237.39V21.4308ZM1365.37 21.4308H1354.71V10.7372H1365.37V21.4308ZM1418.69 32.1445H1408.04V21.4508H1418.69V32.1445ZM1429.36 42.8582H1418.7V32.1545H1429.36V42.8582ZM1493.36 53.662H1482.7V32.2346H1493.36V53.662ZM1514.68 21.5209H1504.02V10.8273H1514.68V21.5209ZM1642.67 21.5209H1632.01V10.8273H1642.67V21.5209ZM1674.67 53.6721H1664V64.3859H1674.67V75.0896H1653.34V53.6721H1664V42.9483H1674.67V53.6721Z" fill="#DFEFF2"/>
<path d="M181.516 85.7232H170.85V96.4369H181.516V85.7232Z" fill="#DFEFF2"/>
<path d="M160.185 117.854V128.568H149.519V117.864H128.188V107.151H118.491V96.4369H128.188V85.7232H149.519V117.854H160.185Z" fill="#DFEFF2"/>
<path d="M83.1083 107.151H72.4426V117.864H83.1083V107.151Z" fill="#DFEFF2"/>
<path d="M245.51 107.151H234.844V117.864H245.51V107.151Z" fill="#DFEFF2"/>
<path d="M256.176 96.4369H245.51V107.151H256.176V96.4369Z" fill="#DFEFF2"/>
<path d="M266.841 117.854H256.176V128.568H266.841V117.854Z" fill="#DFEFF2"/>
<path d="M234.844 128.578H224.179V139.292H234.844V128.578Z" fill="#DFEFF2"/>
<path d="M202.847 107.151H213.513V85.7232H202.847V107.151Z" fill="#DFEFF2"/>
<path d="M105.408 128.578H94.7426V139.292H105.408V128.578Z" fill="#DFEFF2"/>
<path d="M725.455 64.3759V85.8033H704.123V75.0896H714.789V64.3759H725.455Z" fill="#DFEFF2"/>
<path d="M704.123 161.29H693.458V172.004H704.123V161.29Z" fill="#DFEFF2"/>
<path d="M747.265 107.231H736.6V117.944H747.265V107.231Z" fill="#DFEFF2"/>
<path d="M736.12 85.8033H725.455V96.517H736.12V85.8033Z" fill="#DFEFF2"/>
<path d="M757.452 107.231H768.117V85.8033H757.452V107.231Z" fill="#DFEFF2"/>
<path d="M789.439 128.658H778.773V139.372H789.439V128.658Z" fill="#DFEFF2"/>
<path d="M778.773 75.0896H768.117V85.8033H778.773V75.0896Z" fill="#DFEFF2"/>
<path d="M637.703 107.231H627.037V117.944H637.703V107.231Z" fill="#DFEFF2"/>
<path d="M608.132 96.517H586.801V107.231H608.132V96.517Z" fill="#DFEFF2"/>
<path d="M821.436 75.0896V96.517H810.77V85.8033H800.114V75.0896H821.436Z" fill="#DFEFF2"/>
<path d="M608.132 75.0896H597.467V85.8033H608.132V75.0896Z" fill="#DFEFF2"/>
<path d="M672.126 64.3759V75.0896H661.461V96.517H650.795V85.8033H640.129V75.0896H650.795V64.3759H672.126Z" fill="#DFEFF2"/>
<path d="M682.792 75.0896H672.126V85.8033H682.792V75.0896Z" fill="#DFEFF2"/>
<path d="M704.123 117.934V85.8033H682.792V96.517H672.146V107.231H682.792V117.944H704.123V128.648H714.789V117.934H704.123ZM693.458 107.231H682.792V96.517H693.458V107.231Z" fill="#DFEFF2"/>
<path d="M660.013 128.658H649.347V139.372H660.013V128.658Z" fill="#DFEFF2"/>
<path d="M821.446 117.934H810.78V128.648H821.446V117.934Z" fill="#DFEFF2"/>
<path d="M810.77 96.517V107.231H800.114V117.944H789.449V107.231H800.104V96.517H810.77Z" fill="#DFEFF2"/>
<path d="M842.767 96.517H832.101V107.231H842.767V117.944H853.433V107.231H842.767V96.517H853.433V85.8033H842.767V96.517Z" fill="#DFEFF2"/>
<path d="M1696 96.527H1685.33V107.241H1696V96.527Z" fill="#DFEFF2"/>
<path d="M1568.01 117.944V128.658H1557.35V117.954H1536.02V107.241H1526.32V96.527H1536.02V85.8133H1557.35V117.944H1568.01Z" fill="#DFEFF2"/>
<path d="M1557.35 161.29H1546.68V172.004H1557.35V161.29Z" fill="#DFEFF2"/>
<path d="M1600.49 107.241H1589.82V117.954H1600.49V107.241Z" fill="#DFEFF2"/>
<path d="M1610.67 107.241H1621.34V85.8133H1610.67V107.241Z" fill="#DFEFF2"/>
<path d="M1589.34 85.8133H1578.68V96.527H1589.34V85.8133Z" fill="#DFEFF2"/>
<path d="M1674.67 117.944H1664V128.658H1674.67V117.944Z" fill="#DFEFF2"/>
<path d="M1653.34 107.241H1642.67V117.954H1653.34V107.241Z" fill="#DFEFF2"/>
<path d="M1664 96.527H1653.34V107.241H1664V96.527Z" fill="#DFEFF2"/>
<path d="M1642.67 128.668H1632.01V139.382H1642.67V128.668Z" fill="#DFEFF2"/>
<path d="M1513.24 128.668H1502.57V139.382H1513.24V128.668Z" fill="#DFEFF2"/>
<path d="M1490.94 107.241H1480.27V117.954H1490.94V107.241Z" fill="#DFEFF2"/>
<path d="M1461.36 96.527H1440.03V107.241H1461.36V96.527Z" fill="#DFEFF2"/>
<path d="M330.835 96.4369H309.504V107.151H330.835V96.4369Z" fill="#DFEFF2"/>
<path d="M360.406 107.141H349.74V117.854H360.406V107.141Z" fill="#DFEFF2"/>
<path d="M480.155 107.151H490.82V85.7232H480.155V107.151Z" fill="#DFEFF2"/>
<path d="M512.142 128.568H501.476V139.282H512.142V128.568Z" fill="#DFEFF2"/>
<path d="M469.968 107.141H459.303V117.854H469.968V107.141Z" fill="#DFEFF2"/>
<path d="M565.47 96.4369H554.804V107.151H565.47V117.854H576.135V107.141H565.47V96.4369H576.135V85.7232H565.47V96.4369Z" fill="#DFEFF2"/>
<path d="M458.813 85.7232H448.148V96.4369H458.813V85.7232Z" fill="#DFEFF2"/>
<path d="M522.807 107.141H512.142V117.854H522.807V107.151H533.473V96.4369H522.807V107.141Z" fill="#DFEFF2"/>
<path d="M544.138 117.844H533.473V128.558H544.138V117.844Z" fill="#DFEFF2"/>
<path d="M405.485 85.7232V96.4369H395.788V107.151H405.485V117.854H426.816V85.7232H405.485ZM415.182 107.141H405.485V96.4369H415.182V107.141Z" fill="#DFEFF2"/>
<path d="M426.826 161.2H416.161V171.913H426.826V161.2Z" fill="#DFEFF2"/>
<path d="M382.706 128.568H372.04V139.282H382.706V128.568Z" fill="#DFEFF2"/>
<path d="M448.158 64.2957V85.7131H426.826V74.9994H437.482L437.492 64.2957H448.158Z" fill="#DFEFF2"/>
<path d="M437.492 117.844H426.826V128.558H437.492V117.844Z" fill="#DFEFF2"/>
<path d="M1235.94 128.578H1225.27V139.292H1235.94V128.578Z" fill="#DFEFF2"/>
<path d="M1213.63 107.151H1202.96V117.864H1213.63V107.151Z" fill="#DFEFF2"/>
<path d="M1280.05 161.21H1269.38V171.923H1280.05V161.21Z" fill="#DFEFF2"/>
<path d="M1280.05 85.7232H1258.72V96.4369H1249.02V107.151H1258.72V117.864H1280.05V128.568H1290.71V117.854H1280.05V85.7232Z" fill="#DFEFF2"/>
<path d="M1184.06 96.4369H1162.73V107.151H1184.06V96.4369Z" fill="#DFEFF2"/>
<path d="M1312.05 85.7232H1301.38V96.4369H1312.05V85.7232Z" fill="#DFEFF2"/>
<path d="M1418.69 96.4369H1408.04V107.151H1418.69V117.864H1429.36V107.151H1418.7V96.4369H1429.36V85.7232H1418.69V96.4369Z" fill="#DFEFF2"/>
<path d="M1333.38 107.151H1344.04V85.7232H1333.38V107.151Z" fill="#DFEFF2"/>
<path d="M1323.19 107.151H1312.53V117.864H1323.19V107.151Z" fill="#DFEFF2"/>
<path d="M1397.37 117.854H1386.71V128.568H1397.37V117.854Z" fill="#DFEFF2"/>
<path d="M1365.37 128.578H1354.71V139.292H1365.37V128.578Z" fill="#DFEFF2"/>
<path d="M1376.03 96.4369H1386.7V107.151H1376.04V117.864H1365.37V107.151H1376.03V96.4369Z" fill="#DFEFF2"/>
<path d="M949.424 64.3759V75.0896H938.758V96.517H928.092V85.8033H917.427V75.0896H928.092V64.3759H949.424Z" fill="#DFEFF2"/>
<path d="M960.089 75.0896H949.424V85.8033H960.089V75.0896Z" fill="#DFEFF2"/>
<path d="M937.3 128.658H926.634V139.372H937.3V128.658Z" fill="#DFEFF2"/>
<path d="M915 107.231H904.334V117.944H915V107.231Z" fill="#DFEFF2"/>
<path d="M885.43 96.517H864.098V107.231H885.43V96.517Z" fill="#DFEFF2"/>
<path d="M1056.07 75.0896H1045.4V85.8033H1056.07V75.0896Z" fill="#DFEFF2"/>
<path d="M885.43 75.0896H874.764V85.8033H885.43V75.0896Z" fill="#DFEFF2"/>
<path d="M1098.73 117.934H1088.08V128.648H1098.73V117.934Z" fill="#DFEFF2"/>
<path d="M1066.74 128.658H1056.07V139.372H1066.74V128.658Z" fill="#DFEFF2"/>
<path d="M1024.56 107.231H1013.9V117.944H1024.56V107.231Z" fill="#DFEFF2"/>
<path d="M1098.73 75.0896V96.517H1088.07V85.8033H1077.41V75.0896H1098.73Z" fill="#DFEFF2"/>
<path d="M1077.4 107.231H1066.74V117.944H1077.4V107.231Z" fill="#DFEFF2"/>
<path d="M1088.07 96.517H1077.4V107.231H1088.07V96.517Z" fill="#DFEFF2"/>
<path d="M1152.06 107.231H1141.4V117.944H1152.06V107.231Z" fill="#DFEFF2"/>
<path d="M1120.06 96.517H1109.4V107.231H1120.06V117.944H1130.73V107.231H1120.06V96.517H1130.73V85.8033H1120.06V96.517Z" fill="#DFEFF2"/>
<path d="M1034.75 107.231H1045.41V85.8033H1034.75V107.231Z" fill="#DFEFF2"/>
<path d="M981.421 161.29H970.755V172.004H981.421V161.29Z" fill="#DFEFF2"/>
<path d="M1002.75 64.3759V85.8033H981.421V75.0896H992.086V64.3759H1002.75Z" fill="#DFEFF2"/>
<path d="M981.421 117.934V85.8033H960.089V96.517H949.424V107.231H960.089V117.944H981.421V128.648H992.086V117.934H981.421ZM970.745 107.231H960.089V96.517H970.745" fill="#DFEFF2"/>
<path d="M1013.41 85.8033H1002.74V96.517H1013.41V85.8033Z" fill="#DFEFF2"/>
<path d="M1200.55 64.2957H1198.29V64.3058H1200.55V64.2957Z" fill="#DFEFF2"/>
<path d="M1198.29 53.5719H1196V53.5819H1198.29V53.5719Z" fill="#DFEFF2"/>
<path d="M1200.55 64.2957H1196V64.3058H1200.55V64.2957Z" fill="#DFEFF2"/>
<path d="M1256.73 64.2957H1248.05V64.3058H1256.73V64.2957Z" fill="#DFEFF2"/>
</svg>
