<svg width="16" height="16" viewBox="0 0 16 16" fill="none" xmlns="http://www.w3.org/2000/svg">
<path d="M7.2 15.9596V16H8.8V15.9596C12.8368 15.5568 16 12.1412 16 8C16 3.5888 12.4112 0 8 0C3.8588 0 0.4432 3.1628 0.0403999 7.2H0V8.8H0.0403999C0.4172 12.5736 3.4264 15.5832 7.2 15.9596ZM1.6556 7.2C2.0512 4.048 4.7424 1.6 8 1.6C11.5288 1.6 14.4 4.4712 14.4 8C14.4 11.2576 11.952 13.9488 8.8 14.3444V12H7.2V14.3444C4.3108 13.9816 2.0184 11.6892 1.6556 8.8H4V7.2H1.6556Z" fill="#F14600"/>
<path d="M11.9992 7.2H8.79922V4H7.19922V8.8H11.9992V7.2Z" fill="#F14600"/>
</svg>
