<svg width="153" height="36" viewBox="0 0 153 36" fill="none" xmlns="http://www.w3.org/2000/svg">
<g clip-path="url(#clip0_428_3001)">
<mask id="mask0_428_3001" style="mask-type:luminance" maskUnits="userSpaceOnUse" x="0" y="0" width="153" height="36">
<path d="M0 0H152.527V35.9142H0V0Z" fill="white"/>
</mask>
<g mask="url(#mask0_428_3001)">
<path d="M19.6904 31.491L0 20.1808V15.3339L19.5704 3.96289L19.4972 8.99931L4.15493 17.8467L19.7119 26.5237L19.6904 31.491Z" fill="#444444"/>
<path d="M43.8835 3.33775V7.91642C43.8835 7.91642 38.9909 4.34026 33.0668 4.34026C26.6581 4.3343 19.4961 8.99642 19.4961 8.99642V3.97073C24.4499 1.33748 28.8447 0 33.1208 0C38.3444 0 43.8835 3.33775 43.8835 3.33775Z" fill="#4081CB"/>
<path d="M33.2296 29.5121C35.5913 29.5121 37.8999 28.8162 39.8635 27.5122C41.8272 26.2083 43.3576 24.3549 44.2613 22.1865C45.0129 20.3835 45.3054 18.4241 45.1129 16.482C44.9205 14.5398 44.2491 12.6748 43.1581 11.0522C42.0672 9.42951 40.5904 8.09931 38.8585 7.17939C37.1267 6.25947 35.1933 5.77824 33.2296 5.77832C26.6182 5.77832 21.2578 11.0913 21.2578 17.644C21.2597 19.2045 21.5708 20.7494 22.1735 22.1904C22.7762 23.6314 23.6586 24.9403 24.7703 26.0424C25.882 27.1445 27.2012 28.0182 28.6527 28.6135C30.1042 29.2088 31.6594 29.5142 33.2296 29.5121Z" fill="#4081CB"/>
<path d="M46.7677 4.38965L66.458 15.6998V20.5467L46.8876 31.9177L46.9596 26.8813L62.3031 18.0339L46.7461 9.35693L46.7677 4.38965Z" fill="#444444"/>
<path d="M22.5664 32.5751V27.9964C22.5664 27.9964 27.4602 31.5786 33.3843 31.5786C39.7931 31.5786 46.9538 26.9141 46.9538 26.9141V31.9421C42.0013 34.5754 37.6052 35.9129 33.3304 35.9129C28.1067 35.9129 22.5664 32.5751 22.5664 32.5751Z" fill="#4081CB"/>
<path d="M74.75 8.59607H80.066L84.7895 22.1938L89.5394 8.59607H94.6131L87.2184 27.3983H82.0907L74.75 8.59607ZM106.203 12.8112C105.062 12.436 104.102 12.2482 103.325 12.2473C102.713 12.2473 102.233 12.359 101.885 12.5823C101.718 12.6841 101.581 12.8287 101.488 13.0011C101.396 13.1733 101.352 13.3671 101.36 13.5622C101.356 13.757 101.395 13.9503 101.474 14.1286C101.554 14.3069 101.671 14.4659 101.818 14.5945C102.15 14.887 102.535 15.1143 102.952 15.2644C103.402 15.4345 104.068 15.6539 104.949 15.9224C106.057 16.2259 107.143 16.6022 108.201 17.0489C109.067 17.4316 109.823 18.0237 110.4 18.7714C111.012 19.5487 111.318 20.5634 111.318 21.8159C111.318 23.0684 110.985 24.1365 110.32 25.0202C109.654 25.9062 108.741 26.5722 107.58 27.0181C106.343 27.4789 105.029 27.7065 103.707 27.6892C102.113 27.683 100.531 27.4065 99.0295 26.8714C97.5596 26.3735 96.1929 25.6146 94.9957 24.6316L96.9148 20.7967C97.9197 21.6685 99.0647 22.3664 100.302 22.8614C101.606 23.3978 102.761 23.666 103.77 23.666C104.507 23.666 105.087 23.5317 105.51 23.2631C105.713 23.1412 105.878 22.9675 105.99 22.7601C106.102 22.5526 106.155 22.3192 106.145 22.0841C106.149 21.8819 106.109 21.6811 106.028 21.4959C105.946 21.3105 105.825 21.1452 105.672 21.0113C105.326 20.7065 104.923 20.4738 104.485 20.3271C104.005 20.1562 103.335 19.9551 102.474 19.7239C101.38 19.4351 100.307 19.0718 99.2634 18.6367C98.4123 18.2658 97.6659 17.6927 97.09 16.9679C96.4878 16.2264 96.1868 15.2385 96.1868 14.0044C96.1646 12.9131 96.4904 11.8429 97.1175 10.9468C97.7373 10.0727 98.6169 9.39713 99.7564 8.92031C100.896 8.44349 102.223 8.20508 103.737 8.20508C105.107 8.20542 106.471 8.39969 107.786 8.78203C109.024 9.1258 110.205 9.64533 111.294 10.3245L109.431 14.2404C108.41 13.6511 107.328 13.172 106.203 12.8112ZM113.833 8.59607H118.771V16.2681H126.41V8.59607H131.345V27.3983H126.407V20.1828H118.769V27.3983H113.833V8.59607ZM147.94 8.59607H152.528V27.3983H148.21L139.628 16.1596V27.3983H135.013V8.59607H139.358L147.967 19.9206L147.94 8.59607Z" fill="#444444"/>
</g>
</g>
<defs>
<clipPath id="clip0_428_3001">
<rect width="152.571" height="36" fill="white"/>
</clipPath>
</defs>
</svg>
