<svg width="32" height="32" viewBox="0 0 32 32" fill="none" xmlns="http://www.w3.org/2000/svg">
<g clip-path="url(#clip0_728_2103)">
<mask id="mask0_728_2103" style="mask-type:luminance" maskUnits="userSpaceOnUse" x="0" y="0" width="32" height="32">
<path d="M32 0H0V32H32V0Z" fill="white"/>
</mask>
<g mask="url(#mask0_728_2103)">
<path d="M6 6V8V10H8H10V8V6H8H6Z" fill="white"/>
<path d="M6 12V14V16V18V20V22V24V26H8H10V24V22V20V18V16V14V12H8H6Z" fill="white"/>
<path d="M24 14V12H22H20V14H18V12H16H14V14V16V18V20V22V24V26H16H18V24V22V20V18V16H20H22V18V20V22V24V26H24H26V24V22V20V18V16V14H24Z" fill="white"/>
<path d="M26 0H24H22H20H18H16H14H12H10H8H6H4V2H6H8H10H12H14H16H18H20H22H24H26H28V0H26Z" fill="#06B3B8"/>
<path d="M4 2H2V4H4V2Z" fill="#06B3B8"/>
<path d="M0 6V8V10V12V14V16V18V20V22V24V26V28H2V26V24V22V20V18V16V14V12V10V8V6V4H0V6Z" fill="#06B3B8"/>
<path d="M30 4V2H4V4H2V30H4V32H28V30H30V28H32V4H30ZM6 24V12H10V26H6V24ZM6 8V6H10V10H6V8ZM24 26H22V16H18V26H14V12H18V14H20V12H24V14H26V26H24Z" fill="currentColor"/>
</g>
</g>
<defs>
<clipPath id="clip0_728_2103">
<rect width="32" height="32" fill="white"/>
</clipPath>
</defs>
</svg>
