<svg width="32" height="32" viewBox="0 0 32 32" fill="none" xmlns="http://www.w3.org/2000/svg">
<g clip-path="url(#clip0_573_11333)">
<path d="M6 0H4V2H6V0Z" fill="#06B3B8"/>
<path d="M8 0H6V2H8V0Z" fill="#06B3B8"/>
<path d="M10 0H8V2H10V0Z" fill="#06B3B8"/>
<path d="M12 0H10V2H12V0Z" fill="#06B3B8"/>
<path d="M14 0H12V2H14V0Z" fill="#06B3B8"/>
<path d="M16 0H14V2H16V0Z" fill="#06B3B8"/>
<path d="M18 0H16V2H18V0Z" fill="#06B3B8"/>
<path d="M20 0H18V2H20V0Z" fill="#06B3B8"/>
<path d="M22 0H20V2H22V0Z" fill="#06B3B8"/>
<path d="M24 0H22V2H24V0Z" fill="#06B3B8"/>
<path d="M26 0H24V2H26V0Z" fill="#06B3B8"/>
<path d="M28 0H26V2H28V0Z" fill="#06B3B8"/>
<path d="M4 2H2V4H4V2Z" fill="#06B3B8"/>
<path d="M6 2H4V4H6V2Z" fill="#0A1133"/>
<path d="M8 2H6V4H8V2Z" fill="#0A1133"/>
<path d="M10 2H8V4H10V2Z" fill="#0A1133"/>
<path d="M12 2H10V4H12V2Z" fill="#0A1133"/>
<path d="M14 2H12V4H14V2Z" fill="#0A1133"/>
<path d="M16 2H14V4H16V2Z" fill="#0A1133"/>
<path d="M18 2H16V4H18V2Z" fill="#0A1133"/>
<path d="M20 2H18V4H20V2Z" fill="#0A1133"/>
<path d="M22 2H20V4H22V2Z" fill="#0A1133"/>
<path d="M24 2H22V4H24V2Z" fill="#0A1133"/>
<path d="M26 2H24V4H26V2Z" fill="#0A1133"/>
<path d="M28 2H26V4H28V2Z" fill="#0A1133"/>
<path d="M30 2H28V4H30V2Z" fill="#0A1133"/>
<path d="M2 4H0V6H2V4Z" fill="#06B3B8"/>
<path d="M4 4H2V6H4V4Z" fill="#0A1133"/>
<path d="M6 4H4V6H6V4Z" fill="#0A1133"/>
<path d="M8 4H6V6H8V4Z" fill="#0A1133"/>
<path d="M10 4H8V6H10V4Z" fill="#0A1133"/>
<path d="M12 4H10V6H12V4Z" fill="#0A1133"/>
<path d="M14 4H12V6H14V4Z" fill="#0A1133"/>
<path d="M16 4H14V6H16V4Z" fill="#0A1133"/>
<path d="M18 4H16V6H18V4Z" fill="#0A1133"/>
<path d="M20 4H18V6H20V4Z" fill="#0A1133"/>
<path d="M22 4H20V6H22V4Z" fill="#0A1133"/>
<path d="M24 4H22V6H24V4Z" fill="#0A1133"/>
<path d="M26 4H24V6H26V4Z" fill="#0A1133"/>
<path d="M28 4H26V6H28V4Z" fill="#0A1133"/>
<path d="M30 4H28V6H30V4Z" fill="#0A1133"/>
<path d="M32 4H30V6H32V4Z" fill="#0A1133"/>
<path d="M2 6H0V8H2V6Z" fill="#06B3B8"/>
<path d="M4 6H2V8H4V6Z" fill="#0A1133"/>
<path d="M6 6H4V8H6V6Z" fill="#0A1133"/>
<path d="M8 6H6V8H8V6Z" fill="white"/>
<path d="M10 6H8V8H10V6Z" fill="white"/>
<path d="M12 6H10V8H12V6Z" fill="#0A1133"/>
<path d="M14 6H12V8H14V6Z" fill="#0A1133"/>
<path d="M16 6H14V8H16V6Z" fill="#0A1133"/>
<path d="M18 6H16V8H18V6Z" fill="#0A1133"/>
<path d="M20 6H18V8H20V6Z" fill="#0A1133"/>
<path d="M22 6H20V8H22V6Z" fill="#0A1133"/>
<path d="M24 6H22V8H24V6Z" fill="#0A1133"/>
<path d="M26 6H24V8H26V6Z" fill="#0A1133"/>
<path d="M28 6H26V8H28V6Z" fill="#0A1133"/>
<path d="M30 6H28V8H30V6Z" fill="#0A1133"/>
<path d="M32 6H30V8H32V6Z" fill="#0A1133"/>
<path d="M2 8H0V10H2V8Z" fill="#06B3B8"/>
<path d="M4 8H2V10H4V8Z" fill="#0A1133"/>
<path d="M6 8H4V10H6V8Z" fill="#0A1133"/>
<path d="M8 8H6V10H8V8Z" fill="white"/>
<path d="M10 8H8V10H10V8Z" fill="white"/>
<path d="M12 8H10V10H12V8Z" fill="#0A1133"/>
<path d="M14 8H12V10H14V8Z" fill="#0A1133"/>
<path d="M16 8H14V10H16V8Z" fill="#0A1133"/>
<path d="M18 8H16V10H18V8Z" fill="#0A1133"/>
<path d="M20 8H18V10H20V8Z" fill="#0A1133"/>
<path d="M22 8H20V10H22V8Z" fill="#0A1133"/>
<path d="M24 8H22V10H24V8Z" fill="#0A1133"/>
<path d="M26 8H24V10H26V8Z" fill="#0A1133"/>
<path d="M28 8H26V10H28V8Z" fill="#0A1133"/>
<path d="M30 8H28V10H30V8Z" fill="#0A1133"/>
<path d="M32 8H30V10H32V8Z" fill="#0A1133"/>
<path d="M2 10H0V12H2V10Z" fill="#06B3B8"/>
<path d="M4 10H2V12H4V10Z" fill="#0A1133"/>
<path d="M6 10H4V12H6V10Z" fill="#0A1133"/>
<path d="M8 10H6V12H8V10Z" fill="#0A1133"/>
<path d="M10 10H8V12H10V10Z" fill="#0A1133"/>
<path d="M12 10H10V12H12V10Z" fill="#0A1133"/>
<path d="M14 10H12V12H14V10Z" fill="#0A1133"/>
<path d="M16 10H14V12H16V10Z" fill="#0A1133"/>
<path d="M18 10H16V12H18V10Z" fill="#0A1133"/>
<path d="M20 10H18V12H20V10Z" fill="#0A1133"/>
<path d="M22 10H20V12H22V10Z" fill="#0A1133"/>
<path d="M24 10H22V12H24V10Z" fill="#0A1133"/>
<path d="M26 10H24V12H26V10Z" fill="#0A1133"/>
<path d="M28 10H26V12H28V10Z" fill="#0A1133"/>
<path d="M30 10H28V12H30V10Z" fill="#0A1133"/>
<path d="M32 10H30V12H32V10Z" fill="#0A1133"/>
<path d="M2 12H0V14H2V12Z" fill="#06B3B8"/>
<path d="M4 12H2V14H4V12Z" fill="#0A1133"/>
<path d="M6 12H4V14H6V12Z" fill="#0A1133"/>
<path d="M8 12H6V14H8V12Z" fill="white"/>
<path d="M10 12H8V14H10V12Z" fill="white"/>
<path d="M12 12H10V14H12V12Z" fill="#0A1133"/>
<path d="M14 12H12V14H14V12Z" fill="#0A1133"/>
<path d="M16 12H14V14H16V12Z" fill="white"/>
<path d="M18 12H16V14H18V12Z" fill="white"/>
<path d="M20 12H18V14H20V12Z" fill="#0A1133"/>
<path d="M22 12H20V14H22V12Z" fill="white"/>
<path d="M24 12H22V14H24V12Z" fill="white"/>
<path d="M26 12H24V14H26V12Z" fill="#0A1133"/>
<path d="M28 12H26V14H28V12Z" fill="#0A1133"/>
<path d="M30 12H28V14H30V12Z" fill="#0A1133"/>
<path d="M32 12H30V14H32V12Z" fill="#0A1133"/>
<path d="M2 14H0V16H2V14Z" fill="#06B3B8"/>
<path d="M4 14H2V16H4V14Z" fill="#0A1133"/>
<path d="M6 14H4V16H6V14Z" fill="#0A1133"/>
<path d="M8 14H6V16H8V14Z" fill="white"/>
<path d="M10 14H8V16H10V14Z" fill="white"/>
<path d="M12 14H10V16H12V14Z" fill="#0A1133"/>
<path d="M14 14H12V16H14V14Z" fill="#0A1133"/>
<path d="M16 14H14V16H16V14Z" fill="white"/>
<path d="M18 14H16V16H18V14Z" fill="white"/>
<path d="M20 14H18V16H20V14Z" fill="white"/>
<path d="M22 14H20V16H22V14Z" fill="white"/>
<path d="M24 14H22V16H24V14Z" fill="white"/>
<path d="M26 14H24V16H26V14Z" fill="white"/>
<path d="M28 14H26V16H28V14Z" fill="#0A1133"/>
<path d="M30 14H28V16H30V14Z" fill="#0A1133"/>
<path d="M32 14H30V16H32V14Z" fill="#0A1133"/>
<path d="M2 16H0V18H2V16Z" fill="#06B3B8"/>
<path d="M4 16H2V18H4V16Z" fill="#0A1133"/>
<path d="M6 16H4V18H6V16Z" fill="#0A1133"/>
<path d="M8 16H6V18H8V16Z" fill="white"/>
<path d="M10 16H8V18H10V16Z" fill="white"/>
<path d="M12 16H10V18H12V16Z" fill="#0A1133"/>
<path d="M14 16H12V18H14V16Z" fill="#0A1133"/>
<path d="M16 16H14V18H16V16Z" fill="white"/>
<path d="M18 16H16V18H18V16Z" fill="white"/>
<path d="M20 16H18V18H20V16Z" fill="#0A1133"/>
<path d="M22 16H20V18H22V16Z" fill="#0A1133"/>
<path d="M24 16H22V18H24V16Z" fill="white"/>
<path d="M26 16H24V18H26V16Z" fill="white"/>
<path d="M28 16H26V18H28V16Z" fill="#0A1133"/>
<path d="M30 16H28V18H30V16Z" fill="#0A1133"/>
<path d="M32 16H30V18H32V16Z" fill="#0A1133"/>
<path d="M2 18H0V20H2V18Z" fill="#06B3B8"/>
<path d="M4 18H2V20H4V18Z" fill="#0A1133"/>
<path d="M6 18H4V20H6V18Z" fill="#0A1133"/>
<path d="M8 18H6V20H8V18Z" fill="white"/>
<path d="M10 18H8V20H10V18Z" fill="white"/>
<path d="M12 18H10V20H12V18Z" fill="#0A1133"/>
<path d="M14 18H12V20H14V18Z" fill="#0A1133"/>
<path d="M16 18H14V20H16V18Z" fill="white"/>
<path d="M18 18H16V20H18V18Z" fill="white"/>
<path d="M20 18H18V20H20V18Z" fill="#0A1133"/>
<path d="M22 18H20V20H22V18Z" fill="#0A1133"/>
<path d="M24 18H22V20H24V18Z" fill="white"/>
<path d="M26 18H24V20H26V18Z" fill="white"/>
<path d="M28 18H26V20H28V18Z" fill="#0A1133"/>
<path d="M30 18H28V20H30V18Z" fill="#0A1133"/>
<path d="M32 18H30V20H32V18Z" fill="#0A1133"/>
<path d="M2 20H0V22H2V20Z" fill="#06B3B8"/>
<path d="M4 20H2V22H4V20Z" fill="#0A1133"/>
<path d="M6 20H4V22H6V20Z" fill="#0A1133"/>
<path d="M8 20H6V22H8V20Z" fill="white"/>
<path d="M10 20H8V22H10V20Z" fill="white"/>
<path d="M12 20H10V22H12V20Z" fill="#0A1133"/>
<path d="M14 20H12V22H14V20Z" fill="#0A1133"/>
<path d="M16 20H14V22H16V20Z" fill="white"/>
<path d="M18 20H16V22H18V20Z" fill="white"/>
<path d="M20 20H18V22H20V20Z" fill="#0A1133"/>
<path d="M22 20H20V22H22V20Z" fill="#0A1133"/>
<path d="M24 20H22V22H24V20Z" fill="white"/>
<path d="M26 20H24V22H26V20Z" fill="white"/>
<path d="M28 20H26V22H28V20Z" fill="#0A1133"/>
<path d="M30 20H28V22H30V20Z" fill="#0A1133"/>
<path d="M32 20H30V22H32V20Z" fill="#0A1133"/>
<path d="M2 22H0V24H2V22Z" fill="#06B3B8"/>
<path d="M4 22H2V24H4V22Z" fill="#0A1133"/>
<path d="M6 22H4V24H6V22Z" fill="#0A1133"/>
<path d="M8 22H6V24H8V22Z" fill="white"/>
<path d="M10 22H8V24H10V22Z" fill="white"/>
<path d="M12 22H10V24H12V22Z" fill="#0A1133"/>
<path d="M14 22H12V24H14V22Z" fill="#0A1133"/>
<path d="M16 22H14V24H16V22Z" fill="white"/>
<path d="M18 22H16V24H18V22Z" fill="white"/>
<path d="M20 22H18V24H20V22Z" fill="#0A1133"/>
<path d="M22 22H20V24H22V22Z" fill="#0A1133"/>
<path d="M24 22H22V24H24V22Z" fill="white"/>
<path d="M26 22H24V24H26V22Z" fill="white"/>
<path d="M28 22H26V24H28V22Z" fill="#0A1133"/>
<path d="M30 22H28V24H30V22Z" fill="#0A1133"/>
<path d="M32 22H30V24H32V22Z" fill="#0A1133"/>
<path d="M2 24H0V26H2V24Z" fill="#06B3B8"/>
<path d="M4 24H2V26H4V24Z" fill="#0A1133"/>
<path d="M6 24H4V26H6V24Z" fill="#0A1133"/>
<path d="M8 24H6V26H8V24Z" fill="white"/>
<path d="M10 24H8V26H10V24Z" fill="white"/>
<path d="M12 24H10V26H12V24Z" fill="#0A1133"/>
<path d="M14 24H12V26H14V24Z" fill="#0A1133"/>
<path d="M16 24H14V26H16V24Z" fill="white"/>
<path d="M18 24H16V26H18V24Z" fill="white"/>
<path d="M20 24H18V26H20V24Z" fill="#0A1133"/>
<path d="M22 24H20V26H22V24Z" fill="#0A1133"/>
<path d="M24 24H22V26H24V24Z" fill="white"/>
<path d="M26 24H24V26H26V24Z" fill="white"/>
<path d="M28 24H26V26H28V24Z" fill="#0A1133"/>
<path d="M30 24H28V26H30V24Z" fill="#0A1133"/>
<path d="M32 24H30V26H32V24Z" fill="#0A1133"/>
<path d="M2 26H0V28H2V26Z" fill="#06B3B8"/>
<path d="M4 26H2V28H4V26Z" fill="#0A1133"/>
<path d="M6 26H4V28H6V26Z" fill="#0A1133"/>
<path d="M8 26H6V28H8V26Z" fill="#0A1133"/>
<path d="M10 26H8V28H10V26Z" fill="#0A1133"/>
<path d="M12 26H10V28H12V26Z" fill="#0A1133"/>
<path d="M14 26H12V28H14V26Z" fill="#0A1133"/>
<path d="M16 26H14V28H16V26Z" fill="#0A1133"/>
<path d="M18 26H16V28H18V26Z" fill="#0A1133"/>
<path d="M20 26H18V28H20V26Z" fill="#0A1133"/>
<path d="M22 26H20V28H22V26Z" fill="#0A1133"/>
<path d="M24 26H22V28H24V26Z" fill="#0A1133"/>
<path d="M26 26H24V28H26V26Z" fill="#0A1133"/>
<path d="M28 26H26V28H28V26Z" fill="#0A1133"/>
<path d="M30 26H28V28H30V26Z" fill="#0A1133"/>
<path d="M32 26H30V28H32V26Z" fill="#0A1133"/>
<path d="M4 28H2V30H4V28Z" fill="#0A1133"/>
<path d="M6 28H4V30H6V28Z" fill="#0A1133"/>
<path d="M8 28H6V30H8V28Z" fill="#0A1133"/>
<path d="M10 28H8V30H10V28Z" fill="#0A1133"/>
<path d="M12 28H10V30H12V28Z" fill="#0A1133"/>
<path d="M14 28H12V30H14V28Z" fill="#0A1133"/>
<path d="M16 28H14V30H16V28Z" fill="#0A1133"/>
<path d="M18 28H16V30H18V28Z" fill="#0A1133"/>
<path d="M20 28H18V30H20V28Z" fill="#0A1133"/>
<path d="M22 28H20V30H22V28Z" fill="#0A1133"/>
<path d="M24 28H22V30H24V28Z" fill="#0A1133"/>
<path d="M26 28H24V30H26V28Z" fill="#0A1133"/>
<path d="M28 28H26V30H28V28Z" fill="#0A1133"/>
<path d="M30 28H28V30H30V28Z" fill="#0A1133"/>
<path d="M6 30H4V32H6V30Z" fill="#0A1133"/>
<path d="M8 30H6V32H8V30Z" fill="#0A1133"/>
<path d="M10 30H8V32H10V30Z" fill="#0A1133"/>
<path d="M12 30H10V32H12V30Z" fill="#0A1133"/>
<path d="M14 30H12V32H14V30Z" fill="#0A1133"/>
<path d="M16 30H14V32H16V30Z" fill="#0A1133"/>
<path d="M18 30H16V32H18V30Z" fill="#0A1133"/>
<path d="M20 30H18V32H20V30Z" fill="#0A1133"/>
<path d="M22 30H20V32H22V30Z" fill="#0A1133"/>
<path d="M24 30H22V32H24V30Z" fill="#0A1133"/>
<path d="M26 30H24V32H26V30Z" fill="#0A1133"/>
<path d="M28 30H26V32H28V30Z" fill="#0A1133"/>
</g>
<defs>
<clipPath id="clip0_573_11333">
<rect width="32" height="32" fill="white"/>
</clipPath>
</defs>
</svg>
