<svg width="1129" height="115" viewBox="0 0 1129 115" fill="none" xmlns="http://www.w3.org/2000/svg">
<path d="M191.832 64.7642H184.732V71.8898H191.832V79.0154H198.932V71.8898H191.832V64.7642H198.932V57.6385H191.832V64.7642Z" fill="#E2F1F3"/>
<path d="M35.6394 50.5129H28.5394V57.6385H35.6394V50.5129Z" fill="#E2F1F3"/>
<path d="M7.09996 79.3284H0V86.454H7.09996V79.3284Z" fill="#E2F1F3"/>
<path d="M35.6394 64.7642H21.4395V71.8898H35.6394V64.7642Z" fill="#E2F1F3"/>
<path d="M85.3391 50.5129H78.2392V57.6385H85.3391V50.5129Z" fill="#E2F1F3"/>
<path d="M99.5324 107.844H92.4324V114.97H99.5324V107.844Z" fill="#E2F1F3"/>
<path d="M128.258 71.8898H121.158V79.0154H128.258V71.8898Z" fill="#E2F1F3"/>
<path d="M7.31269 -0.0976562H0V7.76581H7.31269V-0.0976562Z" fill="#E2F1F3"/>
<path d="M1129 14.9514V-0.0377211H717.209V7.80577L710.109 7.81909V14.9314H703.009V7.81909L710.109 7.80577V-0.0443806L14.3395 -0.0976562V7.76581H7.31269V14.998H0V29.1293H7.23292V36.255H14.3395V43.3873H0V64.7642H7.09996V50.5196H28.5394V36.2616H35.6328V29.1293H42.7394V36.255H35.6394V43.3873H42.7394V57.6385H35.6394V64.7642H49.8393V50.5196H56.9326V57.6385H64.0326V64.7642H71.1326V50.5196H78.2325V43.394H64.0326V50.5129H56.9326V43.394H64.0326V29.1293H71.1326V36.255H78.2392V43.3873H85.3325V36.2616H92.4324V50.5196H99.5324V57.6385H113.732V43.394H106.632V50.5129H99.5324V43.3873H106.632V29.1293H113.732V43.3873H120.832V50.5196H127.932V57.6385H135.032V43.394H127.932V36.2616H120.832V29.1293H127.932V22.0104H135.032V29.1293H127.932V36.255H135.032V43.3873H149.232V36.2616H156.332V43.3873H149.232V50.5129H142.132V57.6385H149.232V50.5196H163.432V57.6385H170.532V64.7642H177.632V50.5196H184.732V57.6385H191.832V43.394H184.732V29.1293H191.832V43.3873H198.932V50.5129H213.132V57.6319H220.232V50.5063H213.132V36.255H220.232V29.1293H227.332V36.255H220.232V43.3806H227.332V57.6319H220.232V64.7642H234.432V50.5129H241.532V57.6319H248.632V64.7642H255.732V50.5129H262.825V57.6319H269.925V50.5063H262.831V43.3873H248.632V50.5063H241.532V43.3873H248.632V29.1293H255.732V36.255H262.825V43.3806H269.925V36.255H277.031V50.5129H284.125V43.3806H291.225V29.1293H284.125V22.0037H291.225V29.1293H298.325V43.3806H305.425V50.5129H312.525V57.6319H319.625V43.3873H312.525V36.255H305.425V29.1293H312.525V22.0037H319.625V29.1293H312.525V36.255H319.625V43.3806H333.824V36.255H340.924V43.3806H333.824V50.5063H326.724V57.6319H333.824V50.5129H348.024V57.6319H355.124V64.7642H362.224V50.5129H369.324V57.6319H376.424V43.3873H369.324V29.1293H376.424V22.0037H383.524V29.1293H376.424V43.3806H383.524V50.5662H397.724V36.3149H404.824V29.1826H411.924V36.3082H404.824V43.4406H411.924V57.6918H404.824V64.8174H419.024V50.5662H426.124V43.4406H433.224V29.1826H440.324V36.3082H447.424V43.4406H454.524V36.3149H461.624V50.5662H468.724V43.4406H475.824V29.1826H482.924V43.4406H490.017V50.5662H497.117V57.6918H504.223V43.4406H497.124V36.3149H490.017V29.1826H497.117V22.057H504.223V29.1826H497.124V36.3082H504.223V43.4406H518.417V36.3149H525.517L525.523 36.3082L525.517 43.4406H518.417V50.5662H532.623V36.3149H539.717L539.723 29.1826H546.817V36.3082H539.723V43.4406H546.817V50.5662H553.917V57.6918H561.017V43.4406H553.917V29.1826H561.017V43.4406H568.117V50.5662H582.316V36.3149H589.416V29.1826H596.516V36.3082H589.416V43.4406H596.516V57.6918H589.416V64.8174H603.616V50.5662H610.716V43.4406H617.816V29.1826H624.916V36.3082H632.016V43.4406H639.116V36.3149H646.209L646.216 36.3082V50.5662H653.316V43.4406H660.416V29.1826H653.316V22.057H660.416V29.1826H667.509V43.4406H674.609V50.5662H681.709V57.6918H688.809V43.4406H681.716V36.3149L674.609 36.3082V29.1826H681.709V22.057H688.809V29.1826H681.716V36.3082H688.816V43.4406H703.009V36.3149H710.109V43.4406H703.009V50.5662H717.209V36.3149H724.309L724.316 29.1826H731.409V36.3082H724.316V43.4406H731.409V50.5662H738.509V57.6918H745.609V43.4406H738.509V29.1826H745.609V43.4406H752.709V36.3149H759.809V43.4406H752.709V50.5662H766.909V50.5196H781.109V57.6385H788.209V50.5129H781.109V36.2616H788.209V29.1293H795.309V36.255H788.209V43.3873H795.309V57.6385H788.209V64.7642H802.409V50.5196H809.508V57.6385H816.608V64.7642H823.708V50.5196H830.808V57.6385H837.908V50.5129H830.808V43.394H816.608V50.5129H809.508V43.394H816.608V29.1293H823.708V36.255H830.808V43.3873H837.908V36.2616H845.008V50.5196H852.108V57.6385H866.308V43.394H859.208V50.5129H852.108V43.394H859.208V29.1293H866.308V43.3873H873.408V50.5196H880.508V57.6385H887.608V43.394H880.508V36.2616H873.408V29.1293H880.508V36.255H887.608V43.3873H901.808V36.2616H908.908V43.3873H901.808V50.5129H894.708V57.6385H901.808V50.5196H916.008V57.6385H923.101V64.7642H930.201V50.5129H916.008V36.2616H923.101L923.108 29.1293H930.201V36.255H923.108V43.3873H930.208V50.5196H937.301V57.6385H944.401V43.394H937.301V29.1293H944.401V43.3873H951.501V50.5728H965.701V57.6918H972.801V50.5662H965.708V36.3215H972.801V29.1893H979.901V36.3215H972.801V43.4472H979.901V57.6918H979.908H972.801V64.8174H987.007V50.5662H994.107V57.6852H1001.2V64.8174H1008.3V50.5662H1015.4V57.6852H1022.5V50.5595H1015.4V43.4406H1001.2V50.5595H994.107V43.4406H1001.2V29.1826H1008.3V36.3082H1015.4V43.4406H1022.5V36.3149H1029.6V50.5662H1036.7V57.6852H1050.9V43.4406H1043.8V50.5595H1036.7V43.4406H1043.8V29.1826H1050.9V43.4406H1058V50.5662H1065.1V57.6852H1072.2V43.4406H1065.1V36.3149H1058V29.1826H1065.1V36.3082H1072.2V43.4406H1086.4V36.3149H1093.5V43.4406H1086.4V50.5595H1079.3V57.6852H1086.4V50.5662H1100.6V57.6852H1107.7V64.8174H1114.8V50.5662H1121.9V57.6852H1129V43.4406H1121.9V29.1826H1129V22.057H1121.9V14.9447H1129V14.9514ZM35.6394 22.0037H28.5394V14.8914H35.6394V22.0037ZM56.9326 36.255H49.8393V22.0104H56.9326V36.255ZM85.3325 22.0037H78.2392V14.8914H85.3325V22.0037ZM156.332 14.8781H149.232V7.76581H156.332V14.8781ZM177.632 36.255H170.532V43.3873H177.632V50.5129H163.432V36.2616H170.532V29.1293H177.632V36.255ZM241.532 36.255H234.432V22.0037H241.532V36.255ZM255.732 14.8781H248.632V7.75915H255.732V14.8781ZM333.824 14.8781V7.75915H340.924V14.8781H333.824ZM340.924 29.1293V22.0037H348.024V29.1293H340.924ZM362.224 36.255H355.124V43.3806H362.224V50.5063H348.024V36.255H355.124V29.1293H362.224V36.255ZM426.124 36.3082H419.024V22.057H426.124V36.3082ZM440.324 14.9314H433.224V7.81909H440.324V14.9314ZM525.517 14.9314H518.417V7.81909L525.517 7.80577V14.9314ZM532.617 29.1826H525.523V22.057H532.617V29.1826ZM561.017 22.057H553.917V14.9447H561.017V22.057ZM610.716 36.3082H603.616V22.057H610.716V36.3082ZM624.916 14.9314H617.816V7.81909H624.916V14.9314ZM759.809 14.9314H752.709V7.81909H759.809V14.9314ZM809.508 36.255H802.409V22.0104H809.508V36.255ZM823.708 14.8781H816.608V7.76581H823.708V14.8781ZM908.908 14.8781H901.808V7.76581H908.908V14.8781ZM944.401 22.0037H937.308V14.8914H944.401V22.0037ZM951.501 29.1293H944.408V22.0104H951.501V29.1293ZM994.107 36.3149H987.007V22.0637H994.107V36.3149ZM1008.3 14.938H1001.2V7.82575H1008.3V14.938ZM1093.5 14.938H1086.4V7.82575H1093.5V14.938ZM1114.8 36.3215H1107.7V43.4472H1114.8V50.5662H1100.6V36.3215H1107.7V29.1893H1114.8V36.3215Z" fill="#E2F1F3"/>
<path d="M120.832 57.6385H113.732V64.7642H120.832V57.6385Z" fill="#E2F1F3"/>
<path d="M106.632 79.0087V86.1344H99.5324V79.0154H85.3325V71.8898H78.8774V64.7642H85.3325V57.6385H99.5324V79.0087H106.632Z" fill="#E2F1F3"/>
<path d="M55.3238 71.8898H48.2239V79.0154H55.3238V71.8898Z" fill="#E2F1F3"/>
<path d="M163.432 71.8898H156.332V79.0154H163.432V71.8898Z" fill="#E2F1F3"/>
<path d="M170.532 64.7642H163.432V71.8898H170.532V64.7642Z" fill="#E2F1F3"/>
<path d="M177.632 79.0087H170.532V86.1344H177.632V79.0087Z" fill="#E2F1F3"/>
<path d="M156.332 86.141H149.232V93.2666H156.332V86.141Z" fill="#E2F1F3"/>
<path d="M135.032 71.8898H142.132V57.6385H135.032V71.8898Z" fill="#E2F1F3"/>
<path d="M70.1686 86.141H63.0687V93.2666H70.1686V86.141Z" fill="#E2F1F3"/>
<path d="M482.924 43.4406V57.6918H468.724V50.5662H475.824V43.4406H482.924Z" fill="#E2F1F3"/>
<path d="M468.724 107.897H461.624V115.023H468.724V107.897Z" fill="#E2F1F3"/>
<path d="M497.443 71.943H490.343V79.0687H497.443V71.943Z" fill="#E2F1F3"/>
<path d="M490.024 57.6918H482.924V64.8174H490.024V57.6918Z" fill="#E2F1F3"/>
<path d="M504.223 71.943H511.323V57.6918H504.223V71.943Z" fill="#E2F1F3"/>
<path d="M525.517 86.1943H518.417V93.3199H525.517V86.1943Z" fill="#E2F1F3"/>
<path d="M518.417 50.5662H511.323V57.6918H518.417V50.5662Z" fill="#E2F1F3"/>
<path d="M424.508 71.943H417.409V79.0687H424.508V71.943Z" fill="#E2F1F3"/>
<path d="M404.824 64.8174H390.624V71.943H404.824V64.8174Z" fill="#E2F1F3"/>
<path d="M546.817 50.5662V64.8174H539.717V57.6918H532.623V50.5662H546.817Z" fill="#E2F1F3"/>
<path d="M404.824 50.5662H397.724V57.6918H404.824V50.5662Z" fill="#E2F1F3"/>
<path d="M447.424 43.4406V50.5662H440.324V64.8174H433.224V57.6918H426.124V50.5662H433.224V43.4406H447.424Z" fill="#E2F1F3"/>
<path d="M454.524 50.5662H447.424V57.6918H454.524V50.5662Z" fill="#E2F1F3"/>
<path d="M468.724 79.062V57.6918H454.524V64.8174H447.437V71.943H454.524V79.0687H468.724V86.1876H475.824V79.062H468.724ZM461.624 71.943H454.524V64.8174H461.624V71.943Z" fill="#E2F1F3"/>
<path d="M439.36 86.1943H432.26V93.3199H439.36V86.1943Z" fill="#E2F1F3"/>
<path d="M546.823 79.062H539.723V86.1876H546.823V79.062Z" fill="#E2F1F3"/>
<path d="M539.717 64.8174V71.943H532.623V79.0687H525.523V71.943H532.617V64.8174H539.717Z" fill="#E2F1F3"/>
<path d="M561.017 64.8174H553.917V71.943H561.017V79.0687H568.117V71.943H561.017V64.8174H568.117V57.6918H561.017V64.8174Z" fill="#E2F1F3"/>
<path d="M1129 64.8241H1121.9V71.9497H1129V64.8241Z" fill="#E2F1F3"/>
<path d="M1043.8 79.0687V86.1943H1036.7V79.0753H1022.5V71.9497H1016.05V64.8241H1022.5V57.6985H1036.7V79.0687H1043.8Z" fill="#E2F1F3"/>
<path d="M1036.7 107.897H1029.6V115.023H1036.7V107.897Z" fill="#E2F1F3"/>
<path d="M1065.42 71.9497H1058.32V79.0753H1065.42V71.9497Z" fill="#E2F1F3"/>
<path d="M1072.2 71.9497H1079.3V57.6985H1072.2V71.9497Z" fill="#E2F1F3"/>
<path d="M1058 57.6985H1050.9V64.8241H1058V57.6985Z" fill="#E2F1F3"/>
<path d="M1114.8 79.0687H1107.7V86.1943H1114.8V79.0687Z" fill="#E2F1F3"/>
<path d="M1100.6 71.9497H1093.5V79.0753H1100.6V71.9497Z" fill="#E2F1F3"/>
<path d="M1107.7 64.8241H1100.6V71.9497H1107.7V64.8241Z" fill="#E2F1F3"/>
<path d="M1093.5 86.201H1086.4V93.3266H1093.5V86.201Z" fill="#E2F1F3"/>
<path d="M1007.34 86.201H1000.24V93.3266H1007.34V86.201Z" fill="#E2F1F3"/>
<path d="M992.492 71.9497H985.392V79.0753H992.492V71.9497Z" fill="#E2F1F3"/>
<path d="M972.801 64.8241H958.608V71.9497H972.801V64.8241Z" fill="#E2F1F3"/>
<path d="M220.232 64.7642H206.032V71.8898H220.232V64.7642Z" fill="#E2F1F3"/>
<path d="M239.916 71.8831H232.816V79.0087H239.916V71.8831Z" fill="#E2F1F3"/>
<path d="M319.631 71.8898H326.731V57.6385H319.631V71.8898Z" fill="#E2F1F3"/>
<path d="M340.924 86.1344H333.824V93.26H340.924V86.1344Z" fill="#E2F1F3"/>
<path d="M312.85 71.8831H305.75V79.0087H312.85V71.8831Z" fill="#E2F1F3"/>
<path d="M376.424 64.7642H369.324V71.8898H376.424V79.0087H383.524V71.8831H376.424V64.7642H383.524V57.6385H376.424V64.7642Z" fill="#E2F1F3"/>
<path d="M305.425 57.6385H298.325V64.7642H305.425V57.6385Z" fill="#E2F1F3"/>
<path d="M348.024 71.8831H340.924V79.0087H348.024V71.8898H355.124V64.7642H348.024V71.8831Z" fill="#E2F1F3"/>
<path d="M362.224 79.0021H355.124V86.1277H362.224V79.0021Z" fill="#E2F1F3"/>
<path d="M269.925 57.6385V64.7642H263.47V71.8898H269.925V79.0087H284.125V57.6385H269.925ZM276.38 71.8831H269.925V64.7642H276.38V71.8831Z" fill="#E2F1F3"/>
<path d="M284.131 107.838H277.031V114.963H284.131V107.838Z" fill="#E2F1F3"/>
<path d="M254.761 86.1344H247.661V93.26H254.761V86.1344Z" fill="#E2F1F3"/>
<path d="M298.331 43.3873V57.6319H284.131V50.5063H291.225L291.231 43.3873H298.331Z" fill="#E2F1F3"/>
<path d="M291.231 79.0021H284.131V86.1277H291.231V79.0021Z" fill="#E2F1F3"/>
<path d="M822.744 86.141H815.644V93.2666H822.744V86.141Z" fill="#E2F1F3"/>
<path d="M807.893 71.8898H800.793V79.0154H807.893V71.8898Z" fill="#E2F1F3"/>
<path d="M852.108 107.844H845.008V114.97H852.108V107.844Z" fill="#E2F1F3"/>
<path d="M852.108 57.6385H837.908V64.7642H831.453V71.8898H837.908V79.0154H852.108V86.1344H859.208V79.0087H852.108V57.6385Z" fill="#E2F1F3"/>
<path d="M788.209 64.7642H774.009V71.8898H788.209V64.7642Z" fill="#E2F1F3"/>
<path d="M873.408 57.6385H866.308V64.7642H873.408V57.6385Z" fill="#E2F1F3"/>
<path d="M944.401 64.7642H937.308V71.8898H944.401V79.0154H951.501V71.8898H944.408V64.7642H951.501V57.6385H944.401V64.7642Z" fill="#E2F1F3"/>
<path d="M887.608 71.8898H894.708V57.6385H887.608V71.8898Z" fill="#E2F1F3"/>
<path d="M880.827 71.8898H873.727V79.0154H880.827V71.8898Z" fill="#E2F1F3"/>
<path d="M930.208 79.0087H923.108V86.1344H930.208V79.0087Z" fill="#E2F1F3"/>
<path d="M908.908 86.141H901.808V93.2666H908.908V86.141Z" fill="#E2F1F3"/>
<path d="M916.001 64.7642H923.101V71.8898H916.008V79.0154H908.908V71.8898H916.001V64.7642Z" fill="#E2F1F3"/>
<path d="M632.016 43.4406V50.5662H624.916V64.8174H617.816V57.6918H610.716V50.5662H617.816V43.4406H632.016Z" fill="#E2F1F3"/>
<path d="M639.116 50.5662H632.016V57.6918H639.116V50.5662Z" fill="#E2F1F3"/>
<path d="M623.946 86.1943H616.846V93.3199H623.946V86.1943Z" fill="#E2F1F3"/>
<path d="M609.101 71.943H602.001V79.0687H609.101V71.943Z" fill="#E2F1F3"/>
<path d="M589.416 64.8174H575.216V71.943H589.416V64.8174Z" fill="#E2F1F3"/>
<path d="M703.009 50.5662H695.909V57.6918H703.009V50.5662Z" fill="#E2F1F3"/>
<path d="M589.416 50.5662H582.316V57.6918H589.416V50.5662Z" fill="#E2F1F3"/>
<path d="M731.409 79.062H724.316V86.1876H731.409V79.062Z" fill="#E2F1F3"/>
<path d="M710.109 86.1943H703.009V93.3199H710.109V86.1943Z" fill="#E2F1F3"/>
<path d="M682.035 71.943H674.935V79.0687H682.035V71.943Z" fill="#E2F1F3"/>
<path d="M731.409 50.5662V64.8174H724.309V57.6918H717.216V50.5662H731.409Z" fill="#E2F1F3"/>
<path d="M717.209 71.943H710.109V79.0687H717.209V71.943Z" fill="#E2F1F3"/>
<path d="M724.309 64.8174H717.209V71.943H724.309V64.8174Z" fill="#E2F1F3"/>
<path d="M766.909 71.943H759.809V79.0687H766.909V71.943Z" fill="#E2F1F3"/>
<path d="M745.609 64.8174H738.509V71.943H745.609V79.0687H752.709V71.943H745.609V64.8174H752.709V57.6918H745.609V64.8174Z" fill="#E2F1F3"/>
<path d="M688.816 71.943H695.916V57.6918H688.816V71.943Z" fill="#E2F1F3"/>
<path d="M653.316 107.897H646.216V115.023H653.316V107.897Z" fill="#E2F1F3"/>
<path d="M667.516 43.4406V57.6918H653.316V50.5662H660.416V43.4406H667.516Z" fill="#E2F1F3"/>
<path d="M653.316 79.062V57.6918H639.116V64.8174H632.016V71.943H639.116V79.0687H653.316V86.1876H660.416V79.062H653.316ZM646.209 71.943H639.116V64.8174H646.209" fill="#E2F1F3"/>
<path d="M674.609 57.6918H667.509V64.8174H674.609V57.6918Z" fill="#E2F1F3"/>
<path d="M799.184 43.3873H797.682V43.394H799.184V43.3873Z" fill="#E2F1F3"/>
<path d="M797.682 36.255H796.159V36.2616H797.682V36.255Z" fill="#E2F1F3"/>
<path d="M799.184 43.3873H796.159V43.394H799.184V43.3873Z" fill="#E2F1F3"/>
<path d="M836.585 43.3873H830.808V43.394H836.585V43.3873Z" fill="#E2F1F3"/>
</svg>
