<svg width="30" height="30" viewBox="0 0 30 30" fill="none" xmlns="http://www.w3.org/2000/svg">
<g clip-path="url(#clip0_547_27416)">
<path fill-rule="evenodd" clip-rule="evenodd" d="M5.625 0H3.75V1.875H1.875V3.75H0V5.625V7.5V9.375V11.25V13.125V15V16.875V18.75V20.625V22.5V24.375V26.25H1.875V24.375V22.5V20.625V18.75V16.875V15V13.125V11.25V9.375V7.5V5.625V3.75H3.75V1.875H5.625H7.5H9.375H11.25H13.125H15H16.875H18.75H20.625H22.5H24.375H26.25V0H24.375H22.5H20.625H18.75H16.875H15H13.125H11.25H9.375H7.5H5.625Z" fill="#2B3255"/>
<path fill-rule="evenodd" clip-rule="evenodd" d="M3.75 1.875H5.625H7.5H9.375H11.25H13.125H15H16.875H18.75H20.625H22.5H24.375H26.25H28.125V3.75V5.625V7.5V9.375V11.25V13.125V15V16.875V18.75V20.625V22.5V24.375V26.25H26.8961V28.1278H11.3789V28.125H11.25H9.375H7.5H5.625H3.75H1.875V26.25V24.375V22.5V20.625V18.75V16.875V15V13.125V11.25V9.375V7.5V5.625V3.75H3.75V1.875Z" fill="currentColor"/>
<g clip-path="url(#clip1_547_27416)">
<path d="M18.3359 13.3337H19.1693V19.167H18.3359V20.0003H17.5026V20.8337H16.6693V21.667H15.8359V22.5003H15.0026V23.3337H14.1693V24.167H9.16927V23.3337H8.33594V22.5003H7.5026V21.667H6.66927V20.8337H5.83594V16.667H6.66927V15.8337H7.5026V15.0003H8.33594V14.167H9.16927V17.5003H8.33594V20.0003H9.16927V20.8337H10.0026V21.667H12.5026V20.8337H13.3359V20.0003H14.1693V19.167H15.0026V18.3337H15.8359V17.5003H16.6693V15.0003H15.8359V14.167H15.0026V13.3337H15.8359V12.5003H16.6693V11.667H17.5026V12.5003H18.3359V13.3337Z" fill="white"/>
<path d="M24.1693 9.16634V13.333H23.3359V14.1663H22.5026V14.9997H21.6693V15.833H20.8359V12.4997H21.6693V9.99967H20.8359V9.16634H20.0026V8.33301H17.5026V9.16634H16.6693V9.99967H15.8359V10.833H15.0026V11.6663H14.1693V12.4997H13.3359V14.9997H14.1693V15.833H15.0026V16.6663H14.1693V17.4997H13.3359V18.333H12.5026V17.4997H11.6693V16.6663H10.8359V10.833H11.6693V9.99967H12.5026V9.16634H13.3359V8.33301H14.1693V7.49967H15.0026V6.66634H15.8359V5.83301H20.8359V6.66634H21.6693V7.49967H22.5026V8.33301H23.3359V9.16634H24.1693Z" fill="white"/>
</g>
<path fill-rule="evenodd" clip-rule="evenodd" d="M28.125 3.75H30V5.625V7.5V9.375V11.25V13.125V15V16.875V18.75V20.625V22.5V24.375V26.25H28.125V24.375V22.5V20.625V18.75V16.875V15V13.125V11.25V9.375V7.5V5.625V3.75ZM26.25 28.125H28.125V26.25H26.25V28.125ZM24.375 30H26.25V28.125H24.375H22.5H20.625V28.1274H16.875V28.125H15H13.125H11.25H9.375H7.5H5.625H3.75V30H5.625H7.5H9.375H11.25H13.125H15H16.875V29.9999H20.625V30H22.5H24.375Z" fill="currentColor"/>
</g>
<defs>
<clipPath id="clip0_547_27416">
<rect width="30" height="30" fill="white"/>
</clipPath>
<clipPath id="clip1_547_27416">
<rect width="20" height="20" fill="white" transform="translate(5 5)"/>
</clipPath>
</defs>
</svg>
