<svg
        xmlns="http://www.w3.org/2000/svg"
        width="10"
        height="20"
        viewBox="0 0 10 20"
        fill="none"
>
    <path
            d="M8.59593 9.20962L8.59593 8.38271L7.76901 8.38271L7.76901 7.55581L6.94209 7.55581L6.94209 6.72884L6.11517 6.72884L6.11517 5.90193L5.28824 5.90193L5.28824 5.07503L4.46132 5.07503L4.46132 4.24812L3.6344 4.24812L3.6344 3.42115L2.80748 3.42115L2.80748 2.59424L1.98056 2.59424L1.98056 1.76734L1.15364 1.76734L1.15364 0.940429L0.326712 0.940429L0.326711 19.0557L1.15364 19.0557L1.15364 18.2288L1.98056 18.2288L1.98056 17.4019L2.80748 17.4019L2.80748 16.575L3.6344 16.575L3.6344 15.7481L4.46132 15.7481L4.46132 14.9212L5.28824 14.9212L5.28824 14.0942L6.11517 14.0942L6.11517 13.2673L6.94209 13.2673L6.94209 12.4404L7.76901 12.4404L7.76901 11.6135L8.59593 11.6135L8.59593 10.7866L9.42285 10.7866L9.42285 9.13268L8.59593 9.13268L8.59593 9.20962Z"
            fill="currentColor"
    />
</svg>
