<svg width="728" height="238" viewBox="0 0 728 238" fill="none" xmlns="http://www.w3.org/2000/svg">
<g filter="url(#filter0_b_428_2847)">
<rect x="60" y="90" width="608" height="148" rx="12" fill="#CDFFCC" fill-opacity="0.1"/>
</g>
<g filter="url(#filter1_b_428_2847)">
<rect x="40" y="70" width="648" height="148" rx="12" fill="#CDFFCC" fill-opacity="0.2"/>
</g>
<g filter="url(#filter2_b_428_2847)">
<rect x="20" y="40" width="688" height="148" rx="12" fill="#CDFFCC" fill-opacity="0.4"/>
</g>
<g filter="url(#filter3_b_428_2847)">
<rect width="728" height="148" rx="12" fill="#CDFFCC"/>
</g>
<mask id="mask0_428_2847" style="mask-type:alpha" maskUnits="userSpaceOnUse" x="0" y="0" width="728" height="148">
<rect width="728" height="148" rx="12" fill="url(#paint0_linear_428_2847)"/>
</mask>
<g mask="url(#mask0_428_2847)">
<g opacity="0.3">
<rect x="28.5" y="-18" width="16" height="201" transform="rotate(30 28.5 -18)" fill="white"/>
<rect x="72.8555" y="-18" width="16" height="201" transform="rotate(30 72.8555 -18)" fill="white"/>
<rect x="117.211" y="-18" width="16" height="201" transform="rotate(30 117.211 -18)" fill="white"/>
<rect x="161.57" y="-18" width="16" height="201" transform="rotate(30 161.57 -18)" fill="white"/>
<rect x="205.926" y="-18" width="16" height="201" transform="rotate(30 205.926 -18)" fill="white"/>
<rect x="250.281" y="-18" width="16" height="201" transform="rotate(30 250.281 -18)" fill="white"/>
<rect x="294.637" y="-18" width="16" height="201" transform="rotate(30 294.637 -18)" fill="white"/>
<rect x="338.996" y="-18" width="16" height="201" transform="rotate(30 338.996 -18)" fill="white"/>
<rect x="383.352" y="-18" width="16" height="201" transform="rotate(30 383.352 -18)" fill="white"/>
<rect x="427.707" y="-18" width="16" height="201" transform="rotate(30 427.707 -18)" fill="white"/>
<rect x="472.062" y="-18" width="16" height="201" transform="rotate(30 472.062 -18)" fill="white"/>
<rect x="516.422" y="-18" width="16" height="201" transform="rotate(30 516.422 -18)" fill="white"/>
<rect x="560.777" y="-18" width="16" height="201" transform="rotate(30 560.777 -18)" fill="white"/>
<rect x="605.133" y="-18" width="16" height="201" transform="rotate(30 605.133 -18)" fill="white"/>
<rect x="649.488" y="-18" width="16" height="201" transform="rotate(30 649.488 -18)" fill="white"/>
<rect x="693.848" y="-18" width="16" height="201" transform="rotate(30 693.848 -18)" fill="white"/>
<rect x="738.203" y="-18" width="16" height="201" transform="rotate(30 738.203 -18)" fill="white"/>
<rect x="782.559" y="-18" width="16" height="201" transform="rotate(30 782.559 -18)" fill="white"/>
</g>
</g>
<path opacity="0.8" d="M192.436 83.264C191.409 83.264 190.456 83.0733 189.576 82.692C188.696 82.296 187.948 81.7607 187.332 81.086C186.716 80.4113 186.261 79.634 185.968 78.754L188.168 77.83C188.564 78.842 189.143 79.6193 189.906 80.162C190.669 80.7047 191.549 80.976 192.546 80.976C193.133 80.976 193.646 80.888 194.086 80.712C194.526 80.5213 194.863 80.2573 195.098 79.92C195.347 79.5827 195.472 79.194 195.472 78.754C195.472 78.1527 195.303 77.676 194.966 77.324C194.629 76.972 194.13 76.6933 193.47 76.488L190.39 75.52C189.158 75.1387 188.219 74.5593 187.574 73.782C186.929 72.99 186.606 72.066 186.606 71.01C186.606 70.086 186.833 69.2793 187.288 68.59C187.743 67.886 188.366 67.336 189.158 66.94C189.965 66.544 190.881 66.346 191.908 66.346C192.891 66.346 193.785 66.522 194.592 66.874C195.399 67.2113 196.088 67.6807 196.66 68.282C197.247 68.8833 197.672 69.58 197.936 70.372L195.78 71.318C195.457 70.4527 194.951 69.7853 194.262 69.316C193.587 68.8467 192.803 68.612 191.908 68.612C191.365 68.612 190.889 68.7073 190.478 68.898C190.067 69.074 189.745 69.338 189.51 69.69C189.29 70.0273 189.18 70.4233 189.18 70.878C189.18 71.406 189.349 71.8753 189.686 72.286C190.023 72.6967 190.537 73.0047 191.226 73.21L194.086 74.112C195.391 74.508 196.374 75.08 197.034 75.828C197.694 76.5613 198.024 77.478 198.024 78.578C198.024 79.4873 197.782 80.294 197.298 80.998C196.829 81.702 196.176 82.2593 195.34 82.67C194.504 83.066 193.536 83.264 192.436 83.264ZM200.696 87.4V71.098H203.072V73.562L202.786 72.99C203.226 72.3153 203.813 71.7873 204.546 71.406C205.279 71.0247 206.115 70.834 207.054 70.834C208.183 70.834 209.195 71.1053 210.09 71.648C210.999 72.1907 211.711 72.9313 212.224 73.87C212.752 74.8087 213.016 75.8647 213.016 77.038C213.016 78.2113 212.752 79.2673 212.224 80.206C211.711 81.1447 211.007 81.8927 210.112 82.45C209.217 82.9927 208.198 83.264 207.054 83.264C206.13 83.264 205.287 83.0733 204.524 82.692C203.776 82.3107 203.197 81.7607 202.786 81.042L203.182 80.58V87.4H200.696ZM206.812 80.954C207.516 80.954 208.139 80.7853 208.682 80.448C209.225 80.1107 209.65 79.6487 209.958 79.062C210.281 78.4607 210.442 77.786 210.442 77.038C210.442 76.29 210.281 75.6227 209.958 75.036C209.65 74.4493 209.225 73.9873 208.682 73.65C208.139 73.3127 207.516 73.144 206.812 73.144C206.123 73.144 205.499 73.3127 204.942 73.65C204.399 73.9873 203.967 74.4493 203.644 75.036C203.336 75.6227 203.182 76.29 203.182 77.038C203.182 77.786 203.336 78.4607 203.644 79.062C203.967 79.6487 204.399 80.1107 204.942 80.448C205.499 80.7853 206.123 80.954 206.812 80.954ZM221.022 83.264C219.834 83.264 218.778 82.9927 217.854 82.45C216.945 81.8927 216.234 81.1447 215.72 80.206C215.207 79.2527 214.95 78.1893 214.95 77.016C214.95 75.8133 215.207 74.75 215.72 73.826C216.248 72.902 216.952 72.176 217.832 71.648C218.712 71.1053 219.71 70.834 220.824 70.834C221.719 70.834 222.518 70.988 223.222 71.296C223.926 71.604 224.52 72.0293 225.004 72.572C225.488 73.1 225.855 73.7087 226.104 74.398C226.368 75.0873 226.5 75.8207 226.5 76.598C226.5 76.7887 226.493 76.9867 226.478 77.192C226.464 77.3973 226.434 77.588 226.39 77.764H216.908V75.784H224.982L223.794 76.686C223.941 75.9673 223.89 75.3293 223.64 74.772C223.406 74.2 223.039 73.7527 222.54 73.43C222.056 73.0927 221.484 72.924 220.824 72.924C220.164 72.924 219.578 73.0927 219.064 73.43C218.551 73.7527 218.155 74.222 217.876 74.838C217.598 75.4393 217.488 76.1727 217.546 77.038C217.473 77.8447 217.583 78.5487 217.876 79.15C218.184 79.7513 218.61 80.2207 219.152 80.558C219.71 80.8953 220.34 81.064 221.044 81.064C221.763 81.064 222.372 80.9027 222.87 80.58C223.384 80.2573 223.787 79.8393 224.08 79.326L226.104 80.316C225.87 80.8733 225.503 81.3793 225.004 81.834C224.52 82.274 223.934 82.626 223.244 82.89C222.57 83.1393 221.829 83.264 221.022 83.264ZM232.383 83.264C231.577 83.264 230.865 83.1247 230.249 82.846C229.648 82.5527 229.179 82.1567 228.841 81.658C228.504 81.1447 228.335 80.5433 228.335 79.854C228.335 79.2087 228.475 78.6293 228.753 78.116C229.047 77.6027 229.494 77.17 230.095 76.818C230.697 76.466 231.452 76.2167 232.361 76.07L236.497 75.388V77.346L232.845 77.984C232.185 78.1013 231.701 78.314 231.393 78.622C231.085 78.9153 230.931 79.2967 230.931 79.766C230.931 80.2207 231.1 80.5947 231.437 80.888C231.789 81.1667 232.237 81.306 232.779 81.306C233.454 81.306 234.041 81.1593 234.539 80.866C235.053 80.5727 235.449 80.184 235.727 79.7C236.006 79.2013 236.145 78.6513 236.145 78.05V74.992C236.145 74.4053 235.925 73.9287 235.485 73.562C235.06 73.1807 234.488 72.99 233.769 72.99C233.109 72.99 232.53 73.166 232.031 73.518C231.547 73.8553 231.188 74.2953 230.953 74.838L228.885 73.804C229.105 73.2173 229.465 72.704 229.963 72.264C230.462 71.8093 231.041 71.4573 231.701 71.208C232.376 70.9587 233.087 70.834 233.835 70.834C234.774 70.834 235.603 71.01 236.321 71.362C237.055 71.714 237.619 72.2053 238.015 72.836C238.426 73.452 238.631 74.1707 238.631 74.992V83H236.255V80.844L236.761 80.91C236.483 81.394 236.123 81.812 235.683 82.164C235.258 82.516 234.767 82.7873 234.209 82.978C233.667 83.1687 233.058 83.264 232.383 83.264ZM241.538 83V66.346H244.024V77.5L243.056 77.258L249.018 71.098H252.12L247.632 75.872L252.318 83H249.458L245.278 76.686L246.752 76.488L243.232 80.228L244.024 78.578V83H241.538ZM259.394 83.264C258.206 83.264 257.15 82.9927 256.226 82.45C255.316 81.8927 254.605 81.1447 254.092 80.206C253.578 79.2527 253.322 78.1893 253.322 77.016C253.322 75.8133 253.578 74.75 254.092 73.826C254.62 72.902 255.324 72.176 256.204 71.648C257.084 71.1053 258.081 70.834 259.196 70.834C260.09 70.834 260.89 70.988 261.594 71.296C262.298 71.604 262.892 72.0293 263.376 72.572C263.86 73.1 264.226 73.7087 264.476 74.398C264.74 75.0873 264.872 75.8207 264.872 76.598C264.872 76.7887 264.864 76.9867 264.85 77.192C264.835 77.3973 264.806 77.588 264.762 77.764H255.28V75.784H263.354L262.166 76.686C262.312 75.9673 262.261 75.3293 262.012 74.772C261.777 74.2 261.41 73.7527 260.912 73.43C260.428 73.0927 259.856 72.924 259.196 72.924C258.536 72.924 257.949 73.0927 257.436 73.43C256.922 73.7527 256.526 74.222 256.248 74.838C255.969 75.4393 255.859 76.1727 255.918 77.038C255.844 77.8447 255.954 78.5487 256.248 79.15C256.556 79.7513 256.981 80.2207 257.524 80.558C258.081 80.8953 258.712 81.064 259.416 81.064C260.134 81.064 260.743 80.9027 261.242 80.58C261.755 80.2573 262.158 79.8393 262.452 79.326L264.476 80.316C264.241 80.8733 263.874 81.3793 263.376 81.834C262.892 82.274 262.305 82.626 261.616 82.89C260.941 83.1393 260.2 83.264 259.394 83.264ZM267.298 83V71.098H269.674V73.496L269.454 73.144C269.718 72.3667 270.143 71.8093 270.73 71.472C271.316 71.12 272.02 70.944 272.842 70.944H273.568V73.21H272.534C271.712 73.21 271.045 73.4667 270.532 73.98C270.033 74.4787 269.784 75.1973 269.784 76.136V83H267.298ZM285.098 83.264C284.071 83.264 283.118 83.0733 282.238 82.692C281.358 82.296 280.61 81.7607 279.994 81.086C279.378 80.4113 278.923 79.634 278.63 78.754L280.83 77.83C281.226 78.842 281.805 79.6193 282.568 80.162C283.331 80.7047 284.211 80.976 285.208 80.976C285.795 80.976 286.308 80.888 286.748 80.712C287.188 80.5213 287.525 80.2573 287.76 79.92C288.009 79.5827 288.134 79.194 288.134 78.754C288.134 78.1527 287.965 77.676 287.628 77.324C287.291 76.972 286.792 76.6933 286.132 76.488L283.052 75.52C281.82 75.1387 280.881 74.5593 280.236 73.782C279.591 72.99 279.268 72.066 279.268 71.01C279.268 70.086 279.495 69.2793 279.95 68.59C280.405 67.886 281.028 67.336 281.82 66.94C282.627 66.544 283.543 66.346 284.57 66.346C285.553 66.346 286.447 66.522 287.254 66.874C288.061 67.2113 288.75 67.6807 289.322 68.282C289.909 68.8833 290.334 69.58 290.598 70.372L288.442 71.318C288.119 70.4527 287.613 69.7853 286.924 69.316C286.249 68.8467 285.465 68.612 284.57 68.612C284.027 68.612 283.551 68.7073 283.14 68.898C282.729 69.074 282.407 69.338 282.172 69.69C281.952 70.0273 281.842 70.4233 281.842 70.878C281.842 71.406 282.011 71.8753 282.348 72.286C282.685 72.6967 283.199 73.0047 283.888 73.21L286.748 74.112C288.053 74.508 289.036 75.08 289.696 75.828C290.356 76.5613 290.686 77.478 290.686 78.578C290.686 79.4873 290.444 80.294 289.96 80.998C289.491 81.702 288.838 82.2593 288.002 82.67C287.166 83.066 286.198 83.264 285.098 83.264ZM299.012 83.264C297.824 83.264 296.768 82.9927 295.844 82.45C294.935 81.8927 294.209 81.1447 293.666 80.206C293.138 79.2673 292.874 78.204 292.874 77.016C292.874 75.8427 293.138 74.7867 293.666 73.848C294.194 72.9093 294.92 72.176 295.844 71.648C296.768 71.1053 297.824 70.834 299.012 70.834C299.819 70.834 300.574 70.9807 301.278 71.274C301.982 71.5527 302.591 71.9413 303.104 72.44C303.632 72.9387 304.021 73.518 304.27 74.178L302.092 75.19C301.843 74.574 301.44 74.0827 300.882 73.716C300.34 73.3347 299.716 73.144 299.012 73.144C298.338 73.144 297.729 73.3127 297.186 73.65C296.658 73.9727 296.24 74.4347 295.932 75.036C295.624 75.6227 295.47 76.29 295.47 77.038C295.47 77.786 295.624 78.4607 295.932 79.062C296.24 79.6487 296.658 80.1107 297.186 80.448C297.729 80.7853 298.338 80.954 299.012 80.954C299.731 80.954 300.354 80.7707 300.882 80.404C301.425 80.0227 301.828 79.5167 302.092 78.886L304.27 79.92C304.036 80.5507 303.654 81.1227 303.126 81.636C302.613 82.1347 302.004 82.5307 301.3 82.824C300.596 83.1173 299.834 83.264 299.012 83.264ZM306.7 83V66.346H309.186V73.43L308.79 73.122C309.083 72.374 309.553 71.8093 310.198 71.428C310.843 71.032 311.591 70.834 312.442 70.834C313.322 70.834 314.099 71.0247 314.774 71.406C315.449 71.7873 315.977 72.3153 316.358 72.99C316.739 73.6647 316.93 74.4347 316.93 75.3V83H314.466V75.982C314.466 75.3807 314.349 74.8747 314.114 74.464C313.894 74.0387 313.586 73.716 313.19 73.496C312.794 73.2613 312.339 73.144 311.826 73.144C311.327 73.144 310.873 73.2613 310.462 73.496C310.066 73.716 309.751 74.0387 309.516 74.464C309.296 74.8893 309.186 75.3953 309.186 75.982V83H306.7ZM325.179 83.264C323.991 83.264 322.935 82.9927 322.011 82.45C321.101 81.8927 320.39 81.1447 319.877 80.206C319.363 79.2527 319.107 78.1893 319.107 77.016C319.107 75.8133 319.363 74.75 319.877 73.826C320.405 72.902 321.109 72.176 321.989 71.648C322.869 71.1053 323.866 70.834 324.981 70.834C325.875 70.834 326.675 70.988 327.379 71.296C328.083 71.604 328.677 72.0293 329.161 72.572C329.645 73.1 330.011 73.7087 330.261 74.398C330.525 75.0873 330.657 75.8207 330.657 76.598C330.657 76.7887 330.649 76.9867 330.635 77.192C330.62 77.3973 330.591 77.588 330.547 77.764H321.065V75.784H329.139L327.951 76.686C328.097 75.9673 328.046 75.3293 327.797 74.772C327.562 74.2 327.195 73.7527 326.697 73.43C326.213 73.0927 325.641 72.924 324.981 72.924C324.321 72.924 323.734 73.0927 323.221 73.43C322.707 73.7527 322.311 74.222 322.033 74.838C321.754 75.4393 321.644 76.1727 321.703 77.038C321.629 77.8447 321.739 78.5487 322.033 79.15C322.341 79.7513 322.766 80.2207 323.309 80.558C323.866 80.8953 324.497 81.064 325.201 81.064C325.919 81.064 326.528 80.9027 327.027 80.58C327.54 80.2573 327.943 79.8393 328.237 79.326L330.261 80.316C330.026 80.8733 329.659 81.3793 329.161 81.834C328.677 82.274 328.09 82.626 327.401 82.89C326.726 83.1393 325.985 83.264 325.179 83.264ZM338.583 83.264C337.439 83.264 336.412 82.9927 335.503 82.45C334.608 81.8927 333.897 81.1447 333.369 80.206C332.856 79.2673 332.599 78.2113 332.599 77.038C332.599 75.8647 332.863 74.8087 333.391 73.87C333.919 72.9313 334.63 72.1907 335.525 71.648C336.42 71.1053 337.432 70.834 338.561 70.834C339.514 70.834 340.358 71.0247 341.091 71.406C341.824 71.7873 342.404 72.3153 342.829 72.99L342.455 73.562V66.346H344.919V83H342.565V80.58L342.851 81.042C342.44 81.7607 341.854 82.3107 341.091 82.692C340.328 83.0733 339.492 83.264 338.583 83.264ZM338.825 80.954C339.514 80.954 340.13 80.7853 340.673 80.448C341.23 80.1107 341.663 79.6487 341.971 79.062C342.294 78.4607 342.455 77.786 342.455 77.038C342.455 76.29 342.294 75.6227 341.971 75.036C341.663 74.4493 341.23 73.9873 340.673 73.65C340.13 73.3127 339.514 73.144 338.825 73.144C338.136 73.144 337.512 73.3127 336.955 73.65C336.398 73.9873 335.965 74.4493 335.657 75.036C335.349 75.6227 335.195 76.29 335.195 77.038C335.195 77.786 335.349 78.4607 335.657 79.062C335.965 79.6487 336.39 80.1107 336.933 80.448C337.49 80.7853 338.121 80.954 338.825 80.954ZM352.067 83.264C351.172 83.264 350.388 83.066 349.713 82.67C349.038 82.2593 348.51 81.6947 348.129 80.976C347.762 80.2427 347.579 79.3993 347.579 78.446V71.098H350.065V78.226C350.065 78.7687 350.175 79.2453 350.395 79.656C350.615 80.0667 350.923 80.3893 351.319 80.624C351.715 80.844 352.17 80.954 352.683 80.954C353.211 80.954 353.673 80.8367 354.069 80.602C354.465 80.3673 354.773 80.0373 354.993 79.612C355.228 79.1867 355.345 78.688 355.345 78.116V71.098H357.809V83H355.455V80.668L355.719 80.976C355.44 81.7093 354.978 82.274 354.333 82.67C353.688 83.066 352.932 83.264 352.067 83.264ZM360.712 83V66.346H363.198V83H360.712ZM371.692 83.264C370.504 83.264 369.448 82.9927 368.524 82.45C367.615 81.8927 366.904 81.1447 366.39 80.206C365.877 79.2527 365.62 78.1893 365.62 77.016C365.62 75.8133 365.877 74.75 366.39 73.826C366.918 72.902 367.622 72.176 368.502 71.648C369.382 71.1053 370.38 70.834 371.494 70.834C372.389 70.834 373.188 70.988 373.892 71.296C374.596 71.604 375.19 72.0293 375.674 72.572C376.158 73.1 376.525 73.7087 376.774 74.398C377.038 75.0873 377.17 75.8207 377.17 76.598C377.17 76.7887 377.163 76.9867 377.148 77.192C377.134 77.3973 377.104 77.588 377.06 77.764H367.578V75.784H375.652L374.464 76.686C374.611 75.9673 374.56 75.3293 374.31 74.772C374.076 74.2 373.709 73.7527 373.21 73.43C372.726 73.0927 372.154 72.924 371.494 72.924C370.834 72.924 370.248 73.0927 369.734 73.43C369.221 73.7527 368.825 74.222 368.546 74.838C368.268 75.4393 368.158 76.1727 368.216 77.038C368.143 77.8447 368.253 78.5487 368.546 79.15C368.854 79.7513 369.28 80.2207 369.822 80.558C370.38 80.8953 371.01 81.064 371.714 81.064C372.433 81.064 373.042 80.9027 373.54 80.58C374.054 80.2573 374.457 79.8393 374.75 79.326L376.774 80.316C376.54 80.8733 376.173 81.3793 375.674 81.834C375.19 82.274 374.604 82.626 373.914 82.89C373.24 83.1393 372.499 83.264 371.692 83.264ZM389.096 83.264C387.908 83.264 386.852 82.9927 385.928 82.45C385.019 81.8927 384.293 81.1447 383.75 80.206C383.222 79.2673 382.958 78.204 382.958 77.016C382.958 75.8427 383.222 74.7867 383.75 73.848C384.278 72.9093 385.004 72.176 385.928 71.648C386.852 71.1053 387.908 70.834 389.096 70.834C389.903 70.834 390.658 70.9807 391.362 71.274C392.066 71.5527 392.675 71.9413 393.188 72.44C393.716 72.9387 394.105 73.518 394.354 74.178L392.176 75.19C391.927 74.574 391.524 74.0827 390.966 73.716C390.424 73.3347 389.8 73.144 389.096 73.144C388.422 73.144 387.813 73.3127 387.27 73.65C386.742 73.9727 386.324 74.4347 386.016 75.036C385.708 75.6227 385.554 76.29 385.554 77.038C385.554 77.786 385.708 78.4607 386.016 79.062C386.324 79.6487 386.742 80.1107 387.27 80.448C387.813 80.7853 388.422 80.954 389.096 80.954C389.815 80.954 390.438 80.7707 390.966 80.404C391.509 80.0227 391.912 79.5167 392.176 78.886L394.354 79.92C394.12 80.5507 393.738 81.1227 393.21 81.636C392.697 82.1347 392.088 82.5307 391.384 82.824C390.68 83.1173 389.918 83.264 389.096 83.264ZM402.526 83.264C401.382 83.264 400.333 82.9927 399.38 82.45C398.441 81.9073 397.693 81.1667 397.136 80.228C396.579 79.2893 396.3 78.226 396.3 77.038C396.3 75.8353 396.579 74.772 397.136 73.848C397.693 72.9093 398.441 72.176 399.38 71.648C400.319 71.1053 401.367 70.834 402.526 70.834C403.699 70.834 404.748 71.1053 405.672 71.648C406.611 72.176 407.351 72.9093 407.894 73.848C408.451 74.772 408.73 75.8353 408.73 77.038C408.73 78.2407 408.451 79.3113 407.894 80.25C407.337 81.1887 406.589 81.9293 405.65 82.472C404.711 83 403.67 83.264 402.526 83.264ZM402.526 80.954C403.23 80.954 403.853 80.7853 404.396 80.448C404.939 80.1107 405.364 79.6487 405.672 79.062C405.995 78.4607 406.156 77.786 406.156 77.038C406.156 76.29 405.995 75.6227 405.672 75.036C405.364 74.4493 404.939 73.9873 404.396 73.65C403.853 73.3127 403.23 73.144 402.526 73.144C401.837 73.144 401.213 73.3127 400.656 73.65C400.113 73.9873 399.681 74.4493 399.358 75.036C399.05 75.6227 398.896 76.29 398.896 77.038C398.896 77.786 399.05 78.4607 399.358 79.062C399.681 79.6487 400.113 80.1107 400.656 80.448C401.213 80.7853 401.837 80.954 402.526 80.954ZM411.157 83V71.098H413.533V73.672L413.225 73.276C413.474 72.4693 413.929 71.8607 414.589 71.45C415.249 71.0393 416.004 70.834 416.855 70.834C417.808 70.834 418.652 71.0907 419.385 71.604C420.133 72.1027 420.632 72.77 420.881 73.606L420.177 73.672C420.529 72.7187 421.064 72.0073 421.783 71.538C422.516 71.0687 423.352 70.834 424.291 70.834C425.112 70.834 425.853 71.0247 426.513 71.406C427.188 71.7873 427.723 72.3153 428.119 72.99C428.515 73.6647 428.713 74.4347 428.713 75.3V83H426.227V75.982C426.227 75.3807 426.117 74.8747 425.897 74.464C425.692 74.0387 425.398 73.716 425.017 73.496C424.65 73.2613 424.218 73.144 423.719 73.144C423.22 73.144 422.78 73.2613 422.399 73.496C422.018 73.716 421.717 74.0387 421.497 74.464C421.277 74.8893 421.167 75.3953 421.167 75.982V83H418.703V75.982C418.703 75.3807 418.593 74.8747 418.373 74.464C418.168 74.0387 417.874 73.716 417.493 73.496C417.126 73.2613 416.686 73.144 416.173 73.144C415.674 73.144 415.234 73.2613 414.853 73.496C414.472 73.716 414.171 74.0387 413.951 74.464C413.746 74.8893 413.643 75.3953 413.643 75.982V83H411.157ZM431.374 83V71.098H433.86V83H431.374ZM431.374 69.47V66.61H433.86V69.47H431.374ZM436.766 83V71.098H439.142V73.43L438.856 73.122C439.15 72.374 439.619 71.8093 440.264 71.428C440.91 71.032 441.658 70.834 442.508 70.834C443.388 70.834 444.166 71.0247 444.84 71.406C445.515 71.7873 446.043 72.3153 446.424 72.99C446.806 73.6647 446.996 74.442 446.996 75.322V83H444.532V75.982C444.532 75.3807 444.422 74.8747 444.202 74.464C443.982 74.0387 443.667 73.716 443.256 73.496C442.86 73.2613 442.406 73.144 441.892 73.144C441.379 73.144 440.917 73.2613 440.506 73.496C440.11 73.716 439.802 74.0387 439.582 74.464C439.362 74.8893 439.252 75.3953 439.252 75.982V83H436.766ZM455.399 87.84C454.534 87.84 453.734 87.7007 453.001 87.422C452.268 87.1433 451.637 86.7547 451.109 86.256C450.581 85.772 450.185 85.2 449.921 84.54L452.209 83.594C452.414 84.1513 452.788 84.6133 453.331 84.98C453.888 85.3467 454.57 85.53 455.377 85.53C456.008 85.53 456.572 85.4053 457.071 85.156C457.57 84.9213 457.966 84.5693 458.259 84.1C458.552 83.6453 458.699 83.0953 458.699 82.45V79.766L459.139 80.272C458.728 81.0347 458.156 81.614 457.423 82.01C456.704 82.406 455.89 82.604 454.981 82.604C453.881 82.604 452.891 82.3473 452.011 81.834C451.131 81.3207 450.434 80.6167 449.921 79.722C449.422 78.8273 449.173 77.8227 449.173 76.708C449.173 75.5787 449.422 74.574 449.921 73.694C450.434 72.814 451.124 72.1173 451.989 71.604C452.854 71.0907 453.844 70.834 454.959 70.834C455.868 70.834 456.675 71.032 457.379 71.428C458.098 71.8093 458.684 72.3667 459.139 73.1L458.809 73.716V71.098H461.163V82.45C461.163 83.4767 460.914 84.3933 460.415 85.2C459.931 86.0213 459.256 86.6667 458.391 87.136C457.526 87.6053 456.528 87.84 455.399 87.84ZM455.267 80.294C455.927 80.294 456.514 80.14 457.027 79.832C457.54 79.5093 457.944 79.084 458.237 78.556C458.545 78.0133 458.699 77.4047 458.699 76.73C458.699 76.0553 458.545 75.4467 458.237 74.904C457.929 74.3613 457.518 73.936 457.005 73.628C456.492 73.3053 455.912 73.144 455.267 73.144C454.592 73.144 453.991 73.3053 453.463 73.628C452.935 73.936 452.517 74.3613 452.209 74.904C451.916 75.432 451.769 76.0407 451.769 76.73C451.769 77.39 451.916 77.9913 452.209 78.534C452.517 79.0767 452.935 79.5093 453.463 79.832C453.991 80.14 454.592 80.294 455.267 80.294ZM472.319 83.264C471.101 83.264 470.031 82.9633 469.107 82.362C468.197 81.7607 467.559 80.954 467.193 79.942L469.107 79.04C469.429 79.7147 469.869 80.25 470.427 80.646C470.999 81.042 471.629 81.24 472.319 81.24C472.905 81.24 473.382 81.108 473.749 80.844C474.115 80.58 474.299 80.2207 474.299 79.766C474.299 79.4727 474.218 79.238 474.057 79.062C473.895 78.8713 473.69 78.7173 473.441 78.6C473.206 78.4827 472.964 78.3947 472.715 78.336L470.845 77.808C469.818 77.5147 469.048 77.0747 468.535 76.488C468.036 75.8867 467.787 75.19 467.787 74.398C467.787 73.6793 467.97 73.056 468.337 72.528C468.703 71.9853 469.209 71.5673 469.855 71.274C470.5 70.9807 471.226 70.834 472.033 70.834C473.118 70.834 474.086 71.1053 474.937 71.648C475.787 72.176 476.389 72.9167 476.741 73.87L474.827 74.772C474.592 74.2 474.218 73.7453 473.705 73.408C473.206 73.0707 472.641 72.902 472.011 72.902C471.468 72.902 471.035 73.034 470.713 73.298C470.39 73.5473 470.229 73.8773 470.229 74.288C470.229 74.5667 470.302 74.8013 470.449 74.992C470.595 75.168 470.786 75.3147 471.021 75.432C471.255 75.5347 471.497 75.6227 471.747 75.696L473.683 76.268C474.665 76.5467 475.421 76.9867 475.949 77.588C476.477 78.1747 476.741 78.8787 476.741 79.7C476.741 80.404 476.55 81.0273 476.169 81.57C475.802 82.098 475.289 82.516 474.629 82.824C473.969 83.1173 473.199 83.264 472.319 83.264ZM484.919 83.264C483.775 83.264 482.726 82.9927 481.773 82.45C480.834 81.9073 480.086 81.1667 479.529 80.228C478.971 79.2893 478.693 78.226 478.693 77.038C478.693 75.8353 478.971 74.772 479.529 73.848C480.086 72.9093 480.834 72.176 481.773 71.648C482.711 71.1053 483.76 70.834 484.919 70.834C486.092 70.834 487.141 71.1053 488.065 71.648C489.003 72.176 489.744 72.9093 490.287 73.848C490.844 74.772 491.123 75.8353 491.123 77.038C491.123 78.2407 490.844 79.3113 490.287 80.25C489.729 81.1887 488.981 81.9293 488.043 82.472C487.104 83 486.063 83.264 484.919 83.264ZM484.919 80.954C485.623 80.954 486.246 80.7853 486.789 80.448C487.331 80.1107 487.757 79.6487 488.065 79.062C488.387 78.4607 488.549 77.786 488.549 77.038C488.549 76.29 488.387 75.6227 488.065 75.036C487.757 74.4493 487.331 73.9873 486.789 73.65C486.246 73.3127 485.623 73.144 484.919 73.144C484.229 73.144 483.606 73.3127 483.049 73.65C482.506 73.9873 482.073 74.4493 481.751 75.036C481.443 75.6227 481.289 76.29 481.289 77.038C481.289 77.786 481.443 78.4607 481.751 79.062C482.073 79.6487 482.506 80.1107 483.049 80.448C483.606 80.7853 484.229 80.954 484.919 80.954ZM499.292 83.264C498.148 83.264 497.099 82.9927 496.146 82.45C495.207 81.9073 494.459 81.1667 493.902 80.228C493.344 79.2893 493.066 78.226 493.066 77.038C493.066 75.8353 493.344 74.772 493.902 73.848C494.459 72.9093 495.207 72.176 496.146 71.648C497.084 71.1053 498.133 70.834 499.292 70.834C500.465 70.834 501.514 71.1053 502.438 71.648C503.376 72.176 504.117 72.9093 504.66 73.848C505.217 74.772 505.496 75.8353 505.496 77.038C505.496 78.2407 505.217 79.3113 504.66 80.25C504.102 81.1887 503.354 81.9293 502.416 82.472C501.477 83 500.436 83.264 499.292 83.264ZM499.292 80.954C499.996 80.954 500.619 80.7853 501.162 80.448C501.704 80.1107 502.13 79.6487 502.438 79.062C502.76 78.4607 502.922 77.786 502.922 77.038C502.922 76.29 502.76 75.6227 502.438 75.036C502.13 74.4493 501.704 73.9873 501.162 73.65C500.619 73.3127 499.996 73.144 499.292 73.144C498.602 73.144 497.979 73.3127 497.422 73.65C496.879 73.9873 496.446 74.4493 496.124 75.036C495.816 75.6227 495.662 76.29 495.662 77.038C495.662 77.786 495.816 78.4607 496.124 79.062C496.446 79.6487 496.879 80.1107 497.422 80.448C497.979 80.7853 498.602 80.954 499.292 80.954ZM507.923 83V71.098H510.299V73.43L510.013 73.122C510.306 72.374 510.775 71.8093 511.421 71.428C512.066 71.032 512.814 70.834 513.665 70.834C514.545 70.834 515.322 71.0247 515.997 71.406C516.671 71.7873 517.199 72.3153 517.581 72.99C517.962 73.6647 518.153 74.442 518.153 75.322V83H515.689V75.982C515.689 75.3807 515.579 74.8747 515.359 74.464C515.139 74.0387 514.823 73.716 514.413 73.496C514.017 73.2613 513.562 73.144 513.049 73.144C512.535 73.144 512.073 73.2613 511.663 73.496C511.267 73.716 510.959 74.0387 510.739 74.464C510.519 74.8893 510.409 75.3953 510.409 75.982V83H507.923ZM521.913 83V80.14H524.443V83H521.913ZM529.54 83V80.14H532.07V83H529.54ZM537.167 83V80.14H539.697V83H537.167Z" fill="#262F59"/>
<defs>
<filter id="filter0_b_428_2847" x="-6" y="24" width="740" height="280" filterUnits="userSpaceOnUse" color-interpolation-filters="sRGB">
<feFlood flood-opacity="0" result="BackgroundImageFix"/>
<feGaussianBlur in="BackgroundImageFix" stdDeviation="33"/>
<feComposite in2="SourceAlpha" operator="in" result="effect1_backgroundBlur_428_2847"/>
<feBlend mode="normal" in="SourceGraphic" in2="effect1_backgroundBlur_428_2847" result="shape"/>
</filter>
<filter id="filter1_b_428_2847" x="-26" y="4" width="780" height="280" filterUnits="userSpaceOnUse" color-interpolation-filters="sRGB">
<feFlood flood-opacity="0" result="BackgroundImageFix"/>
<feGaussianBlur in="BackgroundImageFix" stdDeviation="33"/>
<feComposite in2="SourceAlpha" operator="in" result="effect1_backgroundBlur_428_2847"/>
<feBlend mode="normal" in="SourceGraphic" in2="effect1_backgroundBlur_428_2847" result="shape"/>
</filter>
<filter id="filter2_b_428_2847" x="-46" y="-26" width="820" height="280" filterUnits="userSpaceOnUse" color-interpolation-filters="sRGB">
<feFlood flood-opacity="0" result="BackgroundImageFix"/>
<feGaussianBlur in="BackgroundImageFix" stdDeviation="33"/>
<feComposite in2="SourceAlpha" operator="in" result="effect1_backgroundBlur_428_2847"/>
<feBlend mode="normal" in="SourceGraphic" in2="effect1_backgroundBlur_428_2847" result="shape"/>
</filter>
<filter id="filter3_b_428_2847" x="-66" y="-66" width="860" height="280" filterUnits="userSpaceOnUse" color-interpolation-filters="sRGB">
<feFlood flood-opacity="0" result="BackgroundImageFix"/>
<feGaussianBlur in="BackgroundImageFix" stdDeviation="33"/>
<feComposite in2="SourceAlpha" operator="in" result="effect1_backgroundBlur_428_2847"/>
<feBlend mode="normal" in="SourceGraphic" in2="effect1_backgroundBlur_428_2847" result="shape"/>
</filter>
<linearGradient id="paint0_linear_428_2847" x1="15.6559" y1="12.9691" x2="418.009" y2="412.222" gradientUnits="userSpaceOnUse">
<stop stop-color="#DBF0E5" stop-opacity="0.52"/>
<stop offset="0.552083" stop-color="#DBF0E5"/>
<stop offset="0.989583" stop-color="#DBF0E5" stop-opacity="0.5"/>
</linearGradient>
</defs>
</svg>
