<svg width="520" height="238" viewBox="0 0 520 238" fill="none" xmlns="http://www.w3.org/2000/svg">
<g filter="url(#filter0_b_562_67684)">
<rect x="60" y="90" width="400" height="148" rx="12" fill="#CDFFCC" fill-opacity="0.1"/>
</g>
<g filter="url(#filter1_b_562_67684)">
<rect x="40" y="70" width="440" height="148" rx="12" fill="#CDFFCC" fill-opacity="0.2"/>
</g>
<g filter="url(#filter2_b_562_67684)">
<rect x="20" y="40" width="480" height="148" rx="12" fill="#CDFFCC" fill-opacity="0.4"/>
</g>
<g filter="url(#filter3_b_562_67684)">
<rect width="520" height="148" rx="12" fill="#CDFFCC"/>
</g>
<mask id="mask0_562_67684" style="mask-type:alpha" maskUnits="userSpaceOnUse" x="0" y="0" width="520" height="148">
<rect width="520" height="148" rx="12" fill="url(#paint0_linear_562_67684)"/>
</mask>
<g mask="url(#mask0_562_67684)">
<g opacity="0.3">
<rect x="28.5" y="-18" width="16" height="201" transform="rotate(30 28.5 -18)" fill="white"/>
<rect x="72.8555" y="-18" width="16" height="201" transform="rotate(30 72.8555 -18)" fill="white"/>
<rect x="117.211" y="-18" width="16" height="201" transform="rotate(30 117.211 -18)" fill="white"/>
<rect x="161.57" y="-18" width="16" height="201" transform="rotate(30 161.57 -18)" fill="white"/>
<rect x="205.926" y="-18" width="16" height="201" transform="rotate(30 205.926 -18)" fill="white"/>
<rect x="250.281" y="-18" width="16" height="201" transform="rotate(30 250.281 -18)" fill="white"/>
<rect x="294.637" y="-18" width="16" height="201" transform="rotate(30 294.637 -18)" fill="white"/>
<rect x="338.996" y="-18" width="16" height="201" transform="rotate(30 338.996 -18)" fill="white"/>
<rect x="383.352" y="-18" width="16" height="201" transform="rotate(30 383.352 -18)" fill="white"/>
<rect x="427.707" y="-18" width="16" height="201" transform="rotate(30 427.707 -18)" fill="white"/>
<rect x="472.062" y="-18" width="16" height="201" transform="rotate(30 472.062 -18)" fill="white"/>
<rect x="516.422" y="-18" width="16" height="201" transform="rotate(30 516.422 -18)" fill="white"/>
<rect x="560.777" y="-18" width="16" height="201" transform="rotate(30 560.777 -18)" fill="white"/>
<rect x="605.133" y="-18" width="16" height="201" transform="rotate(30 605.133 -18)" fill="white"/>
</g>
</g>
<path opacity="0.8" d="M88.8149 83.264C87.7882 83.264 86.8349 83.0733 85.9549 82.692C85.0749 82.296 84.3269 81.7607 83.7109 81.086C83.0949 80.4113 82.6402 79.634 82.3469 78.754L84.5469 77.83C84.9429 78.842 85.5222 79.6193 86.2849 80.162C87.0476 80.7047 87.9276 80.976 88.9249 80.976C89.5116 80.976 90.0249 80.888 90.4649 80.712C90.9049 80.5213 91.2422 80.2573 91.4769 79.92C91.7262 79.5827 91.8509 79.194 91.8509 78.754C91.8509 78.1527 91.6822 77.676 91.3449 77.324C91.0076 76.972 90.5089 76.6933 89.8489 76.488L86.7689 75.52C85.5369 75.1387 84.5982 74.5593 83.9529 73.782C83.3076 72.99 82.9849 72.066 82.9849 71.01C82.9849 70.086 83.2122 69.2793 83.6669 68.59C84.1216 67.886 84.7449 67.336 85.5369 66.94C86.3436 66.544 87.2602 66.346 88.2869 66.346C89.2696 66.346 90.1642 66.522 90.9709 66.874C91.7776 67.2113 92.4669 67.6807 93.0389 68.282C93.6256 68.8833 94.0509 69.58 94.3149 70.372L92.1589 71.318C91.8362 70.4527 91.3302 69.7853 90.6409 69.316C89.9662 68.8467 89.1816 68.612 88.2869 68.612C87.7442 68.612 87.2676 68.7073 86.8569 68.898C86.4462 69.074 86.1236 69.338 85.8889 69.69C85.6689 70.0273 85.5589 70.4233 85.5589 70.878C85.5589 71.406 85.7276 71.8753 86.0649 72.286C86.4022 72.6967 86.9156 73.0047 87.6049 73.21L90.4649 74.112C91.7702 74.508 92.7529 75.08 93.4129 75.828C94.0729 76.5613 94.4029 77.478 94.4029 78.578C94.4029 79.4873 94.1609 80.294 93.6769 80.998C93.2076 81.702 92.5549 82.2593 91.7189 82.67C90.8829 83.066 89.9149 83.264 88.8149 83.264ZM97.075 87.4V71.098H99.451V73.562L99.165 72.99C99.605 72.3153 100.192 71.7873 100.925 71.406C101.658 71.0247 102.494 70.834 103.433 70.834C104.562 70.834 105.574 71.1053 106.469 71.648C107.378 72.1907 108.09 72.9313 108.603 73.87C109.131 74.8087 109.395 75.8647 109.395 77.038C109.395 78.2113 109.131 79.2673 108.603 80.206C108.09 81.1447 107.386 81.8927 106.491 82.45C105.596 82.9927 104.577 83.264 103.433 83.264C102.509 83.264 101.666 83.0733 100.903 82.692C100.155 82.3107 99.5757 81.7607 99.165 81.042L99.561 80.58V87.4H97.075ZM103.191 80.954C103.895 80.954 104.518 80.7853 105.061 80.448C105.604 80.1107 106.029 79.6487 106.337 79.062C106.66 78.4607 106.821 77.786 106.821 77.038C106.821 76.29 106.66 75.6227 106.337 75.036C106.029 74.4493 105.604 73.9873 105.061 73.65C104.518 73.3127 103.895 73.144 103.191 73.144C102.502 73.144 101.878 73.3127 101.321 73.65C100.778 73.9873 100.346 74.4493 100.023 75.036C99.715 75.6227 99.561 76.29 99.561 77.038C99.561 77.786 99.715 78.4607 100.023 79.062C100.346 79.6487 100.778 80.1107 101.321 80.448C101.878 80.7853 102.502 80.954 103.191 80.954ZM117.401 83.264C116.213 83.264 115.157 82.9927 114.233 82.45C113.324 81.8927 112.613 81.1447 112.099 80.206C111.586 79.2527 111.329 78.1893 111.329 77.016C111.329 75.8133 111.586 74.75 112.099 73.826C112.627 72.902 113.331 72.176 114.211 71.648C115.091 71.1053 116.089 70.834 117.203 70.834C118.098 70.834 118.897 70.988 119.601 71.296C120.305 71.604 120.899 72.0293 121.383 72.572C121.867 73.1 122.234 73.7087 122.483 74.398C122.747 75.0873 122.879 75.8207 122.879 76.598C122.879 76.7887 122.872 76.9867 122.857 77.192C122.843 77.3973 122.813 77.588 122.769 77.764H113.287V75.784H121.361L120.173 76.686C120.32 75.9673 120.269 75.3293 120.019 74.772C119.785 74.2 119.418 73.7527 118.919 73.43C118.435 73.0927 117.863 72.924 117.203 72.924C116.543 72.924 115.957 73.0927 115.443 73.43C114.93 73.7527 114.534 74.222 114.255 74.838C113.977 75.4393 113.867 76.1727 113.925 77.038C113.852 77.8447 113.962 78.5487 114.255 79.15C114.563 79.7513 114.989 80.2207 115.531 80.558C116.089 80.8953 116.719 81.064 117.423 81.064C118.142 81.064 118.751 80.9027 119.249 80.58C119.763 80.2573 120.166 79.8393 120.459 79.326L122.483 80.316C122.249 80.8733 121.882 81.3793 121.383 81.834C120.899 82.274 120.313 82.626 119.623 82.89C118.949 83.1393 118.208 83.264 117.401 83.264ZM128.762 83.264C127.955 83.264 127.244 83.1247 126.628 82.846C126.027 82.5527 125.557 82.1567 125.22 81.658C124.883 81.1447 124.714 80.5433 124.714 79.854C124.714 79.2087 124.853 78.6293 125.132 78.116C125.425 77.6027 125.873 77.17 126.474 76.818C127.075 76.466 127.831 76.2167 128.74 76.07L132.876 75.388V77.346L129.224 77.984C128.564 78.1013 128.08 78.314 127.772 78.622C127.464 78.9153 127.31 79.2967 127.31 79.766C127.31 80.2207 127.479 80.5947 127.816 80.888C128.168 81.1667 128.615 81.306 129.158 81.306C129.833 81.306 130.419 81.1593 130.918 80.866C131.431 80.5727 131.827 80.184 132.106 79.7C132.385 79.2013 132.524 78.6513 132.524 78.05V74.992C132.524 74.4053 132.304 73.9287 131.864 73.562C131.439 73.1807 130.867 72.99 130.148 72.99C129.488 72.99 128.909 73.166 128.41 73.518C127.926 73.8553 127.567 74.2953 127.332 74.838L125.264 73.804C125.484 73.2173 125.843 72.704 126.342 72.264C126.841 71.8093 127.42 71.4573 128.08 71.208C128.755 70.9587 129.466 70.834 130.214 70.834C131.153 70.834 131.981 71.01 132.7 71.362C133.433 71.714 133.998 72.2053 134.394 72.836C134.805 73.452 135.01 74.1707 135.01 74.992V83H132.634V80.844L133.14 80.91C132.861 81.394 132.502 81.812 132.062 82.164C131.637 82.516 131.145 82.7873 130.588 82.978C130.045 83.1687 129.437 83.264 128.762 83.264ZM137.917 83V66.346H140.403V77.5L139.435 77.258L145.397 71.098H148.499L144.011 75.872L148.697 83H145.837L141.657 76.686L143.131 76.488L139.611 80.228L140.403 78.578V83H137.917ZM155.772 83.264C154.584 83.264 153.528 82.9927 152.604 82.45C151.695 81.8927 150.984 81.1447 150.47 80.206C149.957 79.2527 149.7 78.1893 149.7 77.016C149.7 75.8133 149.957 74.75 150.47 73.826C150.998 72.902 151.702 72.176 152.582 71.648C153.462 71.1053 154.46 70.834 155.574 70.834C156.469 70.834 157.268 70.988 157.972 71.296C158.676 71.604 159.27 72.0293 159.754 72.572C160.238 73.1 160.605 73.7087 160.854 74.398C161.118 75.0873 161.25 75.8207 161.25 76.598C161.25 76.7887 161.243 76.9867 161.228 77.192C161.214 77.3973 161.184 77.588 161.14 77.764H151.658V75.784H159.732L158.544 76.686C158.691 75.9673 158.64 75.3293 158.39 74.772C158.156 74.2 157.789 73.7527 157.29 73.43C156.806 73.0927 156.234 72.924 155.574 72.924C154.914 72.924 154.328 73.0927 153.814 73.43C153.301 73.7527 152.905 74.222 152.626 74.838C152.348 75.4393 152.238 76.1727 152.296 77.038C152.223 77.8447 152.333 78.5487 152.626 79.15C152.934 79.7513 153.36 80.2207 153.902 80.558C154.46 80.8953 155.09 81.064 155.794 81.064C156.513 81.064 157.122 80.9027 157.62 80.58C158.134 80.2573 158.537 79.8393 158.83 79.326L160.854 80.316C160.62 80.8733 160.253 81.3793 159.754 81.834C159.27 82.274 158.684 82.626 157.994 82.89C157.32 83.1393 156.579 83.264 155.772 83.264ZM163.677 83V71.098H166.053V73.496L165.833 73.144C166.097 72.3667 166.522 71.8093 167.109 71.472C167.695 71.12 168.399 70.944 169.221 70.944H169.947V73.21H168.913C168.091 73.21 167.424 73.4667 166.911 73.98C166.412 74.4787 166.163 75.1973 166.163 76.136V83H163.677ZM181.477 83.264C180.45 83.264 179.497 83.0733 178.617 82.692C177.737 82.296 176.989 81.7607 176.373 81.086C175.757 80.4113 175.302 79.634 175.009 78.754L177.209 77.83C177.605 78.842 178.184 79.6193 178.947 80.162C179.71 80.7047 180.59 80.976 181.587 80.976C182.174 80.976 182.687 80.888 183.127 80.712C183.567 80.5213 183.904 80.2573 184.139 79.92C184.388 79.5827 184.513 79.194 184.513 78.754C184.513 78.1527 184.344 77.676 184.007 77.324C183.67 76.972 183.171 76.6933 182.511 76.488L179.431 75.52C178.199 75.1387 177.26 74.5593 176.615 73.782C175.97 72.99 175.647 72.066 175.647 71.01C175.647 70.086 175.874 69.2793 176.329 68.59C176.784 67.886 177.407 67.336 178.199 66.94C179.006 66.544 179.922 66.346 180.949 66.346C181.932 66.346 182.826 66.522 183.633 66.874C184.44 67.2113 185.129 67.6807 185.701 68.282C186.288 68.8833 186.713 69.58 186.977 70.372L184.821 71.318C184.498 70.4527 183.992 69.7853 183.303 69.316C182.628 68.8467 181.844 68.612 180.949 68.612C180.406 68.612 179.93 68.7073 179.519 68.898C179.108 69.074 178.786 69.338 178.551 69.69C178.331 70.0273 178.221 70.4233 178.221 70.878C178.221 71.406 178.39 71.8753 178.727 72.286C179.064 72.6967 179.578 73.0047 180.267 73.21L183.127 74.112C184.432 74.508 185.415 75.08 186.075 75.828C186.735 76.5613 187.065 77.478 187.065 78.578C187.065 79.4873 186.823 80.294 186.339 80.998C185.87 81.702 185.217 82.2593 184.381 82.67C183.545 83.066 182.577 83.264 181.477 83.264ZM195.391 83.264C194.203 83.264 193.147 82.9927 192.223 82.45C191.314 81.8927 190.588 81.1447 190.045 80.206C189.517 79.2673 189.253 78.204 189.253 77.016C189.253 75.8427 189.517 74.7867 190.045 73.848C190.573 72.9093 191.299 72.176 192.223 71.648C193.147 71.1053 194.203 70.834 195.391 70.834C196.198 70.834 196.953 70.9807 197.657 71.274C198.361 71.5527 198.97 71.9413 199.483 72.44C200.011 72.9387 200.4 73.518 200.649 74.178L198.471 75.19C198.222 74.574 197.818 74.0827 197.261 73.716C196.718 73.3347 196.095 73.144 195.391 73.144C194.716 73.144 194.108 73.3127 193.565 73.65C193.037 73.9727 192.619 74.4347 192.311 75.036C192.003 75.6227 191.849 76.29 191.849 77.038C191.849 77.786 192.003 78.4607 192.311 79.062C192.619 79.6487 193.037 80.1107 193.565 80.448C194.108 80.7853 194.716 80.954 195.391 80.954C196.11 80.954 196.733 80.7707 197.261 80.404C197.804 80.0227 198.207 79.5167 198.471 78.886L200.649 79.92C200.414 80.5507 200.033 81.1227 199.505 81.636C198.992 82.1347 198.383 82.5307 197.679 82.824C196.975 83.1173 196.212 83.264 195.391 83.264ZM203.079 83V66.346H205.565V73.43L205.169 73.122C205.462 72.374 205.932 71.8093 206.577 71.428C207.222 71.032 207.97 70.834 208.821 70.834C209.701 70.834 210.478 71.0247 211.153 71.406C211.828 71.7873 212.356 72.3153 212.737 72.99C213.118 73.6647 213.309 74.4347 213.309 75.3V83H210.845V75.982C210.845 75.3807 210.728 74.8747 210.493 74.464C210.273 74.0387 209.965 73.716 209.569 73.496C209.173 73.2613 208.718 73.144 208.205 73.144C207.706 73.144 207.252 73.2613 206.841 73.496C206.445 73.716 206.13 74.0387 205.895 74.464C205.675 74.8893 205.565 75.3953 205.565 75.982V83H203.079ZM221.558 83.264C220.37 83.264 219.314 82.9927 218.39 82.45C217.48 81.8927 216.769 81.1447 216.256 80.206C215.742 79.2527 215.486 78.1893 215.486 77.016C215.486 75.8133 215.742 74.75 216.256 73.826C216.784 72.902 217.488 72.176 218.368 71.648C219.248 71.1053 220.245 70.834 221.36 70.834C222.254 70.834 223.054 70.988 223.758 71.296C224.462 71.604 225.056 72.0293 225.54 72.572C226.024 73.1 226.39 73.7087 226.64 74.398C226.904 75.0873 227.036 75.8207 227.036 76.598C227.036 76.7887 227.028 76.9867 227.014 77.192C226.999 77.3973 226.97 77.588 226.926 77.764H217.444V75.784H225.518L224.33 76.686C224.476 75.9673 224.425 75.3293 224.176 74.772C223.941 74.2 223.574 73.7527 223.076 73.43C222.592 73.0927 222.02 72.924 221.36 72.924C220.7 72.924 220.113 73.0927 219.6 73.43C219.086 73.7527 218.69 74.222 218.412 74.838C218.133 75.4393 218.023 76.1727 218.082 77.038C218.008 77.8447 218.118 78.5487 218.412 79.15C218.72 79.7513 219.145 80.2207 219.688 80.558C220.245 80.8953 220.876 81.064 221.58 81.064C222.298 81.064 222.907 80.9027 223.406 80.58C223.919 80.2573 224.322 79.8393 224.616 79.326L226.64 80.316C226.405 80.8733 226.038 81.3793 225.54 81.834C225.056 82.274 224.469 82.626 223.78 82.89C223.105 83.1393 222.364 83.264 221.558 83.264ZM234.962 83.264C233.818 83.264 232.791 82.9927 231.882 82.45C230.987 81.8927 230.276 81.1447 229.748 80.206C229.234 79.2673 228.978 78.2113 228.978 77.038C228.978 75.8647 229.242 74.8087 229.77 73.87C230.298 72.9313 231.009 72.1907 231.904 71.648C232.798 71.1053 233.81 70.834 234.94 70.834C235.893 70.834 236.736 71.0247 237.47 71.406C238.203 71.7873 238.782 72.3153 239.208 72.99L238.834 73.562V66.346H241.298V83H238.944V80.58L239.23 81.042C238.819 81.7607 238.232 82.3107 237.47 82.692C236.707 83.0733 235.871 83.264 234.962 83.264ZM235.204 80.954C235.893 80.954 236.509 80.7853 237.052 80.448C237.609 80.1107 238.042 79.6487 238.35 79.062C238.672 78.4607 238.834 77.786 238.834 77.038C238.834 76.29 238.672 75.6227 238.35 75.036C238.042 74.4493 237.609 73.9873 237.052 73.65C236.509 73.3127 235.893 73.144 235.204 73.144C234.514 73.144 233.891 73.3127 233.334 73.65C232.776 73.9873 232.344 74.4493 232.036 75.036C231.728 75.6227 231.574 76.29 231.574 77.038C231.574 77.786 231.728 78.4607 232.036 79.062C232.344 79.6487 232.769 80.1107 233.312 80.448C233.869 80.7853 234.5 80.954 235.204 80.954ZM248.446 83.264C247.551 83.264 246.767 83.066 246.092 82.67C245.417 82.2593 244.889 81.6947 244.508 80.976C244.141 80.2427 243.958 79.3993 243.958 78.446V71.098H246.444V78.226C246.444 78.7687 246.554 79.2453 246.774 79.656C246.994 80.0667 247.302 80.3893 247.698 80.624C248.094 80.844 248.549 80.954 249.062 80.954C249.59 80.954 250.052 80.8367 250.448 80.602C250.844 80.3673 251.152 80.0373 251.372 79.612C251.607 79.1867 251.724 78.688 251.724 78.116V71.098H254.188V83H251.834V80.668L252.098 80.976C251.819 81.7093 251.357 82.274 250.712 82.67C250.067 83.066 249.311 83.264 248.446 83.264ZM257.091 83V66.346H259.577V83H257.091ZM268.071 83.264C266.883 83.264 265.827 82.9927 264.903 82.45C263.994 81.8927 263.283 81.1447 262.769 80.206C262.256 79.2527 261.999 78.1893 261.999 77.016C261.999 75.8133 262.256 74.75 262.769 73.826C263.297 72.902 264.001 72.176 264.881 71.648C265.761 71.1053 266.759 70.834 267.873 70.834C268.768 70.834 269.567 70.988 270.271 71.296C270.975 71.604 271.569 72.0293 272.053 72.572C272.537 73.1 272.904 73.7087 273.153 74.398C273.417 75.0873 273.549 75.8207 273.549 76.598C273.549 76.7887 273.542 76.9867 273.527 77.192C273.513 77.3973 273.483 77.588 273.439 77.764H263.957V75.784H272.031L270.843 76.686C270.99 75.9673 270.939 75.3293 270.689 74.772C270.455 74.2 270.088 73.7527 269.589 73.43C269.105 73.0927 268.533 72.924 267.873 72.924C267.213 72.924 266.627 73.0927 266.113 73.43C265.6 73.7527 265.204 74.222 264.925 74.838C264.647 75.4393 264.537 76.1727 264.595 77.038C264.522 77.8447 264.632 78.5487 264.925 79.15C265.233 79.7513 265.659 80.2207 266.201 80.558C266.759 80.8953 267.389 81.064 268.093 81.064C268.812 81.064 269.421 80.9027 269.919 80.58C270.433 80.2573 270.836 79.8393 271.129 79.326L273.153 80.316C272.919 80.8733 272.552 81.3793 272.053 81.834C271.569 82.274 270.983 82.626 270.293 82.89C269.619 83.1393 268.878 83.264 268.071 83.264ZM285.475 83.264C284.287 83.264 283.231 82.9927 282.307 82.45C281.398 81.8927 280.672 81.1447 280.129 80.206C279.601 79.2673 279.337 78.204 279.337 77.016C279.337 75.8427 279.601 74.7867 280.129 73.848C280.657 72.9093 281.383 72.176 282.307 71.648C283.231 71.1053 284.287 70.834 285.475 70.834C286.282 70.834 287.037 70.9807 287.741 71.274C288.445 71.5527 289.054 71.9413 289.567 72.44C290.095 72.9387 290.484 73.518 290.733 74.178L288.555 75.19C288.306 74.574 287.902 74.0827 287.345 73.716C286.802 73.3347 286.179 73.144 285.475 73.144C284.8 73.144 284.192 73.3127 283.649 73.65C283.121 73.9727 282.703 74.4347 282.395 75.036C282.087 75.6227 281.933 76.29 281.933 77.038C281.933 77.786 282.087 78.4607 282.395 79.062C282.703 79.6487 283.121 80.1107 283.649 80.448C284.192 80.7853 284.8 80.954 285.475 80.954C286.194 80.954 286.817 80.7707 287.345 80.404C287.888 80.0227 288.291 79.5167 288.555 78.886L290.733 79.92C290.498 80.5507 290.117 81.1227 289.589 81.636C289.076 82.1347 288.467 82.5307 287.763 82.824C287.059 83.1173 286.296 83.264 285.475 83.264ZM298.905 83.264C297.761 83.264 296.712 82.9927 295.759 82.45C294.82 81.9073 294.072 81.1667 293.515 80.228C292.958 79.2893 292.679 78.226 292.679 77.038C292.679 75.8353 292.958 74.772 293.515 73.848C294.072 72.9093 294.82 72.176 295.759 71.648C296.698 71.1053 297.746 70.834 298.905 70.834C300.078 70.834 301.127 71.1053 302.051 71.648C302.99 72.176 303.73 72.9093 304.273 73.848C304.83 74.772 305.109 75.8353 305.109 77.038C305.109 78.2407 304.83 79.3113 304.273 80.25C303.716 81.1887 302.968 81.9293 302.029 82.472C301.09 83 300.049 83.264 298.905 83.264ZM298.905 80.954C299.609 80.954 300.232 80.7853 300.775 80.448C301.318 80.1107 301.743 79.6487 302.051 79.062C302.374 78.4607 302.535 77.786 302.535 77.038C302.535 76.29 302.374 75.6227 302.051 75.036C301.743 74.4493 301.318 73.9873 300.775 73.65C300.232 73.3127 299.609 73.144 298.905 73.144C298.216 73.144 297.592 73.3127 297.035 73.65C296.492 73.9873 296.06 74.4493 295.737 75.036C295.429 75.6227 295.275 76.29 295.275 77.038C295.275 77.786 295.429 78.4607 295.737 79.062C296.06 79.6487 296.492 80.1107 297.035 80.448C297.592 80.7853 298.216 80.954 298.905 80.954ZM307.536 83V71.098H309.912V73.672L309.604 73.276C309.853 72.4693 310.308 71.8607 310.968 71.45C311.628 71.0393 312.383 70.834 313.234 70.834C314.187 70.834 315.031 71.0907 315.764 71.604C316.512 72.1027 317.011 72.77 317.26 73.606L316.556 73.672C316.908 72.7187 317.443 72.0073 318.162 71.538C318.895 71.0687 319.731 70.834 320.67 70.834C321.491 70.834 322.232 71.0247 322.892 71.406C323.567 71.7873 324.102 72.3153 324.498 72.99C324.894 73.6647 325.092 74.4347 325.092 75.3V83H322.606V75.982C322.606 75.3807 322.496 74.8747 322.276 74.464C322.071 74.0387 321.777 73.716 321.396 73.496C321.029 73.2613 320.597 73.144 320.098 73.144C319.599 73.144 319.159 73.2613 318.778 73.496C318.397 73.716 318.096 74.0387 317.876 74.464C317.656 74.8893 317.546 75.3953 317.546 75.982V83H315.082V75.982C315.082 75.3807 314.972 74.8747 314.752 74.464C314.547 74.0387 314.253 73.716 313.872 73.496C313.505 73.2613 313.065 73.144 312.552 73.144C312.053 73.144 311.613 73.2613 311.232 73.496C310.851 73.716 310.55 74.0387 310.33 74.464C310.125 74.8893 310.022 75.3953 310.022 75.982V83H307.536ZM327.753 83V71.098H330.239V83H327.753ZM327.753 69.47V66.61H330.239V69.47H327.753ZM333.145 83V71.098H335.521V73.43L335.235 73.122C335.529 72.374 335.998 71.8093 336.643 71.428C337.289 71.032 338.037 70.834 338.887 70.834C339.767 70.834 340.545 71.0247 341.219 71.406C341.894 71.7873 342.422 72.3153 342.803 72.99C343.185 73.6647 343.375 74.442 343.375 75.322V83H340.911V75.982C340.911 75.3807 340.801 74.8747 340.581 74.464C340.361 74.0387 340.046 73.716 339.635 73.496C339.239 73.2613 338.785 73.144 338.271 73.144C337.758 73.144 337.296 73.2613 336.885 73.496C336.489 73.716 336.181 74.0387 335.961 74.464C335.741 74.8893 335.631 75.3953 335.631 75.982V83H333.145ZM351.778 87.84C350.913 87.84 350.113 87.7007 349.38 87.422C348.647 87.1433 348.016 86.7547 347.488 86.256C346.96 85.772 346.564 85.2 346.3 84.54L348.588 83.594C348.793 84.1513 349.167 84.6133 349.71 84.98C350.267 85.3467 350.949 85.53 351.756 85.53C352.387 85.53 352.951 85.4053 353.45 85.156C353.949 84.9213 354.345 84.5693 354.638 84.1C354.931 83.6453 355.078 83.0953 355.078 82.45V79.766L355.518 80.272C355.107 81.0347 354.535 81.614 353.802 82.01C353.083 82.406 352.269 82.604 351.36 82.604C350.26 82.604 349.27 82.3473 348.39 81.834C347.51 81.3207 346.813 80.6167 346.3 79.722C345.801 78.8273 345.552 77.8227 345.552 76.708C345.552 75.5787 345.801 74.574 346.3 73.694C346.813 72.814 347.503 72.1173 348.368 71.604C349.233 71.0907 350.223 70.834 351.338 70.834C352.247 70.834 353.054 71.032 353.758 71.428C354.477 71.8093 355.063 72.3667 355.518 73.1L355.188 73.716V71.098H357.542V82.45C357.542 83.4767 357.293 84.3933 356.794 85.2C356.31 86.0213 355.635 86.6667 354.77 87.136C353.905 87.6053 352.907 87.84 351.778 87.84ZM351.646 80.294C352.306 80.294 352.893 80.14 353.406 79.832C353.919 79.5093 354.323 79.084 354.616 78.556C354.924 78.0133 355.078 77.4047 355.078 76.73C355.078 76.0553 354.924 75.4467 354.616 74.904C354.308 74.3613 353.897 73.936 353.384 73.628C352.871 73.3053 352.291 73.144 351.646 73.144C350.971 73.144 350.37 73.3053 349.842 73.628C349.314 73.936 348.896 74.3613 348.588 74.904C348.295 75.432 348.148 76.0407 348.148 76.73C348.148 77.39 348.295 77.9913 348.588 78.534C348.896 79.0767 349.314 79.5093 349.842 79.832C350.37 80.14 350.971 80.294 351.646 80.294ZM368.698 83.264C367.48 83.264 366.41 82.9633 365.486 82.362C364.576 81.7607 363.938 80.954 363.572 79.942L365.486 79.04C365.808 79.7147 366.248 80.25 366.806 80.646C367.378 81.042 368.008 81.24 368.698 81.24C369.284 81.24 369.761 81.108 370.128 80.844C370.494 80.58 370.678 80.2207 370.678 79.766C370.678 79.4727 370.597 79.238 370.436 79.062C370.274 78.8713 370.069 78.7173 369.82 78.6C369.585 78.4827 369.343 78.3947 369.094 78.336L367.224 77.808C366.197 77.5147 365.427 77.0747 364.914 76.488C364.415 75.8867 364.166 75.19 364.166 74.398C364.166 73.6793 364.349 73.056 364.716 72.528C365.082 71.9853 365.588 71.5673 366.234 71.274C366.879 70.9807 367.605 70.834 368.412 70.834C369.497 70.834 370.465 71.1053 371.316 71.648C372.166 72.176 372.768 72.9167 373.12 73.87L371.206 74.772C370.971 74.2 370.597 73.7453 370.084 73.408C369.585 73.0707 369.02 72.902 368.39 72.902C367.847 72.902 367.414 73.034 367.092 73.298C366.769 73.5473 366.608 73.8773 366.608 74.288C366.608 74.5667 366.681 74.8013 366.828 74.992C366.974 75.168 367.165 75.3147 367.4 75.432C367.634 75.5347 367.876 75.6227 368.126 75.696L370.062 76.268C371.044 76.5467 371.8 76.9867 372.328 77.588C372.856 78.1747 373.12 78.8787 373.12 79.7C373.12 80.404 372.929 81.0273 372.548 81.57C372.181 82.098 371.668 82.516 371.008 82.824C370.348 83.1173 369.578 83.264 368.698 83.264ZM381.298 83.264C380.154 83.264 379.105 82.9927 378.152 82.45C377.213 81.9073 376.465 81.1667 375.908 80.228C375.35 79.2893 375.072 78.226 375.072 77.038C375.072 75.8353 375.35 74.772 375.908 73.848C376.465 72.9093 377.213 72.176 378.152 71.648C379.09 71.1053 380.139 70.834 381.298 70.834C382.471 70.834 383.52 71.1053 384.444 71.648C385.382 72.176 386.123 72.9093 386.666 73.848C387.223 74.772 387.502 75.8353 387.502 77.038C387.502 78.2407 387.223 79.3113 386.666 80.25C386.108 81.1887 385.36 81.9293 384.422 82.472C383.483 83 382.442 83.264 381.298 83.264ZM381.298 80.954C382.002 80.954 382.625 80.7853 383.168 80.448C383.71 80.1107 384.136 79.6487 384.444 79.062C384.766 78.4607 384.928 77.786 384.928 77.038C384.928 76.29 384.766 75.6227 384.444 75.036C384.136 74.4493 383.71 73.9873 383.168 73.65C382.625 73.3127 382.002 73.144 381.298 73.144C380.608 73.144 379.985 73.3127 379.428 73.65C378.885 73.9873 378.452 74.4493 378.13 75.036C377.822 75.6227 377.668 76.29 377.668 77.038C377.668 77.786 377.822 78.4607 378.13 79.062C378.452 79.6487 378.885 80.1107 379.428 80.448C379.985 80.7853 380.608 80.954 381.298 80.954ZM395.671 83.264C394.527 83.264 393.478 82.9927 392.525 82.45C391.586 81.9073 390.838 81.1667 390.281 80.228C389.723 79.2893 389.445 78.226 389.445 77.038C389.445 75.8353 389.723 74.772 390.281 73.848C390.838 72.9093 391.586 72.176 392.525 71.648C393.463 71.1053 394.512 70.834 395.671 70.834C396.844 70.834 397.893 71.1053 398.817 71.648C399.755 72.176 400.496 72.9093 401.039 73.848C401.596 74.772 401.875 75.8353 401.875 77.038C401.875 78.2407 401.596 79.3113 401.039 80.25C400.481 81.1887 399.733 81.9293 398.795 82.472C397.856 83 396.815 83.264 395.671 83.264ZM395.671 80.954C396.375 80.954 396.998 80.7853 397.541 80.448C398.083 80.1107 398.509 79.6487 398.817 79.062C399.139 78.4607 399.301 77.786 399.301 77.038C399.301 76.29 399.139 75.6227 398.817 75.036C398.509 74.4493 398.083 73.9873 397.541 73.65C396.998 73.3127 396.375 73.144 395.671 73.144C394.981 73.144 394.358 73.3127 393.801 73.65C393.258 73.9873 392.825 74.4493 392.503 75.036C392.195 75.6227 392.041 76.29 392.041 77.038C392.041 77.786 392.195 78.4607 392.503 79.062C392.825 79.6487 393.258 80.1107 393.801 80.448C394.358 80.7853 394.981 80.954 395.671 80.954ZM404.302 83V71.098H406.678V73.43L406.392 73.122C406.685 72.374 407.154 71.8093 407.8 71.428C408.445 71.032 409.193 70.834 410.044 70.834C410.924 70.834 411.701 71.0247 412.376 71.406C413.05 71.7873 413.578 72.3153 413.96 72.99C414.341 73.6647 414.532 74.442 414.532 75.322V83H412.068V75.982C412.068 75.3807 411.958 74.8747 411.738 74.464C411.518 74.0387 411.202 73.716 410.792 73.496C410.396 73.2613 409.941 73.144 409.428 73.144C408.914 73.144 408.452 73.2613 408.042 73.496C407.646 73.716 407.338 74.0387 407.118 74.464C406.898 74.8893 406.788 75.3953 406.788 75.982V83H404.302ZM418.292 83V80.14H420.822V83H418.292ZM425.919 83V80.14H428.449V83H425.919ZM433.546 83V80.14H436.076V83H433.546Z" fill="#262F59"/>
<defs>
<filter id="filter0_b_562_67684" x="-6" y="24" width="532" height="280" filterUnits="userSpaceOnUse" color-interpolation-filters="sRGB">
<feFlood flood-opacity="0" result="BackgroundImageFix"/>
<feGaussianBlur in="BackgroundImageFix" stdDeviation="33"/>
<feComposite in2="SourceAlpha" operator="in" result="effect1_backgroundBlur_562_67684"/>
<feBlend mode="normal" in="SourceGraphic" in2="effect1_backgroundBlur_562_67684" result="shape"/>
</filter>
<filter id="filter1_b_562_67684" x="-26" y="4" width="572" height="280" filterUnits="userSpaceOnUse" color-interpolation-filters="sRGB">
<feFlood flood-opacity="0" result="BackgroundImageFix"/>
<feGaussianBlur in="BackgroundImageFix" stdDeviation="33"/>
<feComposite in2="SourceAlpha" operator="in" result="effect1_backgroundBlur_562_67684"/>
<feBlend mode="normal" in="SourceGraphic" in2="effect1_backgroundBlur_562_67684" result="shape"/>
</filter>
<filter id="filter2_b_562_67684" x="-46" y="-26" width="612" height="280" filterUnits="userSpaceOnUse" color-interpolation-filters="sRGB">
<feFlood flood-opacity="0" result="BackgroundImageFix"/>
<feGaussianBlur in="BackgroundImageFix" stdDeviation="33"/>
<feComposite in2="SourceAlpha" operator="in" result="effect1_backgroundBlur_562_67684"/>
<feBlend mode="normal" in="SourceGraphic" in2="effect1_backgroundBlur_562_67684" result="shape"/>
</filter>
<filter id="filter3_b_562_67684" x="-66" y="-66" width="652" height="280" filterUnits="userSpaceOnUse" color-interpolation-filters="sRGB">
<feFlood flood-opacity="0" result="BackgroundImageFix"/>
<feGaussianBlur in="BackgroundImageFix" stdDeviation="33"/>
<feComposite in2="SourceAlpha" operator="in" result="effect1_backgroundBlur_562_67684"/>
<feBlend mode="normal" in="SourceGraphic" in2="effect1_backgroundBlur_562_67684" result="shape"/>
</filter>
<linearGradient id="paint0_linear_562_67684" x1="11.1828" y1="12.9691" x2="390.834" y2="282.06" gradientUnits="userSpaceOnUse">
<stop stop-color="#DBF0E5" stop-opacity="0.52"/>
<stop offset="0.552083" stop-color="#DBF0E5"/>
<stop offset="0.989583" stop-color="#DBF0E5" stop-opacity="0.5"/>
</linearGradient>
</defs>
</svg>
