<svg width="18" height="18" viewBox="0 0 18 18" fill="none" xmlns="http://www.w3.org/2000/svg">
<path d="M1.06348 16.9485H16.9495V1.0625H1.06348V16.9485Z" fill="white"/>
<path d="M0 0V18H18V0H0ZM1.06317 16.9368V1.06319H16.9492V16.9492H1.06317V16.9368Z" fill="#0A1133"/>
<path d="M10.0624 8.48291H10.5816V7.95132H11.1132V7.41973H11.6448V6.88813H12.1764V6.35654H12.708V5.82495H13.2396V5.30572H13.7588V4.77412H14.2904V4.24253H13.7588V3.71094H13.2396V4.24253H12.708V4.77412H12.1764V5.30572H11.6448V5.82495H11.1132V6.35654H10.5816V6.88813H10.0624V7.41973H9.5308V7.95132H8.46763V7.41973H7.93601V6.88813H7.40443V6.35654H6.88522V5.82495H6.35359V5.30572H5.82201V4.77412H5.29042V4.24253H4.75884V3.71094H4.22722V4.24253H3.70801V4.77412H4.22722V5.30572H4.75884V5.82495H5.29042V6.35654H5.82201V6.88813H6.35359V7.41973H6.88522V7.95132H7.40443V8.48291H7.93601V9.53374H7.40443V10.0653H6.88522V10.5969H6.35359V11.1285H5.82201V11.6478H5.29042V12.1793H4.75884V12.7109H4.22722V13.2425H3.70801V13.7741H4.22722V14.3057H4.75884V13.7741H5.29042V13.2425H5.82201V12.7109H6.35359V12.1793H6.88522V11.6478H7.40443V11.1285H7.93601V10.5969H8.46763V10.0653H9.5308V10.5969H10.0624V11.1285H10.5816V11.6478H11.1132V12.1793H11.6448V12.7109H12.1764V13.2425H12.708V13.7741H13.2396V14.3057H13.7588V13.7741H14.2904V13.2425H13.7588V12.7109H13.2396V12.1793H12.708V11.6478H12.1764V11.1285H11.6448V10.5969H11.1132V10.0653H10.5816V9.53374H10.0624V8.48291Z" fill="#0A1133"/>
</svg>
