<svg width="520" height="238" viewBox="0 0 520 238" fill="none" xmlns="http://www.w3.org/2000/svg">
<g filter="url(#filter0_b_428_2937)">
<rect x="60" y="90" width="400" height="148" rx="12" fill="#CDFFCC" fill-opacity="0.1"/>
</g>
<g filter="url(#filter1_b_428_2937)">
<rect x="40" y="70" width="440" height="148" rx="12" fill="#CDFFCC" fill-opacity="0.2"/>
</g>
<g filter="url(#filter2_b_428_2937)">
<rect x="20" y="40" width="480" height="148" rx="12" fill="#CDFFCC" fill-opacity="0.4"/>
</g>
<g filter="url(#filter3_b_428_2937)">
<rect width="520" height="148" rx="12" fill="#CDFFCC"/>
</g>
<mask id="mask0_428_2937" style="mask-type:alpha" maskUnits="userSpaceOnUse" x="0" y="0" width="520" height="148">
<rect width="520" height="148" rx="12" fill="url(#paint0_linear_428_2937)"/>
</mask>
<g mask="url(#mask0_428_2937)">
<g opacity="0.3">
<rect x="28.5" y="-18" width="16" height="201" transform="rotate(30 28.5 -18)" fill="white"/>
<rect x="72.8555" y="-18" width="16" height="201" transform="rotate(30 72.8555 -18)" fill="white"/>
<rect x="117.211" y="-18" width="16" height="201" transform="rotate(30 117.211 -18)" fill="white"/>
<rect x="161.57" y="-18" width="16" height="201" transform="rotate(30 161.57 -18)" fill="white"/>
<rect x="205.926" y="-18" width="16" height="201" transform="rotate(30 205.926 -18)" fill="white"/>
<rect x="250.281" y="-18" width="16" height="201" transform="rotate(30 250.281 -18)" fill="white"/>
<rect x="294.637" y="-18" width="16" height="201" transform="rotate(30 294.637 -18)" fill="white"/>
<rect x="338.996" y="-18" width="16" height="201" transform="rotate(30 338.996 -18)" fill="white"/>
<rect x="383.352" y="-18" width="16" height="201" transform="rotate(30 383.352 -18)" fill="white"/>
<rect x="427.707" y="-18" width="16" height="201" transform="rotate(30 427.707 -18)" fill="white"/>
<rect x="472.062" y="-18" width="16" height="201" transform="rotate(30 472.062 -18)" fill="white"/>
<rect x="516.422" y="-18" width="16" height="201" transform="rotate(30 516.422 -18)" fill="white"/>
<rect x="560.777" y="-18" width="16" height="201" transform="rotate(30 560.777 -18)" fill="white"/>
<rect x="605.133" y="-18" width="16" height="201" transform="rotate(30 605.133 -18)" fill="white"/>
</g>
</g>
<path opacity="0.8" d="M75.7969 83L71.2869 66.61H74.0369L77.6889 80.8H77.0069L80.7909 66.61H83.4969L87.2809 80.8H86.5769L90.2509 66.61H92.9789L88.4909 83H85.5649L81.7589 69.03H82.5289L78.7009 83H75.7969ZM99.6374 83.264C98.4934 83.264 97.4447 82.9927 96.4914 82.45C95.5527 81.9073 94.8047 81.1667 94.2474 80.228C93.69 79.2893 93.4114 78.226 93.4114 77.038C93.4114 75.8353 93.69 74.772 94.2474 73.848C94.8047 72.9093 95.5527 72.176 96.4914 71.648C97.43 71.1053 98.4787 70.834 99.6374 70.834C100.811 70.834 101.859 71.1053 102.783 71.648C103.722 72.176 104.463 72.9093 105.005 73.848C105.563 74.772 105.841 75.8353 105.841 77.038C105.841 78.2407 105.563 79.3113 105.005 80.25C104.448 81.1887 103.7 81.9293 102.761 82.472C101.823 83 100.781 83.264 99.6374 83.264ZM99.6374 80.954C100.341 80.954 100.965 80.7853 101.507 80.448C102.05 80.1107 102.475 79.6487 102.783 79.062C103.106 78.4607 103.267 77.786 103.267 77.038C103.267 76.29 103.106 75.6227 102.783 75.036C102.475 74.4493 102.05 73.9873 101.507 73.65C100.965 73.3127 100.341 73.144 99.6374 73.144C98.948 73.144 98.3247 73.3127 97.7674 73.65C97.2247 73.9873 96.792 74.4493 96.4694 75.036C96.1614 75.6227 96.0074 76.29 96.0074 77.038C96.0074 77.786 96.1614 78.4607 96.4694 79.062C96.792 79.6487 97.2247 80.1107 97.7674 80.448C98.3247 80.7853 98.948 80.954 99.6374 80.954ZM108.268 83V71.098H110.644V73.496L110.424 73.144C110.688 72.3667 111.114 71.8093 111.7 71.472C112.287 71.12 112.991 70.944 113.812 70.944H114.538V73.21H113.504C112.683 73.21 112.016 73.4667 111.502 73.98C111.004 74.4787 110.754 75.1973 110.754 76.136V83H108.268ZM116.239 83V66.346H118.725V77.5L117.757 77.258L123.719 71.098H126.821L122.333 75.872L127.019 83H124.159L119.979 76.686L121.453 76.488L117.933 80.228L118.725 78.578V83H116.239ZM133.122 83.264C131.904 83.264 130.834 82.9633 129.91 82.362C129 81.7607 128.362 80.954 127.996 79.942L129.91 79.04C130.232 79.7147 130.672 80.25 131.23 80.646C131.802 81.042 132.432 81.24 133.122 81.24C133.708 81.24 134.185 81.108 134.552 80.844C134.918 80.58 135.102 80.2207 135.102 79.766C135.102 79.4727 135.021 79.238 134.86 79.062C134.698 78.8713 134.493 78.7173 134.244 78.6C134.009 78.4827 133.767 78.3947 133.518 78.336L131.648 77.808C130.621 77.5147 129.851 77.0747 129.338 76.488C128.839 75.8867 128.59 75.19 128.59 74.398C128.59 73.6793 128.773 73.056 129.14 72.528C129.506 71.9853 130.012 71.5673 130.658 71.274C131.303 70.9807 132.029 70.834 132.836 70.834C133.921 70.834 134.889 71.1053 135.74 71.648C136.59 72.176 137.192 72.9167 137.544 73.87L135.63 74.772C135.395 74.2 135.021 73.7453 134.508 73.408C134.009 73.0707 133.444 72.902 132.814 72.902C132.271 72.902 131.838 73.034 131.516 73.298C131.193 73.5473 131.032 73.8773 131.032 74.288C131.032 74.5667 131.105 74.8013 131.252 74.992C131.398 75.168 131.589 75.3147 131.824 75.432C132.058 75.5347 132.3 75.6227 132.55 75.696L134.486 76.268C135.468 76.5467 136.224 76.9867 136.752 77.588C137.28 78.1747 137.544 78.8787 137.544 79.7C137.544 80.404 137.353 81.0273 136.972 81.57C136.605 82.098 136.092 82.516 135.432 82.824C134.772 83.1173 134.002 83.264 133.122 83.264ZM139.979 83V66.346H142.465V73.43L142.069 73.122C142.363 72.374 142.832 71.8093 143.477 71.428C144.123 71.032 144.871 70.834 145.721 70.834C146.601 70.834 147.379 71.0247 148.053 71.406C148.728 71.7873 149.256 72.3153 149.637 72.99C150.019 73.6647 150.209 74.4347 150.209 75.3V83H147.745V75.982C147.745 75.3807 147.628 74.8747 147.393 74.464C147.173 74.0387 146.865 73.716 146.469 73.496C146.073 73.2613 145.619 73.144 145.105 73.144C144.607 73.144 144.152 73.2613 143.741 73.496C143.345 73.716 143.03 74.0387 142.795 74.464C142.575 74.8893 142.465 75.3953 142.465 75.982V83H139.979ZM158.612 83.264C157.468 83.264 156.419 82.9927 155.466 82.45C154.527 81.9073 153.779 81.1667 153.222 80.228C152.665 79.2893 152.386 78.226 152.386 77.038C152.386 75.8353 152.665 74.772 153.222 73.848C153.779 72.9093 154.527 72.176 155.466 71.648C156.405 71.1053 157.453 70.834 158.612 70.834C159.785 70.834 160.834 71.1053 161.758 71.648C162.697 72.176 163.437 72.9093 163.98 73.848C164.537 74.772 164.816 75.8353 164.816 77.038C164.816 78.2407 164.537 79.3113 163.98 80.25C163.423 81.1887 162.675 81.9293 161.736 82.472C160.797 83 159.756 83.264 158.612 83.264ZM158.612 80.954C159.316 80.954 159.939 80.7853 160.482 80.448C161.025 80.1107 161.45 79.6487 161.758 79.062C162.081 78.4607 162.242 77.786 162.242 77.038C162.242 76.29 162.081 75.6227 161.758 75.036C161.45 74.4493 161.025 73.9873 160.482 73.65C159.939 73.3127 159.316 73.144 158.612 73.144C157.923 73.144 157.299 73.3127 156.742 73.65C156.199 73.9873 155.767 74.4493 155.444 75.036C155.136 75.6227 154.982 76.29 154.982 77.038C154.982 77.786 155.136 78.4607 155.444 79.062C155.767 79.6487 156.199 80.1107 156.742 80.448C157.299 80.7853 157.923 80.954 158.612 80.954ZM167.243 87.4V71.098H169.619V73.562L169.333 72.99C169.773 72.3153 170.36 71.7873 171.093 71.406C171.826 71.0247 172.662 70.834 173.601 70.834C174.73 70.834 175.742 71.1053 176.637 71.648C177.546 72.1907 178.258 72.9313 178.771 73.87C179.299 74.8087 179.563 75.8647 179.563 77.038C179.563 78.2113 179.299 79.2673 178.771 80.206C178.258 81.1447 177.554 81.8927 176.659 82.45C175.764 82.9927 174.745 83.264 173.601 83.264C172.677 83.264 171.834 83.0733 171.071 82.692C170.323 82.3107 169.744 81.7607 169.333 81.042L169.729 80.58V87.4H167.243ZM173.359 80.954C174.063 80.954 174.686 80.7853 175.229 80.448C175.772 80.1107 176.197 79.6487 176.505 79.062C176.828 78.4607 176.989 77.786 176.989 77.038C176.989 76.29 176.828 75.6227 176.505 75.036C176.197 74.4493 175.772 73.9873 175.229 73.65C174.686 73.3127 174.063 73.144 173.359 73.144C172.67 73.144 172.046 73.3127 171.489 73.65C170.946 73.9873 170.514 74.4493 170.191 75.036C169.883 75.6227 169.729 76.29 169.729 77.038C169.729 77.786 169.883 78.4607 170.191 79.062C170.514 79.6487 170.946 80.1107 171.489 80.448C172.046 80.7853 172.67 80.954 173.359 80.954ZM191.811 83.264C190.784 83.264 189.831 83.0733 188.951 82.692C188.071 82.296 187.323 81.7607 186.707 81.086C186.091 80.4113 185.636 79.634 185.343 78.754L187.543 77.83C187.939 78.842 188.518 79.6193 189.281 80.162C190.044 80.7047 190.924 80.976 191.921 80.976C192.508 80.976 193.021 80.888 193.461 80.712C193.901 80.5213 194.238 80.2573 194.473 79.92C194.722 79.5827 194.847 79.194 194.847 78.754C194.847 78.1527 194.678 77.676 194.341 77.324C194.004 76.972 193.505 76.6933 192.845 76.488L189.765 75.52C188.533 75.1387 187.594 74.5593 186.949 73.782C186.304 72.99 185.981 72.066 185.981 71.01C185.981 70.086 186.208 69.2793 186.663 68.59C187.118 67.886 187.741 67.336 188.533 66.94C189.34 66.544 190.256 66.346 191.283 66.346C192.266 66.346 193.16 66.522 193.967 66.874C194.774 67.2113 195.463 67.6807 196.035 68.282C196.622 68.8833 197.047 69.58 197.311 70.372L195.155 71.318C194.832 70.4527 194.326 69.7853 193.637 69.316C192.962 68.8467 192.178 68.612 191.283 68.612C190.74 68.612 190.264 68.7073 189.853 68.898C189.442 69.074 189.12 69.338 188.885 69.69C188.665 70.0273 188.555 70.4233 188.555 70.878C188.555 71.406 188.724 71.8753 189.061 72.286C189.398 72.6967 189.912 73.0047 190.601 73.21L193.461 74.112C194.766 74.508 195.749 75.08 196.409 75.828C197.069 76.5613 197.399 77.478 197.399 78.578C197.399 79.4873 197.157 80.294 196.673 80.998C196.204 81.702 195.551 82.2593 194.715 82.67C193.879 83.066 192.911 83.264 191.811 83.264ZM205.725 83.264C204.537 83.264 203.481 82.9927 202.557 82.45C201.648 81.8927 200.922 81.1447 200.379 80.206C199.851 79.2673 199.587 78.204 199.587 77.016C199.587 75.8427 199.851 74.7867 200.379 73.848C200.907 72.9093 201.633 72.176 202.557 71.648C203.481 71.1053 204.537 70.834 205.725 70.834C206.532 70.834 207.287 70.9807 207.991 71.274C208.695 71.5527 209.304 71.9413 209.817 72.44C210.345 72.9387 210.734 73.518 210.983 74.178L208.805 75.19C208.556 74.574 208.152 74.0827 207.595 73.716C207.052 73.3347 206.429 73.144 205.725 73.144C205.05 73.144 204.442 73.3127 203.899 73.65C203.371 73.9727 202.953 74.4347 202.645 75.036C202.337 75.6227 202.183 76.29 202.183 77.038C202.183 77.786 202.337 78.4607 202.645 79.062C202.953 79.6487 203.371 80.1107 203.899 80.448C204.442 80.7853 205.05 80.954 205.725 80.954C206.444 80.954 207.067 80.7707 207.595 80.404C208.138 80.0227 208.541 79.5167 208.805 78.886L210.983 79.92C210.748 80.5507 210.367 81.1227 209.839 81.636C209.326 82.1347 208.717 82.5307 208.013 82.824C207.309 83.1173 206.546 83.264 205.725 83.264ZM213.413 83V66.346H215.899V73.43L215.503 73.122C215.796 72.374 216.266 71.8093 216.911 71.428C217.556 71.032 218.304 70.834 219.155 70.834C220.035 70.834 220.812 71.0247 221.487 71.406C222.162 71.7873 222.69 72.3153 223.071 72.99C223.452 73.6647 223.643 74.4347 223.643 75.3V83H221.179V75.982C221.179 75.3807 221.062 74.8747 220.827 74.464C220.607 74.0387 220.299 73.716 219.903 73.496C219.507 73.2613 219.052 73.144 218.539 73.144C218.04 73.144 217.586 73.2613 217.175 73.496C216.779 73.716 216.464 74.0387 216.229 74.464C216.009 74.8893 215.899 75.3953 215.899 75.982V83H213.413ZM231.892 83.264C230.704 83.264 229.648 82.9927 228.724 82.45C227.814 81.8927 227.103 81.1447 226.59 80.206C226.076 79.2527 225.82 78.1893 225.82 77.016C225.82 75.8133 226.076 74.75 226.59 73.826C227.118 72.902 227.822 72.176 228.702 71.648C229.582 71.1053 230.579 70.834 231.694 70.834C232.588 70.834 233.388 70.988 234.092 71.296C234.796 71.604 235.39 72.0293 235.874 72.572C236.358 73.1 236.724 73.7087 236.974 74.398C237.238 75.0873 237.37 75.8207 237.37 76.598C237.37 76.7887 237.362 76.9867 237.348 77.192C237.333 77.3973 237.304 77.588 237.26 77.764H227.778V75.784H235.852L234.664 76.686C234.81 75.9673 234.759 75.3293 234.51 74.772C234.275 74.2 233.908 73.7527 233.41 73.43C232.926 73.0927 232.354 72.924 231.694 72.924C231.034 72.924 230.447 73.0927 229.934 73.43C229.42 73.7527 229.024 74.222 228.746 74.838C228.467 75.4393 228.357 76.1727 228.416 77.038C228.342 77.8447 228.452 78.5487 228.746 79.15C229.054 79.7513 229.479 80.2207 230.022 80.558C230.579 80.8953 231.21 81.064 231.914 81.064C232.632 81.064 233.241 80.9027 233.74 80.58C234.253 80.2573 234.656 79.8393 234.95 79.326L236.974 80.316C236.739 80.8733 236.372 81.3793 235.874 81.834C235.39 82.274 234.803 82.626 234.114 82.89C233.439 83.1393 232.698 83.264 231.892 83.264ZM245.296 83.264C244.152 83.264 243.125 82.9927 242.216 82.45C241.321 81.8927 240.61 81.1447 240.082 80.206C239.568 79.2673 239.312 78.2113 239.312 77.038C239.312 75.8647 239.576 74.8087 240.104 73.87C240.632 72.9313 241.343 72.1907 242.238 71.648C243.132 71.1053 244.144 70.834 245.274 70.834C246.227 70.834 247.07 71.0247 247.804 71.406C248.537 71.7873 249.116 72.3153 249.542 72.99L249.168 73.562V66.346H251.632V83H249.278V80.58L249.564 81.042C249.153 81.7607 248.566 82.3107 247.804 82.692C247.041 83.0733 246.205 83.264 245.296 83.264ZM245.538 80.954C246.227 80.954 246.843 80.7853 247.386 80.448C247.943 80.1107 248.376 79.6487 248.684 79.062C249.006 78.4607 249.168 77.786 249.168 77.038C249.168 76.29 249.006 75.6227 248.684 75.036C248.376 74.4493 247.943 73.9873 247.386 73.65C246.843 73.3127 246.227 73.144 245.538 73.144C244.848 73.144 244.225 73.3127 243.668 73.65C243.11 73.9873 242.678 74.4493 242.37 75.036C242.062 75.6227 241.908 76.29 241.908 77.038C241.908 77.786 242.062 78.4607 242.37 79.062C242.678 79.6487 243.103 80.1107 243.646 80.448C244.203 80.7853 244.834 80.954 245.538 80.954ZM258.78 83.264C257.885 83.264 257.101 83.066 256.426 82.67C255.751 82.2593 255.223 81.6947 254.842 80.976C254.475 80.2427 254.292 79.3993 254.292 78.446V71.098H256.778V78.226C256.778 78.7687 256.888 79.2453 257.108 79.656C257.328 80.0667 257.636 80.3893 258.032 80.624C258.428 80.844 258.883 80.954 259.396 80.954C259.924 80.954 260.386 80.8367 260.782 80.602C261.178 80.3673 261.486 80.0373 261.706 79.612C261.941 79.1867 262.058 78.688 262.058 78.116V71.098H264.522V83H262.168V80.668L262.432 80.976C262.153 81.7093 261.691 82.274 261.046 82.67C260.401 83.066 259.645 83.264 258.78 83.264ZM267.425 83V66.346H269.911V83H267.425ZM278.405 83.264C277.217 83.264 276.161 82.9927 275.237 82.45C274.328 81.8927 273.617 81.1447 273.103 80.206C272.59 79.2527 272.333 78.1893 272.333 77.016C272.333 75.8133 272.59 74.75 273.103 73.826C273.631 72.902 274.335 72.176 275.215 71.648C276.095 71.1053 277.093 70.834 278.207 70.834C279.102 70.834 279.901 70.988 280.605 71.296C281.309 71.604 281.903 72.0293 282.387 72.572C282.871 73.1 283.238 73.7087 283.487 74.398C283.751 75.0873 283.883 75.8207 283.883 76.598C283.883 76.7887 283.876 76.9867 283.861 77.192C283.847 77.3973 283.817 77.588 283.773 77.764H274.291V75.784H282.365L281.177 76.686C281.324 75.9673 281.273 75.3293 281.023 74.772C280.789 74.2 280.422 73.7527 279.923 73.43C279.439 73.0927 278.867 72.924 278.207 72.924C277.547 72.924 276.961 73.0927 276.447 73.43C275.934 73.7527 275.538 74.222 275.259 74.838C274.981 75.4393 274.871 76.1727 274.929 77.038C274.856 77.8447 274.966 78.5487 275.259 79.15C275.567 79.7513 275.993 80.2207 276.535 80.558C277.093 80.8953 277.723 81.064 278.427 81.064C279.146 81.064 279.755 80.9027 280.253 80.58C280.767 80.2573 281.17 79.8393 281.463 79.326L283.487 80.316C283.253 80.8733 282.886 81.3793 282.387 81.834C281.903 82.274 281.317 82.626 280.627 82.89C279.953 83.1393 279.212 83.264 278.405 83.264ZM295.809 83.264C294.621 83.264 293.565 82.9927 292.641 82.45C291.732 81.8927 291.006 81.1447 290.463 80.206C289.935 79.2673 289.671 78.204 289.671 77.016C289.671 75.8427 289.935 74.7867 290.463 73.848C290.991 72.9093 291.717 72.176 292.641 71.648C293.565 71.1053 294.621 70.834 295.809 70.834C296.616 70.834 297.371 70.9807 298.075 71.274C298.779 71.5527 299.388 71.9413 299.901 72.44C300.429 72.9387 300.818 73.518 301.067 74.178L298.889 75.19C298.64 74.574 298.236 74.0827 297.679 73.716C297.136 73.3347 296.513 73.144 295.809 73.144C295.134 73.144 294.526 73.3127 293.983 73.65C293.455 73.9727 293.037 74.4347 292.729 75.036C292.421 75.6227 292.267 76.29 292.267 77.038C292.267 77.786 292.421 78.4607 292.729 79.062C293.037 79.6487 293.455 80.1107 293.983 80.448C294.526 80.7853 295.134 80.954 295.809 80.954C296.528 80.954 297.151 80.7707 297.679 80.404C298.222 80.0227 298.625 79.5167 298.889 78.886L301.067 79.92C300.832 80.5507 300.451 81.1227 299.923 81.636C299.41 82.1347 298.801 82.5307 298.097 82.824C297.393 83.1173 296.63 83.264 295.809 83.264ZM309.239 83.264C308.095 83.264 307.046 82.9927 306.093 82.45C305.154 81.9073 304.406 81.1667 303.849 80.228C303.292 79.2893 303.013 78.226 303.013 77.038C303.013 75.8353 303.292 74.772 303.849 73.848C304.406 72.9093 305.154 72.176 306.093 71.648C307.032 71.1053 308.08 70.834 309.239 70.834C310.412 70.834 311.461 71.1053 312.385 71.648C313.324 72.176 314.064 72.9093 314.607 73.848C315.164 74.772 315.443 75.8353 315.443 77.038C315.443 78.2407 315.164 79.3113 314.607 80.25C314.05 81.1887 313.302 81.9293 312.363 82.472C311.424 83 310.383 83.264 309.239 83.264ZM309.239 80.954C309.943 80.954 310.566 80.7853 311.109 80.448C311.652 80.1107 312.077 79.6487 312.385 79.062C312.708 78.4607 312.869 77.786 312.869 77.038C312.869 76.29 312.708 75.6227 312.385 75.036C312.077 74.4493 311.652 73.9873 311.109 73.65C310.566 73.3127 309.943 73.144 309.239 73.144C308.55 73.144 307.926 73.3127 307.369 73.65C306.826 73.9873 306.394 74.4493 306.071 75.036C305.763 75.6227 305.609 76.29 305.609 77.038C305.609 77.786 305.763 78.4607 306.071 79.062C306.394 79.6487 306.826 80.1107 307.369 80.448C307.926 80.7853 308.55 80.954 309.239 80.954ZM317.87 83V71.098H320.246V73.672L319.938 73.276C320.187 72.4693 320.642 71.8607 321.302 71.45C321.962 71.0393 322.717 70.834 323.568 70.834C324.521 70.834 325.365 71.0907 326.098 71.604C326.846 72.1027 327.345 72.77 327.594 73.606L326.89 73.672C327.242 72.7187 327.777 72.0073 328.496 71.538C329.229 71.0687 330.065 70.834 331.004 70.834C331.825 70.834 332.566 71.0247 333.226 71.406C333.901 71.7873 334.436 72.3153 334.832 72.99C335.228 73.6647 335.426 74.4347 335.426 75.3V83H332.94V75.982C332.94 75.3807 332.83 74.8747 332.61 74.464C332.405 74.0387 332.111 73.716 331.73 73.496C331.363 73.2613 330.931 73.144 330.432 73.144C329.933 73.144 329.493 73.2613 329.112 73.496C328.731 73.716 328.43 74.0387 328.21 74.464C327.99 74.8893 327.88 75.3953 327.88 75.982V83H325.416V75.982C325.416 75.3807 325.306 74.8747 325.086 74.464C324.881 74.0387 324.587 73.716 324.206 73.496C323.839 73.2613 323.399 73.144 322.886 73.144C322.387 73.144 321.947 73.2613 321.566 73.496C321.185 73.716 320.884 74.0387 320.664 74.464C320.459 74.8893 320.356 75.3953 320.356 75.982V83H317.87ZM338.087 83V71.098H340.573V83H338.087ZM338.087 69.47V66.61H340.573V69.47H338.087ZM343.479 83V71.098H345.855V73.43L345.569 73.122C345.863 72.374 346.332 71.8093 346.977 71.428C347.623 71.032 348.371 70.834 349.221 70.834C350.101 70.834 350.879 71.0247 351.553 71.406C352.228 71.7873 352.756 72.3153 353.137 72.99C353.519 73.6647 353.709 74.442 353.709 75.322V83H351.245V75.982C351.245 75.3807 351.135 74.8747 350.915 74.464C350.695 74.0387 350.38 73.716 349.969 73.496C349.573 73.2613 349.119 73.144 348.605 73.144C348.092 73.144 347.63 73.2613 347.219 73.496C346.823 73.716 346.515 74.0387 346.295 74.464C346.075 74.8893 345.965 75.3953 345.965 75.982V83H343.479ZM362.112 87.84C361.247 87.84 360.447 87.7007 359.714 87.422C358.981 87.1433 358.35 86.7547 357.822 86.256C357.294 85.772 356.898 85.2 356.634 84.54L358.922 83.594C359.127 84.1513 359.501 84.6133 360.044 84.98C360.601 85.3467 361.283 85.53 362.09 85.53C362.721 85.53 363.285 85.4053 363.784 85.156C364.283 84.9213 364.679 84.5693 364.972 84.1C365.265 83.6453 365.412 83.0953 365.412 82.45V79.766L365.852 80.272C365.441 81.0347 364.869 81.614 364.136 82.01C363.417 82.406 362.603 82.604 361.694 82.604C360.594 82.604 359.604 82.3473 358.724 81.834C357.844 81.3207 357.147 80.6167 356.634 79.722C356.135 78.8273 355.886 77.8227 355.886 76.708C355.886 75.5787 356.135 74.574 356.634 73.694C357.147 72.814 357.837 72.1173 358.702 71.604C359.567 71.0907 360.557 70.834 361.672 70.834C362.581 70.834 363.388 71.032 364.092 71.428C364.811 71.8093 365.397 72.3667 365.852 73.1L365.522 73.716V71.098H367.876V82.45C367.876 83.4767 367.627 84.3933 367.128 85.2C366.644 86.0213 365.969 86.6667 365.104 87.136C364.239 87.6053 363.241 87.84 362.112 87.84ZM361.98 80.294C362.64 80.294 363.227 80.14 363.74 79.832C364.253 79.5093 364.657 79.084 364.95 78.556C365.258 78.0133 365.412 77.4047 365.412 76.73C365.412 76.0553 365.258 75.4467 364.95 74.904C364.642 74.3613 364.231 73.936 363.718 73.628C363.205 73.3053 362.625 73.144 361.98 73.144C361.305 73.144 360.704 73.3053 360.176 73.628C359.648 73.936 359.23 74.3613 358.922 74.904C358.629 75.432 358.482 76.0407 358.482 76.73C358.482 77.39 358.629 77.9913 358.922 78.534C359.23 79.0767 359.648 79.5093 360.176 79.832C360.704 80.14 361.305 80.294 361.98 80.294ZM379.032 83.264C377.814 83.264 376.744 82.9633 375.82 82.362C374.91 81.7607 374.272 80.954 373.906 79.942L375.82 79.04C376.142 79.7147 376.582 80.25 377.14 80.646C377.712 81.042 378.342 81.24 379.032 81.24C379.618 81.24 380.095 81.108 380.462 80.844C380.828 80.58 381.012 80.2207 381.012 79.766C381.012 79.4727 380.931 79.238 380.77 79.062C380.608 78.8713 380.403 78.7173 380.154 78.6C379.919 78.4827 379.677 78.3947 379.428 78.336L377.558 77.808C376.531 77.5147 375.761 77.0747 375.248 76.488C374.749 75.8867 374.5 75.19 374.5 74.398C374.5 73.6793 374.683 73.056 375.05 72.528C375.416 71.9853 375.922 71.5673 376.568 71.274C377.213 70.9807 377.939 70.834 378.746 70.834C379.831 70.834 380.799 71.1053 381.65 71.648C382.5 72.176 383.102 72.9167 383.454 73.87L381.54 74.772C381.305 74.2 380.931 73.7453 380.418 73.408C379.919 73.0707 379.354 72.902 378.724 72.902C378.181 72.902 377.748 73.034 377.426 73.298C377.103 73.5473 376.942 73.8773 376.942 74.288C376.942 74.5667 377.015 74.8013 377.162 74.992C377.308 75.168 377.499 75.3147 377.734 75.432C377.968 75.5347 378.21 75.6227 378.46 75.696L380.396 76.268C381.378 76.5467 382.134 76.9867 382.662 77.588C383.19 78.1747 383.454 78.8787 383.454 79.7C383.454 80.404 383.263 81.0273 382.882 81.57C382.515 82.098 382.002 82.516 381.342 82.824C380.682 83.1173 379.912 83.264 379.032 83.264ZM391.632 83.264C390.488 83.264 389.439 82.9927 388.486 82.45C387.547 81.9073 386.799 81.1667 386.242 80.228C385.684 79.2893 385.406 78.226 385.406 77.038C385.406 75.8353 385.684 74.772 386.242 73.848C386.799 72.9093 387.547 72.176 388.486 71.648C389.424 71.1053 390.473 70.834 391.632 70.834C392.805 70.834 393.854 71.1053 394.778 71.648C395.716 72.176 396.457 72.9093 397 73.848C397.557 74.772 397.836 75.8353 397.836 77.038C397.836 78.2407 397.557 79.3113 397 80.25C396.442 81.1887 395.694 81.9293 394.756 82.472C393.817 83 392.776 83.264 391.632 83.264ZM391.632 80.954C392.336 80.954 392.959 80.7853 393.502 80.448C394.044 80.1107 394.47 79.6487 394.778 79.062C395.1 78.4607 395.262 77.786 395.262 77.038C395.262 76.29 395.1 75.6227 394.778 75.036C394.47 74.4493 394.044 73.9873 393.502 73.65C392.959 73.3127 392.336 73.144 391.632 73.144C390.942 73.144 390.319 73.3127 389.762 73.65C389.219 73.9873 388.786 74.4493 388.464 75.036C388.156 75.6227 388.002 76.29 388.002 77.038C388.002 77.786 388.156 78.4607 388.464 79.062C388.786 79.6487 389.219 80.1107 389.762 80.448C390.319 80.7853 390.942 80.954 391.632 80.954ZM406.005 83.264C404.861 83.264 403.812 82.9927 402.859 82.45C401.92 81.9073 401.172 81.1667 400.615 80.228C400.057 79.2893 399.779 78.226 399.779 77.038C399.779 75.8353 400.057 74.772 400.615 73.848C401.172 72.9093 401.92 72.176 402.859 71.648C403.797 71.1053 404.846 70.834 406.005 70.834C407.178 70.834 408.227 71.1053 409.151 71.648C410.089 72.176 410.83 72.9093 411.373 73.848C411.93 74.772 412.209 75.8353 412.209 77.038C412.209 78.2407 411.93 79.3113 411.373 80.25C410.815 81.1887 410.067 81.9293 409.129 82.472C408.19 83 407.149 83.264 406.005 83.264ZM406.005 80.954C406.709 80.954 407.332 80.7853 407.875 80.448C408.417 80.1107 408.843 79.6487 409.151 79.062C409.473 78.4607 409.635 77.786 409.635 77.038C409.635 76.29 409.473 75.6227 409.151 75.036C408.843 74.4493 408.417 73.9873 407.875 73.65C407.332 73.3127 406.709 73.144 406.005 73.144C405.315 73.144 404.692 73.3127 404.135 73.65C403.592 73.9873 403.159 74.4493 402.837 75.036C402.529 75.6227 402.375 76.29 402.375 77.038C402.375 77.786 402.529 78.4607 402.837 79.062C403.159 79.6487 403.592 80.1107 404.135 80.448C404.692 80.7853 405.315 80.954 406.005 80.954ZM414.636 83V71.098H417.012V73.43L416.726 73.122C417.019 72.374 417.488 71.8093 418.134 71.428C418.779 71.032 419.527 70.834 420.378 70.834C421.258 70.834 422.035 71.0247 422.71 71.406C423.384 71.7873 423.912 72.3153 424.294 72.99C424.675 73.6647 424.866 74.442 424.866 75.322V83H422.402V75.982C422.402 75.3807 422.292 74.8747 422.072 74.464C421.852 74.0387 421.536 73.716 421.126 73.496C420.73 73.2613 420.275 73.144 419.762 73.144C419.248 73.144 418.786 73.2613 418.376 73.496C417.98 73.716 417.672 74.0387 417.452 74.464C417.232 74.8893 417.122 75.3953 417.122 75.982V83H414.636ZM428.626 83V80.14H431.156V83H428.626ZM436.253 83V80.14H438.783V83H436.253ZM443.88 83V80.14H446.41V83H443.88Z" fill="#262F59"/>
<defs>
<filter id="filter0_b_428_2937" x="-6" y="24" width="532" height="280" filterUnits="userSpaceOnUse" color-interpolation-filters="sRGB">
<feFlood flood-opacity="0" result="BackgroundImageFix"/>
<feGaussianBlur in="BackgroundImageFix" stdDeviation="33"/>
<feComposite in2="SourceAlpha" operator="in" result="effect1_backgroundBlur_428_2937"/>
<feBlend mode="normal" in="SourceGraphic" in2="effect1_backgroundBlur_428_2937" result="shape"/>
</filter>
<filter id="filter1_b_428_2937" x="-26" y="4" width="572" height="280" filterUnits="userSpaceOnUse" color-interpolation-filters="sRGB">
<feFlood flood-opacity="0" result="BackgroundImageFix"/>
<feGaussianBlur in="BackgroundImageFix" stdDeviation="33"/>
<feComposite in2="SourceAlpha" operator="in" result="effect1_backgroundBlur_428_2937"/>
<feBlend mode="normal" in="SourceGraphic" in2="effect1_backgroundBlur_428_2937" result="shape"/>
</filter>
<filter id="filter2_b_428_2937" x="-46" y="-26" width="612" height="280" filterUnits="userSpaceOnUse" color-interpolation-filters="sRGB">
<feFlood flood-opacity="0" result="BackgroundImageFix"/>
<feGaussianBlur in="BackgroundImageFix" stdDeviation="33"/>
<feComposite in2="SourceAlpha" operator="in" result="effect1_backgroundBlur_428_2937"/>
<feBlend mode="normal" in="SourceGraphic" in2="effect1_backgroundBlur_428_2937" result="shape"/>
</filter>
<filter id="filter3_b_428_2937" x="-66" y="-66" width="652" height="280" filterUnits="userSpaceOnUse" color-interpolation-filters="sRGB">
<feFlood flood-opacity="0" result="BackgroundImageFix"/>
<feGaussianBlur in="BackgroundImageFix" stdDeviation="33"/>
<feComposite in2="SourceAlpha" operator="in" result="effect1_backgroundBlur_428_2937"/>
<feBlend mode="normal" in="SourceGraphic" in2="effect1_backgroundBlur_428_2937" result="shape"/>
</filter>
<linearGradient id="paint0_linear_428_2937" x1="11.1828" y1="12.9691" x2="390.834" y2="282.06" gradientUnits="userSpaceOnUse">
<stop stop-color="#DBF0E5" stop-opacity="0.52"/>
<stop offset="0.552083" stop-color="#DBF0E5"/>
<stop offset="0.989583" stop-color="#DBF0E5" stop-opacity="0.5"/>
</linearGradient>
</defs>
</svg>
